<svg height="400" version="1.1" width="400" xmlns="http://www.w3.org/2000/svg" style="overflow: hidden; position: relative; left: -0.4px; top: -0.2px;" viewBox="0 0 400 400" preserveAspectRatio="xMidYMid meet"><path fill="none" stroke="#000000" d="M176.4955835841362,256.74468088684324L142.8270952046556,338.02760215718627A149.4,149.4,0,0,1,94.3582468907298,305.6417531092702A149.4,149.4,0,0,1,61.97239784281376,257.17290479534444L143.25531911315676,223.50441641586383A61.42,61.42,0,0,0,156.56950149952226,243.43049850047777A61.42,61.42,0,0,0,176.4955835841362,256.74468088684324Z" class="wheelnav-piemenu-slice-basic-7" id="wheelnav-piemenu-slice-7" style="-webkit-tap-highlight-color: rgba(0, 0, 0, 0);" transform="matrix(-1,0,0,-1,400,400)"></path><path fill="none" stroke="#000000" d="M0,0" class="wheelnav-piemenu-line-basic-7" id="wheelnav-piemenu-line-7" style="-webkit-tap-highlight-color: rgba(0, 0, 0, 0);" transform="matrix(-1,0,0,-1,400,400)"></path><text x="125.46387419512604" y="274.53612580487396" text-anchor="middle" font="10px &quot;Arial&quot;" stroke="none" fill="#000000" style="-webkit-tap-highlight-color: rgba(0, 0, 0, 0); text-anchor: middle; font-style: normal; font-variant: normal; font-weight: normal; font-stretch: normal; font-size: 10px; line-height: normal; font-family: Arial;" class="wheelnav-piemenu-title-basic-7" id="wheelnav-piemenu-title-7" transform="matrix(1,0,0,1,149.7031,-149.0781)" stroke-width="1.0051884655062235"><tspan dy="9.606438304873961" style="-webkit-tap-highlight-color: rgba(0, 0, 0, 0);">7</tspan></text><path fill="none" stroke="#000000" d="M223.50441641586383,256.74468088684324L257.17290479534444,338.02760215718627A149.4,149.4,0,0,1,200,349.4A149.4,149.4,0,0,1,142.8270952046556,338.02760215718627L176.4955835841362,256.74468088684324A61.42,61.42,0,0,0,200,261.42A61.42,61.42,0,0,0,223.50441641586383,256.74468088684324Z" class="wheelnav-piemenu-slice-basic-6" id="wheelnav-piemenu-slice-6" style="-webkit-tap-highlight-color: rgba(0, 0, 0, 0);" transform="matrix(-1,0,0,-1,400,400)"></path><path fill="none" stroke="#000000" d="M0,0" class="wheelnav-piemenu-line-basic-6" id="wheelnav-piemenu-line-6" style="-webkit-tap-highlight-color: rgba(0, 0, 0, 0);" transform="matrix(-1,0,0,-1,400,400)"></path><text x="200" y="305.40999999999997" text-anchor="middle" font="10px &quot;Arial&quot;" stroke="none" fill="#000000" style="-webkit-tap-highlight-color: rgba(0, 0, 0, 0); text-anchor: middle; font-style: normal; font-variant: normal; font-weight: normal; font-stretch: normal; font-size: 10px; line-height: normal; font-family: Arial;" class="wheelnav-piemenu-title-basic-6" id="wheelnav-piemenu-title-6" transform="matrix(1,0,0,1,0.0156,-210.7969)" stroke-width="1.0051884655062235"><tspan dy="9.605312499999968" style="-webkit-tap-highlight-color: rgba(0, 0, 0, 0);">6</tspan></text><path fill="none" stroke="#000000" d="M256.74468088684324,223.50441641586383L338.02760215718627,257.17290479534444A149.4,149.4,0,0,1,305.6417531092702,305.6417531092702A149.4,149.4,0,0,1,257.17290479534444,338.02760215718627L223.50441641586383,256.74468088684324A61.42,61.42,0,0,0,243.43049850047777,243.43049850047774A61.42,61.42,0,0,0,256.74468088684324,223.50441641586383Z" class="wheelnav-piemenu-slice-basic-5" id="wheelnav-piemenu-slice-5" style="-webkit-tap-highlight-color: rgba(0, 0, 0, 0);" transform="matrix(-1,0,0,-1,400,400)"></path><path fill="none" stroke="#000000" d="M0,0" class="wheelnav-piemenu-line-basic-5" id="wheelnav-piemenu-line-5" style="-webkit-tap-highlight-color: rgba(0, 0, 0, 0);" transform="matrix(-1,0,0,-1,400,400)"></path><text x="274.53612580487396" y="274.53612580487396" text-anchor="middle" font="10px &quot;Arial&quot;" stroke="none" fill="#000000" style="-webkit-tap-highlight-color: rgba(0, 0, 0, 0); text-anchor: middle; font-style: normal; font-variant: normal; font-weight: normal; font-stretch: normal; font-size: 10px; line-height: normal; font-family: Arial;" class="wheelnav-piemenu-title-basic-5" id="wheelnav-piemenu-title-5" transform="matrix(1,0,0,1,-149.0625,-149.0781)" stroke-width="1.0051884655062235"><tspan dy="9.606438304873961" style="-webkit-tap-highlight-color: rgba(0, 0, 0, 0);">5</tspan></text><path fill="none" stroke="#000000" d="M223.50441641586383,143.25531911315676L257.17290479534444,61.97239784281376A149.4,149.4,0,0,1,305.6417531092702,94.35824689072977A149.4,149.4,0,0,1,338.02760215718627,142.82709520465562L256.74468088684324,176.4955835841362A61.42,61.42,0,0,0,243.43049850047774,156.56950149952223A61.42,61.42,0,0,0,223.50441641586383,143.25531911315676Z" class="wheelnav-piemenu-slice-basic-3" id="wheelnav-piemenu-slice-3" style="-webkit-tap-highlight-color: rgba(0, 0, 0, 0);" transform="matrix(-1,0,0,-1,400,400)"></path><path fill="none" stroke="#000000" d="M0,0" class="wheelnav-piemenu-line-basic-3" id="wheelnav-piemenu-line-3" style="-webkit-tap-highlight-color: rgba(0, 0, 0, 0);" transform="matrix(-1,0,0,-1,400,400)"></path><text x="274.53612580487396" y="125.46387419512601" text-anchor="middle" font="10px &quot;Arial&quot;" stroke="none" fill="#000000" style="-webkit-tap-highlight-color: rgba(0, 0, 0, 0); text-anchor: middle; font-style: normal; font-variant: normal; font-weight: normal; font-stretch: normal; font-size: 10px; line-height: normal; font-family: Arial;" class="wheelnav-piemenu-title-basic-3" id="wheelnav-piemenu-title-3" transform="matrix(1,0,0,1,-149.1406,149.0781)" stroke-width="1.0051884655062235"><tspan dy="9.61231169512601" style="-webkit-tap-highlight-color: rgba(0, 0, 0, 0);">3</tspan></text><path fill="none" stroke="#000000" d="M176.4955835841362,143.25531911315676L142.82709520465562,61.972397842813734A149.4,149.4,0,0,1,199.99999999999997,50.599999999999994A149.4,149.4,0,0,1,257.17290479534444,61.97239784281376L223.50441641586383,143.25531911315676A61.42,61.42,0,0,0,200,138.57999999999998A61.42,61.42,0,0,0,176.4955835841362,143.25531911315676Z" class="wheelnav-piemenu-slice-basic-2" id="wheelnav-piemenu-slice-2" style="-webkit-tap-highlight-color: rgba(0, 0, 0, 0);" transform="matrix(-1,0,0,-1,400,400)"></path><path fill="none" stroke="#000000" d="M0,0" class="wheelnav-piemenu-line-basic-2" id="wheelnav-piemenu-line-2" style="-webkit-tap-highlight-color: rgba(0, 0, 0, 0);" transform="matrix(-1,0,0,-1,400,400)"></path><text x="199.99999999999997" y="94.59" text-anchor="middle" font="10px &quot;Arial&quot;" stroke="none" fill="#000000" style="-webkit-tap-highlight-color: rgba(0, 0, 0, 0); text-anchor: middle; font-style: normal; font-variant: normal; font-weight: normal; font-stretch: normal; font-size: 10px; line-height: normal; font-family: Arial;" class="wheelnav-piemenu-title-basic-2" id="wheelnav-piemenu-title-2" transform="matrix(1,0,0,1,0.0156,210.7969)" stroke-width="1.0051884655062235"><tspan dy="9.613437500000003" style="-webkit-tap-highlight-color: rgba(0, 0, 0, 0);">2</tspan></text><path fill="none" stroke="#000000" d="M143.25531911315676,176.49558358413623L61.972397842813734,142.82709520465568A149.4,149.4,0,0,1,94.35824689072977,94.3582468907298A149.4,149.4,0,0,1,142.82709520465562,61.972397842813734L176.4955835841362,143.25531911315676A61.42,61.42,0,0,0,156.56950149952223,156.56950149952226A61.42,61.42,0,0,0,143.25531911315676,176.49558358413623Z" class="wheelnav-piemenu-slice-basic-1" id="wheelnav-piemenu-slice-1" style="-webkit-tap-highlight-color: rgba(0, 0, 0, 0);" transform="matrix(-1,0,0,-1,400,400)"></path><path fill="none" stroke="#000000" d="M0,0" class="wheelnav-piemenu-line-basic-1" id="wheelnav-piemenu-line-1" style="-webkit-tap-highlight-color: rgba(0, 0, 0, 0);" transform="matrix(-1,0,0,-1,400,400)"></path><text x="125.46387419512601" y="125.46387419512604" text-anchor="middle" font="10px &quot;Arial&quot;" stroke="none" fill="#000000" style="-webkit-tap-highlight-color: rgba(0, 0, 0, 0); text-anchor: middle; font-style: normal; font-variant: normal; font-weight: normal; font-stretch: normal; font-size: 10px; line-height: normal; font-family: Arial;" class="wheelnav-piemenu-title-basic-1" id="wheelnav-piemenu-title-1" transform="matrix(1,0,0,1,149.9063,149.0781)" stroke-width="1.0051884655062235"><tspan dy="9.612311695126039" style="-webkit-tap-highlight-color: rgba(0, 0, 0, 0);">1</tspan></text><path fill="none" stroke="#000000" d="M143.25531911315676,223.50441641586383L61.97239784281376,257.17290479534444A149.4,149.4,0,0,1,50.599999999999994,200.00000000000003A149.4,149.4,0,0,1,61.972397842813734,142.82709520465568L143.25531911315676,176.49558358413623A61.42,61.42,0,0,0,138.57999999999998,200A61.42,61.42,0,0,0,143.25531911315676,223.50441641586383Z" class="wheelnav-piemenu-slice-basic-0" id="wheelnav-piemenu-slice-0" style="-webkit-tap-highlight-color: rgba(0, 0, 0, 0);" transform="matrix(-1,0,0,-1,400,400)"></path><path fill="none" stroke="#000000" d="M0,0" class="wheelnav-piemenu-line-basic-0" id="wheelnav-piemenu-line-0" style="-webkit-tap-highlight-color: rgba(0, 0, 0, 0);" transform="matrix(-1,0,0,-1,400,400)"></path><text x="94.59" y="200" text-anchor="middle" font="10px &quot;Arial&quot;" stroke="none" fill="#000000" style="-webkit-tap-highlight-color: rgba(0, 0, 0, 0); text-anchor: middle; font-style: normal; font-variant: normal; font-weight: normal; font-stretch: normal; font-size: 10px; line-height: normal; font-family: Arial;" class="wheelnav-piemenu-title-basic-0" id="wheelnav-piemenu-title-0" transform="matrix(1,0,0,1,210.8281,0.0156)" stroke-width="1.0051884655062235"><tspan dy="9.6015625" style="-webkit-tap-highlight-color: rgba(0, 0, 0, 0);">0</tspan></text><desc style="-webkit-tap-highlight-color: rgba(0, 0, 0, 0);">Created with Raphaël 2.1.2</desc><defs style="-webkit-tap-highlight-color: rgba(0, 0, 0, 0);"></defs><path fill="none" stroke="#000000" d="M256.74468088684324,176.4955835841362L338.02760215718627,142.82709520465562A149.4,149.4,0,0,1,349.4,200A149.4,149.4,0,0,1,338.02760215718627,257.17290479534444L256.74468088684324,223.50441641586383A61.42,61.42,0,0,0,261.42,200A61.42,61.42,0,0,0,256.74468088684324,176.4955835841362Z" class="wheelnav-piemenu-slice-selected-4" id="wheelnav-piemenu-slice-4" style="-webkit-tap-highlight-color: rgba(0, 0, 0, 0);" transform="matrix(-1,0,0,-1,400,400)"></path><path fill="none" stroke="#000000" d="M0,0" class="wheelnav-piemenu-line-selected-4" id="wheelnav-piemenu-line-4" style="-webkit-tap-highlight-color: rgba(0, 0, 0, 0);" transform="matrix(-1,0,0,-1,400,400)"></path><text x="305.40999999999997" y="200" text-anchor="middle" font="10px &quot;Arial&quot;" stroke="none" fill="#000000" style="-webkit-tap-highlight-color: rgba(0, 0, 0, 0); text-anchor: middle; font-style: normal; font-variant: normal; font-weight: normal; font-stretch: normal; font-size: 10px; line-height: normal; font-family: Arial;" class="wheelnav-piemenu-title-selected-4" id="wheelnav-piemenu-title-4" transform="matrix(1,0,0,1,-210.8125,0.0156)" stroke-width="1.0051884655062235"><tspan dy="9.6015625" style="-webkit-tap-highlight-color: rgba(0, 0, 0, 0);">4</tspan></text><path fill="none" stroke="#000000" d="M261.2,200A61.2,61.2,0,0,1,138.8,200A61.2,61.2,0,0,1,261.2,200Z" id="wheelnav-piemenu-spreader" class="wheelnav-piemenu-spreader-out" style="-webkit-tap-highlight-color: rgba(0, 0, 0, 0);"></path><path fill="none" stroke="#000000" d="M208.331,205.5025L202.82899999999998,200.0005L208.32999999999998,194.49849999999998L205.50199999999998,191.66849999999997L199.99999999999997,197.17049999999998L194.49799999999996,191.66849999999997L191.66999999999996,194.49849999999998L197.17099999999996,200.0005L191.66899999999995,205.5025L194.49899999999997,208.3315L199.99999999999997,202.8295L205.50099999999998,208.3315Z" font="100 32px Impact, Charcoal, sans-serif" class="wheelnav-piemenu-spreadertitle-in" transform="matrix(1,0,0,1,0,0)" id="wheelnav-piemenu-spreadertitle" style="-webkit-tap-highlight-color: rgba(0, 0, 0, 0); font-style: normal; font-variant: normal; font-weight: 100; font-stretch: normal; font-size: 32px; line-height: normal; font-family: Impact, Charcoal, sans-serif;"></path></svg>