<?xml version="1.0" encoding="UTF-8" standalone="no"?>
<svg xmlns:dc="http://purl.org/dc/elements/1.1/" xmlns:cc="http://creativecommons.org/ns#" xmlns:rdf="http://www.w3.org/1999/02/22-rdf-syntax-ns#" xmlns:svg="http://www.w3.org/2000/svg" xmlns="http://www.w3.org/2000/svg" xmlns:xlink="http://www.w3.org/1999/xlink" xmlns:sodipodi="http://sodipodi.sourceforge.net/DTD/sodipodi-0.dtd" xmlns:inkscape="http://www.inkscape.org/namespaces/inkscape" version="1.1" viewBox="0 0 100.49443 31.837064" id="svg63" sodipodi:docname="blue.svg" width="100.49443" height="31.837063" inkscape:version="0.92.2 (5c3e80d, 2017-08-06)">
  <metadata id="metadata67">
    <rdf:RDF>
      <cc:Work rdf:about="">
        <dc:format>image/svg+xml</dc:format>
        <dc:type rdf:resource="http://purl.org/dc/dcmitype/StillImage" />
        <dc:title></dc:title>
      </cc:Work>
    </rdf:RDF>
  </metadata>
  <sodipodi:namedview pagecolor="#ffffff" bordercolor="#666666" borderopacity="1" objecttolerance="10" gridtolerance="10" guidetolerance="10" inkscape:pageopacity="0" inkscape:pageshadow="2" inkscape:window-width="1509" inkscape:window-height="893" id="namedview65" showgrid="false" fit-margin-top="0" fit-margin-left="0" fit-margin-right="0" fit-margin-bottom="0" inkscape:zoom="4.1074738" inkscape:cx="30.119895" inkscape:cy="17.642463" inkscape:window-x="0" inkscape:window-y="56" inkscape:window-maximized="0" inkscape:current-layer="svg63" />
  <defs id="defs31">
    <linearGradient id="linearGradient2095">
      <stop style="stop-color:#227a8c" offset="0" id="stop2" />
      <stop style="stop-color:#33b7d2" offset=".08" id="stop4" />
      <stop style="stop-color:#33b7d2" offset=".8" id="stop6" />
      <stop style="stop-color:#99dbe8" offset="1" id="stop8" />
    </linearGradient>
    <linearGradient id="linearGradient2097" x1="-770" x2="-684.29999" y1="55.009998" y2="96.019997" gradientTransform="translate(778.58313,-66.1654)" gradientUnits="userSpaceOnUse" xlink:href="#linearGradient2095" />
    <linearGradient id="linearGradient2213" x1="-908.29999" x2="-830.79999" y1="160.60001" y2="195.8" gradientTransform="matrix(1.003,0,0,1.01,918.98313,-165.9954)" gradientUnits="userSpaceOnUse" xlink:href="#linearGradient2095" />
    <filter id="filter2236" x="-0.003357" y="-0.02825" width="1.007" height="1.056" style="color-interpolation-filters:sRGB">
      <feGaussianBlur stdDeviation="0.11937962" id="feGaussianBlur13" />
    </filter>
    <filter id="filter904" x="-0.0067130001" y="-0.05649" width="1.013" height="1.113" style="color-interpolation-filters:sRGB">
      <feGaussianBlur stdDeviation="0.23875924" id="feGaussianBlur16" />
    </filter>
    <filter id="filter887" x="-0.0077530001" y="-0.02654" width="1.016" height="1.053" style="color-interpolation-filters:sRGB">
      <feGaussianBlur stdDeviation="0.31380766" id="feGaussianBlur19" />
    </filter>
    <filter id="filter899" x="-0.0077530001" y="-0.02654" width="1.016" height="1.053" style="color-interpolation-filters:sRGB">
      <feGaussianBlur stdDeviation="0.31380766" id="feGaussianBlur22" />
    </filter>
    <filter id="filter891" x="-0.0077530001" y="-0.02654" width="1.016" height="1.053" style="color-interpolation-filters:sRGB">
      <feGaussianBlur stdDeviation="0.31380766" id="feGaussianBlur25" />
    </filter>
    <filter id="filter895" x="-0.0077530001" y="-0.02654" width="1.016" height="1.053" style="color-interpolation-filters:sRGB">
      <feGaussianBlur stdDeviation="0.31380767" id="feGaussianBlur28" />
    </filter>
  </defs>
  <g transform="translate(5.2521279,2.4356)" id="g43">
    <path d="M 87.68,0.2681 2.83,0.272006 C -0.233,0.272006 -2.699,2.738006 -2.699,5.801006 V 21.791006 C -2.699,23.957006 -1.448,26.350006 0.356,27.418006 1.841,28.495006 3.864,28.688006 3.913,28.645006 L 3.905188,28.6411 H 88.285188 C 91.696188,28.6411 94.441188,25.8961 94.441188,22.4851 V 7.1351 C 94.441188,4.9911 93.356188,3.1101 91.703188,2.0081 90.696188,0.9381 89.270188,0.2681 87.678188,0.2681 Z M 4.71,0.9771 H 86.54 C 86.5854,0.9771 86.62959,0.982066 86.6748,0.982959 87.092,0.990756 87.5008,1.033449 87.8958,1.113859 88.1106,1.157869 88.322,1.211969 88.5286,1.275959 88.531149,1.2767451 88.533866,1.277123 88.536413,1.277912 88.952013,1.407212 89.350013,1.576212 89.725413,1.779912 88.781313,1.269612 87.698413,0.981112 86.545413,0.981112 H 4.705413 C 1.702413,0.981112 -0.825587,2.945112 -1.667587,5.665112 -0.826387,2.944112 1.701413,0.978112 4.705413,0.978112 Z M 93.21,7.4981 C 93.211142,7.54915 93.217812,7.5991 93.217812,7.6504 V 20.6504 C 93.217812,20.67614 93.214194,20.7009 93.213906,20.72657 V 20.68946 C 93.21399,20.67562 93.215859,20.6623 93.215859,20.64844 V 7.64844 C 93.215859,7.60752 93.210726,7.56809 93.21,7.52734 Z M -1.16,23.8481 C -1.155228,23.856865 -1.14918,23.86475 -1.14438,23.87349 -1.1446742,23.875535 -1.1440886,23.877307 -1.14438,23.87935 -1.149686,23.869 -1.15475,23.85848 -1.16,23.8481 Z M 90.79,25.8051 C 90.626,25.9402 90.4549,26.0687 90.2783,26.1879 90.2783,26.1879 90.276347,26.189854 90.276347,26.189854 90.160247,26.268114 90.038147,26.335654 89.916947,26.406654 90.223147,26.227354 90.517747,26.029354 90.789947,25.805054 Z M 89.726,26.5219 C 89.5381,26.6236 89.3443,26.7176 89.1459,26.8012 89.144555,26.801768 89.143339,26.802586 89.141994,26.803153 88.943594,26.886653 88.740394,26.961453 88.532594,27.025853 88.531204,27.026285 88.530077,27.027376 88.528687,27.027806 88.320787,27.092056 88.108087,27.143906 87.891987,27.188006 87.456887,27.276596 87.006287,27.324706 86.543987,27.324706 H 4.713987 C 4.710761,27.324119 4.709395,27.323339 4.706175,27.322753 H 86.546175 C 87.008175,27.322753 87.460675,27.276573 87.896175,27.187953 88.547975,27.055253 89.163175,26.828753 89.730175,26.521953 Z" style="opacity:0.23399999;fill:#000000;filter:url(#filter887)" id="path33" inkscape:connector-curvature="0" />
    <path d="M 87.28,-0.1319 2.43,-0.127994 C -0.633,-0.127994 -3.099,2.338006 -3.099,5.401006 V 21.391006 C -3.099,23.557006 -1.848,25.950006 -0.044,27.018006 1.441,28.095006 3.464,28.288006 3.513,28.245006 L 3.505188,28.2411 H 87.885188 C 91.296188,28.2411 94.041188,25.4961 94.041188,22.0851 V 6.7351 C 94.041188,4.5911 92.956188,2.7101 91.303188,1.6081 90.296188,0.5381 88.870188,-0.1319 87.278188,-0.1319 Z M 4.31,0.5771 H 86.14 C 86.1854,0.5771 86.22959,0.582066 86.2748,0.582959 86.692,0.590756 87.1008,0.633449 87.4958,0.713859 87.7106,0.757869 87.922,0.811969 88.1286,0.875959 88.131149,0.8767451 88.133866,0.877123 88.136413,0.877912 88.552013,1.007212 88.950013,1.176212 89.325413,1.379912 88.381313,0.869612 87.298413,0.581112 86.145413,0.581112 H 4.305413 C 1.302413,0.581112 -1.225587,2.545112 -2.067587,5.265112 -1.226387,2.544112 1.301413,0.578112 4.305413,0.578112 Z M 92.81,7.0981 C 92.811142,7.14915 92.817812,7.1991 92.817812,7.2504 V 20.2504 C 92.817812,20.27614 92.814194,20.3009 92.813906,20.32657 V 20.28946 C 92.81399,20.27562 92.815859,20.2623 92.815859,20.24844 V 7.24844 C 92.815859,7.20752 92.810726,7.16809 92.81,7.12734 Z M -1.56,23.4481 C -1.555228,23.456865 -1.54918,23.46475 -1.54438,23.47349 -1.5446742,23.475535 -1.5440886,23.477307 -1.54438,23.47935 -1.549686,23.469 -1.55475,23.45848 -1.56,23.4481 Z M 90.39,25.4051 C 90.226,25.5402 90.0549,25.6687 89.8783,25.7879 89.8783,25.7879 89.876347,25.789854 89.876347,25.789854 89.760247,25.868114 89.638147,25.935654 89.516947,26.006654 89.823147,25.827354 90.117747,25.629354 90.389947,25.405054 Z M 89.326,26.1219 C 89.1381,26.2236 88.9443,26.3176 88.7459,26.4012 88.744555,26.401768 88.743339,26.402586 88.741994,26.403153 88.543594,26.486653 88.340394,26.561453 88.132594,26.625853 88.131204,26.626285 88.130077,26.627376 88.128687,26.627806 87.920787,26.692056 87.708087,26.743906 87.491987,26.788006 87.056887,26.876596 86.606287,26.924706 86.143987,26.924706 H 4.313987 C 4.310761,26.924119 4.309395,26.923339 4.306175,26.922753 H 86.146175 C 86.608175,26.922753 87.060675,26.876573 87.496175,26.787953 88.147975,26.655253 88.763175,26.428753 89.330175,26.121953 Z" style="opacity:0.23399999;fill:#000000;filter:url(#filter887)" id="path35" inkscape:connector-curvature="0" />
    <path d="M 86.68,-0.7319 1.83,-0.727994 C -1.233,-0.727994 -3.699,1.738006 -3.699,4.801006 V 20.791006 C -3.699,22.957006 -2.448,25.350006 -0.644,26.418006 0.841,27.495006 2.864,27.688006 2.913,27.645006 L 2.905188,27.6411 H 87.285188 C 90.696188,27.6411 93.441188,24.8961 93.441188,21.4851 V 6.1351 C 93.441188,3.9911 92.356188,2.1101 90.703188,1.0081 89.696188,-0.0619 88.270188,-0.7319 86.678188,-0.7319 Z M 3.71,-0.0229 H 85.54 C 85.5854,-0.0229 85.62959,-0.017934 85.6748,-0.017041 86.092,-0.009244 86.5008,0.033449 86.8958,0.113859 87.1106,0.157869 87.322,0.211969 87.5286,0.275959 87.531149,0.2767451 87.533866,0.277123 87.536413,0.277912 87.952013,0.407212 88.350013,0.576212 88.725413,0.779912 87.781313,0.269612 86.698413,-0.018888 85.545413,-0.018888 H 3.705413 C 0.702413,-0.018888 -1.825587,1.945112 -2.667587,4.665112 -1.826387,1.944112 0.701413,-0.021888 3.705413,-0.021888 Z M 92.21,6.4981 C 92.211142,6.54915 92.217812,6.5991 92.217812,6.6504 V 19.6504 C 92.217812,19.67614 92.214194,19.7009 92.213906,19.72657 V 19.68946 C 92.21399,19.67562 92.215859,19.6623 92.215859,19.64844 V 6.64844 C 92.215859,6.60752 92.210726,6.56809 92.21,6.52734 Z M -2.16,22.8481 C -2.155228,22.856865 -2.14918,22.86475 -2.14438,22.87349 -2.1446742,22.875535 -2.1440886,22.877307 -2.14438,22.87935 -2.149686,22.869 -2.15475,22.85848 -2.16,22.8481 Z M 89.79,24.8051 C 89.626,24.9402 89.4549,25.0687 89.2783,25.1879 89.2783,25.1879 89.276347,25.189854 89.276347,25.189854 89.160247,25.268114 89.038147,25.335654 88.916947,25.406654 89.223147,25.227354 89.517747,25.029354 89.789947,24.805054 Z M 88.726,25.5219 C 88.5381,25.6236 88.3443,25.7176 88.1459,25.8012 88.144555,25.801768 88.143339,25.802586 88.141994,25.803153 87.943594,25.886653 87.740394,25.961453 87.532594,26.025853 87.531204,26.026285 87.530077,26.027376 87.528687,26.027806 87.320787,26.092056 87.108087,26.143906 86.891987,26.188006 86.456887,26.276596 86.006287,26.324706 85.543987,26.324706 H 3.713987 C 3.710761,26.324119 3.709395,26.323339 3.706175,26.322753 H 85.546175 C 86.008175,26.322753 86.460675,26.276573 86.896175,26.187953 87.547975,26.055253 88.163175,25.828753 88.730175,25.521953 Z" style="opacity:0.23420003;fill:#000000;filter:url(#filter899)" id="path37" inkscape:connector-curvature="0" />
    <path d="M 86.28,-1.132 1.43,-1.128094 C -1.633,-1.128094 -4.099,1.337906 -4.099,4.400906 V 20.390906 C -4.099,22.556906 -2.848,24.949906 -1.044,26.017906 0.441,27.094906 2.464,27.287906 2.513,27.244906 L 2.505188,27.241 H 86.885188 C 90.296188,27.241 93.041188,24.496 93.041188,21.085 V 5.735 C 93.041188,3.591 91.956188,1.71 90.303188,0.608 89.296188,-0.462 87.870188,-1.132 86.278188,-1.132 Z M 3.31,-0.423 H 85.14 C 85.1854,-0.423 85.22959,-0.418034 85.2748,-0.417141 85.692,-0.409344 86.1008,-0.366651 86.4958,-0.286241 86.7106,-0.242231 86.922,-0.188131 87.1286,-0.124141 87.131149,-0.1233549 87.133866,-0.122977 87.136413,-0.122188 87.552013,0.007112 87.950013,0.176112 88.325413,0.379812 87.381313,-0.130488 86.298413,-0.418988 85.145413,-0.418988 H 3.305413 C 0.302413,-0.418988 -2.225587,1.545012 -3.067587,4.265012 -2.226387,1.544012 0.301413,-0.421988 3.305413,-0.421988 Z M 91.81,6.098 C 91.811142,6.14905 91.817812,6.199 91.817812,6.2503 V 19.2503 C 91.817812,19.27604 91.814194,19.3008 91.813906,19.32647 V 19.28936 C 91.81399,19.27552 91.815859,19.2622 91.815859,19.24834 V 6.24834 C 91.815859,6.20742 91.810726,6.16799 91.81,6.12724 Z M -2.56,22.448 C -2.555228,22.456765 -2.54918,22.46465 -2.54438,22.47339 -2.5446742,22.475435 -2.5440886,22.477207 -2.54438,22.47925 -2.549686,22.4689 -2.55475,22.45838 -2.56,22.448 Z M 89.39,24.405 C 89.226,24.5401 89.0549,24.6686 88.8783,24.7878 88.8783,24.7878 88.876347,24.789754 88.876347,24.789754 88.760247,24.868014 88.638147,24.935554 88.516947,25.006554 88.823147,24.827254 89.117747,24.629254 89.389947,24.404954 Z M 88.326,25.1218 C 88.1381,25.2235 87.9443,25.3175 87.7459,25.4011 87.744555,25.401668 87.743339,25.402486 87.741994,25.403053 87.543594,25.486553 87.340394,25.561353 87.132594,25.625753 87.131204,25.626185 87.130077,25.627276 87.128687,25.627706 86.920787,25.691956 86.708087,25.743806 86.491987,25.787906 86.056887,25.876496 85.606287,25.924606 85.143987,25.924606 H 3.313987 C 3.310761,25.924019 3.309395,25.923239 3.306175,25.922653 H 85.146175 C 85.608175,25.922653 86.060675,25.876473 86.496175,25.787853 87.147975,25.655153 87.763175,25.428653 88.330175,25.121853 Z" style="opacity:0.23420003;fill:#000000;filter:url(#filter891)" id="path39" inkscape:connector-curvature="0" />
    <path d="M 85.88,-1.532 1.03,-1.528094 C -2.033,-1.528094 -4.499,0.937906 -4.499,4.000906 V 19.990906 C -4.499,22.156906 -3.248,24.549906 -1.444,25.617906 0.041,26.694906 2.064,26.887906 2.113,26.844906 L 2.105188,26.841 H 86.485188 C 89.896188,26.841 92.641188,24.096 92.641188,20.685 V 5.335 C 92.641188,3.191 91.556188,1.31 89.903188,0.208 88.896188,-0.862 87.470188,-1.532 85.878188,-1.532 Z M 2.91,-0.823 H 84.74 C 84.7854,-0.823 84.82959,-0.818034 84.8748,-0.817141 85.292,-0.809344 85.7008,-0.766651 86.0958,-0.686241 86.3106,-0.642231 86.522,-0.588131 86.7286,-0.524141 86.731149,-0.5233549 86.733866,-0.522977 86.736413,-0.522188 87.152013,-0.392888 87.550013,-0.223888 87.925413,-0.020188 86.981313,-0.530488 85.898413,-0.818988 84.745413,-0.818988 H 2.905413 C -0.097587,-0.818988 -2.625587,1.145012 -3.467587,3.865012 -2.626387,1.144012 -0.098587,-0.821988 2.905413,-0.821988 Z M 91.41,5.698 C 91.411142,5.74905 91.417812,5.799 91.417812,5.8503 V 18.8503 C 91.417812,18.87604 91.414194,18.9008 91.413906,18.92647 V 18.88936 C 91.41399,18.87552 91.415859,18.8622 91.415859,18.84834 V 5.84834 C 91.415859,5.80742 91.410726,5.76799 91.41,5.72724 Z M -2.96,22.048 C -2.955228,22.056765 -2.94918,22.06465 -2.94438,22.07339 -2.9446742,22.075435 -2.9440886,22.077207 -2.94438,22.07925 -2.949686,22.0689 -2.95475,22.05838 -2.96,22.048 Z M 88.99,24.005 C 88.826,24.1401 88.6549,24.2686 88.4783,24.3878 88.4783,24.3878 88.476347,24.389754 88.476347,24.389754 88.360247,24.468014 88.238147,24.535554 88.116947,24.606554 88.423147,24.427254 88.717747,24.229254 88.989947,24.004954 Z M 87.926,24.7218 C 87.7381,24.8235 87.5443,24.9175 87.3459,25.0011 87.344555,25.001668 87.343339,25.002486 87.341994,25.003053 87.143594,25.086553 86.940394,25.161353 86.732594,25.225753 86.731204,25.226185 86.730077,25.227276 86.728687,25.227706 86.520787,25.291956 86.308087,25.343806 86.091987,25.387906 85.656887,25.476496 85.206287,25.524606 84.743987,25.524606 H 2.913987 C 2.910761,25.524019 2.909395,25.523239 2.906175,25.522653 H 84.746175 C 85.208175,25.522653 85.660675,25.476473 86.096175,25.387853 86.747975,25.255153 87.363175,25.028653 87.930175,24.721853 Z" style="opacity:0.23420003;fill:#000000;filter:url(#filter895)" id="path41" inkscape:connector-curvature="0" />
  </g>
  <path d="M 6.3121279,0.0046 C 3.2491279,0.0046 0.78312789,2.4706 0.78312789,5.5336 V 21.5236 C 0.78312789,24.5866 3.2791279,28.1156 6.3121279,27.6876 L 8.1861279,27.423 C 4.4901279,27.423 1.5811279,24.027 1.5141279,20.381 V 7.381 C 1.5141279,3.685 4.4901279,0.709 8.1861279,0.709 H 90.016128 C 93.712128,0.709 96.688128,3.685 96.688128,7.381 V 5.529 C 96.688128,2.466 94.222128,0 91.159128,0 Z M 96.692128,20.3846 C 96.692128,24.0806 93.716128,27.0566 90.020128,27.0566 H 91.163128 C 94.226128,27.0566 96.692128,24.5906 96.692128,21.5276 Z" style="fill:#98dae7" id="path45" inkscape:connector-curvature="0" />
  <path d="M 7.3871279,28.3746 H 91.767128 C 95.178128,28.3746 97.924128,25.6286 97.924128,22.2176 V 6.8676 C 97.924128,3.4566 95.178128,0.7106 91.767128,0.7106 H 90.023128 C 93.719128,0.7106 96.695128,3.6866 96.695128,7.3826 V 20.3826 C 96.695128,24.0786 93.719128,27.0546 90.023128,27.0546 H 8.1931279 C 4.9811279,26.47 4.5281279,26.3842 2.3401279,23.5896 1.7094279,27.8826 7.3131279,28.4496 7.3951279,28.3776 Z" style="fill:#21798b" id="path47" inkscape:connector-curvature="0" />
  <rect x="1.5141279" y="0.71340001" width="95.18" height="26.34" ry="6.6719999" style="fill:url(#linearGradient2097)" id="rect49" />
  <path d="M 89.433128,4.1406 C 92.073128,5.9506 93.240128,7.4726 93.440128,9.9046 V 18.1946 C 93.440128,21.3816 90.874128,23.9476 87.686128,23.9476 H 10.656128 C 7.4691279,23.9476 4.9021279,21.3816 4.9021279,18.1946 L 5.0873279,20.0496 C 6.2213279,23.8886 9.2733279,24.4206 9.2733279,24.4206 H 89.733328 C 92.154328,24.4206 94.121328,22.4716 94.104328,20.0496 L 94.025028,8.6196 C 93.835428,5.3756 90.171028,2.5176 89.436028,4.1436 Z" style="fill:#99dbe8" id="path51" inkscape:connector-curvature="0" />
  <path d="M 8.7991279,3.3486 C 6.1961279,3.3486 4.1011279,5.4436 4.1011279,8.0466 V 19.2066 C 4.1011279,21.8096 7.1491279,24.8296 8.7991279,24.2826 L 9.9391279,23.9046 C 7.0931279,23.5532 4.9031279,21.1406 4.9031279,18.1966 V 9.9066 C 4.9031279,6.7196 7.4691279,4.1536 10.657128,4.1536 H 87.687128 C 90.522128,4.1536 91.088128,5.5566 91.547128,5.6166 91.593378,3.8696 90.343128,3.4436 88.649128,3.3516 Z" style="fill:#227a8c" id="path53" inkscape:connector-curvature="0" />
  <path d="M 10.428128,4.1506 H 87.638128 C 90.856128,4.1506 93.446128,6.7416 93.446128,9.9586 V 18.3276 C 93.446128,21.5456 90.855128,24.1356 87.638128,24.1356 H 10.428128 C 7.2101279,24.1356 4.6201279,21.5446 4.6201279,18.3276 V 9.9586 C 4.6201279,6.7406 7.2111279,4.1506 10.428128,4.1506 Z" style="fill:url(#linearGradient2213)" id="path55" inkscape:connector-curvature="0" />
  <path d="M 92.203128,16.9546 V 19.3046 H 84.799128 V 9.4636 H 92.203128 V 11.7346 H 87.762128 V 13.1616 H 91.352128 V 15.3456 H 87.762128 V 16.9536 Z M 81.893128,11.8216 V 19.3046 H 79.031128 V 11.8216 H 76.991128 V 9.4646 H 83.934128 V 11.8216 Z M 76.226128,9.4646 V 15.9816 Q 76.226128,17.8346 75.123128,18.6496 74.027128,19.4571 72.261128,19.4571 70.401128,19.4571 69.269128,18.6785 68.144128,17.8999 68.144128,16.1405 V 9.4645 H 71.215128 V 15.7875 Q 71.215128,16.494 71.510728,16.8185 71.813528,17.1429 72.469628,17.1429 73.017528,17.1429 73.363628,16.9122 73.716928,16.6743 73.781728,16.3787 73.853818,16.0831 73.853818,15.2247 V 9.4647 Z M 58.756128,19.3056 V 9.4646 H 63.752128 Q 65.309128,9.4646 66.023128,10.2504 66.736828,11.0362 66.736828,12.0454 66.736828,12.7808 66.318728,13.3794 65.907828,13.9706 65.085728,14.1941 66.996728,14.6555 66.996728,16.4871 66.996728,17.5831 66.319028,18.4481 65.648528,19.306 63.442028,19.306 Z M 61.539128,13.2356 H 62.938128 Q 63.464428,13.2356 63.680728,12.9688 63.897028,12.702 63.897028,12.3993 63.897028,11.5774 62.888028,11.5774 H 61.540028 Z M 61.539128,17.1146 H 63.010128 Q 63.558028,17.1146 63.810328,16.8478 64.069828,16.5738 64.069828,16.235 64.069828,15.8962 63.817528,15.615 63.572428,15.3266 62.909128,15.3266 H 61.539128 Z M 57.048128,9.4656 V 19.3066 H 54.027128 V 9.4656 Z M 52.607128,19.3066 H 49.255128 L 47.820128,15.5436 H 46.868528 V 19.3066 H 43.847528 V 9.4656 H 48.987528 Q 50.688528,9.4656 51.626528,10.2659 52.570928,11.0589 52.570928,12.3639 52.570928,13.2146 52.224828,13.8709 51.878728,14.5198 50.825828,15.0169 Z M 46.868128,13.4386 H 48.158128 Q 48.727628,13.4386 49.073728,13.2007 49.419828,12.9628 49.419828,12.5014 49.419828,11.557 48.258828,11.557 H 46.867828 Z M 40.942128,11.8236 V 19.3066 H 38.080128 V 11.8236 H 36.040128 V 9.4666 H 42.983128 V 11.8236 Z M 35.189128,19.3066 H 32.731128 L 30.035128,14.9596 Q 29.516028,14.1233 28.990128,12.9266 29.228028,13.8782 29.228028,14.5416 V 19.3066 H 26.777028 V 9.4656 H 29.632028 L 31.925028,13.0706 Q 32.609928,14.1446 32.963028,14.9596 32.732328,13.6976 32.732328,12.3786 V 9.4656 H 35.190328 Z M 20.819128,19.458 Q 18.743128,19.458 17.431128,18.081 16.126128,16.704 16.126128,14.397 16.126128,12.191 17.373128,10.756 18.627128,9.314 20.848128,9.314 22.903128,9.314 24.193128,10.669 25.491128,12.024 25.491128,14.288 25.491128,16.631 24.186128,18.044 22.881128,19.457 20.819128,19.457 Z M 20.804708,17.223 Q 21.568908,17.223 21.900708,16.5597 22.239508,15.8892 22.239508,14.1157 22.239508,11.5487 20.862508,11.5487 19.377508,11.5487 19.377508,14.4757 19.377508,17.2227 20.804508,17.2227 Z M 12.693708,15.55 15.454708,15.7158 Q 15.260008,17.5258 14.113708,18.4918 12.974708,19.4579 11.309708,19.4579 9.3057079,19.4579 8.0727079,18.1309 6.8397079,16.8039 6.8397079,14.4689 6.8397079,12.1549 8.0077079,10.7349 9.1757079,9.3149 11.266708,9.3149 13.220708,9.3149 14.265708,10.3959 15.318708,11.4769 15.455708,13.2649 L 12.636708,13.4163 Q 12.636708,12.4286 12.254608,11.9893 11.879708,11.5495 11.367808,11.5495 9.9408079,11.5495 9.9408079,14.4185 9.9408079,16.0265 10.308508,16.6025 10.683408,17.1793 11.353508,17.1793 12.550508,17.1793 12.694508,15.5503 Z" style="fill:#258699;filter:url(#filter2236)" id="path57" inkscape:connector-curvature="0" />
  <path d="M 92.023128,16.6646 V 19.0146 H 84.619128 V 9.1736 H 92.023128 V 11.4446 H 87.582128 V 12.8716 H 91.172128 V 15.0556 H 87.582128 V 16.6636 Z M 81.713128,11.5316 V 19.0146 H 78.851128 V 11.5316 H 76.811128 V 9.1746 H 83.754128 V 11.5316 Z M 76.046128,9.1746 V 15.6916 Q 76.046128,17.5446 74.943128,18.3596 73.847128,19.1671 72.081128,19.1671 70.221128,19.1671 69.089128,18.3885 67.964128,17.6099 67.964128,15.8505 V 9.1745 H 71.035128 V 15.4975 Q 71.035128,16.204 71.330728,16.5285 71.633528,16.8529 72.289628,16.8529 72.837528,16.8529 73.183628,16.6222 73.536928,16.3843 73.601728,16.0887 73.673828,15.7931 73.673828,14.9347 V 9.1747 Z M 58.576128,19.0156 V 9.1746 H 63.572128 Q 65.129128,9.1746 65.843128,9.9604 66.556828,10.7462 66.556828,11.7554 66.556828,12.4908 66.138728,13.0894 65.727828,13.6806 64.905728,13.9041 66.816728,14.3655 66.816728,16.1971 66.816728,17.2931 66.139028,18.1581 65.468528,19.016 63.262028,19.016 Z M 61.359128,12.9456 H 62.758128 Q 63.284428,12.9456 63.500728,12.6788 63.717028,12.412 63.717028,12.1093 63.717028,11.2874 62.708028,11.2874 H 61.360028 Z M 61.359128,16.8246 H 62.830128 Q 63.378028,16.8246 63.630328,16.5578 63.889828,16.2838 63.889828,15.945 63.889828,15.6062 63.637528,15.325 63.392428,15.0366 62.729128,15.0366 H 61.359128 Z M 56.868128,9.1756 V 19.0166 H 53.847128 V 9.1756 Z M 52.427128,19.0166 H 49.075128 L 47.640128,15.2536 H 46.688528 V 19.0166 H 43.667528 V 9.1756 H 48.807528 Q 50.508528,9.1756 51.446528,9.9758 52.390928,10.7688 52.390928,12.0738 52.390928,12.9245 52.044828,13.5808 51.698728,14.2297 50.645828,14.7268 Z M 46.688128,13.1486 H 47.978128 Q 48.547628,13.1486 48.893728,12.9107 49.239828,12.6728 49.239828,12.2114 49.239828,11.267 48.078828,11.267 H 46.687828 Z M 40.762128,11.5336 V 19.0166 H 37.900128 V 11.5336 H 35.860128 V 9.1766 H 42.803128 V 11.5336 Z M 35.009128,19.0166 H 32.551128 L 29.855128,14.6696 Q 29.336028,13.8333 28.810128,12.6366 29.048028,13.5882 29.048028,14.2516 V 19.0166 H 26.597028 V 9.1756 H 29.452028 L 31.745028,12.7806 Q 32.429928,13.8546 32.783028,14.6696 32.552328,13.4076 32.552328,12.0886 V 9.1756 H 35.010328 Z M 20.639128,19.168 Q 18.563128,19.168 17.251128,17.791 15.946128,16.414 15.946128,14.107 15.946128,11.901 17.193128,10.466 18.447128,9.024 20.668128,9.024 22.723128,9.024 24.013128,10.379 25.311128,11.734 25.311128,13.998 25.311128,16.341 24.006128,17.754 22.701128,19.167 20.639128,19.167 Z M 20.624708,16.933 Q 21.388908,16.933 21.720708,16.2697 22.059508,15.5992 22.059508,13.8257 22.059508,11.2587 20.682508,11.2587 19.197508,11.2587 19.197508,14.1857 19.197508,16.9327 20.624508,16.9327 Z M 12.513708,15.26 15.274708,15.4258 Q 15.080008,17.2358 13.933708,18.2018 12.794708,19.1679 11.129708,19.1679 9.1257079,19.1679 7.8927079,17.8409 6.6597079,16.5139 6.6597079,14.1789 6.6597079,11.8649 7.8277079,10.4449 8.9957079,9.0249 11.086708,9.0249 13.040708,9.0249 14.085708,10.1059 15.138708,11.1869 15.275708,12.9749 L 12.456708,13.1263 Q 12.456708,12.1386 12.074608,11.6993 11.699708,11.2595 11.187808,11.2595 9.7608079,11.2595 9.7608079,14.1285 9.7608079,15.7365 10.128508,16.3125 10.503408,16.8893 11.173508,16.8893 12.370508,16.8893 12.514508,15.2603 Z" style="fill:#000000;filter:url(#filter904)" id="path59" inkscape:connector-curvature="0" />
  <path d="M 91.783128,16.4546 V 18.8046 H 84.379128 V 8.9636 H 91.783128 V 11.2346 H 87.342128 V 12.6616 H 90.932128 V 14.8456 H 87.342128 V 16.4536 Z M 81.473128,11.3216 V 18.8046 H 78.611128 V 11.3216 H 76.571128 V 8.9646 H 83.514128 V 11.3216 Z M 75.806128,8.9646 V 15.4816 Q 75.806128,17.3346 74.703128,18.1496 73.607128,18.9571 71.841128,18.9571 69.981128,18.9571 68.849128,18.1785 67.724128,17.3999 67.724128,15.6405 V 8.9645 H 70.795128 V 15.2875 Q 70.795128,15.994 71.090728,16.3185 71.393528,16.6429 72.049628,16.6429 72.597528,16.6429 72.943628,16.4122 73.296928,16.1743 73.361728,15.8787 73.433818,15.5831 73.433818,14.7247 V 8.9647 Z M 58.336128,18.8056 V 8.9646 H 63.332128 Q 64.889128,8.9646 65.603128,9.7504 66.316828,10.5362 66.316828,11.5454 66.316828,12.2808 65.898728,12.8794 65.487828,13.4706 64.665728,13.6941 66.576728,14.1555 66.576728,15.9871 66.576728,17.0831 65.899028,17.9481 65.228528,18.806 63.022028,18.806 Z M 61.119128,12.7356 H 62.518128 Q 63.044428,12.7356 63.260728,12.4688 63.477028,12.202 63.477028,11.8993 63.477028,11.0774 62.468028,11.0774 H 61.120028 Z M 61.119128,16.6146 H 62.590128 Q 63.138028,16.6146 63.390328,16.3478 63.649828,16.0738 63.649828,15.735 63.649828,15.3962 63.397528,15.115 63.152428,14.8266 62.489128,14.8266 H 61.119128 Z M 56.628128,8.9656 V 18.8066 H 53.607128 V 8.9656 Z M 52.187128,18.8066 H 48.835128 L 47.400128,15.0436 H 46.448528 V 18.8066 H 43.427528 V 8.9656 H 48.567528 Q 50.268528,8.9656 51.206528,9.7658 52.150928,10.5588 52.150928,11.8638 52.150928,12.7145 51.804828,13.3708 51.458728,14.0197 50.405828,14.5168 Z M 46.448128,12.9386 H 47.738128 Q 48.307628,12.9386 48.653728,12.7007 48.999828,12.4628 48.999828,12.0014 48.999828,11.057 47.838828,11.057 H 46.447828 Z M 40.522128,11.3236 V 18.8066 H 37.660128 V 11.3236 H 35.620128 V 8.9666 H 42.563128 V 11.3236 Z M 34.769128,18.8066 H 32.311128 L 29.615128,14.4596 Q 29.096028,13.6233 28.570128,12.4266 28.808028,13.3782 28.808028,14.0416 V 18.8066 H 26.357028 V 8.9656 H 29.212028 L 31.505028,12.5706 Q 32.189928,13.6446 32.543028,14.4596 32.312328,13.1976 32.312328,11.8786 V 8.9656 H 34.770328 Z M 20.399128,18.958 Q 18.323128,18.958 17.011128,17.581 15.706128,16.204 15.706128,13.897 15.706128,11.691 16.953128,10.256 18.207128,8.814 20.428128,8.814 22.483128,8.814 23.773128,10.169 25.071128,11.524 25.071128,13.788 25.071128,16.131 23.766128,17.544 22.461128,18.957 20.399128,18.957 Z M 20.384708,16.723 Q 21.148908,16.723 21.480708,16.0597 21.819508,15.3892 21.819508,13.6157 21.819508,11.0487 20.442508,11.0487 18.957508,11.0487 18.957508,13.9757 18.957508,16.7227 20.384508,16.7227 Z M 12.273708,15.05 15.034708,15.2158 Q 14.840008,17.0258 13.693708,17.9918 12.554708,18.9579 10.889708,18.9579 8.8857079,18.9579 7.6527079,17.6309 6.4197079,16.3039 6.4197079,13.9689 6.4197079,11.6549 7.5877079,10.2349 8.7557079,8.8149 10.846708,8.8149 12.800708,8.8149 13.845708,9.8959 14.898708,10.9769 15.035708,12.7649 L 12.216708,12.9163 Q 12.216708,11.9286 11.834608,11.4893 11.459708,11.0495 10.947808,11.0495 9.5208079,11.0495 9.5208079,13.9185 9.5208079,15.5265 9.8885079,16.1025 10.263408,16.6793 10.933508,16.6793 12.130508,16.6793 12.274508,15.0503 Z" style="fill:#ffffff" id="path61" inkscape:connector-curvature="0" />
</svg>
