<?xml version="1.0" encoding="UTF-8" standalone="no"?>
<!-- Created with Inkscape (http://www.inkscape.org/) -->

<svg xmlns:dc="http://purl.org/dc/elements/1.1/" xmlns:cc="http://creativecommons.org/ns#" xmlns:rdf="http://www.w3.org/1999/02/22-rdf-syntax-ns#" xmlns:svg="http://www.w3.org/2000/svg" xmlns="http://www.w3.org/2000/svg" xmlns:xlink="http://www.w3.org/1999/xlink" xmlns:sodipodi="http://sodipodi.sourceforge.net/DTD/sodipodi-0.dtd" xmlns:inkscape="http://www.inkscape.org/namespaces/inkscape" viewBox="0 0 97.138253 28.379661" version="1.1" id="svg34436" inkscape:version="0.92.2 (5c3e80d, 2017-08-06)" sodipodi:docname="blue.svg" width="100%" height="100%">
  <defs id="defs34430">
    <linearGradient inkscape:collect="always" id="linearGradient2095">
      <stop style="stop-color:#227a8c;stop-opacity:1" offset="0" id="stop2091" />
      <stop id="stop2099" offset="0.08" style="stop-color:#33b7d2;stop-opacity:1" />
      <stop style="stop-color:#33b7d2;stop-opacity:1" offset="0.80000001" id="stop2101" />
      <stop style="stop-color:#99dbe8;stop-opacity:1" offset="1" id="stop2093" />
    </linearGradient>
    <linearGradient inkscape:collect="always" xlink:href="#linearGradient2095" id="linearGradient2097" x1="-769.9519" y1="55.011135" x2="-684.31671" y2="96.021545" gradientUnits="userSpaceOnUse" gradientTransform="translate(777.76987,-66.172142)" />
    <linearGradient inkscape:collect="always" xlink:href="#linearGradient2095" id="linearGradient2213" x1="-908.28705" y1="160.64951" x2="-830.76654" y2="195.84328" gradientUnits="userSpaceOnUse" gradientTransform="matrix(1.0032017,0,0,1.0095465,918.24471,-165.99797)" />
    <filter inkscape:collect="always" style="color-interpolation-filters:sRGB" id="filter2236" x="-0.0033565033" width="1.006713" y="-0.028245201" height="1.0564904">
      <feGaussianBlur inkscape:collect="always" stdDeviation="0.11937962" id="feGaussianBlur2238" />
    </filter>
    <filter inkscape:collect="always" style="color-interpolation-filters:sRGB" id="filter904" x="-0.0067130066" width="1.0134259" y="-0.056490403" height="1.1129808">
      <feGaussianBlur inkscape:collect="always" stdDeviation="0.23875924" id="feGaussianBlur906" />
    </filter>
  </defs>
  <sodipodi:namedview id="base" pagecolor="#ffffff" bordercolor="#666666" borderopacity="1.0" inkscape:pageopacity="0.0" inkscape:pageshadow="2" inkscape:zoom="5.6" inkscape:cx="3.893229" inkscape:cy="32.781042" inkscape:document-units="px" inkscape:current-layer="svg34436" showgrid="false" units="px" objecttolerance="1" gridtolerance="1" guidetolerance="1" inkscape:window-width="2560" inkscape:window-height="1001" inkscape:window-x="-9" inkscape:window-y="41" inkscape:window-maximized="1" fit-margin-top="0" fit-margin-left="0" fit-margin-right="0" fit-margin-bottom="0" />
  <metadata id="metadata34433">
    <rdf:RDF>
      <cc:Work rdf:about="">
        <dc:format>image/svg+xml</dc:format>
        <dc:type rdf:resource="http://purl.org/dc/dcmitype/StillImage" />
        <dc:title></dc:title>
      </cc:Work>
    </rdf:RDF>
  </metadata>
  <path style="display:inline;opacity:1;fill:#98dae7;fill-opacity:1;stroke:none;stroke-width:0.52443123;stroke-linecap:round;stroke-linejoin:round;stroke-miterlimit:10;stroke-dasharray:none;stroke-dashoffset:0;stroke-opacity:1" d="M 5.52887,0 C 2.46595,0 0,2.46592 0,5.52886 V 21.5222 C 0,24.58513 2.49602,28.11426 5.52887,27.68614 L 7.40318,27.42155 C 3.70679,27.42155 0.79805,24.02538 0.73123,20.37911 V 7.38094 C 0.73123,3.68456 3.70679,0.709 7.40318,0.709 H 89.23798 C 92.93434,0.709 95.90993,3.68456 95.90993,7.38094 V 5.52886 C 95.90993,2.46592 93.44398,0 90.38106,0 Z M 95.90993,20.37911 C 95.90993,24.07549 92.93434,27.05106 89.23798,27.05106 H 90.38106 C 93.44398,27.05106 95.90993,24.58513 95.90993,21.5222 Z" id="rect1875" inkscape:connector-curvature="0" inkscape:label="t-r-border" sodipodi:nodetypes="ssssccssscsssccssc" />
  <path style="opacity:1;fill:#21798b;fill-opacity:1;stroke:none;stroke-width:0.53250587;stroke-linecap:round;stroke-linejoin:round;stroke-miterlimit:10;stroke-dasharray:none;stroke-dashoffset:0;stroke-opacity:1" d="M 6.60427,28.37398 H 90.98153 C 94.39241,28.37398 97.13825,25.62811 97.13825,22.21724 V 6.86573 C 97.13825,3.45486 94.39241,0.709 90.98153,0.709 H 89.23798 C 92.93434,0.709 95.90993,3.68456 95.90993,7.38094 V 20.37911 C 95.90993,24.07549 92.93434,27.05106 89.23798,27.05106 H 7.40318 C 4.19121,26.46641 3.73801,26.38069 1.54974,23.58634 0.91907,27.87939 6.5228,28.4464 6.60427,28.37398 Z" id="rect1877" inkscape:connector-curvature="0" inkscape:label="b-r-border" sodipodi:nodetypes="csssscsssccc" />
  <rect style="opacity:1;fill:url(#linearGradient2097);fill-opacity:1;stroke:none;stroke-width:0.51553953;stroke-linecap:round;stroke-linejoin:round;stroke-miterlimit:10;stroke-dasharray:none;stroke-dashoffset:0;stroke-opacity:1" id="rect1873" width="95.178986" height="26.34226" x="0.73095757" y="0.70878905" ry="6.6721687" inkscape:label="outer" />
  <path sodipodi:nodetypes="ccssscccsscc" inkscape:connector-curvature="0" style="opacity:1;fill:#99dbe8;fill-opacity:1;stroke:none;stroke-width:0.54087013;stroke-linecap:round;stroke-linejoin:round;stroke-miterlimit:10;stroke-dasharray:none;stroke-dashoffset:0;stroke-opacity:1" d="M 88.65414,4.136 C 91.29442,5.94578 92.4607,7.46833 92.66115,9.89954 V 18.18948 C 92.66115,21.37691 90.09493,23.94261 86.90749,23.94261 H 9.87395 C 6.68652,23.94261 4.1203,21.37691 4.1203,18.18948 L 4.30548,20.04466 C 5.4394,23.88345 8.49108,24.41545 8.49108,24.41545 H 88.9518 C 91.37319,24.41545 93.33941,22.46598 93.32261,20.04466 L 93.24331,8.61177 C 93.05371,5.36791 89.38934,2.5102 88.65414,4.136 Z" id="rect2199" inkscape:label="b-r-inset" />
  <path sodipodi:nodetypes="sssscssssccs" inkscape:connector-curvature="0" style="opacity:1;fill:#227a8c;fill-opacity:1;stroke:none;stroke-width:0.54605794;stroke-linecap:round;stroke-linejoin:round;stroke-miterlimit:10;stroke-dasharray:none;stroke-dashoffset:0;stroke-opacity:1" d="M 8.01618,3.34439 C 5.41355,3.34439 3.31829,5.43967 3.31829,8.04229 V 19.19923 C 3.31829,21.80185 6.36597,24.82226 8.01618,24.27511 L 9.15616,23.89714 C 6.31012,23.54576 4.1203,21.13361 4.1203,18.18948 V 9.89954 C 4.1203,6.7121 6.68652,4.14641 9.87395,4.14641 H 86.90749 C 89.74269,4.14641 90.30869,5.54973 90.76798,5.60941 90.81423,3.86196 89.56431,3.43643 87.87023,3.34439 Z" id="rect2197" inkscape:label="t-l-inset" />
  <path inkscape:connector-curvature="0" id="rect2192" d="M 9.64523,4.1463 H 86.85279 C 90.07066,4.1463 92.66122,6.73686 92.66122,9.95473 V 18.32336 C 92.66122,21.54123 90.07066,24.13179 86.85279,24.13179 H 9.64523 C 6.42736,24.13179 3.8368,21.54123 3.8368,18.32336 V 9.95473 C 3.8368,6.73686 6.42736,4.1463 9.64523,4.1463 Z" style="opacity:1;fill:url(#linearGradient2213);fill-opacity:1;stroke:none;stroke-width:0.53718913;stroke-linecap:round;stroke-linejoin:round;stroke-miterlimit:10;stroke-dasharray:none;stroke-dashoffset:0;stroke-opacity:1" inkscape:label="inner" />
  <path inkscape:connector-curvature="0" d="M 91.42389,16.952767 V 19.303051 H 84.019776 V 9.4621397 H 91.42389 V 11.733119 H 86.982864 V 13.160592 H 90.573174 V 15.345058 H 86.982864 V 16.952767 Z M 81.114369,11.819633 V 19.303051 H 78.252214 V 11.819633 H 76.211937 V 9.4621397 H 83.154646 V 11.819633 Z M 75.447733,9.4621397 V 15.97949 Q 75.447733,17.832321 74.344686,18.64699 73.248848,19.45445 71.482531,19.45445 69.622491,19.45445 68.490606,18.675828 67.36593,17.897207 67.36593,16.138099 V 9.4621397 H 70.437159 V 15.784835 Q 70.437159,16.491362 70.732747,16.815788 71.035545,17.140213 71.691605,17.140213 72.239524,17.140213 72.585578,16.909511 72.938842,16.671599 73.003727,16.376011 73.075821,16.080423 73.075821,15.222497 V 9.4621397 Z M 57.979214,19.303051 V 9.4621397 H 62.975369 Q 64.532612,9.4621397 65.246349,10.247971 65.960085,11.033802 65.960085,12.043126 65.960085,12.778491 65.541937,13.376876 65.130998,13.968051 64.309119,14.191545 66.219626,14.65295 66.219626,16.484153 66.219626,17.57999 65.541937,18.445125 64.871457,19.303051 62.665363,19.303051 Z M 60.762065,13.232687 H 62.160701 Q 62.686991,13.232687 62.903275,12.965937 63.119559,12.699187 63.119559,12.396389 63.119559,11.574511 62.110234,11.574511 H 60.762065 Z M 60.762065,17.111376 H 62.232795 Q 62.780714,17.111376 63.033045,16.844626 63.292586,16.570666 63.292586,16.231822 63.292586,15.892977 63.040254,15.611808 62.795133,15.32343 62.131863,15.32343 H 60.762065 Z M 56.270573,9.4621397 V 19.303051 H 53.24981 V 9.4621397 Z M 51.829546,19.303051 H 48.477148 L 47.042466,15.539713 H 46.090817 V 19.303051 H 43.070054 V 9.4621397 H 48.210398 Q 49.91183,9.4621397 50.84906,10.26239 51.793499,11.05543 51.793499,12.360342 51.793499,13.211058 51.447445,13.867119 51.101391,14.51597 50.04881,15.013423 Z M 46.090817,13.434551 H 47.38131 Q 47.950857,13.434551 48.296911,13.196639 48.642965,12.958727 48.642965,12.497322 48.642965,11.552883 47.482243,11.552883 H 46.090817 Z M 40.16464,11.819633 V 19.303051 H 37.302484 V 11.819633 H 35.262208 V 9.4621397 H 42.204916 V 11.819633 Z M 34.411494,19.303051 H 31.953068 L 29.256731,14.955747 Q 28.73765,14.11945 28.211359,12.92268 28.449271,13.874328 28.449271,14.537599 V 19.303051 H 25.998055 V 9.4621397 H 28.853001 L 31.145609,13.066869 Q 31.830507,14.141078 32.183771,14.955747 31.953068,13.694092 31.953068,12.374761 V 9.4621397 H 34.411494 Z M 20.043042,19.45445 Q 17.966717,19.45445 16.654596,18.077443 15.349684,16.700436 15.349684,14.39341 15.349684,12.187315 16.59692,10.752633 17.851366,9.310741 20.071879,9.310741 22.126575,9.310741 23.417068,10.666119 24.714771,12.021498 24.714771,14.285268 24.714771,16.628342 23.409859,18.041396 22.104947,19.45445 20.043042,19.45445 Z M 20.028623,17.219517 Q 20.792825,17.219517 21.12446,16.556247 21.463305,15.885767 21.463305,14.112241 21.463305,11.545673 20.086298,11.545673 18.60115,11.545673 18.60115,14.472714 18.60115,17.219517 20.028623,17.219517 Z M 11.917982,15.546923 14.679204,15.71274 Q 14.484549,17.522315 13.338245,18.488382 12.199151,19.45445 10.533766,19.45445 8.529536,19.45445 7.2967185,18.127909 6.063901,16.801369 6.063901,14.465504 6.063901,12.151268 7.2318334,10.731004 8.3997657,9.310741 10.490509,9.310741 12.444272,9.310741 13.489644,10.39216 14.542225,11.473579 14.679204,13.261524 L 11.860306,13.412923 Q 11.860306,12.425227 11.478205,11.98545 11.103313,11.545673 10.591441,11.545673 9.1639684,11.545673 9.1639684,14.415038 9.1639684,16.022747 9.5316508,16.599504 9.9065426,17.176261 10.577022,17.176261 11.773792,17.176261 11.917982,15.546923 Z" style="-inkscape-font-specification:'Franklin Gothic Heavy, ';fill:#258699;fill-opacity:1;stroke:none;stroke-width:0.34605402;filter:url(#filter2236)" id="path945" />
  <path inkscape:connector-curvature="0" d="M 91.238649,16.661767 V 19.012051 H 83.834534 V 9.1711393 H 91.238649 V 11.442119 H 86.797622 V 12.869592 H 90.387932 V 15.054058 H 86.797622 V 16.661767 Z M 80.929128,11.528632 V 19.012051 H 78.066973 V 11.528632 H 76.026696 V 9.1711393 H 82.969405 V 11.528632 Z M 75.262492,9.1711393 V 15.68849 Q 75.262492,17.541321 74.159444,18.35599 73.063607,19.163449 71.297289,19.163449 69.437249,19.163449 68.305364,18.384828 67.180688,17.606206 67.180688,15.847098 V 9.1711393 H 70.251918 V 15.493835 Q 70.251918,16.200362 70.547506,16.524787 70.850303,16.849213 71.506364,16.849213 72.054282,16.849213 72.400336,16.61851 72.7536,16.380598 72.818485,16.08501 72.89058,15.789423 72.89058,14.931497 V 9.1711393 Z M 57.793973,19.012051 V 9.1711393 H 62.790128 Q 64.347371,9.1711393 65.061107,9.9569703 65.774844,10.742801 65.774844,11.752126 65.774844,12.48749 65.356695,13.085875 64.945756,13.677051 64.123878,13.900544 66.034384,14.36195 66.034384,16.193152 66.034384,17.28899 65.356695,18.154125 64.686215,19.012051 62.480121,19.012051 Z M 60.576824,12.941686 H 61.975459 Q 62.501749,12.941686 62.718033,12.674936 62.934317,12.408186 62.934317,12.105389 62.934317,11.283511 61.924993,11.283511 H 60.576824 Z M 60.576824,16.820375 H 62.047553 Q 62.595472,16.820375 62.847803,16.553625 63.107344,16.279666 63.107344,15.940821 63.107344,15.601977 62.855013,15.320808 62.609891,15.032429 61.946621,15.032429 H 60.576824 Z M 56.085331,9.1711393 V 19.012051 H 53.064568 V 9.1711393 Z M 51.644305,19.012051 H 48.291906 L 46.857224,15.248713 H 45.905575 V 19.012051 H 42.884812 V 9.1711393 H 48.025156 Q 49.726589,9.1711393 50.663818,9.9713892 51.608257,10.76443 51.608257,12.069342 51.608257,12.920058 51.262203,13.576119 50.916149,14.22497 49.863568,14.722423 Z M 45.905575,13.143551 H 47.196068 Q 47.765616,13.143551 48.11167,12.905639 48.457724,12.667727 48.457724,12.206321 48.457724,11.261882 47.297001,11.261882 H 45.905575 Z M 39.979398,11.528632 V 19.012051 H 37.117243 V 11.528632 H 35.076966 V 9.1711393 H 42.019675 V 11.528632 Z M 34.226252,19.012051 H 31.767826 L 29.071489,14.664747 Q 28.552408,13.82845 28.026117,12.63168 28.264029,13.583328 28.264029,14.246598 V 19.012051 H 25.812813 V 9.1711393 H 28.667759 L 30.960367,12.775869 Q 31.645266,13.850078 31.998529,14.664747 31.767826,13.403092 31.767826,12.083761 V 9.1711393 H 34.226252 Z M 19.8578,19.163449 Q 17.781476,19.163449 16.469354,17.786443 15.164442,16.409436 15.164442,14.102409 15.164442,11.896315 16.411679,10.461632 17.666124,9.0197407 19.886638,9.0197407 21.941333,9.0197407 23.231827,10.375119 24.529529,11.730497 24.529529,13.994267 24.529529,16.337341 23.224617,17.750395 21.919705,19.163449 19.8578,19.163449 Z M 19.843381,16.928517 Q 20.607584,16.928517 20.939219,16.265247 21.278063,15.594767 21.278063,13.82124 21.278063,11.254673 19.901057,11.254673 18.415908,11.254673 18.415908,14.181713 18.415908,16.928517 19.843381,16.928517 Z M 11.73274,15.255923 14.493963,15.42174 Q 14.299307,17.231314 13.153003,18.197382 12.013909,19.163449 10.348524,19.163449 8.3442943,19.163449 7.1114768,17.836909 5.8786593,16.510368 5.8786593,14.174504 5.8786593,11.860267 7.0465917,10.440004 8.214524,9.0197407 10.305267,9.0197407 12.25903,9.0197407 13.304402,10.101159 14.356983,11.182578 14.493963,12.970524 L 11.675064,13.121923 Q 11.675064,12.134227 11.292963,11.69445 10.918071,11.254673 10.4062,11.254673 8.9787267,11.254673 8.9787267,14.124038 8.9787267,15.731747 9.3464091,16.308504 9.7213009,16.88526 10.391781,16.88526 11.588551,16.88526 11.73274,15.255923 Z" style="-inkscape-font-specification:'Franklin Gothic Heavy, ';fill:#000000;fill-opacity:1;stroke:none;stroke-width:0.34605402;filter:url(#filter904)" id="path968" />
  <path inkscape:connector-curvature="0" d="M 91.000489,16.450082 V 18.800365 H 83.596375 V 8.9594541 H 91.000489 V 11.230434 H 86.559463 V 12.657907 H 90.149773 V 14.842373 H 86.559463 V 16.450082 Z M 80.690969,11.316947 V 18.800365 H 77.828813 V 11.316947 H 75.788537 V 8.9594541 H 82.731245 V 11.316947 Z M 75.024332,8.9594541 V 15.476805 Q 75.024332,17.329636 73.921285,18.144305 72.825448,18.951764 71.05913,18.951764 69.19909,18.951764 68.067205,18.173143 66.942529,17.394521 66.942529,15.635413 V 8.9594541 H 70.013759 V 15.28215 Q 70.013759,15.988676 70.309346,16.313102 70.612144,16.637528 71.268204,16.637528 71.816123,16.637528 72.162177,16.406825 72.515441,16.168913 72.580326,15.873325 72.65242,15.577737 72.65242,14.719812 V 8.9594541 Z M 57.555814,18.800365 V 8.9594541 H 62.551968 Q 64.109212,8.9594541 64.822948,9.7452851 65.536684,10.531116 65.536684,11.54044 65.536684,12.275805 65.118536,12.87419 64.707597,13.465366 63.885718,13.688859 65.796225,14.150264 65.796225,15.981467 65.796225,17.077305 65.118536,17.94244 64.448056,18.800365 62.241962,18.800365 Z M 60.338665,12.730001 H 61.7373 Q 62.26359,12.730001 62.479874,12.463251 62.696158,12.196501 62.696158,11.893704 62.696158,11.071826 61.686833,11.071826 H 60.338665 Z M 60.338665,16.60869 H 61.809394 Q 62.357313,16.60869 62.609644,16.34194 62.869185,16.067981 62.869185,15.729136 62.869185,15.390291 62.616854,15.109123 62.371732,14.820744 61.708462,14.820744 H 60.338665 Z M 55.847172,8.9594541 V 18.800365 H 52.826409 V 8.9594541 Z M 51.406145,18.800365 H 48.053747 L 46.619065,15.037028 H 45.667416 V 18.800365 H 42.646653 V 8.9594541 H 47.786997 Q 49.488429,8.9594541 50.425659,9.759704 51.370098,10.552745 51.370098,11.857657 51.370098,12.708373 51.024044,13.364433 50.67799,14.013285 49.625409,14.510737 Z M 45.667416,12.931866 H 46.957909 Q 47.527457,12.931866 47.873511,12.693954 48.219565,12.456042 48.219565,11.994636 48.219565,11.050197 47.058842,11.050197 H 45.667416 Z M 39.741239,11.316947 V 18.800365 H 36.879083 V 11.316947 H 34.838807 V 8.9594541 H 41.781516 V 11.316947 Z M 33.988093,18.800365 H 31.529667 L 28.83333,14.453062 Q 28.314249,13.616765 27.787958,12.419994 28.02587,13.371643 28.02587,14.034913 V 18.800365 H 25.574654 V 8.9594541 H 28.4296 L 30.722208,12.564184 Q 31.407107,13.638393 31.76037,14.453062 31.529667,13.191406 31.529667,11.872075 V 8.9594541 H 33.988093 Z M 19.619641,18.951764 Q 17.543317,18.951764 16.231195,17.574757 14.926283,16.197751 14.926283,13.890724 14.926283,11.68463 16.173519,10.249947 17.427965,8.8080555 19.648479,8.8080555 21.703174,8.8080555 22.993667,10.163434 24.29137,11.518812 24.29137,13.782582 24.29137,16.125656 22.986458,17.53871 21.681546,18.951764 19.619641,18.951764 Z M 19.605222,16.716832 Q 20.369424,16.716832 20.70106,16.053562 21.039904,15.383082 21.039904,13.609555 21.039904,11.042988 19.662897,11.042988 18.177749,11.042988 18.177749,13.970028 18.177749,16.716832 19.605222,16.716832 Z M 11.494581,15.044237 14.255803,15.210055 Q 14.061148,17.019629 12.914844,17.985697 11.77575,18.951764 10.110365,18.951764 8.1061351,18.951764 6.8733176,17.625224 5.6405002,16.298683 5.6405002,13.962819 5.6405002,11.648582 6.8084325,10.228319 7.9763648,8.8080555 10.067108,8.8080555 12.020871,8.8080555 13.066243,9.8894743 14.118824,10.970893 14.255803,12.758839 L 11.436905,12.910238 Q 11.436905,11.922542 11.054804,11.482765 10.679912,11.042988 10.16804,11.042988 8.7405675,11.042988 8.7405675,13.912352 8.7405675,15.520062 9.1082499,16.096818 9.4831417,16.673575 10.153621,16.673575 11.350392,16.673575 11.494581,15.044237 Z" style="-inkscape-font-specification:'Franklin Gothic Heavy, ';fill:#ffffff;fill-opacity:1;stroke:none;stroke-width:0.34605402" id="path991" />
</svg>
