<svg version="1.1" viewBox="0 0 97.14 28.38" xmlns="http://www.w3.org/2000/svg" xmlns:xlink="http://www.w3.org/1999/xlink">
 <defs>
  <linearGradient id="linearGradient2095">
   <stop style="stop-color:#007a6c" offset="0"/>
   <stop style="stop-color:#00b7a4" offset=".08"/>
   <stop style="stop-color:#00b7a4" offset=".8"/>
   <stop style="stop-color:#7fdbd1" offset="1"/>
  </linearGradient>
  <linearGradient id="linearGradient2097" x1="-770" x2="-684.3" y1="55.01" y2="96.02" gradientTransform="translate(777.8 -66.17)" gradientUnits="userSpaceOnUse" xlink:href="#linearGradient2095"/>
  <linearGradient id="linearGradient2213" x1="-908.3" x2="-830.8" y1="160.6" y2="195.8" gradientTransform="matrix(1.003 0 0 1.01 918.2 -166)" gradientUnits="userSpaceOnUse" xlink:href="#linearGradient2095"/>
  <filter id="filter904" x="-.006713" y="-.05649" width="1.013" height="1.113" style="color-interpolation-filters:sRGB">
   <feGaussianBlur stdDeviation="0.23875924"/>
  </filter>
  <filter id="filter1777" x="-.003357" y="-.02825" width="1.007" height="1.056" style="color-interpolation-filters:sRGB">
   <feGaussianBlur stdDeviation="0.11937962"/>
  </filter>
 </defs>
 <path d="m5.529 0c-3.063 0-5.529 2.466-5.529 5.529v15.99c0 3.063 2.496 6.592 5.529 6.164l1.874-0.2646c-3.696 0-6.605-3.396-6.672-7.042v-13c0-3.696 2.976-6.672 6.672-6.672h81.83c3.696 0 6.672 2.976 6.672 6.672v-1.852c0-3.063-2.466-5.529-5.529-5.529zm90.38 20.38c0 3.696-2.976 6.672-6.672 6.672h1.143c3.063 0 5.529-2.466 5.529-5.529z" style="fill:#7fdbd1"/>
 <path d="m6.604 28.37h84.38c3.411 0 6.157-2.746 6.157-6.157v-15.35c0-3.411-2.746-6.157-6.157-6.157h-1.744c3.696 0 6.672 2.976 6.672 6.672v13c0 3.696-2.976 6.672-6.672 6.672h-81.83c-3.212-0.5846-3.665-0.6704-5.853-3.465-0.6307 4.293 4.973 4.86 5.055 4.788z" style="fill:#007a6c"/>
 <rect x=".731" y=".7088" width="95.18" height="26.34" ry="6.672" style="fill:url(#linearGradient2097)"/>
 <path d="m88.65 4.136c2.64 1.81 3.807 3.332 4.007 5.764v8.29c0 3.187-2.566 5.753-5.754 5.753h-77.03c-3.187 0-5.754-2.566-5.754-5.753l0.1852 1.855c1.134 3.839 4.186 4.371 4.186 4.371h80.46c2.421 0 4.388-1.949 4.371-4.371l-0.0793-11.43c-0.1896-3.244-3.854-6.102-4.589-4.476z" style="fill:#7fdbd1"/>
 <path d="m8.016 3.344c-2.603 0-4.698 2.095-4.698 4.698v11.16c0 2.603 3.048 5.623 4.698 5.076l1.14-0.378c-2.846-0.3514-5.036-2.764-5.036-5.708v-8.29c0-3.187 2.566-5.753 5.754-5.753h77.03c2.835 0 3.401 1.403 3.86 1.463 0.04625-1.747-1.204-2.173-2.898-2.265z" style="fill:#007a6c"/>
 <path d="m9.645 4.146h77.21c3.218 0 5.808 2.591 5.808 5.808v8.369c0 3.218-2.591 5.808-5.808 5.808h-77.21c-3.218 0-5.808-2.591-5.808-5.808v-8.369c0-3.218 2.591-5.808 5.808-5.808z" style="fill:url(#linearGradient2213)"/>
 <text x="5.4605718" y="19.144268" style="fill:#007a6c;filter:url(#filter1777);font-family:'Trebuchet MS';font-size:14.76px;letter-spacing:0px;line-height:1.25;stroke-width:.3461;word-spacing:0px" xml:space="preserve"><tspan x="5.4605718" y="19.144268" style="fill:#007a6c;font-family:'Franklin Gothic Heavy';stroke-width:.3461">CONTRIBUTE</tspan></text>
 <text x="5.2753301" y="18.853237" style="fill:#000000;filter:url(#filter904);font-family:'Trebuchet MS';font-size:14.76px;letter-spacing:0px;line-height:1.25;opacity:.6388;stroke-width:.3461;word-spacing:0px" xml:space="preserve"><tspan x="5.2753301" y="18.853237" style="fill:#000000;font-family:'Franklin Gothic Heavy';stroke-width:.3461">CONTRIBUTE</tspan></text>
 <text x="5.2223516" y="18.800365" style="fill:#ffffff;font-family:'Trebuchet MS';font-size:14.76px;letter-spacing:0px;line-height:1.25;stroke-width:.3461;word-spacing:0px" xml:space="preserve"><tspan x="5.2223516" y="18.800365" style="fill:#ffffff;font-family:'Franklin Gothic Heavy';stroke-width:.3461">CONTRIBUTE</tspan></text>
</svg>
