<svg version="1.1" viewBox="0 0 100 34.72" xmlns="http://www.w3.org/2000/svg" xmlns:xlink="http://www.w3.org/1999/xlink">
 <defs>
  <filter id="filter1919" x="-.01551" y="-.05307" width="1.031" height="1.106" style="color-interpolation-filters:sRGB">
   <feGaussianBlur stdDeviation="0.62761277"/>
  </filter>
  <filter id="filter891-8" x="-.007753" y="-.02654" width="1.016" height="1.053" style="color-interpolation-filters:sRGB">
   <feGaussianBlur stdDeviation="0.31380766"/>
  </filter>
  <filter id="filter895-7" x="-.003877" y="-.01327" width="1.008" height="1.027" style="color-interpolation-filters:sRGB">
   <feGaussianBlur stdDeviation="0.15690319"/>
  </filter>
  <filter id="filter2675" x="-.001378" y="-.00929" width="1.003" height="1.019" style="color-interpolation-filters:sRGB">
   <feGaussianBlur stdDeviation="0.047474602"/>
  </filter>
  <linearGradient id="linearGradient2685" x1="4.521" x2="87.01" y1="62" y2="62" gradientTransform="matrix(.9177 0 0 .9177 8.082 -39.51)" gradientUnits="userSpaceOnUse">
   <stop style="stop-color:#e5fefc" offset="0"/>
   <stop style="stop-color:#bbf7f2" offset=".5"/>
   <stop style="stop-color:#e5fefc" offset="1"/>
  </linearGradient>
  <filter id="filter3426" x="-.02792" y="-.09556" width="1.056" height="1.191" style="color-interpolation-filters:sRGB">
   <feGaussianBlur stdDeviation="1.1301111"/>
  </filter>
 </defs>
 <path id="shade4b" transform="matrix(.9985 0 0 1.106 4.393 -51.17)" d="m87.49 47.78-84.85 0.003906c-3.063 0-5.529 2.466-5.529 5.529v15.99c0 2.166 1.251 4.559 3.055 5.627 1.485 1.077 3.508 1.27 3.557 1.227l-0.007812-0.003906h84.38c3.411 0 6.156-2.745 6.156-6.156v-15.35c0-2.144-1.085-4.025-2.738-5.127-1.007-1.07-2.433-1.74-4.025-1.74zm-82.97 0.709h81.83c0.0454 0 0.08959 0.004966 0.1348 0.005859 0.4172 0.007797 0.826 0.05049 1.221 0.1309 0.2148 0.04401 0.4262 0.09811 0.6328 0.1621 0.002549 7.86e-4 0.005266 0.001164 0.007813 0.001953 0.4156 0.1293 0.8136 0.2983 1.189 0.502-0.9441-0.5103-2.027-0.7988-3.18-0.7988h-81.84c-3.003 0-5.531 1.964-6.373 4.684 0.8412-2.721 3.369-4.687 6.373-4.687zm88.5 6.521c0.001142 0.05105 0.007812 0.101 0.007812 0.1523v13c0 0.02574-0.003618 0.0505-0.003906 0.07617v-0.03711c8.4e-5 -0.01384 0.001953-0.02716 0.001953-0.04102v-13c0-0.04092-0.005133-0.08035-0.005859-0.1211zm-94.37 16.35c0.004772 0.008765 0.01082 0.01665 0.01562 0.02539-2.942e-4 0.002045 2.914e-4 0.003817 0 0.00586-0.005306-0.01035-0.01037-0.02087-0.01562-0.03125zm91.95 1.957c-0.164 0.1351-0.3351 0.2636-0.5117 0.3828 0 0-0.001953 0.001954-0.001953 0.001954-0.1161 0.07826-0.2382 0.1458-0.3594 0.2168 0.3062-0.1793 0.6008-0.3773 0.873-0.6016zm-1.064 0.7168c-0.1879 0.1017-0.3817 0.1957-0.5801 0.2793-0.001345 5.68e-4 -0.002561 0.001386-0.003906 0.001953-0.1984 0.0835-0.4016 0.1583-0.6094 0.2227-0.00139 4.32e-4 -0.002517 0.001523-0.003907 0.001953-0.2079 0.06425-0.4206 0.1161-0.6367 0.1602-0.4351 0.08859-0.8857 0.1367-1.348 0.1367h-81.83c-0.003226-5.87e-4 -0.004592-0.001367-0.007812-0.001953h81.84c0.462 0 0.9145-0.04618 1.35-0.1348 0.6518-0.1327 1.267-0.3592 1.834-0.666z" style="fill:#15bdab;filter:url(#filter1919);opacity:.164"/>
 <path id="shade3b" transform="matrix(.9223 0 0 1.021 7.874 -45.94)" d="m87.49 47.78-84.85 0.003906c-3.063 0-5.529 2.466-5.529 5.529v15.99c0 2.166 1.251 4.559 3.055 5.627 1.485 1.077 3.508 1.27 3.557 1.227l-0.007812-0.003906h84.38c3.411 0 6.156-2.745 6.156-6.156v-15.35c0-2.144-1.085-4.025-2.738-5.127-1.007-1.07-2.433-1.74-4.025-1.74zm-82.97 0.709h81.83c0.0454 0 0.08959 0.004966 0.1348 0.005859 0.4172 0.007797 0.826 0.05049 1.221 0.1309 0.2148 0.04401 0.4262 0.09811 0.6328 0.1621 0.002549 7.86e-4 0.005266 0.001164 0.007813 0.001953 0.4156 0.1293 0.8136 0.2983 1.189 0.502-0.9441-0.5103-2.027-0.7988-3.18-0.7988h-81.84c-3.003 0-5.531 1.964-6.373 4.684 0.8412-2.721 3.369-4.687 6.373-4.687zm88.5 6.521c0.001142 0.05105 0.007812 0.101 0.007812 0.1523v13c0 0.02574-0.003618 0.0505-0.003906 0.07617v-0.03711c8.4e-5 -0.01384 0.001953-0.02716 0.001953-0.04102v-13c0-0.04092-0.005133-0.08035-0.005859-0.1211zm-94.37 16.35c0.004772 0.008765 0.01082 0.01665 0.01562 0.02539-2.942e-4 0.002045 2.914e-4 0.003817 0 0.00586-0.005306-0.01035-0.01037-0.02087-0.01562-0.03125zm91.95 1.957c-0.164 0.1351-0.3351 0.2636-0.5117 0.3828 0 0-0.001953 0.001954-0.001953 0.001954-0.1161 0.07826-0.2382 0.1458-0.3594 0.2168 0.3062-0.1793 0.6008-0.3773 0.873-0.6016zm-1.064 0.7168c-0.1879 0.1017-0.3817 0.1957-0.5801 0.2793-0.001345 5.68e-4 -0.002561 0.001386-0.003906 0.001953-0.1984 0.0835-0.4016 0.1583-0.6094 0.2227-0.00139 4.32e-4 -0.002517 0.001523-0.003907 0.001953-0.2079 0.06425-0.4206 0.1161-0.6367 0.1602-0.4351 0.08859-0.8857 0.1367-1.348 0.1367h-81.83c-0.003226-5.87e-4 -0.004592-0.001367-0.007812-0.001953h81.84c0.462 0 0.9145-0.04618 1.35-0.1348 0.6518-0.1327 1.267-0.3592 1.834-0.666z" style="fill:#eafdfb;filter:url(#filter3426);opacity:.6291"/>
 <path id="shade2b" transform="matrix(.9177 0 0 .9177 8.082 -39.51)" d="m88.09 48.45-84.85 0.003906c-3.063 0-5.529 2.466-5.529 5.529v15.99c0 2.166 1.251 4.559 3.055 5.627 1.485 1.077 3.508 1.27 3.557 1.227l-0.007812-0.003906h84.38c3.411 0 6.156-2.745 6.156-6.156v-15.35c0-2.144-1.085-4.025-2.738-5.127-1.007-1.07-2.433-1.74-4.025-1.74zm-82.97 0.709h81.83c0.0454 0 0.08959 0.004966 0.1348 0.005859 0.4172 0.007797 0.826 0.05049 1.221 0.1309 0.2148 0.04401 0.4262 0.09811 0.6328 0.1621 0.002549 7.86e-4 0.005266 0.001164 0.007813 0.001953 0.4156 0.1293 0.8136 0.2983 1.189 0.502-0.9441-0.5103-2.027-0.7988-3.18-0.7988h-81.84c-3.003 0-5.531 1.964-6.373 4.684 0.8412-2.721 3.369-4.687 6.373-4.687zm88.5 6.521c0.001142 0.05105 0.007812 0.101 0.007812 0.1523v13c0 0.02574-0.003618 0.0505-0.003906 0.07617v-0.03711c8.4e-5 -0.01384 0.001953-0.02716 0.001953-0.04102v-13c0-0.04092-0.005133-0.08035-0.005859-0.1211zm-94.37 16.35c0.004772 0.008765 0.01082 0.01665 0.01562 0.02539-2.942e-4 0.002045 2.914e-4 0.003817 0 0.00586-0.005306-0.01035-0.01037-0.02087-0.01562-0.03125zm91.95 1.957c-0.164 0.1351-0.3351 0.2636-0.5117 0.3828 0 0-0.001953 0.001954-0.001953 0.001954-0.1161 0.07826-0.2382 0.1458-0.3594 0.2168 0.3062-0.1793 0.6008-0.3773 0.873-0.6016zm-1.064 0.7168c-0.1879 0.1017-0.3817 0.1957-0.5801 0.2793-0.001345 5.68e-4 -0.002561 0.001386-0.003906 0.001953-0.1984 0.0835-0.4016 0.1583-0.6094 0.2227-0.00139 4.32e-4 -0.002517 0.001523-0.003907 0.001953-0.2079 0.06425-0.4206 0.1161-0.6367 0.1602-0.4351 0.08859-0.8857 0.1367-1.348 0.1367h-81.83c-0.003226-5.87e-4 -0.004592-0.001367-0.007812-0.001953h81.84c0.462 0 0.9145-0.04618 1.35-0.1348 0.6518-0.1327 1.267-0.3592 1.834-0.666z" style="fill:#000000;filter:url(#filter891-8);opacity:.2342"/>
 <path id="shade1b" transform="matrix(.9214 0 0 .9678 7.725 -42.88)" d="m87.69 48.05-84.85 0.003906c-3.063 0-5.529 2.466-5.529 5.529v15.99c0 2.166 1.251 4.559 3.055 5.627 1.485 1.077 3.508 1.27 3.557 1.227l-0.007812-0.003906h84.38c3.411 0 6.156-2.745 6.156-6.156v-15.35c0-2.144-1.085-4.025-2.738-5.127-1.007-1.07-2.433-1.74-4.025-1.74zm-82.97 0.709h81.83c0.0454 0 0.08959 0.004966 0.1348 0.005859 0.4172 0.007797 0.826 0.05049 1.221 0.1309 0.2148 0.04401 0.4262 0.09811 0.6328 0.1621 0.002549 7.86e-4 0.005266 0.001164 0.007813 0.001953 0.4156 0.1293 0.8136 0.2983 1.189 0.502-0.9441-0.5103-2.027-0.7988-3.18-0.7988h-81.84c-3.003 0-5.531 1.964-6.373 4.684 0.8412-2.721 3.369-4.687 6.373-4.687zm88.5 6.521c0.001142 0.05105 0.007812 0.101 0.007812 0.1523v13c0 0.02574-0.003618 0.0505-0.003906 0.07617v-0.03711c8.4e-5 -0.01384 0.001953-0.02716 0.001953-0.04102v-13c0-0.04092-0.005133-0.08035-0.005859-0.1211zm-94.37 16.35c0.004772 0.008765 0.01082 0.01665 0.01562 0.02539-2.942e-4 0.002045 2.914e-4 0.003817 0 0.00586-0.005306-0.01035-0.01037-0.02087-0.01562-0.03125zm91.95 1.957c-0.164 0.1351-0.3351 0.2636-0.5117 0.3828 0 0-0.001953 0.001954-0.001953 0.001954-0.1161 0.07826-0.2382 0.1458-0.3594 0.2168 0.3062-0.1793 0.6008-0.3773 0.873-0.6016zm-1.064 0.7168c-0.1879 0.1017-0.3817 0.1957-0.5801 0.2793-0.001345 5.68e-4 -0.002561 0.001386-0.003906 0.001953-0.1984 0.0835-0.4016 0.1583-0.6094 0.2227-0.00139 4.32e-4 -0.002517 0.001523-0.003907 0.001953-0.2079 0.06425-0.4206 0.1161-0.6367 0.1602-0.4351 0.08859-0.8857 0.1367-1.348 0.1367h-81.83c-0.003226-5.87e-4 -0.004592-0.001367-0.007812-0.001953h81.84c0.462 0 0.9145-0.04618 1.35-0.1348 0.6518-0.1327 1.267-0.3592 1.834-0.666z" style="fill:#000000;filter:url(#filter895-7);opacity:.2342"/>
 <path id="t-l-edge" d="m10.5 4.407c-2.811 0-5.074 2.263-5.074 5.074v14.67c0 2.811 2.291 6.05 5.074 5.657l1.72-0.2428c-3.392 0-6.062-3.117-6.123-6.463v-11.93c0-3.392 2.731-6.123 6.123-6.123h75.1c3.392 0 6.123 2.731 6.123 6.123v-1.7c0-2.811-2.263-5.074-5.074-5.074zm82.94 18.7c0 3.392-2.731 6.123-6.123 6.123h1.049c2.811 0 5.074-2.263 5.074-5.074z" style="fill:#007a6c;stroke-width:.9177"/>
 <path id="b-r-edge" d="m11.49 30.45h77.44c3.13 0 5.65-2.52 5.65-5.65v-14.09c0-3.13-2.52-5.65-5.65-5.65h-1.601c3.392 0 6.123 2.731 6.123 6.123v11.93c0 3.392-2.731 6.123-6.123 6.123h-75.1c-2.948-0.5365-3.363-0.6152-5.371-3.18-0.5788 3.94 4.564 4.46 4.639 4.394z" style="fill:#007a6c;stroke-width:.9177"/>
 <rect id="rim" x="6.102" y="5.057" width="87.35" height="24.17" ry="6.123" style="fill:#7fdbd1;stroke-width:.9177"/>
 <path id="b-r-inset" d="m86.78 8.203c2.423 1.661 3.494 3.058 3.677 5.29v7.608c0 2.925-2.355 5.28-5.281 5.28h-70.69c-2.925 0-5.281-2.355-5.281-5.28l0.17 1.702c1.041 3.523 3.842 4.011 3.842 4.011h73.84c2.222 0 4.027-1.789 4.011-4.011l-0.07278-10.49c-0.174-2.977-3.537-5.6-4.211-4.108z" style="fill:#007a6c;stroke-width:.9177"/>
 <path id="t-l-inset" d="m12.79 7.476c-2.389 0-4.311 1.923-4.311 4.311v10.24c0 2.389 2.797 5.16 4.311 4.658l1.046-0.3469c-2.612-0.3225-4.622-2.537-4.622-5.238v-7.608c0-2.925 2.355-5.28 5.281-5.28h70.69c2.602 0 3.121 1.288 3.542 1.343 0.04244-1.603-1.105-1.994-2.66-2.079z" style="fill:#007a6c;stroke-width:.9177"/>
 <path id="inner" d="m14.28 8.212h70.86c2.953 0 5.33 2.378 5.33 5.33v7.68c0 2.953-2.378 5.33-5.33 5.33h-70.86c-2.953 0-5.33-2.378-5.33-5.33v-7.68c0-2.953 2.378-5.33 5.33-5.33z" style="fill:#17c8b8;stroke-width:.9177"/>
 <text id="txt-shad-b" transform="matrix(.9198 0 0 .9901 8.087 -44.67)" x="4.5023503" y="68.796593" style="fill:#005148;filter:url(#filter2675);font-family:'Trebuchet MS';font-size:17.85px;letter-spacing:0px;line-height:1.25;stroke-width:.4186;word-spacing:0px" xml:space="preserve"><tspan x="4.5023503" y="68.796593" style="fill:#005148;font-family:'Franklin Gothic Heavy';stroke-width:.4186">SERVICES</tspan></text>
 <text id="txt-shad-a" transform="scale(.9788 1.022)" x="12.30219" y="22.688929" style="fill:#000000;font-family:'Trebuchet MS';font-size:16.86px;letter-spacing:0px;line-height:1.25;stroke-width:.3953;word-spacing:0px" xml:space="preserve"><tspan x="12.30219" y="22.688929" style="fill:#000000;font-family:'Franklin Gothic Heavy';stroke-width:.3953">SERVICES</tspan></text>
 <text id="text" x="12.406715" y="22.828577" style="fill:url(#linearGradient2685);font-family:'Trebuchet MS';font-size:16.34px;letter-spacing:0px;line-height:1.25;stroke-width:.3832;word-spacing:0px" xml:space="preserve"><tspan x="12.406715" y="22.828577" style="fill:url(#linearGradient2685);font-family:'Franklin Gothic Heavy';stroke-width:.3832">SERVICES</tspan></text>
</svg>
