<svg version="1.1" viewBox="0 0 60.73 60.73" xmlns="http://www.w3.org/2000/svg">
 <path d="m57.38 1e-3h-54.03c-1.85 0-3.352 1.499-3.352 3.352v54.03c0 1.853 1.502 3.354 3.352 3.354h29.09l9.464-3e-3h15.48c1.852 0 3.355-1.503 3.355-3.351v-54.03c-1e-3 -1.851-1.502-3.35-3.354-3.35z" style="fill:#ffffff"/>
 <path d="m57.38 1e-3h-54.03c-1.85 0-3.352 1.499-3.352 3.352v54.03c0 1.853 1.502 3.354 3.352 3.354h29.09v-23.52h-7.914v-9.167h7.914v-6.76c0-7.843 4.789-12.12 11.79-12.12 3.355 0 6.232 0.251 7.071 0.36v8.198l-4.854 2e-3c-3.805 0-4.539 1.809-4.539 4.462v5.851h9.078l-1.187 9.166h-7.892v23.52h15.48c1.852 0 3.355-1.503 3.355-3.351v-54.03c-1e-3 -1.851-1.502-3.35-3.354-3.35z" style="fill:#006df0"/>
</svg>
