<svg version="1.1" viewBox="0 0 273.8 39.7" xmlns="http://www.w3.org/2000/svg">
 <path d="m16.88 10.88-0.5-0.6-1.227 0.6z" style="fill:#000000"/>
 <path d="m19.47 24.13-0.5-0.6 0.8069-0.6648z" style="fill:#000000"/>
 <path d="m28.2 24.13-0.5-0.6v-1.566l0.5 0.6z" style="fill:#000000"/>
 <path d="m27.7 15.47 0.5 0.6-1.264 0.3128z" style="fill:#000000"/>
 <path d="m28.2 10.88-0.5-0.6-0.4985 0.696z" style="fill:#000000"/>
 <path d="m30.42 23.31-0.5-0.6 0.865-0.4648z" style="fill:#000000"/>
 <path d="m40.1 11.56-0.5-0.6-0.6621 0.8738z" style="fill:#000000"/>
 <path d="m52.91 10.88-0.5-0.6-0.4377 0.6307z" style="fill:#000000"/>
 <path d="m41.68 12.44-0.5-0.6 1.269-0.6923z" style="fill:#000000"/>
 <path d="m46.41 24.12-0.5-0.6 0.8655-1.191z" style="fill:#000000"/>
 <path d="m64.39 24.13-0.5-0.6 1.007-0.7532z" style="fill:#000000"/>
 <path d="m61.46 10.88-0.5-0.6-0.4994 0.697z" style="fill:#000000"/>
 <path d="m71.56 10.88-0.5-0.6-0.8395 0.7633z" style="fill:#000000"/>
 <path d="m78.67 10.88-0.5-0.6-0.5429 1.117z" style="fill:#000000"/>
 <path d="m71 23.53 0.5 0.6 1.378-1.265z" style="fill:#000000"/>
 <path d="m81.62 24.13-0.5-0.6 0.7326-0.7974z" style="fill:#000000"/>
 <path d="m87.27 10.88-0.5-0.6-0.6537 1.113z" style="fill:#000000"/>
 <path d="m85.5 24.13-0.5-0.6 1.042-0.8195z" style="fill:#000000"/>
 <path d="m93.89 22.56-0.5-0.6-1.087 0.9233z" style="fill:#000000"/>
 <path d="m95.64 24.13-0.5-0.6 1.133-0.8195z" style="fill:#000000"/>
 <path d="m104 22.56-0.5-0.6-0.9081 0.8128z" style="fill:#000000"/>
 <path d="m97.41 10.88-0.5-0.6-1.027 0.936z" style="fill:#000000"/>
 <path d="m114.5 10.88-0.5-0.6-0.8317 0.8948z" style="fill:#000000"/>
 <path d="m114.5 16.07-0.5-0.6-0.8538 0.7802z" style="fill:#000000"/>
 <path d="m114.5 22.56-0.5-0.6-0.9201 0.7686z" style="fill:#000000"/>
 <path d="m105.8 24.13-0.5-0.6 1.401-0.7532z" style="fill:#000000"/>
 <path d="m120.3 24.13-0.5-0.6 0.9454-0.9742z" style="fill:#000000"/>
 <path d="m194.5 24.13-0.5-0.6 0.9192-0.9296z" style="fill:#000000"/>
 <path d="m203.5 24.13-0.5-0.6 1.537-1.051z" style="fill:#000000"/>
 <path d="m213.7 24.13-0.5-0.6 0.6981-1.172z" style="fill:#000000"/>
 <path d="m217.6 24.13-0.5-0.6 0.9942-1.597z" style="fill:#000000"/>
 <path d="m225.5 24.13-0.5-0.6 1.073-1.112z" style="fill:#000000"/>
 <path d="m227.7 10.88-0.5-0.6-1.167 1.403z" style="fill:#000000"/>
 <path d="m210.7 10.88-0.5-0.6-0.7323 0.9681z" style="fill:#000000"/>
 <path d="m220.3 10.88-0.5-0.6-0.7331 0.9467z" style="fill:#000000"/>
 <path d="m229.4 12.44-0.5-0.6 1.149-0.6193z" style="fill:#000000"/>
 <path d="m240.6 10.88-0.5-0.6-0.9889 0.6679z" style="fill:#000000"/>
 <path d="m234.1 24.12-0.5-0.6 0.8323-0.698z" style="fill:#000000"/>
 <path d="m242.4 24.13-0.5-0.6 0.7494-0.8521z" style="fill:#000000"/>
 <path d="m257.9 24.13-0.5-0.6 1.059-0.9164z" style="fill:#000000"/>
 <path d="m134.9 24.13-0.5-0.6 0.9775-0.9903z" style="fill:#000000"/>
 <path d="m142.4 16.18-0.5-0.6-0.7198 1.132z" style="fill:#000000"/>
 <path d="m150.8 10.6c-0.9136 0-1.758 0.1544-2.535 0.4629-0.7712 0.3085-1.419 0.7526-1.941 1.334-0.5458 0.611-0.9594 1.347-1.244 2.207-0.2848 0.8543-0.4277 1.821-0.4277 2.9 0 1.097 0.143 2.073 0.4277 2.928 0.2907 0.8543 0.7024 1.577 1.236 2.164 0.5339 0.5873 1.18 1.033 1.939 1.342 0.7653 0.3085 1.614 0.4629 2.545 0.4629 0.9551 0 1.803-0.1506 2.545-0.4531 0.7475-0.3025 1.394-0.7524 1.939-1.352 0.528-0.5754 0.9378-1.294 1.229-2.154 0.2966-0.8661 0.4453-1.846 0.4453-2.938s-0.1449-2.066-0.4355-2.926c-0.2848-0.8602-0.6984-1.588-1.238-2.182-0.528-0.5754-1.17-1.018-1.93-1.326-0.7534-0.3144-1.606-0.4707-2.555-0.4707zm14.34 0c-0.9136 0-1.758 0.1544-2.535 0.4629-0.7712 0.3085-1.417 0.7526-1.939 1.334-0.5458 0.611-0.9613 1.347-1.246 2.207-0.2848 0.8543-0.4277 1.821-0.4277 2.9 0 1.097 0.143 2.073 0.4277 2.928 0.2907 0.8543 0.7024 1.577 1.236 2.164 0.5339 0.5873 1.18 1.033 1.939 1.342 0.7653 0.3085 1.614 0.4629 2.545 0.4629 0.9551 0 1.805-0.1506 2.547-0.4531 0.7475-0.3025 1.394-0.7524 1.939-1.352 0.528-0.5754 0.9359-1.294 1.227-2.154 0.2966-0.8661 0.4453-1.846 0.4453-2.938s-0.1449-2.066-0.4356-2.926c-0.2848-0.8602-0.6965-1.588-1.236-2.182-0.528-0.5754-1.172-1.018-1.932-1.326-0.7534-0.3144-1.606-0.4707-2.555-0.4707zm-129.7 0.03516c-1.442 0-2.631 0.3565-3.568 1.068-0.9373 0.7059-1.406 1.613-1.406 2.723 0 0.967 0.2821 1.752 0.8457 2.357 0.5695 0.5992 1.443 1.024 2.617 1.273 0.5814 0.1186 1.128 0.2158 1.645 0.293 0.522 0.07712 1.006 0.1763 1.451 0.2949 0.5873 0.1542 1.024 0.3696 1.309 0.6484 0.2907 0.2788 0.4355 0.7115 0.4355 1.299 0 0.6822-0.305 1.229-0.916 1.639-0.6051 0.4093-1.453 0.6133-2.545 0.6133-0.7712 0-1.597-0.1506-2.475-0.4531s-1.652-0.7334-2.322-1.291h-0.125v2.207c0.789 0.35 1.563 0.613 2.322 0.791 0.7653 0.178 1.627 0.2676 2.582 0.2676 0.8898 0 1.649-0.1067 2.277-0.3203 0.6348-0.2136 1.189-0.509 1.664-0.8887 0.4331-0.35 0.7686-0.779 1.006-1.283 0.2432-0.5042 0.3652-1.013 0.3652-1.529 0-0.9492-0.2497-1.689-0.748-2.217s-1.24-0.9226-2.225-1.184c-0.4864-0.1246-1.079-0.2446-1.779-0.3633-0.7-0.1186-1.239-0.2197-1.619-0.3027-0.7178-0.1661-1.219-0.4063-1.504-0.7207-0.2848-0.3144-0.4277-0.7471-0.4277-1.299 0-0.617 0.284-1.122 0.8535-1.514 0.5754-0.3915 1.336-0.5879 2.279-0.5879 0.8602 0 1.699 0.143 2.518 0.4277 0.8246 0.2788 1.49 0.6315 1.994 1.059h0.123v-2.082c-0.5992-0.261-1.287-0.4802-2.064-0.6582-0.7771-0.178-1.631-0.2676-2.562-0.2676zm-34.97 0.2402 3.506 13.25h1.939l2.723-11 2.785 11h1.984l3.445-13.25h-1.727l-2.768 11.12-2.768-11.12h-1.789l-2.74 11.02-2.785-11.02zm18.97 0v13.25h8.73v-1.566h-6.967v-4.92h6.967v-1.566h-6.967v-3.631h6.967v-1.566zm22.21 0v1.566h4.734v11.68h1.762v-11.68h4.734v-1.566zm17.89 0 4.822 13.25h2.35l4.822-13.25h-1.797l-4.156 11.66-4.154-11.66zm16.75 0-4.822 13.25h1.789l1.299-3.693h5.73l1.299 3.693h1.877l-4.822-13.25zm9.184 0v13.25h8.383v-1.566h-6.621v-11.68zm10.14 0v13.25h8.383v-1.566h-6.621v-11.68zm10.14 0v13.25h8.729v-1.566h-6.967v-4.92h6.967v-1.566h-6.967v-3.631h6.967v-1.566zm9.807 0 4.68 7.627v5.623h1.762v-5.811l4.662-7.439h-1.877l-3.656 5.928-3.623-5.928zm19.34 0v13.25h1.762v-6.381h5.758v-1.564h-5.758v-3.738h6.701v-1.566zm39.15 0v13.25h3.346c1.216 0 2.194-0.08194 2.936-0.248 0.7475-0.1661 1.424-0.4368 2.029-0.8105 0.872-0.5398 1.57-1.299 2.092-2.277 0.528-0.9788 0.791-2.071 0.791-3.275 0-1.287-0.2516-2.399-0.7559-3.336-0.5042-0.9373-1.208-1.688-2.109-2.252-0.528-0.3263-1.174-0.5817-1.939-0.7656-0.7593-0.1898-1.785-0.2852-3.078-0.2852zm20.47 0v13.25h1.762v-4.938h1.762c0.9492 0 1.735-0.1144 2.357-0.3398 0.6229-0.2314 1.162-0.5745 1.619-1.031 0.3678-0.3678 0.6538-0.8005 0.8555-1.299 0.2076-0.5042 0.3106-1.051 0.3106-1.639 0-0.7712-0.1392-1.408-0.418-1.912-0.2729-0.5042-0.6618-0.9255-1.166-1.264-0.4271-0.2848-0.9151-0.4925-1.467-0.623-0.5517-0.1364-1.227-0.2051-2.021-0.2051zm13.85 0-4.824 13.25h1.789l1.299-3.693h5.732l1.299 3.693h1.877l-4.822-13.25zm9.184 0v13.25h1.646v-11.85l6.281 11.85h2.18v-13.25h-1.646v10.82l-5.73-10.82zm11.85 0v1.566h4.734v11.68h1.762v-11.68h4.734v-1.566zm13.03 0v13.25h1.762v-5.268h2.484l4.43 5.268h2.287l-4.982-5.793c0.8424-0.3263 1.504-0.8085 1.984-1.449 0.4805-0.6466 0.7207-1.449 0.7207-2.404 0-0.7059-0.1373-1.287-0.4102-1.744-0.267-0.4627-0.6406-0.8439-1.121-1.146-0.4271-0.267-0.9075-0.4519-1.441-0.5527-0.5339-0.1068-1.201-0.1602-2.002-0.1602zm10.77 0 4.682 7.627v5.623h1.762v-5.811l4.662-7.439h-1.877l-3.658 5.928-3.621-5.928zm-102.4 1.246c1.335 0 2.387 0.4689 3.158 1.406 0.7712 0.9314 1.156 2.256 1.156 3.977 0 1.738-0.3908 3.071-1.174 3.996-0.7771 0.9195-1.824 1.379-3.141 1.379s-2.367-0.4594-3.15-1.379c-0.7831-0.9254-1.174-2.258-1.174-3.996 0-1.72 0.3812-3.045 1.146-3.977 0.7712-0.9373 1.831-1.406 3.178-1.406zm14.34 0c1.335 0 2.387 0.4689 3.158 1.406 0.7712 0.9314 1.158 2.256 1.158 3.977 0 1.738-0.3927 3.071-1.176 3.996-0.7771 0.9195-1.824 1.379-3.141 1.379s-2.367-0.4594-3.15-1.379c-0.7831-0.9254-1.174-2.258-1.174-3.996 0-1.72 0.3832-3.045 1.148-3.977 0.7712-0.9373 1.829-1.406 3.176-1.406zm10.71 0.2676h1.654c0.8187 0 1.522 0.05909 2.109 0.1777 0.5873 0.1127 1.142 0.3167 1.664 0.6133 0.7178 0.4093 1.257 0.9698 1.619 1.682 0.3619 0.7119 0.543 1.587 0.543 2.625 0 1.032-0.1658 1.894-0.498 2.582-0.3263 0.6881-0.8181 1.243-1.477 1.664-0.528 0.3381-1.109 0.5688-1.744 0.6934-0.6288 0.1246-1.368 0.1875-2.217 0.1875h-1.654zm20.47 0h1.744c0.5576 0 1.017 0.04195 1.379 0.125 0.3678 0.07712 0.6938 0.2067 0.9785 0.3906 0.3263 0.2136 0.5703 0.49 0.7305 0.8281s0.2402 0.7346 0.2402 1.191c0 0.3915-0.0591 0.7442-0.1777 1.059-0.1127 0.3144-0.3091 0.6156-0.5879 0.9004-0.2788 0.2788-0.641 0.4828-1.086 0.6133-0.4449 0.1246-1.022 0.1875-1.734 0.1875h-1.486zm47.91 0h2.074c0.4746 0 0.8863 0.03428 1.236 0.1055 0.35 0.06526 0.6531 0.1854 0.9082 0.3574 0.3085 0.2017 0.5277 0.4495 0.6582 0.7461 0.1364 0.2907 0.2051 0.6262 0.2051 1.006 0 0.4983-0.0648 0.9101-0.1953 1.236-0.1246 0.3203-0.3209 0.6063-0.5879 0.8555-0.2907 0.267-0.6433 0.4499-1.059 0.5508-0.4153 0.09492-0.9014 0.1426-1.459 0.1426h-1.781zm-166.8 0.02539 2.322 6.506h-4.654zm132.1 0 2.324 6.506h-4.654zm-69.73 18.81c-0.5688 0-1.006 0.1628-1.307 0.4883-0.3011 0.3224-0.4512 0.7854-0.4512 1.391v0.1699h-0.5781v0.7207h0.5781v4.375h0.8574v-4.375h1.52v-0.7207h-1.547v-0.1738c0-0.4258 0.0819-0.7197 0.2461-0.8809 0.1673-0.1642 0.4367-0.2461 0.8047-0.2461 0.1156 0 0.2483 0.01451 0.4004 0.04492 0.1521 0.02737 0.2748 0.05466 0.3691 0.08203h0.0469v-0.7852c-0.1278-0.02433-0.2707-0.04425-0.4258-0.0625-0.1521-0.01825-0.3221-0.02734-0.5137-0.02734zm-110.8 0.04492v2.209c-0.2281-0.1186-0.4455-0.205-0.6523-0.2598-0.2068-0.05779-0.4452-0.08789-0.7129-0.08789-0.295 0-0.5806 0.06193-0.8574 0.1836-0.2737 0.1217-0.5139 0.2981-0.7207 0.5293-0.2099 0.2372-0.3772 0.5237-0.502 0.8613-0.1217 0.3376-0.1816 0.7224-0.1816 1.154 0 0.8304 0.1773 1.479 0.5332 1.947 0.3589 0.4684 0.8429 0.7031 1.451 0.7031 0.3133 0 0.6034-0.05911 0.8711-0.1777 0.2677-0.1186 0.5251-0.2832 0.7715-0.4961v0.5332h0.8574v-7.1zm39.91 0v2.209c-0.2281-0.1186-0.4455-0.205-0.6523-0.2598-0.2068-0.05779-0.4433-0.08789-0.7109-0.08789-0.295 0-0.5806 0.06193-0.8574 0.1836-0.2737 0.1217-0.5139 0.2981-0.7207 0.5293-0.2099 0.2372-0.3772 0.5237-0.502 0.8613-0.1217 0.3376-0.1836 0.7224-0.1836 1.154 0 0.8304 0.1793 1.479 0.5352 1.947 0.3589 0.4684 0.8429 0.7031 1.451 0.7031 0.3133 0 0.6034-0.05911 0.8711-0.1777 0.2677-0.1186 0.5232-0.2832 0.7695-0.4961v0.5332h0.8594v-7.1zm20.64 0v2.209c-0.2281-0.1186-0.4455-0.205-0.6523-0.2598-0.2068-0.05779-0.4433-0.08789-0.7109-0.08789-0.295 0-0.5806 0.06193-0.8574 0.1836-0.2737 0.1217-0.5139 0.2981-0.7207 0.5293-0.2099 0.2372-0.3772 0.5237-0.502 0.8613-0.1217 0.3376-0.1836 0.7224-0.1836 1.154 0 0.8304 0.1773 1.479 0.5332 1.947 0.3589 0.4684 0.8429 0.7031 1.451 0.7031 0.3133 0 0.6034-0.05911 0.8711-0.1777 0.2677-0.1186 0.5251-0.2832 0.7715-0.4961v0.5332h0.8574v-7.1zm106.2 0v7.1h0.8594v-3.805c0.2342-0.1795 0.4789-0.3278 0.7344-0.4434s0.5002-0.1738 0.7344-0.1738c0.2281 0 0.4137 0.03183 0.5566 0.0957 0.143 0.06083 0.2521 0.1555 0.3281 0.2832 0.073 0.1156 0.123 0.2775 0.1504 0.4844 0.0274 0.2038 0.041 0.422 0.041 0.6562v2.902h0.8574v-3.309c0-0.6235-0.1446-1.1-0.4336-1.432s-0.7073-0.498-1.258-0.498c-0.3011 0-0.595 0.0628-0.8809 0.1875s-0.5624 0.2975-0.8301 0.5195v-2.568zm5.914 0v7.1h0.8027l0.0547-0.2383c0.2099 0.1156 0.4227 0.2085 0.6387 0.2754 0.216 0.06996 0.4689 0.1035 0.7578 0.1035 0.3102 0 0.595-0.05911 0.8535-0.1777 0.2585-0.1217 0.495-0.3027 0.7109-0.543 0.2038-0.2312 0.3658-0.5168 0.4844-0.8574 0.1217-0.3407 0.1816-0.7246 0.1816-1.15 0-0.8425-0.1756-1.495-0.5254-1.957-0.3467-0.4623-0.8196-0.6934-1.422-0.6934-0.3376 0-0.6434 0.06366-0.9141 0.1914-0.2707 0.1247-0.5253 0.2867-0.7656 0.4844v-2.537zm56.82 0v2.209c-0.2281-0.1186-0.4455-0.205-0.6524-0.2598-0.2068-0.05779-0.4433-0.08789-0.7109-0.08789-0.295 0-0.5806 0.06193-0.8574 0.1836-0.2737 0.1217-0.5139 0.2981-0.7207 0.5293-0.2099 0.2372-0.3772 0.5237-0.502 0.8613-0.1217 0.3376-0.1836 0.7224-0.1836 1.154 0 0.8304 0.1793 1.479 0.5352 1.947 0.3589 0.4684 0.8409 0.7031 1.449 0.7031 0.3133 0 0.6054-0.05911 0.873-0.1777 0.2677-0.1186 0.5232-0.2832 0.7695-0.4961v0.5332h0.8594v-7.1zm-101.4 0.1641c-0.4684 0-0.9004 0.08012-1.299 0.2383-0.3954 0.1582-0.7284 0.3855-0.9961 0.6836-0.2798 0.3133-0.4927 0.6898-0.6387 1.131-0.146 0.438-0.2187 0.9347-0.2187 1.488 0 0.5627 0.0728 1.062 0.2187 1.5 0.149 0.438 0.361 0.8083 0.6348 1.109s0.6048 0.5313 0.9941 0.6895c0.3924 0.1582 0.8272 0.2363 1.305 0.2363 0.4897 0 0.9245-0.0773 1.305-0.2324 0.3832-0.1551 0.7163-0.3862 0.9961-0.6934 0.2707-0.295 0.4799-0.6625 0.6289-1.104 0.1521-0.4441 0.2285-0.9462 0.2285-1.506s-0.0756-1.061-0.2246-1.502c-0.146-0.441-0.356-0.813-0.6328-1.117-0.2707-0.295-0.6009-0.5215-0.9902-0.6797-0.3863-0.1612-0.8239-0.2422-1.311-0.2422zm-59.37 0.01953c-0.7391 0-1.348 0.1819-1.828 0.5469-0.4806 0.3619-0.7227 0.8277-0.7227 1.396 0 0.4958 0.1446 0.8987 0.4336 1.209 0.292 0.3072 0.7396 0.5246 1.342 0.6523 0.2981 0.06083 0.5791 0.1109 0.8438 0.1504 0.2677 0.03954 0.516 0.08956 0.7441 0.1504 0.3011 0.07908 0.5239 0.1891 0.6699 0.332 0.149 0.143 0.2246 0.3649 0.2246 0.666 0 0.3498-0.1574 0.63-0.4707 0.8398-0.3102 0.2099-0.745 0.3145-1.305 0.3145-0.3954 0-0.8174-0.0773-1.268-0.2324-0.4502-0.1551-0.8477-0.3742-1.191-0.6602h-0.06445v1.131c0.4045 0.1795 0.8021 0.315 1.191 0.4062 0.3924 0.09125 0.8345 0.1367 1.324 0.1367 0.4562 0 0.8456-0.05456 1.168-0.1641 0.3254-0.1095 0.6082-0.2624 0.8516-0.457 0.222-0.1795 0.394-0.3977 0.5156-0.6562 0.1247-0.2585 0.1875-0.5205 0.1875-0.7852 0-0.4867-0.1273-0.866-0.3828-1.137-0.2555-0.2707-0.6357-0.4716-1.141-0.6055-0.2494-0.06387-0.5532-0.1267-0.9121-0.1875-0.3589-0.06083-0.6354-0.1117-0.8301-0.1543-0.368-0.08516-0.6255-0.2099-0.7715-0.3711s-0.2188-0.3831-0.2188-0.666c0-0.3163 0.1455-0.5746 0.4375-0.7754 0.295-0.2007 0.6844-0.3008 1.168-0.3008 0.441 0 0.8713 0.07275 1.291 0.2188 0.4228 0.143 0.763 0.324 1.021 0.543h0.06445v-1.068c-0.3072-0.1338-0.6601-0.2447-1.059-0.3359-0.3984-0.09125-0.8369-0.1367-1.314-0.1367zm-74.63 0.07617v0.8906h0.9668v-0.8906zm8.395 0v0.8906h0.9668v-0.8906zm85.32 0v0.8906h0.9668v-0.8906zm70.52 0v0.8906h0.9668v-0.8906zm37.96 0v0.8906h0.9668v-0.8906zm-222.8 0.04688v6.793h0.9043v-2.533h0.9023c0.4867 0 0.8896-0.0563 1.209-0.1719 0.3194-0.1186 0.5959-0.2951 0.8301-0.5293 0.1886-0.1886 0.3341-0.4105 0.4375-0.666 0.1065-0.2585 0.1602-0.5387 0.1602-0.8398 0-0.3954-0.07189-0.7219-0.2148-0.9805-0.1399-0.2585-0.3391-0.4751-0.5977-0.6484-0.219-0.146-0.4691-0.2534-0.752-0.3203-0.2829-0.06996-0.6276-0.1035-1.035-0.1035zm46.76 0v6.793h0.9023v-3.271h2.951v-0.8027h-2.951v-1.916h3.436v-0.8027zm125.7 0v6.793h0.8437v-6.078l3.221 6.078h1.117v-6.793h-0.8438v5.547l-2.938-5.547zm62.29 0v6.793h0.8438v-6.078l3.221 6.078h1.119v-6.793h-0.8457v5.547l-2.938-5.547zm-80.06 0.6387c0.6844 0 1.224 0.2401 1.619 0.7207 0.3954 0.4775 0.5938 1.157 0.5938 2.039 0 0.8912-0.202 1.574-0.6035 2.049-0.3984 0.4714-0.9341 0.707-1.609 0.707s-1.214-0.2356-1.615-0.707c-0.4015-0.4745-0.6035-1.158-0.6035-2.049 0-0.8821 0.1975-1.562 0.5898-2.039 0.3954-0.4806 0.9385-0.7207 1.629-0.7207zm-153.8 0.1367h0.8926c0.2859 0 0.5215 0.01992 0.707 0.0625 0.1886 0.03954 0.356 0.1069 0.502 0.2012 0.1673 0.1095 0.2929 0.2505 0.375 0.4238 0.08212 0.1734 0.123 0.3771 0.123 0.6113 0 0.2007-0.03097 0.3818-0.0918 0.543-0.05779 0.1612-0.1578 0.3149-0.3008 0.4609-0.143 0.143-0.3285 0.2495-0.5566 0.3164-0.2281 0.06387-0.5237 0.0957-0.8887 0.0957h-0.7617zm10.66 0.7793c-0.7209 0-1.293 0.243-1.719 0.7266-0.4228 0.4806-0.6348 1.134-0.6348 1.965 0 0.8304 0.212 1.486 0.6348 1.967 0.4258 0.4806 0.9979 0.7207 1.719 0.7207 0.7148 1e-6 1.285-0.2401 1.711-0.7207 0.4258-0.4806 0.6387-1.136 0.6387-1.967 0-0.8304-0.2129-1.484-0.6387-1.965-0.4258-0.4836-0.9962-0.7266-1.711-0.7266zm22.68 0c-0.3011 0-0.595 0.0628-0.8809 0.1875s-0.5624 0.2975-0.8301 0.5195v-0.5645h-0.8574v5.096h0.8574v-3.805c0.2342-0.1795 0.4789-0.3278 0.7344-0.4434s0.5002-0.1738 0.7344-0.1738c0.2281 0 0.4137 0.03183 0.5566 0.0957 0.143 0.06083 0.2521 0.1555 0.3281 0.2832 0.073 0.1156 0.123 0.2775 0.1504 0.4844 0.02737 0.2038 0.04102 0.422 0.04102 0.6562v2.902h0.8574v-3.309c0-0.6235-0.1427-1.1-0.4316-1.432-0.289-0.3315-0.7092-0.498-1.26-0.498zm5.246 0c-0.2798 0-0.5609 0.06193-0.8438 0.1836-0.2829 0.1186-0.523 0.286-0.7207 0.502-0.2129 0.2312-0.3812 0.5049-0.5059 0.8242-0.1217 0.3163-0.1836 0.6948-0.1836 1.133 0 0.7999 0.1773 1.42 0.5332 1.861 0.3589 0.438 0.8429 0.6562 1.451 0.6562 0.365 0 0.6662-0.05002 0.9004-0.1504 0.2372-0.1034 0.4837-0.258 0.7422-0.4648v0.4648c0 0.2068-0.02274 0.3933-0.06836 0.5605-0.04562 0.1673-0.1221 0.3111-0.2285 0.4297-0.1065 0.1247-0.2537 0.2211-0.4453 0.291s-0.4346 0.1055-0.7266 0.1055c-0.3042 0-0.608-0.04092-0.9121-0.123-0.3042-0.07908-0.5261-0.1464-0.666-0.2012h-0.04688v0.877c0.2494 0.06996 0.5023 0.1237 0.7578 0.1602 0.2585 0.03954 0.5242 0.05859 0.7949 0.05859 0.8151 0 1.418-0.2029 1.811-0.6074 0.3924-0.4045 0.5879-1.039 0.5879-1.902v-4.516h-0.8027l-0.05469 0.2188c-0.222-0.1217-0.4321-0.2117-0.6328-0.2695-0.1977-0.06083-0.4452-0.0918-0.7402-0.0918zm14.34 0c-0.7209 0-1.293 0.243-1.719 0.7266-0.4228 0.4806-0.6348 1.134-0.6348 1.965 0 0.8304 0.212 1.486 0.6348 1.967 0.4258 0.4806 0.9979 0.7207 1.719 0.7207 0.7148 1e-6 1.285-0.2401 1.711-0.7207 0.4258-0.4806 0.6387-1.136 0.6387-1.967 0-0.8304-0.2129-1.484-0.6387-1.965-0.4258-0.4836-0.9962-0.7266-1.711-0.7266zm5.676 0c-0.7209 0-1.293 0.243-1.719 0.7266-0.4228 0.4806-0.6348 1.134-0.6348 1.965 0 0.8304 0.212 1.486 0.6348 1.967 0.4258 0.4806 0.9979 0.7207 1.719 0.7207 0.7148 1e-6 1.285-0.2401 1.711-0.7207 0.4258-0.4806 0.6387-1.136 0.6387-1.967 0-0.8304-0.2129-1.484-0.6387-1.965-0.4258-0.4836-0.9962-0.7266-1.711-0.7266zm20.98 0c-0.3011 0-0.595 0.0628-0.8809 0.1875s-0.5624 0.2975-0.8301 0.5195v-0.5645h-0.8574v5.096h0.8574v-3.805c0.2342-0.1795 0.4789-0.3278 0.7344-0.4434s0.5002-0.1738 0.7344-0.1738c0.2281 0 0.4137 0.03183 0.5566 0.0957 0.143 0.06083 0.2521 0.1555 0.3281 0.2832 0.073 0.1156 0.123 0.2775 0.1504 0.4844 0.02738 0.2038 0.04102 0.422 0.04102 0.6562v2.902h0.8574v-3.309c0-0.6235-0.1427-1.1-0.4316-1.432-0.2889-0.3315-0.7092-0.498-1.26-0.498zm20.96 0c-0.7422 0-1.343 0.2447-1.799 0.7344-0.4532 0.4897-0.6797 1.151-0.6797 1.984 0 0.8425 0.2384 1.494 0.7129 1.953 0.4745 0.4562 1.135 0.6855 1.98 0.6855 0.3315 0 0.6462-0.04288 0.9473-0.125s0.5978-0.183 0.8867-0.3047v-0.9355h-0.0469c-0.149 0.1338-0.3991 0.2702-0.752 0.4102-0.3498 0.1369-0.6982 0.2051-1.045 0.2051-0.2616 0-0.5017-0.03638-0.7207-0.1094-0.216-0.073-0.4043-0.1821-0.5625-0.3281-0.1642-0.149-0.2924-0.3392-0.3867-0.5703-0.0943-0.2342-0.1426-0.507-0.1426-0.8203h3.756v-0.4668c0-0.7391-0.1864-1.307-0.5606-1.709-0.3711-0.4015-0.9005-0.6035-1.588-0.6035zm22.54 0c-0.7422 0-1.341 0.2447-1.797 0.7344-0.4532 0.4897-0.6797 1.151-0.6797 1.984 0 0.8425 0.2364 1.494 0.7109 1.953 0.4745 0.4562 1.135 0.6855 1.98 0.6855 0.3315 0 0.6481-0.04288 0.9492-0.125s0.5958-0.183 0.8848-0.3047v-0.9355h-0.0449c-0.149 0.1338-0.4011 0.2702-0.7539 0.4102-0.3498 0.1369-0.6982 0.2051-1.045 0.2051-0.2616 0-0.5017-0.03638-0.7207-0.1094-0.216-0.073-0.4024-0.1821-0.5605-0.3281-0.1642-0.149-0.2944-0.3392-0.3887-0.5703-0.0943-0.2342-0.1406-0.507-0.1406-0.8203h3.754v-0.4668c0-0.7391-0.1864-1.307-0.5606-1.709-0.3711-0.4015-0.9005-0.6035-1.588-0.6035zm16.89 0c-0.7209 0-1.295 0.243-1.721 0.7266-0.4228 0.4806-0.6348 1.134-0.6348 1.965 0 0.8304 0.212 1.486 0.6348 1.967 0.4258 0.4806 0.9998 0.7207 1.721 0.7207 0.7148 1e-6 1.283-0.2401 1.709-0.7207s0.6406-1.136 0.6406-1.967c0-0.8304-0.2148-1.484-0.6406-1.965-0.4258-0.4836-0.9942-0.7266-1.709-0.7266zm40.62 0c-0.7421 0-1.341 0.2447-1.797 0.7344-0.4532 0.4897-0.6797 1.151-0.6797 1.984 0 0.8425 0.2364 1.494 0.7109 1.953 0.4745 0.4562 1.135 0.6855 1.98 0.6855 0.3315 0 0.6481-0.04288 0.9492-0.125s0.5958-0.183 0.8848-0.3047v-0.9355h-0.0449c-0.149 0.1338-0.4011 0.2702-0.7539 0.4102-0.3498 0.1369-0.6982 0.2051-1.045 0.2051-0.2616 0-0.5017-0.03638-0.7207-0.1094-0.216-0.073-0.4024-0.1821-0.5606-0.3281-0.1642-0.149-0.2944-0.3392-0.3887-0.5703-0.0943-0.2342-0.1406-0.507-0.1406-0.8203h3.756v-0.4668c0-0.7391-0.1884-1.307-0.5625-1.709-0.3711-0.4015-0.9005-0.6035-1.588-0.6035zm7.926 0c-0.2798 0-0.5609 0.06193-0.8438 0.1836-0.2829 0.1186-0.523 0.286-0.7207 0.502-0.2129 0.2312-0.3831 0.5049-0.5078 0.8242-0.1217 0.3163-0.1816 0.6948-0.1816 1.133 0 0.7999 0.1773 1.42 0.5332 1.861 0.3589 0.438 0.8429 0.6562 1.451 0.6562 0.365 0 0.6642-0.05002 0.8984-0.1504 0.2372-0.1034 0.4856-0.258 0.7441-0.4648v0.4648c0 0.2068-0.0227 0.3933-0.0684 0.5605-0.0456 0.1673-0.1221 0.3111-0.2285 0.4297-0.1065 0.1247-0.2556 0.2211-0.4473 0.291s-0.4326 0.1055-0.7246 0.1055c-0.3042 0-0.608-0.04092-0.9121-0.123-0.3042-0.07908-0.5261-0.1464-0.666-0.2012h-0.0469v0.877c0.2494 0.06996 0.5023 0.1237 0.7578 0.1602 0.2585 0.03954 0.5223 0.05859 0.793 0.05859 0.8152 0 1.42-0.2029 1.812-0.6074 0.3924-0.4045 0.5879-1.039 0.5879-1.902v-4.516h-0.8027l-0.0547 0.2188c-0.222-0.1217-0.434-0.2117-0.6348-0.2695-0.1977-0.06083-0.4432-0.0918-0.7383-0.0918zm17.65 0c-0.7208 0-1.293 0.243-1.719 0.7266-0.4228 0.4806-0.6348 1.134-0.6348 1.965 0 0.8304 0.212 1.486 0.6348 1.967 0.4258 0.4806 0.9979 0.7207 1.719 0.7207 0.7148 1e-6 1.285-0.2401 1.711-0.7207s0.6387-1.136 0.6387-1.967c0-0.8304-0.2128-1.484-0.6387-1.965-0.4258-0.4836-0.9962-0.7266-1.711-0.7266zm20.98 0c-0.3011 0-0.595 0.0628-0.8809 0.1875s-0.5624 0.2975-0.8301 0.5195v-0.5645h-0.8574v5.096h0.8574v-3.805c0.2342-0.1795 0.4789-0.3278 0.7344-0.4434s0.5002-0.1738 0.7344-0.1738c0.2281 0 0.4137 0.03183 0.5566 0.0957 0.143 0.06083 0.2521 0.1555 0.3281 0.2832 0.073 0.1156 0.123 0.2775 0.1504 0.4844 0.0274 0.2038 0.041 0.422 0.041 0.6562v2.902h0.8574v-3.309c0-0.6235-0.1427-1.1-0.4316-1.432s-0.7092-0.498-1.26-0.498zm15.73 0c-0.7421 0-1.341 0.2447-1.797 0.7344-0.4532 0.4897-0.6797 1.151-0.6797 1.984 0 0.8425 0.2364 1.494 0.7109 1.953 0.4745 0.4562 1.135 0.6855 1.98 0.6855 0.3315 0 0.6481-0.04288 0.9492-0.125s0.5958-0.183 0.8848-0.3047v-0.9355h-0.0449c-0.149 0.1338-0.4011 0.2702-0.7539 0.4102-0.3498 0.1369-0.6962 0.2051-1.043 0.2051-0.2616 0-0.5037-0.03638-0.7226-0.1094-0.216-0.073-0.4024-0.1821-0.5606-0.3281-0.1642-0.149-0.2924-0.3392-0.3867-0.5703-0.0943-0.2342-0.1426-0.507-0.1426-0.8203h3.756v-0.4668c0-0.7391-0.1884-1.307-0.5625-1.709-0.3711-0.4015-0.9005-0.6035-1.588-0.6035zm5.566 0c-0.7422 0-1.341 0.2447-1.797 0.7344-0.4532 0.4897-0.6797 1.151-0.6797 1.984 0 0.8425 0.2365 1.494 0.7109 1.953 0.4745 0.4562 1.135 0.6855 1.98 0.6855 0.3315 0 0.6481-0.04288 0.9492-0.125s0.5958-0.183 0.8848-0.3047v-0.9355h-0.0449c-0.149 0.1338-0.4011 0.2702-0.7539 0.4102-0.3498 0.1369-0.6982 0.2051-1.045 0.2051-0.2616 0-0.5017-0.03638-0.7207-0.1094-0.216-0.073-0.4024-0.1821-0.5605-0.3281-0.1642-0.149-0.2944-0.3392-0.3887-0.5703-0.0943-0.2342-0.1406-0.507-0.1406-0.8203h3.754v-0.4668c0-0.7391-0.1864-1.307-0.5605-1.709-0.3711-0.4015-0.9005-0.6035-1.588-0.6035zm-175.3 0.01953c-0.3072 0-0.6192 0.02728-0.9355 0.08203s-0.5573 0.1048-0.7246 0.1504v0.8711h0.04492c0.295-0.1125 0.5806-0.1981 0.8574-0.2559 0.2768-0.06083 0.5288-0.0918 0.7539-0.0918 0.1855 0 0.3629 0.01278 0.5332 0.03711s0.3158 0.07067 0.4375 0.1406c0.1277 0.073 0.2261 0.175 0.293 0.3027 0.06996 0.1277 0.1055 0.2878 0.1055 0.4824v0.1328c-0.4988 0.02433-0.9674 0.06071-1.402 0.1094-0.4349 0.04866-0.8069 0.1405-1.117 0.2773-0.3072 0.1369-0.5437 0.3261-0.7109 0.5664-0.1642 0.2372-0.2461 0.5493-0.2461 0.9355 0 0.4714 0.1592 0.8599 0.4785 1.164 0.3194 0.3042 0.7087 0.4551 1.168 0.4551 0.2494 0 0.4668-0.0236 0.6523-0.07226 0.1855-0.04562 0.3492-0.1039 0.4922-0.1738 0.1217-0.05475 0.2473-0.1275 0.375-0.2188 0.1308-0.09429 0.2345-0.167 0.3105-0.2188v0.543h0.8516v-3.459c0-0.3285-0.05002-0.6041-0.1504-0.8262s-0.2459-0.4031-0.4375-0.543c-0.1947-0.143-0.4257-0.243-0.6934-0.3008-0.2646-0.06083-0.5766-0.08984-0.9355-0.08984zm55.13 0c-0.3254 0-0.6202 0.04179-0.8848 0.127-0.2616 0.08212-0.4781 0.1949-0.6484 0.3379-0.1764 0.146-0.3083 0.3106-0.3965 0.4961-0.0852 0.1855-0.127 0.3839-0.127 0.5938 0 0.3346 0.0918 0.6184 0.2773 0.8496 0.1886 0.2281 0.506 0.4009 0.9531 0.5195 0.1612 0.04258 0.3405 0.08264 0.5352 0.1191 0.1977 0.0365 0.3569 0.06833 0.4785 0.0957 0.3285 0.073 0.5504 0.1603 0.666 0.2637s0.1738 0.2563 0.1738 0.457c0 0.2616-0.1074 0.4526-0.3203 0.5742s-0.5076 0.1816-0.8848 0.1816c-0.3042 0-0.6216-0.05911-0.9531-0.1777-0.3315-0.1217-0.6336-0.2845-0.9043-0.4883h-0.0449v0.9629c0.2129 0.1065 0.4758 0.2056 0.7891 0.2969 0.3163 0.08821 0.6639 0.1328 1.041 0.1328 0.6661 0 1.191-0.1492 1.574-0.4473 0.3863-0.2981 0.5781-0.6792 0.5781-1.145 0-0.3711-0.1083-0.6695-0.3242-0.8945-0.216-0.222-0.5215-0.3795-0.9199-0.4707-0.1308-0.03042-0.2964-0.06311-0.4941-0.09961-0.1947-0.0365-0.3711-0.07288-0.5293-0.1094-0.2859-0.06692-0.4914-0.1533-0.6191-0.2598-0.1308-0.1065-0.1973-0.2647-0.1973-0.4746 0-0.2372 0.1083-0.4165 0.3242-0.5352 0.216-0.1217 0.4797-0.1816 0.793-0.1816 0.3011 0 0.6086 0.05543 0.9219 0.168 0.3133 0.1095 0.5798 0.245 0.7988 0.4062h0.0449v-0.916c-0.2068-0.1065-0.466-0.1965-0.7793-0.2695-0.3102-0.07604-0.6177-0.1133-0.9219-0.1133zm87.31 0c-0.3254 0-0.6221 0.04179-0.8867 0.127-0.2616 0.08212-0.4762 0.1949-0.6465 0.3379-0.1764 0.146-0.3102 0.3106-0.3984 0.4961-0.0852 0.1855-0.127 0.3839-0.127 0.5938 0 0.3346 0.0938 0.6184 0.2793 0.8496 0.1886 0.2281 0.506 0.4009 0.9531 0.5195 0.1612 0.04258 0.3385 0.08264 0.5332 0.1191 0.1977 0.0365 0.3568 0.06833 0.4785 0.0957 0.3285 0.073 0.5504 0.1603 0.666 0.2637s0.1738 0.2563 0.1738 0.457c0 0.2616-0.1054 0.4526-0.3184 0.5742s-0.5096 0.1816-0.8867 0.1816c-0.3042 0-0.6216-0.05911-0.9531-0.1777-0.3315-0.1217-0.6316-0.2845-0.9024-0.4883h-0.0469v0.9629c0.2129 0.1065 0.4758 0.2056 0.7891 0.2969 0.3163 0.08821 0.6639 0.1328 1.041 0.1328 0.6661 0 1.191-0.1492 1.574-0.4473 0.3863-0.2981 0.5801-0.6792 0.5801-1.145 0-0.3711-0.1083-0.6695-0.3242-0.8945-0.216-0.222-0.5234-0.3795-0.9219-0.4707-0.1308-0.03042-0.2945-0.06311-0.4922-0.09961-0.1947-0.0365-0.3711-0.07288-0.5293-0.1094-0.2859-0.06692-0.4933-0.1533-0.6211-0.2598-0.1308-0.1065-0.1953-0.2647-0.1953-0.4746 0-0.2372 0.1063-0.4165 0.3223-0.5352 0.216-0.1217 0.4816-0.1816 0.7949-0.1816 0.3011 0 0.6086 0.05543 0.9219 0.168 0.3133 0.1095 0.5779 0.245 0.7969 0.4062h0.0469v-0.916c-0.2068-0.1065-0.468-0.1965-0.7812-0.2695-0.3102-0.07604-0.6158-0.1133-0.9199-0.1133zm-97.35 0.0039c-0.7513 0-1.357 0.2365-1.816 0.7109-0.4562 0.4745-0.6836 1.129-0.6836 1.963 0 0.4471 0.06 0.8373 0.1816 1.172 0.1217 0.3346 0.2936 0.6111 0.5156 0.8301 0.219 0.219 0.4819 0.3827 0.7891 0.4922 0.3072 0.1065 0.6456 0.1602 1.014 0.1602 0.289 0 0.5609-0.03724 0.8164-0.1133 0.2585-0.07604 0.5305-0.1834 0.8164-0.3203v-0.9434h-0.0449c-0.0639 0.05171-0.1503 0.1145-0.2598 0.1875-0.1095 0.06996-0.2269 0.1353-0.3516 0.1992-0.143 0.073-0.3049 0.1321-0.4844 0.1777-0.1794 0.04562-0.3559 0.06836-0.5293 0.06836-0.4988 0-0.8873-0.1637-1.164-0.4922-0.2737-0.3315-0.4102-0.8036-0.4102-1.418 0-0.6326 0.1401-1.112 0.4199-1.438 0.2829-0.3285 0.6676-0.4922 1.154-0.4922 0.2646 0 0.5357 0.05457 0.8125 0.1641 0.2798 0.1095 0.5509 0.265 0.8125 0.4688h0.0449v-0.9531c-0.2342-0.1186-0.4925-0.2187-0.7754-0.3008-0.2798-0.08212-0.5654-0.123-0.8574-0.123zm-113.5 0.1191v5.096h0.8574v-3.619c0.2281-0.1855 0.4665-0.3356 0.7129-0.4512 0.2464-0.1186 0.501-0.1777 0.7656-0.1777 0.1642 0 0.3052 0.0082 0.4238 0.02344 0.1217 0.01217 0.2473 0.03208 0.375 0.0625h0.04492v-0.8789c-0.1338-0.02129-0.2339-0.03493-0.3008-0.04102-0.06692-0.0091-0.1752-0.01367-0.3242-0.01367-0.2707 0-0.5353 0.0563-0.7969 0.1719-0.2585 0.1125-0.5597 0.3063-0.9004 0.5801v-0.752zm9.033 0 2.049 5.096h0.8633l2.061-5.096h-0.8984l-1.564 4.055-1.578-4.055zm6.105 0v5.096h0.8574v-5.096zm8.395 0v5.096h0.8574v-5.096zm75.78 0v5.096h0.8574v-3.619c0.2281-0.1855 0.4646-0.3356 0.7109-0.4512 0.2464-0.1186 0.503-0.1777 0.7676-0.1777 0.1642 0 0.3052 0.0082 0.4238 0.02344 0.1217 0.01217 0.2453 0.03208 0.373 0.0625h0.0469v-0.8789c-0.1338-0.02129-0.2339-0.03493-0.3008-0.04102-0.0669-0.0091-0.1752-0.01367-0.3242-0.01367-0.2707 0-0.5373 0.0563-0.7988 0.1719-0.2585 0.1125-0.5578 0.3063-0.8984 0.5801v-0.752zm3.43 0 2.049 5.096h0.8633l2.061-5.096h-0.8984l-1.564 4.055-1.578-4.055zm6.105 0v5.096h0.8574v-5.096zm30.12 0v5.096h0.8574v-3.619c0.2281-0.1855 0.4646-0.3356 0.7109-0.4512 0.2464-0.1186 0.503-0.1777 0.7676-0.1777 0.1642 0 0.3052 0.0082 0.4238 0.02344 0.1217 0.01217 0.2453 0.03208 0.373 0.0625h0.0469v-0.8789c-0.1338-0.02129-0.2339-0.03493-0.3008-0.04102-0.0669-0.0091-0.1752-0.01367-0.3242-0.01367-0.2707 0-0.5372 0.0563-0.7988 0.1719-0.2585 0.1125-0.5578 0.3063-0.8984 0.5801v-0.752zm14.6 0v3.307c0 0.6326 0.1492 1.113 0.4473 1.441 0.2981 0.3254 0.7147 0.4883 1.25 0.4883 0.3194 0 0.6104-0.05998 0.875-0.1816 0.2646-0.1217 0.5411-0.2973 0.8301-0.5254v0.5664h0.8574v-5.096h-0.8574v3.805c-0.2281 0.1795-0.4737 0.3258-0.7383 0.4414-0.2616 0.1156-0.5045 0.1738-0.7266 0.1738-0.2494 0-0.4395-0.03096-0.5703-0.0918-0.1308-0.06083-0.2362-0.1572-0.3184-0.291-0.0791-0.1308-0.1319-0.2882-0.1563-0.4707-0.0243-0.1855-0.0351-0.4075-0.0351-0.666v-2.9zm5.949 0v5.096h0.8574v-3.619c0.2281-0.1855 0.4646-0.3356 0.7109-0.4512 0.2464-0.1186 0.503-0.1777 0.7676-0.1777 0.1642 0 0.3052 0.0082 0.4238 0.02344 0.1217 0.01217 0.2453 0.03208 0.373 0.0625h0.0469v-0.8789c-0.1338-0.02129-0.2339-0.03493-0.3008-0.04102-0.0669-0.0091-0.1752-0.01367-0.3242-0.01367-0.2707 0-0.5372 0.0563-0.7988 0.1719-0.2585 0.1125-0.5578 0.3063-0.8984 0.5801v-0.752zm19.85 0v5.096h0.8574v-5.096zm25.79 0v5.096h0.8574v-3.619c0.2281-0.1855 0.4665-0.3356 0.7129-0.4512 0.2464-0.1186 0.501-0.1777 0.7656-0.1777 0.1642 0 0.3072 0.0082 0.4258 0.02344 0.1217 0.01217 0.2453 0.03208 0.373 0.0625h0.0449v-0.8789c-0.1338-0.02129-0.2339-0.03493-0.3008-0.04102-0.0669-0.0091-0.1752-0.01367-0.3242-0.01367-0.2707 0-0.5353 0.0563-0.7969 0.1719-0.2585 0.1125-0.5597 0.3063-0.9004 0.5801v-0.752zm12.16 0v5.096h0.8574v-5.096zm-121.5 0.5645c0.4562 0 0.7956 0.1228 1.018 0.3691 0.2251 0.2464 0.3388 0.5948 0.3418 1.045h-2.92c0.0365-0.4015 0.1902-0.7371 0.4609-1.008 0.2738-0.2707 0.6403-0.4062 1.1-0.4062zm22.54 0c0.4562 0 0.7955 0.1228 1.018 0.3691 0.2251 0.2464 0.3388 0.5948 0.3418 1.045h-2.92c0.0365-0.4015 0.1902-0.7371 0.4609-1.008 0.2737-0.2707 0.6403-0.4062 1.1-0.4062zm57.5 0c0.4562 0 0.7956 0.1228 1.018 0.3691 0.2251 0.2464 0.3388 0.5948 0.3418 1.045h-2.92c0.0365-0.4015 0.1902-0.7371 0.4609-1.008 0.2737-0.2707 0.6403-0.4062 1.1-0.4062zm62.29 0c0.4562 0 0.7955 0.1228 1.018 0.3691 0.2251 0.2464 0.3388 0.5948 0.3418 1.045h-2.92c0.0365-0.4015 0.1902-0.7371 0.4609-1.008 0.2737-0.2707 0.6403-0.4062 1.1-0.4062zm5.566 0c0.4562 0 0.7956 0.1228 1.018 0.3691 0.2251 0.2464 0.3388 0.5948 0.3418 1.045h-2.92c0.0365-0.4015 0.1902-0.7371 0.4609-1.008 0.2737-0.2707 0.6403-0.4062 1.1-0.4062zm-237.7 0.0332c0.4593 0 0.8196 0.16 1.078 0.4824 0.2585 0.3194 0.3867 0.8087 0.3867 1.469 1e-6 0.6448-0.131 1.132-0.3926 1.461-0.2585 0.3254-0.616 0.4883-1.072 0.4883-0.4623 0-0.8215-0.1637-1.08-0.4922-0.2585-0.3315-0.3887-0.8183-0.3887-1.457 0-0.66 0.1273-1.149 0.3828-1.469 0.2585-0.3224 0.6206-0.4824 1.086-0.4824zm42.27 0c0.4593 0 0.8196 0.16 1.078 0.4824 0.2585 0.3194 0.3867 0.8087 0.3867 1.469 0 0.6448-0.131 1.132-0.3926 1.461-0.2585 0.3254-0.616 0.4883-1.072 0.4883-0.4623 0-0.8215-0.1637-1.08-0.4922-0.2585-0.3315-0.3887-0.8183-0.3887-1.457 0-0.66 0.1273-1.149 0.3828-1.469 0.2585-0.3224 0.6206-0.4824 1.086-0.4824zm5.676 0c0.4593 0 0.8176 0.16 1.076 0.4824 0.2585 0.3194 0.3887 0.8087 0.3887 1.469 0 0.6448-0.131 1.132-0.3926 1.461-0.2585 0.3254-0.616 0.4883-1.072 0.4883-0.4623 0-0.8215-0.1637-1.08-0.4922-0.2585-0.3315-0.3887-0.8183-0.3887-1.457 0-0.66 0.1273-1.149 0.3828-1.469 0.2585-0.3224 0.6206-0.4824 1.086-0.4824zm81.36 0c0.4593 0 0.8176 0.16 1.076 0.4824 0.2585 0.3194 0.3867 0.8087 0.3867 1.469 0 0.6448-0.131 1.132-0.3926 1.461-0.2585 0.3254-0.6141 0.4883-1.07 0.4883-0.4623 0-0.8235-0.1637-1.082-0.4922-0.2585-0.3315-0.3887-0.8183-0.3887-1.457 0-0.66 0.1293-1.149 0.3848-1.469 0.2585-0.3224 0.6206-0.4824 1.086-0.4824zm66.19 0c0.4593 0 0.8176 0.16 1.076 0.4824 0.2585 0.3194 0.3887 0.8087 0.3887 1.469 0 0.6448-0.131 1.132-0.3926 1.461-0.2585 0.3254-0.616 0.4883-1.072 0.4883-0.4623 0-0.8215-0.1637-1.08-0.4922-0.2585-0.3315-0.3887-0.8183-0.3887-1.457 0-0.66 0.1273-1.149 0.3828-1.469 0.2585-0.3224 0.6206-0.4824 1.086-0.4824zm-167.4 0.03125c0.1947 0 0.3893 0.02274 0.584 0.06836 0.1977 0.04258 0.4106 0.1153 0.6387 0.2188v2.779c-0.2099 0.1612-0.4409 0.2894-0.6934 0.3867-0.2494 0.09429-0.4986 0.1426-0.748 0.1426-0.4654 0-0.7973-0.1483-0.998-0.4434-0.2007-0.295-0.3027-0.729-0.3027-1.301 0-0.6022 0.1356-1.061 0.4062-1.377s0.6418-0.4746 1.113-0.4746zm149.9 0c0.1947 0 0.3893 0.02274 0.584 0.06836 0.1977 0.04258 0.4106 0.1153 0.6387 0.2188v2.779c-0.2099 0.1612-0.4409 0.2894-0.6934 0.3867-0.2494 0.09429-0.4986 0.1426-0.748 0.1426-0.4654 0-0.7993-0.1483-1-0.4434-0.2008-0.295-0.3008-0.729-0.3008-1.301 1e-5 -0.6022 0.1356-1.061 0.4063-1.377 0.2707-0.3163 0.6418-0.4746 1.113-0.4746zm-164.2 0.01367c0.216 1e-6 0.4152 0.01905 0.5977 0.05859s0.3899 0.1114 0.6211 0.2148v2.924c-0.216 0.1703-0.4498 0.3104-0.6992 0.4199-0.2494 0.1065-0.495 0.1602-0.7383 0.1602-0.4562 0-0.7873-0.1574-0.9941-0.4707-0.2068-0.3163-0.3105-0.7756-0.3105-1.381 0-0.6144 0.1327-1.089 0.4004-1.424 0.2677-0.3346 0.6425-0.502 1.123-0.502zm39.91 0c0.216 1e-6 0.4152 0.01905 0.5977 0.05859s0.388 0.1114 0.6191 0.2148v2.924c-0.216 0.1703-0.4479 0.3104-0.6973 0.4199-0.2494 0.1065-0.495 0.1602-0.7383 0.1602-0.4562 0-0.7893-0.1574-0.9961-0.4707-0.2068-0.3163-0.3086-0.7756-0.3086-1.381 0-0.6144 0.1327-1.089 0.4004-1.424 0.2677-0.3346 0.6425-0.502 1.123-0.502zm20.64 0c0.216 1e-6 0.4152 0.01905 0.5977 0.05859s0.388 0.1114 0.6191 0.2148v2.924c-0.216 0.1703-0.4479 0.3104-0.6973 0.4199-0.2494 0.1065-0.4969 0.1602-0.7402 0.1602-0.4562 0-0.7873-0.1574-0.9941-0.4707-0.2068-0.3163-0.3105-0.7756-0.3105-1.381 0-0.6144 0.1347-1.089 0.4023-1.424 0.2677-0.3346 0.6425-0.502 1.123-0.502zm169 0c0.216 1e-6 0.4152 0.01905 0.5977 0.05859s0.388 0.1114 0.6191 0.2148v2.924c-0.216 0.1703-0.4479 0.3104-0.6973 0.4199-0.2494 0.1065-0.495 0.1602-0.7383 0.1602-0.4562 0-0.7893-0.1574-0.9961-0.4707-0.2068-0.3163-0.3086-0.7756-0.3086-1.381 0-0.6144 0.1327-1.089 0.4004-1.424 0.2677-0.3346 0.6425-0.502 1.123-0.502zm-53.28 0.03125c0.4471 0 0.7719 0.1583 0.9726 0.4746 0.2008 0.3133 0.3008 0.7745 0.3008 1.383 0 0.6661-0.1356 1.155-0.4062 1.469-0.2677 0.3102-0.6388 0.4648-1.113 0.4648-0.222 0-0.4212-0.01992-0.5977-0.0625-0.1734-0.04258-0.3817-0.119-0.625-0.2285v-2.92c0.219-0.1703 0.4554-0.3096 0.7109-0.416 0.2555-0.1095 0.5084-0.1641 0.7578-0.1641zm-126.2 1.748v1.418c-0.2129 0.1642-0.444 0.3072-0.6934 0.4258-0.2494 0.1156-0.5251 0.1719-0.8262 0.1719-0.3619 0-0.6322-0.07275-0.8086-0.2188-0.1764-0.149-0.2637-0.3682-0.2637-0.6602 0-0.2585 0.07644-0.4614 0.2285-0.6074 0.1521-0.149 0.3513-0.2582 0.5977-0.3281 0.2068-0.05779 0.4851-0.1024 0.8379-0.1328 0.3559-0.03042 0.6662-0.05315 0.9277-0.06836z" style="fill:#000000"/>
 <path d="m4.006 24.13-0.5-0.6 1.584-1.63z" style="fill:#000000"/>
 <path d="m11.45 24.13-0.5-0.6 1.289-0.8416z" style="fill:#000000"/>
 <path d="m9.619 10.88-0.5-0.6-0.4002 0.9544z" style="fill:#000000"/>
 <path d="m117.5 10.88-0.5-0.6-0.3443 0.4539z" style="fill:#000000"/>
 <path d="m255.2 10.88-0.5-0.6-0.2406 0.9467z" style="fill:#000000"/>
 <path d="m143.4 10.88-0.5-0.6-1.42 1.098z" style="fill:#000000"/>
 <path d="m2.305 10.88-0.5-0.6-0.5862 1.267z" style="fill:#000000"/>
 <path d="m126.7 10.88-0.5-0.6-0.9487 0.8295z" style="fill:#000000"/>
 <path d="m264.3 10.88-0.5-0.6-0.9261 0.7966z" style="fill:#000000"/>
 <path d="m174.1 24.13-0.5-0.6 1.677-0.5051z" style="fill:#000000"/>
 <path d="m150.3 10c-0.9136 0-1.758 0.1544-2.535 0.4629-0.7712 0.3085-1.419 0.7526-1.941 1.334-0.5458 0.611-0.9594 1.347-1.244 2.207-0.2848 0.8543-0.4277 1.821-0.4277 2.9 0 1.097 0.143 2.073 0.4277 2.928 0.2907 0.8543 0.7024 1.577 1.236 2.164 0.5339 0.5873 1.18 1.033 1.939 1.342 0.7653 0.3085 1.614 0.4629 2.545 0.4629 0.9551 0 1.803-0.1506 2.545-0.4531 0.7475-0.3025 1.394-0.7524 1.939-1.352 0.528-0.5754 0.9378-1.294 1.229-2.154 0.2966-0.8661 0.4453-1.846 0.4453-2.938s-0.1449-2.066-0.4355-2.926c-0.2848-0.8602-0.6984-1.588-1.238-2.182-0.528-0.5754-1.17-1.018-1.93-1.326-0.7534-0.3144-1.606-0.4707-2.555-0.4707zm14.34 0c-0.9136 0-1.758 0.1544-2.535 0.4629-0.7712 0.3085-1.417 0.7526-1.939 1.334-0.5458 0.611-0.9613 1.347-1.246 2.207-0.2848 0.8543-0.4277 1.821-0.4277 2.9 0 1.097 0.143 2.073 0.4277 2.928 0.2907 0.8543 0.7024 1.577 1.236 2.164 0.5339 0.5873 1.18 1.033 1.939 1.342 0.7653 0.3085 1.614 0.4629 2.545 0.4629 0.9551 0 1.805-0.1506 2.547-0.4531 0.7475-0.3025 1.394-0.7524 1.939-1.352 0.528-0.5754 0.9359-1.294 1.227-2.154 0.2966-0.8661 0.4453-1.846 0.4453-2.938s-0.1449-2.066-0.4356-2.926c-0.2848-0.8602-0.6965-1.588-1.236-2.182-0.528-0.5754-1.172-1.018-1.932-1.326-0.7534-0.3144-1.606-0.4707-2.555-0.4707zm-129.7 0.03516c-1.442 0-2.631 0.3565-3.568 1.068-0.9373 0.7059-1.406 1.613-1.406 2.723 0 0.967 0.2821 1.752 0.8457 2.357 0.5695 0.5992 1.443 1.024 2.617 1.273 0.5814 0.1186 1.128 0.2158 1.645 0.293 0.522 0.07712 1.006 0.1763 1.451 0.2949 0.5873 0.1542 1.024 0.3696 1.309 0.6484 0.2907 0.2788 0.4355 0.7115 0.4355 1.299 0 0.6822-0.305 1.229-0.916 1.639-0.6051 0.4093-1.453 0.6133-2.545 0.6133-0.7712 0-1.597-0.1506-2.475-0.4531s-1.652-0.7334-2.322-1.291h-0.125v2.207c0.789 0.35 1.563 0.613 2.322 0.791 0.7653 0.178 1.627 0.2676 2.582 0.2676 0.8898 0 1.649-0.1067 2.277-0.3203 0.6348-0.2136 1.189-0.509 1.664-0.8887 0.4331-0.35 0.7686-0.779 1.006-1.283 0.2432-0.5042 0.3652-1.013 0.3652-1.529 0-0.9492-0.2497-1.689-0.748-2.217s-1.24-0.9226-2.225-1.184c-0.4864-0.1246-1.079-0.2446-1.779-0.3633-0.7-0.1186-1.239-0.2197-1.619-0.3027-0.7178-0.1661-1.219-0.4063-1.504-0.7207-0.2848-0.3144-0.4277-0.7471-0.4277-1.299 0-0.617 0.284-1.122 0.8535-1.514 0.5754-0.3915 1.336-0.5879 2.279-0.5879 0.8602 0 1.699 0.143 2.518 0.4277 0.8246 0.2788 1.49 0.6315 1.994 1.059h0.123v-2.082c-0.5992-0.261-1.287-0.4802-2.064-0.6582-0.7771-0.178-1.631-0.2676-2.562-0.2676zm-34.97 0.2402 3.506 13.25h1.939l2.723-11 2.785 11h1.984l3.445-13.25h-1.727l-2.768 11.12-2.768-11.12h-1.789l-2.74 11.02-2.785-11.02zm18.97 0v13.25h8.73v-1.566h-6.967v-4.92h6.967v-1.566h-6.967v-3.631h6.967v-1.566zm22.21 0v1.566h4.734v11.68h1.762v-11.68h4.734v-1.566zm17.89 0 4.822 13.25h2.35l4.822-13.25h-1.797l-4.156 11.66-4.154-11.66zm16.75 0-4.822 13.25h1.789l1.299-3.693h5.73l1.299 3.693h1.877l-4.822-13.25zm9.184 0v13.25h8.383v-1.566h-6.621v-11.68zm10.14 0v13.25h8.383v-1.566h-6.621v-11.68zm10.14 0v13.25h8.729v-1.566h-6.967v-4.92h6.967v-1.566h-6.967v-3.631h6.967v-1.566zm9.807 0 4.68 7.627v5.623h1.762v-5.811l4.662-7.439h-1.877l-3.656 5.928-3.623-5.928zm19.34 0v13.25h1.762v-6.381h5.758v-1.564h-5.758v-3.738h6.701v-1.566zm39.15 0v13.25h3.346c1.216 0 2.194-0.08194 2.936-0.248 0.7475-0.1661 1.424-0.4368 2.029-0.8105 0.872-0.5398 1.57-1.299 2.092-2.277 0.528-0.9788 0.791-2.071 0.791-3.275 0-1.287-0.2516-2.399-0.7559-3.336-0.5042-0.9373-1.208-1.688-2.109-2.252-0.528-0.3263-1.174-0.5817-1.939-0.7656-0.7593-0.1898-1.785-0.2852-3.078-0.2852zm20.47 0v13.25h1.762v-4.938h1.762c0.9492 0 1.735-0.1144 2.357-0.3398 0.6229-0.2314 1.162-0.5745 1.619-1.031 0.3678-0.3678 0.6538-0.8005 0.8555-1.299 0.2076-0.5042 0.3106-1.051 0.3106-1.639 0-0.7712-0.1392-1.408-0.418-1.912-0.2729-0.5042-0.6618-0.9255-1.166-1.264-0.4271-0.2848-0.9151-0.4925-1.467-0.623-0.5517-0.1364-1.227-0.2051-2.021-0.2051zm13.85 0-4.824 13.25h1.789l1.299-3.693h5.732l1.299 3.693h1.877l-4.822-13.25zm9.184 0v13.25h1.646v-11.85l6.281 11.85h2.18v-13.25h-1.646v10.82l-5.73-10.82zm11.85 0v1.566h4.734v11.68h1.762v-11.68h4.734v-1.566zm13.03 0v13.25h1.762v-5.268h2.484l4.43 5.268h2.287l-4.982-5.793c0.8424-0.3263 1.504-0.8085 1.984-1.449 0.4805-0.6466 0.7207-1.449 0.7207-2.404 0-0.7059-0.1373-1.287-0.4102-1.744-0.267-0.4627-0.6406-0.8439-1.121-1.146-0.4271-0.267-0.9075-0.4519-1.441-0.5527-0.5339-0.1068-1.201-0.1602-2.002-0.1602zm10.77 0 4.682 7.627v5.623h1.762v-5.811l4.662-7.439h-1.877l-3.658 5.928-3.621-5.928zm-102.4 1.246c1.335 0 2.387 0.4689 3.158 1.406 0.7712 0.9314 1.156 2.256 1.156 3.977 0 1.738-0.3908 3.071-1.174 3.996-0.7771 0.9195-1.824 1.379-3.141 1.379s-2.367-0.4594-3.15-1.379c-0.7831-0.9254-1.174-2.258-1.174-3.996 0-1.72 0.3812-3.045 1.146-3.977 0.7712-0.9373 1.831-1.406 3.178-1.406zm14.34 0c1.335 0 2.387 0.4689 3.158 1.406 0.7712 0.9314 1.158 2.256 1.158 3.977 0 1.738-0.3927 3.071-1.176 3.996-0.7771 0.9195-1.824 1.379-3.141 1.379s-2.367-0.4594-3.15-1.379c-0.7831-0.9254-1.174-2.258-1.174-3.996 0-1.72 0.3832-3.045 1.148-3.977 0.7712-0.9373 1.829-1.406 3.176-1.406zm10.71 0.2676h1.654c0.8187 0 1.522 0.05909 2.109 0.1777 0.5873 0.1127 1.142 0.3167 1.664 0.6133 0.7178 0.4093 1.257 0.9698 1.619 1.682 0.3619 0.7119 0.543 1.587 0.543 2.625 0 1.032-0.1658 1.894-0.498 2.582-0.3263 0.6881-0.8181 1.243-1.477 1.664-0.528 0.3381-1.109 0.5688-1.744 0.6934-0.6288 0.1246-1.368 0.1875-2.217 0.1875h-1.654zm20.47 0h1.744c0.5576 0 1.017 0.04195 1.379 0.125 0.3678 0.07712 0.6938 0.2067 0.9785 0.3906 0.3263 0.2136 0.5703 0.49 0.7305 0.8281s0.2402 0.7346 0.2402 1.191c0 0.3915-0.0591 0.7442-0.1777 1.059-0.1127 0.3144-0.3091 0.6156-0.5879 0.9004-0.2788 0.2788-0.641 0.4828-1.086 0.6133-0.4449 0.1246-1.022 0.1875-1.734 0.1875h-1.486zm47.91 0h2.074c0.4746 0 0.8863 0.03428 1.236 0.1055 0.35 0.06526 0.6531 0.1854 0.9082 0.3574 0.3085 0.2017 0.5277 0.4495 0.6582 0.7461 0.1364 0.2907 0.2051 0.6262 0.2051 1.006 0 0.4983-0.0648 0.9101-0.1953 1.236-0.1246 0.3203-0.3209 0.6063-0.5879 0.8555-0.2907 0.267-0.6433 0.4499-1.059 0.5508-0.4153 0.09492-0.9014 0.1426-1.459 0.1426h-1.781zm-166.8 0.02539 2.322 6.506h-4.654zm132.1 0 2.324 6.506h-4.654zm-69.73 18.81c-0.5688 0-1.006 0.1628-1.307 0.4883-0.3011 0.3224-0.4512 0.7854-0.4512 1.391v0.1699h-0.5781v0.7207h0.5781v4.375h0.8574v-4.375h1.52v-0.7207h-1.547v-0.1738c0-0.4258 0.0819-0.7197 0.2461-0.8809 0.1673-0.1642 0.4367-0.2461 0.8047-0.2461 0.1156 0 0.2483 0.01451 0.4004 0.04492 0.1521 0.02737 0.2748 0.05466 0.3691 0.08203h0.0469v-0.7852c-0.1278-0.02433-0.2707-0.04425-0.4258-0.0625-0.1521-0.01825-0.3221-0.02734-0.5137-0.02734zm-110.8 0.04492v2.209c-0.2281-0.1186-0.4455-0.205-0.6523-0.2598-0.2068-0.05779-0.4452-0.08789-0.7129-0.08789-0.295 0-0.5806 0.06193-0.8574 0.1836-0.2737 0.1217-0.5139 0.2981-0.7207 0.5293-0.2099 0.2372-0.3772 0.5237-0.502 0.8613-0.1217 0.3376-0.1816 0.7224-0.1816 1.154 0 0.8304 0.1773 1.479 0.5332 1.947 0.3589 0.4684 0.8429 0.7031 1.451 0.7031 0.3133 0 0.6034-0.05911 0.8711-0.1777 0.2677-0.1186 0.5251-0.2832 0.7715-0.4961v0.5332h0.8574v-7.1zm39.91 0v2.209c-0.2281-0.1186-0.4455-0.205-0.6523-0.2598-0.2068-0.05779-0.4433-0.08789-0.7109-0.08789-0.295 0-0.5806 0.06193-0.8574 0.1836-0.2737 0.1217-0.5139 0.2981-0.7207 0.5293-0.2099 0.2372-0.3772 0.5237-0.502 0.8613-0.1217 0.3376-0.1836 0.7224-0.1836 1.154 0 0.8304 0.1793 1.479 0.5352 1.947 0.3589 0.4684 0.8429 0.7031 1.451 0.7031 0.3133 0 0.6034-0.05911 0.8711-0.1777 0.2677-0.1186 0.5232-0.2832 0.7695-0.4961v0.5332h0.8594v-7.1zm20.64 0v2.209c-0.2281-0.1186-0.4455-0.205-0.6523-0.2598-0.2068-0.05779-0.4433-0.08789-0.7109-0.08789-0.295 0-0.5806 0.06193-0.8574 0.1836-0.2737 0.1217-0.5139 0.2981-0.7207 0.5293-0.2099 0.2372-0.3772 0.5237-0.502 0.8613-0.1217 0.3376-0.1836 0.7224-0.1836 1.154 0 0.8304 0.1773 1.479 0.5332 1.947 0.3589 0.4684 0.8429 0.7031 1.451 0.7031 0.3133 0 0.6034-0.05911 0.8711-0.1777 0.2677-0.1186 0.5251-0.2832 0.7715-0.4961v0.5332h0.8574v-7.1zm106.2 0v7.1h0.8594v-3.805c0.2342-0.1795 0.4789-0.3278 0.7344-0.4434s0.5002-0.1738 0.7344-0.1738c0.2281 0 0.4137 0.03183 0.5566 0.0957 0.143 0.06083 0.2521 0.1555 0.3281 0.2832 0.073 0.1156 0.123 0.2775 0.1504 0.4844 0.0274 0.2038 0.041 0.422 0.041 0.6562v2.902h0.8574v-3.309c0-0.6235-0.1446-1.1-0.4336-1.432s-0.7073-0.498-1.258-0.498c-0.3011 0-0.595 0.0628-0.8809 0.1875s-0.5624 0.2975-0.8301 0.5195v-2.568zm5.914 0v7.1h0.8027l0.0547-0.2383c0.2099 0.1156 0.4227 0.2085 0.6387 0.2754 0.216 0.06996 0.4689 0.1035 0.7578 0.1035 0.3102 0 0.595-0.05911 0.8535-0.1777 0.2585-0.1217 0.495-0.3027 0.7109-0.543 0.2038-0.2312 0.3658-0.5168 0.4844-0.8574 0.1217-0.3407 0.1816-0.7246 0.1816-1.15 0-0.8425-0.1756-1.495-0.5254-1.957-0.3467-0.4623-0.8196-0.6934-1.422-0.6934-0.3376 0-0.6434 0.06366-0.9141 0.1914-0.2707 0.1247-0.5253 0.2867-0.7656 0.4844v-2.537zm56.82 0v2.209c-0.2281-0.1186-0.4455-0.205-0.6524-0.2598-0.2068-0.05779-0.4433-0.08789-0.7109-0.08789-0.295 0-0.5806 0.06193-0.8574 0.1836-0.2737 0.1217-0.5139 0.2981-0.7207 0.5293-0.2099 0.2372-0.3772 0.5237-0.502 0.8613-0.1217 0.3376-0.1836 0.7224-0.1836 1.154 0 0.8304 0.1793 1.479 0.5352 1.947 0.3589 0.4684 0.8409 0.7031 1.449 0.7031 0.3133 0 0.6054-0.05911 0.873-0.1777 0.2677-0.1186 0.5232-0.2832 0.7695-0.4961v0.5332h0.8594v-7.1zm-101.4 0.1641c-0.4684 0-0.9004 0.08012-1.299 0.2383-0.3954 0.1582-0.7284 0.3855-0.9961 0.6836-0.2798 0.3133-0.4927 0.6898-0.6387 1.131-0.146 0.438-0.2187 0.9347-0.2187 1.488 0 0.5627 0.0728 1.062 0.2187 1.5 0.149 0.438 0.361 0.8083 0.6348 1.109s0.6048 0.5313 0.9941 0.6895c0.3924 0.1582 0.8272 0.2363 1.305 0.2363 0.4897 0 0.9245-0.0773 1.305-0.2324 0.3832-0.1551 0.7163-0.3862 0.9961-0.6934 0.2707-0.295 0.4799-0.6625 0.6289-1.104 0.1521-0.4441 0.2285-0.9462 0.2285-1.506s-0.0756-1.061-0.2246-1.502c-0.146-0.441-0.356-0.813-0.6328-1.117-0.2707-0.295-0.6009-0.5215-0.9902-0.6797-0.3863-0.1612-0.8239-0.2422-1.311-0.2422zm-59.37 0.01953c-0.7391 0-1.348 0.1819-1.828 0.5469-0.4806 0.3619-0.7227 0.8277-0.7227 1.396 0 0.4958 0.1446 0.8987 0.4336 1.209 0.292 0.3072 0.7396 0.5246 1.342 0.6523 0.2981 0.06083 0.5791 0.1109 0.8438 0.1504 0.2677 0.03954 0.516 0.08956 0.7441 0.1504 0.3011 0.07908 0.5239 0.1891 0.6699 0.332 0.149 0.143 0.2246 0.3649 0.2246 0.666 0 0.3498-0.1574 0.63-0.4707 0.8398-0.3102 0.2099-0.745 0.3145-1.305 0.3145-0.3954 0-0.8174-0.0773-1.268-0.2324-0.4502-0.1551-0.8477-0.3742-1.191-0.6602h-0.06445v1.131c0.4045 0.1795 0.8021 0.315 1.191 0.4062 0.3924 0.09125 0.8345 0.1367 1.324 0.1367 0.4562 0 0.8456-0.05456 1.168-0.1641 0.3254-0.1095 0.6082-0.2624 0.8516-0.457 0.222-0.1795 0.394-0.3977 0.5156-0.6562 0.1247-0.2585 0.1875-0.5205 0.1875-0.7852 0-0.4867-0.1273-0.866-0.3828-1.137-0.2555-0.2707-0.6357-0.4716-1.141-0.6055-0.2494-0.06387-0.5532-0.1267-0.9121-0.1875-0.3589-0.06083-0.6354-0.1117-0.8301-0.1543-0.368-0.08516-0.6255-0.2099-0.7715-0.3711s-0.2188-0.3831-0.2188-0.666c0-0.3163 0.1455-0.5746 0.4375-0.7754 0.295-0.2007 0.6844-0.3008 1.168-0.3008 0.441 0 0.8713 0.07275 1.291 0.2188 0.4228 0.143 0.763 0.324 1.021 0.543h0.06445v-1.068c-0.3072-0.1338-0.6601-0.2447-1.059-0.3359-0.3984-0.09125-0.8369-0.1367-1.314-0.1367zm-74.63 0.07617v0.8906h0.9668v-0.8906zm8.395 0v0.8906h0.9668v-0.8906zm85.32 0v0.8906h0.9668v-0.8906zm70.52 0v0.8906h0.9668v-0.8906zm37.96 0v0.8906h0.9668v-0.8906zm-222.8 0.04688v6.793h0.9043v-2.533h0.9023c0.4867 0 0.8896-0.0563 1.209-0.1719 0.3194-0.1186 0.5959-0.2951 0.8301-0.5293 0.1886-0.1886 0.3341-0.4105 0.4375-0.666 0.1065-0.2585 0.1602-0.5387 0.1602-0.8398 0-0.3954-0.07189-0.7219-0.2148-0.9805-0.1399-0.2585-0.3391-0.4751-0.5977-0.6484-0.219-0.146-0.4691-0.2534-0.752-0.3203-0.2829-0.06996-0.6276-0.1035-1.035-0.1035zm46.76 0v6.793h0.9023v-3.271h2.951v-0.8027h-2.951v-1.916h3.436v-0.8027zm125.7 0v6.793h0.8437v-6.078l3.221 6.078h1.117v-6.793h-0.8438v5.547l-2.938-5.547zm62.29 0v6.793h0.8438v-6.078l3.221 6.078h1.119v-6.793h-0.8457v5.547l-2.938-5.547zm-80.06 0.6387c0.6844 0 1.224 0.2401 1.619 0.7207 0.3954 0.4775 0.5938 1.157 0.5938 2.039 0 0.8912-0.202 1.574-0.6035 2.049-0.3984 0.4714-0.9341 0.707-1.609 0.707s-1.214-0.2356-1.615-0.707c-0.4015-0.4745-0.6035-1.158-0.6035-2.049 0-0.8821 0.1975-1.562 0.5898-2.039 0.3954-0.4806 0.9385-0.7207 1.629-0.7207zm-153.8 0.1367h0.8926c0.2859 0 0.5215 0.01992 0.707 0.0625 0.1886 0.03954 0.356 0.1069 0.502 0.2012 0.1673 0.1095 0.2929 0.2505 0.375 0.4238 0.08212 0.1734 0.123 0.3771 0.123 0.6113 0 0.2007-0.03097 0.3818-0.0918 0.543-0.05779 0.1612-0.1578 0.3149-0.3008 0.4609-0.143 0.143-0.3285 0.2495-0.5566 0.3164-0.2281 0.06387-0.5237 0.0957-0.8887 0.0957h-0.7617zm10.66 0.7793c-0.7209 0-1.293 0.243-1.719 0.7266-0.4228 0.4806-0.6348 1.134-0.6348 1.965 0 0.8304 0.212 1.486 0.6348 1.967 0.4258 0.4806 0.9979 0.7207 1.719 0.7207 0.7148 1e-6 1.285-0.2401 1.711-0.7207 0.4258-0.4806 0.6387-1.136 0.6387-1.967 0-0.8304-0.2129-1.484-0.6387-1.965-0.4258-0.4836-0.9962-0.7266-1.711-0.7266zm22.68 0c-0.3011 0-0.595 0.0628-0.8809 0.1875s-0.5624 0.2975-0.8301 0.5195v-0.5645h-0.8574v5.096h0.8574v-3.805c0.2342-0.1795 0.4789-0.3278 0.7344-0.4434s0.5002-0.1738 0.7344-0.1738c0.2281 0 0.4137 0.03183 0.5566 0.0957 0.143 0.06083 0.2521 0.1555 0.3281 0.2832 0.073 0.1156 0.123 0.2775 0.1504 0.4844 0.02737 0.2038 0.04102 0.422 0.04102 0.6562v2.902h0.8574v-3.309c0-0.6235-0.1427-1.1-0.4316-1.432-0.289-0.3315-0.7092-0.498-1.26-0.498zm5.246 0c-0.2798 0-0.5609 0.06193-0.8438 0.1836-0.2829 0.1186-0.523 0.286-0.7207 0.502-0.2129 0.2312-0.3812 0.5049-0.5059 0.8242-0.1217 0.3163-0.1836 0.6948-0.1836 1.133 0 0.7999 0.1773 1.42 0.5332 1.861 0.3589 0.438 0.8429 0.6562 1.451 0.6562 0.365 0 0.6662-0.05002 0.9004-0.1504 0.2372-0.1034 0.4837-0.258 0.7422-0.4648v0.4648c0 0.2068-0.02274 0.3933-0.06836 0.5605-0.04562 0.1673-0.1221 0.3111-0.2285 0.4297-0.1065 0.1247-0.2537 0.2211-0.4453 0.291s-0.4346 0.1055-0.7266 0.1055c-0.3042 0-0.608-0.04092-0.9121-0.123-0.3042-0.07908-0.5261-0.1464-0.666-0.2012h-0.04688v0.877c0.2494 0.06996 0.5023 0.1237 0.7578 0.1602 0.2585 0.03954 0.5242 0.05859 0.7949 0.05859 0.8151 0 1.418-0.2029 1.811-0.6074 0.3924-0.4045 0.5879-1.039 0.5879-1.902v-4.516h-0.8027l-0.05469 0.2188c-0.222-0.1217-0.4321-0.2117-0.6328-0.2695-0.1977-0.06083-0.4452-0.0918-0.7402-0.0918zm14.34 0c-0.7209 0-1.293 0.243-1.719 0.7266-0.4228 0.4806-0.6348 1.134-0.6348 1.965 0 0.8304 0.212 1.486 0.6348 1.967 0.4258 0.4806 0.9979 0.7207 1.719 0.7207 0.7148 1e-6 1.285-0.2401 1.711-0.7207 0.4258-0.4806 0.6387-1.136 0.6387-1.967 0-0.8304-0.2129-1.484-0.6387-1.965-0.4258-0.4836-0.9962-0.7266-1.711-0.7266zm5.676 0c-0.7209 0-1.293 0.243-1.719 0.7266-0.4228 0.4806-0.6348 1.134-0.6348 1.965 0 0.8304 0.212 1.486 0.6348 1.967 0.4258 0.4806 0.9979 0.7207 1.719 0.7207 0.7148 1e-6 1.285-0.2401 1.711-0.7207 0.4258-0.4806 0.6387-1.136 0.6387-1.967 0-0.8304-0.2129-1.484-0.6387-1.965-0.4258-0.4836-0.9962-0.7266-1.711-0.7266zm20.98 0c-0.3011 0-0.595 0.0628-0.8809 0.1875s-0.5624 0.2975-0.8301 0.5195v-0.5645h-0.8574v5.096h0.8574v-3.805c0.2342-0.1795 0.4789-0.3278 0.7344-0.4434s0.5002-0.1738 0.7344-0.1738c0.2281 0 0.4137 0.03183 0.5566 0.0957 0.143 0.06083 0.2521 0.1555 0.3281 0.2832 0.073 0.1156 0.123 0.2775 0.1504 0.4844 0.02738 0.2038 0.04102 0.422 0.04102 0.6562v2.902h0.8574v-3.309c0-0.6235-0.1427-1.1-0.4316-1.432-0.2889-0.3315-0.7092-0.498-1.26-0.498zm20.96 0c-0.7422 0-1.343 0.2447-1.799 0.7344-0.4532 0.4897-0.6797 1.151-0.6797 1.984 0 0.8425 0.2384 1.494 0.7129 1.953 0.4745 0.4562 1.135 0.6855 1.98 0.6855 0.3315 0 0.6462-0.04288 0.9473-0.125s0.5978-0.183 0.8867-0.3047v-0.9355h-0.0469c-0.149 0.1338-0.3991 0.2702-0.752 0.4102-0.3498 0.1369-0.6982 0.2051-1.045 0.2051-0.2616 0-0.5017-0.03638-0.7207-0.1094-0.216-0.073-0.4043-0.1821-0.5625-0.3281-0.1642-0.149-0.2924-0.3392-0.3867-0.5703-0.0943-0.2342-0.1426-0.507-0.1426-0.8203h3.756v-0.4668c0-0.7391-0.1864-1.307-0.5606-1.709-0.3711-0.4015-0.9005-0.6035-1.588-0.6035zm22.54 0c-0.7422 0-1.341 0.2447-1.797 0.7344-0.4532 0.4897-0.6797 1.151-0.6797 1.984 0 0.8425 0.2364 1.494 0.7109 1.953 0.4745 0.4562 1.135 0.6855 1.98 0.6855 0.3315 0 0.6481-0.04288 0.9492-0.125s0.5958-0.183 0.8848-0.3047v-0.9355h-0.0449c-0.149 0.1338-0.4011 0.2702-0.7539 0.4102-0.3498 0.1369-0.6982 0.2051-1.045 0.2051-0.2616 0-0.5017-0.03638-0.7207-0.1094-0.216-0.073-0.4024-0.1821-0.5605-0.3281-0.1642-0.149-0.2944-0.3392-0.3887-0.5703-0.0943-0.2342-0.1406-0.507-0.1406-0.8203h3.754v-0.4668c0-0.7391-0.1864-1.307-0.5606-1.709-0.3711-0.4015-0.9005-0.6035-1.588-0.6035zm16.89 0c-0.7209 0-1.295 0.243-1.721 0.7266-0.4228 0.4806-0.6348 1.134-0.6348 1.965 0 0.8304 0.212 1.486 0.6348 1.967 0.4258 0.4806 0.9998 0.7207 1.721 0.7207 0.7148 1e-6 1.283-0.2401 1.709-0.7207s0.6406-1.136 0.6406-1.967c0-0.8304-0.2148-1.484-0.6406-1.965-0.4258-0.4836-0.9942-0.7266-1.709-0.7266zm40.62 0c-0.7421 0-1.341 0.2447-1.797 0.7344-0.4532 0.4897-0.6797 1.151-0.6797 1.984 0 0.8425 0.2364 1.494 0.7109 1.953 0.4745 0.4562 1.135 0.6855 1.98 0.6855 0.3315 0 0.6481-0.04288 0.9492-0.125s0.5958-0.183 0.8848-0.3047v-0.9355h-0.0449c-0.149 0.1338-0.4011 0.2702-0.7539 0.4102-0.3498 0.1369-0.6982 0.2051-1.045 0.2051-0.2616 0-0.5017-0.03638-0.7207-0.1094-0.216-0.073-0.4024-0.1821-0.5606-0.3281-0.1642-0.149-0.2944-0.3392-0.3887-0.5703-0.0943-0.2342-0.1406-0.507-0.1406-0.8203h3.756v-0.4668c0-0.7391-0.1884-1.307-0.5625-1.709-0.3711-0.4015-0.9005-0.6035-1.588-0.6035zm7.926 0c-0.2798 0-0.5609 0.06193-0.8438 0.1836-0.2829 0.1186-0.523 0.286-0.7207 0.502-0.2129 0.2312-0.3831 0.5049-0.5078 0.8242-0.1217 0.3163-0.1816 0.6948-0.1816 1.133 0 0.7999 0.1773 1.42 0.5332 1.861 0.3589 0.438 0.8429 0.6562 1.451 0.6562 0.365 0 0.6642-0.05002 0.8984-0.1504 0.2372-0.1034 0.4856-0.258 0.7441-0.4648v0.4648c0 0.2068-0.0227 0.3933-0.0684 0.5605-0.0456 0.1673-0.1221 0.3111-0.2285 0.4297-0.1065 0.1247-0.2556 0.2211-0.4473 0.291s-0.4326 0.1055-0.7246 0.1055c-0.3042 0-0.608-0.04092-0.9121-0.123-0.3042-0.07908-0.5261-0.1464-0.666-0.2012h-0.0469v0.877c0.2494 0.06996 0.5023 0.1237 0.7578 0.1602 0.2585 0.03954 0.5223 0.05859 0.793 0.05859 0.8152 0 1.42-0.2029 1.812-0.6074 0.3924-0.4045 0.5879-1.039 0.5879-1.902v-4.516h-0.8027l-0.0547 0.2188c-0.222-0.1217-0.434-0.2117-0.6348-0.2695-0.1977-0.06083-0.4432-0.0918-0.7383-0.0918zm17.65 0c-0.7208 0-1.293 0.243-1.719 0.7266-0.4228 0.4806-0.6348 1.134-0.6348 1.965 0 0.8304 0.212 1.486 0.6348 1.967 0.4258 0.4806 0.9979 0.7207 1.719 0.7207 0.7148 1e-6 1.285-0.2401 1.711-0.7207s0.6387-1.136 0.6387-1.967c0-0.8304-0.2128-1.484-0.6387-1.965-0.4258-0.4836-0.9962-0.7266-1.711-0.7266zm20.98 0c-0.3011 0-0.595 0.0628-0.8809 0.1875s-0.5624 0.2975-0.8301 0.5195v-0.5645h-0.8574v5.096h0.8574v-3.805c0.2342-0.1795 0.4789-0.3278 0.7344-0.4434s0.5002-0.1738 0.7344-0.1738c0.2281 0 0.4137 0.03183 0.5566 0.0957 0.143 0.06083 0.2521 0.1555 0.3281 0.2832 0.073 0.1156 0.123 0.2775 0.1504 0.4844 0.0274 0.2038 0.041 0.422 0.041 0.6562v2.902h0.8574v-3.309c0-0.6235-0.1427-1.1-0.4316-1.432s-0.7092-0.498-1.26-0.498zm15.73 0c-0.7421 0-1.341 0.2447-1.797 0.7344-0.4532 0.4897-0.6797 1.151-0.6797 1.984 0 0.8425 0.2364 1.494 0.7109 1.953 0.4745 0.4562 1.135 0.6855 1.98 0.6855 0.3315 0 0.6481-0.04288 0.9492-0.125s0.5958-0.183 0.8848-0.3047v-0.9355h-0.0449c-0.149 0.1338-0.4011 0.2702-0.7539 0.4102-0.3498 0.1369-0.6962 0.2051-1.043 0.2051-0.2616 0-0.5037-0.03638-0.7226-0.1094-0.216-0.073-0.4024-0.1821-0.5606-0.3281-0.1642-0.149-0.2924-0.3392-0.3867-0.5703-0.0943-0.2342-0.1426-0.507-0.1426-0.8203h3.756v-0.4668c0-0.7391-0.1884-1.307-0.5625-1.709-0.3711-0.4015-0.9005-0.6035-1.588-0.6035zm5.566 0c-0.7422 0-1.341 0.2447-1.797 0.7344-0.4532 0.4897-0.6797 1.151-0.6797 1.984 0 0.8425 0.2365 1.494 0.7109 1.953 0.4745 0.4562 1.135 0.6855 1.98 0.6855 0.3315 0 0.6481-0.04288 0.9492-0.125s0.5958-0.183 0.8848-0.3047v-0.9355h-0.0449c-0.149 0.1338-0.4011 0.2702-0.7539 0.4102-0.3498 0.1369-0.6982 0.2051-1.045 0.2051-0.2616 0-0.5017-0.03638-0.7207-0.1094-0.216-0.073-0.4024-0.1821-0.5605-0.3281-0.1642-0.149-0.2944-0.3392-0.3887-0.5703-0.0943-0.2342-0.1406-0.507-0.1406-0.8203h3.754v-0.4668c0-0.7391-0.1864-1.307-0.5605-1.709-0.3711-0.4015-0.9005-0.6035-1.588-0.6035zm-175.3 0.01953c-0.3072 0-0.6192 0.02728-0.9355 0.08203s-0.5573 0.1048-0.7246 0.1504v0.8711h0.04492c0.295-0.1125 0.5806-0.1981 0.8574-0.2559 0.2768-0.06083 0.5288-0.0918 0.7539-0.0918 0.1855 0 0.3629 0.01278 0.5332 0.03711s0.3158 0.07067 0.4375 0.1406c0.1277 0.073 0.2261 0.175 0.293 0.3027 0.06996 0.1277 0.1055 0.2878 0.1055 0.4824v0.1328c-0.4988 0.02433-0.9674 0.06071-1.402 0.1094-0.4349 0.04866-0.8069 0.1405-1.117 0.2773-0.3072 0.1369-0.5437 0.3261-0.7109 0.5664-0.1642 0.2372-0.2461 0.5493-0.2461 0.9355 0 0.4714 0.1592 0.8599 0.4785 1.164 0.3194 0.3042 0.7087 0.4551 1.168 0.4551 0.2494 0 0.4668-0.0236 0.6523-0.07226 0.1855-0.04562 0.3492-0.1039 0.4922-0.1738 0.1217-0.05475 0.2473-0.1275 0.375-0.2188 0.1308-0.09429 0.2345-0.167 0.3105-0.2188v0.543h0.8516v-3.459c0-0.3285-0.05002-0.6041-0.1504-0.8262s-0.2459-0.4031-0.4375-0.543c-0.1947-0.143-0.4257-0.243-0.6934-0.3008-0.2646-0.06083-0.5766-0.08984-0.9355-0.08984zm55.13 0c-0.3254 0-0.6202 0.04179-0.8848 0.127-0.2616 0.08212-0.4781 0.1949-0.6484 0.3379-0.1764 0.146-0.3083 0.3106-0.3965 0.4961-0.0852 0.1855-0.127 0.3839-0.127 0.5938 0 0.3346 0.0918 0.6184 0.2773 0.8496 0.1886 0.2281 0.506 0.4009 0.9531 0.5195 0.1612 0.04258 0.3405 0.08264 0.5352 0.1191 0.1977 0.0365 0.3569 0.06833 0.4785 0.0957 0.3285 0.073 0.5504 0.1603 0.666 0.2637s0.1738 0.2563 0.1738 0.457c0 0.2616-0.1074 0.4526-0.3203 0.5742s-0.5076 0.1816-0.8848 0.1816c-0.3042 0-0.6216-0.05911-0.9531-0.1777-0.3315-0.1217-0.6336-0.2845-0.9043-0.4883h-0.0449v0.9629c0.2129 0.1065 0.4758 0.2056 0.7891 0.2969 0.3163 0.08821 0.6639 0.1328 1.041 0.1328 0.6661 0 1.191-0.1492 1.574-0.4473 0.3863-0.2981 0.5781-0.6792 0.5781-1.145 0-0.3711-0.1083-0.6695-0.3242-0.8945-0.216-0.222-0.5215-0.3795-0.9199-0.4707-0.1308-0.03042-0.2964-0.06311-0.4941-0.09961-0.1947-0.0365-0.3711-0.07288-0.5293-0.1094-0.2859-0.06692-0.4914-0.1533-0.6191-0.2598-0.1308-0.1065-0.1973-0.2647-0.1973-0.4746 0-0.2372 0.1083-0.4165 0.3242-0.5352 0.216-0.1217 0.4797-0.1816 0.793-0.1816 0.3011 0 0.6086 0.05543 0.9219 0.168 0.3133 0.1095 0.5798 0.245 0.7988 0.4062h0.0449v-0.916c-0.2068-0.1065-0.466-0.1965-0.7793-0.2695-0.3102-0.07604-0.6177-0.1133-0.9219-0.1133zm87.31 0c-0.3254 0-0.6221 0.04179-0.8867 0.127-0.2616 0.08212-0.4762 0.1949-0.6465 0.3379-0.1764 0.146-0.3102 0.3106-0.3984 0.4961-0.0852 0.1855-0.127 0.3839-0.127 0.5938 0 0.3346 0.0938 0.6184 0.2793 0.8496 0.1886 0.2281 0.506 0.4009 0.9531 0.5195 0.1612 0.04258 0.3385 0.08264 0.5332 0.1191 0.1977 0.0365 0.3568 0.06833 0.4785 0.0957 0.3285 0.073 0.5504 0.1603 0.666 0.2637s0.1738 0.2563 0.1738 0.457c0 0.2616-0.1054 0.4526-0.3184 0.5742s-0.5096 0.1816-0.8867 0.1816c-0.3042 0-0.6216-0.05911-0.9531-0.1777-0.3315-0.1217-0.6316-0.2845-0.9024-0.4883h-0.0469v0.9629c0.2129 0.1065 0.4758 0.2056 0.7891 0.2969 0.3163 0.08821 0.6639 0.1328 1.041 0.1328 0.6661 0 1.191-0.1492 1.574-0.4473 0.3863-0.2981 0.5801-0.6792 0.5801-1.145 0-0.3711-0.1083-0.6695-0.3242-0.8945-0.216-0.222-0.5234-0.3795-0.9219-0.4707-0.1308-0.03042-0.2945-0.06311-0.4922-0.09961-0.1947-0.0365-0.3711-0.07288-0.5293-0.1094-0.2859-0.06692-0.4933-0.1533-0.6211-0.2598-0.1308-0.1065-0.1953-0.2647-0.1953-0.4746 0-0.2372 0.1063-0.4165 0.3223-0.5352 0.216-0.1217 0.4816-0.1816 0.7949-0.1816 0.3011 0 0.6086 0.05543 0.9219 0.168 0.3133 0.1095 0.5779 0.245 0.7969 0.4062h0.0469v-0.916c-0.2068-0.1065-0.468-0.1965-0.7812-0.2695-0.3102-0.07604-0.6158-0.1133-0.9199-0.1133zm-97.35 0.0039c-0.7513 0-1.357 0.2365-1.816 0.7109-0.4562 0.4745-0.6836 1.129-0.6836 1.963 0 0.4471 0.06 0.8373 0.1816 1.172 0.1217 0.3346 0.2936 0.6111 0.5156 0.8301 0.219 0.219 0.4819 0.3827 0.7891 0.4922 0.3072 0.1065 0.6456 0.1602 1.014 0.1602 0.289 0 0.5609-0.03724 0.8164-0.1133 0.2585-0.07604 0.5305-0.1834 0.8164-0.3203v-0.9434h-0.0449c-0.0639 0.05171-0.1503 0.1145-0.2598 0.1875-0.1095 0.06996-0.2269 0.1353-0.3516 0.1992-0.143 0.073-0.3049 0.1321-0.4844 0.1777-0.1794 0.04562-0.3559 0.06836-0.5293 0.06836-0.4988 0-0.8873-0.1637-1.164-0.4922-0.2737-0.3315-0.4102-0.8036-0.4102-1.418 0-0.6326 0.1401-1.112 0.4199-1.438 0.2829-0.3285 0.6676-0.4922 1.154-0.4922 0.2646 0 0.5357 0.05457 0.8125 0.1641 0.2798 0.1095 0.5509 0.265 0.8125 0.4688h0.0449v-0.9531c-0.2342-0.1186-0.4925-0.2187-0.7754-0.3008-0.2798-0.08212-0.5654-0.123-0.8574-0.123zm-113.5 0.1191v5.096h0.8574v-3.619c0.2281-0.1855 0.4665-0.3356 0.7129-0.4512 0.2464-0.1186 0.501-0.1777 0.7656-0.1777 0.1642 0 0.3052 0.0082 0.4238 0.02344 0.1217 0.01217 0.2473 0.03208 0.375 0.0625h0.04492v-0.8789c-0.1338-0.02129-0.2339-0.03493-0.3008-0.04102-0.06692-0.0091-0.1752-0.01367-0.3242-0.01367-0.2707 0-0.5353 0.0563-0.7969 0.1719-0.2585 0.1125-0.5597 0.3063-0.9004 0.5801v-0.752zm9.033 0 2.049 5.096h0.8633l2.061-5.096h-0.8984l-1.564 4.055-1.578-4.055zm6.105 0v5.096h0.8574v-5.096zm8.395 0v5.096h0.8574v-5.096zm75.78 0v5.096h0.8574v-3.619c0.2281-0.1855 0.4646-0.3356 0.7109-0.4512 0.2464-0.1186 0.503-0.1777 0.7676-0.1777 0.1642 0 0.3052 0.0082 0.4238 0.02344 0.1217 0.01217 0.2453 0.03208 0.373 0.0625h0.0469v-0.8789c-0.1338-0.02129-0.2339-0.03493-0.3008-0.04102-0.0669-0.0091-0.1752-0.01367-0.3242-0.01367-0.2707 0-0.5373 0.0563-0.7988 0.1719-0.2585 0.1125-0.5578 0.3063-0.8984 0.5801v-0.752zm3.43 0 2.049 5.096h0.8633l2.061-5.096h-0.8984l-1.564 4.055-1.578-4.055zm6.105 0v5.096h0.8574v-5.096zm30.12 0v5.096h0.8574v-3.619c0.2281-0.1855 0.4646-0.3356 0.7109-0.4512 0.2464-0.1186 0.503-0.1777 0.7676-0.1777 0.1642 0 0.3052 0.0082 0.4238 0.02344 0.1217 0.01217 0.2453 0.03208 0.373 0.0625h0.0469v-0.8789c-0.1338-0.02129-0.2339-0.03493-0.3008-0.04102-0.0669-0.0091-0.1752-0.01367-0.3242-0.01367-0.2707 0-0.5372 0.0563-0.7988 0.1719-0.2585 0.1125-0.5578 0.3063-0.8984 0.5801v-0.752zm14.6 0v3.307c0 0.6326 0.1492 1.113 0.4473 1.441 0.2981 0.3254 0.7147 0.4883 1.25 0.4883 0.3194 0 0.6104-0.05998 0.875-0.1816 0.2646-0.1217 0.5411-0.2973 0.8301-0.5254v0.5664h0.8574v-5.096h-0.8574v3.805c-0.2281 0.1795-0.4737 0.3258-0.7383 0.4414-0.2616 0.1156-0.5045 0.1738-0.7266 0.1738-0.2494 0-0.4395-0.03096-0.5703-0.0918-0.1308-0.06083-0.2362-0.1572-0.3184-0.291-0.0791-0.1308-0.1319-0.2882-0.1563-0.4707-0.0243-0.1855-0.0351-0.4075-0.0351-0.666v-2.9zm5.949 0v5.096h0.8574v-3.619c0.2281-0.1855 0.4646-0.3356 0.7109-0.4512 0.2464-0.1186 0.503-0.1777 0.7676-0.1777 0.1642 0 0.3052 0.0082 0.4238 0.02344 0.1217 0.01217 0.2453 0.03208 0.373 0.0625h0.0469v-0.8789c-0.1338-0.02129-0.2339-0.03493-0.3008-0.04102-0.0669-0.0091-0.1752-0.01367-0.3242-0.01367-0.2707 0-0.5372 0.0563-0.7988 0.1719-0.2585 0.1125-0.5578 0.3063-0.8984 0.5801v-0.752zm19.85 0v5.096h0.8574v-5.096zm25.79 0v5.096h0.8574v-3.619c0.2281-0.1855 0.4665-0.3356 0.7129-0.4512 0.2464-0.1186 0.501-0.1777 0.7656-0.1777 0.1642 0 0.3072 0.0082 0.4258 0.02344 0.1217 0.01217 0.2453 0.03208 0.373 0.0625h0.0449v-0.8789c-0.1338-0.02129-0.2339-0.03493-0.3008-0.04102-0.0669-0.0091-0.1752-0.01367-0.3242-0.01367-0.2707 0-0.5353 0.0563-0.7969 0.1719-0.2585 0.1125-0.5597 0.3063-0.9004 0.5801v-0.752zm12.16 0v5.096h0.8574v-5.096zm-121.5 0.5645c0.4562 0 0.7956 0.1228 1.018 0.3691 0.2251 0.2464 0.3388 0.5948 0.3418 1.045h-2.92c0.0365-0.4015 0.1902-0.7371 0.4609-1.008 0.2738-0.2707 0.6403-0.4062 1.1-0.4062zm22.54 0c0.4562 0 0.7955 0.1228 1.018 0.3691 0.2251 0.2464 0.3388 0.5948 0.3418 1.045h-2.92c0.0365-0.4015 0.1902-0.7371 0.4609-1.008 0.2737-0.2707 0.6403-0.4062 1.1-0.4062zm57.5 0c0.4562 0 0.7956 0.1228 1.018 0.3691 0.2251 0.2464 0.3388 0.5948 0.3418 1.045h-2.92c0.0365-0.4015 0.1902-0.7371 0.4609-1.008 0.2737-0.2707 0.6403-0.4062 1.1-0.4062zm62.29 0c0.4562 0 0.7955 0.1228 1.018 0.3691 0.2251 0.2464 0.3388 0.5948 0.3418 1.045h-2.92c0.0365-0.4015 0.1902-0.7371 0.4609-1.008 0.2737-0.2707 0.6403-0.4062 1.1-0.4062zm5.566 0c0.4562 0 0.7956 0.1228 1.018 0.3691 0.2251 0.2464 0.3388 0.5948 0.3418 1.045h-2.92c0.0365-0.4015 0.1902-0.7371 0.4609-1.008 0.2737-0.2707 0.6403-0.4062 1.1-0.4062zm-237.7 0.0332c0.4593 0 0.8196 0.16 1.078 0.4824 0.2585 0.3194 0.3867 0.8087 0.3867 1.469 1e-6 0.6448-0.131 1.132-0.3926 1.461-0.2585 0.3254-0.616 0.4883-1.072 0.4883-0.4623 0-0.8215-0.1637-1.08-0.4922-0.2585-0.3315-0.3887-0.8183-0.3887-1.457 0-0.66 0.1273-1.149 0.3828-1.469 0.2585-0.3224 0.6206-0.4824 1.086-0.4824zm42.27 0c0.4593 0 0.8196 0.16 1.078 0.4824 0.2585 0.3194 0.3867 0.8087 0.3867 1.469 0 0.6448-0.131 1.132-0.3926 1.461-0.2585 0.3254-0.616 0.4883-1.072 0.4883-0.4623 0-0.8215-0.1637-1.08-0.4922-0.2585-0.3315-0.3887-0.8183-0.3887-1.457 0-0.66 0.1273-1.149 0.3828-1.469 0.2585-0.3224 0.6206-0.4824 1.086-0.4824zm5.676 0c0.4593 0 0.8176 0.16 1.076 0.4824 0.2585 0.3194 0.3887 0.8087 0.3887 1.469 0 0.6448-0.131 1.132-0.3926 1.461-0.2585 0.3254-0.616 0.4883-1.072 0.4883-0.4623 0-0.8215-0.1637-1.08-0.4922-0.2585-0.3315-0.3887-0.8183-0.3887-1.457 0-0.66 0.1273-1.149 0.3828-1.469 0.2585-0.3224 0.6206-0.4824 1.086-0.4824zm81.36 0c0.4593 0 0.8176 0.16 1.076 0.4824 0.2585 0.3194 0.3867 0.8087 0.3867 1.469 0 0.6448-0.131 1.132-0.3926 1.461-0.2585 0.3254-0.6141 0.4883-1.07 0.4883-0.4623 0-0.8235-0.1637-1.082-0.4922-0.2585-0.3315-0.3887-0.8183-0.3887-1.457 0-0.66 0.1293-1.149 0.3848-1.469 0.2585-0.3224 0.6206-0.4824 1.086-0.4824zm66.19 0c0.4593 0 0.8176 0.16 1.076 0.4824 0.2585 0.3194 0.3887 0.8087 0.3887 1.469 0 0.6448-0.131 1.132-0.3926 1.461-0.2585 0.3254-0.616 0.4883-1.072 0.4883-0.4623 0-0.8215-0.1637-1.08-0.4922-0.2585-0.3315-0.3887-0.8183-0.3887-1.457 0-0.66 0.1273-1.149 0.3828-1.469 0.2585-0.3224 0.6206-0.4824 1.086-0.4824zm-167.4 0.03125c0.1947 0 0.3893 0.02274 0.584 0.06836 0.1977 0.04258 0.4106 0.1153 0.6387 0.2188v2.779c-0.2099 0.1612-0.4409 0.2894-0.6934 0.3867-0.2494 0.09429-0.4986 0.1426-0.748 0.1426-0.4654 0-0.7973-0.1483-0.998-0.4434-0.2007-0.295-0.3027-0.729-0.3027-1.301 0-0.6022 0.1356-1.061 0.4062-1.377s0.6418-0.4746 1.113-0.4746zm149.9 0c0.1947 0 0.3893 0.02274 0.584 0.06836 0.1977 0.04258 0.4106 0.1153 0.6387 0.2188v2.779c-0.2099 0.1612-0.4409 0.2894-0.6934 0.3867-0.2494 0.09429-0.4986 0.1426-0.748 0.1426-0.4654 0-0.7993-0.1483-1-0.4434-0.2008-0.295-0.3008-0.729-0.3008-1.301 1e-5 -0.6022 0.1356-1.061 0.4063-1.377 0.2707-0.3163 0.6418-0.4746 1.113-0.4746zm-164.2 0.01367c0.216 1e-6 0.4152 0.01905 0.5977 0.05859s0.3899 0.1114 0.6211 0.2148v2.924c-0.216 0.1703-0.4498 0.3104-0.6992 0.4199-0.2494 0.1065-0.495 0.1602-0.7383 0.1602-0.4562 0-0.7873-0.1574-0.9941-0.4707-0.2068-0.3163-0.3105-0.7756-0.3105-1.381 0-0.6144 0.1327-1.089 0.4004-1.424 0.2677-0.3346 0.6425-0.502 1.123-0.502zm39.91 0c0.216 1e-6 0.4152 0.01905 0.5977 0.05859s0.388 0.1114 0.6191 0.2148v2.924c-0.216 0.1703-0.4479 0.3104-0.6973 0.4199-0.2494 0.1065-0.495 0.1602-0.7383 0.1602-0.4562 0-0.7893-0.1574-0.9961-0.4707-0.2068-0.3163-0.3086-0.7756-0.3086-1.381 0-0.6144 0.1327-1.089 0.4004-1.424 0.2677-0.3346 0.6425-0.502 1.123-0.502zm20.64 0c0.216 1e-6 0.4152 0.01905 0.5977 0.05859s0.388 0.1114 0.6191 0.2148v2.924c-0.216 0.1703-0.4479 0.3104-0.6973 0.4199-0.2494 0.1065-0.4969 0.1602-0.7402 0.1602-0.4562 0-0.7873-0.1574-0.9941-0.4707-0.2068-0.3163-0.3105-0.7756-0.3105-1.381 0-0.6144 0.1347-1.089 0.4023-1.424 0.2677-0.3346 0.6425-0.502 1.123-0.502zm169 0c0.216 1e-6 0.4152 0.01905 0.5977 0.05859s0.388 0.1114 0.6191 0.2148v2.924c-0.216 0.1703-0.4479 0.3104-0.6973 0.4199-0.2494 0.1065-0.495 0.1602-0.7383 0.1602-0.4562 0-0.7893-0.1574-0.9961-0.4707-0.2068-0.3163-0.3086-0.7756-0.3086-1.381 0-0.6144 0.1327-1.089 0.4004-1.424 0.2677-0.3346 0.6425-0.502 1.123-0.502zm-53.28 0.03125c0.4471 0 0.7719 0.1583 0.9726 0.4746 0.2008 0.3133 0.3008 0.7745 0.3008 1.383 0 0.6661-0.1356 1.155-0.4062 1.469-0.2677 0.3102-0.6388 0.4648-1.113 0.4648-0.222 0-0.4212-0.01992-0.5977-0.0625-0.1734-0.04258-0.3817-0.119-0.625-0.2285v-2.92c0.219-0.1703 0.4554-0.3096 0.7109-0.416 0.2555-0.1095 0.5084-0.1641 0.7578-0.1641zm-126.2 1.748v1.418c-0.2129 0.1642-0.444 0.3072-0.6934 0.4258-0.2494 0.1156-0.5251 0.1719-0.8262 0.1719-0.3619 0-0.6322-0.07275-0.8086-0.2188-0.1764-0.149-0.2637-0.3682-0.2637-0.6602 0-0.2585 0.07644-0.4614 0.2285-0.6074 0.1521-0.149 0.3513-0.2582 0.5977-0.3281 0.2068-0.05779 0.4851-0.1024 0.8379-0.1328 0.3559-0.03042 0.6662-0.05315 0.9277-0.06836z" style="fill:#00b7a4;stroke-width:.1;stroke:#000000"/>
 <rect x="-2.402" y="8.134" width="268.7" height="32.6" ry="7.024" style="fill:#cccccc;opacity:.452"/>
</svg>
