<?xml version="1.0" encoding="UTF-8" standalone="no"?>
<svg xmlns:dc="http://purl.org/dc/elements/1.1/" xmlns:cc="http://creativecommons.org/ns#" xmlns:rdf="http://www.w3.org/1999/02/22-rdf-syntax-ns#" xmlns:svg="http://www.w3.org/2000/svg" xmlns="http://www.w3.org/2000/svg" xmlns:sodipodi="http://sodipodi.sourceforge.net/DTD/sodipodi-0.dtd" xmlns:inkscape="http://www.inkscape.org/namespaces/inkscape" version="1.1" viewBox="0 0 2074.8553 159.472" id="svg22" sodipodi:docname="head-inset.svg" width="2074.8552" height="159.472" inkscape:version="0.92.2 (5c3e80d, 2017-08-06)">
  <metadata id="metadata26">
    <rdf:RDF>
      <cc:Work rdf:about="">
        <dc:format>image/svg+xml</dc:format>
        <dc:type rdf:resource="http://purl.org/dc/dcmitype/StillImage" />
        <dc:title></dc:title>
      </cc:Work>
    </rdf:RDF>
  </metadata>
  <sodipodi:namedview pagecolor="#ffffff" bordercolor="#666666" borderopacity="1" objecttolerance="10" gridtolerance="10" guidetolerance="10" inkscape:pageopacity="0" inkscape:pageshadow="2" inkscape:window-width="2560" inkscape:window-height="1001" id="namedview24" showgrid="false" fit-margin-top="0" fit-margin-left="0" fit-margin-right="0" fit-margin-bottom="0" inkscape:zoom="0.2914624" inkscape:cx="-134.67346" inkscape:cy="654.00976" inkscape:window-x="-9" inkscape:window-y="41" inkscape:window-maximized="1" inkscape:current-layer="svg22" inkscape:measure-start="0,0" inkscape:measure-end="0,0" inkscape:object-paths="true" />
  <defs id="defs10">
    <clipPath id="clipPath867">
      <text x="-1064.5074" y="-112.03857" style="font-weight:bold;font-size:37.86000061px;line-height:1.25;font-family:'Trebuchet MS';letter-spacing:0px;word-spacing:0px;opacity:0.39599998;fill:#ff0000;stroke-width:0.88730001" xml:space="preserve" id="text4"><tspan x="-1064.5074" y="-112.03857" style="fill:#ff0000;stroke-width:0.88730001" id="tspan2">WEST VALLEY FOOD PANTRY</tspan></text>
    </clipPath>
    <filter id="filter881" x="-0.0026168474" y="-0.028962472" width="1.0052336" height="1.0579249" style="color-interpolation-filters:sRGB">
      <feGaussianBlur stdDeviation="0.582556" id="feGaussianBlur7" />
    </filter>
    <clipPath clipPathUnits="userSpaceOnUse" id="clipPath4656">
      <path inkscape:connector-curvature="0" id="path4658" d="M 891.2665,324.7002 C 876.7885,324.7002 865.2118,330.1754 856.5352,341.12214 847.9089,352.01842 843.596,365.36015 843.596,381.14968 843.596,399.20927 847.5551,413.43457 855.4751,423.8264 863.4456,434.21823 874.8721,439.41466 889.7536,439.41466 905.9467,439.41466 918.4326,434.1689 927.2102,423.67617 936.0382,413.18345 940.4519,399.00749 940.4519,381.14968 940.4519,363.29187 936.2399,349.42042 927.8154,339.53305 919.391,329.64568 907.2073,324.7002 891.2665,324.7002 Z M 1000.2297,324.7002 C 985.7518,324.7002 974.1751,330.1754 965.4984,341.12214 956.8722,352.01842 952.5573,365.36015 952.5573,381.14968 952.5573,399.20927 956.5184,413.43457 964.4383,423.8264 972.4088,434.21823 983.8353,439.41466 998.7168,439.41466 1014.9099,439.41466 1027.3938,434.1689 1036.1714,423.67617 1044.9993,413.18345 1049.4152,399.00749 1049.4152,381.14968 1049.4152,363.29187 1045.201,349.42042 1036.7766,339.53305 1028.3521,329.64568 1016.1707,324.7002 1000.2297,324.7002 Z M -12.141082,324.77637 C -21.978022,324.77637 -30.050372,327.60085 -36.356102,333.25078 -42.611372,338.9007 -45.738242,346.01441 -45.738242,354.5902 -45.738242,359.18076 -44.957582,363.36708 -43.393762,367.15051 -41.779502,370.93395 -39.508352,374.21308 -36.582502,376.98759 -33.606202,379.71167 -27.880062,383.21812 -19.405162,387.50601 -10.879842,391.74346 -5.2566121,395.57804 -2.5325321,399.00835 0.19153793,402.43866 1.5533779,406.04592 1.5533779,409.82935 1.5533779,417.90068 -4.2221021,421.93474 -15.774192,421.93474 -23.290602,421.93474 -30.931922,419.21106 -38.700572,413.76291 L -45.964652,431.39306 C -37.641092,436.74032 -28.309822,439.41466 -17.968432,439.41466 -6.0632321,439.41466 3.4203079,436.51511 10.482718,430.71385 17.595568,424.91257 21.153488,417.52221 21.153488,408.54285 21.153488,403.54872 20.295638,399.03216 18.580478,394.9965 16.865328,390.91039 14.366858,387.35459 11.087878,384.32785 7.8089075,381.25065 2.4623479,377.89645 -4.9531821,374.26436 -19.027552,367.40373 -26.064092,360.79402 -26.064092,354.43785 -26.064092,350.60397 -24.828772,347.50283 -22.356922,345.13187 -19.834632,342.71047 -16.304572,341.49877 -11.764452,341.49877 -4.0966921,341.49877 3.1928879,343.97151 10.103958,348.9152 L 16.083648,331.96428 C 10.080608,327.17193 0.67214793,324.77637 -12.141082,324.77637 Z M 295.22485,325.15513 251.03309,437.52299 H 272.90151 L 280.62051,415.04941 H 318.60616 L 326.70182,437.52299 H 348.41998 L 303.8516,325.15513 Z M 1325.831,325.15513 1281.6414,437.52299 H 1303.5097 L 1311.2288,415.04941 H 1349.2144 L 1357.3101,437.52299 H 1379.0261 L 1334.4577,325.15513 Z M 1619.6528,325.53389 C 1615.1126,325.53389 1609.1355,325.73548 1601.7199,326.13905 1594.3045,326.49217 1590.041,326.66804 1588.9312,326.66804 V 437.52299 H 1609.3628 V 391.21317 C 1614.7101,391.51584 1618.8707,391.69383 1621.847,391.74427 L 1651.4344,437.52299 H 1674.1343 L 1641.371,387.58219 C 1647.2731,385.36257 1652.165,381.55372 1656.0493,376.15602 1659.9336,370.75832 1661.8767,364.78124 1661.8767,358.22329 1661.8767,336.43071 1647.8015,325.53389 1619.6528,325.53389 Z M 1096.4042,325.91264 C 1092.3686,325.91264 1082.5075,326.18931 1066.8189,326.74421 V 437.52299 H 1091.4106 C 1129.7998,437.52299 1148.9941,417.59728 1148.9941,377.74511 1148.9941,362.10691 1144.2525,349.57158 1134.7686,340.13821 1125.3352,330.65441 1112.5469,325.91264 1096.4042,325.91264 Z M 1236.0129,325.91264 C 1233.7933,325.91264 1226.1263,326.18931 1213.0104,326.74421 V 437.52299 H 1232.6844 V 396.73793 C 1236.4174,397.09105 1239.3921,397.26692 1241.6118,397.26692 1271.5765,397.26692 1286.561,384.55572 1286.561,359.13104 1286.561,347.73029 1282.4991,339.35555 1274.3773,334.00829 1266.306,328.61059 1253.5176,325.91264 1236.0129,325.91264 Z M -276.8303,326.66804 -240.43373,439.0359 H -232.33809 L -208.80442,369.11835 -184.59153,439.0359 H -176.49376 L -140.62619,326.66804 H -161.13404 L -181.86618,393.55977 -204.41592,326.66804 H -213.04268 L -235.51625,393.55977 -256.32457,326.66804 Z M -128.74721,326.66804 V 437.52299 H -58.829672 V 420.04308 H -109.07305 V 386.82468 H -72.450072 V 370.10227 H -109.07305 V 344.14795 H -57.995982 V 326.66804 Z M 28.794198,326.66804 V 344.14795 H 64.056618 V 437.52299 H 83.730778 V 344.14795 H 120.58016 V 326.66804 Z M 166.28481,326.66804 207.75122,439.0359 H 218.57219 L 261.8541,326.66804 H 240.667 L 213.57854,401.58135 187.92679,326.66804 Z M 360.07257,326.66804 V 437.52299 H 429.83985 V 420.04308 H 379.74673 V 326.66804 Z M 445.7286,326.66804 V 437.52299 H 515.49589 V 420.04308 H 465.40277 V 326.66804 Z M 531.38672,326.66804 V 437.52299 H 601.30427 V 420.04308 H 551.06089 V 386.82468 H 587.68386 V 370.10227 H 551.06089 V 344.14795 H 602.13585 V 326.66804 Z M 608.49218,326.66804 645.87264,392.04686 V 437.52299 H 665.54681 V 392.04686 L 702.77497,326.66804 H 681.96665 L 655.63355,373.96178 629.37666,326.66804 Z M 758.3929,326.66804 V 437.52299 H 778.067 V 386.82468 H 817.0366 V 370.10227 H 778.067 V 344.14795 H 831.4124 V 326.66804 Z M 1390.6808,326.66804 V 437.59917 H 1409.5975 V 368.89195 L 1463.3978,439.0359 H 1471.4194 V 326.66804 H 1452.5006 V 393.55977 L 1400.1392,326.66804 Z M 1484.3585,326.66804 V 344.14795 H 1519.6187 V 437.52299 H 1539.2929 V 344.14795 H 1576.1444 V 326.66804 Z M 1663.0108,326.66804 1700.3913,392.04686 V 437.52299 H 1720.0654 V 392.04686 L 1757.2957,326.66804 H 1736.4853 L 1710.1521,373.96178 1683.8953,326.66804 Z M 891.2665,342.18011 C 910.4359,342.18011 920.0202,355.1701 920.0202,381.14968 920.0202,394.41692 917.423,404.53098 912.2271,411.4925 907.0817,418.45401 899.5906,421.93474 889.7536,421.93474 881.3795,421.93474 874.9972,418.37894 870.6084,411.26609 866.2196,404.15323 864.0257,394.11425 864.0257,381.14968 864.0257,369.24448 866.3718,359.78667 871.0634,352.77471 875.7548,345.71229 882.4889,342.18011 891.2665,342.18011 Z M 1000.2297,342.18011 C 1019.3992,342.18011 1028.9834,355.1701 1028.9834,381.14968 1028.9834,394.41692 1026.3864,404.53098 1021.1905,411.4925 1016.045,418.45401 1008.5538,421.93474 998.7168,421.93474 990.3428,421.93474 983.9605,418.37894 979.5717,411.26609 975.1829,404.15323 972.989,394.11425 972.989,381.14968 972.989,369.24448 975.3351,359.78667 980.0266,352.77471 984.718,345.71229 991.4522,342.18011 1000.2297,342.18011 Z M 1616.0217,343.31638 C 1624.7993,343.31638 1631.2311,344.39944 1635.3172,346.5686 1639.4032,348.73778 1641.445,352.54662 1641.445,357.99477 1641.445,364.70406 1639.5298,369.2185 1635.6959,371.53901 1631.9125,373.85951 1625.9097,375.01975 1617.687,375.01975 1615.77,375.01975 1612.9949,374.86961 1609.3628,374.56694 V 343.7692 C 1611.6834,343.46652 1613.903,343.31638 1616.0217,343.31638 Z M 1095.4965,343.39044 C 1117.5412,343.39044 1128.5646,355.24591 1128.5646,378.95543 1128.5646,391.92 1125.738,402.00832 1120.0881,409.22208 1114.4886,416.43582 1106.7208,420.04308 1096.783,420.04308 1093.1004,420.04308 1089.669,419.89293 1086.491,419.59026 V 343.92154 C 1090.3753,343.56843 1093.3777,343.39044 1095.4965,343.39044 Z M 1238.6621,343.39044 C 1257.1756,343.39044 1266.4319,349.14231 1266.4319,360.64394 1266.4319,367.40368 1264.3645,372.29559 1260.228,375.32234 1256.0913,378.29864 1249.533,379.787 1240.5538,379.787 1238.6368,379.787 1236.0139,379.61114 1232.6844,379.25802 V 343.7692 C 1234.6014,343.51697 1236.5938,343.39044 1238.6621,343.39044 Z M 299.53714,359.05487 312.85498,399.99227 H 286.21935 Z M 1330.1455,359.05487 1343.4632,399.99227 H 1316.8276 Z" style="opacity:0.92000002;fill:#33b7d2;stroke-width:3.63191772" sodipodi:nodetypes="scscscscsscscscscsscsccccssccscscccscsccsccccccccccccccccccscccccccccssssccsscssccccsscsccccccccccccccccccccccccccccccccccccccccccccccccccccccccccccccccccccccccccccccccccccccccccccccccccccccccccccccccccccccccccsscssscssscssscsscscsccssscsccssscsccscccccccc" />
    </clipPath>
    <clipPath clipPathUnits="userSpaceOnUse" id="clipPath4700">
      <path style="display:inline;opacity:0.40871385;fill:#ff2a2a;stroke-width:3.63191772" d="M 1427.1441,1553.693 C 1412.6661,1553.693 1401.0894,1559.1682 1392.4128,1570.1149 1383.7865,1581.0112 1379.4736,1594.3529 1379.4736,1610.1425 1379.4736,1628.2021 1383.4327,1642.4274 1391.3527,1652.8192 1399.3232,1663.211 1410.7497,1668.4075 1425.6312,1668.4075 1441.8243,1668.4075 1454.3102,1663.1617 1463.0878,1652.669 1471.9158,1642.1762 1476.3295,1628.0003 1476.3295,1610.1425 1476.3295,1592.2847 1472.1175,1578.4132 1463.693,1568.5258 1455.2686,1558.6385 1443.0849,1553.693 1427.1441,1553.693 Z M 1536.1073,1553.693 C 1521.6294,1553.693 1510.0527,1559.1682 1501.376,1570.1149 1492.7498,1581.0112 1488.4349,1594.3529 1488.4349,1610.1425 1488.4349,1628.2021 1492.396,1642.4274 1500.3159,1652.8192 1508.2864,1663.211 1519.7129,1668.4075 1534.5944,1668.4075 1550.7875,1668.4075 1563.2714,1663.1617 1572.049,1652.669 1580.8769,1642.1762 1585.2928,1628.0003 1585.2928,1610.1425 1585.2928,1592.2847 1581.0786,1578.4132 1572.6542,1568.5258 1564.2297,1558.6385 1552.0483,1553.693 1536.1073,1553.693 Z M 523.7365,1553.7692 C 513.89956,1553.7692 505.82721,1556.5936 499.52148,1562.2436 493.26621,1567.8935 490.13934,1575.0072 490.13934,1583.583 490.13934,1588.1736 490.92,1592.3599 492.48382,1596.1433 494.09808,1599.9267 496.36923,1603.2059 499.29508,1605.9804 502.27138,1608.7045 507.99752,1612.2109 516.47242,1616.4988 524.99774,1620.7363 530.62097,1624.5708 533.34505,1628.0011 536.06912,1631.4315 537.43096,1635.0387 537.43096,1638.8221 537.43096,1646.8935 531.65548,1650.9275 520.10339,1650.9275 512.58698,1650.9275 504.94566,1648.2039 497.17701,1642.7557 L 489.91293,1660.3859 C 498.23649,1665.7331 507.56776,1668.4075 517.90915,1668.4075 529.81435,1668.4075 539.29789,1665.5079 546.3603,1659.7066 553.47315,1653.9054 557.03107,1646.515 557.03107,1637.5356 557.03107,1632.5415 556.17322,1628.025 554.45806,1623.9893 552.74291,1619.9032 550.24444,1616.3474 546.96546,1613.3206 543.68649,1610.2434 538.33993,1606.8892 530.9244,1603.2572 516.85003,1596.3965 509.81349,1589.7868 509.81349,1583.4306 509.81349,1579.5968 511.04881,1576.4956 513.52066,1574.1247 516.04295,1571.7033 519.57301,1570.4916 524.11313,1570.4916 531.78089,1570.4916 539.07047,1572.9643 545.98154,1577.908 L 551.96123,1560.9571 C 545.95819,1556.1647 536.54973,1553.7692 523.7365,1553.7692 Z M 831.10243,1554.1479 786.91067,1666.5158 H 808.77909 L 816.49809,1644.0422 H 854.48374 L 862.5794,1666.5158 H 884.29756 L 839.72918,1554.1479 Z M 1861.7086,1554.1479 1817.519,1666.5158 H 1839.3873 L 1847.1064,1644.0422 H 1885.092 L 1893.1877,1666.5158 H 1914.9037 L 1870.3353,1554.1479 Z M 2155.5304,1554.5267 C 2150.9902,1554.5267 2145.0131,1554.7283 2137.5975,1555.1318 2130.1821,1555.485 2125.9186,1555.6608 2124.8088,1555.6608 V 1666.5158 H 2145.2404 V 1620.206 C 2150.5877,1620.5086 2154.7483,1620.6866 2157.7246,1620.7371 L 2187.312,1666.5158 H 2210.0119 L 2177.2486,1616.575 C 2183.1507,1614.3554 2188.0426,1610.5465 2191.9269,1605.1488 2195.8112,1599.7511 2197.7543,1593.774 2197.7543,1587.2161 2197.7543,1565.4235 2183.6791,1554.5267 2155.5304,1554.5267 Z M 1632.2818,1554.9054 C 1628.2462,1554.9054 1618.3851,1555.1821 1602.6965,1555.737 V 1666.5158 H 1627.2882 C 1665.6774,1666.5158 1684.8717,1646.5901 1684.8717,1606.7379 1684.8717,1591.0997 1680.1301,1578.5644 1670.6462,1569.131 1661.2128,1559.6472 1648.4245,1554.9054 1632.2818,1554.9054 Z M 1771.8905,1554.9054 C 1769.6709,1554.9054 1762.0039,1555.1821 1748.888,1555.737 V 1666.5158 H 1768.562 V 1625.7307 C 1772.295,1626.0838 1775.2697,1626.2597 1777.4894,1626.2597 1807.4541,1626.2597 1822.4386,1613.5485 1822.4386,1588.1238 1822.4386,1576.7231 1818.3767,1568.3483 1810.2549,1563.0011 1802.1836,1557.6034 1789.3952,1554.9054 1771.8905,1554.9054 Z M 259.04728,1555.6608 295.44385,1668.0287 H 303.53949 L 327.07316,1598.1111 351.28605,1668.0287 H 359.38382 L 395.25139,1555.6608 H 374.74354 L 354.0114,1622.5526 331.46166,1555.6608 H 322.8349 L 300.36133,1622.5526 279.55301,1555.6608 Z M 407.13037,1555.6608 V 1666.5158 H 477.04791 V 1649.0359 H 426.80453 V 1615.8175 H 463.42751 V 1599.0951 H 426.80453 V 1573.1407 H 477.8816 V 1555.6608 Z M 564.67178,1555.6608 V 1573.1407 H 599.9342 V 1666.5158 H 619.60836 V 1573.1407 H 656.45774 V 1555.6608 Z M 702.16239,1555.6608 743.6288,1668.0287 H 754.44977 L 797.73168,1555.6608 H 776.54458 L 749.45612,1630.5741 723.80437,1555.6608 Z M 895.95015,1555.6608 V 1666.5158 H 965.71743 V 1649.0359 H 915.62431 V 1555.6608 Z M 981.60618,1555.6608 V 1666.5158 H 1051.3735 V 1649.0359 H 1001.2803 V 1555.6608 Z M 1067.2643,1555.6608 V 1666.5158 H 1137.1818 V 1649.0359 H 1086.9385 V 1615.8175 H 1123.5614 V 1599.0951 H 1086.9385 V 1573.1407 H 1138.0134 V 1555.6608 Z M 1144.3698,1555.6608 1181.7502,1621.0397 V 1666.5158 H 1201.4244 V 1621.0397 L 1238.6525,1555.6608 H 1217.8442 L 1191.5111,1602.9546 1165.2542,1555.6608 Z M 1294.2705,1555.6608 V 1666.5158 H 1313.9446 V 1615.8175 H 1352.9142 V 1599.0951 H 1313.9446 V 1573.1407 H 1367.29 V 1555.6608 Z M 1926.5584,1555.6608 V 1666.592 H 1945.4751 V 1597.8847 L 1999.2754,1668.0287 H 2007.297 V 1555.6608 H 1988.3782 V 1622.5526 L 1936.0168,1555.6608 Z M 2020.2361,1555.6608 V 1573.1407 H 2055.4963 V 1666.5158 H 2075.1705 V 1573.1407 H 2112.022 V 1555.6608 Z M 2198.8884,1555.6608 2236.2689,1621.0397 V 1666.5158 H 2255.943 V 1621.0397 L 2293.1733,1555.6608 H 2272.3629 L 2246.0297,1602.9546 2219.7729,1555.6608 Z M 1427.1441,1571.1729 C 1446.3135,1571.1729 1455.8978,1584.1629 1455.8978,1610.1425 1455.8978,1623.4097 1453.3006,1633.5238 1448.1047,1640.4853 1442.9593,1647.4468 1435.4682,1650.9275 1425.6312,1650.9275 1417.2571,1650.9275 1410.8748,1647.3717 1406.486,1640.2589 1402.0972,1633.146 1399.9033,1623.107 1399.9033,1610.1425 1399.9033,1598.2373 1402.2494,1588.7795 1406.941,1581.7675 1411.6324,1574.7051 1418.3665,1571.1729 1427.1441,1571.1729 Z M 1536.1073,1571.1729 C 1555.2768,1571.1729 1564.861,1584.1629 1564.861,1610.1425 1564.861,1623.4097 1562.264,1633.5238 1557.0681,1640.4853 1551.9226,1647.4468 1544.4314,1650.9275 1534.5944,1650.9275 1526.2204,1650.9275 1519.8381,1647.3717 1515.4493,1640.2589 1511.0605,1633.146 1508.8666,1623.107 1508.8666,1610.1425 1508.8666,1598.2373 1511.2127,1588.7795 1515.9042,1581.7675 1520.5956,1574.7051 1527.3298,1571.1729 1536.1073,1571.1729 Z M 2151.8993,1572.3092 C 2160.6769,1572.3092 2167.1087,1573.3922 2171.1948,1575.5614 2175.2808,1577.7306 2177.3226,1581.5394 2177.3226,1586.9876 2177.3226,1593.6969 2175.4074,1598.2113 2171.5735,1600.5318 2167.7901,1602.8523 2161.7873,1604.0125 2153.5646,1604.0125 2151.6476,1604.0125 2148.8725,1603.8624 2145.2404,1603.5597 V 1572.762 C 2147.561,1572.4593 2149.7806,1572.3092 2151.8993,1572.3092 Z M 1631.3741,1572.3832 C 1653.4188,1572.3832 1664.4422,1584.2387 1664.4422,1607.9482 1664.4422,1620.9128 1661.6156,1631.0011 1655.9657,1638.2149 1650.3662,1645.4286 1642.5984,1649.0359 1632.6606,1649.0359 1628.978,1649.0359 1625.5466,1648.8857 1622.3686,1648.5831 V 1572.9143 C 1626.2529,1572.5612 1629.2553,1572.3832 1631.3741,1572.3832 Z M 1774.5397,1572.3832 C 1793.0532,1572.3832 1802.3095,1578.1351 1802.3095,1589.6367 1802.3095,1596.3965 1800.2421,1601.2884 1796.1056,1604.3151 1791.9689,1607.2914 1785.4106,1608.7798 1776.4314,1608.7798 1774.5144,1608.7798 1771.8915,1608.6039 1768.562,1608.2508 V 1572.762 C 1770.479,1572.5098 1772.4714,1572.3832 1774.5397,1572.3832 Z M 835.41472,1588.0477 848.73256,1628.9851 H 822.09693 Z M 1866.0231,1588.0477 1879.3408,1628.9851 H 1852.7052 Z" id="path4702" inkscape:connector-curvature="0" />
    </clipPath>
  </defs>
  <rect id="rect12" style="opacity:0.50400002;fill:#00b7a4;stroke-width:4.09322405" ry="22.766512" height="159.472" width="2074.8552" y="-1586.718" x="-966.96515" />
  <path inkscape:connector-curvature="0" id="path4526" d="M 222.61743,-1559.0054 C 208.13949,-1559.0054 196.56275,-1553.5302 187.88614,-1542.5834 179.25991,-1531.6871 174.94701,-1518.3454 174.94701,-1502.5559 174.94701,-1484.4963 178.90609,-1470.271 186.82603,-1459.8792 194.79652,-1449.4873 206.22304,-1444.2909 221.10453,-1444.2909 237.29765,-1444.2909 249.78358,-1449.5367 258.56117,-1460.0294 267.38919,-1470.5221 271.80288,-1484.6981 271.80288,-1502.5559 271.80288,-1520.4137 267.59083,-1534.2851 259.16632,-1544.1725 250.74193,-1554.0599 238.55824,-1559.0054 222.61743,-1559.0054 Z M 331.58069,-1559.0054 C 317.10275,-1559.0054 305.52609,-1553.5302 296.8494,-1542.5834 288.22317,-1531.6871 283.90822,-1518.3454 283.90822,-1502.5559 283.90822,-1484.4963 287.86935,-1470.271 295.78929,-1459.8792 303.75978,-1449.4873 315.1863,-1444.2909 330.06779,-1444.2909 346.26091,-1444.2909 358.7448,-1449.5367 367.52235,-1460.0294 376.35029,-1470.5221 380.76614,-1484.6981 380.76614,-1502.5559 380.76614,-1520.4137 376.55192,-1534.2851 368.12753,-1544.1725 359.70302,-1554.0599 347.52163,-1559.0054 331.58069,-1559.0054 Z M -680.79011,-1558.9292 C -690.62705,-1558.9292 -698.6994,-1556.1047 -705.00513,-1550.4548 -711.2604,-1544.8049 -714.38727,-1537.6912 -714.38727,-1529.1154 -714.38727,-1524.5248 -713.60661,-1520.3385 -712.04279,-1516.555 -710.42853,-1512.7716 -708.15738,-1509.4925 -705.23153,-1506.718 -702.25523,-1503.9939 -696.52909,-1500.4874 -688.05419,-1496.1995 -679.52887,-1491.9621 -673.90564,-1488.1275 -671.18156,-1484.6972 -668.45749,-1481.2669 -667.09565,-1477.6596 -667.09565,-1473.8762 -667.09565,-1465.8049 -672.87113,-1461.7708 -684.42322,-1461.7708 -691.93963,-1461.7708 -699.58095,-1464.4945 -707.3496,-1469.9426 L -714.61368,-1452.3125 C -706.29012,-1446.9652 -696.95885,-1444.2909 -686.61746,-1444.2909 -674.71226,-1444.2909 -665.22872,-1447.1905 -658.16631,-1452.9917 -651.05346,-1458.793 -647.49554,-1466.1834 -647.49554,-1475.1627 -647.49554,-1480.1568 -648.35339,-1484.6734 -650.06855,-1488.7091 -651.7837,-1492.7952 -654.28217,-1496.351 -657.56115,-1499.3777 -660.84012,-1502.4549 -666.18668,-1505.8091 -673.60221,-1509.4412 -687.67658,-1516.3018 -694.71312,-1522.9115 -694.71312,-1529.2677 -694.71312,-1533.1016 -693.4778,-1536.2027 -691.00595,-1538.5737 -688.48366,-1540.9951 -684.9536,-1542.2068 -680.41348,-1542.2068 -672.74572,-1542.2068 -665.45614,-1539.7341 -658.54507,-1534.7904 L -652.56538,-1551.7413 C -658.56842,-1556.5336 -667.97688,-1558.9292 -680.79011,-1558.9292 Z M -373.42418,-1558.5504 -417.61594,-1446.1826 H -395.74752 L -388.02852,-1468.6561 H -350.04287 L -341.94721,-1446.1826 H -320.22905 L -364.79743,-1558.5504 Z M 657.18192,-1558.5504 612.99238,-1446.1826 H 634.86071 L 642.57972,-1468.6561 H 680.56537 L 688.66107,-1446.1826 H 710.3771 L 665.80868,-1558.5504 Z M 951.00374,-1558.1717 C 946.46354,-1558.1717 940.48644,-1557.9701 933.07084,-1557.5665 925.65544,-1557.2134 921.39194,-1557.0375 920.28214,-1557.0375 V -1446.1826 H 940.71374 V -1492.4924 C 946.06104,-1492.1897 950.22164,-1492.0117 953.19794,-1491.9613 L 982.78534,-1446.1826 H 1005.4852 L 972.72194,-1496.1234 C 978.62404,-1498.343 983.51594,-1502.1518 987.40024,-1507.5495 991.28454,-1512.9472 993.22764,-1518.9243 993.22764,-1525.4823 993.22764,-1547.2748 979.15244,-1558.1717 951.00374,-1558.1717 Z M 427.7552,-1557.7929 C 423.71957,-1557.7929 413.8585,-1557.5163 398.16991,-1556.9613 V -1446.1826 H 422.76155 C 461.15075,-1446.1826 480.34511,-1466.1083 480.34511,-1505.9605 480.34511,-1521.5986 475.60344,-1534.134 466.1196,-1543.5673 456.68619,-1553.0512 443.89786,-1557.7929 427.7552,-1557.7929 Z M 567.36386,-1557.7929 C 565.14427,-1557.7929 557.47725,-1557.5163 544.36133,-1556.9613 V -1446.1826 H 564.03541 V -1486.9676 C 567.76839,-1486.6145 570.74302,-1486.4386 572.96274,-1486.4386 602.92743,-1486.4386 617.91194,-1499.1498 617.91194,-1524.5745 617.91194,-1535.9753 613.85007,-1544.35 605.72826,-1549.6973 597.65695,-1555.095 584.86853,-1557.7929 567.36386,-1557.7929 Z M -945.47933,-1557.0375 -909.08276,-1444.6697 H -900.98712 L -877.45345,-1514.5872 -853.24056,-1444.6697 H -845.14279 L -809.27522,-1557.0375 H -829.78307 L -850.51521,-1490.1458 -873.06495,-1557.0375 H -881.69171 L -904.16528,-1490.1458 -924.9736,-1557.0375 Z M -797.39624,-1557.0375 V -1446.1826 H -727.4787 V -1463.6625 H -777.72208 V -1496.8809 H -741.0991 V -1513.6033 H -777.72208 V -1539.5576 H -726.64501 V -1557.0375 Z M -639.85483,-1557.0375 V -1539.5576 H -604.59241 V -1446.1826 H -584.91825 V -1539.5576 H -548.06887 V -1557.0375 Z M -502.36422,-1557.0375 -460.89781,-1444.6697 H -450.07684 L -406.79493,-1557.0375 H -427.98203 L -455.07049,-1482.1242 -480.72224,-1557.0375 Z M -308.57646,-1557.0375 V -1446.1826 H -238.80918 V -1463.6625 H -288.9023 V -1557.0375 Z M -222.92043,-1557.0375 V -1446.1826 H -153.15315 V -1463.6625 H -203.24627 V -1557.0375 Z M -137.26231,-1557.0375 V -1446.1826 H -67.344763 V -1463.6625 H -117.58815 V -1496.8809 H -80.965173 V -1513.6033 H -117.58815 V -1539.5576 H -66.513183 V -1557.0375 Z M -60.156853,-1557.0375 -22.776393,-1491.6587 V -1446.1826 H -3.1022235 V -1491.6587 L 34.125937,-1557.0375 H 13.317617 L -13.015483,-1509.7438 -39.272373,-1557.0375 Z M 89.743847,-1557.0375 V -1446.1826 H 109.41801 V -1496.8809 H 148.38755 V -1513.6033 H 109.41801 V -1539.5576 H 162.76332 V -1557.0375 Z M 722.03177,-1557.0375 V -1446.1064 H 740.94849 V -1514.8136 L 794.74876,-1444.6697 H 802.77033 V -1557.0375 H 783.85157 V -1490.1458 L 731.49015,-1557.0375 Z M 815.70946,-1557.0375 V -1539.5576 H 850.96964 V -1446.1826 H 870.64384 V -1539.5576 H 907.49534 V -1557.0375 Z M 994.36174,-1557.0375 1031.7422,-1491.6587 V -1446.1826 H 1051.4163 V -1491.6587 L 1088.6466,-1557.0375 H 1067.8362 L 1041.503,-1509.7438 1015.2462,-1557.0375 Z M 222.61743,-1541.5254 C 241.78682,-1541.5254 251.37114,-1528.5355 251.37114,-1502.5559 251.37114,-1489.2886 248.77399,-1479.1746 243.57805,-1472.2131 238.4327,-1465.2515 230.94153,-1461.7708 221.10453,-1461.7708 212.73049,-1461.7708 206.34817,-1465.3266 201.95934,-1472.4395 197.57058,-1479.5523 195.37665,-1489.5913 195.37665,-1502.5559 195.37665,-1514.4611 197.72281,-1523.9189 202.41434,-1530.9309 207.10575,-1537.9933 213.83988,-1541.5254 222.61743,-1541.5254 Z M 331.58069,-1541.5254 C 350.75016,-1541.5254 360.3344,-1528.5355 360.3344,-1502.5559 360.3344,-1489.2886 357.73737,-1479.1746 352.54143,-1472.2131 347.39597,-1465.2515 339.90479,-1461.7708 330.06779,-1461.7708 321.69375,-1461.7708 315.31143,-1465.3266 310.92268,-1472.4395 306.53384,-1479.5523 304.33992,-1489.5913 304.33992,-1502.5559 304.33992,-1514.4611 306.68607,-1523.9189 311.3776,-1530.9309 316.06901,-1537.9933 322.80314,-1541.5254 331.58069,-1541.5254 Z M 947.37264,-1540.3892 C 956.15024,-1540.3892 962.58204,-1539.3061 966.66814,-1537.137 970.75414,-1534.9678 972.79594,-1531.1589 972.79594,-1525.7108 972.79594,-1519.0015 970.88074,-1514.4871 967.04684,-1512.1666 963.26344,-1509.846 957.26064,-1508.6858 949.03794,-1508.6858 947.12094,-1508.6858 944.34584,-1508.8359 940.71374,-1509.1386 V -1539.9364 C 943.03434,-1540.239 945.25394,-1540.3892 947.37264,-1540.3892 Z M 426.84745,-1540.3151 C 448.8922,-1540.3151 459.91558,-1528.4596 459.91558,-1504.7501 459.91558,-1491.7856 457.08897,-1481.6972 451.43909,-1474.4835 445.8396,-1467.2697 438.07172,-1463.6625 428.13395,-1463.6625 424.45136,-1463.6625 421.02001,-1463.8126 417.84195,-1464.1153 V -1539.784 C 421.72625,-1540.1371 424.72871,-1540.3151 426.84745,-1540.3151 Z M 570.01304,-1540.3151 C 588.52661,-1540.3151 597.78282,-1534.5633 597.78282,-1523.0616 597.78282,-1516.3019 595.71545,-1511.41 591.57892,-1508.3832 587.44227,-1505.4069 580.88398,-1503.9186 571.90472,-1503.9186 569.98778,-1503.9186 567.36484,-1504.0944 564.03541,-1504.4475 V -1539.9364 C 565.95235,-1540.1886 567.94477,-1540.3151 570.01304,-1540.3151 Z M -369.11189,-1524.6507 -355.79405,-1483.7133 H -382.42968 Z M 661.49643,-1524.6507 674.81418,-1483.7133 H 648.17859 Z" style="opacity:0.92000002;fill:#33b7d2;stroke-width:3.63191772" />
  <path inkscape:connector-curvature="0" id="path18" style="fill:#000000;filter:url(#filter881)" clip-path="url(#clipPath867)" d="M -1077,-148 C -1080.929,-148 -1084.091,-144.837 -1084.091,-140.908 V -106.818 C -1084.091,-102.889 -1080.929,-99.726 -1077,-99.726 H -556.9 C -552.971,-99.726 -549.809,-102.889 -549.809,-106.818 V -140.908 C -549.809,-144.837 -552.971,-148 -556.9,-148 Z M -778.8,-139.328 C -774.906,-139.328 -771.93,-138.12 -769.872,-135.705 -767.814,-133.29 -766.785,-129.901 -766.785,-125.535 -766.785,-121.173 -767.863,-117.71 -770.02,-115.145 -772.164,-112.582 -775.214,-111.3 -779.169,-111.3 -782.804,-111.3 -785.596,-112.569 -787.543,-115.108 -789.478,-117.647 -790.445,-121.122 -790.445,-125.538 -790.445,-129.395 -789.391,-132.654 -787.284,-135.316 -785.164,-137.99 -782.336,-139.327 -778.8,-139.327 Z M -752.18,-139.328 C -748.286,-139.328 -745.31,-138.12 -743.252,-135.705 -741.194,-133.29 -740.165,-129.901 -740.165,-125.535 -740.165,-121.173 -741.243,-117.71 -743.399,-115.145 -745.543,-112.582 -748.593,-111.3 -752.549,-111.3 -756.184,-111.3 -758.976,-112.569 -760.923,-115.108 -762.858,-117.647 -763.825,-121.122 -763.825,-125.538 -763.825,-129.395 -762.771,-132.654 -760.664,-135.316 -758.544,-137.99 -755.716,-139.327 -752.18,-139.327 Z M -999.48,-139.30992 C -996.35,-139.30992 -994.052,-138.72412 -992.585,-137.55392 L -994.045,-133.41392 C -995.733,-134.62192 -997.514,-135.22492 -999.387,-135.22492 -1000.496,-135.22492 -1001.359,-134.92912 -1001.975,-134.33762 -1002.5788,-133.75842 -1002.8804,-133.00062 -1002.8804,-132.06462 -1002.8804,-130.51162 -1001.1614,-128.89762 -997.7234,-127.22162 -995.9124,-126.33442 -994.6054,-125.51462 -993.8044,-124.76362 -993.0034,-124.02422 -992.3934,-123.15562 -991.9744,-122.15662 -991.5554,-121.17082 -991.346,-120.06862 -991.346,-118.84862 -991.346,-116.65562 -992.215,-114.84962 -993.953,-113.43262 -995.678,-112.01562 -997.995,-111.30762 -1000.903,-111.30762 -1003.429,-111.30762 -1005.709,-111.96042 -1007.742,-113.26662 L -1005.967,-117.57362 C -1004.069,-116.24262 -1002.202,-115.57662 -1000.366,-115.57662 -997.544,-115.57662 -996.133,-116.56292 -996.133,-118.53462 -996.133,-119.45882 -996.4654,-120.33962 -997.1309,-121.17762 -997.7963,-122.01562 -999.1709,-122.95262 -1001.2529,-123.98762 -1003.3229,-125.03462 -1004.7219,-125.89162 -1005.4489,-126.55662 -1006.1636,-127.23442 -1006.7189,-128.03562 -1007.1129,-128.95962 -1007.4949,-129.88382 -1007.686,-130.90662 -1007.686,-132.02762 -1007.686,-134.12262 -1006.9217,-135.85962 -1005.394,-137.24062 -1003.854,-138.62062 -1001.882,-139.31162 -999.479,-139.31162 Z M -924.4,-139.21742 H -922.293 L -911.403,-111.76742 H -916.708 L -918.686,-117.25742 H -927.965 L -929.851,-111.76742 H -935.193 Z M -672.6,-139.21742 H -670.493 L -659.603,-111.76742 H -664.908 L -666.886,-117.25742 H -676.165 L -678.051,-111.76742 H -683.393 Z M -600.82,-139.12492 C -593.944,-139.12492 -590.51,-136.46292 -590.51,-131.13892 -590.51,-129.53692 -590.9843,-128.07692 -591.933,-126.75792 -592.8819,-125.43892 -594.077,-124.50892 -595.519,-123.96692 L -587.515,-111.76692 H -593.06 L -600.287,-122.94692 C -601.0141,-122.95924 -602.031,-123.00269 -603.337,-123.07662 V -111.76662 H -608.328 V -138.84662 C -608.0569,-138.84662 -607.016,-138.89007 -605.204,-138.97632 -603.393,-139.07491 -601.932,-139.12412 -600.823,-139.12412 Z M -728.62,-139.03241 C -724.677,-139.03241 -721.553,-137.87341 -719.248,-135.55741 -716.931,-133.25341 -715.773,-130.19141 -715.773,-126.37041 -715.773,-116.63541 -720.462,-111.77041 -729.843,-111.77041 H -735.85 V -138.83041 C -732.018,-138.96601 -729.608,-139.03401 -728.623,-139.03401 Z M -694.52,-139.03241 C -690.244,-139.03241 -687.12,-138.37331 -685.148,-137.05441 -683.164,-135.74841 -682.172,-133.70241 -682.172,-130.91741 -682.172,-124.70641 -685.832,-121.60141 -693.152,-121.60141 -693.6942,-121.60141 -694.421,-121.64485 -695.333,-121.73111 V -111.76811 H -700.139 V -138.82811 C -696.935,-138.96371 -695.062,-139.03171 -694.52,-139.03171 Z M -1064.12,-138.84741 H -1059.11 L -1054.027,-122.50741 -1048.537,-138.84741 H -1046.43 L -1040.922,-122.50741 -1035.857,-138.84741 H -1030.848 L -1039.609,-111.39741 H -1041.587 L -1047.502,-128.47741 -1053.25,-111.39741 H -1055.228 Z M -1027.95,-138.84741 H -1010.67 V -134.57741 H -1023.15 V -128.23741 H -1014.203 V -124.15141 H -1023.15 V -116.03741 H -1010.88 V -111.76741 H -1027.96 Z M -989.47,-138.84741 H -967.05 V -134.57741 H -976.052 V -111.76741 H -980.858 V -134.57741 H -989.472 Z M -955.88,-138.84741 H -950.593 L -944.327,-120.54741 -937.71,-138.84741 H -932.534 L -943.104,-111.39741 H -945.748 Z M -908.54,-138.84741 H -903.734 V -116.03741 H -891.494 V -111.76741 H -908.534 Z M -887.62,-138.84741 H -882.814 V -116.03741 H -870.574 V -111.76741 H -887.614 Z M -866.7,-138.84741 H -849.42 V -134.57741 H -861.9 V -128.23741 H -852.954 V -124.15141 H -861.9 V -116.03741 H -849.63 V -111.76741 H -866.71 Z M -847.86,-138.84741 H -842.759 L -836.345,-127.29741 -829.912,-138.84741 H -824.829 L -833.924,-122.87741 V -111.76741 H -838.73 V -122.87741 Z M -811.24,-138.84741 H -793.4 V -134.57741 H -806.43 V -128.23741 H -796.911 V -124.15141 H -806.43 V -111.77141 H -811.236 Z M -656.74,-138.84741 H -654.43 L -641.64,-122.50741 V -138.84741 H -637.019 V -111.39741 H -638.978 L -652.118,-128.53741 V -111.75741 H -656.739 Z M -633.86,-138.84741 H -611.44 V -134.57741 H -620.442 V -111.76741 H -625.248 V -134.57741 H -633.861 Z M -590.22,-138.84741 H -585.118 L -578.704,-127.29741 -572.271,-138.84741 H -567.188 L -576.283,-122.87741 V -111.76741 H -581.089 V -122.87741 Z M -778.72,-135.05841 C -780.864,-135.05841 -782.51,-134.19561 -783.656,-132.47041 -784.802,-130.75741 -785.375,-128.44641 -785.375,-125.53841 -785.375,-122.37141 -784.8389,-119.91941 -783.767,-118.18141 -782.695,-116.44341 -781.136,-115.57441 -779.09,-115.57441 -776.687,-115.57441 -774.857,-116.42511 -773.6,-118.12541 -772.331,-119.82641 -771.696,-122.29641 -771.696,-125.53741 -771.696,-131.88341 -774.037,-135.05741 -778.72,-135.05741 Z M -752.1,-135.05841 C -754.244,-135.05841 -755.889,-134.19561 -757.035,-132.47041 -758.181,-130.75741 -758.754,-128.44641 -758.754,-125.53841 -758.754,-122.37141 -758.2179,-119.91941 -757.146,-118.18141 -756.074,-116.44341 -754.515,-115.57441 -752.469,-115.57441 -750.066,-115.57441 -748.236,-116.42511 -746.979,-118.12541 -745.71,-119.82641 -745.075,-122.29641 -745.075,-125.53741 -745.075,-131.88341 -747.417,-135.05741 -752.099,-135.05741 Z M -601.7,-134.78091 C -602.2176,-134.78091 -602.76,-134.74375 -603.327,-134.66981 V -127.14681 C -602.4397,-127.07288 -601.762,-127.03621 -601.294,-127.03621 -599.285,-127.03621 -597.819,-127.31941 -596.895,-127.88631 -595.9584,-128.45311 -595.49,-129.55631 -595.49,-131.19531 -595.49,-132.52631 -595.9889,-133.45631 -596.987,-133.98631 -597.9852,-134.51621 -599.556,-134.78111 -601.7,-134.78111 Z M -728.9,-134.76231 C -729.4176,-134.76231 -730.151,-134.71938 -731.1,-134.63311 V -116.15311 C -730.3237,-116.07917 -729.486,-116.04251 -728.586,-116.04251 -726.158,-116.04251 -724.261,-116.92361 -722.893,-118.68551 -721.513,-120.44751 -720.823,-122.91151 -720.823,-126.07851 -720.823,-131.87051 -723.515,-134.76651 -728.901,-134.76651 Z M -693.93,-134.76231 C -694.4352,-134.76231 -694.9221,-134.73142 -695.39,-134.66981 V -126.00081 C -694.5767,-125.91455 -693.936,-125.87161 -693.468,-125.87161 -691.274,-125.87161 -689.673,-126.23491 -688.662,-126.96161 -687.652,-127.70101 -687.146,-128.89661 -687.146,-130.54761 -687.146,-133.35761 -689.407,-134.76161 -693.93,-134.76161 Z M -923.33,-130.93631 -926.583,-120.93631 H -920.077 Z M -671.53,-130.93631 -674.783,-120.93631 H -668.276 Z" transform="matrix(4.093224,0,0,4.093224,3412.4233,-987.03637)" />
  <rect id="rect12-3" style="display:inline;opacity:0.50400002;fill:#00b7a4;stroke-width:4.09322405" ry="22.766512" height="159.472" width="2074.8552" y="-1222.7368" x="-477.93481" />
  <path inkscape:connector-curvature="0" id="path4526-9" d="M 708.38334,-1201.7618 C 693.90534,-1201.7618 682.32864,-1196.2866 673.65204,-1185.3399 665.02574,-1174.4436 660.71284,-1161.1019 660.71284,-1145.3124 660.71284,-1127.2528 664.67194,-1113.0275 672.59194,-1102.6356 680.56244,-1092.2438 691.98894,-1087.0474 706.87044,-1087.0474 723.06354,-1087.0474 735.54944,-1092.2931 744.32704,-1102.7859 753.15504,-1113.2786 757.56874,-1127.4545 757.56874,-1145.3124 757.56874,-1163.1702 753.35674,-1177.0416 744.93224,-1186.929 736.50784,-1196.8164 724.32414,-1201.7618 708.38334,-1201.7618 Z M 817.34654,-1201.7618 C 802.86864,-1201.7618 791.29194,-1196.2866 782.61524,-1185.3399 773.98904,-1174.4436 769.67414,-1161.1019 769.67414,-1145.3124 769.67414,-1127.2528 773.63524,-1113.0275 781.55514,-1102.6356 789.52564,-1092.2438 800.95214,-1087.0474 815.83364,-1087.0474 832.02674,-1087.0474 844.51064,-1092.2931 853.28824,-1102.7859 862.11614,-1113.2786 866.53204,-1127.4545 866.53204,-1145.3124 866.53204,-1163.1702 862.31784,-1177.0416 853.89344,-1186.929 845.46894,-1196.8164 833.28754,-1201.7618 817.34654,-1201.7618 Z M -195.02425,-1201.6857 C -204.86119,-1201.6857 -212.93354,-1198.8612 -219.23927,-1193.2113 -225.49454,-1187.5613 -228.62141,-1180.4476 -228.62141,-1171.8718 -228.62141,-1167.2813 -227.84075,-1163.095 -226.27693,-1159.3115 -224.66267,-1155.5281 -222.39152,-1152.249 -219.46567,-1149.4744 -216.48937,-1146.7504 -210.76323,-1143.2439 -202.28833,-1138.956 -193.76301,-1134.7186 -188.13978,-1130.884 -185.4157,-1127.4537 -182.69163,-1124.0234 -181.32979,-1120.4161 -181.32979,-1116.6327 -181.32979,-1108.5614 -187.10527,-1104.5273 -198.65736,-1104.5273 -206.17377,-1104.5273 -213.81509,-1107.251 -221.58374,-1112.6991 L -228.84782,-1095.069 C -220.52426,-1089.7217 -211.19299,-1087.0474 -200.8516,-1087.0474 -188.9464,-1087.0474 -179.46286,-1089.9469 -172.40045,-1095.7482 -165.2876,-1101.5495 -161.72968,-1108.9398 -161.72968,-1117.9192 -161.72968,-1122.9133 -162.58753,-1127.4299 -164.30269,-1131.4655 -166.01784,-1135.5516 -168.51631,-1139.1074 -171.79529,-1142.1342 -175.07426,-1145.2114 -180.42082,-1148.5656 -187.83635,-1152.1977 -201.91072,-1159.0583 -208.94726,-1165.668 -208.94726,-1172.0242 -208.94726,-1175.8581 -207.71194,-1178.9592 -205.24009,-1181.3302 -202.7178,-1183.7516 -199.18774,-1184.9633 -194.64762,-1184.9633 -186.97986,-1184.9633 -179.69028,-1182.4905 -172.77921,-1177.5468 L -166.79952,-1194.4978 C -172.80256,-1199.2901 -182.21102,-1201.6857 -195.02425,-1201.6857 Z M 112.34169,-1201.3069 68.149927,-1088.939 H 90.018347 L 97.737347,-1111.4126 H 135.723 L 143.81866,-1088.939 H 165.53682 L 120.96844,-1201.3069 Z M 1142.9478,-1201.3069 1098.7582,-1088.939 H 1120.6265 L 1128.3456,-1111.4126 H 1166.3312 L 1174.4269,-1088.939 H 1196.1429 L 1151.5745,-1201.3069 Z M 1436.7696,-1200.9281 C 1432.2294,-1200.9281 1426.2523,-1200.7266 1418.8367,-1200.323 1411.4213,-1199.9699 1407.1578,-1199.794 1406.048,-1199.794 V -1088.939 H 1426.4796 V -1135.2489 C 1431.8269,-1134.9462 1435.9875,-1134.7682 1438.9638,-1134.7178 L 1468.5512,-1088.939 H 1491.2511 L 1458.4878,-1138.8798 C 1464.3899,-1141.0995 1469.2818,-1144.9083 1473.1661,-1150.306 1477.0504,-1155.7037 1478.9935,-1161.6808 1478.9935,-1168.2387 1478.9935,-1190.0313 1464.9183,-1200.9281 1436.7696,-1200.9281 Z M 913.52104,-1200.5494 C 909.48544,-1200.5494 899.62434,-1200.2727 883.93574,-1199.7178 V -1088.939 H 908.52744 C 946.91664,-1088.939 966.11094,-1108.8648 966.11094,-1148.7169 966.11094,-1164.3551 961.36934,-1176.8905 951.88544,-1186.3238 942.45204,-1195.8076 929.66374,-1200.5494 913.52104,-1200.5494 Z M 1053.1297,-1200.5494 C 1050.9101,-1200.5494 1043.2431,-1200.2727 1030.1272,-1199.7178 V -1088.939 H 1049.8012 V -1129.7241 C 1053.5342,-1129.371 1056.5089,-1129.1951 1058.7286,-1129.1951 1088.6933,-1129.1951 1103.6778,-1141.9063 1103.6778,-1167.331 1103.6778,-1178.7317 1099.6159,-1187.1065 1091.4941,-1192.4537 1083.4228,-1197.8514 1070.6344,-1200.5494 1053.1297,-1200.5494 Z M -459.71346,-1199.794 -423.31689,-1087.4261 H -415.22125 L -391.68758,-1157.3437 -367.47469,-1087.4261 H -359.37692 L -323.50935,-1199.794 H -344.0172 L -364.74934,-1132.9023 -387.29908,-1199.794 H -395.92584 L -418.39941,-1132.9023 -439.20773,-1199.794 Z M -311.63037,-1199.794 V -1088.939 H -241.71284 V -1106.419 H -291.95621 V -1139.6374 H -255.33324 V -1156.3598 H -291.95621 V -1182.3141 H -240.87915 V -1199.794 Z M -154.08897,-1199.794 V -1182.3141 H -118.82655 V -1088.939 H -99.152385 V -1182.3141 H -62.303003 V -1199.794 Z M -16.598353,-1199.794 24.868057,-1087.4261 H 35.689027 L 78.970937,-1199.794 H 57.783837 L 30.695377,-1124.8807 5.0436265,-1199.794 Z M 177.18941,-1199.794 V -1088.939 H 246.95669 V -1106.419 H 196.86357 V -1199.794 Z M 262.84544,-1199.794 V -1088.939 H 332.61273 V -1106.419 H 282.51961 V -1199.794 Z M 348.50356,-1199.794 V -1088.939 H 418.42111 V -1106.419 H 368.17773 V -1139.6374 H 404.8007 V -1156.3598 H 368.17773 V -1182.3141 H 419.25269 V -1199.794 Z M 425.60902,-1199.794 462.98948,-1134.4152 V -1088.939 H 482.66365 V -1134.4152 L 519.89181,-1199.794 H 499.08349 L 472.75039,-1152.5003 446.4935,-1199.794 Z M 575.50974,-1199.794 V -1088.939 H 595.18384 V -1139.6374 H 634.15344 V -1156.3598 H 595.18384 V -1182.3141 H 648.52924 V -1199.794 Z M 1207.7976,-1199.794 V -1088.8629 H 1226.7143 V -1157.5701 L 1280.5146,-1087.4261 H 1288.5362 V -1199.794 H 1269.6174 V -1132.9023 L 1217.256,-1199.794 Z M 1301.4753,-1199.794 V -1182.3141 H 1336.7355 V -1088.939 H 1356.4097 V -1182.3141 H 1393.2612 V -1199.794 Z M 1480.1276,-1199.794 1517.5081,-1134.4152 V -1088.939 H 1537.1822 V -1134.4152 L 1574.4125,-1199.794 H 1553.6021 L 1527.2689,-1152.5003 1501.0121,-1199.794 Z M 708.38334,-1184.2819 C 727.55274,-1184.2819 737.13704,-1171.2919 737.13704,-1145.3124 737.13704,-1132.0451 734.53984,-1121.9311 729.34394,-1114.9695 724.19854,-1108.008 716.70744,-1104.5273 706.87044,-1104.5273 698.49634,-1104.5273 692.11404,-1108.0831 687.72524,-1115.1959 683.33644,-1122.3088 681.14254,-1132.3478 681.14254,-1145.3124 681.14254,-1157.2176 683.48864,-1166.6754 688.18024,-1173.6873 692.87164,-1180.7497 699.60574,-1184.2819 708.38334,-1184.2819 Z M 817.34654,-1184.2819 C 836.51604,-1184.2819 846.10024,-1171.2919 846.10024,-1145.3124 846.10024,-1132.0451 843.50324,-1121.9311 838.30734,-1114.9695 833.16184,-1108.008 825.67064,-1104.5273 815.83364,-1104.5273 807.45964,-1104.5273 801.07734,-1108.0831 796.68854,-1115.1959 792.29974,-1122.3088 790.10584,-1132.3478 790.10584,-1145.3124 790.10584,-1157.2176 792.45194,-1166.6754 797.14344,-1173.6873 801.83484,-1180.7497 808.56904,-1184.2819 817.34654,-1184.2819 Z M 1433.1385,-1183.1457 C 1441.9161,-1183.1457 1448.3479,-1182.0626 1452.434,-1179.8934 1456.52,-1177.7243 1458.5618,-1173.9154 1458.5618,-1168.4673 1458.5618,-1161.758 1456.6466,-1157.2435 1452.8127,-1154.923 1449.0293,-1152.6025 1443.0265,-1151.4423 1434.8038,-1151.4423 1432.8868,-1151.4423 1430.1117,-1151.5924 1426.4796,-1151.8951 V -1182.6928 C 1428.8002,-1182.9955 1431.0198,-1183.1457 1433.1385,-1183.1457 Z M 912.61334,-1183.0716 C 934.65804,-1183.0716 945.68144,-1171.2161 945.68144,-1147.5066 945.68144,-1134.542 942.85484,-1124.4537 937.20494,-1117.24 931.60544,-1110.0262 923.83764,-1106.419 913.89984,-1106.419 910.21724,-1106.419 906.78584,-1106.5691 903.60784,-1106.8718 V -1182.5405 C 907.49214,-1182.8936 910.49454,-1183.0716 912.61334,-1183.0716 Z M 1055.7789,-1183.0716 C 1074.2924,-1183.0716 1083.5487,-1177.3197 1083.5487,-1165.8181 1083.5487,-1159.0584 1081.4813,-1154.1664 1077.3448,-1151.1397 1073.2081,-1148.1634 1066.6498,-1146.675 1057.6706,-1146.675 1055.7536,-1146.675 1053.1307,-1146.8509 1049.8012,-1147.204 V -1182.6928 C 1051.7182,-1182.9451 1053.7106,-1183.0716 1055.7789,-1183.0716 Z M 116.65398,-1167.4072 129.97182,-1126.4698 H 103.33619 Z M 1147.2623,-1167.4072 1160.58,-1126.4698 H 1133.9444 Z" style="display:inline;opacity:0.92000002;fill:#33b7d2;stroke-width:3.63191772" />
  <path style="display:inline;opacity:1;fill:#000000;fill-opacity:1;stroke:none;stroke-width:1.40199995;stroke-linecap:round;stroke-linejoin:round;stroke-miterlimit:4;stroke-dasharray:none;stroke-dashoffset:0;stroke-opacity:1" d="M -337.67158,278.1973 C -340.63943,278.1973 -343.029,285.98839 -343.029,295.66605 V 473.44925 C -343.029,483.12691 -340.63943,490.918 -337.67158,490.918 H 1825.137 C 1828.1049,490.918 1830.4944,483.12691 1830.4944,473.44925 V 295.66605 C 1830.4944,285.98839 1828.1049,278.1973 1825.137,278.1973 Z M 894.76592,327.2012 C 910.70672,327.2012 922.89035,332.14586 931.31475,342.03323 939.73925,351.9206 943.95147,365.79261 943.95147,383.65042 943.95147,401.50823 939.53924,415.68309 930.71124,426.17581 921.93364,436.66854 909.44731,441.91409 893.25421,441.91409 878.37271,441.91409 866.94541,436.71803 858.97491,426.3262 851.05491,415.93437 847.096,401.71001 847.096,383.65042 847.096,367.86089 851.40916,354.51936 860.03546,343.62308 868.71206,332.67634 880.28793,327.2012 894.76592,327.2012 Z M 1003.7308,327.2012 C 1019.6718,327.2012 1031.8531,332.14586 1040.2776,342.03323 1048.702,351.9206 1052.9163,365.79261 1052.9163,383.65042 1052.9163,401.50823 1048.5001,415.68309 1039.6722,426.17581 1030.8946,436.66854 1018.4102,441.91409 1002.2171,441.91409 987.3356,441.91409 975.9083,436.71803 967.9378,426.3262 960.0179,415.93437 956.05694,401.71001 956.05694,383.65042 956.05694,367.86089 960.37215,354.51936 968.99835,343.62308 977.67505,332.67634 989.25287,327.2012 1003.7308,327.2012 Z M -8.640325,327.27737 C 4.1729049,327.27737 13.581244,329.67252 19.584284,334.46487 L 13.603816,351.41605 C 6.6927455,346.47236 -0.595612,343.99808 -8.263372,343.99808 -12.803492,343.99808 -16.334832,345.21144 -18.857122,347.63284 -21.328972,350.0038 -22.564153,353.10365 -22.564153,356.93753 -22.564153,363.2937 -15.527195,369.90307 -1.452825,376.7637 5.962705,380.39579 11.30922,383.75095 14.588191,386.82815 17.867171,389.85489 20.365228,393.41001 22.080378,397.49612 23.795538,401.53178 24.654597,406.04887 24.654597,411.043 24.654597,420.02236 21.095572,427.41164 13.982722,433.21292 6.9203118,439.01418 -2.5632501,441.91409 -14.46845,441.91409 -24.80984,441.91409 -34.140984,439.23987 -42.464544,433.89261 L -35.200872,416.2637 C -27.432222,421.71185 -19.789548,424.43558 -12.273138,424.43558 -0.7210476,424.43558 5.0530344,420.40144 5.0530344,412.33011 5.0530344,408.54668 3.6911669,404.93815 0.9670969,401.50784 -1.7569831,398.07753 -7.378677,394.24334 -15.903997,390.00589 -24.378897,385.718 -30.105431,382.21239 -33.081731,379.48831 -36.007581,376.7138 -38.279971,373.43386 -39.894231,369.65042 -41.458051,365.86699 -42.237981,361.68043 -42.237981,357.08987 -42.237981,348.51408 -39.110439,341.39995 -32.855169,335.75003 -26.549439,330.1001 -18.477265,327.27737 -8.640325,327.27737 Z M 298.72491,327.65433 H 307.35186 L 351.92022,440.02347 H 330.20147 L 322.10577,417.54886 H 284.12139 L 276.40264,440.02347 H 254.5335 Z M 1329.3304,327.65433 H 1337.9573 L 1382.5257,440.02347 H 1360.8108 L 1352.7151,417.54886 H 1314.7288 L 1307.0101,440.02347 H 1285.1409 Z M 1623.1526,328.03323 C 1651.3013,328.03323 1665.3773,338.93011 1665.3773,360.72269 1665.3773,367.28064 1663.4334,373.25858 1659.5491,378.65628 1655.6648,384.05398 1650.7735,387.86244 1644.8714,390.08206 L 1677.6351,440.02347 H 1654.9339 L 1625.348,394.24417 C 1622.3717,394.19373 1618.2109,394.01559 1612.8636,393.71292 V 440.02347 H 1592.4319 V 329.168 C 1593.5417,329.168 1597.8056,328.99182 1605.221,328.6387 1612.6366,328.23513 1618.6124,328.03323 1623.1526,328.03323 Z M 1099.9046,328.41214 C 1116.0473,328.41214 1128.8364,333.1549 1138.2698,342.6387 1147.7537,352.07207 1152.4944,364.60597 1152.4944,380.24417 1152.4944,420.09634 1133.2997,440.02347 1094.9105,440.02347 H 1070.3187 V 329.24417 C 1086.0073,328.68927 1095.869,328.41214 1099.9046,328.41214 Z M 1239.514,328.41214 C 1257.0187,328.41214 1269.806,331.11014 1277.8773,336.50784 1285.9991,341.8551 1290.0608,350.23014 1290.0608,361.63089 1290.0608,387.05557 1275.0763,399.76761 1245.1116,399.76761 1242.8919,399.76761 1239.9169,399.59143 1236.1839,399.23831 V 440.02347 H 1216.5101 V 329.24417 C 1229.626,328.68927 1237.2944,328.41214 1239.514,328.41214 Z M -273.32978,329.168 H -252.82392 L -233.9865,399.54805 -209.54267,329.168 H -200.91572 L -178.36493,396.06058 -157.63447,329.168 H -137.12665 L -172.99384,441.53519 H -181.0915 L -208.03371,366.76704 -228.83759,441.53519 H -236.93329 Z M -125.24775,329.168 H -54.495794 V 346.64847 H -105.57197 V 372.60159 H -68.948919 V 389.32425 H -105.57197 V 422.543 H -55.329778 V 440.02347 H -125.24775 Z M 32.295222,329.168 H 124.08038 V 346.64847 H 87.230769 V 440.02347 H 67.556941 V 346.64847 H 32.295222 Z M 169.78546,329.168 H 191.42803 L 217.07842,404.08206 244.16827,329.168 H 265.35382 L 222.07257,441.53519 H 211.25225 Z M 363.57257,329.168 H 383.24639 V 422.543 H 433.34014 V 440.02347 H 363.57257 Z M 449.22882,329.168 H 468.90264 V 422.543 H 518.99639 V 440.02347 H 449.22882 Z M 534.88702,329.168 H 605.63702 V 346.64847 H 554.56085 V 372.60159 H 591.18389 V 389.32425 H 554.56085 V 422.543 H 604.80499 V 440.02347 H 534.88702 Z M 611.99249,329.168 H 632.87725 L 659.13311,376.46097 685.4671,329.168 H 706.27569 L 669.04718,394.54691 V 440.02347 H 649.37335 V 394.54691 Z M 761.89288,329.168 H 834.91241 V 346.64847 H 781.56671 V 372.60159 H 820.53741 V 389.32425 H 781.56671 V 440.02347 H 761.89288 Z M 1394.1819,329.168 H 1403.639 L 1456.0003,396.06058 V 329.168 H 1474.9202 V 441.53519 H 1466.8987 L 1413.098,371.39261 V 440.09964 H 1394.1819 Z M 1487.8597,329.168 H 1579.6448 V 346.64847 H 1542.7933 V 440.02347 H 1523.1194 V 346.64847 H 1487.8597 Z M 1666.512,329.168 H 1687.3948 L 1713.6526,376.46097 1739.9847,329.168 H 1760.7952 L 1723.5648,394.54691 V 440.02347 H 1703.8909 V 394.54691 Z M 894.76592,344.67972 C 885.98832,344.67972 879.2542,348.213 874.5628,355.27542 869.8712,362.28738 867.52569,371.74522 867.52569,383.65042 867.52569,396.61499 869.72088,406.65279 874.10968,413.76565 878.49848,420.87851 884.88011,424.43558 893.25421,424.43558 903.09121,424.43558 910.58146,420.95373 915.72686,413.99222 920.92276,407.0307 923.51983,396.91766 923.51983,383.65042 923.51983,357.67084 913.93532,344.67972 894.76592,344.67972 Z M 1003.7308,344.67972 C 994.95327,344.67972 988.21904,348.213 983.52764,355.27542 978.83614,362.28738 976.48858,371.74522 976.48858,383.65042 976.48858,396.61499 978.68377,406.65279 983.07257,413.76565 987.46137,420.87851 993.8431,424.43558 1002.2171,424.43558 1012.0541,424.43558 1019.5462,420.95373 1024.6917,413.99222 1029.8876,407.0307 1032.4847,396.91766 1032.4847,383.65042 1032.4847,357.67084 1022.9003,344.67972 1003.7308,344.67972 Z M 1619.5218,345.81644 C 1617.4031,345.81644 1615.1842,345.96688 1612.8636,346.26956 V 377.06644 C 1616.4957,377.36911 1619.2708,377.51956 1621.1878,377.51956 1629.4105,377.51956 1635.4122,376.35959 1639.1956,374.03909 1643.0295,371.71858 1644.9456,367.20346 1644.9456,360.49417 1644.9456,355.04602 1642.9027,351.23757 1638.8167,349.06839 1634.7306,346.89923 1628.2994,345.81644 1619.5218,345.81644 Z M 1098.9964,345.89065 C 1096.8776,345.89066 1093.8748,346.06879 1089.9905,346.42191 V 422.08987 C 1093.1685,422.39254 1096.6009,422.543 1100.2835,422.543 1110.2213,422.543 1117.9887,418.93643 1123.5882,411.72269 1129.2381,404.50893 1132.0648,394.41968 1132.0648,381.45511 1132.0648,357.74559 1121.0411,345.89065 1098.9964,345.89065 Z M 1242.1624,345.89065 C 1240.0941,345.89066 1238.1009,346.01733 1236.1839,346.26956 V 381.75784 C 1239.5134,382.11096 1242.138,382.28714 1244.055,382.28714 1253.0342,382.28714 1259.5921,380.7986 1263.7288,377.8223 1267.8653,374.79555 1269.9319,369.9043 1269.9319,363.14456 1269.9319,351.64293 1260.6759,345.89065 1242.1624,345.89065 Z M 303.03741,361.55472 289.71905,402.49222 H 316.35577 Z M 1333.6448,361.55472 1320.3284,402.49222 H 1346.9632 Z" id="rect4629" inkscape:connector-curvature="0" clip-path="url(#clipPath4656)" sodipodi:nodetypes="sssssssssscscscscsscscscscssccscscccscsccssccccscsccccccccccccccccccssscccccccccsscssccsscssccccsccccccccccccccccccccccccccccccccccccccccccccccccccccccccccccccccccccccccccccccccccccccccccccccccccccccccccccccccccccccccccscssscssscssscsssccscscscccscsccccscsccccccccc" transform="translate(-182.88316,-1526.462)" />
  <path style="fill:#000000;stroke:none;stroke-width:1px;stroke-linecap:butt;stroke-linejoin:miter;stroke-opacity:1" d="M -288.45513,-1153.8604 -291.95621,-1156.3598 H -255.33324 L -255.36186,-1153.9181 Z" id="path4662" inkscape:connector-curvature="0" sodipodi:nodetypes="ccccc" />
  <path style="fill:#000000;stroke:none;stroke-width:1px;stroke-linecap:butt;stroke-linejoin:miter;stroke-opacity:1" d="M -288.45513,-1103.919 -291.95621,-1106.419 H -241.71284 L -241.74582,-1103.9834 Z" id="path4664" inkscape:connector-curvature="0" />
  <path style="fill:#000000;stroke:none;stroke-width:1px;stroke-linecap:butt;stroke-linejoin:miter;stroke-opacity:1" d="M -364.74934,-1132.9023 -361.24809,-1130.4015 -358.8487,-1138.1107 -362.67733,-1139.5133 Z" id="path4666" inkscape:connector-curvature="0" />
  <path style="fill:#000000;stroke:none;stroke-width:1px;stroke-linecap:butt;stroke-linejoin:miter;stroke-opacity:1" d="M -291.95621,-1156.3598 -291.94237,-1153.8423 -288.45513,-1153.8604 Z" id="path4668" inkscape:connector-curvature="0" sodipodi:nodetypes="cccc" />
  <path style="fill:#000000;stroke:none;stroke-width:1px;stroke-linecap:butt;stroke-linejoin:miter;stroke-opacity:1" d="M -115.32622,-1179.8136 -118.82655,-1182.3141 V -1156.0409 L -115.32622,-1155.4344 Z" id="path4670" inkscape:connector-curvature="0" />
  <path style="fill:#000000;stroke:none;stroke-width:1px;stroke-linecap:butt;stroke-linejoin:miter;stroke-opacity:1" d="M 34.195257,-1122.38 30.695377,-1124.8807 35.326537,-1137.6882 39.047087,-1135.7972 Z" id="path4672" inkscape:connector-curvature="0" />
  <rect id="rect12-3-4" style="display:inline;opacity:0.50400002;fill:#00b7a4;stroke-width:4.09322405" ry="22.766512" height="159.472" width="2074.8552" y="0" x="0" />
  <path inkscape:connector-curvature="0" id="path4526-9-8" d="M 1188.4614,22.378752 C 1173.9834,22.378752 1162.4067,27.853952 1153.7301,38.800652 1145.1038,49.696952 1140.7909,63.038652 1140.7909,78.828252 1140.7909,96.887848 1144.75,111.11315 1152.67,121.50495 1160.6405,131.89675 1172.067,137.09325 1186.9485,137.09325 1203.1416,137.09325 1215.6275,131.84745 1224.4051,121.35475 1233.2331,110.86195 1237.6468,96.686048 1237.6468,78.828252 1237.6468,60.970452 1233.4348,47.098952 1225.0103,37.211552 1216.5859,27.324252 1204.4022,22.378752 1188.4614,22.378752 Z M 1297.4246,22.378752 C 1282.9467,22.378752 1271.37,27.853952 1262.6933,38.800652 1254.0671,49.696952 1249.7522,63.038652 1249.7522,78.828252 1249.7522,96.887848 1253.7133,111.11315 1261.6332,121.50495 1269.6037,131.89675 1281.0302,137.09325 1295.9117,137.09325 1312.1048,137.09325 1324.5887,131.84745 1333.3663,121.35475 1342.1942,110.86195 1346.6101,96.686048 1346.6101,78.828252 1346.6101,60.970452 1342.3959,47.098952 1333.9715,37.211552 1325.547,27.324252 1313.3656,22.378752 1297.4246,22.378752 Z M 285.05384,22.454952 C 275.2169,22.454952 267.14455,25.279352 260.83882,30.929352 254.58355,36.579252 251.45668,43.692952 251.45668,52.268752 251.45668,56.859352 252.23734,61.045652 253.80116,64.829052 255.41542,68.612452 257.68657,71.891652 260.61242,74.666152 263.58872,77.390252 269.31486,80.896652 277.78976,85.184552 286.31508,89.422052 291.93831,93.256552 294.66239,96.686848 297.38646,100.11725 298.7483,103.72445 298.7483,107.50785 298.7483,115.57925 292.97282,119.61325 281.42073,119.61325 273.90432,119.61325 266.263,116.88965 258.49435,111.44145 L 251.23027,129.07165 C 259.55383,134.41885 268.8851,137.09325 279.22649,137.09325 291.13169,137.09325 300.61523,134.19365 307.67764,128.39235 314.79049,122.59115 318.34841,115.20075 318.34841,106.22135 318.34841,101.22725 317.49056,96.710748 315.7754,92.675052 314.06025,88.588952 311.56178,85.033152 308.2828,82.006352 305.00383,78.929152 299.65727,75.574952 292.24174,71.942952 278.16737,65.082252 271.13083,58.472552 271.13083,52.116352 271.13083,48.282552 272.36615,45.181352 274.838,42.810452 277.36029,40.389052 280.89035,39.177352 285.43047,39.177352 293.09823,39.177352 300.38781,41.650052 307.29888,46.593752 L 313.27857,29.642852 C 307.27553,24.850452 297.86707,22.454952 285.05384,22.454952 Z M 592.41977,22.833652 548.22801,135.20155 H 570.09643 L 577.81543,112.72795 H 615.80108 L 623.89674,135.20155 H 645.6149 L 601.04652,22.833652 Z M 1623.0259,22.833652 1578.8363,135.20155 H 1600.7046 L 1608.4237,112.72795 H 1646.4093 L 1654.505,135.20155 H 1676.221 L 1631.6526,22.833652 Z M 1916.8477,23.212452 C 1912.3075,23.212452 1906.3304,23.414052 1898.9148,23.817552 1891.4994,24.170752 1887.2359,24.346552 1886.1261,24.346552 V 135.20155 H 1906.5577 V 88.891752 C 1911.905,89.194352 1916.0656,89.372352 1919.0419,89.422852 L 1948.6293,135.20155 H 1971.3292 L 1938.5659,85.260752 C 1944.468,83.041152 1949.3599,79.232252 1953.2442,73.834552 1957.1285,68.436852 1959.0716,62.459752 1959.0716,55.901852 1959.0716,34.109252 1944.9964,23.212452 1916.8477,23.212452 Z M 1393.5991,23.591152 C 1389.5635,23.591152 1379.7024,23.867852 1364.0138,24.422752 V 135.20155 H 1388.6055 C 1426.9947,135.20155 1446.189,115.27585 1446.189,75.423652 1446.189,59.785452 1441.4474,47.250152 1431.9635,37.816752 1422.5301,28.332952 1409.7418,23.591152 1393.5991,23.591152 Z M 1533.2078,23.591152 C 1530.9882,23.591152 1523.3212,23.867852 1510.2053,24.422752 V 135.20155 H 1529.8793 V 94.416452 C 1533.6123,94.769552 1536.587,94.945452 1538.8067,94.945452 1568.7714,94.945452 1583.7559,82.234252 1583.7559,56.809552 1583.7559,45.408852 1579.694,37.034052 1571.5722,31.686852 1563.5009,26.289152 1550.7125,23.591152 1533.2078,23.591152 Z M 20.364621,24.346552 56.761194,136.71445 H 64.856834 L 88.390504,66.796852 112.60339,136.71445 H 120.70116 L 156.56873,24.346552 H 136.06088 L 115.32874,91.238352 92.779004,24.346552 H 84.152244 L 61.678674,91.238352 40.870351,24.346552 Z M 168.44771,24.346552 V 135.20155 H 238.36525 V 117.72165 H 188.12187 V 84.503252 H 224.74485 V 67.780852 H 188.12187 V 41.826452 H 239.19894 V 24.346552 Z M 325.98912,24.346552 V 41.826452 H 361.25154 V 135.20155 H 380.9257 V 41.826452 H 417.77508 V 24.346552 Z M 463.47973,24.346552 504.94614,136.71445 H 515.76711 L 559.04902,24.346552 H 537.86192 L 510.77346,99.259848 485.12171,24.346552 Z M 657.26749,24.346552 V 135.20155 H 727.03477 V 117.72165 H 676.94165 V 24.346552 Z M 742.92352,24.346552 V 135.20155 H 812.69084 V 117.72165 H 762.59764 V 24.346552 Z M 828.58164,24.346552 V 135.20155 H 898.49914 V 117.72165 H 848.25584 V 84.503252 H 884.87874 V 67.780852 H 848.25584 V 41.826452 H 899.33074 V 24.346552 Z M 905.68714,24.346552 943.06754,89.725452 V 135.20155 H 962.7417 V 89.725452 L 999.9698,24.346552 H 979.1615 L 952.8284,71.640352 926.57154,24.346552 Z M 1055.5878,24.346552 V 135.20155 H 1075.2619 V 84.503252 H 1114.2315 V 67.780852 H 1075.2619 V 41.826452 H 1128.6073 V 24.346552 Z M 1687.8757,24.346552 V 135.27775 H 1706.7924 V 66.570452 L 1760.5927,136.71445 H 1768.6143 V 24.346552 H 1749.6955 V 91.238352 L 1697.3341,24.346552 Z M 1781.5534,24.346552 V 41.826452 H 1816.8136 V 135.20155 H 1836.4878 V 41.826452 H 1873.3393 V 24.346552 Z M 1960.2057,24.346552 1997.5862,89.725452 V 135.20155 H 2017.2603 V 89.725452 L 2054.4906,24.346552 H 2033.6802 L 2007.347,71.640352 1981.0902,24.346552 Z M 1188.4614,39.858652 C 1207.6308,39.858652 1217.2151,52.848652 1217.2151,78.828252 1217.2151,92.095452 1214.6179,102.20955 1209.422,109.17105 1204.2766,116.13255 1196.7855,119.61325 1186.9485,119.61325 1178.5744,119.61325 1172.1921,116.05745 1167.8033,108.94465 1163.4145,101.83175 1161.2206,91.792752 1161.2206,78.828252 1161.2206,66.923052 1163.5667,57.465252 1168.2583,50.453252 1172.9497,43.390852 1179.6838,39.858652 1188.4614,39.858652 Z M 1297.4246,39.858652 C 1316.5941,39.858652 1326.1783,52.848652 1326.1783,78.828252 1326.1783,92.095452 1323.5813,102.20955 1318.3854,109.17105 1313.2399,116.13255 1305.7487,119.61325 1295.9117,119.61325 1287.5377,119.61325 1281.1554,116.05745 1276.7666,108.94465 1272.3778,101.83175 1270.1839,91.792752 1270.1839,78.828252 1270.1839,66.923052 1272.53,57.465252 1277.2215,50.453252 1281.9129,43.390852 1288.6471,39.858652 1297.4246,39.858652 Z M 1913.2166,40.994952 C 1921.9942,40.994952 1928.426,42.077952 1932.5121,44.247152 1936.5981,46.416352 1938.6399,50.225152 1938.6399,55.673352 1938.6399,62.382652 1936.7247,66.897052 1932.8908,69.217552 1929.1074,71.538052 1923.1046,72.698252 1914.8819,72.698252 1912.9649,72.698252 1910.1898,72.548152 1906.5577,72.245452 V 41.447752 C 1908.8783,41.145052 1911.0979,40.994952 1913.2166,40.994952 Z M 1392.6914,41.068952 C 1414.7361,41.068952 1425.7595,52.924452 1425.7595,76.633952 1425.7595,89.598552 1422.9329,99.686848 1417.283,106.90065 1411.6835,114.11435 1403.9157,117.72165 1393.9779,117.72165 1390.2953,117.72165 1386.8639,117.57145 1383.6859,117.26885 V 41.600052 C 1387.5702,41.246952 1390.5726,41.068952 1392.6914,41.068952 Z M 1535.857,41.068952 C 1554.3705,41.068952 1563.6268,46.820852 1563.6268,58.322452 1563.6268,65.082252 1561.5594,69.974152 1557.4229,73.000852 1553.2862,75.977152 1546.7279,77.465552 1537.7487,77.465552 1535.8317,77.465552 1533.2088,77.289652 1529.8793,76.936552 V 41.447752 C 1531.7963,41.195552 1533.7887,41.068952 1535.857,41.068952 Z M 596.73206,56.733452 610.0499,97.670848 H 583.41427 Z M 1627.3404,56.733452 1640.6581,97.670848 H 1614.0225 Z" style="display:inline;opacity:1;fill:#33b7d2;stroke-width:3.63191772" />
  <path style="display:inline;opacity:1;fill:#000000;fill-opacity:1;stroke:#000000;stroke-width:2.30200005;stroke-linecap:round;stroke-linejoin:round;stroke-miterlimit:4;stroke-dasharray:none;stroke-dashoffset:0;stroke-opacity:1" d="M 211.57227,1465.4863 C 208.60441,1465.4863 206.21484,1473.2774 206.21484,1482.9551 V 1743.998 C 206.21484,1753.6757 208.60441,1761.4668 211.57227,1761.4668 H 2369.7617 C 2372.7296,1761.4668 2375.1172,1753.6757 2375.1172,1743.998 V 1482.9551 C 2375.1172,1473.2774 2372.7296,1465.4863 2369.7617,1465.4863 Z M 1427.1445,1553.6934 C 1443.0853,1553.6934 1455.269,1558.6381 1463.6934,1568.5254 1472.1179,1578.4128 1476.3301,1592.2848 1476.3301,1610.1426 1476.3301,1628.0004 1471.9159,1642.1771 1463.0879,1652.6699 1454.3103,1663.1626 1441.824,1668.4082 1425.6309,1668.4082 1410.7494,1668.4082 1399.324,1663.2102 1391.3535,1652.8184 1383.4335,1642.4266 1379.4727,1628.2022 1379.4727,1610.1426 1379.4727,1594.353 1383.7858,1581.0115 1392.4121,1570.1152 1401.0887,1559.1685 1412.6665,1553.6934 1427.1445,1553.6934 Z M 1536.1074,1553.6934 C 1552.0484,1553.6934 1564.2298,1558.6381 1572.6543,1568.5254 1581.0787,1578.4128 1585.293,1592.2848 1585.293,1610.1426 1585.293,1628.0004 1580.8767,1642.1771 1572.0488,1652.6699 1563.2712,1663.1626 1550.7868,1668.4082 1534.5938,1668.4082 1519.7123,1668.4082 1508.2869,1663.2102 1500.3164,1652.8184 1492.3965,1642.4266 1488.4355,1628.2022 1488.4355,1610.1426 1488.4355,1594.353 1492.7508,1581.0115 1501.377,1570.1152 1510.0537,1559.1685 1521.6295,1553.6934 1536.1074,1553.6934 Z M 523.73633,1553.7695 C 536.54956,1553.7695 545.9579,1556.1646 551.96094,1560.957 L 545.98242,1577.9082 C 539.07135,1572.9645 531.78104,1570.4922 524.11328,1570.4922 519.57316,1570.4922 516.04377,1571.7036 513.52148,1574.125 511.04963,1576.4959 509.81445,1579.5959 509.81445,1583.4297 509.81445,1589.7859 516.84946,1596.3971 530.92383,1603.2578 538.33936,1606.8898 543.68587,1610.2431 546.96484,1613.3203 550.24382,1616.3471 552.74383,1619.9041 554.45898,1623.9902 556.17414,1628.0259 557.03125,1632.5411 557.03125,1637.5352 557.03125,1646.5146 553.47222,1653.9058 546.35938,1659.707 539.29697,1665.5083 529.8134,1668.4082 517.9082,1668.4082 507.56681,1668.4082 498.23567,1665.7339 489.91211,1660.3867 L 497.17773,1642.7559 C 504.94638,1648.2041 512.58711,1650.9277 520.10352,1650.9277 531.65561,1650.9277 537.43164,1646.8937 537.43164,1638.8223 537.43164,1635.0389 536.06977,1631.4324 533.3457,1628.002 530.62162,1624.5717 524.99798,1620.7355 516.47266,1616.498 507.99776,1612.2101 502.27122,1608.7046 499.29492,1605.9805 496.36907,1603.206 494.09864,1599.926 492.48438,1596.1426 490.92055,1592.3592 490.13867,1588.1726 490.13867,1583.582 490.13867,1575.0062 493.26621,1567.894 499.52148,1562.2441 505.82721,1556.5941 513.89939,1553.7695 523.73633,1553.7695 Z M 831.10156,1554.1484 H 839.72852 L 884.29688,1666.5156 H 862.58008 L 854.48438,1644.043 H 816.49805 L 808.7793,1666.5156 H 786.91016 Z M 1861.709,1554.1484 H 1870.3359 L 1914.9043,1666.5156 H 1893.1875 L 1885.0918,1644.043 H 1847.1055 L 1839.3867,1666.5156 H 1817.5195 Z M 2155.5312,1554.5273 C 2183.6799,1554.5273 2197.7539,1565.4242 2197.7539,1587.2168 2197.7539,1593.7747 2195.812,1599.7507 2191.9277,1605.1484 2188.0434,1610.5461 2183.1501,1614.3546 2177.248,1616.5742 L 2210.0117,1666.5156 H 2187.3125 L 2157.7246,1620.7363 C 2154.7483,1620.6858 2150.5875,1620.5077 2145.2402,1620.2051 V 1666.5156 H 2124.8086 V 1555.6602 C 2125.9184,1555.6602 2130.1823,1555.4841 2137.5977,1555.1309 2145.0133,1554.7274 2150.9911,1554.5273 2155.5312,1554.5273 Z M 1632.2812,1554.9062 C 1648.424,1554.9062 1661.2131,1559.6471 1670.6465,1569.1309 1680.1304,1578.5643 1684.8711,1591.1001 1684.8711,1606.7383 1684.8711,1646.5905 1665.6783,1666.5156 1627.2891,1666.5156 H 1602.6973 V 1555.7363 C 1618.3859,1555.1814 1628.2457,1554.9062 1632.2812,1554.9062 Z M 1771.8906,1554.9062 C 1789.3953,1554.9062 1802.1846,1557.6043 1810.2559,1563.002 1818.3777,1568.3492 1822.4395,1576.7223 1822.4395,1588.123 1822.4395,1613.5477 1807.4549,1626.2598 1777.4902,1626.2598 1775.2705,1626.2598 1772.2955,1626.0836 1768.5625,1625.7305 V 1666.5156 H 1748.8887 V 1555.7363 C 1762.0046,1555.1814 1769.671,1554.9062 1771.8906,1554.9062 Z M 259.04688,1555.6602 H 279.55273 L 300.36133,1622.5527 322.83398,1555.6602 H 331.46094 L 354.01172,1622.5527 374.74414,1555.6602 H 395.25195 L 359.38477,1668.0293 H 351.28516 L 327.07227,1598.1113 303.53906,1668.0293 H 295.44336 Z M 407.13086,1555.6602 H 477.88086 V 1573.1406 H 426.80469 V 1599.0957 H 463.42773 V 1615.8184 H 426.80469 V 1649.0352 H 477.04883 V 1666.5156 H 407.13086 Z M 564.67188,1555.6602 H 656.45703 V 1573.1406 H 619.60742 V 1666.5156 H 599.93359 V 1573.1406 H 564.67188 Z M 702.16211,1555.6602 H 723.80469 L 749.45703,1630.5742 776.54492,1555.6602 H 797.73242 L 754.44922,1668.0293 H 743.62891 Z M 895.94922,1555.6602 H 915.625 V 1649.0352 H 965.7168 V 1666.5156 H 895.94922 Z M 981.60547,1555.6602 H 1001.2812 V 1649.0352 H 1051.373 V 1666.5156 H 981.60547 Z M 1067.2637,1555.6602 H 1138.0137 V 1573.1406 H 1086.9395 V 1599.0957 H 1123.5605 V 1615.8184 H 1086.9395 V 1649.0352 H 1137.1816 V 1666.5156 H 1067.2637 Z M 1144.3691,1555.6602 H 1165.2539 L 1191.5117,1602.9551 1217.8438,1555.6602 H 1238.6523 L 1201.4238,1621.0391 V 1666.5156 H 1181.75 V 1621.0391 Z M 1294.2695,1555.6602 H 1367.2891 V 1573.1406 H 1313.9453 V 1599.0957 H 1352.9141 V 1615.8184 H 1313.9453 V 1666.5156 H 1294.2695 Z M 1926.5586,1555.6602 H 1936.0176 L 1988.3789,1622.5527 V 1555.6602 H 2007.2969 V 1668.0293 H 1999.2754 L 1945.4746,1597.8848 V 1666.5918 H 1926.5586 Z M 2020.2363,1555.6602 H 2112.0215 V 1573.1406 H 2075.1699 V 1666.5156 H 2055.4961 V 1573.1406 H 2020.2363 Z M 2198.8887,1555.6602 H 2219.7734 L 2246.0293,1602.9551 2272.3633,1555.6602 H 2293.1738 L 2255.9434,1621.0391 V 1666.5156 H 2236.2695 V 1621.0391 Z M 1427.1445,1571.1738 C 1418.3669,1571.1738 1411.6328,1574.7052 1406.9414,1581.7676 1402.2498,1588.7796 1399.9023,1598.2374 1399.9023,1610.1426 1399.9023,1623.1071 1402.0975,1633.1469 1406.4863,1640.2598 1410.8751,1647.3726 1417.2568,1650.9277 1425.6309,1650.9277 1435.4679,1650.9277 1442.9601,1647.4459 1448.1055,1640.4844 1453.3014,1633.5229 1455.8984,1623.4098 1455.8984,1610.1426 1455.8984,1584.163 1446.3139,1571.1738 1427.1445,1571.1738 Z M 1536.1074,1571.1738 C 1527.3299,1571.1738 1520.5957,1574.7052 1515.9043,1581.7676 1511.2128,1588.7796 1508.8672,1598.2374 1508.8672,1610.1426 1508.8672,1623.1071 1511.0604,1633.1469 1515.4492,1640.2598 1519.838,1647.3726 1526.2197,1650.9277 1534.5938,1650.9277 1544.4307,1650.9277 1551.9229,1647.4459 1557.0684,1640.4844 1562.2643,1633.5229 1564.8613,1623.4098 1564.8613,1610.1426 1564.8613,1584.163 1555.2769,1571.1738 1536.1074,1571.1738 Z M 2151.8984,1572.3086 C 2149.7797,1572.3086 2147.5608,1572.459 2145.2402,1572.7617 V 1603.5605 C 2148.8723,1603.8632 2151.6475,1604.0117 2153.5645,1604.0117 2161.7872,1604.0117 2167.7908,1602.8518 2171.5742,1600.5312 2175.4081,1598.2107 2177.3223,1593.6976 2177.3223,1586.9883 2177.3223,1581.5401 2175.2813,1577.7297 2171.1953,1575.5605 2167.1092,1573.3913 2160.676,1572.3086 2151.8984,1572.3086 Z M 1631.375,1572.3828 C 1629.2562,1572.3828 1626.2534,1572.561 1622.3691,1572.9141 V 1648.584 C 1625.5471,1648.8866 1628.9776,1649.0352 1632.6602,1649.0352 1642.598,1649.0352 1650.3653,1645.4285 1655.9648,1638.2148 1661.6147,1631.001 1664.4414,1620.9119 1664.4414,1607.9473 1664.4414,1584.2378 1653.4197,1572.3828 1631.375,1572.3828 Z M 1774.5391,1572.3828 C 1772.4708,1572.3828 1770.4795,1572.5095 1768.5625,1572.7617 V 1608.25 C 1771.892,1608.6031 1774.5146,1608.7793 1776.4316,1608.7793 1785.4108,1608.7793 1791.9688,1607.2908 1796.1055,1604.3145 1800.242,1601.2878 1802.3086,1596.3965 1802.3086,1589.6367 1802.3086,1578.1351 1793.0526,1572.3828 1774.5391,1572.3828 Z M 835.41406,1588.0469 822.09766,1628.9844 H 848.73242 Z M 1866.0234,1588.0469 1852.7051,1628.9844 H 1879.3398 Z" id="rect4693" inkscape:connector-curvature="0" clip-path="url(#clipPath4700)" transform="translate(-238.68268,-1531.3142)" />
</svg>
