<svg width="2075" height="159.5" version="1.1" viewBox="0 0 549 42.19" xmlns="http://www.w3.org/2000/svg">
 <defs>
  <clipPath id="clipPath4700">
   <path d="m1427 1554c-14.48 0-26.05 5.475-34.73 16.42-8.626 10.9-12.94 24.24-12.94 40.03 0 18.06 3.959 32.28 11.88 42.68 7.97 10.39 19.4 15.59 34.28 15.59 16.19 0 28.68-5.246 37.46-15.74 8.828-10.49 13.24-24.67 13.24-42.53s-4.212-31.73-12.64-41.62c-8.424-9.887-20.61-14.83-36.55-14.83zm109 0c-14.48 0-26.05 5.475-34.73 16.42-8.626 10.9-12.94 24.24-12.94 40.03 0 18.06 3.961 32.28 11.88 42.68 7.97 10.39 19.4 15.59 34.28 15.59 16.19 0 28.68-5.246 37.45-15.74 8.828-10.49 13.24-24.67 13.24-42.53s-4.214-31.73-12.64-41.62c-8.424-9.887-20.61-14.83-36.55-14.83zm-1012 0.0762c-9.837 0-17.91 2.824-24.22 8.474-6.255 5.65-9.382 12.76-9.382 21.34 0 4.591 0.7807 8.777 2.344 12.56 1.614 3.783 3.885 7.063 6.811 9.837 2.976 2.724 8.702 6.23 17.18 10.52 8.525 4.238 14.15 8.072 16.87 11.5 2.724 3.43 4.086 7.038 4.086 10.82 0 8.071-5.775 12.11-17.33 12.11-7.516 0-15.16-2.724-22.93-8.172l-7.264 17.63c8.324 5.347 17.65 8.022 28 8.022 11.91 0 21.39-2.9 28.45-8.701 7.113-5.801 10.67-13.19 10.67-22.17 0-4.994-0.8578-9.511-2.573-13.55-1.715-4.086-4.214-7.642-7.493-10.67-3.279-3.077-8.626-6.431-16.04-10.06-14.07-6.861-21.11-13.47-21.11-19.83 0-3.834 1.235-6.935 3.707-9.306 2.522-2.421 6.052-3.633 10.59-3.633 7.668 0 14.96 2.473 21.87 7.416l5.98-16.95c-6.003-4.792-15.41-7.188-28.22-7.188zm307.4 0.3787-44.19 112.4h21.87l7.719-22.47h37.99l8.096 22.47h21.72l-44.57-112.4zm1031 0-44.19 112.4h21.87l7.719-22.47h37.99l8.096 22.47h21.72l-44.57-112.4zm293.8 0.3788c-4.54 0-10.52 0.2016-17.93 0.6051-7.415 0.3532-11.68 0.529-12.79 0.529v110.9h20.43v-46.31c5.347 0.3026 9.508 0.4806 12.48 0.5311l29.59 45.78h22.7l-32.76-49.94c5.902-2.22 10.79-6.028 14.68-11.43s5.827-11.37 5.827-17.93c0-21.79-14.08-32.69-42.22-32.69zm-523.2 0.3787c-4.036 0-13.9 0.2767-29.59 0.8316v110.8h24.59c38.39 0 57.58-19.93 57.58-59.78 0-15.64-4.742-28.17-14.23-37.61-9.433-9.484-22.22-14.23-38.36-14.23zm139.6 0c-2.22 0-9.887 0.2767-23 0.8316v110.8h19.67v-40.79c3.733 0.3531 6.708 0.529 8.927 0.529 29.96 0 44.95-12.71 44.95-38.14 0-11.4-4.062-19.78-12.18-25.12-8.071-5.398-20.86-8.096-38.36-8.096zm-1513 0.7554 36.4 112.4h8.096l23.53-69.92 24.21 69.92h8.098l35.87-112.4h-20.51l-20.73 66.89-22.55-66.89h-8.627l-22.47 66.89-20.81-66.89zm148.1 0v110.9h69.92v-17.48h-50.24v-33.22h36.62v-16.72h-36.62v-25.95h51.08v-17.48zm157.5 0v17.48h35.26v93.38h19.67v-93.38h36.85v-17.48zm137.5 0 41.47 112.4h10.82l43.28-112.4h-21.19l-27.09 74.91-25.65-74.91zm193.8 0v110.9h69.77v-17.48h-50.09v-93.38zm85.66 0v110.9h69.77v-17.48h-50.09v-93.38zm85.66 0v110.9h69.92v-17.48h-50.24v-33.22h36.62v-16.72h-36.62v-25.95h51.07v-17.48zm77.11 0 37.38 65.38v45.48h19.67v-45.48l37.23-65.38h-20.81l-26.33 47.29-26.26-47.29zm149.9 0v110.9h19.67v-50.7h38.97v-16.72h-38.97v-25.95h53.35v-17.48zm632.3 0v110.9h18.92v-68.71l53.8 70.14h8.022v-112.4h-18.92v66.89l-52.36-66.89zm93.68 0v17.48h35.26v93.38h19.67v-93.38h36.85v-17.48zm178.7 0 37.38 65.38v45.48h19.67v-45.48l37.23-65.38h-20.81l-26.33 47.29-26.26-47.29zm-771.7 15.51c19.17 0 28.75 12.99 28.75 38.97 0 13.27-2.597 23.38-7.793 30.34-5.145 6.962-12.64 10.44-22.47 10.44-8.374 0-14.76-3.556-19.15-10.67-4.389-7.113-6.583-17.15-6.583-30.12 0-11.91 2.346-21.36 7.038-28.38 4.691-7.062 11.43-10.59 20.2-10.59zm109 0c19.17 0 28.75 12.99 28.75 38.97 0 13.27-2.597 23.38-7.793 30.34-5.146 6.962-12.64 10.44-22.47 10.44-8.374 0-14.76-3.556-19.15-10.67-4.389-7.113-6.583-17.15-6.583-30.12 0-11.91 2.346-21.36 7.038-28.38 4.691-7.062 11.43-10.59 20.2-10.59zm615.8 1.136c8.778 0 15.21 1.083 19.3 3.252 4.086 2.169 6.128 5.978 6.128 11.43 0 6.709-1.915 11.22-5.749 13.54-3.783 2.32-9.786 3.481-18.01 3.481-1.917 0-4.692-0.1501-8.324-0.4528v-30.8c2.321-0.3027 4.54-0.4528 6.659-0.4528zm-520.5 0.074c22.04 0 33.07 11.86 33.07 35.56 0 12.96-2.827 23.05-8.476 30.27-5.6 7.214-13.37 10.82-23.31 10.82-3.683 0-7.114-0.1502-10.29-0.4528v-75.67c3.884-0.3531 6.887-0.5311 9.006-0.5311zm143.2 0c18.51 0 27.77 5.752 27.77 17.25 0 6.76-2.067 11.65-6.204 14.68-4.137 2.976-10.7 4.465-19.67 4.465-1.917 0-4.54-0.1759-7.869-0.529v-35.49c1.917-0.2522 3.909-0.3788 5.978-0.3788zm-939.1 15.66 13.32 40.94h-26.64zm1031 0 13.32 40.94h-26.64z" style="fill:#ff2a2a;opacity:.4087;stroke-width:3.632"/>
  </clipPath>
  <filter id="filter5301" x="-.002046" y="-.01499" width="1.004" height="1.03" style="color-interpolation-filters:sRGB">
   <feGaussianBlur stdDeviation="1.8486621"/>
  </filter>
 </defs>
 <g transform="translate(603.3 -150.4)">
  <rect x="-603.3" y="150.4" width="549" height="42.19" ry="6.024" style="fill:#00b7a4;opacity:.504;stroke-width:1.083"/>
  <path d="m-288.9 156.3c-3.831 0-6.894 1.449-9.189 4.345-2.282 2.883-3.424 6.413-3.424 10.59 0 4.778 1.048 8.542 3.143 11.29 2.109 2.75 5.132 4.124 9.07 4.124 4.284 0 7.588-1.388 9.91-4.164 2.336-2.776 3.504-6.527 3.504-11.25 0-4.725-1.114-8.395-3.343-11.01-2.229-2.616-5.453-3.925-9.67-3.925zm28.83 0c-3.831 0-6.894 1.449-9.189 4.345-2.282 2.883-3.424 6.413-3.424 10.59 0 4.778 1.048 8.542 3.144 11.29 2.109 2.75 5.132 4.124 9.07 4.124 4.284 0 7.587-1.388 9.91-4.164 2.336-2.776 3.504-6.527 3.504-11.25 0-4.725-1.115-8.395-3.344-11.01-2.229-2.616-5.452-3.925-9.67-3.925zm-267.9 0.02016c-2.603 0-4.738 0.7473-6.407 2.242-1.655 1.495-2.482 3.377-2.482 5.646 0 1.215 0.2066 2.322 0.6203 3.323 0.4271 1.001 1.028 1.869 1.802 2.603 0.7875 0.7208 2.303 1.648 4.545 2.783 2.256 1.121 3.743 2.136 4.464 3.043 0.7207 0.9076 1.081 1.862 1.081 2.863 0 2.136-1.528 3.203-4.585 3.203-1.989 0-4.01-0.7206-6.066-2.162l-1.922 4.665c2.202 1.415 4.671 2.122 7.407 2.122 3.15 0 5.659-0.7672 7.528-2.302 1.882-1.535 2.823-3.49 2.823-5.866 0-1.321-0.227-2.516-0.6808-3.584-0.4538-1.081-1.115-2.022-1.982-2.823-0.8676-0.8142-2.282-1.702-4.244-2.663-3.724-1.815-5.586-3.564-5.586-5.246 0-1.014 0.3268-1.835 0.9808-2.462 0.6674-0.6407 1.601-0.9613 2.803-0.9613 2.029 0 3.957 0.6542 5.786 1.962l1.582-4.485c-1.588-1.268-4.078-1.902-7.468-1.902zm81.32 0.1002-11.69 29.73h5.786l2.042-5.946h10.05l2.142 5.946h5.746l-11.79-29.73zm272.7 0-11.69 29.73h5.786l2.042-5.946h10.05l2.142 5.946h5.746l-11.79-29.73zm77.74 0.1002c-1.201 0-2.783 0.05334-4.745 0.1601-1.962 0.09345-3.09 0.14-3.384 0.14v29.33h5.406v-12.25c1.415 0.08007 2.516 0.1272 3.303 0.1405l7.828 12.11h6.006l-8.669-13.21c1.562-0.5873 2.856-1.595 3.884-3.023s1.542-3.01 1.542-4.745c0-5.766-3.724-8.649-11.17-8.649zm-138.4 0.1002c-1.068 0-3.677 0.07321-7.828 0.22v29.31h6.507c10.16 0 15.24-5.272 15.24-15.82 0-4.138-1.255-7.454-3.764-9.95-2.496-2.509-5.88-3.764-10.15-3.764zm36.94 0c-0.5873 0-2.616 0.07321-6.086 0.22v29.31h5.205v-10.79c0.9877 0.09342 1.775 0.14 2.362 0.14 7.928 0 11.89-3.363 11.89-10.09 0-3.016-1.075-5.232-3.224-6.647-2.136-1.428-5.519-2.142-10.15-2.142zm-400.3 0.1999 9.63 29.73h2.142l6.227-18.5 6.406 18.5h2.143l9.49-29.73h-5.426l-5.485 17.7-5.966-17.7h-2.282l-5.946 17.7-5.506-17.7zm39.18 0v29.33h18.5v-4.625h-13.29v-8.789h9.69v-4.424h-9.69v-6.867h13.51v-4.625zm41.68 0v4.625h9.33v24.71h5.205v-24.71h9.75v-4.625zm36.38 0 10.97 29.73h2.863l11.45-29.73h-5.606l-7.167 19.82-6.787-19.82zm51.27 0v29.33h18.46v-4.625h-13.25v-24.71zm22.66 0v29.33h18.46v-4.625h-13.25v-24.71zm22.66 0v29.33h18.5v-4.625h-13.29v-8.789h9.69v-4.424h-9.69v-6.867h13.51v-4.625zm20.4 0 9.89 17.3v12.03h5.205v-12.03l9.85-17.3h-5.506l-6.967 12.51-6.947-12.51zm39.66 0v29.33h5.205v-13.41h10.31v-4.424h-10.31v-6.867h14.11v-4.625zm167.3 0v29.35h5.005v-18.18l14.23 18.56h2.122v-29.73h-5.006v17.7l-13.85-17.7zm24.79 0v4.625h9.329v24.71h5.205v-24.71h9.75v-4.625zm47.27 0 9.89 17.3v12.03h5.205v-12.03l9.851-17.3h-5.506l-6.967 12.51-6.947-12.51zm-204.2 4.104c5.072 0 7.608 3.437 7.608 10.31 0 3.51-0.6872 6.186-2.062 8.028-1.361 1.842-3.343 2.763-5.946 2.763-2.216 0-3.904-0.9408-5.066-2.823-1.161-1.882-1.742-4.538-1.742-7.968 0-3.15 0.6207-5.652 1.862-7.508 1.241-1.869 3.023-2.803 5.345-2.803zm28.83 0c5.072 0 7.608 3.437 7.608 10.31 0 3.51-0.6871 6.186-2.062 8.028-1.361 1.842-3.343 2.763-5.946 2.763-2.216 0-3.904-0.9408-5.065-2.823-1.161-1.882-1.742-4.538-1.742-7.968 0-3.15 0.6207-5.652 1.862-7.508 1.241-1.869 3.023-2.803 5.345-2.803zm162.9 0.3006c2.322 0 4.024 0.2865 5.105 0.8605 1.081 0.5739 1.621 1.582 1.621 3.023 0 1.775-0.5067 2.97-1.521 3.584-1.001 0.614-2.589 0.9209-4.765 0.9209-0.5072 0-1.241-0.03971-2.202-0.1198v-8.149c0.614-0.08009 1.201-0.1198 1.762-0.1198zm-137.7 0.01958c5.833 0 8.749 3.137 8.749 9.41 0 3.43-0.7479 6.099-2.243 8.008-1.482 1.909-3.537 2.863-6.166 2.863-0.9744 0-1.882-0.03974-2.723-0.1198v-20.02c1.028-0.09343 1.822-0.1405 2.383-0.1405zm37.88 0c4.898 0 7.347 1.522 7.347 4.565 0 1.789-0.547 3.083-1.641 3.884-1.094 0.7875-2.83 1.181-5.205 1.181-0.5072 0-1.201-0.04654-2.082-0.14v-9.39c0.5072-0.06673 1.034-0.1002 1.582-0.1002zm-248.5 4.145 3.524 10.83h-7.047zm272.7 0 3.524 10.83h-7.047z" style="fill:#33b7d2;opacity:.9;stroke-width:.9609"/>
  <path transform="matrix(.2646 0 0 .2646 -666.5 -254.7)" d="m211.6 1465c-2.968 0-5.357 7.791-5.357 17.47v261c0 9.678 2.39 17.47 5.357 17.47h2158c2.968 0 5.356-7.791 5.356-17.47v-261c0-9.678-2.388-17.47-5.356-17.47zm1216 88.21c15.94 0 28.12 4.945 36.55 14.83 8.424 9.887 12.64 23.76 12.64 41.62s-4.414 32.03-13.24 42.53c-8.778 10.49-21.26 15.74-37.46 15.74-14.88 0-26.31-5.198-34.28-15.59-7.92-10.39-11.88-24.62-11.88-42.68 0-15.79 4.313-29.13 12.94-40.03 8.677-10.95 20.25-16.42 34.73-16.42zm109 0c15.94 0 28.12 4.945 36.55 14.83 8.424 9.887 12.64 23.76 12.64 41.62s-4.416 32.03-13.24 42.53c-8.778 10.49-21.26 15.74-37.46 15.74-14.88 0-26.31-5.198-34.28-15.59-7.92-10.39-11.88-24.62-11.88-42.68 0-15.79 4.315-29.13 12.94-40.03 8.677-10.95 20.25-16.42 34.73-16.42zm-1012 0.0761c12.81 0 22.22 2.395 28.22 7.188l-5.979 16.95c-6.911-4.944-14.2-7.416-21.87-7.416-4.54 0-8.07 1.211-10.59 3.633-2.472 2.371-3.707 5.471-3.707 9.305 0 6.356 7.035 12.97 21.11 19.83 7.416 3.632 12.76 6.985 16.04 10.06 3.279 3.027 5.779 6.584 7.494 10.67 1.715 4.036 2.572 8.551 2.572 13.54 0 8.979-3.559 16.37-10.67 22.17-7.062 5.801-16.55 8.701-28.45 8.701-10.34 0-19.67-2.674-28-8.022l7.266-17.63c7.769 5.448 15.41 8.172 22.93 8.172 11.55 0 17.33-4.034 17.33-12.11 0-3.783-1.362-7.39-4.086-10.82-2.724-3.43-8.348-7.266-16.87-11.5-8.475-4.288-14.2-7.793-17.18-10.52-2.926-2.774-5.196-6.054-6.811-9.838-1.564-3.783-2.346-7.97-2.346-12.56 0-8.576 3.128-15.69 9.383-21.34 6.306-5.65 14.38-8.475 24.21-8.475zm307.4 0.3789h8.627l44.57 112.4h-21.72l-8.096-22.47h-37.99l-7.719 22.47h-21.87zm1031 0h8.627l44.57 112.4h-21.72l-8.096-22.47h-37.99l-7.719 22.47h-21.87zm293.8 0.3789c28.15 0 42.22 10.9 42.22 32.69 0 6.558-1.942 12.53-5.826 17.93s-8.778 9.206-14.68 11.43l32.76 49.94h-22.7l-29.59-45.78c-2.976-0.0505-7.137-0.2286-12.48-0.5312v46.31h-20.43v-110.9c1.11 0 5.374-0.1761 12.79-0.5293 7.416-0.4035 13.39-0.6036 17.93-0.6036zm-523.2 0.3789c16.14 0 28.93 4.741 38.37 14.22 9.484 9.433 14.22 21.97 14.22 37.61 0 39.85-19.19 59.78-57.58 59.78h-24.59v-110.8c15.69-0.5549 25.55-0.8301 29.58-0.8301zm139.6 0c17.5 0 30.29 2.698 38.37 8.096 8.122 5.347 12.18 13.72 12.18 25.12 0 25.42-14.98 38.14-44.95 38.14-2.22 0-5.195-0.1762-8.928-0.5293v40.79h-19.67v-110.8c13.12-0.5549 20.78-0.8301 23-0.8301zm-1513 0.754h20.51l20.81 66.89 22.47-66.89h8.627l22.55 66.89 20.73-66.89h20.51l-35.87 112.4h-8.1l-24.21-69.92-23.53 69.92h-8.096zm148.1 0h70.75v17.48h-51.08v25.96h36.62v16.72h-36.62v33.22h50.24v17.48h-69.92zm157.5 0h91.79v17.48h-36.85v93.38h-19.67v-93.38h-35.26zm137.5 0h21.64l25.65 74.91 27.09-74.91h21.19l-43.28 112.4h-10.82zm193.8 0h19.68v93.38h50.09v17.48h-69.77zm85.66 0h19.68v93.38h50.09v17.48h-69.77zm85.66 0h70.75v17.48h-51.07v25.96h36.62v16.72h-36.62v33.22h50.24v17.48h-69.92zm77.11 0h20.88l26.26 47.29 26.33-47.29h20.81l-37.23 65.38v45.48h-19.67v-45.48zm149.9 0h73.02v17.48h-53.34v25.96h38.97v16.72h-38.97v50.7h-19.68zm632.3 0h9.459l52.36 66.89v-66.89h18.92v112.4h-8.022l-53.8-70.14v68.71h-18.92zm93.68 0h91.79v17.48h-36.85v93.38h-19.67v-93.38h-35.26zm178.7 0h20.88l26.26 47.29 26.33-47.29h20.81l-37.23 65.38v45.48h-19.67v-45.48zm-771.7 15.51c-8.778 0-15.51 3.531-20.2 10.59-4.692 7.012-7.039 16.47-7.039 28.38 0 12.96 2.195 23 6.584 30.12 4.389 7.113 10.77 10.67 19.14 10.67 9.837 0 17.33-3.482 22.47-10.44 5.196-6.962 7.793-17.07 7.793-30.34 0-25.98-9.584-38.97-28.75-38.97zm109 0c-8.778 0-15.51 3.531-20.2 10.59-4.692 7.012-7.037 16.47-7.037 28.38 0 12.96 2.193 23 6.582 30.12 4.389 7.113 10.77 10.67 19.14 10.67 9.837 0 17.33-3.482 22.47-10.44 5.196-6.962 7.793-17.07 7.793-30.34 0-25.98-9.584-38.97-28.75-38.97zm615.8 1.135c-2.119 0-4.338 0.1504-6.658 0.4531v30.8c3.632 0.3027 6.407 0.4512 8.324 0.4512 8.223 0 14.23-1.16 18.01-3.48 3.834-2.32 5.748-6.834 5.748-13.54 0-5.448-2.041-9.259-6.127-11.43-4.086-2.169-10.52-3.252-19.3-3.252zm-520.5 0.0742c-2.119 0-5.122 0.1782-9.006 0.5313v75.67c3.178 0.3026 6.608 0.4512 10.29 0.4512 9.938 0 17.71-3.607 23.3-10.82 5.65-7.214 8.477-17.3 8.477-30.27 0-23.71-11.02-35.56-33.07-35.56zm143.2 0c-2.068 0-4.06 0.1267-5.977 0.3789v35.49c3.33 0.3531 5.952 0.5293 7.869 0.5293 8.979 0 15.54-1.488 19.67-4.465 4.136-3.027 6.203-7.918 6.203-14.68 0-11.5-9.256-17.25-27.77-17.25zm-939.1 15.66-13.32 40.94h26.63zm1031 0-13.32 40.94h26.63z" clip-path="url(#clipPath4700)" style="fill:#000000;filter:url(#filter5301);opacity:.94;stroke-linecap:round;stroke-linejoin:round;stroke-width:2.302;stroke:#000000"/>
 </g>
</svg>
