<svg width="793.7" height="1123" version="1.1" viewBox="0 0 210 297" xmlns="http://www.w3.org/2000/svg" xmlns:xlink="http://www.w3.org/1999/xlink">
 <defs>
  <linearGradient id="grad-ucgg-generated-3" x2="0" y2="1" gradientTransform="matrix(1382 0 0 72 -3800 219.7)" gradientUnits="userSpaceOnUse">
   <stop stop-color="#606768" stop-opacity=".3" offset="0"/>
   <stop stop-color="#bbbbbb" stop-opacity=".3" offset=".02"/>
   <stop stop-color="#bbbbbb" stop-opacity=".3" offset=".05"/>
   <stop stop-color="#000000" stop-opacity=".3" offset=".1"/>
   <stop stop-color="#000000" stop-opacity=".3" offset=".47"/>
   <stop stop-color="#bbbbbb" stop-opacity=".3" offset=".88"/>
   <stop stop-color="#4b5051" stop-opacity=".3" offset=".92"/>
   <stop stop-color="#000000" stop-opacity=".3" offset=".97"/>
   <stop stop-color="#000000" stop-opacity=".3" offset="1"/>
  </linearGradient>
  <linearGradient id="linearGradient4632" x2="0" y2="1" gradientTransform="matrix(1382 0 0 72 -3800 219.7)" gradientUnits="userSpaceOnUse" xlink:href="#grad-ucgg-generated-3"/>
 </defs>
 <text x="-1003.1488" y="2.1785631" style="fill:#000000;font-family:'Trebuchet MS';font-size:11.29px;letter-spacing:0px;line-height:1.25;stroke-width:.2646;word-spacing:0px" xml:space="preserve"><tspan x="-1003.1488" y="2.1785631" style="fill:#000000;font-family:'Racing Sans One';font-size:25.4px;stroke-width:.2646">WEST VALLEY FOOD PANTRY</tspan></text>
 <text x="-1003.1488" y="2.1785631" style="fill:#000000;font-family:'Trebuchet MS';font-size:11.29px;letter-spacing:0px;line-height:1.25;stroke-width:.2646;word-spacing:0px" xml:space="preserve"><tspan x="-1003.1488" y="2.1785631" style="fill:#33b7d2;font-family:'Racing Sans One';font-size:25.4px;stroke-width:.2646">WEST VALLEY FOOD PANTRY</tspan></text>
 <text x="-1005.6151" y="76.754478" style="display:none;fill:#000000;font-family:'Trebuchet MS';font-size:11.29px;letter-spacing:0px;line-height:1.25;stroke-width:.7937;stroke:#000000;word-spacing:0px" xml:space="preserve"><tspan x="-1005.6151" y="76.754478" style="fill:#000000;font-family:'Arial Rounded MT Bold';font-size:25.4px;stroke-width:.7937;stroke:#000000">WEST VALLEY FOOD PANTRY</tspan></text>
 <path d="m-990.8 73.89-2.939-10.9-2.977 10.9q-0.3473 1.24-0.5581 1.786-0.1984 0.5333-0.7069 0.9674-0.5085 0.4217-1.352 0.4217-0.6821 0-1.129-0.2604-0.4341-0.248-0.707-0.7069-0.2728-0.4713-0.4464-1.104-0.1737-0.6449-0.3101-1.191l-3.026-12.24q-0.2728-1.067-0.2728-1.625 0-0.7069 0.4961-1.191 0.4961-0.4837 1.228-0.4837 1.005 0 1.352 0.6449 0.3472 0.6449 0.6077 1.873l2.381 10.62 2.666-9.934q0.2977-1.141 0.5333-1.736 0.2356-0.5953 0.769-1.029 0.5333-0.4341 1.451-0.4341 0.9302 0 1.439 0.4589 0.5209 0.4465 0.7193 0.9798t0.5333 1.761l2.691 9.934 2.381-10.62q0.1736-0.831 0.3225-1.302 0.1612-0.4713 0.5333-0.8434 0.3845-0.3721 1.104-0.3721 0.7193 0 1.215 0.4837 0.5085 0.4713 0.5085 1.191 0 0.5085-0.2728 1.625l-3.026 12.24q-0.3101 1.24-0.5209 1.823-0.1984 0.5705-0.6945 1.005-0.4837 0.4341-1.377 0.4341-0.8434 0-1.352-0.4217-0.5085-0.4217-0.7069-0.9426-0.1984-0.5333-0.5581-1.811z" style="fill:#33b7d2"/>
 <path d="m-967.8 61.41h-8.297v4.465h7.64q0.8434 0 1.253 0.3845 0.4217 0.3721 0.4217 0.9922t-0.4093 1.017q-0.4093 0.3845-1.265 0.3845h-7.64v5.172h8.582q0.8682 0 1.302 0.4093 0.4465 0.3969 0.4465 1.067 0 0.6449-0.4465 1.054-0.4341 0.3969-1.302 0.3969h-10.01q-1.203 0-1.736-0.5333-0.5209-0.5333-0.5209-1.724v-13.67q0-0.7938 0.2356-1.29 0.2356-0.5085 0.7317-0.7317 0.5085-0.2356 1.29-0.2356h9.723q0.8806 0 1.302 0.3969 0.4341 0.3845 0.4341 1.017 0 0.6449-0.4341 1.042-0.4217 0.3845-1.302 0.3845z" style="fill:#33b7d2"/>
 <path d="m-949 71.3q0 1.65-0.8558 2.964-0.8434 1.315-2.48 2.059-1.637 0.7441-3.882 0.7441-2.691 0-4.44-1.017-1.24-0.7317-2.022-1.947-0.769-1.228-0.769-2.381 0-0.6697 0.4589-1.141 0.4713-0.4837 1.191-0.4837 0.5829 0 0.9798 0.3721 0.4093 0.3721 0.6945 1.104 0.3473 0.8682 0.7441 1.451 0.4093 0.5829 1.141 0.9674 0.7317 0.3721 1.922 0.3721 1.637 0 2.654-0.7565 1.029-0.7689 1.029-1.91 0-0.9054-0.5581-1.463-0.5457-0.5705-1.426-0.8682-0.8682-0.2977-2.332-0.6325-1.96-0.4589-3.287-1.067-1.315-0.6201-2.096-1.674-0.7689-1.067-0.7689-2.642 0-1.501 0.8186-2.667 0.8186-1.166 2.369-1.786 1.55-0.6325 3.646-0.6325 1.674 0 2.89 0.4217 1.228 0.4093 2.034 1.104 0.8062 0.6821 1.178 1.439t0.3721 1.476q0 0.6573-0.4713 1.191-0.4589 0.5209-1.153 0.5209-0.6325 0-0.9674-0.3101-0.3225-0.3225-0.7069-1.042-0.4961-1.029-1.191-1.6-0.6945-0.5829-2.232-0.5829-1.426 0-2.307 0.6325-0.8682 0.6201-0.8682 1.501 0 0.5457 0.2977 0.9426 0.2976 0.3969 0.8186 0.6821t1.054 0.4465q0.5333 0.1612 1.761 0.4713 1.538 0.3597 2.778 0.7938 1.253 0.4341 2.121 1.054 0.8806 0.6201 1.364 1.575 0.4961 0.9426 0.4961 2.319z" style="fill:#33b7d2"/>
 <path d="m-934.1 61.61h-4.018v13.21q0 1.141-0.5085 1.699-0.5085 0.5457-1.315 0.5457-0.8186 0-1.339-0.5581-0.5085-0.5581-0.5085-1.687v-13.21h-4.018q-0.9426 0-1.401-0.4093-0.4589-0.4217-0.4589-1.104 0-0.7069 0.4713-1.116 0.4837-0.4093 1.389-0.4093h11.71q0.955 0 1.414 0.4217 0.4713 0.4217 0.4713 1.104t-0.4713 1.104q-0.4713 0.4093-1.414 0.4093z" style="fill:#33b7d2"/>
 <path d="m-921 60.68 4.118 12.19 4.13-12.28q0.3225-0.9674 0.4837-1.339 0.1612-0.3845 0.5333-0.6821 0.3721-0.3101 1.017-0.3101 0.4713 0 0.8682 0.2356 0.4093 0.2356 0.6325 0.6325 0.2356 0.3845 0.2356 0.7813 0 0.2729-0.07442 0.5953-0.07441 0.3101-0.186 0.6201-0.1116 0.2977-0.2232 0.6201l-4.403 11.88q-0.2356 0.6821-0.4713 1.302-0.2356 0.6077-0.5457 1.079-0.3101 0.4589-0.831 0.7565-0.5085 0.2977-1.253 0.2977t-1.265-0.2977q-0.5085-0.2853-0.831-0.7565-0.3101-0.4837-0.5457-1.091-0.2356-0.6077-0.4713-1.29l-4.328-11.78q-0.1116-0.3225-0.2356-0.6325-0.1116-0.3101-0.1984-0.6697-0.07442-0.3597-0.07442-0.6077 0-0.6325 0.5085-1.153 0.5085-0.5209 1.277-0.5209 0.9426 0 1.327 0.5829 0.3969 0.5705 0.8062 1.836z" style="fill:#33b7d2"/>
 <path d="m-895.9 74.7-0.8682-2.282h-7.392l-0.8682 2.332q-0.5085 1.364-0.8682 1.848-0.3597 0.4713-1.178 0.4713-0.6945 0-1.228-0.5085-0.5333-0.5085-0.5333-1.153 0-0.3721 0.124-0.7689 0.124-0.3969 0.4093-1.104l4.651-11.81q0.1984-0.5085 0.4713-1.215 0.2853-0.7193 0.5953-1.191 0.3225-0.4713 0.831-0.7565 0.5209-0.2977 1.277-0.2977 0.769 0 1.277 0.2977 0.5209 0.2853 0.831 0.7441 0.3225 0.4589 0.5333 0.9922 0.2232 0.5209 0.5581 1.401l4.75 11.73q0.5581 1.339 0.5581 1.947 0 0.6325-0.5333 1.166-0.5209 0.5209-1.265 0.5209-0.4341 0-0.7441-0.1612-0.3101-0.1488-0.5209-0.4093-0.2108-0.2729-0.4589-0.8186-0.2356-0.5581-0.4093-0.9798zm-7.293-5.048h5.432l-2.741-7.503z" style="fill:#33b7d2"/>
 <path d="m-885.6 60.5v13.23h7.466q0.893 0 1.364 0.4341 0.4837 0.4341 0.4837 1.091 0 0.6697-0.4713 1.091-0.4713 0.4093-1.377 0.4093h-8.892q-1.203 0-1.736-0.5333-0.5209-0.5333-0.5209-1.724v-14q0-1.116 0.4961-1.674 0.5085-0.5581 1.327-0.5581 0.831 0 1.339 0.5581 0.5209 0.5457 0.5209 1.674z" style="fill:#33b7d2"/>
 <path d="m-870.3 60.5v13.23h7.466q0.893 0 1.364 0.4341 0.4837 0.4341 0.4837 1.091 0 0.6697-0.4713 1.091-0.4713 0.4093-1.377 0.4093h-8.892q-1.203 0-1.736-0.5333-0.5209-0.5333-0.5209-1.724v-14q0-1.116 0.4961-1.674 0.5085-0.5581 1.327-0.5581 0.831 0 1.339 0.5581 0.5209 0.5457 0.5209 1.674z" style="fill:#33b7d2"/>
 <path d="m-846.6 61.41h-8.297v4.465h7.64q0.8434 0 1.253 0.3845 0.4217 0.3721 0.4217 0.9922t-0.4093 1.017q-0.4093 0.3845-1.265 0.3845h-7.64v5.172h8.582q0.8682 0 1.302 0.4093 0.4465 0.3969 0.4465 1.067 0 0.6449-0.4465 1.054-0.4341 0.3969-1.302 0.3969h-10.01q-1.203 0-1.736-0.5333-0.5209-0.5333-0.5209-1.724v-13.67q0-0.7938 0.2356-1.29 0.2356-0.5085 0.7317-0.7317 0.5085-0.2356 1.29-0.2356h9.723q0.8806 0 1.302 0.3969 0.4341 0.3845 0.4341 1.017 0 0.6449-0.4341 1.042-0.4217 0.3845-1.302 0.3845z" style="fill:#33b7d2"/>
 <path d="m-837.6 74.82v-5.767l-4.44-6.883q-0.5829-0.9302-0.831-1.451-0.2356-0.5209-0.2356-0.9054 0-0.6325 0.4837-1.091 0.4961-0.4589 1.215-0.4589 0.7565 0 1.141 0.4341 0.3969 0.4217 1.178 1.699l3.398 5.519 3.435-5.519q0.3101-0.5085 0.5209-0.8558 0.2108-0.3473 0.4589-0.6449 0.2604-0.3101 0.5705-0.4713 0.3101-0.1612 0.7565-0.1612 0.6945 0 1.153 0.4589 0.4713 0.4465 0.4713 1.042 0 0.4837-0.2356 0.9674-0.2356 0.4837-0.8062 1.339l-4.552 6.983v5.767q0 1.129-0.5209 1.687-0.5209 0.5581-1.327 0.5581-0.8186 0-1.327-0.5457-0.5085-0.5581-0.5085-1.699z" style="fill:#33b7d2"/>
 <path d="m-808.5 61.41h-7.255v4.651h6.065q0.8434 0 1.253 0.3845 0.4217 0.3721 0.4217 1.005 0 0.6325-0.4217 1.005-0.4217 0.3721-1.253 0.3721h-6.065v5.99q0 1.141-0.5209 1.699-0.5085 0.5457-1.315 0.5457-0.8186 0-1.339-0.5581-0.5085-0.5581-0.5085-1.687v-13.99q0-0.7938 0.2356-1.29 0.2356-0.5085 0.7317-0.7317 0.5085-0.2356 1.29-0.2356h8.682q0.8806 0 1.302 0.3969 0.4341 0.3845 0.4341 1.017 0 0.6449-0.4341 1.042-0.4217 0.3845-1.302 0.3845z" style="fill:#33b7d2"/>
 <path d="m-796.1 58.26q2.828 0 4.849 1.153 2.034 1.141 3.076 3.262 1.042 2.108 1.042 4.961 0 2.108-0.5705 3.832t-1.712 2.989q-1.141 1.265-2.803 1.935-1.662 0.6697-3.808 0.6697-2.133 0-3.82-0.6821-1.687-0.6945-2.815-1.947-1.129-1.253-1.712-3.014-0.5705-1.761-0.5705-3.808 0-2.096 0.5953-3.845 0.6077-1.749 1.749-2.977 1.141-1.228 2.778-1.873 1.637-0.6573 3.721-0.6573zm5.234 9.351q0-1.997-0.6449-3.46-0.6449-1.463-1.848-2.208-1.191-0.7565-2.741-0.7565-1.104 0-2.046 0.4217-0.9302 0.4093-1.612 1.203-0.6697 0.7938-1.067 2.034-0.3845 1.228-0.3845 2.766 0 1.55 0.3845 2.803 0.3969 1.253 1.104 2.084 0.7193 0.8186 1.637 1.228 0.9302 0.4093 2.034 0.4093 1.414 0 2.592-0.7069 1.191-0.7069 1.885-2.183 0.7069-1.476 0.7069-3.634z" style="fill:#33b7d2"/>
 <path d="m-775.9 58.26q2.828 0 4.849 1.153 2.034 1.141 3.076 3.262 1.042 2.108 1.042 4.961 0 2.108-0.5705 3.832-0.5705 1.724-1.712 2.989-1.141 1.265-2.803 1.935-1.662 0.6697-3.808 0.6697-2.133 0-3.82-0.6821-1.687-0.6945-2.815-1.947-1.129-1.253-1.712-3.014-0.5705-1.761-0.5705-3.808 0-2.096 0.5953-3.845 0.6077-1.749 1.749-2.977 1.141-1.228 2.778-1.873 1.637-0.6573 3.721-0.6573zm5.234 9.351q0-1.997-0.6449-3.46-0.6449-1.463-1.848-2.208-1.191-0.7565-2.741-0.7565-1.104 0-2.046 0.4217-0.9302 0.4093-1.612 1.203-0.6697 0.7938-1.067 2.034-0.3845 1.228-0.3845 2.766 0 1.55 0.3845 2.803 0.3969 1.253 1.104 2.084 0.7193 0.8186 1.637 1.228 0.9302 0.4093 2.034 0.4093 1.414 0 2.592-0.7069 1.191-0.7069 1.885-2.183 0.7069-1.476 0.7069-3.634z" style="fill:#33b7d2"/>
 <path d="m-761.5 58.57h4.8q1.873 0 3.212 0.3473 1.339 0.3473 2.431 1.302 2.84 2.431 2.84 7.392 0 1.637-0.2852 2.989-0.2853 1.352-0.8806 2.443-0.5953 1.079-1.525 1.935-0.7317 0.6573-1.6 1.054-0.8682 0.3969-1.873 0.5581-0.9922 0.1612-2.245 0.1612h-4.8q-1.005 0-1.513-0.2977-0.5085-0.3101-0.6697-0.8558-0.1488-0.5581-0.1488-1.439v-13.33q0-1.191 0.5333-1.724 0.5333-0.5333 1.724-0.5333zm1.426 2.915v12.34h2.791q0.9178 0 1.439-0.04961t1.079-0.248q0.5581-0.1984 0.9674-0.5581 1.848-1.563 1.848-5.383 0-2.691-0.8186-4.031-0.8062-1.339-1.997-1.699-1.191-0.3721-2.877-0.3721z" style="fill:#33b7d2"/>
 <path d="m-731.6 69.67h-3.373v5.147q0 1.104-0.5209 1.674-0.5209 0.5705-1.315 0.5705-0.831 0-1.339-0.5581-0.5085-0.5705-0.5085-1.662v-14.01q0-1.215 0.5581-1.736 0.5581-0.5209 1.774-0.5209h4.725q2.096 0 3.225 0.3225 1.116 0.3101 1.922 1.029 0.8186 0.7193 1.24 1.761t0.4217 2.344q0 2.778-1.712 4.217-1.712 1.426-5.097 1.426zm-0.893-8.334h-2.48v5.556h2.48q1.302 0 2.17-0.2729 0.8806-0.2729 1.339-0.893 0.4589-0.6201 0.4589-1.625 0-1.203-0.7069-1.96-0.7938-0.8062-3.262-0.8062z" style="fill:#33b7d2"/>
 <path d="m-712.2 74.7-0.8682-2.282h-7.392l-0.8682 2.332q-0.5085 1.364-0.8682 1.848-0.3597 0.4713-1.178 0.4713-0.6945 0-1.228-0.5085t-0.5333-1.153q0-0.3721 0.124-0.7689 0.124-0.3969 0.4093-1.104l4.651-11.81q0.1984-0.5085 0.4713-1.215 0.2852-0.7193 0.5953-1.191 0.3225-0.4713 0.831-0.7565 0.5209-0.2977 1.277-0.2977 0.769 0 1.277 0.2977 0.5209 0.2853 0.831 0.7441 0.3225 0.4589 0.5333 0.9922 0.2232 0.5209 0.5581 1.401l4.75 11.73q0.5581 1.339 0.5581 1.947 0 0.6325-0.5333 1.166-0.5209 0.5209-1.265 0.5209-0.4341 0-0.7441-0.1612-0.3101-0.1488-0.5209-0.4093-0.2108-0.2729-0.4589-0.8186-0.2356-0.5581-0.4093-0.9798zm-7.293-5.048h5.432l-2.741-7.503z" style="fill:#33b7d2"/>
 <path d="m-700.8 60.47 7.082 10.72v-10.81q0-1.054 0.4465-1.575 0.4589-0.5333 1.228-0.5333 0.7938 0 1.253 0.5333 0.4589 0.5209 0.4589 1.575v14.3q0 2.394-1.984 2.394-0.4961 0-0.893-0.1488-0.3969-0.1364-0.7441-0.4465-0.3473-0.3101-0.6449-0.7193-0.2976-0.4217-0.5953-0.8558l-6.908-10.59v10.65q0 1.042-0.4837 1.575t-1.24 0.5333q-0.7814 0-1.253-0.5333-0.4713-0.5457-0.4713-1.575v-14.03q0-0.893 0.1984-1.401 0.2356-0.5581 0.7814-0.9054 0.5457-0.3597 1.178-0.3597 0.4961 0 0.8434 0.1612 0.3597 0.1612 0.6201 0.4341 0.2728 0.2729 0.5457 0.7069 0.2852 0.4341 0.5829 0.9054z" style="fill:#33b7d2"/>
 <path d="m-674.5 61.61h-4.018v13.21q0 1.141-0.5085 1.699-0.5085 0.5457-1.315 0.5457-0.8186 0-1.339-0.5581-0.5085-0.5581-0.5085-1.687v-13.21h-4.018q-0.9426 0-1.401-0.4093-0.4589-0.4217-0.4589-1.104 0-0.7069 0.4713-1.116 0.4837-0.4093 1.389-0.4093h11.71q0.955 0 1.414 0.4217 0.4713 0.4217 0.4713 1.104t-0.4713 1.104q-0.4713 0.4093-1.414 0.4093z" style="fill:#33b7d2"/>
 <path d="m-665.5 68.98h-1.29v5.842q0 1.153-0.5085 1.699-0.5085 0.5457-1.327 0.5457-0.8806 0-1.364-0.5705-0.4837-0.5705-0.4837-1.674v-13.99q0-1.191 0.5333-1.724 0.5333-0.5333 1.724-0.5333h5.99q1.24 0 2.121 0.1116 0.8806 0.09922 1.588 0.4217 0.8558 0.3597 1.513 1.029 0.6573 0.6697 0.9922 1.563 0.3473 0.8806 0.3473 1.873 0 2.034-1.153 3.249-1.141 1.215-3.473 1.724 0.9798 0.5209 1.873 1.538 0.893 1.017 1.588 2.17 0.7069 1.141 1.091 2.071 0.3969 0.9178 0.3969 1.265 0 0.3597-0.2356 0.7193-0.2232 0.3473-0.6201 0.5457-0.3969 0.2108-0.9178 0.2108-0.6201 0-1.042-0.2977-0.4217-0.2853-0.7317-0.7317-0.2976-0.4465-0.8186-1.315l-1.476-2.456q-0.7938-1.352-1.426-2.059-0.6201-0.7069-1.265-0.9674t-1.625-0.2604zm2.108-7.64h-3.398v4.998h3.299q1.327 0 2.232-0.2232 0.9054-0.2356 1.377-0.7813 0.4837-0.5581 0.4837-1.525 0-0.7565-0.3845-1.327-0.3845-0.5829-1.067-0.8682-0.6449-0.2729-2.542-0.2729z" style="fill:#33b7d2"/>
 <path d="m-649 74.82v-5.767l-4.44-6.883q-0.5829-0.9302-0.831-1.451-0.2356-0.5209-0.2356-0.9054 0-0.6325 0.4837-1.091 0.4961-0.4589 1.215-0.4589 0.7565 0 1.141 0.4341 0.3969 0.4217 1.178 1.699l3.398 5.519 3.435-5.519q0.31-0.5085 0.5209-0.8558 0.2108-0.3473 0.4589-0.6449 0.2604-0.3101 0.5705-0.4713 0.3101-0.1612 0.7565-0.1612 0.6945 0 1.153 0.4589 0.4713 0.4465 0.4713 1.042 0 0.4837-0.2356 0.9674-0.2356 0.4837-0.8062 1.339l-4.552 6.983v5.767q0 1.129-0.5209 1.687-0.5209 0.5581-1.327 0.5581-0.8186 0-1.327-0.5457-0.5085-0.5581-0.5085-1.699z" style="fill:#33b7d2"/>
 <path transform="scale(.2646)" d="m-3793 220.2c-1.844 0-3.391 0.6094-4.641 1.828s-1.875 2.719-1.875 4.5c0 1.406 0.3438 3.453 1.031 6.141l11.44 46.27c0.3437 1.375 0.7344 2.875 1.172 4.5 0.4375 1.594 1 2.984 1.688 4.172 0.6874 1.156 1.578 2.047 2.672 2.672 1.125 0.6562 2.547 0.9844 4.266 0.9844 2.125 0 3.828-0.5312 5.109-1.594 1.281-1.094 2.172-2.312 2.672-3.656 0.5312-1.375 1.234-3.625 2.109-6.75l11.25-41.2 11.11 41.2c0.9063 3.219 1.609 5.5 2.109 6.844 0.5 1.312 1.391 2.5 2.672 3.562s2.984 1.594 5.109 1.594c2.25 0 3.984-0.5469 5.203-1.641 1.25-1.094 2.125-2.359 2.625-3.797 0.5312-1.469 1.188-3.766 1.969-6.891l11.44-46.27c0.6875-2.812 1.031-4.859 1.031-6.141 0-1.812-0.6406-3.312-1.922-4.5-1.25-1.219-2.781-1.828-4.594-1.828s-3.203 0.4688-4.172 1.406c-0.9375 0.9375-1.609 2-2.016 3.188-0.375 1.188-0.7813 2.828-1.219 4.922l-9 40.12-10.17-37.55c-0.8438-3.094-1.516-5.312-2.016-6.656s-1.406-2.578-2.719-3.703c-1.281-1.156-3.094-1.734-5.438-1.734-2.312 0-4.141 0.5469-5.484 1.641s-2.312 2.391-2.906 3.891c-0.5937 1.5-1.266 3.688-2.016 6.562l-10.08 37.55-9-40.12c-0.6562-3.094-1.422-5.453-2.297-7.078s-2.578-2.438-5.109-2.438z" style="fill:url(#grad-ucgg-generated-3);stroke-width:315.4"/>
 <path transform="scale(.2646)" d="m-3614 220.2c-5.281 0-9.875 0.7969-13.78 2.391-3.906 1.562-6.891 3.812-8.953 6.75s-3.094 6.297-3.094 10.08c0 3.969 0.9687 7.297 2.906 9.984 1.969 2.656 4.609 4.766 7.922 6.328 3.344 1.531 7.484 2.875 12.42 4.031 3.688 0.8438 6.625 1.641 8.812 2.391 2.219 0.75 4.016 1.844 5.391 3.281 1.406 1.406 2.109 3.25 2.109 5.531 0 2.875-1.297 5.281-3.891 7.219-2.562 1.906-5.906 2.859-10.03 2.859-3 0-5.422-0.4688-7.266-1.406-1.844-0.9688-3.281-2.188-4.312-3.656-1-1.469-1.938-3.297-2.812-5.484-0.7188-1.844-1.594-3.234-2.625-4.172-1-0.9375-2.234-1.406-3.703-1.406-1.812 0-3.313 0.6094-4.5 1.828-1.156 1.188-1.734 2.625-1.734 4.312 0 2.906 0.9687 5.906 2.906 9 1.969 3.062 4.516 5.516 7.641 7.359 4.406 2.562 10 3.844 16.78 3.844 5.656 0 10.55-0.9375 14.67-2.812s7.25-4.469 9.375-7.781c2.156-3.312 3.234-7.047 3.234-11.2 0-3.469-0.6251-6.391-1.875-8.766-1.219-2.406-2.938-4.391-5.156-5.953-2.188-1.562-4.859-2.891-8.016-3.984-3.125-1.094-6.625-2.094-10.5-3-3.094-0.7812-5.312-1.375-6.656-1.781-1.344-0.4062-2.672-0.9688-3.984-1.688-1.312-0.7188-2.344-1.578-3.094-2.578s-1.125-2.188-1.125-3.562c0-2.219 1.094-4.109 3.281-5.672 2.219-1.594 5.125-2.391 8.719-2.391 3.875 0 6.688 0.7344 8.438 2.203 1.75 1.438 3.25 3.453 4.5 6.047 0.9687 1.812 1.859 3.125 2.672 3.938 0.8437 0.7812 2.062 1.172 3.656 1.172 1.75 0 3.203-0.6562 4.359-1.969 1.188-1.344 1.781-2.844 1.781-4.5-1e-4 -1.812-0.4688-3.672-1.406-5.578s-2.422-3.719-4.453-5.438c-2.031-1.75-4.594-3.141-7.688-4.172-3.062-1.062-6.703-1.594-10.92-1.594z" style="fill:url(#grad-ucgg-generated-3);stroke-width:315.4"/>
 <path transform="scale(.2646)" d="m-3489 220.2c-1.938 0-3.547 0.6562-4.828 1.969-1.281 1.312-1.922 2.766-1.922 4.359 0 0.625 0.0937 1.391 0.2812 2.297 0.2188 0.9062 0.4688 1.75 0.75 2.531 0.3125 0.7812 0.6094 1.578 0.8906 2.391l16.36 44.53c0.5938 1.719 1.188 3.344 1.781 4.875 0.5937 1.531 1.281 2.906 2.062 4.125 0.8125 1.188 1.859 2.141 3.141 2.859 1.312 0.75 2.906 1.125 4.781 1.125 1.875 0 3.453-0.375 4.734-1.125 1.312-0.75 2.359-1.703 3.141-2.859 0.7813-1.188 1.469-2.547 2.063-4.078 0.5937-1.562 1.188-3.203 1.781-4.922l16.64-44.91c0.2813-0.8125 0.5625-1.594 0.8438-2.344 0.2812-0.7812 0.5156-1.562 0.7031-2.344 0.1875-0.8125 0.2813-1.562 0.2813-2.25-1e-4 -1-0.2969-1.984-0.8907-2.953-0.5625-1-1.359-1.797-2.391-2.391-1-0.5938-2.094-0.8906-3.281-0.8906-1.625 0-2.906 0.3906-3.844 1.172-0.9375 0.75-1.609 1.609-2.016 2.578-0.4063 0.9375-1.016 2.625-1.828 5.062l-15.61 46.41-15.56-46.08c-1.031-3.188-2.047-5.5-3.047-6.938-0.9687-1.469-2.641-2.203-5.016-2.203z" style="fill:url(#grad-ucgg-generated-3);stroke-width:315.4"/>
 <path transform="scale(.2646)" d="m-3403 220.2c-1.906 0-3.516 0.375-4.828 1.125-1.281 0.7188-2.328 1.672-3.141 2.859-0.7812 1.188-1.531 2.688-2.25 4.5-0.6875 1.781-1.281 3.312-1.781 4.594l-17.58 44.62c-0.7188 1.781-1.234 3.172-1.547 4.172s-0.4688 1.969-0.4688 2.906c0 1.625 0.6719 3.078 2.016 4.359 1.344 1.281 2.891 1.922 4.641 1.922 2.062 0 3.547-0.5938 4.453-1.781 0.9062-1.219 2-3.547 3.281-6.984l3.281-8.812h27.94l3.281 8.625c0.4373 1.062 0.9531 2.297 1.547 3.703 0.625 1.375 1.203 2.406 1.734 3.094 0.5312 0.6562 1.188 1.172 1.969 1.547 0.7811 0.4062 1.719 0.6094 2.812 0.6094 1.875 0 3.469-0.6562 4.781-1.969 1.344-1.344 2.016-2.812 2.016-4.406 0-1.531-0.7032-3.984-2.109-7.359l-17.95-44.34c-0.8437-2.219-1.547-3.984-2.109-5.297-0.5311-1.344-1.203-2.594-2.016-3.75-0.7812-1.156-1.828-2.094-3.141-2.812-1.281-0.75-2.891-1.125-4.828-1.125zm-0.0938 14.67 10.36 28.36h-20.53l10.17-28.36z" style="fill:url(#linearGradient4632);stroke-width:315.4"/>
 <path transform="scale(.2646)" d="m-3354 220.2c-2.062 0-3.734 0.7031-5.016 2.109-1.25 1.406-1.875 3.516-1.875 6.328v52.92c-1e-4 3 0.6562 5.172 1.969 6.516 1.344 1.344 3.531 2.016 6.562 2.016h33.61c2.281 0 4.016-0.5156 5.203-1.547 1.188-1.062 1.781-2.438 1.781-4.125 0-1.656-0.6094-3.031-1.828-4.125-1.188-1.094-2.906-1.641-5.156-1.641h-28.22v-50.02c0-2.844-0.6562-4.953-1.969-6.328-1.281-1.406-2.969-2.109-5.062-2.109z" style="fill:url(#grad-ucgg-generated-3);stroke-width:315.4"/>
 <path transform="scale(.2646)" d="m-3296 220.2c-2.062 0-3.734 0.7031-5.016 2.109-1.25 1.406-1.875 3.516-1.875 6.328v52.92c1e-4 3 0.6563 5.172 1.969 6.516 1.344 1.344 3.531 2.016 6.562 2.016h33.61c2.281 0 4.016-0.5156 5.203-1.547 1.188-1.062 1.781-2.438 1.781-4.125 0-1.656-0.6093-3.031-1.828-4.125-1.188-1.094-2.906-1.641-5.156-1.641h-28.22v-50.02c0-2.844-0.6562-4.953-1.969-6.328-1.281-1.406-2.969-2.109-5.062-2.109z" style="fill:url(#grad-ucgg-generated-3);stroke-width:315.4"/>
 <path transform="scale(.2646)" d="m-3180 220.2c-1.812 0-3.344 0.5781-4.594 1.734-1.219 1.156-1.828 2.531-1.828 4.125 0 0.9688 0.2969 2.109 0.8906 3.422 0.625 1.312 1.672 3.141 3.141 5.484l16.78 26.02v21.8c0 2.875 0.6407 5.016 1.922 6.422 1.281 1.375 2.953 2.062 5.016 2.062 2.031 0 3.703-0.7031 5.016-2.109 1.312-1.406 1.969-3.531 1.969-6.375v-21.8l17.2-26.39c1.438-2.156 2.453-3.844 3.047-5.062s0.8906-2.438 0.8906-3.656c0-1.5-0.5937-2.812-1.781-3.938-1.156-1.156-2.609-1.734-4.359-1.734-1.125 0-2.078 0.2031-2.859 0.6094-0.7812 0.4062-1.5 1-2.156 1.781-0.625 0.75-1.203 1.562-1.734 2.438s-1.188 1.953-1.969 3.234l-12.98 20.86-12.84-20.86c-1.969-3.219-3.453-5.359-4.453-6.422-0.9687-1.094-2.406-1.641-4.312-1.641z" style="fill:url(#grad-ucgg-generated-3);stroke-width:315.4"/>
 <path transform="scale(.2646)" d="m-3009 220.2c-5.25 0-9.938 0.8281-14.06 2.484-4.125 1.625-7.625 3.984-10.5 7.078s-5.078 6.844-6.609 11.25c-1.5 4.406-2.25 9.25-2.25 14.53 0 5.156 0.7189 9.953 2.156 14.39 1.469 4.438 3.625 8.234 6.469 11.39s6.391 5.609 10.64 7.359c4.25 1.719 9.062 2.578 14.44 2.578 5.406 0 10.2-0.8438 14.39-2.531 4.187-1.688 7.719-4.125 10.59-7.312s5.031-6.953 6.469-11.3c1.438-4.344 2.156-9.172 2.156-14.48 0-7.188-1.312-13.44-3.938-18.75-2.625-5.344-6.5-9.453-11.62-12.33-5.094-2.906-11.2-4.359-18.33-4.359zm0 11.06c3.906 0 7.36 0.9531 10.36 2.859 3.031 1.875 5.359 4.656 6.984 8.344s2.438 8.047 2.438 13.08c0 5.438-0.8906 10.02-2.672 13.73-1.75 3.719-4.125 6.469-7.125 8.25-2.969 1.781-6.234 2.672-9.797 2.672-2.781 0-5.344-0.5156-7.688-1.547-2.312-1.031-4.375-2.578-6.188-4.641-1.781-2.094-3.172-4.719-4.172-7.875-0.9687-3.156-1.453-6.688-1.453-10.59 0-3.875 0.4844-7.359 1.453-10.45 1-3.125 2.344-5.688 4.031-7.688 1.719-2 3.75-3.516 6.094-4.547 2.375-1.062 4.953-1.594 7.734-1.594z" style="fill:url(#linearGradient4632);stroke-width:315.4"/>
 <path transform="scale(.2646)" d="m-2933 220.2c-5.25 0-9.938 0.8281-14.06 2.484-4.125 1.625-7.625 3.984-10.5 7.078s-5.078 6.844-6.609 11.25c-1.5 4.406-2.25 9.25-2.25 14.53 0 5.156 0.7189 9.953 2.156 14.39 1.469 4.438 3.625 8.234 6.469 11.39s6.391 5.609 10.64 7.359c4.25 1.719 9.062 2.578 14.44 2.578 5.406 0 10.2-0.8438 14.39-2.531 4.187-1.688 7.719-4.125 10.59-7.312s5.031-6.953 6.469-11.3c1.438-4.344 2.156-9.172 2.156-14.48 0-7.188-1.312-13.44-3.938-18.75-2.625-5.344-6.5-9.453-11.62-12.33-5.094-2.906-11.2-4.359-18.33-4.359zm0 11.06c3.906 0 7.36 0.9531 10.36 2.859 3.031 1.875 5.359 4.656 6.984 8.344s2.438 8.047 2.438 13.08c0 5.438-0.8906 10.02-2.672 13.73-1.75 3.719-4.125 6.469-7.125 8.25-2.969 1.781-6.234 2.672-9.797 2.672-2.781 0-5.344-0.5156-7.688-1.547-2.312-1.031-4.375-2.578-6.188-4.641-1.781-2.094-3.172-4.719-4.172-7.875-0.9687-3.156-1.453-6.688-1.453-10.59 0-3.875 0.4844-7.359 1.453-10.45 1-3.125 2.344-5.688 4.031-7.688 1.719-2 3.75-3.516 6.094-4.547 2.375-1.062 4.953-1.594 7.734-1.594z" style="fill:url(#linearGradient4632);stroke-width:315.4"/>
 <path transform="scale(.2646)" d="m-2709 220.2c-1.906 0-3.516 0.375-4.828 1.125-1.281 0.7188-2.328 1.672-3.141 2.859-0.7813 1.188-1.531 2.688-2.25 4.5-0.6875 1.781-1.281 3.312-1.781 4.594l-17.58 44.62c-0.7187 1.781-1.234 3.172-1.547 4.172s-0.4687 1.969-0.4687 2.906c0 1.625 0.6719 3.078 2.016 4.359s2.891 1.922 4.641 1.922c2.062 0 3.547-0.5938 4.453-1.781 0.9061-1.219 2-3.547 3.281-6.984l3.281-8.812h27.94l3.281 8.625c0.4375 1.062 0.9531 2.297 1.547 3.703 0.625 1.375 1.203 2.406 1.734 3.094 0.5313 0.6562 1.188 1.172 1.969 1.547 0.7812 0.4062 1.719 0.6094 2.812 0.6094 1.875 0 3.469-0.6562 4.781-1.969 1.344-1.344 2.016-2.812 2.016-4.406 0-1.531-0.7032-3.984-2.109-7.359l-17.95-44.34c-0.8438-2.219-1.547-3.984-2.109-5.297-0.5312-1.344-1.203-2.594-2.016-3.75-0.7813-1.156-1.828-2.094-3.141-2.812-1.281-0.75-2.891-1.125-4.828-1.125zm-0.0937 14.67 10.36 28.36h-20.53l10.17-28.36z" style="fill:url(#linearGradient4632);stroke-width:315.4"/>
 <path transform="scale(.2646)" d="m-2658 220.2c-1.594 0-3.078 0.4531-4.453 1.359-1.375 0.875-2.359 2.016-2.953 3.422-0.5 1.281-0.75 3.047-0.75 5.297v53.02c0 2.594 0.5938 4.578 1.781 5.953 1.187 1.344 2.766 2.016 4.734 2.016 1.906 0 3.469-0.6719 4.688-2.016 1.219-1.344 1.828-3.328 1.828-5.953v-40.27l26.11 40.03c0.75 1.094 1.5 2.172 2.25 3.234 0.75 1.031 1.562 1.938 2.438 2.719s1.812 1.344 2.812 1.688c1 0.375 2.125 0.5625 3.375 0.5625 5 0 7.5-3.016 7.5-9.047v-54.05c0-2.656-0.5781-4.641-1.734-5.953-1.156-1.344-2.734-2.016-4.734-2.016-1.938 0-3.484 0.6719-4.641 2.016-1.125 1.312-1.688 3.297-1.688 5.953v40.88l-26.77-40.5c-0.75-1.188-1.484-2.328-2.203-3.422-0.6875-1.094-1.375-1.984-2.062-2.672-0.6562-0.6875-1.438-1.234-2.344-1.641-0.8749-0.4062-1.938-0.6094-3.187-0.6094z" style="fill:url(#grad-ucgg-generated-3);stroke-width:315.4"/>
 <path transform="scale(.2646)" d="m-2467 220.2c-1.812 0-3.344 0.5781-4.594 1.734-1.219 1.156-1.828 2.531-1.828 4.125 0 0.9688 0.2969 2.109 0.8906 3.422 0.625 1.312 1.672 3.141 3.141 5.484l16.78 26.02v21.8c0 2.875 0.6406 5.016 1.922 6.422 1.281 1.375 2.953 2.062 5.016 2.062 2.031 0 3.703-0.7031 5.016-2.109s1.969-3.531 1.969-6.375v-21.8l17.2-26.39c1.438-2.156 2.453-3.844 3.047-5.062 0.5937-1.219 0.8906-2.438 0.8906-3.656 0-1.5-0.5938-2.812-1.781-3.938-1.156-1.156-2.609-1.734-4.359-1.734-1.125 0-2.078 0.2031-2.859 0.6094-0.7813 0.4062-1.5 1-2.156 1.781-0.625 0.75-1.203 1.562-1.734 2.438-0.5313 0.875-1.188 1.953-1.969 3.234l-12.98 20.86-12.84-20.86c-1.969-3.219-3.453-5.359-4.453-6.422-0.9688-1.094-2.406-1.641-4.313-1.641z" style="fill:url(#grad-ucgg-generated-3);stroke-width:315.4"/>
 <path transform="scale(.2646)" d="m-3695 221.4c-1.969 0-3.594 0.2969-4.875 0.8906-1.25 0.5625-2.172 1.484-2.766 2.766-0.5937 1.25-0.8906 2.875-0.8906 4.875v51.66c0 3 0.6563 5.172 1.969 6.516 1.344 1.344 3.531 2.016 6.562 2.016h37.83c2.188 0 3.828-0.5 4.922-1.5 1.125-1.031 1.688-2.359 1.688-3.984-1e-4 -1.688-0.5626-3.031-1.688-4.031-1.094-1.031-2.734-1.547-4.922-1.547h-32.44v-19.55h28.88c2.156 0 3.75-0.4844 4.781-1.453 1.031-1 1.547-2.281 1.547-3.844s-0.5313-2.812-1.594-3.75c-1.031-0.9688-2.609-1.453-4.734-1.453h-28.88v-16.88h31.36c2.219 0 3.859-0.4844 4.922-1.453 1.094-1 1.641-2.312 1.641-3.938 0-1.594-0.5469-2.875-1.641-3.844-1.062-1-2.703-1.5-4.922-1.5z" style="fill:url(#grad-ucgg-generated-3);stroke-width:315.4"/>
 <path transform="scale(.2646)" d="m-3575 221.4c-2.281 0-4.031 0.5156-5.25 1.547-1.188 1.031-1.781 2.438-1.781 4.219 0 1.719 0.5781 3.109 1.734 4.172 1.156 1.031 2.922 1.547 5.297 1.547h15.19v49.92c0 2.844 0.6406 4.969 1.922 6.375 1.312 1.406 3 2.109 5.062 2.109 2.031 0 3.688-0.6875 4.969-2.062 1.281-1.406 1.922-3.547 1.922-6.422v-49.92h15.19c2.375 0 4.156-0.5156 5.344-1.547 1.187-1.062 1.781-2.453 1.781-4.172s-0.5938-3.109-1.781-4.172c-1.156-1.062-2.938-1.594-5.344-1.594z" style="fill:url(#grad-ucgg-generated-3);stroke-width:315.4"/>
 <path transform="scale(.2646)" d="m-3236 221.4c-1.969 0-3.594 0.2969-4.875 0.8906-1.25 0.5625-2.172 1.484-2.766 2.766-0.5937 1.25-0.8906 2.875-0.8906 4.875v51.66c0 3 0.6563 5.172 1.969 6.516 1.344 1.344 3.531 2.016 6.562 2.016h37.83c2.188 0 3.828-0.5 4.922-1.5 1.125-1.031 1.688-2.359 1.688-3.984-1e-4 -1.688-0.5626-3.031-1.688-4.031-1.094-1.031-2.734-1.547-4.922-1.547h-32.44v-19.55h28.88c2.156 0 3.75-0.4844 4.781-1.453 1.031-1 1.547-2.281 1.547-3.844s-0.5313-2.812-1.594-3.75c-1.031-0.9688-2.609-1.453-4.734-1.453h-28.88v-16.88h31.36c2.219 0 3.859-0.4844 4.922-1.453 1.094-1 1.641-2.312 1.641-3.938 0-1.594-0.5469-2.875-1.641-3.844-1.062-1-2.703-1.5-4.922-1.5z" style="fill:url(#grad-ucgg-generated-3);stroke-width:315.4"/>
 <path transform="scale(.2646)" d="m-3089 221.4c-1.969 0-3.594 0.2969-4.875 0.8906-1.25 0.5625-2.172 1.484-2.766 2.766-0.5938 1.25-0.8907 2.875-0.8906 4.875v52.88c-1e-4 2.844 0.6406 4.969 1.922 6.375 1.312 1.406 3 2.109 5.062 2.109 2.031 0 3.688-0.6875 4.969-2.062 1.312-1.406 1.969-3.547 1.969-6.422v-22.64h22.92c2.094 0 3.672-0.4688 4.734-1.406s1.594-2.203 1.594-3.797-0.5312-2.859-1.594-3.797c-1.031-0.9688-2.609-1.453-4.734-1.453h-22.92v-17.58h27.42c2.219 0 3.859-0.4844 4.922-1.453 1.094-1 1.641-2.312 1.641-3.938 0-1.594-0.5469-2.875-1.641-3.844-1.062-1-2.703-1.5-4.922-1.5z" style="fill:url(#grad-ucgg-generated-3);stroke-width:315.4"/>
 <path transform="scale(.2646)" d="m-2878 221.4c-3 0-5.172 0.6719-6.516 2.016-1.344 1.344-2.016 3.516-2.016 6.516v50.39c1e-4 2.219 0.1876 4.031 0.5626 5.438 0.4061 1.375 1.25 2.453 2.531 3.234 1.281 0.75 3.188 1.125 5.719 1.125h18.14c3.156 0 5.984-0.2031 8.484-0.6094 2.531-0.4062 4.891-1.109 7.078-2.109s4.203-2.328 6.047-3.984c2.344-2.156 4.266-4.594 5.766-7.312 1.5-2.75 2.609-5.828 3.328-9.234s1.078-7.172 1.078-11.3c0-12.5-3.578-21.81-10.73-27.94-2.75-2.406-5.813-4.047-9.187-4.922-3.375-0.875-7.422-1.312-12.14-1.312h-18.14zm5.391 11.02h9.188c4.25 0 7.875 0.4688 10.88 1.406 3 0.9062 5.516 3.047 7.547 6.422 2.062 3.375 3.094 8.453 3.094 15.23 0 9.625-2.328 16.41-6.984 20.34-1.031 0.9062-2.25 1.609-3.656 2.109-1.406 0.5-2.766 0.8125-4.078 0.9375s-3.125 0.1875-5.438 0.1875h-10.55v-46.64z" style="fill:url(#linearGradient4632);stroke-width:315.4"/>
 <path transform="scale(.2646)" d="m-2783 221.4c-3.062 0-5.297 0.6562-6.703 1.969-1.406 1.312-2.109 3.5-2.109 6.562v52.97c0 2.75 0.6406 4.844 1.922 6.281 1.281 1.406 2.969 2.109 5.062 2.109 2 0 3.656-0.7188 4.969-2.156s1.969-3.547 1.969-6.328v-19.45h12.75c8.531 0 14.95-1.797 19.27-5.391 4.312-3.625 6.469-8.938 6.469-15.94 0-3.281-0.5312-6.234-1.594-8.859s-2.625-4.844-4.688-6.656c-2.031-1.812-4.453-3.109-7.266-3.891-2.844-0.8125-6.906-1.219-12.19-1.219h-17.86zm5.109 10.45h9.375c6.219 0 10.33 1.016 12.33 3.047 1.781 1.906 2.672 4.375 2.672 7.406 0 2.531-0.5782 4.578-1.734 6.141s-2.844 2.688-5.062 3.375c-2.188 0.6875-4.922 1.031-8.203 1.031h-9.375v-21z" style="fill:url(#linearGradient4632);stroke-width:315.4"/>
 <path transform="scale(.2646)" d="m-2593 221.4c-2.281 0-4.031 0.5156-5.25 1.547-1.188 1.031-1.781 2.438-1.781 4.219 1e-4 1.719 0.5782 3.109 1.734 4.172 1.156 1.031 2.922 1.547 5.297 1.547h15.19v49.92c0 2.844 0.6406 4.969 1.922 6.375 1.312 1.406 3 2.109 5.062 2.109 2.031 0 3.688-0.6875 4.969-2.062 1.281-1.406 1.922-3.547 1.922-6.422v-49.92h15.19c2.375 0 4.156-0.5156 5.344-1.547 1.188-1.062 1.781-2.453 1.781-4.172s-0.5938-3.109-1.781-4.172c-1.156-1.062-2.938-1.594-5.344-1.594z" style="fill:url(#grad-ucgg-generated-3);stroke-width:315.4"/>
 <path transform="scale(.2646)" d="m-2525 221.4c-3 0-5.172 0.6719-6.516 2.016-1.344 1.344-2.016 3.516-2.016 6.516v52.88c0 2.781 0.6093 4.891 1.828 6.328 1.219 1.438 2.938 2.156 5.156 2.156 2.062 0 3.734-0.6875 5.016-2.062 1.281-1.375 1.922-3.516 1.922-6.422v-22.08h4.875c2.469 0 4.516 0.3281 6.141 0.9844 1.625 0.6562 3.219 1.875 4.781 3.656 1.594 1.781 3.391 4.375 5.391 7.781l5.578 9.281c1.312 2.188 2.344 3.844 3.094 4.969 0.7812 1.125 1.703 2.047 2.766 2.766 1.062 0.75 2.375 1.125 3.938 1.125 1.312 0 2.469-0.2656 3.469-0.7969 1-0.5 1.781-1.188 2.344-2.062 0.5938-0.9062 0.8906-1.812 0.8906-2.719 0-0.875-0.5-2.469-1.5-4.781-0.9686-2.344-2.344-4.953-4.125-7.828-1.75-2.906-3.75-5.641-6-8.203-2.25-2.562-4.609-4.5-7.078-5.812 5.875-1.281 10.25-3.453 13.12-6.516 2.906-3.062 4.359-7.156 4.359-12.28 0-2.5-0.4375-4.859-1.312-7.078-0.8437-2.25-2.094-4.219-3.75-5.906s-3.562-2.984-5.719-3.891c-1.781-0.8125-3.781-1.344-6-1.594-2.219-0.2812-4.891-0.4219-8.016-0.4219h-22.64zm5.391 10.45h12.84c4.781 0 7.984 0.3438 9.609 1.031 1.719 0.7188 3.062 1.812 4.031 3.281 0.9687 1.438 1.453 3.109 1.453 5.016 0 2.438-0.6094 4.359-1.828 5.766-1.188 1.375-2.922 2.359-5.203 2.953-2.281 0.5625-5.094 0.8438-8.438 0.8438h-12.47v-18.89z" style="fill:url(#linearGradient4632);stroke-width:315.4"/>
</svg>
