<?xml version="1.0" encoding="UTF-8" standalone="no"?>
<svg xmlns:dc="http://purl.org/dc/elements/1.1/" xmlns:cc="http://creativecommons.org/ns#" xmlns:rdf="http://www.w3.org/1999/02/22-rdf-syntax-ns#" xmlns:svg="http://www.w3.org/2000/svg" xmlns="http://www.w3.org/2000/svg" xmlns:sodipodi="http://sodipodi.sourceforge.net/DTD/sodipodi-0.dtd" xmlns:inkscape="http://www.inkscape.org/namespaces/inkscape" width="2075" height="159.5" version="1.1" viewBox="0 0 549 42.19" id="svg18" sodipodi:docname="head-inset3.svg" inkscape:version="0.92.2 (5c3e80d, 2017-08-06)">
  <metadata id="metadata22">
    <rdf:RDF>
      <cc:Work rdf:about="">
        <dc:format>image/svg+xml</dc:format>
        <dc:type rdf:resource="http://purl.org/dc/dcmitype/StillImage" />
        <dc:title></dc:title>
      </cc:Work>
    </rdf:RDF>
  </metadata>
  <sodipodi:namedview pagecolor="#ffffff" bordercolor="#666666" borderopacity="1" objecttolerance="10" gridtolerance="10" guidetolerance="10" inkscape:pageopacity="0" inkscape:pageshadow="2" inkscape:window-width="1046" inkscape:window-height="908" id="namedview20" showgrid="false" inkscape:zoom="0.76915663" inkscape:cx="1021.2571" inkscape:cy="63.706041" inkscape:window-x="0" inkscape:window-y="22" inkscape:window-maximized="0" inkscape:current-layer="svg18" />
  <defs id="defs8">
    <clipPath id="clipPath4700">
      <path d="m1427 1554c-14.48 0-26.05 5.475-34.73 16.42-8.626 10.9-12.94 24.24-12.94 40.03 0 18.06 3.959 32.28 11.88 42.68 7.97 10.39 19.4 15.59 34.28 15.59 16.19 0 28.68-5.246 37.46-15.74 8.828-10.49 13.24-24.67 13.24-42.53s-4.212-31.73-12.64-41.62c-8.424-9.887-20.61-14.83-36.55-14.83zm109 0c-14.48 0-26.05 5.475-34.73 16.42-8.626 10.9-12.94 24.24-12.94 40.03 0 18.06 3.961 32.28 11.88 42.68 7.97 10.39 19.4 15.59 34.28 15.59 16.19 0 28.68-5.246 37.45-15.74 8.828-10.49 13.24-24.67 13.24-42.53s-4.214-31.73-12.64-41.62c-8.424-9.887-20.61-14.83-36.55-14.83zm-1012 0.0762c-9.837 0-17.91 2.824-24.22 8.474-6.255 5.65-9.382 12.76-9.382 21.34 0 4.591 0.7807 8.777 2.344 12.56 1.614 3.783 3.885 7.063 6.811 9.837 2.976 2.724 8.702 6.23 17.18 10.52 8.525 4.238 14.15 8.072 16.87 11.5 2.724 3.43 4.086 7.038 4.086 10.82 0 8.071-5.775 12.11-17.33 12.11-7.516 0-15.16-2.724-22.93-8.172l-7.264 17.63c8.324 5.347 17.65 8.022 28 8.022 11.91 0 21.39-2.9 28.45-8.701 7.113-5.801 10.67-13.19 10.67-22.17 0-4.994-0.8578-9.511-2.573-13.55-1.715-4.086-4.214-7.642-7.493-10.67-3.279-3.077-8.626-6.431-16.04-10.06-14.07-6.861-21.11-13.47-21.11-19.83 0-3.834 1.235-6.935 3.707-9.306 2.522-2.421 6.052-3.633 10.59-3.633 7.668 0 14.96 2.473 21.87 7.416l5.98-16.95c-6.003-4.792-15.41-7.188-28.22-7.188zm307.4 0.3787-44.19 112.4h21.87l7.719-22.47h37.99l8.096 22.47h21.72l-44.57-112.4zm1031 0-44.19 112.4h21.87l7.719-22.47h37.99l8.096 22.47h21.72l-44.57-112.4zm293.8 0.3788c-4.54 0-10.52 0.2016-17.93 0.6051-7.415 0.3532-11.68 0.529-12.79 0.529v110.9h20.43v-46.31c5.347 0.3026 9.508 0.4806 12.48 0.5311l29.59 45.78h22.7l-32.76-49.94c5.902-2.22 10.79-6.028 14.68-11.43s5.827-11.37 5.827-17.93c0-21.79-14.08-32.69-42.22-32.69zm-523.2 0.3787c-4.036 0-13.9 0.2767-29.59 0.8316v110.8h24.59c38.39 0 57.58-19.93 57.58-59.78 0-15.64-4.742-28.17-14.23-37.61-9.433-9.484-22.22-14.23-38.36-14.23zm139.6 0c-2.22 0-9.887 0.2767-23 0.8316v110.8h19.67v-40.79c3.733 0.3531 6.708 0.529 8.927 0.529 29.96 0 44.95-12.71 44.95-38.14 0-11.4-4.062-19.78-12.18-25.12-8.071-5.398-20.86-8.096-38.36-8.096zm-1513 0.7554 36.4 112.4h8.096l23.53-69.92 24.21 69.92h8.098l35.87-112.4h-20.51l-20.73 66.89-22.55-66.89h-8.627l-22.47 66.89-20.81-66.89zm148.1 0v110.9h69.92v-17.48h-50.24v-33.22h36.62v-16.72h-36.62v-25.95h51.08v-17.48zm157.5 0v17.48h35.26v93.38h19.67v-93.38h36.85v-17.48zm137.5 0 41.47 112.4h10.82l43.28-112.4h-21.19l-27.09 74.91-25.65-74.91zm193.8 0v110.9h69.77v-17.48h-50.09v-93.38zm85.66 0v110.9h69.77v-17.48h-50.09v-93.38zm85.66 0v110.9h69.92v-17.48h-50.24v-33.22h36.62v-16.72h-36.62v-25.95h51.07v-17.48zm77.11 0 37.38 65.38v45.48h19.67v-45.48l37.23-65.38h-20.81l-26.33 47.29-26.26-47.29zm149.9 0v110.9h19.67v-50.7h38.97v-16.72h-38.97v-25.95h53.35v-17.48zm632.3 0v110.9h18.92v-68.71l53.8 70.14h8.022v-112.4h-18.92v66.89l-52.36-66.89zm93.68 0v17.48h35.26v93.38h19.67v-93.38h36.85v-17.48zm178.7 0 37.38 65.38v45.48h19.67v-45.48l37.23-65.38h-20.81l-26.33 47.29-26.26-47.29zm-771.7 15.51c19.17 0 28.75 12.99 28.75 38.97 0 13.27-2.597 23.38-7.793 30.34-5.145 6.962-12.64 10.44-22.47 10.44-8.374 0-14.76-3.556-19.15-10.67-4.389-7.113-6.583-17.15-6.583-30.12 0-11.91 2.346-21.36 7.038-28.38 4.691-7.062 11.43-10.59 20.2-10.59zm109 0c19.17 0 28.75 12.99 28.75 38.97 0 13.27-2.597 23.38-7.793 30.34-5.146 6.962-12.64 10.44-22.47 10.44-8.374 0-14.76-3.556-19.15-10.67-4.389-7.113-6.583-17.15-6.583-30.12 0-11.91 2.346-21.36 7.038-28.38 4.691-7.062 11.43-10.59 20.2-10.59zm615.8 1.136c8.778 0 15.21 1.083 19.3 3.252 4.086 2.169 6.128 5.978 6.128 11.43 0 6.709-1.915 11.22-5.749 13.54-3.783 2.32-9.786 3.481-18.01 3.481-1.917 0-4.692-0.1501-8.324-0.4528v-30.8c2.321-0.3027 4.54-0.4528 6.659-0.4528zm-520.5 0.074c22.04 0 33.07 11.86 33.07 35.56 0 12.96-2.827 23.05-8.476 30.27-5.6 7.214-13.37 10.82-23.31 10.82-3.683 0-7.114-0.1502-10.29-0.4528v-75.67c3.884-0.3531 6.887-0.5311 9.006-0.5311zm143.2 0c18.51 0 27.77 5.752 27.77 17.25 0 6.76-2.067 11.65-6.204 14.68-4.137 2.976-10.7 4.465-19.67 4.465-1.917 0-4.54-0.1759-7.869-0.529v-35.49c1.917-0.2522 3.909-0.3788 5.978-0.3788zm-939.1 15.66 13.32 40.94h-26.64zm1031 0 13.32 40.94h-26.64z" style="fill:#ff2a2a;opacity:0.4087;stroke-width:3.632" id="path2" />
    </clipPath>
    <filter id="filter5301" x="-.002046" y="-.01499" width="1.004" height="1.03" style="color-interpolation-filters:sRGB">
      <feGaussianBlur stdDeviation="1.8486621" id="feGaussianBlur5" />
    </filter>
  </defs>
  <rect id="rect10" style="opacity:0.50400002;fill:#ffffff;stroke-width:1.08299994" ry="6.0240002" height="42.189999" width="549" y="-6.1035157e-006" x="1.2207031e-005" />
  <path inkscape:connector-curvature="0" id="path12" style="opacity:0.9;fill:#33b7d2;stroke-width:0.96090001" d="M 314.4,5.9 C 310.569,5.9 307.506,7.349 305.211,10.245 302.929,13.128 301.787,16.658 301.787,20.835 301.787,25.613 302.835,29.377 304.93,32.125 307.039,34.875 310.062,36.249 314,36.249 318.284,36.249 321.588,34.861 323.91,32.085 326.246,29.309 327.414,25.558 327.414,20.835 327.414,16.11 326.3,12.44 324.071,9.825 321.842,7.209 318.618,5.9 314.401,5.9 Z M 343.23,5.9 C 339.399,5.9 336.336,7.349 334.041,10.245 331.759,13.128 330.617,16.658 330.617,20.835 330.617,25.613 331.665,29.377 333.761,32.125 335.87,34.875 338.893,36.249 342.831,36.249 347.115,36.249 350.418,34.861 352.741,32.085 355.077,29.309 356.245,25.558 356.245,20.835 356.245,16.11 355.13,12.44 352.901,9.825 350.672,7.209 347.449,5.9 343.231,5.9 Z M 75.33,5.92016 C 72.727,5.92016 70.592,6.66746 68.923,8.16216 67.268,9.65716 66.441,11.53916 66.441,13.80816 66.441,15.02316 66.6476,16.13016 67.0613,17.13116 67.4884,18.13216 68.0893,19.00016 68.8633,19.73416 69.6508,20.45496 71.1663,21.38216 73.4083,22.51716 75.6643,23.63816 77.1513,24.65316 77.8723,25.56016 78.593,26.46776 78.9533,27.42216 78.9533,28.42316 78.9533,30.55916 77.4253,31.62616 74.3683,31.62616 72.3793,31.62616 70.3583,30.90556 68.3023,29.46416 L 66.3803,34.12916 C 68.5823,35.54416 71.0513,36.25116 73.7873,36.25116 76.9373,36.25116 79.4463,35.48396 81.3153,33.94916 83.1973,32.41416 84.1383,30.45916 84.1383,28.08316 84.1383,26.76216 83.9113,25.56716 83.4575,24.49916 83.0037,23.41816 82.3425,22.47716 81.4755,21.67616 80.6079,20.86196 79.1935,19.97416 77.2315,19.01316 73.5075,17.19816 71.6455,15.44916 71.6455,13.76716 71.6455,12.75316 71.9723,11.93216 72.6263,11.30516 73.2937,10.66446 74.2273,10.34386 75.4293,10.34386 77.4583,10.34386 79.3863,10.99806 81.2153,12.30586 L 82.7973,7.82086 C 81.2093,6.55286 78.7193,5.91886 75.3293,5.91886 Z M 156.65,6.02036 144.96,35.75036 H 150.746 L 152.788,29.80436 H 162.838 L 164.98,35.75036 H 170.726 L 158.936,6.02036 Z M 429.35,6.02036 417.66,35.75036 H 423.446 L 425.488,29.80436 H 435.538 L 437.68,35.75036 H 443.426 L 431.636,6.02036 Z M 507.09,6.12056 C 505.889,6.12056 504.307,6.1739 502.345,6.28066 500.383,6.37411 499.255,6.42066 498.961,6.42066 V 35.75066 H 504.367 V 23.50066 C 505.782,23.58073 506.883,23.62786 507.67,23.64116 L 515.498,35.75116 H 521.504 L 512.835,22.54116 C 514.397,21.95386 515.691,20.94616 516.719,19.51816 517.747,18.09016 518.261,16.50816 518.261,14.77316 518.261,9.00716 514.537,6.12416 507.091,6.12416 Z M 368.69,6.22076 C 367.622,6.22076 365.013,6.29397 360.862,6.44076 V 35.75076 H 367.369 C 377.529,35.75076 382.609,30.47876 382.609,19.93076 382.609,15.79276 381.354,12.47676 378.845,9.98076 376.349,7.47176 372.965,6.21676 368.695,6.21676 Z M 405.63,6.22076 C 405.0427,6.22076 403.014,6.29397 399.544,6.44076 V 35.75076 H 404.749 V 24.96076 C 405.7367,25.05418 406.524,25.10076 407.111,25.10076 415.039,25.10076 419.001,21.73776 419.001,15.01076 419.001,11.99476 417.926,9.77876 415.777,8.36376 413.641,6.93576 410.258,6.22176 405.627,6.22176 Z M 5.33,6.42066 14.96,36.15066 H 17.102 L 23.329,17.65066 29.735,36.15066 H 31.878 L 41.368,6.42066 H 35.942 L 30.457,24.12066 24.491,6.42066 H 22.209 L 16.263,24.12066 10.757,6.42066 Z M 44.51,6.42066 V 35.75066 H 63.01 V 31.12566 H 49.72 V 22.33666 H 59.41 V 17.91266 H 49.72 V 11.04566 H 63.23 V 6.42066 Z M 86.19,6.42066 V 11.04566 H 95.52 V 35.75566 H 100.725 V 11.04566 H 110.475 V 6.42066 Z M 122.57,6.42066 133.54,36.15066 H 136.403 L 147.853,6.42066 H 142.247 L 135.08,26.24066 128.293,6.42066 Z M 173.84,6.42066 V 35.75066 H 192.3 V 31.12566 H 179.05 V 6.41566 Z M 196.5,6.42066 V 35.75066 H 214.96 V 31.12566 H 201.71 V 6.41566 Z M 219.16,6.42066 V 35.75066 H 237.66 V 31.12566 H 224.37 V 22.33666 H 234.06 V 17.91266 H 224.37 V 11.04566 H 237.88 V 6.42066 Z M 239.56,6.42066 249.45,23.72066 V 35.75066 H 254.655 V 23.72066 L 264.505,6.42066 H 258.999 L 252.032,18.93066 245.085,6.42066 Z M 279.22,6.42066 V 35.75066 H 284.425 V 22.34066 H 294.735 V 17.91666 H 284.425 V 11.04966 H 298.535 V 6.42466 Z M 446.52,6.42066 V 35.77066 H 451.525 V 17.59066 L 465.755,36.15066 H 467.877 V 6.42066 H 462.871 V 24.12066 L 449.021,6.42066 Z M 471.31,6.42066 V 11.04566 H 480.639 V 35.75566 H 485.844 V 11.04566 H 495.594 V 6.42066 Z M 518.58,6.42066 528.47,23.72066 V 35.75066 H 533.675 V 23.72066 L 543.526,6.42066 H 538.02 L 531.053,18.93066 524.106,6.42066 Z M 314.38,10.52466 C 319.452,10.52466 321.988,13.96166 321.988,20.83466 321.988,24.34466 321.3008,27.02066 319.926,28.86266 318.565,30.70466 316.583,31.62566 313.98,31.62566 311.764,31.62566 310.076,30.68486 308.914,28.80266 307.753,26.92066 307.172,24.26466 307.172,20.83466 307.172,17.68466 307.7927,15.18266 309.034,13.32666 310.275,11.45766 312.057,10.52366 314.379,10.52366 Z M 343.21,10.52466 C 348.282,10.52466 350.818,13.96166 350.818,20.83466 350.818,24.34466 350.1309,27.02066 348.756,28.86266 347.395,30.70466 345.413,31.62566 342.81,31.62566 340.594,31.62566 338.906,30.68486 337.745,28.80266 336.584,26.92066 336.003,24.26466 336.003,20.83466 336.003,17.68466 336.6237,15.18266 337.865,13.32666 339.106,11.45766 340.888,10.52366 343.21,10.52366 Z M 506.11,10.82526 C 508.432,10.82526 510.134,11.11176 511.215,11.68576 512.296,12.25966 512.836,13.26776 512.836,14.70876 512.836,16.48376 512.3293,17.67876 511.315,18.29276 510.314,18.90676 508.726,19.21366 506.55,19.21366 506.0428,19.21366 505.309,19.17395 504.348,19.09386 V 10.94486 C 504.962,10.86477 505.549,10.82506 506.11,10.82506 Z M 368.41,10.84484 C 374.243,10.84484 377.159,13.98184 377.159,20.25484 377.159,23.68484 376.4111,26.35384 374.916,28.26284 373.434,30.17184 371.379,31.12584 368.75,31.12584 367.7756,31.12584 366.868,31.0861 366.027,31.00604 V 10.98604 C 367.055,10.89261 367.849,10.84554 368.41,10.84554 Z M 406.29,10.84484 C 411.188,10.84484 413.637,12.36684 413.637,15.40984 413.637,17.19884 413.09,18.49284 411.996,19.29384 410.902,20.08134 409.166,20.47484 406.791,20.47484 406.2838,20.47484 405.59,20.4283 404.709,20.33484 V 10.94484 C 405.2162,10.87811 405.743,10.84464 406.291,10.84464 Z M 157.79,14.98984 161.314,25.81984 H 154.267 Z M 430.49,14.98984 434.014,25.81984 H 426.967 Z" />
  <path inkscape:connector-curvature="0" id="path14" style="opacity:0.93999999;fill:#000000;stroke:#000000;stroke-width:2.30200005;stroke-linecap:round;stroke-linejoin:round;filter:url(#filter5301)" clip-path="url(#clipPath4700)" d="M 211.6,1465 C 208.632,1465 206.243,1472.791 206.243,1482.47 V 1743.47 C 206.243,1753.148 208.633,1760.94 211.6,1760.94 H 2369.6 C 2372.568,1760.94 2374.956,1753.149 2374.956,1743.47 V 1482.47 C 2374.956,1472.792 2372.568,1465 2369.6,1465 Z M 1427.6,1553.21 C 1443.54,1553.21 1455.72,1558.155 1464.15,1568.04 1472.574,1577.927 1476.79,1591.8 1476.79,1609.66 1476.79,1627.52 1472.376,1641.69 1463.55,1652.19 1454.772,1662.68 1442.29,1667.93 1426.09,1667.93 1411.21,1667.93 1399.78,1662.732 1391.81,1652.34 1383.89,1641.95 1379.93,1627.72 1379.93,1609.66 1379.93,1593.87 1384.243,1580.53 1392.87,1569.63 1401.547,1558.68 1413.12,1553.21 1427.6,1553.21 Z M 1536.6,1553.21 C 1552.54,1553.21 1564.72,1558.155 1573.15,1568.04 1581.574,1577.927 1585.79,1591.8 1585.79,1609.66 1585.79,1627.52 1581.374,1641.69 1572.55,1652.19 1563.772,1662.68 1551.29,1667.93 1535.09,1667.93 1520.21,1667.93 1508.78,1662.732 1500.81,1652.34 1492.89,1641.95 1488.93,1627.72 1488.93,1609.66 1488.93,1593.87 1493.245,1580.53 1501.87,1569.63 1510.547,1558.68 1522.12,1553.21 1536.6,1553.21 Z M 524.6,1553.2861 C 537.41,1553.2861 546.82,1555.6811 552.82,1560.4741 L 546.841,1577.4241 C 539.93,1572.4801 532.641,1570.0081 524.971,1570.0081 520.431,1570.0081 516.901,1571.2191 514.381,1573.6411 511.909,1576.0121 510.674,1579.1121 510.674,1582.9461 510.674,1589.3021 517.709,1595.9161 531.784,1602.7761 539.2,1606.4081 544.544,1609.7611 547.824,1612.8361 551.103,1615.8631 553.603,1619.4201 555.318,1623.5061 557.033,1627.5421 557.89,1632.0571 557.89,1637.0461 557.89,1646.0251 554.331,1653.4161 547.22,1659.2161 540.158,1665.0171 530.67,1667.9171 518.77,1667.9171 508.43,1667.9171 499.1,1665.2431 490.77,1659.8951 L 498.036,1642.2651 C 505.805,1647.7131 513.446,1650.4371 520.966,1650.4371 532.516,1650.4371 538.296,1646.4031 538.296,1638.3271 538.296,1634.5441 536.934,1630.9371 534.21,1627.5071 531.486,1624.0771 525.862,1620.2411 517.34,1616.0071 508.865,1611.7191 503.14,1608.2141 500.16,1605.4871 497.234,1602.7131 494.964,1599.4331 493.349,1595.6491 491.785,1591.8661 491.003,1587.6791 491.003,1583.0891 491.003,1574.5131 494.131,1567.3991 500.386,1561.7491 506.692,1556.0991 514.766,1553.2741 524.596,1553.2741 Z M 832,1553.665 H 840.627 L 885.197,1666.065 H 863.477 L 855.381,1643.595 H 817.391 L 809.672,1666.065 H 787.802 Z M 1863,1553.665 H 1871.627 L 1916.197,1666.065 H 1894.477 L 1886.381,1643.595 H 1848.391 L 1840.672,1666.065 H 1818.802 Z M 2156.8,1554.0439 C 2184.95,1554.0439 2199.02,1564.9439 2199.02,1586.7339 2199.02,1593.2919 2197.078,1599.2639 2193.194,1604.6639 2189.31,1610.0639 2184.416,1613.8699 2178.514,1616.0939 L 2211.274,1666.0339 H 2188.574 L 2158.984,1620.2539 C 2156.008,1620.2034 2151.847,1620.0253 2146.504,1619.7227 V 1666.0327 H 2126.074 V 1555.1327 C 2127.184,1555.1327 2131.448,1554.9566 2138.864,1554.6034 2146.28,1554.1999 2152.254,1553.9998 2156.794,1553.9998 Z M 1633.6,1554.4228 C 1649.74,1554.4228 1662.53,1559.1638 1671.97,1568.6428 1681.454,1578.0758 1686.19,1590.6128 1686.19,1606.2528 1686.19,1646.1028 1667,1666.0328 1628.61,1666.0328 H 1604.02 V 1555.2328 C 1619.71,1554.6779 1629.57,1554.4027 1633.6,1554.4027 Z M 1773.2,1554.4228 C 1790.7,1554.4228 1803.49,1557.1208 1811.57,1562.5188 1819.692,1567.8658 1823.75,1576.2388 1823.75,1587.6388 1823.75,1613.0588 1808.77,1625.7788 1778.8,1625.7788 1776.58,1625.7788 1773.605,1625.6026 1769.872,1625.2495 V 1666.0395 H 1750.202 V 1555.2395 C 1763.322,1554.6846 1770.982,1554.4094 1773.202,1554.4094 Z M 260.2,1555.1768 H 280.71 L 301.52,1622.0668 323.99,1555.1768 H 332.617 L 355.167,1622.0668 375.897,1555.1768 H 396.407 L 360.537,1667.5768 H 352.437 L 328.227,1597.6568 304.697,1667.5768 H 296.601 Z M 408.3,1555.1768 H 479.05 V 1572.6568 H 427.97 V 1598.6168 H 464.59 V 1615.3368 H 427.97 V 1648.5568 H 478.21 V 1666.0368 H 408.29 Z M 565.8,1555.1768 H 657.59 V 1572.6568 H 620.74 V 1666.0368 H 601.07 V 1572.6568 H 565.81 Z M 703.3,1555.1768 H 724.94 L 750.59,1630.0868 777.68,1555.1768 H 798.87 L 755.59,1667.5768 H 744.77 Z M 897.1,1555.1768 H 916.78 V 1648.5568 H 966.87 V 1666.0368 H 897.1 Z M 982.76,1555.1768 H 1002.44 V 1648.5568 H 1052.53 V 1666.0368 H 982.76 Z M 1068.42,1555.1768 H 1139.17 V 1572.6568 H 1088.1 V 1598.6168 H 1124.72 V 1615.3368 H 1088.1 V 1648.5568 H 1138.34 V 1666.0368 H 1068.42 Z M 1145.53,1555.1768 H 1166.41 L 1192.67,1602.4668 1219,1555.1768 H 1239.81 L 1202.58,1620.5568 V 1666.0368 H 1182.91 V 1620.5568 Z M 1295.43,1555.1768 H 1368.45 V 1572.6568 H 1315.11 V 1598.6168 H 1354.08 V 1615.3368 H 1315.11 V 1666.0368 H 1295.43 Z M 1927.73,1555.1768 H 1937.189 L 1989.549,1622.0668 V 1555.1768 H 2008.469 V 1667.5768 H 2000.447 L 1946.647,1597.4368 V 1666.1468 H 1927.727 Z M 2021.41,1555.1768 H 2113.2 V 1572.6568 H 2076.35 V 1666.0368 H 2056.68 V 1572.6568 H 2021.42 Z M 2200.11,1555.1768 H 2220.99 L 2247.25,1602.4668 2273.58,1555.1768 H 2294.39 L 2257.16,1620.5568 V 1666.0368 H 2237.49 V 1620.5568 Z M 1428.41,1570.6868 C 1419.632,1570.6868 1412.9,1574.2178 1408.21,1581.2768 1403.518,1588.2888 1401.171,1597.7468 1401.171,1609.6568 1401.171,1622.6168 1403.366,1632.6568 1407.755,1639.7768 1412.144,1646.8898 1418.525,1650.4468 1426.895,1650.4468 1436.732,1650.4468 1444.225,1646.9648 1449.365,1640.0068 1454.561,1633.0448 1457.158,1622.9368 1457.158,1609.6668 1457.158,1583.6868 1447.574,1570.6968 1428.408,1570.6968 Z M 1537.41,1570.6868 C 1528.632,1570.6868 1521.9,1574.2178 1517.21,1581.2768 1512.518,1588.2888 1510.173,1597.7468 1510.173,1609.6568 1510.173,1622.6168 1512.366,1632.6568 1516.755,1639.7768 1521.144,1646.8898 1527.525,1650.4468 1535.895,1650.4468 1545.732,1650.4468 1553.225,1646.9648 1558.365,1640.0068 1563.561,1633.0448 1566.158,1622.9368 1566.158,1609.6668 1566.158,1583.6868 1556.574,1570.6968 1537.408,1570.6968 Z M 2153.21,1571.8218 C 2151.091,1571.8218 2148.872,1571.9722 2146.552,1572.2749 V 1603.0749 C 2150.184,1603.3776 2152.959,1603.5261 2154.876,1603.5261 2163.099,1603.5261 2169.106,1602.3661 2172.886,1600.0461 2176.72,1597.7261 2178.634,1593.2121 2178.634,1586.5061 2178.634,1581.0581 2176.593,1577.2471 2172.507,1575.0761 2168.421,1572.9071 2161.987,1571.8241 2153.207,1571.8241 Z M 1632.71,1571.896 C 1630.591,1571.896 1627.588,1572.0742 1623.704,1572.4273 V 1648.0973 C 1626.882,1648.3999 1630.312,1648.5485 1633.994,1648.5485 1643.932,1648.5485 1651.704,1644.9415 1657.294,1637.7285 1662.944,1630.5145 1665.771,1620.4285 1665.771,1607.4585 1665.771,1583.7485 1654.751,1571.8985 1632.701,1571.8985 Z M 1775.91,1571.896 C 1773.842,1571.896 1771.85,1572.0227 1769.933,1572.2749 V 1607.7649 C 1773.263,1608.118 1775.885,1608.2942 1777.802,1608.2942 1786.781,1608.2942 1793.342,1606.8062 1797.472,1603.8292 1801.608,1600.8022 1803.675,1595.9112 1803.675,1589.1492 1803.675,1577.6492 1794.419,1571.8992 1775.905,1571.8992 Z M 836.81,1587.556 823.49,1628.496 H 850.12 Z M 1867.81,1587.556 1854.49,1628.496 H 1881.12 Z" transform="matrix(0.2646,0,0,0.2646,-63.2,-405.1)" />
</svg>
