<svg width="1916" height="147.2" version="1.1" viewBox="0 0 506.9 38.96" xmlns="http://www.w3.org/2000/svg">
 <defs>
  <clipPath id="clipPath9791">
   <text x="-1033.825" y="-165.17175" style="fill:#ff0000;font-family:'Trebuchet MS';font-size:37.86px;font-weight:bold;letter-spacing:0px;line-height:1.25;opacity:.436;stroke-width:.8873;word-spacing:0px" xml:space="preserve"><tspan x="-1033.825" y="-165.17175" style="fill:#ff0000;stroke-width:.8873">WEST VALLEY FOOD PANTRY</tspan></text>
  </clipPath>
  <filter id="filter9852" x="-.003346" y="-.029" width="1.007" height="1.058" style="color-interpolation-filters:sRGB">
   <feGaussianBlur stdDeviation="0.72892718"/>
  </filter>
 </defs>
 <g transform="translate(1086 -91.86)">
  <rect x="-1086" y="91.86" width="506.9" height="38.96" ry="5.562" style="fill:#000000;opacity:.23"/>
  <text x="-1080.8921" y="124.26756" style="fill:#ffffff;font-family:'Trebuchet MS';font-size:37.86px;font-weight:bold;letter-spacing:0px;line-height:1.25;stroke-width:.8873;word-spacing:0px" xml:space="preserve"><tspan x="-1080.8921" y="124.26756" style="fill:#ffffff;stroke-width:.8873">WEST VALLEY FOOD PANTRY</tspan></text>
  <path transform="translate(-46.58 289.7)" d="m-1044-208.5c-1.035 0-1.868 0.8331-1.868 1.868v56.59c0 1.035 0.8331 1.868 1.868 1.868h519.1c1.035 0 1.868-0.8331 1.868-1.868v-56.59c0-1.035-0.8331-1.868-1.868-1.868zm296.4 16.15c3.894 0 6.87 1.208 8.928 3.623 2.058 2.415 3.087 5.804 3.087 10.17 0 4.362-1.078 7.825-3.234 10.39-2.144 2.563-5.194 3.845-9.15 3.845-3.635 0-6.427-1.269-8.374-3.808-1.935-2.539-2.902-6.014-2.902-10.43 0-3.857 1.054-7.116 3.161-9.778 2.12-2.674 4.948-4.011 8.484-4.011zm26.62 0c3.894 0 6.87 1.208 8.928 3.623s3.087 5.804 3.087 10.17c0 4.362-1.078 7.825-3.235 10.39-2.144 2.563-5.194 3.845-9.15 3.845-3.635 0-6.427-1.269-8.374-3.808-1.935-2.539-2.902-6.014-2.902-10.43 0-3.857 1.054-7.116 3.161-9.778 2.12-2.674 4.948-4.011 8.484-4.011zm-247.3 0.0186c3.13 0 5.428 0.5853 6.895 1.756l-1.46 4.14c-1.688-1.208-3.469-1.811-5.342-1.811-1.109 0-1.972 0.2958-2.588 0.8873-0.6038 0.5792-0.9054 1.337-0.9054 2.273 0 1.553 1.719 3.167 5.157 4.843 1.812 0.8872 3.118 1.707 3.919 2.458 0.801 0.7394 1.411 1.608 1.83 2.607 0.419 0.9858 0.6284 2.088 0.6284 3.308 0 2.193-0.869 3.999-2.607 5.416-1.725 1.417-4.042 2.125-6.95 2.125-2.526 0-4.806-0.6528-6.839-1.959l1.775-4.307c1.898 1.331 3.765 1.996 5.601 1.996 2.822 0 4.233-0.9863 4.233-2.958 0-0.9242-0.333-1.805-0.9984-2.643-0.6654-0.838-2.039-1.775-4.122-2.81-2.07-1.047-3.469-1.903-4.196-2.569-0.7148-0.6778-1.269-1.479-1.663-2.403-0.382-0.9242-0.5731-1.947-0.5731-3.068 0-2.095 0.7638-3.832 2.292-5.213 1.54-1.38 3.512-2.07 5.915-2.07zm75.08 0.09198h2.107l10.89 27.45h-5.305l-1.978-5.49h-9.279l-1.886 5.49h-5.342zm251.8 0h2.107l10.89 27.45h-5.305l-1.978-5.49h-9.28l-1.885 5.49h-5.342zm71.77 0.0925c6.876 0 10.31 2.662 10.31 7.986 0 1.602-0.4743 3.062-1.423 4.381-0.9488 1.319-2.144 2.249-3.586 2.791l8.004 12.2h-5.545l-7.227-11.18c-0.727-0.01232-1.744-0.05577-3.05-0.1297v11.31h-4.991v-27.08c0.2711 0 1.313-0.04345 3.124-0.1297 1.811-0.09858 3.272-0.1478 4.381-0.1478zm-127.8 0.09251c3.943 0 7.068 1.159 9.372 3.475 2.317 2.304 3.475 5.366 3.475 9.187 0 9.735-4.689 14.6-14.07 14.6h-6.007v-27.06c3.832-0.1356 6.241-0.2036 7.227-0.2036zm34.1 0c4.276 0 7.4 0.6591 9.372 1.978 1.984 1.306 2.976 3.352 2.976 6.137 0 6.211-3.66 9.316-10.98 9.316-0.5422 0-1.269-0.04344-2.181-0.1297v9.963h-4.806v-27.06c3.204-0.1356 5.077-0.2036 5.619-0.2036zm-369.6 0.185h5.01l5.083 16.34 5.49-16.34h2.107l5.508 16.34 5.065-16.34h5.009l-8.762 27.45h-1.978l-5.915-17.08-5.748 17.08h-1.978zm36.17 0h17.28v4.27h-12.48v6.34h8.946v4.086h-8.946v8.114h12.27v4.27h-17.08zm38.48 0h22.42v4.27h-9.002v22.81h-4.806v-22.81h-8.613zm33.59 0h5.286l6.266 18.3 6.617-18.3h5.176l-10.57 27.45h-2.643zm47.34 0h4.806v22.81h12.24v4.27h-17.04zm20.92 0h4.806v22.81h12.24v4.27h-17.04zm20.92 0h17.28v4.27h-12.48v6.34h8.947v4.086h-8.947v8.114h12.27v4.27h-17.08zm18.84 0h5.102l6.414 11.55 6.433-11.55h5.083l-9.094 15.97v11.11h-4.806v-11.11zm36.62 0h17.84v4.27h-13.03v6.34h9.519v4.086h-9.519v12.38h-4.806zm154.5 0h2.31l12.79 16.34v-16.34h4.621v27.45h-1.959l-13.14-17.14v16.78h-4.621zm22.88 0h22.42v4.27h-9.002v22.81h-4.806v-22.81h-8.614zm43.64 0h5.101l6.414 11.55 6.433-11.55h5.083l-9.095 15.97v11.11h-4.806v-11.11zm-188.5 3.789c-2.144 0-3.789 0.8622-4.935 2.587-1.146 1.713-1.719 4.024-1.719 6.932 0 3.167 0.5361 5.619 1.608 7.357 1.072 1.738 2.631 2.607 4.677 2.607 2.403 0 4.233-0.8507 5.49-2.551 1.269-1.701 1.904-4.171 1.904-7.412 0-6.346-2.342-9.519-7.024-9.519zm26.62 0c-2.144 0-3.789 0.8622-4.935 2.587-1.146 1.713-1.719 4.024-1.719 6.932 0 3.167 0.5361 5.619 1.608 7.357 1.072 1.738 2.631 2.607 4.677 2.607 2.403 0 4.233-0.8507 5.49-2.551 1.269-1.701 1.904-4.171 1.904-7.412 0-6.346-2.342-9.519-7.024-9.519zm150.4 0.277c-0.5176 0-1.06 0.03716-1.627 0.1111v7.523c0.8872 0.07393 1.565 0.1106 2.033 0.1106 2.009 0 3.475-0.2832 4.399-0.8501 0.9365-0.5668 1.405-1.67 1.405-3.309 0-1.331-0.4994-2.261-1.498-2.791-0.9981-0.5299-2.569-0.7948-4.713-0.7948zm-127.2 0.0186c-0.5176 0-1.25 0.04293-2.199 0.1292v18.48c0.7763 0.07394 1.614 0.1106 2.514 0.1106 2.428 0 4.325-0.8811 5.693-2.643 1.38-1.762 2.07-4.226 2.07-7.393 0-5.792-2.692-8.688-8.078-8.688zm34.97 0c-0.5052 0-0.9921 0.03089-1.46 0.0925v8.669c0.8133 0.08626 1.454 0.1292 1.922 0.1292 2.193 0 3.796-0.3633 4.806-1.09 1.01-0.7394 1.516-1.935 1.516-3.586 0-2.81-2.262-4.214-6.784-4.214zm-229.4 3.826-3.253 10h6.507zm251.8 0-3.254 10h6.507z" clip-path="url(#clipPath9791)" style="fill:#000000;filter:url(#filter9852)"/>
 </g>
</svg>
