<?xml version="1.0" encoding="UTF-8" standalone="no"?>
<svg xmlns:dc="http://purl.org/dc/elements/1.1/" xmlns:cc="http://creativecommons.org/ns#" xmlns:rdf="http://www.w3.org/1999/02/22-rdf-syntax-ns#" xmlns:svg="http://www.w3.org/2000/svg" xmlns="http://www.w3.org/2000/svg" xmlns:sodipodi="http://sodipodi.sourceforge.net/DTD/sodipodi-0.dtd" xmlns:inkscape="http://www.inkscape.org/namespaces/inkscape" width="1916" height="147.2" version="1.1" viewBox="0 0 506.9 38.96" id="svg67" sodipodi:docname="header-raised.svg" inkscape:version="0.92.2 (5c3e80d, 2017-08-06)">
  <metadata id="metadata71">
    <rdf:RDF>
      <cc:Work rdf:about="">
        <dc:format>image/svg+xml</dc:format>
        <dc:type rdf:resource="http://purl.org/dc/dcmitype/StillImage" />
        <dc:title></dc:title>
      </cc:Work>
    </rdf:RDF>
  </metadata>
  <sodipodi:namedview pagecolor="#ffffff" bordercolor="#666666" borderopacity="1" objecttolerance="10" gridtolerance="10" guidetolerance="10" inkscape:pageopacity="0" inkscape:pageshadow="2" inkscape:window-width="2146" inkscape:window-height="954" id="namedview69" showgrid="false" inkscape:zoom="0.83298539" inkscape:cx="1178.631" inkscape:cy="80.606442" inkscape:window-x="0" inkscape:window-y="22" inkscape:window-maximized="0" inkscape:current-layer="svg67" />
  <defs id="defs13">
    <filter id="filter9852" x="-.003346" y="-.029" width="1.007" height="1.058" style="color-interpolation-filters:sRGB">
      <feGaussianBlur stdDeviation="0.72892718" id="feGaussianBlur7" />
    </filter>
    <filter id="filter2811" x="-.001268" y="-.02248" width="1.003" height="1.045" style="color-interpolation-filters:sRGB">
      <feGaussianBlur stdDeviation="0.2619779" id="feGaussianBlur10" />
    </filter>
    <clipPath clipPathUnits="userSpaceOnUse" id="clipPath1024">
      <g aria-label="WEST VALLEY FOOD PANTRY" style="font-weight:bold;font-size:37.86000061px;font-family:'Trebuchet MS';letter-spacing:0px;word-spacing:0px;opacity:0.43600003;fill:#ff0000;stroke-width:0.88730001" id="g1066" transform="translate(-1039,-197.8)">
        <path d="M 29.780352,32.997973 H 27.802315 L 21.88669,15.916605 16.137442,32.997973 H 14.159404 L 5.2674805,5.5457752 H 10.277275 L 15.361016,21.887689 20.851455,5.5457752 H 22.958897 L 28.467823,21.887689 33.533077,5.5457752 H 38.542872 Z" style="fill:#ff0000;stroke-width:0.88730001" id="path1026" inkscape:connector-curvature="0" />
        <path d="M 46.25167,9.816117 V 16.156928 H 55.199053 V 20.242406 H 46.25167 V 28.357904 H 58.526592 V 32.628246 H 41.445225 V 5.5457752 H 58.729942 V 9.816117 Z" style="fill:#ff0000;stroke-width:0.88730001" id="path1028" inkscape:connector-curvature="0" />
        <path d="M 61.669267,31.130854 63.443955,26.823539 Q 66.290849,28.820063 69.045312,28.820063 73.278682,28.820063 73.278682,25.86225 73.278682,24.475775 72.28042,23.218705 71.282158,21.961635 68.157969,20.408783 65.052265,18.837445 63.961572,17.839184 62.889365,16.822436 62.297802,15.435961 61.724726,14.049486 61.724726,12.36723 61.724726,9.2245545 64.017031,7.1540857 66.327822,5.083617 69.932656,5.083617 74.628184,5.083617 76.828057,6.8398182 L 75.367637,10.980756 Q 72.83501,9.1690955 70.025088,9.1690955 68.361318,9.1690955 67.437002,10.056439 66.531172,10.925297 66.531172,12.330258 66.531172,14.659535 71.688857,17.173676 74.406348,18.504691 75.607959,19.632357 76.80957,20.741537 77.438105,22.23893 78.066641,23.717836 78.066641,25.547983 78.066641,28.838549 75.460068,30.964477 72.871982,33.090405 68.509209,33.090405 64.719511,33.090405 61.669267,31.130854 Z" style="fill:#ff0000;stroke-width:0.88730001" id="path1030" inkscape:connector-curvature="0" />
        <path d="M 93.354835,9.816117 V 32.628246 H 88.548389 V 9.816117 H 79.93376 V 5.5457752 H 102.35768 V 9.816117 Z" style="fill:#ff0000;stroke-width:0.88730001" id="path1032" inkscape:connector-curvature="0" />
        <path d="M 126.29747,32.997973 H 123.65392 L 113.52342,5.5457752 H 118.81051 L 125.07737,23.84724 131.69548,5.5457752 H 136.87165 Z" style="fill:#ff0000;stroke-width:0.88730001" id="path1034" inkscape:connector-curvature="0" />
        <path d="M 152.71444,32.628246 150.7364,27.137807 H 141.45627 L 139.57066,32.628246 H 134.22811 L 145.02413,5.1760486 H 147.13157 L 158.02002,32.628246 Z M 146.07785,13.457924 142.82426,23.459027 H 149.33144 Z" style="fill:#ff0000;stroke-width:0.88730001" id="path1036" inkscape:connector-curvature="0" />
        <path d="M 160.86691,32.628246 V 5.5457752 H 165.67336 V 28.357904 H 177.91131 V 32.628246 Z" style="fill:#ff0000;stroke-width:0.88730001" id="path1038" inkscape:connector-curvature="0" />
        <path d="M 181.79343,32.628246 V 5.5457752 H 186.59987 V 28.357904 H 198.83782 V 32.628246 Z" style="fill:#ff0000;stroke-width:0.88730001" id="path1040" inkscape:connector-curvature="0" />
        <path d="M 207.5264,9.816117 V 16.156928 H 216.47378 V 20.242406 H 207.5264 V 28.357904 H 219.80132 V 32.628246 H 202.71996 V 5.5457752 H 220.00467 V 9.816117 Z" style="fill:#ff0000;stroke-width:0.88730001" id="path1042" inkscape:connector-curvature="0" />
        <path d="M 235.49621,21.517963 V 32.628246 H 230.68977 V 21.517963 L 221.55752,5.5457752 H 226.65975 L 233.0745,17.09973 239.50774,5.5457752 H 244.59148 Z" style="fill:#ff0000;stroke-width:0.88730001" id="path1044" inkscape:connector-curvature="0" />
        <path d="M 262.98539,9.816117 V 16.156928 H 272.50584 V 20.242406 H 262.98539 V 32.628246 H 258.17894 V 5.5457752 H 276.01825 V 9.816117 Z" style="fill:#ff0000;stroke-width:0.88730001" id="path1046" inkscape:connector-curvature="0" />
        <path d="M 278.99453,18.855932 Q 278.99453,13.069711 282.15569,9.0766639 285.33534,5.0651306 290.64092,5.0651306 296.4826,5.0651306 299.56981,8.688451 302.65703,12.311771 302.65703,18.855932 302.65703,25.400092 299.42192,29.245248 296.2053,33.090405 290.27119,33.090405 284.81772,33.090405 281.89688,29.282221 278.99453,25.474037 278.99453,18.855932 Z M 283.98584,18.855932 Q 283.98584,23.606918 285.59415,26.21349 287.20246,28.820063 290.27119,28.820063 293.87603,28.820063 295.76163,26.268949 297.66572,23.717836 297.66572,18.855932 297.66572,9.3354725 290.64092,9.3354725 287.4243,9.3354725 285.70507,11.923558 283.98584,14.493158 283.98584,18.855932 Z" style="fill:#ff0000;stroke-width:0.88730001" id="path1048" inkscape:connector-curvature="0" />
        <path d="M 305.61486,18.855932 Q 305.61486,13.069711 308.77602,9.0766639 311.95567,5.0651306 317.26125,5.0651306 323.10293,5.0651306 326.19015,8.688451 329.27736,12.311771 329.27736,18.855932 329.27736,25.400092 326.04225,29.245248 322.82563,33.090405 316.89152,33.090405 311.43806,33.090405 308.51722,29.282221 305.61486,25.474037 305.61486,18.855932 Z M 310.60617,18.855932 Q 310.60617,23.606918 312.21448,26.21349 313.82279,28.820063 316.89152,28.820063 320.49636,28.820063 322.38196,26.268949 324.28605,23.717836 324.28605,18.855932 324.28605,9.3354725 317.26125,9.3354725 314.04463,9.3354725 312.3254,11.923558 310.60617,14.493158 310.60617,18.855932 Z" style="fill:#ff0000;stroke-width:0.88730001" id="path1050" inkscape:connector-curvature="0" />
        <path d="M 339.53726,32.628246 H 333.52921 V 5.5642615 Q 339.27845,5.3609119 340.75736,5.3609119 346.67298,5.3609119 350.12993,8.8363416 353.60536,12.293285 353.60536,18.024047 353.60536,32.628246 339.53726,32.628246 Z M 338.33565,9.760658 V 28.246986 Q 339.50029,28.357904 340.84979,28.357904 344.4916,28.357904 346.54358,25.714359 348.61405,23.070815 348.61405,18.319828 348.61405,9.6312537 340.53552,9.6312537 339.7591,9.6312537 338.33565,9.760658 Z" style="fill:#ff0000;stroke-width:0.88730001" id="path1052" inkscape:connector-curvature="0" />
        <path d="M 374.05126,22.664115 V 32.628246 H 369.24481 V 5.5642615 Q 374.05126,5.3609119 374.86466,5.3609119 381.27941,5.3609119 384.23722,7.338949 387.21352,9.2984998 387.21352,13.47641 387.21352,22.79352 376.23264,22.79352 375.41925,22.79352 374.05126,22.664115 Z M 374.05126,9.7236854 V 18.393773 Q 375.27136,18.523178 375.97384,18.523178 379.2644,18.523178 380.78028,17.432484 382.29616,16.323305 382.29616,13.846137 382.29616,9.6312537 375.51168,9.6312537 374.75374,9.6312537 374.05126,9.7236854 Z" style="fill:#ff0000;stroke-width:0.88730001" id="path1054" inkscape:connector-curvature="0" />
        <path d="M 404.49822,32.628246 402.52019,27.137807 H 393.24005 L 391.35444,32.628246 H 386.0119 L 396.80791,5.1760486 H 398.91535 L 409.8038,32.628246 Z M 397.86163,13.457924 394.60804,23.459027 H 401.11523 Z" style="fill:#ff0000;stroke-width:0.88730001" id="path1056" inkscape:connector-curvature="0" />
        <path d="M 430.41606,32.997973 417.27228,15.861146 V 32.646733 H 412.6507 V 5.5457752 H 414.96149 L 427.75403,21.887689 V 5.5457752 H 432.37561 V 32.997973 Z" style="fill:#ff0000;stroke-width:0.88730001" id="path1058" inkscape:connector-curvature="0" />
        <path d="M 448.95785,9.816117 V 32.628246 H 444.15141 V 9.816117 H 435.53678 V 5.5457752 H 457.9607 V 9.816117 Z" style="fill:#ff0000;stroke-width:0.88730001" id="path1060" inkscape:connector-curvature="0" />
        <path d="M 476.35458,32.628246 469.12642,21.444018 Q 468.03573,21.425531 466.07618,21.314613 V 32.628246 H 461.08487 V 5.5457752 Q 461.49157,5.5457752 464.20906,5.4163709 466.92655,5.2684802 468.59032,5.2684802 478.90569,5.2684802 478.90569,13.254574 478.90569,15.657797 477.48224,17.635834 476.0588,19.613871 473.8959,20.42727 L 481.90048,32.628246 Z M 466.07618,9.7236854 V 17.247621 Q 467.40719,17.358539 468.10967,17.358539 471.12295,17.358539 472.50942,16.508168 473.91438,15.657797 473.91438,13.199115 473.91438,11.202592 472.41699,10.40768 470.9196,9.6127674 467.70298,9.6127674 466.92655,9.6127674 466.07618,9.7236854 Z" style="fill:#ff0000;stroke-width:0.88730001" id="path1062" inkscape:connector-curvature="0" />
        <path d="M 493.1217,21.517963 V 32.628246 H 488.31525 V 21.517963 L 479.18301,5.5457752 H 484.28523 L 490.69999,17.09973 497.13323,5.5457752 H 502.21697 Z" style="fill:#ff0000;stroke-width:0.88730001" id="path1064" inkscape:connector-curvature="0" />
      </g>
    </clipPath>
  </defs>
  <rect id="rect878" style="display:none;opacity:0.20990002;fill:#000000" ry="5.5619998" height="38.959999" width="506.89999" y="6.1039998e-007" x="0" />
  <rect y="6.104e-7" width="506.9" height="38.96" ry="5.562" style="fill:#000000;opacity:0.2099" id="rect15" />
  <g aria-label="WEST VALLEY FOOD PANTRY" transform="matrix(1.002,0,0,0.9985,0.36918587,0.1496)" style="font-weight:bold;font-size:37.79000092px;font-family:'Trebuchet MS';letter-spacing:0px;word-spacing:0px;display:inline;opacity:0.64499996;fill:#000000;stroke-width:0.88559997;filter:url(#filter2811)" id="text19">
    <path d="M 30.319082,33.233041 H 28.344702 L 22.440014,16.183256 16.701396,33.233041 H 14.727016 L 5.8515324,5.8316003 H 10.852065 L 15.926406,22.1433 21.406694,5.8316003 H 23.510239 L 29.008979,22.1433 34.064868,5.8316003 H 39.0654 Z" style="fill:#000000;stroke-width:0.88559997" id="path921" inkscape:connector-curvature="0" />
    <path d="M 46.759948,10.094047 V 16.423134 H 55.690788 V 20.501059 H 46.759948 V 28.601552 H 59.012175 V 32.863998 H 41.962389 V 5.8316003 H 59.215148 V 10.094047 Z" style="fill:#000000;stroke-width:0.88559997" id="path923" inkscape:connector-curvature="0" />
    <path d="M 62.149041,31.369374 63.920447,27.070024 Q 66.762078,29.062856 69.511448,29.062856 73.73699,29.062856 73.73699,26.110512 73.73699,24.726601 72.740574,23.471855 71.744158,22.217109 68.625745,20.667128 65.525784,19.098695 64.437107,18.102279 63.366882,17.087411 62.776414,15.7035 62.204397,14.319589 62.204397,12.640443 62.204397,9.5035779 64.492464,7.4369373 66.798982,5.3702966 70.397151,5.3702966 75.083997,5.3702966 77.279803,7.1232507 L 75.822083,11.256532 Q 73.294139,9.4482215 70.489412,9.4482215 68.828719,9.4482215 67.906111,10.333925 67.001956,11.201176 67.001956,12.603539 67.001956,14.92851 72.150105,17.438002 74.862571,18.766557 76.061961,19.892138 77.261351,20.999267 77.888724,22.493891 78.516097,23.970063 78.516097,25.796825 78.516097,29.081308 75.914344,31.203305 73.331043,33.325302 68.976336,33.325302 65.193645,33.325302 62.149041,31.369374 Z" style="fill:#000000;stroke-width:0.88559997" id="path925" inkscape:connector-curvature="0" />
    <path d="M 93.776024,10.094047 V 32.863998 H 88.978466 V 10.094047 H 80.379764 V 5.8316003 H 102.76222 V 10.094047 Z" style="fill:#000000;stroke-width:0.88559997" id="path927" inkscape:connector-curvature="0" />
    <path d="M 126.65775,33.233041 H 124.0191 L 113.90732,5.8316003 H 119.18463 L 125.43991,24.099228 132.04578,5.8316003 H 137.21238 Z" style="fill:#000000;stroke-width:0.88559997" id="path929" inkscape:connector-curvature="0" />
    <path d="M 153.02588,32.863998 151.0515,27.38371 H 141.78852 L 139.9064,32.863998 H 134.57373 L 145.34979,5.4625573 H 147.45333 L 158.32165,32.863998 Z M 146.40156,13.72912 143.15398,23.711733 H 149.64914 Z" style="fill:#000000;stroke-width:0.88559997" id="path931" inkscape:connector-curvature="0" />
    <path d="M 161.16326,32.863998 V 5.8316003 H 165.96082 V 28.601552 H 178.17614 V 32.863998 Z" style="fill:#000000;stroke-width:0.88559997" id="path933" inkscape:connector-curvature="0" />
    <path d="M 182.05111,32.863998 V 5.8316003 H 186.84867 V 28.601552 H 199.06399 V 32.863998 Z" style="fill:#000000;stroke-width:0.88559997" id="path935" inkscape:connector-curvature="0" />
    <path d="M 207.73649,10.094047 V 16.423134 H 216.66733 V 20.501059 H 207.73649 V 28.601552 H 219.98871 V 32.863998 H 202.93893 V 5.8316003 H 220.19169 V 10.094047 Z" style="fill:#000000;stroke-width:0.88559997" id="path937" inkscape:connector-curvature="0" />
    <path d="M 235.65459,21.774257 V 32.863998 H 230.85703 V 21.774257 L 221.74167,5.8316003 H 226.83446 L 233.23736,17.364193 239.65871,5.8316003 H 244.73305 Z" style="fill:#000000;stroke-width:0.88559997" id="path939" inkscape:connector-curvature="0" />
    <path d="M 263.09295,10.094047 V 16.423134 H 272.5958 V 20.501059 H 263.09295 V 32.863998 H 258.29539 V 5.8316003 H 276.10171 V 10.094047 Z" style="fill:#000000;stroke-width:0.88559997" id="path941" inkscape:connector-curvature="0" />
    <path d="M 279.07251,19.117147 Q 279.07251,13.341625 282.22783,9.3559607 285.4016,5.3518444 290.69736,5.3518444 296.52824,5.3518444 299.60975,8.9684656 302.69126,12.585087 302.69126,19.117147 302.69126,25.649208 299.46213,29.487255 296.25146,33.325302 290.32832,33.325302 284.88494,33.325302 281.9695,29.524159 279.07251,25.723017 279.07251,19.117147 Z M 284.05459,19.117147 Q 284.05459,23.85935 285.65993,26.461103 287.26526,29.062856 290.32832,29.062856 293.92649,29.062856 295.80861,26.516459 297.70918,23.970063 297.70918,19.117147 297.70918,9.6142908 290.69736,9.6142908 287.48669,9.6142908 285.77064,12.197592 284.05459,14.76244 284.05459,19.117147 Z" style="fill:#000000;stroke-width:0.88559997" id="path943" inkscape:connector-curvature="0" />
    <path d="M 305.64359,19.117147 Q 305.64359,13.341625 308.7989,9.3559607 311.97267,5.3518444 317.26844,5.3518444 323.09932,5.3518444 326.18083,8.9684656 329.26234,12.585087 329.26234,19.117147 329.26234,25.649208 326.03321,29.487255 322.82254,33.325302 316.8994,33.325302 311.45601,33.325302 308.54057,29.524159 305.64359,25.723017 305.64359,19.117147 Z M 310.62567,19.117147 Q 310.62567,23.85935 312.231,26.461103 313.83634,29.062856 316.8994,29.062856 320.49757,29.062856 322.37968,26.516459 324.28026,23.970063 324.28026,19.117147 324.28026,9.6142908 317.26844,9.6142908 314.05777,9.6142908 312.34172,12.197592 310.62567,14.76244 310.62567,19.117147 Z" style="fill:#000000;stroke-width:0.88559997" id="path945" inkscape:connector-curvature="0" />
    <path d="M 339.50329,32.863998 H 333.50634 V 5.8500524 Q 339.24496,5.6470788 340.72113,5.6470788 346.62582,5.6470788 350.07637,9.1160828 353.54538,12.566635 353.54538,18.286801 353.54538,32.863998 339.50329,32.863998 Z M 338.3039,10.03869 V 28.490839 Q 339.46639,28.601552 340.81339,28.601552 344.44847,28.601552 346.49665,25.962895 348.5633,23.324237 348.5633,18.582035 348.5633,9.9095252 340.49971,9.9095252 339.72472,9.9095252 338.3039,10.03869 Z" style="fill:#000000;stroke-width:0.88559997" id="path947" inkscape:connector-curvature="0" />
    <path d="M 373.95344,22.91829 V 32.863998 H 369.15588 V 5.8500524 Q 373.95344,5.6470788 374.76533,5.6470788 381.16823,5.6470788 384.12057,7.6214587 387.09137,9.5773865 387.09137,13.747572 387.09137,23.047455 376.13079,23.047455 375.3189,23.047455 373.95344,22.91829 Z M 373.95344,10.001786 V 18.655844 Q 375.17128,18.785009 375.87246,18.785009 379.15694,18.785009 380.67002,17.696332 382.1831,16.589203 382.1831,14.116615 382.1831,9.9095252 375.41116,9.9095252 374.65462,9.9095252 373.95344,10.001786 Z" style="fill:#000000;stroke-width:0.88559997" id="path949" inkscape:connector-curvature="0" />
    <path d="M 404.34415,32.863998 402.36977,27.38371 H 393.10679 L 391.22467,32.863998 H 385.892 L 396.66805,5.4625573 H 398.7716 L 409.63991,32.863998 Z M 397.71983,13.72912 394.47225,23.711733 H 400.9674 Z" style="fill:#000000;stroke-width:0.88559997" id="path951" inkscape:connector-curvature="0" />
    <path d="M 430.21405,33.233041 417.09457,16.127899 V 32.882451 H 412.48153 V 5.8316003 H 414.78805 L 427.55694,22.1433 V 5.8316003 H 432.16997 V 33.233041 Z" style="fill:#000000;stroke-width:0.88559997" id="path953" inkscape:connector-curvature="0" />
    <path d="M 448.72157,10.094047 V 32.863998 H 443.92401 V 10.094047 H 435.32531 V 5.8316003 H 457.70776 V 10.094047 Z" style="fill:#000000;stroke-width:0.88559997" id="path955" inkscape:connector-curvature="0" />
    <path d="M 476.06764,32.863998 468.85285,21.700448 Q 467.76417,21.681996 465.80825,21.571283 V 32.863998 H 460.82617 V 5.8316003 Q 461.23211,5.8316003 463.94458,5.7024353 466.65705,5.5548181 468.31774,5.5548181 478.61404,5.5548181 478.61404,13.526146 478.61404,15.924926 477.19322,17.899306 475.77241,19.873686 473.61351,20.68558 L 481.60329,32.863998 Z M 465.80825,10.001786 V 17.511811 Q 467.1368,17.622523 467.83798,17.622523 470.84568,17.622523 472.22959,16.773725 473.63196,15.924926 473.63196,13.47079 473.63196,11.477958 472.13733,10.684515 470.64271,9.8910731 467.43204,9.8910731 466.65705,9.8910731 465.80825,10.001786 Z" style="fill:#000000;stroke-width:0.88559997" id="path957" inkscape:connector-curvature="0" />
    <path d="M 492.80376,21.774257 V 32.863998 H 488.0062 V 21.774257 L 478.89084,5.8316003 H 483.98363 L 490.38653,17.364193 496.80788,5.8316003 H 501.88222 Z" style="fill:#000000;stroke-width:0.88559997" id="path959" inkscape:connector-curvature="0" />
  </g>
  <g aria-label="WEST VALLEY FOOD PANTRY" transform="scale(1.002,0.9982)" style="font-weight:bold;font-size:37.79000092px;font-family:'Trebuchet MS';letter-spacing:0px;word-spacing:0px;display:none;fill:#ffffff;stroke-width:0.88559997" id="text23">
    <path d="M 30.186934,33.020925 H 28.212554 L 22.307866,15.97114 16.569248,33.020925 H 14.594868 L 5.7193841,5.6194841 H 10.719916 L 15.794257,21.931184 21.274546,5.6194841 H 23.378091 L 28.876831,21.931184 33.93272,5.6194841 H 38.933252 Z" style="fill:#ffffff;stroke-width:0.88559997" id="path880" inkscape:connector-curvature="0" />
    <path d="M 46.6278,9.8819304 V 16.211018 H 55.55864 V 20.288942 H 46.6278 V 28.389436 H 58.880026 V 32.651882 H 41.830241 V 5.6194841 H 59.083 V 9.8819304 Z" style="fill:#ffffff;stroke-width:0.88559997" id="path882" inkscape:connector-curvature="0" />
    <path d="M 62.016892,31.157258 63.788299,26.857907 Q 66.62993,28.85074 69.3793,28.85074 73.604842,28.85074 73.604842,25.898396 73.604842,24.514485 72.608426,23.259738 71.61201,22.004992 68.493597,20.455012 65.393636,18.886579 64.304959,17.890163 63.234734,16.875295 62.644265,15.491384 62.072249,14.107473 62.072249,12.428327 62.072249,9.2914617 64.360315,7.224821 66.666834,5.1581803 70.265003,5.1581803 74.951849,5.1581803 77.147654,6.9111345 L 75.689935,11.044416 Q 73.16199,9.2361052 70.357264,9.2361052 68.69657,9.2361052 67.773963,10.121808 66.869808,10.989059 66.869808,12.391423 66.869808,14.716393 72.017957,17.225886 74.730423,18.55444 75.929813,19.680022 77.129202,20.78715 77.756575,22.281774 78.383948,23.757946 78.383948,25.584709 78.383948,28.869192 75.782195,30.991189 73.198895,33.113186 68.844187,33.113186 65.061497,33.113186 62.016892,31.157258 Z" style="fill:#ffffff;stroke-width:0.88559997" id="path884" inkscape:connector-curvature="0" />
    <path d="M 93.643876,9.8819304 V 32.651882 H 88.846317 V 9.8819304 H 80.247616 V 5.6194841 H 102.63007 V 9.8819304 Z" style="fill:#ffffff;stroke-width:0.88559997" id="path886" inkscape:connector-curvature="0" />
    <path d="M 126.52561,33.020925 H 123.88695 L 113.77517,5.6194841 H 119.05248 L 125.30776,23.887111 131.91363,5.6194841 H 137.08023 Z" style="fill:#ffffff;stroke-width:0.88559997" id="path888" inkscape:connector-curvature="0" />
    <path d="M 152.89373,32.651882 150.91935,27.171594 H 141.65637 L 139.77425,32.651882 H 134.44158 L 145.21764,5.2504411 H 147.32118 L 158.1895,32.651882 Z M 146.26941,13.517004 143.02183,23.499616 H 149.51699 Z" style="fill:#ffffff;stroke-width:0.88559997" id="path890" inkscape:connector-curvature="0" />
    <path d="M 161.03112,32.651882 V 5.6194841 H 165.82867 V 28.389436 H 178.044 V 32.651882 Z" style="fill:#ffffff;stroke-width:0.88559997" id="path892" inkscape:connector-curvature="0" />
    <path d="M 181.91896,32.651882 V 5.6194841 H 186.71652 V 28.389436 H 198.93184 V 32.651882 Z" style="fill:#ffffff;stroke-width:0.88559997" id="path894" inkscape:connector-curvature="0" />
    <path d="M 207.60434,9.8819304 V 16.211018 H 216.53518 V 20.288942 H 207.60434 V 28.389436 H 219.85657 V 32.651882 H 202.80678 V 5.6194841 H 220.05954 V 9.8819304 Z" style="fill:#ffffff;stroke-width:0.88559997" id="path896" inkscape:connector-curvature="0" />
    <path d="M 235.52244,21.562141 V 32.651882 H 230.72488 V 21.562141 L 221.60952,5.6194841 H 226.70231 L 233.10521,17.152077 239.52656,5.6194841 H 244.6009 Z" style="fill:#ffffff;stroke-width:0.88559997" id="path898" inkscape:connector-curvature="0" />
    <path d="M 262.9608,9.8819304 V 16.211018 H 272.46366 V 20.288942 H 262.9608 V 32.651882 H 258.16324 V 5.6194841 H 275.96956 V 9.8819304 Z" style="fill:#ffffff;stroke-width:0.88559997" id="path900" inkscape:connector-curvature="0" />
    <path d="M 278.94036,18.905031 Q 278.94036,13.129509 282.09568,9.1438445 285.26945,5.1397282 290.56522,5.1397282 296.39609,5.1397282 299.4776,8.7563494 302.55911,12.372971 302.55911,18.905031 302.55911,25.437092 299.32999,29.275139 296.11931,33.113186 290.19617,33.113186 284.75279,33.113186 281.83735,29.312043 278.94036,25.510901 278.94036,18.905031 Z M 283.92244,18.905031 Q 283.92244,23.647234 285.52778,26.248987 287.13312,28.85074 290.19617,28.85074 293.79434,28.85074 295.67646,26.304343 297.57703,23.757946 297.57703,18.905031 297.57703,9.4021746 290.56522,9.4021746 287.35454,9.4021746 285.63849,11.985475 283.92244,14.550324 283.92244,18.905031 Z" style="fill:#ffffff;stroke-width:0.88559997" id="path902" inkscape:connector-curvature="0" />
    <path d="M 305.51144,18.905031 Q 305.51144,13.129509 308.66675,9.1438445 311.84052,5.1397282 317.13629,5.1397282 322.96717,5.1397282 326.04868,8.7563494 329.13019,12.372971 329.13019,18.905031 329.13019,25.437092 325.90106,29.275139 322.69039,33.113186 316.76725,33.113186 311.32386,33.113186 308.40842,29.312043 305.51144,25.510901 305.51144,18.905031 Z M 310.49352,18.905031 Q 310.49352,23.647234 312.09885,26.248987 313.70419,28.85074 316.76725,28.85074 320.36542,28.85074 322.24754,26.304343 324.14811,23.757946 324.14811,18.905031 324.14811,9.4021746 317.13629,9.4021746 313.92562,9.4021746 312.20957,11.985475 310.49352,14.550324 310.49352,18.905031 Z" style="fill:#ffffff;stroke-width:0.88559997" id="path904" inkscape:connector-curvature="0" />
    <path d="M 339.37114,32.651882 H 333.37419 V 5.6379362 Q 339.11281,5.4349626 340.58898,5.4349626 346.49367,5.4349626 349.94422,8.9039666 353.41323,12.354518 353.41323,18.074685 353.41323,32.651882 339.37114,32.651882 Z M 338.17175,9.826574 V 28.278723 Q 339.33424,28.389436 340.68124,28.389436 344.31632,28.389436 346.36451,25.750778 348.43115,23.112121 348.43115,18.369919 348.43115,9.697409 340.36756,9.697409 339.59257,9.697409 338.17175,9.826574 Z" style="fill:#ffffff;stroke-width:0.88559997" id="path906" inkscape:connector-curvature="0" />
    <path d="M 373.82129,22.706174 V 32.651882 H 369.02373 V 5.6379362 Q 373.82129,5.4349626 374.63318,5.4349626 381.03608,5.4349626 383.98842,7.4093425 386.95922,9.3652703 386.95922,13.535456 386.95922,22.835339 375.99864,22.835339 375.18675,22.835339 373.82129,22.706174 Z M 373.82129,9.7896697 V 18.443728 Q 375.03913,18.572893 375.74031,18.572893 379.02479,18.572893 380.53787,17.484216 382.05095,16.377087 382.05095,13.904499 382.05095,9.697409 375.27901,9.697409 374.52247,9.697409 373.82129,9.7896697 Z" style="fill:#ffffff;stroke-width:0.88559997" id="path908" inkscape:connector-curvature="0" />
    <path d="M 404.212,32.651882 402.23762,27.171594 H 392.97464 L 391.09252,32.651882 H 385.75985 L 396.53591,5.2504411 H 398.63945 L 409.50777,32.651882 Z M 397.58768,13.517004 394.3401,23.499616 H 400.83526 Z" style="fill:#ffffff;stroke-width:0.88559997" id="path910" inkscape:connector-curvature="0" />
    <path d="M 430.0819,33.020925 416.96242,15.915783 V 32.670334 H 412.34938 V 5.6194841 H 414.6559 L 427.42479,21.931184 V 5.6194841 H 432.03783 V 33.020925 Z" style="fill:#ffffff;stroke-width:0.88559997" id="path912" inkscape:connector-curvature="0" />
    <path d="M 448.58942,9.8819304 V 32.651882 H 443.79186 V 9.8819304 H 435.19316 V 5.6194841 H 457.57561 V 9.8819304 Z" style="fill:#ffffff;stroke-width:0.88559997" id="path914" inkscape:connector-curvature="0" />
    <path d="M 475.93549,32.651882 468.7207,21.488332 Q 467.63203,21.46988 465.6761,21.359167 V 32.651882 H 460.69402 V 5.6194841 Q 461.09997,5.6194841 463.81243,5.490319 466.5249,5.3427018 468.18559,5.3427018 478.48189,5.3427018 478.48189,13.31403 478.48189,15.712809 477.06107,17.687189 475.64026,19.661569 473.48136,20.473464 L 481.47114,32.651882 Z M 465.6761,9.7896697 V 17.299694 Q 467.00465,17.410407 467.70583,17.410407 470.71353,17.410407 472.09745,16.561608 473.49981,15.712809 473.49981,13.258674 473.49981,11.265842 472.00519,10.472399 470.51056,9.6789568 467.29989,9.6789568 466.5249,9.6789568 465.6761,9.7896697 Z" style="fill:#ffffff;stroke-width:0.88559997" id="path916" inkscape:connector-curvature="0" />
    <path d="M 492.56604,21.774157 V 32.863898 H 487.76848 V 21.774157 L 478.65312,5.8314997 H 483.74591 L 490.14881,17.364093 496.57016,5.8314997 H 501.6445 Z" style="fill:#ffffff;stroke-width:0.88559997" id="path918" inkscape:connector-curvature="0" />
  </g>
  <path d="m30.39 33.11h-2.039l-5.94-17.2-5.773 17.2h-2.039l-8.929-27.62h5.19l4.999 16.3 5.407-16.3h2.275l5.479 16.3 5.006-16.3h5.163z" style="fill:#35f0dd;opacity:1;stroke-width:0.891" id="path25" />
  <path d="m46.67 9.802v6.314h9.063v4.181h-9.063v8.07h12.44v4.341h-17.31v-27.24h17.49v4.341z" style="fill:#35f0dd;opacity:1;stroke-width:0.891" id="path27" />
  <path d="m62.11 31.18 1.782-4.325q2.859 2.005 5.625 2.005 4.251 0 4.251-2.97 0-1.392-1.002-2.655-1.002-1.262-4.14-2.822-3.119-1.578-4.214-2.58-1.077-1.021-1.671-2.413-0.5755-1.392-0.5755-3.081 0-3.156 2.302-5.235 2.32-2.079 5.94-2.079 4.715 0 6.924 1.763l-1.466 4.158q-2.543-1.819-5.365-1.819-1.671 0-2.599 0.891-0.9096 0.8725-0.9096 2.283 0 2.339 5.179 4.864 2.729 1.337 3.935 2.469 1.207 1.114 1.838 2.617 0.6311 1.485 0.6311 3.323 0 3.304-2.617 5.439-2.599 2.135-6.98 2.135-3.806 0-6.868-1.968z" style="fill:#35f0dd;opacity:1;stroke-width:0.891" id="path29" />
  <path d="m93.81 9.805v22.91h-4.826v-22.91h-8.65v-4.288h22.52v4.288z" style="fill:#35f0dd;opacity:1;stroke-width:0.891" id="path31" />
  <path d="m126.8 33.06h-2.708l-10.17-27.57h5.309l6.293 18.38 6.646-18.38h5.251z" style="fill:#35f0dd;opacity:1;stroke-width:0.891" id="path33" />
  <path d="m153.2 32.65-1.986-5.513h-9.319l-1.893 5.513h-5.365l10.84-27.57h2.116l10.93 27.57zm-6.664-19.25-3.267 10.04h6.534z" style="fill:#35f0dd;opacity:1;stroke-width:0.891" id="path35" />
  <path d="m161.3 32.6v-27.19h4.826v22.91h12.29v4.288z" style="fill:#35f0dd;opacity:1;stroke-width:0.891" id="path37" />
  <path d="m182.2 32.63v-27.19h4.826v22.91h12.29v4.288z" style="fill:#35f0dd;opacity:1;stroke-width:0.891" id="path39" />
  <path d="m208 9.796v6.392h9.08v4.118h-9.08v8.102h12.46v4.384h-17.34v-27.3h17.54v4.305z" style="fill:#35f0dd;opacity:1;stroke-width:0.8975" id="path41" />
  <path d="m236.1 21.64v11.25h-4.937v-11.25l-9.38-16.18h5.346l6.483 11.31 6.423-11.31h5.407z" style="fill:#35f0dd;opacity:1;stroke-width:0.9051" id="path43" />
  <path d="m263.4 9.793v6.345h9.659v4.122h-9.659v12.5h-4.876v-27.33h18.1v4.309z" style="fill:#35f0dd;opacity:1;stroke-width:0.8978" id="path45" />
  <path d="m279.4 18.94q0-5.832 3.188-9.857 3.207-4.043 8.558-4.043 5.892 0 9.006 3.652t3.114 10.25q0 6.596-3.263 10.47-3.244 3.876-9.23 3.876-5.501 0-8.447-3.838-2.927-3.838-2.927-10.51zm5.034 0q0 4.789 1.622 7.416t4.718 2.627q3.636 0 5.538-2.571 1.92-2.571 1.92-7.472 0-9.596-7.085-9.596-3.244 0-4.978 2.609-1.734 2.59-1.734 6.987z" style="fill:#35f0dd;opacity:1;stroke-width:0.8946" id="path47" />
  <path d="m306 18.84c0-3.888 1.063-7.174 3.188-9.857 2.138-2.695 4.991-4.043 8.558-4.043 3.928 0 6.93 1.217 9.006 3.652 2.076 2.435 3.114 5.851 3.114 10.25 0 4.397-1.088 7.887-3.263 10.47-2.163 2.584-5.239 3.876-9.23 3.876-3.667 0-6.483-1.279-8.447-3.838-1.951-2.559-2.927-6.062-2.927-10.51zm5.034 0c0 3.193 0.5407 5.665 1.622 7.416s2.654 2.627 4.717 2.627c2.424 0 4.27-0.857 5.538-2.571 1.281-1.714 2.002-4.206 1.921-7.472-0.1589-6.397-2.382-9.192-7.085-9.49-2.2-0.02006-3.822 0.7638-4.978 2.503-1.156 1.727-1.734 4.056-1.734 6.987z" style="fill:#35f0dd;opacity:1;stroke-width:0.8946" id="path49" />
  <path d="m339.9 32.73h-6.018v-27.12c3.839-0.1359 6.252-0.2038 7.239-0.2038 3.95 0 7.079 1.161 9.387 3.483 2.32 2.31 3.48 5.379 3.48 9.208 0 9.755-4.695 14.63-14.09 14.63zm-1.203-22.92v18.47c0.7773 0.07414 1.617 0.05822 2.518 0.05822 2.432 0 4.333-0.8304 5.703-2.597 1.382-1.767 2.074-4.184 2.074-7.357 0-5.805-2.697-8.707-8.091-8.707-0.5184 0-1.253 0.04323-2.203 0.1297z" style="fill:#35f0dd;opacity:1;stroke-width:0.8889" id="path51" />
  <path d="m374.5 22.74v10.09h-4.866v-27.4c3.244-0.1373 5.141-0.2059 5.69-0.2059 4.329 0 7.492 0.6677 9.489 2.003 2.009 1.323 3.013 3.394 3.013 6.214 0 6.289-3.707 9.433-11.12 9.433-0.549 0-1.285-0.04367-2.208-0.131zm0.05285-13.1v8.778c0.8233 0.08733 1.419 0.131 1.893 0.131 2.221 0 3.843-0.368 4.866-1.104 1.023-0.7487 1.535-1.959 1.535-3.631 0-2.845-2.29-4.214-6.869-4.214-0.5115 0-1.005 0.0312-1.479 0.09358z" style="fill:#35f0dd;opacity:1;stroke-width:0.891" id="path53" />
  <path d="m405.1 32.94-2.019-5.603h-9.471l-1.924 5.603h-5.452l11.02-28.02h2.151l11.11 28.02zm-6.773-19.56-3.32 10.13h6.641z" style="fill:#35f0dd;opacity:1;stroke-width:0.9055" id="path55" />
  <path d="m431 33.14-13.07-17.12v16.83h-4.977v-27.41h2.422l12.79 16.2-0.1059-16.2h4.924v27.7z" style="fill:#35f0dd;opacity:1;stroke-width:0.891" id="path57" />
  <path d="m449.5 9.766v22.92h-4.849v-22.92h-8.691v-4.322h22.62v4.322z" style="fill:#35f0dd;opacity:1;stroke-width:0.8939" id="path59" />
  <path d="m476.9 32.79-7.313-11.25c-0.7357-0.0124-1.658-0.05579-2.98-0.1302v11.38h-5.156v-27.25c0.2743 0 1.328-0.0434 3.161-0.1302 1.833-0.09919 3.311-0.1488 4.433-0.1488 6.958 0 10.44 2.678 10.44 8.035 0 1.612-0.4801 3.081-1.44 4.408-0.9602 1.327-2.17 2.263-3.629 2.808l8.099 12.28zm-10.29-23.04v7.57c0.8978 0.07439 1.478 0.1116 1.951 0.1116 2.033 0 3.437-0.2852 4.373-0.8555 0.9477-0.5704 1.29-1.68 1.29-3.329 0-1.339-0.3727-2.275-1.383-2.808-1.01-0.5332-2.521-0.7732-4.691-0.7732-0.5237 0-0.9664 0.03719-1.54 0.1116z" style="fill:#35f0dd;opacity:1;stroke-width:0.8952" id="path61" />
  <path d="M 493.48874,21.592856 493.30486,32.710519 H 488.51633 L 488.43767,21.592856 479.33993,5.5328564 H 484.55365 L 490.94369,17.152856 497.30019,5.5328564 H 502.54839 Z" style="opacity:1;fill:#35f0dd;stroke-width:0.88813823" id="path63" inkscape:connector-curvature="0" sodipodi:nodetypes="cccccccccc" />
  <path transform="translate(1039,197.8)" d="M -1044,-208.5 C -1045.035,-208.5 -1045.868,-207.6669 -1045.868,-206.632 V -150.042 C -1045.868,-149.007 -1045.0349,-148.174 -1044,-148.174 H -524.9 C -523.865,-148.174 -523.032,-149.0071 -523.032,-150.042 V -206.632 C -523.032,-207.667 -523.8651,-208.5 -524.9,-208.5 Z M -747.6,-192.35 C -743.706,-192.35 -740.73,-191.142 -738.672,-188.727 -736.614,-186.312 -735.585,-182.923 -735.585,-178.557 -735.585,-174.195 -736.663,-170.732 -738.819,-168.167 -740.963,-165.604 -744.013,-164.322 -747.969,-164.322 -751.604,-164.322 -754.396,-165.591 -756.343,-168.13 -758.278,-170.669 -759.245,-174.144 -759.245,-178.56 -759.245,-182.417 -758.191,-185.676 -756.084,-188.338 -753.964,-191.012 -751.136,-192.349 -747.6,-192.349 Z M -720.98,-192.35 C -717.086,-192.35 -714.11,-191.142 -712.052,-188.727 -709.994,-186.312 -708.965,-182.923 -708.965,-178.557 -708.965,-174.195 -710.043,-170.732 -712.2,-168.167 -714.344,-165.604 -717.394,-164.322 -721.35,-164.322 -724.985,-164.322 -727.777,-165.591 -729.724,-168.13 -731.659,-170.669 -732.626,-174.144 -732.626,-178.56 -732.626,-182.417 -731.572,-185.676 -729.465,-188.338 -727.345,-191.012 -724.517,-192.349 -720.981,-192.349 Z M -968.28,-192.3314 C -965.15,-192.3314 -962.852,-191.7461 -961.385,-190.5754 L -962.845,-186.4354 C -964.533,-187.6434 -966.314,-188.2464 -968.187,-188.2464 -969.296,-188.2464 -970.159,-187.9506 -970.775,-187.3591 -971.3788,-186.7799 -971.6804,-186.0221 -971.6804,-185.0861 -971.6804,-183.5331 -969.9614,-181.9191 -966.5234,-180.2431 -964.7114,-179.3559 -963.4054,-178.5361 -962.6044,-177.7851 -961.8034,-177.0457 -961.1934,-176.1771 -960.7744,-175.1781 -960.3554,-174.1923 -960.146,-173.0901 -960.146,-171.8701 -960.146,-169.6771 -961.015,-167.8711 -962.753,-166.4541 -964.478,-165.0371 -966.795,-164.3291 -969.703,-164.3291 -972.229,-164.3291 -974.509,-164.9819 -976.542,-166.2881 L -974.767,-170.5951 C -972.869,-169.2641 -971.002,-168.5991 -969.166,-168.5991 -966.344,-168.5991 -964.933,-169.5854 -964.933,-171.5571 -964.933,-172.4813 -965.266,-173.3621 -965.9314,-174.2001 -966.5968,-175.0381 -967.9704,-175.9751 -970.0534,-177.0101 -972.1234,-178.0571 -973.5224,-178.9131 -974.2494,-179.5791 -974.9642,-180.2569 -975.5184,-181.0581 -975.9124,-181.9821 -976.2944,-182.9063 -976.4855,-183.9291 -976.4855,-185.0501 -976.4855,-187.1451 -975.7217,-188.8821 -974.1935,-190.2631 -972.6535,-191.6431 -970.6815,-192.3331 -968.2785,-192.3331 Z M -893.2,-192.23942 H -891.093 L -880.203,-164.78942 H -885.508 L -887.486,-170.27942 H -896.765 L -898.651,-164.78942 H -903.993 Z M -641.4,-192.23942 H -639.293 L -628.403,-164.78942 H -633.708 L -635.686,-170.27942 H -644.966 L -646.851,-164.78942 H -652.193 Z M -569.63,-192.14692 C -562.754,-192.14692 -559.32,-189.48492 -559.32,-184.16092 -559.32,-182.55892 -559.7943,-181.09892 -560.743,-179.77992 -561.6918,-178.46092 -562.887,-177.53092 -564.329,-176.98892 L -556.325,-164.78892 H -561.87 L -569.097,-175.96892 C -569.824,-175.98124 -570.841,-176.02469 -572.147,-176.09862 V -164.78862 H -577.138 V -191.86862 C -576.8669,-191.86862 -575.825,-191.91207 -574.014,-191.99832 -572.203,-192.0969 -570.742,-192.14612 -569.633,-192.14612 Z M -697.43,-192.05441 C -693.487,-192.05441 -690.362,-190.89541 -688.058,-188.57941 -685.741,-186.27541 -684.583,-183.21341 -684.583,-179.39241 -684.583,-169.65741 -689.272,-164.79241 -698.653,-164.79241 H -704.66 V -191.85241 C -700.828,-191.98801 -698.419,-192.05601 -697.433,-192.05601 Z M -663.33,-192.05441 C -659.054,-192.05441 -655.93,-191.39531 -653.958,-190.07641 -651.974,-188.77041 -650.982,-186.72441 -650.982,-183.93941 -650.982,-177.72841 -654.642,-174.62341 -661.962,-174.62341 -662.5042,-174.62341 -663.231,-174.66685 -664.143,-174.75311 V -164.79011 H -668.949 V -191.85011 C -665.745,-191.98571 -663.872,-192.05371 -663.33,-192.05371 Z M -1032.93,-191.86941 H -1027.92 L -1022.837,-175.52941 -1017.347,-191.86941 H -1015.24 L -1009.732,-175.52941 -1004.667,-191.86941 H -999.658 L -1008.42,-164.41941 H -1010.398 L -1016.313,-181.49941 -1022.061,-164.41941 H -1024.039 Z M -996.76,-191.86941 H -979.48 V -187.59941 H -991.96 V -181.25941 H -983.014 V -177.17341 H -991.96 V -169.05941 H -979.69 V -164.78941 H -996.77 Z M -958.28,-191.86941 H -935.86 V -187.59941 H -944.862 V -164.78941 H -949.668 V -187.59941 H -958.281 Z M -924.69,-191.86941 H -919.404 L -913.138,-173.56941 -906.521,-191.86941 H -901.345 L -911.915,-164.41941 H -914.558 Z M -877.35,-191.86941 H -872.544 V -169.05941 H -860.304 V -164.78941 H -877.344 Z M -856.43,-191.86941 H -851.624 V -169.05941 H -839.384 V -164.78941 H -856.424 Z M -835.51,-191.86941 H -818.23 V -187.59941 H -830.71 V -181.25941 H -821.763 V -177.17341 H -830.71 V -169.05941 H -818.44 V -164.78941 H -835.52 Z M -816.67,-191.86941 H -811.568 L -805.154,-180.31941 -798.721,-191.86941 H -793.638 L -802.732,-175.89941 V -164.78941 H -807.538 V -175.89941 Z M -780.05,-191.86941 H -762.21 V -187.59941 H -775.24 V -181.25941 H -765.721 V -177.17341 H -775.24 V -164.79341 H -780.046 Z M -625.55,-191.86941 H -623.24 L -610.45,-175.52941 V -191.86941 H -605.829 V -164.41941 H -607.788 L -620.928,-181.55941 V -164.77941 H -625.549 Z M -602.67,-191.86941 H -580.25 V -187.59941 H -589.252 V -164.78941 H -594.058 V -187.59941 H -602.672 Z M -559.03,-191.86941 H -553.929 L -547.515,-180.31941 -541.082,-191.86941 H -535.999 L -545.094,-175.89941 V -164.78941 H -549.9 V -175.89941 Z M -747.53,-188.08041 C -749.674,-188.08041 -751.319,-187.21821 -752.465,-185.49341 -753.611,-183.78041 -754.184,-181.46941 -754.184,-178.56141 -754.184,-175.39441 -753.6479,-172.94241 -752.576,-171.20441 -751.504,-169.46641 -749.945,-168.59741 -747.899,-168.59741 -745.496,-168.59741 -743.666,-169.44811 -742.409,-171.14841 -741.14,-172.84941 -740.505,-175.31941 -740.505,-178.56041 -740.505,-184.90641 -742.847,-188.07941 -747.529,-188.07941 Z M -720.91,-188.08041 C -723.054,-188.08041 -724.699,-187.21821 -725.845,-185.49341 -726.991,-183.78041 -727.564,-181.46941 -727.564,-178.56141 -727.564,-175.39441 -727.0279,-172.94241 -725.956,-171.20441 -724.884,-169.46641 -723.325,-168.59741 -721.279,-168.59741 -718.876,-168.59741 -717.046,-169.44811 -715.789,-171.14841 -714.52,-172.84941 -713.885,-175.31941 -713.885,-178.56041 -713.885,-184.90641 -716.227,-188.07941 -720.909,-188.07941 Z M -570.51,-187.80341 C -571.0276,-187.80341 -571.57,-187.76625 -572.137,-187.69231 V -180.16931 C -571.2498,-180.09538 -570.572,-180.05871 -570.104,-180.05871 -568.095,-180.05871 -566.629,-180.34191 -565.705,-180.90881 -564.7685,-181.47561 -564.3,-182.57881 -564.3,-184.21781 -564.3,-185.54881 -564.7994,-186.47881 -565.798,-187.00881 -566.7961,-187.53871 -568.367,-187.80361 -570.511,-187.80361 Z M -697.71,-187.78481 C -698.2276,-187.78481 -698.96,-187.74188 -699.909,-187.65561 V -169.17561 C -699.1327,-169.10167 -698.295,-169.06501 -697.395,-169.06501 -694.967,-169.06501 -693.07,-169.94611 -691.702,-171.70801 -690.322,-173.47001 -689.632,-175.93401 -689.632,-179.10101 -689.632,-184.89301 -692.324,-187.78901 -697.71,-187.78901 Z M -662.74,-187.78481 C -663.2452,-187.78481 -663.7321,-187.75392 -664.2,-187.69231 V -179.02331 C -663.3867,-178.93705 -662.746,-178.89411 -662.278,-178.89411 -660.085,-178.89411 -658.482,-179.25741 -657.472,-179.98411 -656.462,-180.72351 -655.956,-181.91911 -655.956,-183.57011 -655.956,-186.38011 -658.218,-187.78411 -662.74,-187.78411 Z M -892.14,-183.95881 -895.393,-173.95881 H -888.886 Z M -640.34,-183.95881 -643.594,-173.95881 H -637.087 Z" clip-path="url(#clipPath1024)" style="display:inline;fill:#000000;filter:url(#filter9852)" id="path65" inkscape:connector-curvature="0" />
</svg>
