<svg version="1.1" viewBox="0 0 250 92.59" xmlns="http://www.w3.org/2000/svg">
 <defs>
  <clipPath id="clipPath863">
   <path d="m15.83 161h-10.43v4.486h8.203v4.117h-8.203v4.774h10.43v4.326h-15.64v-21.87h15.64zm-34.16 17.7-5.383-17.83v17.83h-4.294v-21.87h7.979l3.829 13.09 4.037-13.09h7.995v21.87h-5.159v-17.83l-5.495 17.83zm-14.03-21.87v21.87h-5.111v-21.87zm-7.338 0v4.326h-5.415v17.54h-5.191v-17.54h-5.447v-4.326zm-38.5 13.2v8.667h-5.159v-21.87h9.613q2.66 0 4.262 0.6248 1.618 0.6088 2.676 2.259 1.057 1.65 1.057 3.669 0 3.941-3.797 5.655l4.037 9.661h-5.655l-3.364-8.667zm0-9.308v5.575h3.14q1.538 0 2.227-0.2083 0.7049-0.2243 1.25-0.9613 0.5447-0.753 0.5447-1.714 0-0.9132-0.5447-1.634-0.5447-0.7209-1.186-0.8812-0.6408-0.1762-2.403-0.1762zm-9.26-3.893v13.62q0 3.3-0.753 4.918-0.753 1.602-2.788 2.644-2.019 1.025-5.175 1.025t-5.031-0.9292q-1.858-0.9292-2.788-2.644-0.9292-1.714-0.9292-5.015v-13.62h5.559v13.62q0 1.762 0.2884 2.595 0.3044 0.8331 1.186 1.33 0.8972 0.4806 2.195 0.4806 1.442 0 2.339-0.4806 0.9132-0.4806 1.202-1.266 0.3044-0.8011 0.3044-2.66v-13.62zm-29.98 22.21q-4.422 0-6.841-3.316t-2.419-8.027q0-4.79 2.451-7.995 2.451-3.204 6.985-3.204 4.582 0 6.905 3.429 2.339 3.413 2.339 7.818 0 4.758-2.403 8.027-2.403 3.268-7.017 3.268zm0.1442-18.36q-4.037 0-4.037 7.081 0 7.097 4.037 7.097 3.909 0 3.909-7.081 0-7.097-3.909-7.097zm-8.908-3.845-6.873 12.66v9.212h-5.127v-9.212l-6.873-12.66h5.944l4.182 8.299 4.149-8.299zm134.7-12.35v8.667h-5.159v-21.87h9.613q2.66 0 4.262 0.6248 1.618 0.6088 2.676 2.259 1.057 1.65 1.057 3.669 0 3.941-3.797 5.655l4.037 9.661h-5.655l-3.364-8.667zm0-9.308v5.575h3.14q1.538 0 2.227-0.2083 0.7049-0.2243 1.25-0.9613 0.5447-0.753 0.5447-1.714 0-0.9132-0.5447-1.634t-1.186-0.8812q-0.6408-0.1762-2.403-0.1762zm-8.251 0.2724h-10.43v4.486h8.203v4.117h-8.203v4.774h10.43v4.326h-15.64v-21.87h15.64zm-18.71 0h-10.43v4.486h8.203v4.117h-8.203v4.774h10.43v4.326h-15.64v-21.87h15.64zm-17.85-4.166v4.326h-5.415v17.54h-5.191v-17.54h-5.447v-4.326zm-18.23 0v21.87h-4.374l-8.571-14.77q0.01602 0.5607 0.03204 0.737 0.06408 0.5607 0.06408 0.9452v13.09h-3.989v-21.87h5.527l7.45 12.9q-0.09613-0.9613-0.09613-1.458v-11.44zm-20.97 0v13.62q0 3.3-0.753 4.919-0.753 1.602-2.788 2.643-2.019 1.025-5.175 1.025t-5.031-0.9292q-1.858-0.9292-2.788-2.643-0.9292-1.714-0.9292-5.015v-13.62h5.559v13.62q0 1.762 0.2884 2.595 0.3044 0.8331 1.186 1.33 0.8972 0.4806 2.195 0.4806 1.442 0 2.339-0.4806 0.9132-0.4806 1.202-1.266 0.3044-0.8011 0.3044-2.66v-13.62zm-28.42 17.54h8.7v4.326h-13.89v-21.87h5.191zm-17.96 4.662q-4.422 0-6.841-3.316t-2.419-8.027q0-4.79 2.451-7.995 2.451-3.204 6.985-3.204 4.582 0 6.905 3.429 2.339 3.412 2.339 7.818 0 4.758-2.403 8.027-2.403 3.268-7.017 3.268zm0.1442-18.36q-4.037 0-4.037 7.081 0 7.097 4.037 7.097 3.909 0 3.909-7.081 0-7.097-3.909-7.097zm-9.965-3.845-6.585 21.87h-5.511l-6.569-21.87h5.447l4.374 15.64 4.534-15.64z" style="fill:#000000"/>
  </clipPath>
  <filter id="filter867" x="-.008503" y="-.02038" width="1.017" height="1.041" style="color-interpolation-filters:sRGB">
   <feGaussianBlur stdDeviation="0.78913086"/>
  </filter>
  <clipPath id="clipPath886">
   <path d="m232.8 167-5.195 1.738q-1.051-3.094-4.451-3.094-3.629 0-3.629 2.349 0 0.936 0.6685 1.585 0.6876 0.6494 3.075 1.127 3.992 0.8022 5.845 1.624 1.853 0.8214 3.113 2.655 1.28 1.815 1.28 4.069 0 3.534-2.731 6.112-2.712 2.579-8.061 2.579-4.011 0-6.838-1.815-2.808-1.834-3.706-5.425l5.654-1.28q0.9551 3.648 5.31 3.648 2.101 0 3.133-0.8022 1.031-0.8213 1.031-1.948 0-1.146-0.936-1.776-0.936-0.6304-3.61-1.184-4.985-1.031-7.106-2.808-2.12-1.796-2.12-5.234 0-3.476 2.521-5.864 2.54-2.388 6.876-2.388 7.679 0 9.875 6.131zm-40.11 20.34-6.418-21.26v21.26h-5.119v-26.07h9.512l4.565 15.61 4.813-15.61h9.531v26.07h-6.151v-21.26l-6.552 21.26zm-15.2-21.11h-12.43v5.348h9.78v4.909h-9.78v5.692h12.43v5.157h-18.64v-26.07h18.64zm-21.28-4.966v5.157h-6.456v20.92h-6.189v-20.92h-6.494v-5.157zm-21.74 0v26.07h-6.093v-26.07zm114.1-24.54h-12.43v5.348h9.78v4.909h-9.78v5.692h12.43v5.157h-18.64v-26.07h18.64zm-21.28-4.966v5.157h-6.456v20.92h-6.189v-20.92h-6.494v-5.157zm-25.48 0 8.156 26.07h-6.571l-1.585-5.367h-8.443l-1.643 5.367h-5.348l8.347-26.07zm-6.972 15.89h5.539l-2.77-9.149zm-11.06-15.89v26.07h-5.215l-10.22-17.61q0.0191 0.6685 0.0382 0.8786 0.0764 0.6685 0.0764 1.127v15.61h-4.756v-26.07h6.59l8.882 15.38q-0.1146-1.146-0.1146-1.738v-13.64zm-35.26 26.47q-5.272 0-8.156-3.954t-2.884-9.57q0-5.711 2.922-9.531t8.328-3.82q5.463 0 8.233 4.088 2.789 4.069 2.789 9.321 0 5.673-2.865 9.57t-8.366 3.897zm0.1719-21.89q-4.813 0-4.813 8.443 0 8.462 4.813 8.462 4.661 0 4.661-8.443 0-8.462-4.661-8.462zm-35.34-4.584h7.965q4.871 0 7.258 1.356 2.388 1.337 4.279 4.26 1.891 2.903 1.891 7.354 0 5.597-3.304 9.36-3.304 3.744-9.111 3.744h-8.978zm5.998 4.794v16.37h2.521q3.343 0 4.966-2.483 1.624-2.502 1.624-5.864 0-2.369-0.936-4.374-0.9168-2.025-2.292-2.827-1.375-0.8214-3.304-0.8214z" style="fill:#000000"/>
  </clipPath>
  <clipPath id="clipPath920">
   <path d="m104.2-35.93-6.591 2.205q-1.333-3.926-5.646-3.926-4.604 0-4.604 2.981 0 1.187 0.8481 2.011 0.8724 0.8239 3.901 1.43 5.065 1.018 7.415 2.06 2.351 1.042 3.95 3.368 1.624 2.302 1.624 5.162 0 4.483-3.465 7.754-3.441 3.271-10.23 3.271-5.089 0-8.675-2.302-3.562-2.326-4.701-6.882l7.173-1.624q1.212 4.628 6.737 4.628 2.666 0 3.974-1.018 1.309-1.042 1.309-2.472 0-1.454-1.187-2.254-1.187-0.7997-4.58-1.502-6.325-1.309-9.014-3.562-2.69-2.278-2.69-6.64 0-4.41 3.199-7.439 3.223-3.029 8.724-3.029 9.741 0 12.53 7.779zm-29.05-7.27v20.6q0 4.992-1.139 7.439-1.139 2.423-4.216 3.998-3.053 1.551-7.827 1.551t-7.609-1.405q-2.811-1.405-4.216-3.998t-1.405-7.585v-20.6h8.409v20.6q0 2.666 0.4362 3.926 0.4604 1.26 1.793 2.011 1.357 0.727 3.32 0.727 2.181 0 3.538-0.727 1.381-0.727 1.817-1.914 0.4604-1.212 0.4604-4.023v-20.6zm-60.58 20.79v12.29h-7.876v-33.08h13.04q4.362 0 6.664 0.9451 2.326 0.9208 4.144 3.32 1.817 2.399 1.817 5.888 0 2.447-0.9693 4.774-0.9693 2.326-2.738 3.659-1.769 1.333-3.441 1.769-1.648 0.4362-5.186 0.4362zm-0.2666-6.01h5.04q2.884 0 4.047-1.333t1.163-3.053q0-2.011-1.309-3.199-1.284-1.187-3.926-1.187h-5.016zm-24.74 11.75h13.16v6.543h-21.01v-33.08h7.851zm-12.53-20.23h-15.78v6.785h12.41v6.228h-12.41v7.221h15.78v6.543h-23.65v-33.08h23.65zm-30.24-6.3v33.08h-7.609v-13.64h-10.35v13.64h-7.609v-33.08h7.609v12.89h10.35v-12.89z" style="fill:#000000"/>
  </clipPath>
  <filter id="filter924" x="-.007603" y="-.02846" width="1.015" height="1.057" style="color-interpolation-filters:sRGB">
   <feGaussianBlur stdDeviation="0.74699708"/>
  </filter>
  <filter id="filter928" x="-.01089" y="-.02127" width="1.022" height="1.043" style="color-interpolation-filters:sRGB">
   <feGaussianBlur stdDeviation="0.73313085"/>
  </filter>
  <clipPath id="clipPath4787">
   <ellipse cx="548.3" cy="-33.24" rx="110.1" ry="38.89" style="fill:#00bdd4;opacity:.98"/>
  </clipPath>
  <clipPath id="clipPath4798">
   <ellipse cx="811.6" cy="166" rx="110.1" ry="38.89" style="fill:#00beac;opacity:.98;stroke-linecap:round;stroke-linejoin:round;stroke-width:6;stroke:#00bead"/>
  </clipPath>
  <filter id="filter4818" x="-.009518" y="-.01623" width="1.019" height="1.032" style="color-interpolation-filters:sRGB">
   <feGaussianBlur stdDeviation="1.5209864"/>
  </filter>
  <filter id="filter4822" x="-.009538" y="-.01618" width="1.019" height="1.032" style="color-interpolation-filters:sRGB">
   <feGaussianBlur stdDeviation="1.298252"/>
  </filter>
  <clipPath id="clipPath4798-4">
   <ellipse cx="811.6" cy="166" rx="110.1" ry="38.89" style="fill:#00beac;opacity:.98;stroke-linecap:round;stroke-linejoin:round;stroke-width:6;stroke:#00bead"/>
  </clipPath>
  <filter id="filter4818-9" x="-.009518" y="-.01623" width="1.019" height="1.032" style="color-interpolation-filters:sRGB">
   <feGaussianBlur stdDeviation="1.5209864"/>
  </filter>
  <clipPath id="clipPath4787-0">
   <ellipse cx="548.3" cy="-33.24" rx="110.1" ry="38.89" style="fill:#00bdd4;opacity:.98"/>
  </clipPath>
  <filter id="filter4822-5" x="-.009538" y="-.01618" width="1.019" height="1.032" style="color-interpolation-filters:sRGB">
   <feGaussianBlur stdDeviation="1.298252"/>
  </filter>
  <clipPath id="clipPath4798-3">
   <ellipse cx="811.6" cy="166" rx="110.1" ry="38.89" style="fill:#00beac;opacity:.98;stroke-linecap:round;stroke-linejoin:round;stroke-width:6;stroke:#00bead"/>
  </clipPath>
  <filter id="filter4818-7" x="-.009518" y="-.01623" width="1.019" height="1.032" style="color-interpolation-filters:sRGB">
   <feGaussianBlur stdDeviation="1.5209864"/>
  </filter>
  <clipPath id="clipPath4787-6">
   <ellipse cx="548.3" cy="-33.24" rx="110.1" ry="38.89" style="fill:#00bdd4;opacity:.98"/>
  </clipPath>
  <filter id="filter4822-2" x="-.009538" y="-.01618" width="1.019" height="1.032" style="color-interpolation-filters:sRGB">
   <feGaussianBlur stdDeviation="1.298252"/>
  </filter>
 </defs>
 <g id="paypal" transform="matrix(-1.958 0 0 -1.958 -15.74 -.1924)">
  <path d="m-91.74-0.2611c-2.214-0.687-3.973-2.166-5.062-4.254-0.508-0.9745-0.6212-1.599-0.6238-3.44-0.00282-1.998 0.08374-2.406 0.7764-3.656 0.8704-1.571 1.994-2.662 3.66-3.552l1.117-0.5969h39.95l1.117 0.5969c1.665 0.8898 2.789 1.981 3.66 3.552 0.6928 1.251 0.7792 1.657 0.7759 3.656-0.003167 1.918-0.1067 2.444-0.704 3.572-0.8337 1.575-2.032 2.758-3.658 3.609l-1.191 0.6238-19.58 0.04676c-10.77 0.02572-19.88-0.04562-20.24-0.1585zm3.112-4.171c-0.253-0.06622-0.7292-0.06863-1.058-0.00534-0.3291 0.06329-0.1221 0.1175 0.4599 0.1204 0.5821 0.002937 0.8514-0.04884 0.5984-0.1151zm10.18-0.258c-0.1819-0.0734-0.4796-0.0734-0.6615 0s-0.03307 0.1335 0.3307 0.1335c0.3638 0 0.5126-0.06005 0.3307-0.1335zm5.561 0.001678c-0.1791-0.07248-0.5363-0.07689-0.7938-0.009804-0.2574 0.06708-0.1109 0.1264 0.3257 0.1318 0.4366 0.005392 0.6472-0.04949 0.4681-0.122zm1.847-0.001678c-0.1819-0.0734-0.4796-0.0734-0.6615 0s-0.03307 0.1335 0.3307 0.1335 0.5126-0.06005 0.3307-0.1335zm7.186-0.05113c0.07695-0.1245-0.1542-0.1702-0.5136-0.1014-0.3594 0.0687-0.6535 0.1706-0.6535 0.2264 0 0.2047 1.032 0.09431 1.167-0.1249zm5.448 0.1241c0-0.05624-0.3509-0.1538-0.7798-0.2167-0.4289-0.06295-0.7195-0.01693-0.6458 0.1023 0.1311 0.2121 1.426 0.3161 1.426 0.1144zm1.654-0.07297c-0.1819-0.0734-0.4796-0.0734-0.6615 0s-0.03307 0.1335 0.3307 0.1335c0.3638 0 0.5126-0.06005 0.3307-0.1335zm2.159-0.05113c0.07695-0.1245-0.1542-0.1702-0.5136-0.1014-0.3594 0.0687-0.6535 0.1706-0.6535 0.2264 0 0.2047 1.032 0.09431 1.167-0.1249zm-29.94-1.27c-0.1791-0.07248-0.5363-0.07689-0.7938-0.009804-0.2574 0.06708-0.1109 0.1264 0.3257 0.1318 0.4366 0.005392 0.6472-0.04949 0.4681-0.122zm7.668-0.5308c-0.1819-0.0734-0.4796-0.0734-0.6615 0s-0.03307 0.1335 0.3307 0.1335 0.5126-0.06005 0.3307-0.1335zm14.29 0c-0.1819-0.0734-0.4796-0.0734-0.6615 0s-0.03307 0.1335 0.3307 0.1335 0.5126-0.06005 0.3307-0.1335zm-12.9-0.3509c0.09269-0.15-0.01351-0.1943-0.249-0.104-0.4584 0.1759-0.5422 0.3655-0.1616 0.3655 0.1369 0 0.3217-0.1177 0.4106-0.2616zm14.46-0.2015c0.3359-0.4283 0.3234-0.4339-0.166-0.07487-0.291 0.2135-0.5788 0.4218-0.6394 0.463-0.06063 0.04118 0.01409 0.07487 0.166 0.07487 0.152 0 0.4397-0.2084 0.6394-0.463zm3.406-0.1984c-0.3685-0.444-0.95-0.5216-1.175-0.157-0.08155 0.1319 0.07658 0.1811 0.3514 0.1092 0.2748-0.07187 0.5797-0.001232 0.6774 0.157 0.09777 0.1582 0.2449 0.2876 0.3268 0.2876 0.08199 0 8.54e-4 -0.1786-0.1803-0.3969zm-18.98-1.895c-0.1819-0.0734-0.4796-0.0734-0.6615 0s-0.03307 0.1335 0.3307 0.1335 0.5126-0.06005 0.3307-0.1335zm14.29 0c-0.1819-0.0734-0.4796-0.0734-0.6615 0s-0.03307 0.1335 0.3307 0.1335c0.3638 0 0.5126-0.06005 0.3307-0.1335z" style="fill:#fbda8d;stroke-width:.2646"/>
  <path d="m-91.55-0.3017c-1.459-0.3497-2.334-0.8631-3.562-2.092-1.674-1.674-2.303-3.192-2.303-5.561 0-1.529 0.1389-2.269 0.6052-3.227 0.7703-1.581 2.37-3.184 3.96-3.967l1.242-0.6119h39.42l1.242 0.6119c1.59 0.7831 3.19 2.386 3.96 3.967 0.8511 1.747 0.8511 4.706 0 6.453-0.7764 1.594-2.495 3.318-4.012 4.024-1.171 0.5457-1.499 0.5553-20.37 0.5983-10.73 0.02446-19.62-0.06195-20.18-0.1961zm5.196-3.094c0.06911-0.1118-0.3406-0.1588-0.9104-0.1045-0.5698 0.05434-1.036 0.1458-1.036 0.2033 0 0.1971 1.821 0.1047 1.947-0.09881zm18.9-1.186c0.4953-0.6912 0.8356-1.257 0.7562-1.257-0.07939 0-0.5076 0.5279-0.9515 1.173-0.4492 0.6529-1.071 1.222-1.402 1.282-0.5376 0.09872-0.5328 0.1067 0.05091 0.08366 0.4522-0.01788 0.9153-0.402 1.546-1.282zm-21.17 0.1489c-0.253-0.06622-0.7292-0.06863-1.058-0.00534-0.3291 0.06329-0.1221 0.1175 0.4599 0.1204 0.5821 0.002937 0.8514-0.04884 0.5984-0.1151zm10.65-0.2812c0-0.1091-0.3458-0.1984-0.7685-0.1984s-0.7133 0.0893-0.6458 0.1984c0.06745 0.1091 0.4133 0.1984 0.7685 0.1984s0.6458-0.0893 0.6458-0.1984zm7.265-0.04785c0.05708-0.09236-0.652-0.1336-1.576-0.09154-1.254 0.05703-1.785-0.02939-2.097-0.341-0.2295-0.2295-0.4173-0.3136-0.4173-0.1868 0 0.5837 0.73 0.8427 2.3 0.8159 0.9273-0.0158 1.733-0.1043 1.79-0.1967zm7.023 0.0184c0-0.1253-0.2867-0.1731-0.637-0.1061-0.4609 0.0881-0.6719-0.0135-0.7631-0.3674-0.1032-0.4004-0.1316-0.3811-0.1567 0.1061-0.02536 0.4919 0.1072 0.5953 0.7631 0.5953 0.4366 0 0.7938-0.1026 0.7938-0.2279zm7.341-0.3013c0.06857-0.2526 0.02827-0.2924-0.1108-0.1096-0.3531 0.4641-3.172 0.4252-3.648-0.05032-0.2239-0.2239-0.407-0.3033-0.407-0.1765 0 0.6126 0.73 0.8612 2.346 0.7991 1.257-0.04834 1.741-0.1712 1.82-0.4627zm1.764 0.3028c0.07695-0.1245-0.1542-0.1702-0.5136-0.1014-0.3594 0.0687-0.6535 0.1706-0.6535 0.2264 0 0.2047 1.032 0.09431 1.167-0.1249zm-30.09-1.119c0.7506-0.23 1.379-0.629 1.631-1.036 0.3905-0.6307 0.3768-0.6277-0.2934 0.06615-0.4433 0.4589-0.9812 0.7276-1.456 0.7276-0.8452 0-1.404 0.43-1.358 1.045 0.02692 0.3597 0.04454 0.3585 0.1433-0.009473 0.06195-0.2308 0.6621-0.588 1.334-0.7938zm21.92-0.5065c0.8508 0 1.911-0.5106 2.104-1.013 0.1227-0.3198 0.03671-0.3024-0.3832 0.07763-0.2978 0.2695-0.9777 0.5609-1.511 0.6476-0.5333 0.08668-1 0.309-1.038 0.494-0.03742 0.185-0.007509 0.2143 0.06646 0.06519 0.07398-0.1492 0.4166-0.2712 0.7615-0.2712zm2.156-0.04961c-0.08446-0.2111-0.1472-0.1484-0.1598 0.1599-0.01149 0.2789 0.05104 0.4352 0.139 0.3473 0.08792-0.08792 0.09732-0.3161 0.02089-0.5071zm-15.16-0.2508c0.3626-0.1652 0.7306-0.486 0.8176-0.7128 0.1227-0.3198 0.03671-0.3024-0.3832 0.07763-0.2978 0.2695-0.9875 0.5765-1.533 0.6823-0.8016 0.1556-0.8545 0.1982-0.2762 0.2228 0.3933 0.01673 1.012-0.1048 1.375-0.27zm18.16-0.6192c-0.435-0.5242-0.9097-0.5113-1.362 0.03692-0.3285 0.3983-0.3076 0.4106 0.2194 0.1298 0.463-0.2467 0.653-0.2339 0.926 0.06229 0.4542 0.4928 0.6466 0.2892 0.2165-0.229zm-14.42 0.1952c0.4684 0.2592 0.4848 0.2432 0.1592-0.1547-0.4479-0.5474-0.5923-0.5511-1.24-0.03226-0.5038 0.4037-0.5034 0.4066 0.02241 0.1547 0.3579-0.1714 0.7096-0.1607 1.058 0.03226zm6.748-0.6132c0.4021-0.7513 0.1278-0.6287-0.4018 0.1796-0.2501 0.3817-0.324 0.6132-0.1641 0.5144 0.1598-0.09878 0.4145-0.4111 0.5659-0.694zm11.29-0.2995c-0.08446-0.2111-0.1472-0.1484-0.1599 0.1599-0.01149 0.2789 0.05104 0.4352 0.139 0.3473 0.08792-0.08792 0.09732-0.3161 0.02089-0.5071zm-28.58-0.8103c-0.0734-0.1819-0.1335-0.03307-0.1335 0.3307 0 0.3638 0.06005 0.5126 0.1335 0.3307s0.0734-0.4796 0-0.6615zm6.307-0.1984c-0.08994-0.1455-0.4244-0.2527-0.7432-0.2382-0.5396 0.02455-0.534 0.04101 0.08176 0.2382 0.3638 0.1165 0.6982 0.2237 0.7432 0.2382 0.04497 0.01451 0.008176-0.09269-0.08176-0.2382zm14.29 0c-0.08994-0.1455-0.4244-0.2527-0.7432-0.2382-0.5396 0.02455-0.534 0.04101 0.08176 0.2382 0.3638 0.1165 0.6983 0.2237 0.7432 0.2382 0.04497 0.01451 0.008176-0.09269-0.08176-0.2382zm-32.64-4.167c0.3291-0.4196 0.3197-0.429-0.0999-0.0999-0.2547 0.1997-0.463 0.4081-0.463 0.463 0 0.2178 0.2173 0.0776 0.5629-0.3631zm46 0.3631c0-0.05494-0.2084-0.2633-0.463-0.463-0.4196-0.3291-0.429-0.3197-0.0999 0.0999 0.3456 0.4407 0.5629 0.5809 0.5629 0.3631zm-23.28-1.884h19.98l1.145 0.5814c0.6586 0.3343 1.015 0.4246 0.8391 0.2124-0.1684-0.2029-0.8624-0.5836-1.542-0.8459-1.15-0.4438-2.57-0.4769-20.42-0.4769s-19.27 0.03316-20.42 0.4769c-0.6798 0.2623-1.374 0.643-1.542 0.8459-0.1761 0.2122 0.1805 0.1219 0.8391-0.2124l1.145-0.5814z" style="fill:#f9cb5f;stroke-width:.2646"/>
  <path d="m-91.28-0.3007c-6.114-1.466-8.203-9.043-3.664-13.29 2.434-2.277 1.306-2.171 23.05-2.171s20.61-0.1062 23.05 2.171c4.076 3.813 2.897 10.45-2.279 12.83l-1.323 0.608-18.92 0.04379c-10.52 0.02435-19.36-0.06227-19.91-0.1952zm4.927-3.095c0.06911-0.1118-0.3406-0.1588-0.9104-0.1045-0.5698 0.05434-1.036 0.1458-1.036 0.2033 0 0.1971 1.821 0.1047 1.947-0.09881zm19.69-2.214c0.9155-1.326 1.622-2.454 1.571-2.505-0.05162-0.05162-0.8428 0.9869-1.758 2.308-1.44 2.077-1.75 2.385-2.298 2.28-0.3487-0.06666-0.6341-0.01866-0.6341 0.1067 0 0.1253 0.3274 0.2265 0.7276 0.2249 0.6176-0.002542 0.9794-0.3677 2.392-2.414zm-21.97 1.177c-0.253-0.06622-0.7292-0.06863-1.058-0.00534-0.3291 0.06329-0.1221 0.1175 0.4599 0.1204 0.5821 0.002937 0.8514-0.04884 0.5984-0.1151zm3.737-1.238c0.9426-0.1507 1.522-0.5787 2.018-1.491 0.1187-0.2183-0.09563-0.06945-0.4763 0.3307-0.4389 0.4614-0.9678 0.7276-1.446 0.7276-0.9007 0-1.402 0.4361-1.352 1.177 0.03474 0.523 0.03998 0.5222 0.1466-0.02138 0.08188-0.4176 0.3696-0.6052 1.11-0.7236zm6.91 0.9566c0-0.1091-0.3572-0.1984-0.7938-0.1984s-0.7938 0.0893-0.7938 0.1984 0.3572 0.1984 0.7938 0.1984 0.7938-0.0893 0.7938-0.1984zm7.408-0.02637c0-0.1033-0.6251-0.1556-1.389-0.1163-1.858 0.09577-2.51-0.08135-2.719-0.7378-0.09575-0.3017-0.2389-0.4837-0.3181-0.4045-0.07918 0.07919 0.04978 0.4397 0.2866 0.8011 0.3914 0.5974 0.599 0.6566 2.285 0.6512 1.02-0.003223 1.854-0.0904 1.854-0.1937zm6.879-0.003086c0-0.1253-0.2878-0.1729-0.6396-0.1056-0.5086 0.09723-0.6637-0.005058-0.7577-0.4997-0.1076-0.5663-0.1214-0.5568-0.1542 0.1056-0.0317 0.6401 0.05946 0.7276 0.7577 0.7276 0.4366 0 0.7938-0.1026 0.7938-0.2279zm7.404-0.2536c-0.002501-0.2742-0.07852-0.3345-0.1984-0.1573-0.3143 0.4645-3.148 0.4251-3.624-0.05032-0.3681-0.3681-0.5701-1.407-0.4061-2.089 0.03497-0.1455 0.112-0.5027 0.1711-0.7938 0.1045-0.5145 0.1008-0.5143-0.1349 0.009186-0.3644 0.8092-1.015 1.252-2.099 1.428-0.7155 0.1163-0.9898 0.2985-1.029 0.6837-0.04235 0.4134-0.02475 0.4266 0.0827 0.06212 0.09062-0.3074 0.4026-0.463 0.9282-0.463 0.4355 0 1.022-0.1233 1.304-0.2739 0.4374-0.2341 0.5118-0.185 0.5118 0.338 0 0.3365 0.1814 0.8708 0.403 1.187 0.3491 0.4985 0.6498 0.5746 2.249 0.5696 1.552-0.004904 1.845-0.07668 1.842-0.4504zm1.856 0.2536c0-0.1253-0.2977-0.171-0.6615-0.1014-0.3638 0.06955-0.6615 0.1721-0.6615 0.2279s0.2977 0.1014 0.6615 0.1014 0.6615-0.1026 0.6615-0.2279zm-14.55-1.492c-0.4137-1.254-0.6032-1.064-0.2117 0.2117 0.1652 0.5382 0.3518 0.9271 0.4146 0.8642 0.06289-0.06289-0.02846-0.547-0.203-1.076zm-8.815 0.3473c-0.08446-0.2111-0.1472-0.1484-0.1599 0.1599-0.01149 0.2789 0.05105 0.4352 0.139 0.3473 0.08792-0.08792 0.09732-0.3161 0.02089-0.5071zm23.55-0.2646c-0.08446-0.2111-0.1472-0.1484-0.1598 0.1599-0.01149 0.2789 0.05104 0.4352 0.139 0.3473 0.08792-0.08792 0.09732-0.3161 0.02089-0.5071zm-16.15-0.5457c-0.0734-0.1819-0.1335-0.03307-0.1335 0.3307s0.06006 0.5126 0.1335 0.3307c0.0734-0.1819 0.0734-0.4796 0-0.6615zm14.29 0.01654c-0.08446-0.2111-0.1472-0.1484-0.1599 0.1599-0.01149 0.2789 0.05104 0.4352 0.139 0.3473 0.08792-0.08792 0.09732-0.3161 0.02089-0.5071zm-19.09-0.3352c0.3572-0.3572 0.6419-0.8632 0.6327-1.124-0.01453-0.4116-0.04592-0.4031-0.235 0.0633-0.3188 0.7866-0.9702 1.244-2.077 1.459l-0.9783 0.1903 1.004 0.03043c0.7398 0.02242 1.175-0.1405 1.654-0.619zm3.301-0.2702c-0.4105-0.4946-0.5648-0.5006-1.186-0.04622-0.441 0.3225-0.4075 0.3452 0.3463 0.2346 0.5656-0.08301 0.8346-0.01331 0.8346 0.2162 0 0.1863 0.0765 0.2622 0.17 0.1687s0.01939-0.3515-0.1647-0.5733zm14.29 0c-0.4118-0.4961-0.9049-0.5165-1.289-0.05316-0.2326 0.2802-0.1335 0.3271 0.4968 0.2346 0.5236-0.07684 0.7873-0.002077 0.7873 0.2232 0 0.1863 0.0765 0.2622 0.17 0.1687s0.01939-0.3515-0.1647-0.5733zm3.61-0.734c-0.0734-0.1819-0.1335-0.03307-0.1335 0.3307 0 0.3638 0.06006 0.5126 0.1335 0.3307s0.0734-0.4796 0-0.6615zm-28.57-0.926c-0.06655-0.2547-0.121-0.0463-0.121 0.463s0.05445 0.7177 0.121 0.463 0.06655-0.6714 0-0.926zm26.59 0.4018c-0.1963-0.1963-0.2308-0.09304-0.1157 0.3471 0.09356 0.3578 0.2135 0.4777 0.2795 0.2795 0.06363-0.1909-0.01011-0.4729-0.1639-0.6266zm0.6653 0.2762c-0.08446-0.2111-0.1472-0.1484-0.1599 0.1599-0.01149 0.2789 0.05104 0.4352 0.139 0.3473 0.08792-0.08792 0.09732-0.3161 0.02089-0.5071zm-9.26-0.7938c-0.08446-0.2111-0.1472-0.1484-0.1598 0.1599-0.01149 0.2789 0.05104 0.4352 0.139 0.3473 0.08792-0.08792 0.09732-0.3161 0.02089-0.5071zm-11.71 0.02151c-0.1766-0.2858-1.173-0.3181-1.173-0.03805 1.03e-4 0.1091 0.297 0.2156 0.6597 0.2365 0.3627 0.02093 0.5938-0.06837 0.5134-0.1984zm14.29 0c-0.1766-0.2858-1.173-0.3181-1.173-0.03805 1e-4 0.1091 0.297 0.2156 0.6597 0.2365 0.3627 0.02093 0.5938-0.06837 0.5134-0.1984zm8.268-0.5507c-0.08446-0.2111-0.1472-0.1484-0.1599 0.1599-0.01149 0.2789 0.05104 0.4352 0.139 0.3473 0.08792-0.08792 0.09732-0.3161 0.02089-0.5071zm-40.4-3.717c2.071-1.522 2.122-1.525 22.22-1.525 16.09 0 18.61 0.05341 19.86 0.4223 1.513 0.4446 2.897 1.326 3.875 2.466 0.3222 0.3758 0.5901 0.5913 0.5953 0.4789 0.01989-0.4271-2.262-2.643-3.286-3.191l-1.07-0.573h-39.95l-1.07 0.573c-1.024 0.5484-3.306 2.764-3.286 3.191 0.005233 0.1124 0.2731-0.1031 0.5953-0.4789s1.003-0.9894 1.512-1.364z" style="fill:#fdc238;stroke-width:.2646"/>
  <path d="m-91.28-0.3007c-2.207-0.5292-4.353-2.205-5.345-4.174-0.5797-1.151-0.9249-3.372-0.66-4.247 0.1679-0.5544 0.2129-0.4271 0.2312 0.6534 0.04867 2.872 1.456 5.179 4.029 6.604l1.418 0.7853h39.42l1.323-0.7029c2.506-1.331 3.836-3.408 4.115-6.425 0.1722-1.859 0.3812-1.239 0.2621 0.7776-0.1472 2.493-2.068 5.089-4.642 6.271l-1.323 0.608-18.92 0.04379c-10.52 0.02435-19.36-0.06227-19.91-0.1952zm2.981-3.669c0-0.4466-0.1673-0.5451-0.926-0.5451-0.563 0-0.9271-0.1297-0.9287-0.3307-0.001473-0.1819 0.2538-1.979 0.5673-3.993l0.5699-3.662 2.463 0.09039c1.354 0.04971 2.597 0.2247 2.761 0.3888 0.3499 0.3504 0.7927 1.909 0.9691 3.41 0.1025 0.8722 0.004783 1.192-0.5457 1.786-0.4361 0.4706-0.9411 0.7235-1.445 0.7235-0.9524 0-1.299 0.3895-1.412 1.589-0.08154 0.8593-0.1582 0.9308-1.08 1.007-0.8521 0.07052-0.9922 0.005127-0.9922-0.463zm18.67 0.2797c-0.07936-0.1284 0.1061-0.5519 0.4122-0.941l0.5565-0.7075-0.5602-1.464c-0.7155-1.87-0.7057-1.998 0.1455-1.897 0.5328 0.06321 0.7787 0.3018 1.004 0.974l0.2981 0.8903 0.7295-0.9564c0.4881-0.6399 0.9439-0.9564 1.377-0.9564 0.3564 0 0.648 0.07227 0.648 0.1606s-0.7797 1.279-1.733 2.646c-1.636 2.346-2.434 2.971-2.878 2.252zm-9.797-1.402c-0.06496-0.1921 0.08492-1.48 0.3331-2.863l0.4512-2.514 1.645 0.002295c2.052 0.002862 2.605 0.4309 2.345 1.815-0.2092 1.115-1.239 2.019-2.301 2.019-0.6249 0-0.7876 0.1439-0.9721 0.8599-0.2325 0.9019-1.268 1.371-1.501 0.68zm3.136-3.284c0.2167-0.5648-0.02622-0.9022-0.6496-0.9022-0.3714 0-0.5136 0.1831-0.5136 0.6615 0 0.7623 0.8922 0.947 1.163 0.2407zm1.91 3.192c-0.914-0.914-0.7154-2.397 0.4205-3.141 0.5224-0.342 3.166-0.5365 3.665-0.2697 0.0813 0.04343 0.01526 0.8897-0.1468 1.881l-0.2946 1.802-1.626 0.06061c-1.15 0.04288-1.741-0.05433-2.019-0.3323zm2.332-1.07c0.5146-0.5146 0.522-0.7542 0.03581-1.158-0.4987-0.4139-1.472 0.07874-1.472 0.7449 0 0.9047 0.7336 1.116 1.436 0.4128zm7.051 0.6326c0.01108-0.4831 0.1632-1.771 0.3381-2.863l0.3179-1.984 1.316-0.06864c1.904-0.09934 2.646 0.3608 2.611 1.62-0.03489 1.256-0.7753 2.041-2.133 2.262-0.865 0.1406-1.03 0.2782-1.147 0.9539-0.0971 0.5643-0.3052 0.8137-0.7295 0.8741-0.516 0.07349-0.591-0.03028-0.5735-0.7938zm3.023-2.995c0-0.3473-0.2046-0.5582-0.5953-0.6137-0.4883-0.06935-0.5953 0.04093-0.5953 0.6137s0.107 0.6831 0.5953 0.6137c0.3907-0.05549 0.5953-0.2664 0.5953-0.6137zm1.856 3.406c-0.2204-0.2204-0.4008-0.8501-0.4008-1.399 0-1.472 0.686-1.974 2.724-1.992l1.642-0.01462-0.04562 1.289c-0.08497 2.401-0.1375 2.469-1.93 2.495-1.09 0.01546-1.714-0.1031-1.989-0.3782zm2.358-1.043c0.5177-0.5177 0.5222-0.754 0.02227-1.169-0.7288-0.6049-1.719 0.2586-1.363 1.188 0.1977 0.5152 0.8152 0.5065 1.341-0.0189zm2.008 1.162c0.009083-0.6865 0.7688-4.997 0.9253-5.25 0.1885-0.305 0.8403-0.3437 1.008-0.05986 0.06466 0.1091-0.07714 1.389-0.3151 2.844-0.3905 2.388-0.4908 2.654-1.028 2.73-0.3608 0.05125-0.5935-0.05297-0.5907-0.2646z" style="fill:#e0ab31;stroke-width:.2646"/>
  <path d="m-88.3-3.97c0-0.4466-0.1673-0.5451-0.926-0.5451-1.104 0-1.087 0.2421-0.3129-4.366l0.5775-3.44h2.288c3.107 0 3.394 0.2776 3.836 3.708 0.1135 0.8809 0.02233 1.186-0.5336 1.786-0.4361 0.4706-0.9411 0.7235-1.445 0.7235-0.9524 0-1.299 0.3895-1.412 1.589-0.08154 0.8593-0.1582 0.9308-1.08 1.007-0.8521 0.07052-0.9922 0.005127-0.9922-0.463zm18.79 0.2577c0-0.1608 0.1941-0.5885 0.4313-0.9505 0.4039-0.6164 0.3955-0.7517-0.1323-2.131-0.31-0.81-0.5636-1.53-0.5636-1.599s0.3175-0.08865 0.7057-0.0426c0.5385 0.06389 0.7788 0.3023 1.015 1.006l0.309 0.9228 0.639-0.9856c0.4878-0.7524 0.816-0.9864 1.387-0.9889l0.7482-0.003275-1.707 2.447c-1.103 1.582-1.906 2.477-2.27 2.532-0.3095 0.0465-0.5628-0.04698-0.5628-0.2077zm-9.773-1.777c0.009133-0.4103 0.158-1.639 0.3307-2.73l0.3141-1.984 1.602-0.07744c1.322-0.06387 1.685 0.01417 2.075 0.4453 0.9915 1.096-0.3156 3.204-1.986 3.204-0.6249 0-0.7876 0.1439-0.9721 0.8599-0.1532 0.5946-0.4005 0.886-0.8013 0.9444-0.4824 0.07036-0.5769-0.04061-0.5631-0.6615zm2.754-2.56c0.6098-0.4459 0.3671-1.229-0.381-1.229-0.4208 0-0.5375 0.1723-0.5375 0.7938 0 0.8788 0.1892 0.9684 0.9185 0.4351zm2.128 2.838c-1.022-1.022 0.03084-3.35 1.497-3.31 0.3388 0.009308 1.074 0.02452 1.633 0.03381l1.017 0.01689-0.1876 1.647c-0.1032 0.9056-0.2301 1.719-0.2821 1.807-0.2142 0.3643-3.281 0.2019-3.678-0.1948zm2.611-1.218c0.2194-0.3504 0.1862-0.5586-0.1409-0.8857-0.5963-0.5963-1.548-0.07904-1.548 0.8415 0 0.5691 0.1053 0.6571 0.7009 0.586 0.3855-0.04605 0.83-0.2898 0.9877-0.5418zm6.794 0.8072c0.008943-0.4831 0.16-1.712 0.3358-2.73l0.3195-1.852 1.634-0.0784c1.484-0.07119 1.673-0.019 2.058 0.5673 0.8258 1.26-0.1187 2.771-1.915 3.063-0.8422 0.1369-1.01 0.2783-1.125 0.9504-0.0971 0.5643-0.3052 0.8137-0.7295 0.8741-0.5154 0.07341-0.5915-0.03118-0.5774-0.7938zm2.754-2.428c0.6098-0.4459 0.3671-1.229-0.381-1.229-0.4208 0-0.5375 0.1723-0.5375 0.7938 0 0.8788 0.1892 0.9684 0.9185 0.4351zm2.128 2.838c-0.2204-0.2204-0.397-0.7792-0.3924-1.242 0.016-1.599 1.084-2.284 3.26-2.089l1.284 0.1149-0.1834 1.468c-0.1009 0.8073-0.2383 1.611-0.3055 1.786-0.1874 0.4883-3.167 0.4572-3.662-0.03812zm2.526-1.188c0.2392-0.447 0.2134-0.6464-0.1279-0.9877-0.5643-0.5643-1.312-0.1208-1.428 0.8468-0.07114 0.5956 0.0169 0.7009 0.586 0.7009 0.4112 0 0.7854-0.2161 0.9694-0.56zm1.836 1.288c0-0.2017 0.121-1.073 0.2689-1.937 0.1479-0.8635 0.3319-1.957 0.4089-2.43 0.1133-0.6958 0.2627-0.8599 0.7828-0.8599 0.5581 0 0.6248 0.09597 0.5061 0.7276-0.07522 0.4002-0.2806 1.621-0.4564 2.712-0.2804 1.741-0.3927 1.995-0.915 2.069-0.3717 0.05278-0.5953-0.05321-0.5953-0.2821z" style="fill:#0d9edb;stroke-width:.2646"/>
  <path d="m-69.51-3.863c0-0.07788 0.1905-0.4323 0.4233-0.7876 0.3925-0.5991 0.3838-0.7628-0.1205-2.256l-0.5437-1.61 0.6939 0.08258c0.5253 0.06252 0.7689 0.3067 1.003 1.005l0.309 0.9228 0.639-0.9856c0.4763-0.7348 0.8211-0.9865 1.354-0.9889 0.7084-0.003243 0.6993 0.02031-0.926 2.375-1.241 1.798-1.787 2.379-2.237 2.381-0.3274 0.001647-0.5953-0.06073-0.5953-0.1386zm-20.62-1.115c0.0098-0.2547 0.2777-2.011 0.5953-3.903l0.5775-3.44h2.288c1.879 0 2.387 0.09012 2.844 0.504 0.649 0.5881 0.705 1.406 0.1818 2.658-0.4412 1.056-1.097 1.458-2.767 1.695l-1.225 0.1744-0.4713 2.773h-1.021c-0.8029 0-1.017-0.09895-1.003-0.463zm10.85-0.5108c0.009133-0.4103 0.158-1.639 0.3307-2.73l0.3141-1.984 1.551-0.08024c1.94-0.1004 2.664 0.3983 2.398 1.652-0.2506 1.182-0.8214 1.691-2.113 1.884-1.048 0.1571-1.152 0.2429-1.226 1.004-0.06129 0.6309-0.2248 0.8525-0.6761 0.9166-0.4996 0.07095-0.5926-0.03541-0.5787-0.6615zm2.647-2.475c0.7529-0.4029 0.6705-1.314-0.1188-1.314-0.461 0-0.6643 0.1763-0.7559 0.6552-0.1815 0.9493 0.0315 1.11 0.8747 0.6584zm2.273 2.7c-1.008-1.114-0.02916-3.298 1.46-3.257 0.3388 0.009308 1.076 0.02446 1.637 0.03367l1.021 0.01675-0.1803 1.25c-0.3043 2.11-0.435 2.44-0.9647 2.44-0.2753 0-0.5005-0.1233-0.5005-0.2739 0-0.1888-0.159-0.1888-0.5118 0-0.763 0.4084-1.47 0.3327-1.961-0.21zm2.47-0.968c0.3872-0.4666 0.1853-1.141-0.4101-1.369-0.5744-0.2204-1.511 0.7373-1.289 1.317 0.2114 0.5509 1.258 0.5829 1.699 0.05186z" style="fill:#063488;stroke-width:.2646"/>
  <path d="m-87.62-8.47c0.3232-1.928 0.2491-1.866 2.246-1.866 1.64 0 1.834 0.05439 1.834 0.5144 0 0.2829-0.2803 0.8403-0.6229 1.239-0.4936 0.5738-0.9335 0.7584-2.119 0.8888l-1.496 0.1647z" style="fill:#0b2a6b;stroke-width:.2646"/>
 </g>
 <g id="donate-btn" transform="matrix(-.4421 0 0 -.4421 201.1 144)" style="display:none">
  <g id="donate ovals" transform="translate(-553.8,79.75)">
   <g transform="translate(-263.3)">
    <ellipse cx="989.2" cy="78.42" rx="110.1" ry="38.89" style="fill:#00beac;opacity:.98;stroke-linecap:round;stroke-linejoin:round;stroke-width:6;stroke:#00bead"/>
    <path transform="translate(177.6,-87.6)" d="m619.9 53.59v224.9h383.5v-224.9zm191.8 73.54a110.1 38.89 0 0 1 110.1 38.89 110.1 38.89 0 0 1-110.1 38.89 110.1 38.89 0 0 1-110.1-38.89 110.1 38.89 0 0 1 110.1-38.89z" clip-path="url(#clipPath4798-4)" style="fill-opacity:.9804;fill:#666666;filter:url(#filter4818-9);opacity:.558;stroke-linecap:round;stroke-linejoin:round;stroke-width:5.426;stroke:#000000"/>
   </g>
   <g transform="translate(177.6,111.7)">
    <ellipse cx="548.3" cy="-33.24" rx="110.1" ry="38.89" style="display:inline;fill:#00bdd4;opacity:.98"/>
    <path d="m385-129.6v192.6h326.7v-192.6zm163.3 57.42a110.1 38.89 0 0 1 110.1 38.89 110.1 38.89 0 0 1-110.1 38.89 110.1 38.89 0 0 1-110.1-38.89 110.1 38.89 0 0 1 110.1-38.89z" clip-path="url(#clipPath4787-0)" style="fill-opacity:.9804;fill:#666666;filter:url(#filter4822-5);opacity:.558;stroke-linecap:round;stroke-linejoin:round;stroke-width:5.426;stroke:#000000"/>
   </g>
  </g>
  <g id="donate-text">
   <path d="m224 165.6-5.195 1.738q-1.051-3.094-4.451-3.094-3.629 0-3.629 2.349 0 0.936 0.6685 1.585 0.6876 0.6494 3.075 1.127 3.992 0.8022 5.845 1.624 1.853 0.8214 3.113 2.655 1.28 1.815 1.28 4.069 0 3.534-2.731 6.112-2.712 2.579-8.061 2.579-4.011 0-6.838-1.815-2.808-1.834-3.706-5.425l5.654-1.28q0.9551 3.648 5.31 3.648 2.101 0 3.133-0.8022 1.031-0.8213 1.031-1.948 0-1.146-0.936-1.776-0.936-0.6304-3.61-1.184-4.985-1.031-7.106-2.808-2.12-1.796-2.12-5.234 0-3.476 2.521-5.864 2.54-2.388 6.876-2.388 7.679 0 9.875 6.131zm-40.11 20.34-6.418-21.26v21.26h-5.119v-26.07h9.512l4.565 15.61 4.813-15.61h9.531v26.07h-6.151v-21.26l-6.552 21.26zm-15.2-21.11h-12.43v5.348h9.78v4.909h-9.78v5.692h12.43v5.157h-18.64v-26.07h18.64zm-21.28-4.966v5.157h-6.456v20.92h-6.189v-20.92h-6.494v-5.157zm-21.74 0v26.07h-6.093v-26.07zm114.1-24.54h-12.43v5.348h9.78v4.909h-9.78v5.692h12.43v5.157h-18.64v-26.07h18.64zm-21.28-4.966v5.157h-6.456v20.92h-6.189v-20.92h-6.494v-5.157zm-25.48 0 8.156 26.07h-6.571l-1.585-5.367h-8.443l-1.643 5.367h-5.348l8.347-26.07zm-6.972 15.89h5.539l-2.77-9.149zm-11.06-15.89v26.07h-5.215l-10.22-17.61q0.0191 0.6685 0.0382 0.8786 0.0764 0.6685 0.0764 1.127v15.61h-4.756v-26.07h6.59l8.882 15.38q-0.1146-1.146-0.1146-1.738v-13.64zm-35.26 26.47q-5.272 0-8.156-3.954t-2.884-9.57q0-5.711 2.922-9.531t8.328-3.82q5.463 0 8.233 4.088 2.789 4.069 2.789 9.321 0 5.673-2.865 9.57t-8.366 3.897zm0.1719-21.89q-4.813 0-4.813 8.443 0 8.462 4.813 8.462 4.661 0 4.661-8.443 0-8.462-4.661-8.462zm-35.34-4.584h7.965q4.871 0 7.258 1.356 2.388 1.337 4.279 4.26 1.891 2.903 1.891 7.354 0 5.597-3.304 9.36-3.304 3.744-9.111 3.744h-8.978zm5.998 4.794v16.37h2.521q3.343 0 4.966-2.483 1.624-2.502 1.624-5.864 0-2.369-0.936-4.374-0.9168-2.025-2.292-2.827-1.375-0.8214-3.304-0.8214z" style="display:inline;fill-opacity:.3333;fill:#070707;opacity:.644"/>
   <path transform="translate(-8.775,-1.425)" d="m100.9 119v82.73h161.6v-82.73zm48.59 13.17c3.642 0 6.386 1.363 8.232 4.088 1.859 2.712 2.789 5.82 2.789 9.322 0 3.782-0.9551 6.971-2.865 9.568s-4.698 3.898-8.365 3.898c-3.515 0-6.233-1.319-8.156-3.955s-2.885-5.826-2.885-9.57c0-3.807 0.9736-6.984 2.922-9.531 1.948-2.547 4.724-3.82 8.328-3.82zm-35.38 0.4023h7.965c3.247 0 5.666 0.4514 7.258 1.355 1.592 0.8914 3.019 2.311 4.279 4.26 1.261 1.936 1.891 4.386 1.891 7.354 0 3.731-1.102 6.851-3.305 9.359-2.203 2.496-5.24 3.744-9.111 3.744h-8.977zm50.35 0h6.59l8.883 15.38c-0.07641-0.764-0.1152-1.344-0.1152-1.738v-13.64h4.719v26.07h-5.215l-10.22-17.61c0.01274 0.4457 0.02438 0.7388 0.03711 0.8789 0.05094 0.4457 0.07813 0.8213 0.07813 1.127v15.61h-4.758zm31.02 0h7.086l8.156 26.07h-6.57l-1.586-5.367h-8.443l-1.643 5.367h-5.348zm13.43 0h19.14v5.156h-6.455v20.92h-6.189v-20.92h-6.494zm21.78 0h18.64v4.967h-12.44v5.348h9.781v4.908h-9.781v5.693h12.44v5.156h-18.64zm-81.24 4.584c-3.209 0-4.814 2.815-4.814 8.443 0 5.641 1.605 8.461 4.814 8.461 3.107 0 4.66-2.815 4.66-8.443 0-5.641-1.553-8.461-4.66-8.461zm-29.34 0.2109v16.37h2.521c2.228 0 3.882-0.829 4.965-2.484 1.082-1.668 1.625-3.622 1.625-5.863 0-1.579-0.3116-3.038-0.9356-4.375-0.6112-1.35-1.376-2.291-2.293-2.826-0.9168-0.5476-2.019-0.8203-3.305-0.8203zm78.26 1.947-2.77 9.15h5.541zm25.34 22.37c5.119 0 8.411 2.043 9.875 6.131l-5.195 1.738c-0.7004-2.063-2.183-3.094-4.449-3.094-2.419 0-3.629 0.7833-3.629 2.35 0 0.624 0.2223 1.151 0.668 1.584 0.4584 0.433 1.482 0.8086 3.074 1.127 2.661 0.5348 4.61 1.077 5.846 1.625 1.235 0.5476 2.273 1.432 3.113 2.654 0.8532 1.21 1.279 2.566 1.279 4.068 0 2.356-0.9095 4.394-2.73 6.113-1.808 1.719-4.495 2.578-8.061 2.578-2.674 0-4.953-0.6047-6.838-1.814-1.872-1.222-3.109-3.032-3.707-5.426l5.654-1.279c0.6367 2.432 2.407 3.648 5.311 3.648 1.401 0 2.445-0.2679 3.133-0.8027 0.6876-0.5476 1.031-1.196 1.031-1.947 0-0.764-0.3116-1.357-0.9356-1.777-0.624-0.4202-1.829-0.8143-3.611-1.184-3.324-0.6876-5.692-1.624-7.105-2.809-1.413-1.197-2.119-2.94-2.119-5.232 0-2.318 0.8406-4.273 2.521-5.865 1.694-1.592 3.984-2.387 6.875-2.387zm-94.55 0.4004h6.092v26.07h-6.092zm8.689 0h19.14v5.158h-6.457v20.91h-6.189v-20.91h-6.494zm21.78 0h18.64v4.967h-12.43v5.348h9.779v4.91h-9.779v5.691h12.43v5.156h-18.64zm22.31 0h9.512l4.566 15.61 4.812-15.61h9.531v26.07h-6.15v-21.26l-6.551 21.26h-4.184l-6.418-21.26v21.26h-5.119z" clip-path="url(#clipPath886)" style="display:inline;fill:#000000;filter:url(#filter928)"/>
  </g>
 </g>
 <g id="vol-btn" transform="matrix(-.4421 0 0 -.4421 96.4 142.6)" style="display:none">
  <g id="volunteer ovals" transform="translate(-790.6,76.59)">
   <g transform="translate(-263.3)">
    <ellipse cx="989.2" cy="78.42" rx="110.1" ry="38.89" style="fill:#00beac;opacity:.98;stroke-linecap:round;stroke-linejoin:round;stroke-width:6;stroke:#00bead"/>
    <path transform="translate(177.6,-87.6)" d="m619.9 53.59v224.9h383.5v-224.9zm191.8 73.54a110.1 38.89 0 0 1 110.1 38.89 110.1 38.89 0 0 1-110.1 38.89 110.1 38.89 0 0 1-110.1-38.89 110.1 38.89 0 0 1 110.1-38.89z" clip-path="url(#clipPath4798-3)" style="fill-opacity:.9804;fill:#666666;filter:url(#filter4818-7);opacity:.558;stroke-linecap:round;stroke-linejoin:round;stroke-width:5.426;stroke:#000000"/>
   </g>
   <g transform="translate(177.6,111.7)">
    <ellipse cx="548.3" cy="-33.24" rx="110.1" ry="38.89" style="display:inline;fill:#00bdd4;opacity:.98"/>
    <path d="m385-129.6v192.6h326.7v-192.6zm163.3 57.42a110.1 38.89 0 0 1 110.1 38.89 110.1 38.89 0 0 1-110.1 38.89 110.1 38.89 0 0 1-110.1-38.89 110.1 38.89 0 0 1 110.1-38.89z" clip-path="url(#clipPath4787-6)" style="fill-opacity:.9804;fill:#666666;filter:url(#filter4822-2);opacity:.558;stroke-linecap:round;stroke-linejoin:round;stroke-width:5.426;stroke:#000000"/>
   </g>
  </g>
  <g id="volunteer-text">
   <path d="m15.83 161h-10.43v4.486h8.203v4.117h-8.203v4.774h10.43v4.326h-15.64v-21.87h15.64zm-34.16 17.7-5.383-17.83v17.83h-4.294v-21.87h7.979l3.829 13.09 4.037-13.09h7.995v21.87h-5.159v-17.83l-5.495 17.83zm-14.03-21.87v21.87h-5.111v-21.87zm-7.338 0v4.326h-5.415v17.54h-5.191v-17.54h-5.447v-4.326zm-38.5 13.2v8.667h-5.159v-21.87h9.613q2.66 0 4.262 0.6248 1.618 0.6088 2.676 2.259 1.057 1.65 1.057 3.669 0 3.941-3.797 5.655l4.037 9.661h-5.655l-3.364-8.667zm0-9.308v5.575h3.14q1.538 0 2.227-0.2083 0.7049-0.2243 1.25-0.9613 0.5447-0.753 0.5447-1.714 0-0.9132-0.5447-1.634-0.5447-0.7209-1.186-0.8812-0.6408-0.1762-2.403-0.1762zm-9.26-3.893v13.62q0 3.3-0.753 4.918-0.753 1.602-2.788 2.644-2.019 1.025-5.175 1.025t-5.031-0.9292q-1.858-0.9292-2.788-2.644-0.9292-1.714-0.9292-5.015v-13.62h5.559v13.62q0 1.762 0.2884 2.595 0.3044 0.8331 1.186 1.33 0.8972 0.4806 2.195 0.4806 1.442 0 2.339-0.4806 0.9132-0.4806 1.202-1.266 0.3044-0.8011 0.3044-2.66v-13.62zm-29.98 22.21q-4.422 0-6.841-3.316t-2.419-8.027q0-4.79 2.451-7.995 2.451-3.204 6.985-3.204 4.582 0 6.905 3.429 2.339 3.413 2.339 7.818 0 4.758-2.403 8.027-2.403 3.268-7.017 3.268zm0.1442-18.36q-4.037 0-4.037 7.081 0 7.097 4.037 7.097 3.909 0 3.909-7.081 0-7.097-3.909-7.097zm-8.908-3.845-6.873 12.66v9.212h-5.127v-9.212l-6.873-12.66h5.944l4.182 8.299 4.149-8.299zm134.7-12.35v8.667h-5.159v-21.87h9.613q2.66 0 4.262 0.6248 1.618 0.6088 2.676 2.259 1.057 1.65 1.057 3.669 0 3.941-3.797 5.655l4.037 9.661h-5.655l-3.364-8.667zm0-9.308v5.575h3.14q1.538 0 2.227-0.2083 0.7049-0.2243 1.25-0.9613 0.5447-0.753 0.5447-1.714 0-0.9132-0.5447-1.634t-1.186-0.8812q-0.6408-0.1762-2.403-0.1762zm-8.251 0.2724h-10.43v4.486h8.203v4.117h-8.203v4.774h10.43v4.326h-15.64v-21.87h15.64zm-18.71 0h-10.43v4.486h8.203v4.117h-8.203v4.774h10.43v4.326h-15.64v-21.87h15.64zm-17.85-4.166v4.326h-5.415v17.54h-5.191v-17.54h-5.447v-4.326zm-18.23 0v21.87h-4.374l-8.571-14.77q0.01602 0.5607 0.03204 0.737 0.06408 0.5607 0.06408 0.9452v13.09h-3.989v-21.87h5.527l7.45 12.9q-0.09613-0.9613-0.09613-1.458v-11.44zm-20.97 0v13.62q0 3.3-0.753 4.919-0.753 1.602-2.788 2.643-2.019 1.025-5.175 1.025t-5.031-0.9292q-1.858-0.9292-2.788-2.643-0.9292-1.714-0.9292-5.015v-13.62h5.559v13.62q0 1.762 0.2884 2.595 0.3044 0.8331 1.186 1.33 0.8972 0.4806 2.195 0.4806 1.442 0 2.339-0.4806 0.9132-0.4806 1.202-1.266 0.3044-0.8011 0.3044-2.66v-13.62zm-28.42 17.54h8.7v4.326h-13.89v-21.87h5.191zm-17.96 4.662q-4.422 0-6.841-3.316t-2.419-8.027q0-4.79 2.451-7.995 2.451-3.204 6.985-3.204 4.582 0 6.905 3.429 2.339 3.412 2.339 7.818 0 4.758-2.403 8.027-2.403 3.268-7.017 3.268zm0.1442-18.36q-4.037 0-4.037 7.081 0 7.097 4.037 7.097 3.909 0 3.909-7.081 0-7.097-3.909-7.097zm-9.965-3.845-6.585 21.87h-5.511l-6.569-21.87h5.447l4.374 15.64 4.534-15.64z" style="display:inline;fill-opacity:.3333;fill:#070707;opacity:.6439"/>
   <path d="m-175.4 109.1v92.91h222.7v-92.91zm54.25 22.41c3.055 0 5.356 1.144 6.904 3.43 1.559 2.275 2.34 4.881 2.34 7.818 0 3.172-0.8022 5.847-2.404 8.025-1.602 2.179-3.94 3.27-7.016 3.27-2.948 0-5.229-1.106-6.842-3.316-1.613-2.211-2.42-4.887-2.42-8.027 0-3.194 0.817-5.858 2.451-7.994s3.964-3.205 6.986-3.205zm-28.66 0.3379h5.447l4.373 15.64 4.535-15.64h4.309l-6.584 21.87h-5.512zm41.25 0h5.191v17.54h8.699v4.324h-13.89zm16.15 0h5.559v13.62c0 1.175 0.09681 2.04 0.2891 2.596 0.2029 0.5554 0.5981 0.999 1.186 1.33 0.5981 0.3204 1.33 0.4805 2.195 0.4805 0.9613 0 1.74-0.16 2.338-0.4805 0.6088-0.3204 1.009-0.7423 1.201-1.266 0.2029-0.534 0.3047-1.421 0.3047-2.66v-13.62h4.391v13.62c0 2.2-0.2519 3.839-0.7539 4.918-0.502 1.068-1.431 1.95-2.787 2.645-1.346 0.6836-3.07 1.025-5.174 1.025s-3.782-0.3102-5.031-0.9297c-1.239-0.6195-2.168-1.502-2.787-2.645-0.6195-1.143-0.9297-2.813-0.9297-5.014zm21.6 0h5.527l7.451 12.9c-0.06408-0.6408-0.09766-1.128-0.09766-1.459v-11.44h3.957v21.87h-4.373l-8.572-14.77c0.01068 0.3738 0.02252 0.6208 0.0332 0.7383 0.04272 0.3738 0.06445 0.689 0.06445 0.9453v13.09h-3.99zm19.02 0h16.05v4.324h-5.414v17.54h-5.191v-17.54h-5.447zm18.26 0h15.64v4.164h-10.43v4.486h8.203v4.117h-8.203v4.775h10.43v4.324h-15.64zm18.71 0h15.64v4.164h-10.43v4.486h8.203v4.117h-8.203v4.775h10.43v4.324h-15.64zm18.73 0h9.613c1.773 0 3.194 0.2065 4.262 0.623 1.079 0.4059 1.971 1.16 2.676 2.26s1.057 2.322 1.057 3.668c0 2.627-1.266 4.513-3.797 5.656l4.037 9.66h-5.654l-3.365-8.666h-3.668v8.666h-5.16zm-125.1 3.844c-2.692 0-4.037 2.361-4.037 7.082 0 4.732 1.346 7.098 4.037 7.098 2.606 0 3.91-2.361 3.91-7.082 0-4.732-1.304-7.098-3.91-7.098zm130.3 0.04883v5.574h3.139c1.025 0 1.769-0.06817 2.229-0.207 0.47-0.1495 0.8849-0.4696 1.248-0.9609 0.3631-0.502 0.5449-1.074 0.5449-1.715 0-0.6088-0.1818-1.154-0.5449-1.635-0.3631-0.4806-0.7583-0.774-1.186-0.8809-0.4272-0.1175-1.227-0.1758-2.402-0.1758zm-125.7 21.32c3.055 0 5.356 1.142 6.904 3.428 1.559 2.275 2.34 4.881 2.34 7.818 0 3.172-0.8022 5.848-2.404 8.027s-3.942 3.268-7.018 3.268c-2.948 0-5.227-1.105-6.84-3.316s-2.42-4.885-2.42-8.025c0-3.194 0.817-5.86 2.451-7.996s3.964-3.203 6.986-3.203zm-27.81 0.3359h5.943l4.182 8.299 4.148-8.299h4.598l-6.873 12.66v9.213h-5.125v-9.213zm40.15 0h5.559v13.62c0 1.175 0.09681 2.04 0.2891 2.596 0.2029 0.5554 0.5981 0.999 1.186 1.33 0.5981 0.3204 1.33 0.4805 2.195 0.4805 0.9613 0 1.74-0.16 2.338-0.4805 0.6088-0.3204 1.011-0.7423 1.203-1.266 0.2029-0.534 0.3027-1.421 0.3027-2.66v-13.62h4.391v13.62c0 2.2-0.2519 3.841-0.7539 4.92-0.502 1.068-1.431 1.948-2.787 2.643-1.346 0.6836-3.07 1.025-5.174 1.025s-3.782-0.3102-5.031-0.9297c-1.239-0.6195-2.168-1.5-2.787-2.643s-0.9297-2.815-0.9297-5.016zm21.56 0h9.613c1.773 0 3.194 0.2085 4.262 0.625 1.079 0.4059 1.969 1.16 2.674 2.26 0.7049 1.1 1.059 2.322 1.059 3.668 0 2.627-1.266 4.513-3.797 5.656l4.037 9.66h-5.656l-3.363-8.668h-3.67v8.668h-5.158zm27.6 0h16.05v4.326h-5.416v17.54h-5.191v-17.54h-5.447zm18.28 0h5.111v21.87h-5.111zm9.469 0h7.979l3.828 13.09 4.037-13.09h7.996v21.87h-5.16v-17.83l-5.494 17.83h-3.51l-5.383-17.83v17.83h-4.293zm28.2 0h15.64v4.166h-10.43v4.486h8.201v4.117h-8.201v4.773h10.43v4.326h-15.64zm-117.5 3.846c-2.692 0-4.037 2.359-4.037 7.08 0 4.732 1.346 7.098 4.037 7.098 2.606 0 3.91-2.359 3.91-7.08 0-4.732-1.304-7.098-3.91-7.098zm39.09 0.04687v5.576h3.141c1.025 0 1.767-0.07013 2.227-0.209 0.47-0.1495 0.8869-0.4696 1.25-0.9609 0.3631-0.502 0.5449-1.074 0.5449-1.715-1e-6 -0.6088-0.1818-1.152-0.5449-1.633-0.3631-0.4806-0.7583-0.7741-1.186-0.8809-0.4272-0.1175-1.227-0.1777-2.402-0.1777z" clip-path="url(#clipPath863)" style="display:inline;fill:#000000;filter:url(#filter867)"/>
  </g>
 </g>
 <g id="help-btn" transform="matrix(1.105 0 0 1.105 110.4 75.76)">
  <g id="help ovals" transform="translate(-712.7 -105.1)">
   <g transform="translate(-263.3)">
    <ellipse cx="989.2" cy="78.42" rx="110.1" ry="38.89" style="fill:#00beac;opacity:.98;stroke-linecap:round;stroke-linejoin:round;stroke-width:6;stroke:#00bead"/>
    <path transform="translate(177.6 -87.6)" d="m619.9 53.59v224.9h383.5v-224.9zm191.8 73.54a110.1 38.89 0 0 1 110.1 38.89 110.1 38.89 0 0 1-110.1 38.89 110.1 38.89 0 0 1-110.1-38.89 110.1 38.89 0 0 1 110.1-38.89z" clip-path="url(#clipPath4798)" style="fill-opacity:.9804;fill:#666666;filter:url(#filter4818);opacity:.558;stroke-linecap:round;stroke-linejoin:round;stroke-width:5.426;stroke:#000000"/>
   </g>
   <g transform="translate(177.6 111.7)">
    <ellipse cx="548.3" cy="-33.24" rx="110.1" ry="38.89" style="fill:#00bdd4;opacity:.98"/>
    <path d="m385-129.6v192.6h326.7v-192.6zm163.3 57.42a110.1 38.89 0 0 1 110.1 38.89 110.1 38.89 0 0 1-110.1 38.89 110.1 38.89 0 0 1-110.1-38.89 110.1 38.89 0 0 1 110.1-38.89z" clip-path="url(#clipPath4787)" style="fill-opacity:.9804;fill:#666666;filter:url(#filter4822);opacity:.558;stroke-linecap:round;stroke-linejoin:round;stroke-width:5.426;stroke:#000000"/>
   </g>
  </g>
  <g id="help-text">
   <path d="m104.2-35.93-6.591 2.205q-1.333-3.926-5.646-3.926-4.604 0-4.604 2.981 0 1.187 0.8481 2.011 0.8724 0.8239 3.901 1.43 5.065 1.018 7.415 2.06 2.351 1.042 3.95 3.368 1.624 2.302 1.624 5.162 0 4.483-3.465 7.754-3.441 3.271-10.23 3.271-5.089 0-8.675-2.302-3.562-2.326-4.701-6.882l7.173-1.624q1.212 4.628 6.737 4.628 2.666 0 3.974-1.018 1.309-1.042 1.309-2.472 0-1.454-1.187-2.254-1.187-0.7997-4.58-1.502-6.325-1.309-9.014-3.562-2.69-2.278-2.69-6.64 0-4.41 3.199-7.439 3.223-3.029 8.724-3.029 9.741 0 12.53 7.779zm-29.05-7.27v20.6q0 4.992-1.139 7.439-1.139 2.423-4.216 3.998-3.053 1.551-7.827 1.551t-7.609-1.405q-2.811-1.405-4.216-3.998t-1.405-7.585v-20.6h8.409v20.6q0 2.666 0.4362 3.926 0.4604 1.26 1.793 2.011 1.357 0.727 3.32 0.727 2.181 0 3.538-0.727 1.381-0.727 1.817-1.914 0.4604-1.212 0.4604-4.023v-20.6zm-60.58 20.79v12.29h-7.876v-33.08h13.04q4.362 0 6.664 0.9451 2.326 0.9208 4.144 3.32 1.817 2.399 1.817 5.888 0 2.447-0.9693 4.774-0.9693 2.326-2.738 3.659-1.769 1.333-3.441 1.769-1.648 0.4362-5.186 0.4362zm-0.2666-6.01h5.04q2.884 0 4.047-1.333t1.163-3.053q0-2.011-1.309-3.199-1.284-1.187-3.926-1.187h-5.016zm-24.74 11.75h13.16v6.543h-21.01v-33.08h7.851zm-12.53-20.23h-15.78v6.785h12.41v6.228h-12.41v7.221h15.78v6.543h-23.65v-33.08h23.65zm-30.24-6.3v33.08h-7.609v-13.64h-10.35v13.64h-7.609v-33.08h7.609v12.89h10.35v-12.89z" style="fill-opacity:.3316;fill:#070707;opacity:.644"/>
   <path d="m-103.9-57.36v63h235.8v-63zm196.4 14.45c6.494 0 10.67 2.592 12.53 7.777l-6.592 2.205c-0.8885-2.617-2.771-3.926-5.646-3.926-3.069 0-4.604 0.9934-4.604 2.98 0 0.7916 0.2822 1.462 0.8477 2.012 0.5816 0.5493 1.881 1.026 3.9 1.43 3.376 0.6785 5.849 1.366 7.416 2.061 1.567 0.6947 2.883 1.816 3.949 3.367 1.082 1.535 1.625 3.256 1.625 5.162 0 2.989-1.157 5.573-3.467 7.754-2.294 2.181-5.701 3.271-10.22 3.271-3.393 0-6.285-0.7661-8.676-2.301-2.375-1.551-3.942-3.846-4.701-6.883l7.172-1.623c0.8078 3.086 3.055 4.627 6.738 4.627 1.777-1e-6 3.1-0.3391 3.973-1.018 0.8724-0.6947 1.309-1.518 1.309-2.471 0-0.9693-0.3959-1.721-1.188-2.254-0.7916-0.5331-2.318-1.033-4.58-1.502-4.216-0.8724-7.22-2.06-9.014-3.562-1.793-1.519-2.689-3.733-2.689-6.641 0-2.94 1.067-5.42 3.199-7.439 2.149-2.019 5.055-3.027 8.723-3.027zm-170.5 0.5078h7.609v12.89h10.35v-12.89h7.609v33.08h-7.609v-13.64h-10.35v13.64h-7.609zm32.16 0h23.65v6.301h-15.78v6.785h12.41v6.227h-12.41v7.223h15.78v6.543h-23.65zm28.33 0h7.852v26.54h13.16v6.543h-21.01zm24.98 0h13.04c2.908-1e-6 5.129 0.3153 6.664 0.9453 1.551 0.6139 2.931 1.721 4.143 3.32s1.818 3.562 1.818 5.889c0 1.632-0.3245 3.223-0.9707 4.773-0.6462 1.551-1.559 2.77-2.738 3.658-1.179 0.8885-2.325 1.479-3.439 1.77-1.099 0.2908-2.827 0.4355-5.186 0.4355h-5.453v12.29h-7.875zm42.04 0h8.408v20.6c0 1.777 0.1448 3.086 0.4355 3.926 0.3069 0.8401 0.9064 1.511 1.795 2.012 0.9047 0.4846 2.01 0.7266 3.318 0.7266 1.454 0 2.634-0.2419 3.539-0.7266 0.9208-0.4846 1.526-1.122 1.816-1.914 0.3069-0.8077 0.4609-2.149 0.4609-4.023v-20.6h6.641v20.6c0 3.328-0.3813 5.808-1.141 7.439-0.7593 1.615-2.163 2.948-4.215 3.998-2.036 1.034-4.646 1.551-7.828 1.551-3.183 0-5.719-0.4673-7.609-1.404-1.874-0.937-3.28-2.271-4.217-4s-1.404-4.256-1.404-7.584zm-34.43 6.01v8.771h5.039c1.922 0 3.271-0.4435 4.047-1.332 0.7754-0.8885 1.164-1.906 1.164-3.053 0-1.341-0.4362-2.408-1.309-3.199-0.8562-0.7916-2.165-1.188-3.926-1.188z" clip-path="url(#clipPath920)" style="fill:#000000;filter:url(#filter924)"/>
  </g>
 </g>
</svg>
