<svg  version="1.1" height="100%" width="100%" viewBox="0 0 128.1 175" xmlns="http://www.w3.org/2000/svg">
 <path d="m37.98 0.008032 0.00976 0.001953c-0.7279-0.015-1.46-0.01314-2.197 0.005859-2.719 0.072-5.491 0.3778-8.289 0.9258-14.02 2.746-24.02 12.61-27.07 26.69-0.6295 2.909-0.566 10.3 0.1172 13.52 1.265 5.978 3.618 10.92 6.523 13.71 1.387 1.331 2.165 1.784 3.609 2.113 0.8002 0.183 1.195 0.1641 1.789-0.08789 1.414-0.601 1.459-2.507 0.1328-5.646-0.6626-1.569-1.28-4.096-1.713-7.01-0.541-3.641-0.545-11.53-0.00585-14.24 1.168-5.888 3.328-10.21 6.922-13.84 5.195-5.253 10.81-6.058 14.89-2.137 1.433 1.378 2.43 3.198 3.064 5.588 0.6119 2.311 0.6646 7.309 0.1074 10.47-0.8124 4.612-3.396 10.98-6.697 16.51-1.503 2.517-3.979 6.205-8.559 12.76-8.315 11.9-12.31 19.95-14.55 29.3-5.256 21.95 0.2756 45.26 14.79 62.3 11.7 13.73 27.79 22.13 45.68 23.83h0.00195c1.102 0.104 3.655 0.2048 5.674 0.2188 15.6 0.127 29.98-4.941 42.27-14.9 2.931-2.374 8.896-8.298 8.896-8.832 0-0.41-6.525-6.766-6.947-6.766-0.1272 0-1.303 1.055-2.615 2.344-12.42 12.19-26.28 18.28-41.6 18.26-6.219-6e-3 -11.1-0.7159-16.63-2.422-22.36-6.889-38.49-26.91-41-50.9-0.4044-3.865-0.1687-13.28 0.416-16.58 0.9794-5.532 2.87-10.86 5.779-16.28 2.936-5.473 5.555-9.483 13.95-21.36 5.529-7.824 8.917-14.72 10.69-21.74 2.447-9.706 1.745-17.46-2.115-23.4-0.5984-0.92-1.012-1.755-0.918-1.854 0.2192-0.231 2.637 0.1579 5.469 0.8789 4.77 1.214 10.06 3.778 14.79 7.17 3.387 2.427 4.328 2.76 5.889 2.098 0.906-0.385 1.453-1.358 1.453-2.586 0-1.206-1.634-3.682-4.303-6.521-6.886-7.322-16.78-11.37-27.7-11.59zm41.48 31.2c-0.8349 0.002859-1.86 0.9601-2.309 2.152-0.4397 1.171-0.3737 1.985 0.4824 5.83 1.004 4.508 1.43 8.138 1.57 13.39 0.2359 8.86-0.7558 14.27-3.711 20.24-2.606 5.265-6.316 9.321-14.79 16.17-5.995 4.844-9.504 7.895-11.48 9.986-5.501 5.818-8.968 12.25-10.37 19.24-0.6153 3.071-0.5448 10.43 0.1309 13.63 1.248 5.913 3.49 10.58 7.158 14.9 2.387 2.812 6.098 5.548 8.93 6.584 1.643 0.601 2.278 0.5695 2.832-0.1465 0.9901-1.28 0.5341-2.37-2.07-4.963-4.991-4.968-7.13-10.36-7.691-19.4-0.4002-6.443 0.4286-10.6 3.031-15.18 2.828-4.982 6.611-8.916 13.86-14.42 4.844-3.675 7.244-5.763 10.24-8.904 7.673-8.043 11.92-16.76 13.25-27.22 0.5-3.904 0.5072-10.3 0.01563-13.23-1.603-9.551-6.029-18.65-9.074-18.66h-0.00196zm16.25 8.648c-1.149-0.031-1.76 0.4213-1.76 1.322 0 0.544 0.3406 1.052 1.623 2.428 0.8915 0.956 2.191 2.459 2.889 3.342l1.27 1.605 3.506 1.168c3.967 1.323 7.689 3.055 9.107 4.236 1.335 1.112 2.726 3.178 4.088 6.07 0.6387 1.356 1.701 3.27 2.361 4.256 0.8041 1.2 1.16 1.931 1.072 2.211-0.468 1.499-5.225 4.429-8.248 5.08-3.864 0.832-9.159 0.03073-13.68-2.072-0.9713-0.452-1.83-0.7567-1.908-0.6777-0.2273 0.231-0.724 3.11-0.7266 4.219-0.01155 3.578 3.939 6.22 10.44 6.982 2.401 0.281 2.993 0.2819 5.227 0.003906 5.463-0.681 10.36-3.128 13.99-6.99 2.364-2.515 3.139-4.164 3.139-6.691 0-1.696-0.0649-1.954-0.8398-3.393-0.4611-0.857-1.597-3.133-2.527-5.061-0.9299-1.928-2.116-4.174-2.635-4.99-2.219-3.493-5.229-5.972-9.838-8.102-5.535-2.559-11.08-4.254-16.02-4.904-0.1859-0.025-0.3592-0.03797-0.5234-0.04297zm28.35 45.9c-0.2311 0.02152-0.4912 0.1637-0.834 0.4121-3.066 2.219-7.583 3.325-14.48 3.547l-4.141 0.1309-0.6055 1.27c-1.696 3.538-4.626 7.099-6.701 8.15-1.257 0.636-3.091 0.8571-4.111 0.4961-0.3881-0.138-0.8363-0.174-0.9961-0.08203-0.4968 0.284-6.548 6.933-6.551 7.199-0.00558 0.376 3.323 1.85 5.285 2.34v0.00391c2.384 0.593 5.891 0.5997 8.145 0.01367 4.272-1.11 7.134-3.293 10.86-8.273l1.025-1.369 2.746-0.2617c6.143-0.589 11.76-2.822 12.96-5.152 0.9774-1.894 0.4447-4.683-1.424-7.443-0.4822-0.7128-0.7886-1.014-1.174-0.9805zm-43.75 29.64c-2.46 0.03-4.118 0.4378-3.824 1.215 0.07117 0.189 1.39 1.191 2.932 2.225 3.752 2.515 6.337 4.864 7.736 7.035 0.1954 0.304 1.493 1.095 3.061 1.869 3.191 1.578 5.695 3.424 7.904 5.828 1.753 1.908 4.081 5.328 5.061 7.43 0.3479 0.746 0.7105 1.483 0.8066 1.639 0.09612 0.155 0.2654 0.2812 0.373 0.2812 0.4182 0 6.229-6.095 6.229-6.533 0-0.779-1.521-3.879-3.057-6.234-1.812-2.776-5.533-6.607-8.518-8.77-3.123-2.262-6.899-4.107-10.07-4.918-2.912-0.745-6.173-1.095-8.633-1.066z" style="fill:#08c1ab;stroke-width:.2243"/>
</svg>
