<svg version="1.1" viewBox="0 0 133.2 180" xmlns="http://www.w3.org/2000/svg">
 <defs>
  <clipPath id="clipPath860">
   <path d="m26.98 0c-14.95 0-26.98 12.03-26.98 26.98v126c0 14.95 12.03 26.98 26.98 26.98h79.24c14.95 0 26.98-12.03 26.98-26.98v-126c0-14.95-12.03-26.98-26.98-26.98zm12.53 1.422h0.005859c10.92 0.2213 20.81 4.269 27.69 11.59 2.669 2.839 4.303 5.315 4.303 6.521 0 1.228-0.5471 2.201-1.453 2.586-1.561 0.662-2.502 0.3293-5.889-2.098-4.73-3.392-10.02-5.956-14.79-7.17-2.832-0.721-5.25-1.11-5.469-0.8789-0.094 0.099 0.3196 0.9335 0.918 1.854 3.86 5.94 4.562 13.69 2.115 23.4-1.773 7.02-5.162 13.92-10.69 21.74-8.395 11.88-11.01 15.89-13.95 21.36-2.909 5.42-4.8 10.75-5.779 16.28-0.5847 3.3-0.8204 12.71-0.416 16.58 2.51 23.99 18.64 44.01 41 50.9 5.53 1.706 10.41 2.416 16.63 2.422 15.32 0.02 29.18-6.07 41.6-18.26 1.312-1.289 2.488-2.344 2.615-2.344 0.422 0 6.945 6.356 6.945 6.766 0 0.534-5.964 6.458-8.895 8.832-12.29 9.959-26.67 15.03-42.27 14.9-2.019-0.014-4.574-0.1148-5.676-0.2188h-0.001953c-17.89-1.7-33.98-10.1-45.68-23.83-14.51-17.04-20.05-40.35-14.79-62.3 2.24-9.35 6.234-17.4 14.55-29.3 4.58-6.555 7.058-10.24 8.561-12.76 3.301-5.53 5.883-11.9 6.695-16.51 0.5572-3.161 0.5045-8.16-0.1074-10.47-0.634-2.39-1.63-4.21-3.062-5.588-4.08-3.921-9.696-3.116-14.89 2.137-3.594 3.63-5.754 7.952-6.922 13.84-0.5392 2.71-0.5351 10.6 0.005859 14.24 0.433 2.914 1.05 5.441 1.713 7.01 1.326 3.139 1.281 5.045-0.1328 5.646-0.594 0.252-0.9889 0.2709-1.789 0.08789-1.444-0.329-2.222-0.7823-3.609-2.113-2.905-2.79-5.258-7.731-6.523-13.71-0.6832-3.22-0.7467-10.61-0.1172-13.52 3.05-14.08 13.05-23.94 27.07-26.69 2.798-0.548 5.57-0.8538 8.289-0.9258 0.735-0.01895 1.465-0.02073 2.191-0.005859zm41.48 31.2h0.003907c3.045 0.01 7.471 9.109 9.074 18.66 0.4916 2.93 0.4844 9.325-0.01562 13.23-1.33 10.46-5.577 19.18-13.25 27.22-2.996 3.141-5.396 5.229-10.24 8.904-7.249 5.504-11.03 9.438-13.86 14.42-2.602 4.58-3.431 8.737-3.031 15.18 0.561 9.04 2.7 14.43 7.691 19.4 2.604 2.593 3.06 3.683 2.07 4.963-0.554 0.716-1.189 0.7475-2.832 0.1465-2.832-1.036-6.543-3.772-8.93-6.584-3.668-4.32-5.91-8.987-7.158-14.9-0.6757-3.2-0.7462-10.56-0.1309-13.63 1.402-6.99 4.868-13.42 10.37-19.24 1.976-2.091 5.485-5.142 11.48-9.986 8.474-6.849 12.18-10.9 14.79-16.17 2.955-5.97 3.949-11.38 3.713-20.24-0.14-5.252-0.5663-8.883-1.57-13.39-0.8561-3.845-0.9221-4.659-0.4824-5.83 0.449-1.192 1.474-2.149 2.309-2.152zm16.25 8.648h0.00586c0.1642 5e-3 0.3375 0.01797 0.5234 0.04297 4.94 0.65 10.48 2.345 16.02 4.904 4.609 2.13 7.619 4.609 9.838 8.102 0.519 0.816 1.705 3.062 2.635 4.99 0.93 1.928 2.066 4.204 2.527 5.061 0.7749 1.439 0.8398 1.697 0.8398 3.393 0 2.527-0.7747 4.176-3.139 6.691-3.63 3.862-8.527 6.309-13.99 6.99-2.234 0.278-2.826 0.2771-5.227-0.003906-6.501-0.762-10.45-3.404-10.44-6.982 0.0026-1.109 0.4993-3.988 0.7266-4.219 0.078-0.079 0.9369 0.2257 1.908 0.6777 4.521 2.103 9.816 2.904 13.68 2.072 3.023-0.651 7.78-3.581 8.248-5.08 0.088-0.28-0.2682-1.011-1.072-2.211-0.66-0.986-1.723-2.9-2.361-4.256-1.362-2.892-2.753-4.958-4.088-6.07-1.418-1.181-5.14-2.913-9.107-4.236l-3.506-1.168-1.27-1.605c-0.698-0.883-1.997-2.386-2.889-3.342-1.282-1.376-1.623-1.884-1.623-2.428 0-0.9007 0.6108-1.353 1.76-1.322zm28.35 45.9 0.00391 0.001953c0.3854-0.0335 0.6916 0.2677 1.174 0.9805 1.869 2.76 2.401 5.549 1.424 7.443-1.2 2.33-6.818 4.561-12.96 5.15l-2.744 0.2617-1.025 1.369c-3.726 4.98-6.589 7.163-10.86 8.273-2.254 0.586-5.761 0.5793-8.145-0.01367v-0.00391c-1.962-0.49-5.291-1.964-5.285-2.34 3e-3 -0.266 6.054-6.915 6.551-7.199 0.1598-0.09197 0.608-0.05597 0.9961 0.08203 1.02 0.361 2.854 0.1399 4.111-0.4961 2.075-1.051 5.005-4.612 6.701-8.15l0.6055-1.27 4.141-0.1309c6.897-0.222 11.41-1.328 14.48-3.547 0.3428-0.2484 0.6029-0.3906 0.834-0.4121zm-43.75 29.64c2.46-0.029 5.721 0.3214 8.633 1.066 3.171 0.811 6.947 2.656 10.07 4.918 2.985 2.163 6.708 5.994 8.52 8.77 1.536 2.355 3.057 5.455 3.057 6.234 0 0.438-5.812 6.533-6.23 6.533-0.1076 0-0.2769-0.1262-0.373-0.2812-0.09609-0.156-0.4568-0.8927-0.8047-1.639-0.98-2.102-3.31-5.522-5.063-7.43-2.209-2.404-4.713-4.25-7.904-5.828-1.568-0.774-2.865-1.565-3.061-1.869-1.399-2.171-3.984-4.52-7.736-7.035-1.542-1.034-2.86-2.036-2.932-2.225-0.294-0.7772 1.364-1.185 3.824-1.215z" style="fill:#000000;opacity:.099"/>
  </clipPath>
 </defs>
 <rect width="133.2" height="180" ry="26.98" style="fill:#000000;opacity:.099"/>
 <path d="m41.31 1.82 0.00976 0.001953c-0.7279-0.015-1.46-0.01314-2.197 0.005859-2.719 0.072-5.491 0.3778-8.289 0.9258-14.02 2.746-24.02 12.61-27.07 26.69-0.6295 2.909-0.566 10.3 0.1172 13.52 1.265 5.978 3.618 10.92 6.523 13.71 1.387 1.331 2.165 1.784 3.609 2.113 0.8002 0.183 1.195 0.1641 1.789-0.08789 1.414-0.601 1.459-2.507 0.1328-5.646-0.6626-1.569-1.28-4.096-1.713-7.01-0.541-3.641-0.545-11.53-0.00585-14.24 1.168-5.888 3.328-10.21 6.922-13.84 5.195-5.253 10.81-6.058 14.89-2.137 1.433 1.378 2.43 3.198 3.064 5.588 0.6119 2.311 0.6646 7.309 0.1074 10.47-0.8124 4.612-3.396 10.98-6.697 16.51-1.503 2.517-3.979 6.205-8.559 12.76-8.315 11.9-12.31 19.95-14.55 29.3-5.256 21.95 0.2756 45.26 14.79 62.3 11.7 13.73 27.79 22.13 45.68 23.83h0.00195c1.102 0.104 3.655 0.2048 5.674 0.2188 15.6 0.127 29.98-4.941 42.27-14.9 2.931-2.374 8.896-8.298 8.896-8.832 0-0.41-6.525-6.766-6.947-6.766-0.1272 0-1.303 1.055-2.615 2.344-12.42 12.19-26.28 18.28-41.6 18.26-6.219-6e-3 -11.1-0.7159-16.63-2.422-22.36-6.889-38.49-26.91-41-50.9-0.4044-3.865-0.1687-13.28 0.416-16.58 0.9794-5.532 2.87-10.86 5.779-16.28 2.936-5.473 5.555-9.483 13.95-21.36 5.529-7.824 8.917-14.72 10.69-21.74 2.447-9.706 1.745-17.46-2.115-23.4-0.5984-0.92-1.012-1.755-0.918-1.854 0.2192-0.231 2.637 0.1579 5.469 0.8789 4.77 1.214 10.06 3.778 14.79 7.17 3.387 2.427 4.328 2.76 5.889 2.098 0.906-0.385 1.453-1.358 1.453-2.586 0-1.206-1.634-3.682-4.303-6.521-6.886-7.322-16.78-11.37-27.7-11.59zm41.48 31.2c-0.8349 0.002859-1.86 0.9601-2.309 2.152-0.4397 1.171-0.3737 1.985 0.4824 5.83 1.004 4.508 1.43 8.138 1.57 13.39 0.2359 8.86-0.7558 14.27-3.711 20.24-2.606 5.265-6.316 9.321-14.79 16.17-5.995 4.844-9.504 7.895-11.48 9.986-5.501 5.818-8.968 12.25-10.37 19.24-0.6153 3.071-0.5448 10.43 0.1309 13.63 1.248 5.913 3.49 10.58 7.158 14.9 2.387 2.812 6.098 5.548 8.93 6.584 1.643 0.601 2.278 0.5695 2.832-0.1465 0.9901-1.28 0.5341-2.37-2.07-4.963-4.991-4.968-7.13-10.36-7.691-19.4-0.4002-6.443 0.4286-10.6 3.031-15.18 2.828-4.982 6.611-8.916 13.86-14.42 4.844-3.675 7.244-5.763 10.24-8.904 7.673-8.043 11.92-16.76 13.25-27.22 0.5-3.904 0.5072-10.3 0.01563-13.23-1.603-9.551-6.029-18.65-9.074-18.66h-0.00196zm16.25 8.648c-1.149-0.031-1.76 0.4213-1.76 1.322 0 0.544 0.3406 1.052 1.623 2.428 0.8915 0.956 2.191 2.459 2.889 3.342l1.27 1.605 3.506 1.168c3.967 1.323 7.689 3.055 9.107 4.236 1.335 1.112 2.726 3.178 4.088 6.07 0.6387 1.356 1.701 3.27 2.361 4.256 0.8041 1.2 1.16 1.931 1.072 2.211-0.468 1.499-5.225 4.429-8.248 5.08-3.864 0.832-9.159 0.03073-13.68-2.072-0.9713-0.452-1.83-0.7567-1.908-0.6777-0.2273 0.231-0.724 3.11-0.7266 4.219-0.01155 3.578 3.939 6.22 10.44 6.982 2.401 0.281 2.993 0.2819 5.227 0.003906 5.463-0.681 10.36-3.128 13.99-6.99 2.364-2.515 3.139-4.164 3.139-6.691 0-1.696-0.0649-1.954-0.8398-3.393-0.4611-0.857-1.597-3.133-2.527-5.061-0.9299-1.928-2.116-4.174-2.635-4.99-2.219-3.493-5.229-5.972-9.838-8.102-5.535-2.559-11.08-4.254-16.02-4.904-0.1859-0.025-0.3592-0.03797-0.5234-0.04297zm28.35 45.9c-0.2311 0.02152-0.4912 0.1637-0.834 0.4121-3.066 2.219-7.583 3.325-14.48 3.547l-4.141 0.1309-0.6055 1.27c-1.696 3.538-4.626 7.099-6.701 8.15-1.257 0.636-3.091 0.8571-4.111 0.4961-0.3881-0.138-0.8363-0.174-0.9961-0.08203-0.4968 0.284-6.548 6.933-6.551 7.199-0.00558 0.376 3.323 1.85 5.285 2.34v0.00391c2.384 0.593 5.891 0.5997 8.145 0.01367 4.272-1.11 7.134-3.293 10.86-8.273l1.025-1.369 2.746-0.2617c6.143-0.589 11.76-2.822 12.96-5.152 0.9774-1.894 0.4447-4.683-1.424-7.443-0.4822-0.7128-0.7886-1.014-1.174-0.9805zm-43.75 29.64c-2.46 0.03-4.118 0.4378-3.824 1.215 0.07117 0.189 1.39 1.191 2.932 2.225 3.752 2.515 6.337 4.864 7.736 7.035 0.1954 0.304 1.493 1.095 3.061 1.869 3.191 1.578 5.695 3.424 7.904 5.828 1.753 1.908 4.081 5.328 5.061 7.43 0.3479 0.746 0.7105 1.483 0.8066 1.639 0.09612 0.155 0.2654 0.2812 0.373 0.2812 0.4182 0 6.229-6.095 6.229-6.533 0-0.779-1.521-3.879-3.057-6.234-1.812-2.776-5.533-6.607-8.518-8.77-3.123-2.262-6.899-4.107-10.07-4.918-2.912-0.745-6.173-1.095-8.633-1.066z" style="display:none;fill:#000000;stroke-width:.2243"/>
 <path d="m40.11 3.62 0.00976 0.001953c-0.7279-0.015-1.46-0.01314-2.197 0.005859-2.719 0.072-5.491 0.3778-8.289 0.9258-14.02 2.746-24.02 12.61-27.07 26.69-0.6295 2.909-0.566 10.3 0.1172 13.52 1.265 5.978 3.618 10.92 6.523 13.71 1.387 1.331 2.165 1.784 3.609 2.113 0.8002 0.183 1.195 0.1641 1.789-0.08789 1.414-0.601 1.459-2.507 0.1328-5.646-0.6626-1.569-1.28-4.096-1.713-7.01-0.541-3.641-0.545-11.53-0.00585-14.24 1.168-5.888 3.328-10.21 6.922-13.84 5.195-5.253 10.81-6.058 14.89-2.137 1.433 1.378 2.43 3.198 3.064 5.588 0.6119 2.311 0.6646 7.309 0.1074 10.47-0.8124 4.612-3.396 10.98-6.697 16.51-1.503 2.517-3.979 6.205-8.559 12.76-8.315 11.9-12.31 19.95-14.55 29.3-5.256 21.95 0.2756 45.26 14.79 62.3 11.7 13.73 27.79 22.13 45.68 23.83h0.00195c1.102 0.104 3.655 0.2048 5.674 0.2188 15.6 0.127 29.98-4.941 42.27-14.9 2.931-2.374 8.896-8.298 8.896-8.832 0-0.41-6.525-6.766-6.947-6.766-0.1272 0-1.303 1.055-2.615 2.344-12.42 12.19-26.28 18.28-41.6 18.26-6.219-6e-3 -11.1-0.7159-16.63-2.422-22.36-6.889-38.49-26.91-41-50.9-0.4044-3.865-0.1687-13.28 0.416-16.58 0.9794-5.532 2.87-10.86 5.779-16.28 2.936-5.473 5.555-9.483 13.95-21.36 5.529-7.824 8.917-14.72 10.69-21.74 2.447-9.706 1.745-17.46-2.115-23.4-0.5984-0.92-1.012-1.755-0.918-1.854 0.2192-0.231 2.637 0.1579 5.469 0.8789 4.77 1.214 10.06 3.778 14.79 7.17 3.387 2.427 4.328 2.76 5.889 2.098 0.906-0.385 1.453-1.358 1.453-2.586 0-1.206-1.634-3.682-4.303-6.521-6.886-7.322-16.78-11.37-27.7-11.59zm41.48 31.2c-0.8349 0.002859-1.86 0.9601-2.309 2.152-0.4397 1.171-0.3737 1.985 0.4824 5.83 1.004 4.508 1.43 8.138 1.57 13.39 0.2359 8.86-0.7558 14.27-3.711 20.24-2.606 5.265-6.316 9.321-14.79 16.17-5.995 4.844-9.504 7.895-11.48 9.986-5.501 5.818-8.968 12.25-10.37 19.24-0.6153 3.071-0.5448 10.43 0.1309 13.63 1.248 5.913 3.49 10.58 7.158 14.9 2.387 2.812 6.098 5.548 8.93 6.584 1.643 0.601 2.278 0.5695 2.832-0.1465 0.9901-1.28 0.5341-2.37-2.07-4.963-4.991-4.968-7.13-10.36-7.691-19.4-0.4002-6.443 0.4286-10.6 3.031-15.18 2.828-4.982 6.611-8.916 13.86-14.42 4.844-3.675 7.244-5.763 10.24-8.904 7.673-8.043 11.92-16.76 13.25-27.22 0.5-3.904 0.5072-10.3 0.01563-13.23-1.603-9.551-6.029-18.65-9.074-18.66h-0.00196zm16.25 8.648c-1.149-0.031-1.76 0.4213-1.76 1.322 0 0.544 0.3406 1.052 1.623 2.428 0.8915 0.956 2.191 2.459 2.889 3.342l1.27 1.605 3.506 1.168c3.967 1.323 7.689 3.055 9.107 4.236 1.335 1.112 2.726 3.178 4.088 6.07 0.6387 1.356 1.701 3.27 2.361 4.256 0.8041 1.2 1.16 1.931 1.072 2.211-0.468 1.499-5.225 4.429-8.248 5.08-3.864 0.832-9.159 0.03073-13.68-2.072-0.9713-0.452-1.83-0.7567-1.908-0.6777-0.2273 0.231-0.724 3.11-0.7266 4.219-0.01155 3.578 3.939 6.22 10.44 6.982 2.401 0.281 2.993 0.2819 5.227 0.003906 5.463-0.681 10.36-3.128 13.99-6.99 2.364-2.515 3.139-4.164 3.139-6.691 0-1.696-0.0649-1.954-0.8398-3.393-0.4611-0.857-1.597-3.133-2.527-5.061-0.9299-1.928-2.116-4.174-2.635-4.99-2.219-3.493-5.229-5.972-9.838-8.102-5.535-2.559-11.08-4.254-16.02-4.904-0.1859-0.025-0.3592-0.03797-0.5234-0.04297zm28.35 45.9c-0.2311 0.02152-0.4912 0.1637-0.834 0.4121-3.066 2.219-7.583 3.325-14.48 3.547l-4.141 0.1309-0.6055 1.27c-1.696 3.538-4.626 7.099-6.701 8.15-1.257 0.636-3.091 0.8571-4.111 0.4961-0.3881-0.138-0.8363-0.174-0.9961-0.08203-0.4968 0.284-6.548 6.933-6.551 7.199-0.00558 0.376 3.323 1.85 5.285 2.34v0.00391c2.384 0.593 5.891 0.5997 8.145 0.01367 4.272-1.11 7.134-3.293 10.86-8.273l1.025-1.369 2.746-0.2617c6.143-0.589 11.76-2.822 12.96-5.152 0.9774-1.894 0.4447-4.683-1.424-7.443-0.4822-0.7128-0.7886-1.014-1.174-0.9805zm-43.75 29.64c-2.46 0.03-4.118 0.4378-3.824 1.215 0.07117 0.189 1.39 1.191 2.932 2.225 3.752 2.515 6.337 4.864 7.736 7.035 0.1954 0.304 1.493 1.095 3.061 1.869 3.191 1.578 5.695 3.424 7.904 5.828 1.753 1.908 4.081 5.328 5.061 7.43 0.3479 0.746 0.7105 1.483 0.8066 1.639 0.09612 0.155 0.2654 0.2812 0.373 0.2812 0.4182 0 6.229-6.095 6.229-6.533 0-0.779-1.521-3.879-3.057-6.234-1.812-2.776-5.533-6.607-8.518-8.77-3.123-2.262-6.899-4.107-10.07-4.918-2.912-0.745-6.173-1.095-8.633-1.066z" style="display:none;fill:#000000;stroke-width:.2243"/>
 <path d="m89.37 109.8-1.947-1.364 5.265-1.295z" style="display:none;fill:#000000"/>
 <path d="m127.7 88.4-1.656-1.071-1.635 4.365z" style="display:none;fill:#000000"/>
 <path d="m103.1 51.17-1.8-1.2 3.978-1.277z" style="display:none;fill:#000000"/>
 <path d="m119.8 147.1-1.8-1.2 0.2389 3.196z" style="display:none;fill:#000000"/>
 <path d="m107.7 145.5-1.8-1.2 0.8049-3.193 0.6554 1.409z" style="display:none;fill:#000000"/>
 <path d="m39.51 1.42 0.00976 0.001953c-0.7279-0.015-1.46-0.01314-2.197 0.005859-2.719 0.072-5.491 0.3778-8.289 0.9258-14.02 2.746-24.02 12.61-27.07 26.69-0.6295 2.909-0.566 10.3 0.1172 13.52 1.265 5.978 3.618 10.92 6.523 13.71 1.387 1.331 2.165 1.784 3.609 2.113 0.8002 0.183 1.195 0.1641 1.789-0.08789 1.414-0.601 1.459-2.507 0.1328-5.646-0.6626-1.569-1.28-4.096-1.713-7.01-0.541-3.641-0.545-11.53-0.00585-14.24 1.168-5.888 3.328-10.21 6.922-13.84 5.195-5.253 10.81-6.058 14.89-2.137 1.433 1.378 2.43 3.198 3.064 5.588 0.6119 2.311 0.6646 7.309 0.1074 10.47-0.8124 4.612-3.396 10.98-6.697 16.51-1.503 2.517-3.979 6.205-8.559 12.76-8.315 11.9-12.31 19.95-14.55 29.3-5.256 21.95 0.2756 45.26 14.79 62.3 11.7 13.73 27.79 22.13 45.68 23.83h0.00195c1.102 0.104 3.655 0.2048 5.674 0.2188 15.6 0.127 29.98-4.941 42.27-14.9 2.931-2.374 8.896-8.298 8.896-8.832 0-0.41-6.525-6.766-6.947-6.766-0.1272 0-1.303 1.055-2.615 2.344-12.42 12.19-26.28 18.28-41.6 18.26-6.219-6e-3 -11.1-0.7159-16.63-2.422-22.36-6.889-38.49-26.91-41-50.9-0.4044-3.865-0.1687-13.28 0.416-16.58 0.9794-5.532 2.87-10.86 5.779-16.28 2.936-5.473 5.555-9.483 13.95-21.36 5.529-7.824 8.917-14.72 10.69-21.74 2.447-9.706 1.745-17.46-2.115-23.4-0.5984-0.92-1.012-1.755-0.918-1.854 0.2192-0.231 2.637 0.1579 5.469 0.8789 4.77 1.214 10.06 3.778 14.79 7.17 3.387 2.427 4.328 2.76 5.889 2.098 0.906-0.385 1.453-1.358 1.453-2.586 0-1.206-1.634-3.682-4.303-6.521-6.886-7.322-16.78-11.37-27.7-11.59zm41.48 31.2c-0.8349 0.002859-1.86 0.9601-2.309 2.152-0.4397 1.171-0.3737 1.985 0.4824 5.83 1.004 4.508 1.43 8.138 1.57 13.39 0.2359 8.86-0.7558 14.27-3.711 20.24-2.606 5.265-6.316 9.321-14.79 16.17-5.995 4.844-9.504 7.895-11.48 9.986-5.501 5.818-8.968 12.25-10.37 19.24-0.6153 3.071-0.5448 10.43 0.1309 13.63 1.248 5.913 3.49 10.58 7.158 14.9 2.387 2.812 6.098 5.548 8.93 6.584 1.643 0.601 2.278 0.5695 2.832-0.1465 0.9901-1.28 0.5341-2.37-2.07-4.963-4.991-4.968-7.13-10.36-7.691-19.4-0.4002-6.443 0.4286-10.6 3.031-15.18 2.828-4.982 6.611-8.916 13.86-14.42 4.844-3.675 7.244-5.763 10.24-8.904 7.673-8.043 11.92-16.76 13.25-27.22 0.5-3.904 0.5072-10.3 0.01563-13.23-1.603-9.551-6.029-18.65-9.074-18.66h-0.00196zm16.25 8.648c-1.149-0.031-1.76 0.4213-1.76 1.322 0 0.544 0.3406 1.052 1.623 2.428 0.8915 0.956 2.191 2.459 2.889 3.342l1.27 1.605 3.506 1.168c3.967 1.323 7.689 3.055 9.107 4.236 1.335 1.112 2.726 3.178 4.088 6.07 0.6387 1.356 1.701 3.27 2.361 4.256 0.8041 1.2 1.16 1.931 1.072 2.211-0.468 1.499-5.225 4.429-8.248 5.08-3.864 0.832-9.159 0.03073-13.68-2.072-0.9713-0.452-1.83-0.7567-1.908-0.6777-0.2273 0.231-0.724 3.11-0.7266 4.219-0.01155 3.578 3.939 6.22 10.44 6.982 2.401 0.281 2.993 0.2819 5.227 0.00391 5.463-0.681 10.36-3.128 13.99-6.99 2.364-2.515 3.139-4.164 3.139-6.691 0-1.696-0.0649-1.954-0.8398-3.393-0.4611-0.857-1.597-3.133-2.527-5.061-0.9299-1.928-2.116-4.174-2.635-4.99-2.219-3.493-5.229-5.972-9.838-8.102-5.535-2.559-11.08-4.254-16.02-4.904-0.1859-0.025-0.3592-0.03797-0.5234-0.04297zm28.35 45.9c-0.2311 0.02152-0.4912 0.1637-0.834 0.4121-3.066 2.219-7.583 3.325-14.48 3.547l-4.141 0.1309-0.6055 1.27c-1.696 3.538-4.626 7.099-6.701 8.15-1.257 0.636-3.091 0.8571-4.111 0.4961-0.3881-0.138-0.8363-0.174-0.9961-0.08203-0.4968 0.284-6.548 6.933-6.551 7.199-0.00558 0.376 3.323 1.85 5.285 2.34v0.00391c2.384 0.593 5.891 0.5997 8.145 0.01367 4.272-1.11 7.134-3.293 10.86-8.273l1.025-1.369 2.746-0.2617c6.143-0.589 11.76-2.822 12.96-5.152 0.9774-1.894 0.4447-4.683-1.424-7.443-0.4822-0.7128-0.7886-1.014-1.174-0.9805zm-43.75 29.64c-2.46 0.03-4.118 0.4378-3.824 1.215 0.07117 0.189 1.39 1.191 2.932 2.225 3.752 2.515 6.337 4.864 7.736 7.035 0.1954 0.304 1.493 1.095 3.061 1.869 3.191 1.578 5.695 3.424 7.904 5.828 1.753 1.908 4.081 5.328 5.061 7.43 0.3479 0.746 0.7105 1.483 0.8066 1.639 0.09612 0.155 0.2654 0.2812 0.373 0.2812 0.4182 0 6.229-6.095 6.229-6.533 0-0.779-1.521-3.879-3.057-6.234-1.812-2.776-5.533-6.607-8.518-8.77-3.123-2.262-6.899-4.107-10.07-4.918-2.912-0.745-6.173-1.095-8.633-1.066z" clip-path="url(#clipPath860)" style="display:none;fill:#000000;stroke-width:1.509;stroke:#000000"/>
 <path d="m40.01 3.72 0.00976 0.001953c-0.7279-0.015-1.46-0.01314-2.197 0.005859-2.719 0.072-5.491 0.3778-8.289 0.9258-14.02 2.746-24.02 12.61-27.07 26.69-0.6295 2.909-0.566 10.3 0.1172 13.52 1.265 5.978 3.618 10.92 6.523 13.71 1.387 1.331 2.165 1.784 3.609 2.113 0.8002 0.183 1.195 0.1641 1.789-0.08789 1.414-0.601 1.459-2.507 0.1328-5.646-0.6626-1.569-1.28-4.096-1.713-7.01-0.541-3.641-0.545-11.53-0.00585-14.24 1.168-5.888 3.328-10.21 6.922-13.84 5.195-5.253 10.81-6.058 14.89-2.137 1.433 1.378 2.43 3.198 3.064 5.588 0.6119 2.311 0.6646 7.309 0.1074 10.47-0.8124 4.612-3.396 10.98-6.697 16.51-1.503 2.517-3.979 6.205-8.559 12.76-8.315 11.9-12.31 19.95-14.55 29.3-5.256 21.95 0.2756 45.26 14.79 62.3 11.7 13.73 27.79 22.13 45.68 23.83h0.00195c1.102 0.104 3.655 0.2048 5.674 0.2188 15.6 0.127 29.98-4.941 42.27-14.9 2.931-2.374 8.896-8.298 8.896-8.832 0-0.41-6.525-6.766-6.947-6.766-0.1272 0-1.303 1.055-2.615 2.344-12.42 12.19-26.28 18.28-41.6 18.26-6.219-6e-3 -11.1-0.7159-16.63-2.422-22.36-6.889-38.49-26.91-41-50.9-0.4044-3.865-0.1687-13.28 0.416-16.58 0.9794-5.532 2.87-10.86 5.779-16.28 2.936-5.473 5.555-9.483 13.95-21.36 5.529-7.824 8.917-14.72 10.69-21.74 2.447-9.706 1.745-17.46-2.115-23.4-0.5984-0.92-1.012-1.755-0.918-1.854 0.2192-0.231 2.637 0.1579 5.469 0.8789 4.77 1.214 10.06 3.778 14.79 7.17 3.387 2.427 4.328 2.76 5.889 2.098 0.906-0.385 1.453-1.358 1.453-2.586 0-1.206-1.634-3.682-4.303-6.521-6.886-7.322-16.78-11.37-27.7-11.59zm41.48 31.2c-0.8349 0.002859-1.86 0.9601-2.309 2.152-0.4397 1.171-0.3737 1.985 0.4824 5.83 1.004 4.508 1.43 8.138 1.57 13.39 0.2359 8.86-0.7558 14.27-3.711 20.24-2.606 5.265-6.316 9.321-14.79 16.17-5.995 4.844-9.504 7.895-11.48 9.986-5.501 5.818-8.968 12.25-10.37 19.24-0.6153 3.071-0.5448 10.43 0.1309 13.63 1.248 5.913 3.49 10.58 7.158 14.9 2.387 2.812 6.098 5.548 8.93 6.584 1.643 0.601 2.278 0.5695 2.832-0.1465 0.9901-1.28 0.5341-2.37-2.07-4.963-4.991-4.968-7.13-10.36-7.691-19.4-0.4002-6.443 0.4286-10.6 3.031-15.18 2.828-4.982 6.611-8.916 13.86-14.42 4.844-3.675 7.244-5.763 10.24-8.904 7.673-8.043 11.92-16.76 13.25-27.22 0.5-3.904 0.5072-10.3 0.01563-13.23-1.603-9.551-6.029-18.65-9.074-18.66h-0.00196zm16.25 8.648c-1.149-0.031-1.76 0.4213-1.76 1.322 0 0.544 0.3406 1.052 1.623 2.428 0.8915 0.956 2.191 2.459 2.889 3.342l1.27 1.605 3.506 1.168c3.967 1.323 7.689 3.055 9.107 4.236 1.335 1.112 2.726 3.178 4.088 6.07 0.6387 1.356 1.701 3.27 2.361 4.256 0.8041 1.2 1.16 1.931 1.072 2.211-0.468 1.499-5.225 4.429-8.248 5.08-3.864 0.832-9.159 0.03073-13.68-2.072-0.9713-0.452-1.83-0.7567-1.908-0.6777-0.2273 0.231-0.724 3.11-0.7266 4.219-0.01155 3.578 3.939 6.22 10.44 6.982 2.401 0.281 2.993 0.2819 5.227 0.00391 5.463-0.681 10.36-3.128 13.99-6.99 2.364-2.515 3.139-4.164 3.139-6.691 0-1.696-0.0649-1.954-0.8398-3.393-0.4611-0.857-1.597-3.133-2.527-5.061-0.9299-1.928-2.116-4.174-2.635-4.99-2.219-3.493-5.229-5.972-9.838-8.102-5.535-2.559-11.08-4.254-16.02-4.904-0.1859-0.025-0.3592-0.03797-0.5234-0.04297zm28.35 45.9c-0.2311 0.02152-0.4912 0.1637-0.834 0.4121-3.066 2.219-7.583 3.325-14.48 3.547l-4.141 0.1309-0.6055 1.27c-1.696 3.538-4.626 7.099-6.701 8.15-1.257 0.636-3.091 0.8571-4.111 0.4961-0.3881-0.138-0.8363-0.174-0.9961-0.08203-0.4968 0.284-6.548 6.933-6.551 7.199-0.00558 0.376 3.323 1.85 5.285 2.34v0.00391c2.384 0.593 5.891 0.5997 8.145 0.01367 4.272-1.11 7.134-3.293 10.86-8.273l1.025-1.369 2.746-0.2617c6.143-0.589 11.76-2.822 12.96-5.152 0.9774-1.894 0.4447-4.683-1.424-7.443-0.4822-0.7128-0.7886-1.014-1.174-0.9805zm-43.75 29.64c-2.46 0.03-4.118 0.4378-3.824 1.215 0.07117 0.189 1.39 1.191 2.932 2.225 3.752 2.515 6.337 4.864 7.736 7.035 0.1954 0.304 1.493 1.095 3.061 1.869 3.191 1.578 5.695 3.424 7.904 5.828 1.753 1.908 4.081 5.328 5.061 7.43 0.3479 0.746 0.7105 1.483 0.8066 1.639 0.09612 0.155 0.2654 0.2812 0.373 0.2812 0.4182 0 6.229-6.095 6.229-6.533 0-0.779-1.521-3.879-3.057-6.234-1.812-2.776-5.533-6.607-8.518-8.77-3.123-2.262-6.899-4.107-10.07-4.918-2.912-0.745-6.173-1.095-8.633-1.066z" style="fill:#ffffff;stroke-width:.2243"/>
 <path d="m39.91 3.32 0.00976 0.001953c-0.7279-0.015-1.46-0.01314-2.197 0.005859-2.719 0.072-5.491 0.3778-8.289 0.9258-14.02 2.746-24.02 12.61-27.07 26.69-0.6295 2.909-0.566 10.3 0.1172 13.52 1.265 5.978 3.618 10.92 6.523 13.71 1.387 1.331 2.165 1.784 3.609 2.113 0.8002 0.183 1.195 0.1641 1.789-0.08789 1.414-0.601 1.459-2.507 0.1328-5.646-0.6626-1.569-1.28-4.096-1.713-7.01-0.541-3.641-0.545-11.53-0.00585-14.24 1.168-5.888 3.328-10.21 6.922-13.84 5.195-5.253 10.81-6.058 14.89-2.137 1.433 1.378 2.43 3.198 3.064 5.588 0.6119 2.311 0.6646 7.309 0.1074 10.47-0.8124 4.612-3.396 10.98-6.697 16.51-1.503 2.517-3.979 6.205-8.559 12.76-8.315 11.9-12.31 19.95-14.55 29.3-5.256 21.95 0.2756 45.26 14.79 62.3 11.7 13.73 27.79 22.13 45.68 23.83h0.00195c1.102 0.104 3.655 0.2048 5.674 0.2188 15.6 0.127 29.98-4.941 42.27-14.9 2.931-2.374 8.896-8.298 8.896-8.832 0-0.41-6.525-6.766-6.947-6.766-0.1272 0-1.303 1.055-2.615 2.344-12.42 12.19-26.28 18.28-41.6 18.26-6.219-6e-3 -11.1-0.7159-16.63-2.422-22.36-6.889-38.49-26.91-41-50.9-0.4044-3.865-0.1687-13.28 0.416-16.58 0.9794-5.532 2.87-10.86 5.779-16.28 2.936-5.473 5.555-9.483 13.95-21.36 5.529-7.824 8.917-14.72 10.69-21.74 2.447-9.706 1.745-17.46-2.115-23.4-0.5984-0.92-1.012-1.755-0.918-1.854 0.2192-0.231 2.637 0.1579 5.469 0.8789 4.77 1.214 10.06 3.778 14.79 7.17 3.387 2.427 4.328 2.76 5.889 2.098 0.906-0.385 1.453-1.358 1.453-2.586 0-1.206-1.634-3.682-4.303-6.521-6.886-7.322-16.78-11.37-27.7-11.59zm41.48 31.2c-0.8349 0.002859-1.86 0.9601-2.309 2.152-0.4397 1.171-0.3737 1.985 0.4824 5.83 1.004 4.508 1.43 8.138 1.57 13.39 0.2359 8.86-0.7558 14.27-3.711 20.24-2.606 5.265-6.316 9.321-14.79 16.17-5.995 4.844-9.504 7.895-11.48 9.986-5.501 5.818-8.968 12.25-10.37 19.24-0.6153 3.071-0.5448 10.43 0.1309 13.63 1.248 5.913 3.49 10.58 7.158 14.9 2.387 2.812 6.098 5.548 8.93 6.584 1.643 0.601 2.278 0.5695 2.832-0.1465 0.9901-1.28 0.5341-2.37-2.07-4.963-4.991-4.968-7.13-10.36-7.691-19.4-0.4002-6.443 0.4286-10.6 3.031-15.18 2.828-4.982 6.611-8.916 13.86-14.42 4.844-3.675 7.244-5.763 10.24-8.904 7.673-8.043 11.92-16.76 13.25-27.22 0.5-3.904 0.5072-10.3 0.01563-13.23-1.603-9.551-6.029-18.65-9.074-18.66h-0.00196zm16.25 8.648c-1.149-0.031-1.76 0.4213-1.76 1.322 0 0.544 0.3406 1.052 1.623 2.428 0.8915 0.956 2.191 2.459 2.889 3.342l1.27 1.605 3.506 1.168c3.967 1.323 7.689 3.055 9.107 4.236 1.335 1.112 2.726 3.178 4.088 6.07 0.6387 1.356 1.701 3.27 2.361 4.256 0.8041 1.2 1.16 1.931 1.072 2.211-0.468 1.499-5.225 4.429-8.248 5.08-3.864 0.832-9.159 0.03073-13.68-2.072-0.9713-0.452-1.83-0.7567-1.908-0.6777-0.2273 0.231-0.724 3.11-0.7266 4.219-0.01155 3.578 3.939 6.22 10.44 6.982 2.401 0.281 2.993 0.2819 5.227 0.00391 5.463-0.681 10.36-3.128 13.99-6.99 2.364-2.515 3.139-4.164 3.139-6.691 0-1.696-0.0649-1.954-0.8398-3.393-0.4611-0.857-1.597-3.133-2.527-5.061-0.9299-1.928-2.116-4.174-2.635-4.99-2.219-3.493-5.229-5.972-9.838-8.102-5.535-2.559-11.08-4.254-16.02-4.904-0.1859-0.025-0.3592-0.03797-0.5234-0.04297zm28.35 45.9c-0.2311 0.02152-0.4912 0.1637-0.834 0.4121-3.066 2.219-7.583 3.325-14.48 3.547l-4.141 0.1309-0.6055 1.27c-1.696 3.538-4.626 7.099-6.701 8.15-1.257 0.636-3.091 0.8571-4.111 0.4961-0.3881-0.138-0.8363-0.174-0.9961-0.08203-0.4968 0.284-6.548 6.933-6.551 7.199-0.00558 0.376 3.323 1.85 5.285 2.34v0.00391c2.384 0.593 5.891 0.5997 8.145 0.01367 4.272-1.11 7.134-3.293 10.86-8.273l1.025-1.369 2.746-0.2617c6.143-0.589 11.76-2.822 12.96-5.152 0.9774-1.894 0.4447-4.683-1.424-7.443-0.4822-0.7128-0.7886-1.014-1.174-0.9805zm-43.75 29.64c-2.46 0.03-4.118 0.4378-3.824 1.215 0.07117 0.189 1.39 1.191 2.932 2.225 3.752 2.515 6.337 4.864 7.736 7.035 0.1954 0.304 1.493 1.095 3.061 1.869 3.191 1.578 5.695 3.424 7.904 5.828 1.753 1.908 4.081 5.328 5.061 7.43 0.3479 0.746 0.7105 1.483 0.8066 1.639 0.09612 0.155 0.2654 0.2812 0.373 0.2812 0.4182 0 6.229-6.095 6.229-6.533 0-0.779-1.521-3.879-3.057-6.234-1.812-2.776-5.533-6.607-8.518-8.77-3.123-2.262-6.899-4.107-10.07-4.918-2.912-0.745-6.173-1.095-8.633-1.066z" style="fill:#ffffff;stroke-width:.2243"/>
 <path d="m39.51 2.42 0.00976 0.001953c-0.7279-0.015-1.46-0.01314-2.197 0.005859-2.719 0.072-5.491 0.3778-8.289 0.9258-14.02 2.746-24.02 12.61-27.07 26.69-0.6295 2.909-0.566 10.3 0.1172 13.52 1.265 5.978 3.618 10.92 6.523 13.71 1.387 1.331 2.165 1.784 3.609 2.113 0.8002 0.183 1.195 0.1641 1.789-0.08789 1.414-0.601 1.459-2.507 0.1328-5.646-0.6626-1.569-1.28-4.096-1.713-7.01-0.541-3.641-0.545-11.53-0.00585-14.24 1.168-5.888 3.328-10.21 6.922-13.84 5.195-5.253 10.81-6.058 14.89-2.137 1.433 1.378 2.43 3.198 3.064 5.588 0.6119 2.311 0.6646 7.309 0.1074 10.47-0.8124 4.612-3.396 10.98-6.697 16.51-1.503 2.517-3.979 6.205-8.559 12.76-8.315 11.9-12.31 19.95-14.55 29.3-5.256 21.95 0.2756 45.26 14.79 62.3 11.7 13.73 27.79 22.13 45.68 23.83h0.00195c1.102 0.104 3.655 0.2048 5.674 0.2188 15.6 0.127 29.98-4.941 42.27-14.9 2.931-2.374 8.896-8.298 8.896-8.832 0-0.41-6.525-6.766-6.947-6.766-0.1272 0-1.303 1.055-2.615 2.344-12.42 12.19-26.28 18.28-41.6 18.26-6.219-6e-3 -11.1-0.7159-16.63-2.422-22.36-6.889-38.49-26.91-41-50.9-0.4044-3.865-0.1687-13.28 0.416-16.58 0.9794-5.532 2.87-10.86 5.779-16.28 2.936-5.473 5.555-9.483 13.95-21.36 5.529-7.824 8.917-14.72 10.69-21.74 2.447-9.706 1.745-17.46-2.115-23.4-0.5984-0.92-1.012-1.755-0.918-1.854 0.2192-0.231 2.637 0.1579 5.469 0.8789 4.77 1.214 10.06 3.778 14.79 7.17 3.387 2.427 4.328 2.76 5.889 2.098 0.906-0.385 1.453-1.358 1.453-2.586 0-1.206-1.634-3.682-4.303-6.521-6.886-7.322-16.78-11.37-27.7-11.59zm41.48 31.2c-0.8349 0.002859-1.86 0.9601-2.309 2.152-0.4397 1.171-0.3737 1.985 0.4824 5.83 1.004 4.508 1.43 8.138 1.57 13.39 0.2359 8.86-0.7558 14.27-3.711 20.24-2.606 5.265-6.316 9.321-14.79 16.17-5.995 4.844-9.504 7.895-11.48 9.986-5.501 5.818-8.968 12.25-10.37 19.24-0.6153 3.071-0.5448 10.43 0.1309 13.63 1.248 5.913 3.49 10.58 7.158 14.9 2.387 2.812 6.098 5.548 8.93 6.584 1.643 0.601 2.278 0.5695 2.832-0.1465 0.9901-1.28 0.5341-2.37-2.07-4.963-4.991-4.968-7.13-10.36-7.691-19.4-0.4002-6.443 0.4286-10.6 3.031-15.18 2.828-4.982 6.611-8.916 13.86-14.42 4.844-3.675 7.244-5.763 10.24-8.904 7.673-8.043 11.92-16.76 13.25-27.22 0.5-3.904 0.5072-10.3 0.01563-13.23-1.603-9.551-6.029-18.65-9.074-18.66h-0.00196zm16.25 8.648c-1.149-0.031-1.76 0.4213-1.76 1.322 0 0.544 0.3406 1.052 1.623 2.428 0.8915 0.956 2.191 2.459 2.889 3.342l1.27 1.605 3.506 1.168c3.967 1.323 7.689 3.055 9.107 4.236 1.335 1.112 2.726 3.178 4.088 6.07 0.6387 1.356 1.701 3.27 2.361 4.256 0.8041 1.2 1.16 1.931 1.072 2.211-0.468 1.499-5.225 4.429-8.248 5.08-3.864 0.832-9.159 0.03073-13.68-2.072-0.9713-0.452-1.83-0.7567-1.908-0.6777-0.2273 0.231-0.724 3.11-0.7266 4.219-0.01155 3.578 3.939 6.22 10.44 6.982 2.401 0.281 2.993 0.2819 5.227 0.00391 5.463-0.681 10.36-3.128 13.99-6.99 2.364-2.515 3.139-4.164 3.139-6.691 0-1.696-0.0649-1.954-0.8398-3.393-0.4611-0.857-1.597-3.133-2.527-5.061-0.9299-1.928-2.116-4.174-2.635-4.99-2.219-3.493-5.229-5.972-9.838-8.102-5.535-2.559-11.08-4.254-16.02-4.904-0.1859-0.025-0.3592-0.03797-0.5234-0.04297zm28.35 45.9c-0.2311 0.02152-0.4912 0.1637-0.834 0.4121-3.066 2.219-7.583 3.325-14.48 3.547l-4.141 0.1309-0.6055 1.27c-1.696 3.538-4.626 7.099-6.701 8.15-1.257 0.636-3.091 0.8571-4.111 0.4961-0.3881-0.138-0.8363-0.174-0.9961-0.08203-0.4968 0.284-6.548 6.933-6.551 7.199-0.00558 0.376 3.323 1.85 5.285 2.34v0.00391c2.384 0.593 5.891 0.5997 8.145 0.01367 4.272-1.11 7.134-3.293 10.86-8.273l1.025-1.369 2.746-0.2617c6.143-0.589 11.76-2.822 12.96-5.152 0.9774-1.894 0.4447-4.683-1.424-7.443-0.4822-0.7128-0.7886-1.014-1.174-0.9805zm-43.75 29.64c-2.46 0.03-4.118 0.4378-3.824 1.215 0.07117 0.189 1.39 1.191 2.932 2.225 3.752 2.515 6.337 4.864 7.736 7.035 0.1954 0.304 1.493 1.095 3.061 1.869 3.191 1.578 5.695 3.424 7.904 5.828 1.753 1.908 4.081 5.328 5.061 7.43 0.3479 0.746 0.7105 1.483 0.8066 1.639 0.09612 0.155 0.2654 0.2812 0.373 0.2812 0.4182 0 6.229-6.095 6.229-6.533 0-0.779-1.521-3.879-3.057-6.234-1.812-2.776-5.533-6.607-8.518-8.77-3.123-2.262-6.899-4.107-10.07-4.918-2.912-0.745-6.173-1.095-8.633-1.066z" style="fill:#ffffff;stroke-width:.2243"/>
 <path d="m125.4 155c-0.1428-0.8726-0.2923-1.779-0.5002-2.3l-2.446 1.358z" style="fill:#ffffff"/>
 <path d="m78.52 120.3c-0.5531-1.054-0.6361-1.758-0.5002-2.3l0.7817-0.756 2.455 2.383z" style="fill:#ffffff"/>
 <path d="m87.67 110.6c-0.4623-0.764-0.6412-1.419-0.5002-2.3l2.365-0.06941z" style="fill:#ffffff"/>
 <path d="m112.6 140.1c-0.03317-0.6777-0.09247-1.373-0.5002-2.3l-2.836 0.349z" style="fill:#ffffff"/>
 <path d="m96.12 45.43c-0.7094-0.5632-0.5865-2.028-0.6351-2.839l3.519 1.097z" style="fill:#ffffff"/>
 <path d="m72.02 21.83c-8.14e-4 -0.6838 0.02433-1.692-0.5002-2.637l-2.585 0.6934z" style="fill:#ffffff"/>
 <path d="m59.91 153.2c0.4472 0.9518 0.5916 1.702 0.4997 2.294l-2.45-0.9983z" style="fill:#ffffff"/>
 <path d="m39.51 1.42 0.00976 0.001953c-0.7279-0.015-1.46-0.01314-2.197 0.005859-2.719 0.072-5.491 0.3778-8.289 0.9258-14.02 2.746-24.02 12.61-27.07 26.69-0.6295 2.909-0.566 10.3 0.1172 13.52 1.265 5.978 3.618 10.92 6.523 13.71 1.387 1.331 2.165 1.784 3.609 2.113 0.8002 0.183 1.195 0.1641 1.789-0.08789 1.414-0.601 1.459-2.507 0.1328-5.646-0.6626-1.569-1.28-4.096-1.713-7.01-0.541-3.641-0.545-11.53-0.00585-14.24 1.168-5.888 3.328-10.21 6.922-13.84 5.195-5.253 10.81-6.058 14.89-2.137 1.433 1.378 2.43 3.198 3.064 5.588 0.6119 2.311 0.6646 7.309 0.1074 10.47-0.8124 4.612-3.396 10.98-6.697 16.51-1.503 2.517-3.979 6.205-8.559 12.76-8.315 11.9-12.31 19.95-14.55 29.3-5.256 21.95 0.2756 45.26 14.79 62.3 11.7 13.73 27.79 22.13 45.68 23.83h0.00195c1.102 0.104 3.655 0.2048 5.674 0.2188 15.6 0.127 29.98-4.941 42.27-14.9 2.931-2.374 8.896-8.298 8.896-8.832 0-0.41-6.525-6.766-6.947-6.766-0.1272 0-1.303 1.055-2.615 2.344-12.42 12.19-26.28 18.28-41.6 18.26-6.219-6e-3 -11.1-0.7159-16.63-2.422-22.36-6.889-38.49-26.91-41-50.9-0.4044-3.865-0.1687-13.28 0.416-16.58 0.9794-5.532 2.87-10.86 5.779-16.28 2.936-5.473 5.555-9.483 13.95-21.36 5.529-7.824 8.917-14.72 10.69-21.74 2.447-9.706 1.745-17.46-2.115-23.4-0.5984-0.92-1.012-1.755-0.918-1.854 0.2192-0.231 2.637 0.1579 5.469 0.8789 4.77 1.214 10.06 3.778 14.79 7.17 3.387 2.427 4.328 2.76 5.889 2.098 0.906-0.385 1.453-1.358 1.453-2.586 0-1.206-1.634-3.682-4.303-6.521-6.886-7.322-16.78-11.37-27.7-11.59zm41.48 31.2c-0.8349 0.002859-1.86 0.9601-2.309 2.152-0.4397 1.171-0.3737 1.985 0.4824 5.83 1.004 4.508 1.43 8.138 1.57 13.39 0.2359 8.86-0.7558 14.27-3.711 20.24-2.606 5.265-6.316 9.321-14.79 16.17-5.995 4.844-9.504 7.895-11.48 9.986-5.501 5.818-8.968 12.25-10.37 19.24-0.6153 3.071-0.5448 10.43 0.1309 13.63 1.248 5.913 3.49 10.58 7.158 14.9 2.387 2.812 6.098 5.548 8.93 6.584 1.643 0.601 2.278 0.5695 2.832-0.1465 0.9901-1.28 0.5341-2.37-2.07-4.963-4.991-4.968-7.13-10.36-7.691-19.4-0.4002-6.443 0.4286-10.6 3.031-15.18 2.828-4.982 6.611-8.916 13.86-14.42 4.844-3.675 7.244-5.763 10.24-8.904 7.673-8.043 11.92-16.76 13.25-27.22 0.5-3.904 0.5072-10.3 0.01563-13.23-1.603-9.551-6.029-18.65-9.074-18.66h-0.00196zm16.25 8.648c-1.149-0.031-1.76 0.4213-1.76 1.322 0 0.544 0.3406 1.052 1.623 2.428 0.8915 0.956 2.191 2.459 2.889 3.342l1.27 1.605 3.506 1.168c3.967 1.323 7.689 3.055 9.107 4.236 1.335 1.112 2.726 3.178 4.088 6.07 0.6387 1.356 1.701 3.27 2.361 4.256 0.8041 1.2 1.16 1.931 1.072 2.211-0.468 1.499-5.225 4.429-8.248 5.08-3.864 0.832-9.159 0.03073-13.68-2.072-0.9713-0.452-1.83-0.7567-1.908-0.6777-0.2273 0.231-0.724 3.11-0.7266 4.219-0.01155 3.578 3.939 6.22 10.44 6.982 2.401 0.281 2.993 0.2819 5.227 0.00391 5.463-0.681 10.36-3.128 13.99-6.99 2.364-2.515 3.139-4.164 3.139-6.691 0-1.696-0.0649-1.954-0.8398-3.393-0.4611-0.857-1.597-3.133-2.527-5.061-0.9299-1.928-2.116-4.174-2.635-4.99-2.219-3.493-5.229-5.972-9.838-8.102-5.535-2.559-11.08-4.254-16.02-4.904-0.1859-0.025-0.3592-0.03797-0.5234-0.04297zm28.35 45.9c-0.2311 0.02152-0.4912 0.1637-0.834 0.4121-3.066 2.219-7.583 3.325-14.48 3.547l-4.141 0.1309-0.6055 1.27c-1.696 3.538-4.626 7.099-6.701 8.15-1.257 0.636-3.091 0.8571-4.111 0.4961-0.3881-0.138-0.8363-0.174-0.9961-0.08203-0.4968 0.284-6.548 6.933-6.551 7.199-0.00558 0.376 3.323 1.85 5.285 2.34v0.00391c2.384 0.593 5.891 0.5997 8.145 0.01367 4.272-1.11 7.134-3.293 10.86-8.273l1.025-1.369 2.746-0.2617c6.143-0.589 11.76-2.822 12.96-5.152 0.9774-1.894 0.4447-4.683-1.424-7.443-0.4822-0.7128-0.7886-1.014-1.174-0.9805zm-43.75 29.64c-2.46 0.03-4.118 0.4378-3.824 1.215 0.07117 0.189 1.39 1.191 2.932 2.225 3.752 2.515 6.337 4.864 7.736 7.035 0.1954 0.304 1.493 1.095 3.061 1.869 3.191 1.578 5.695 3.424 7.904 5.828 1.753 1.908 4.081 5.328 5.061 7.43 0.3479 0.746 0.7105 1.483 0.8066 1.639 0.09612 0.155 0.2654 0.2812 0.373 0.2812 0.4182 0 6.229-6.095 6.229-6.533 0-0.779-1.521-3.879-3.057-6.234-1.812-2.776-5.533-6.607-8.518-8.77-3.123-2.262-6.899-4.107-10.07-4.918-2.912-0.745-6.173-1.095-8.633-1.066z" style="fill:#00b7a4;stroke-width:.2243"/>
</svg>
