<svg width="579.3" height="76.36" version="1.1" viewBox="0 0 153.3 20.2" xmlns="http://www.w3.org/2000/svg">
 <defs>
  <filter id="filter1615" x="-.006675" y="-.0593" width="1.013" height="1.119" style="color-interpolation-filters:sRGB">
   <feGaussianBlur stdDeviation="0.41704227"/>
  </filter>
 </defs>
 <g transform="translate(424.5 -231.8)">
  <path d="m-338 234.1c-0.5192 0-0.9991 0.08774-1.441 0.2631-0.4383 0.1753-0.8064 0.4277-1.103 0.7581-0.3102 0.3472-0.5452 0.7655-0.707 1.254-0.1618 0.4855-0.243 1.035-0.243 1.648 0 0.6234 0.08127 1.178 0.243 1.664 0.1652 0.4855 0.3992 0.8962 0.7024 1.23 0.3034 0.3338 0.6706 0.587 1.102 0.7626 0.4349 0.1753 0.9172 0.263 1.446 0.263 0.5428 0 1.025-0.08557 1.446-0.2575 0.4248-0.1719 0.7922-0.4276 1.102-0.7683 0.3001-0.327 0.533-0.7354 0.6984-1.224 0.1686-0.4922 0.2531-1.049 0.2531-1.67 0-0.6206-0.08235-1.174-0.2475-1.663-0.1619-0.4888-0.3969-0.9024-0.7036-1.24-0.3-0.327-0.6649-0.5785-1.097-0.7535-0.4282-0.1787-0.9127-0.2675-1.452-0.2675zm8.149 0c-0.5192 0-0.999 0.08774-1.441 0.2631-0.4383 0.1753-0.8053 0.4277-1.102 0.7581-0.3102 0.3472-0.5463 0.7655-0.7081 1.254-0.1619 0.4855-0.2431 1.035-0.2431 1.648 0 0.6234 0.08126 1.178 0.2431 1.664 0.1652 0.4855 0.3992 0.8962 0.7024 1.23 0.3034 0.3338 0.6706 0.587 1.102 0.7626 0.4349 0.1753 0.9172 0.263 1.446 0.263 0.5428 0 1.026-0.08557 1.447-0.2575 0.4248-0.1719 0.7922-0.4276 1.102-0.7683 0.3-0.327 0.5319-0.7354 0.6973-1.224 0.1686-0.4922 0.2531-1.049 0.2531-1.67 0-0.6206-0.08235-1.174-0.2476-1.663-0.1619-0.4888-0.3958-0.9024-0.7024-1.24-0.3-0.327-0.666-0.5785-1.098-0.7535-0.4282-0.1787-0.9127-0.2675-1.452-0.2675zm-73.71 0.01997c-0.8195 0-1.495 0.2026-2.028 0.607-0.5326 0.4012-0.799 0.9166-0.799 1.547 0 0.5495 0.1603 0.9956 0.4806 1.339 0.3236 0.3405 0.82 0.582 1.487 0.7234 0.3304 0.0674 0.641 0.1226 0.9348 0.1665 0.2966 0.04382 0.5717 0.1002 0.8246 0.1676 0.3338 0.08761 0.5819 0.21 0.7439 0.3685 0.1652 0.1584 0.2475 0.4043 0.2475 0.7382 0 0.3877-0.1733 0.6984-0.5206 0.9314-0.3439 0.2326-0.8257 0.3485-1.446 0.3485-0.4382 0-0.9076-0.0856-1.407-0.2575-0.499-0.1719-0.9388-0.4168-1.32-0.7336h-0.07105v1.254c0.4484 0.1989 0.8883 0.3484 1.32 0.4495 0.4349 0.1011 0.9246 0.1521 1.467 0.1521 0.5057 0 0.9371-0.06064 1.294-0.182 0.3608-0.1214 0.6757-0.2892 0.9456-0.505 0.2462-0.1989 0.4368-0.4427 0.5717-0.7291 0.1382-0.2865 0.2076-0.5757 0.2076-0.8689 0-0.5394-0.1419-0.9598-0.4251-1.26-0.2832-0.3001-0.7047-0.5243-1.264-0.6729-0.2764-0.07079-0.6132-0.139-1.011-0.2064-0.3978-0.0674-0.7041-0.1249-0.9201-0.172-0.4079-0.0944-0.6928-0.2309-0.8547-0.4096-0.1619-0.1787-0.2431-0.4246-0.2431-0.7382 0-0.3506 0.1614-0.6376 0.485-0.8604 0.327-0.2225 0.7592-0.3341 1.295-0.3341 0.4889 0 0.9655 0.08128 1.431 0.2431 0.4686 0.1584 0.8468 0.3589 1.133 0.6018h0.06991v-1.183c-0.3405-0.1483-0.7314-0.2729-1.173-0.374-0.4416-0.1012-0.9269-0.1521-1.456-0.1521zm-19.87 0.1365 1.992 7.53h1.102l1.547-6.251 1.583 6.251h1.127l1.958-7.53h-0.9814l-1.573 6.319-1.573-6.319h-1.017l-1.557 6.263-1.583-6.263zm10.78 0v7.53h4.961v-0.89h-3.959v-2.796h3.959v-0.89h-3.959v-2.063h3.959v-0.89zm12.62 0v0.8899h2.69v6.638h1.001v-6.638h2.69v-0.8899zm10.17 0 2.74 7.53h1.336l2.74-7.53h-1.021l-2.362 6.626-2.361-6.626zm9.519 0-2.74 7.53h1.017l0.7382-2.099h3.256l0.7382 2.099h1.067l-2.74-7.53zm5.219 0v7.53h4.764v-0.89h-3.763v-6.638zm5.762 0v7.53h4.764v-0.89h-3.763v-6.638zm5.762 0v7.53h4.961v-0.89h-3.959v-2.796h3.959v-0.89h-3.959v-2.063h3.959v-0.89zm5.573 0 2.66 4.334v3.196h1.001v-3.302l2.649-4.228h-1.067l-2.078 3.369-2.059-3.369zm10.99 0v7.53h1.001v-3.626h3.272v-0.8888h-3.272v-2.124h3.808v-0.89zm22.25 0v7.53h1.901c0.6911 0 1.247-0.04656 1.669-0.1409 0.4248-0.0944 0.8092-0.2482 1.153-0.4606 0.4955-0.3068 0.8922-0.7382 1.189-1.294 0.3001-0.5563 0.4495-1.177 0.4495-1.861 0-0.7314-0.143-1.363-0.4296-1.896-0.2865-0.5327-0.6865-0.9593-1.199-1.28-0.3001-0.1854-0.6672-0.3306-1.102-0.4351-0.4315-0.1079-1.014-0.1621-1.749-0.1621zm11.63 0v7.53h1.001v-2.806h1.001c0.5394 0 0.986-0.065 1.339-0.1931 0.354-0.1315 0.6604-0.3265 0.9201-0.5859 0.209-0.209 0.3716-0.4549 0.4862-0.7382 0.118-0.2865 0.1765-0.5973 0.1765-0.9314 0-0.4383-0.07911-0.8002-0.2375-1.087-0.1551-0.2865-0.3761-0.526-0.6626-0.7183-0.2427-0.1618-0.52-0.2799-0.8337-0.354-0.3135-0.07751-0.6973-0.1166-1.149-0.1166zm7.871 0-2.741 7.53h1.017l0.7382-2.099h3.257l0.7382 2.099h1.067l-2.74-7.53zm5.219 0v7.53h0.9354v-6.734l3.569 6.734h1.239v-7.53h-0.9354v6.149l-3.256-6.149zm6.734 0v0.8899h2.69v6.638h1.001v-6.638h2.69v-0.8899zm7.405 0v7.53h1.001v-2.994h1.412l2.518 2.994h1.3l-2.831-3.292c0.4787-0.1854 0.8547-0.4595 1.127-0.8235 0.2731-0.3675 0.4096-0.8234 0.4096-1.366 0-0.4012-0.07801-0.7314-0.2331-0.9911-0.1517-0.263-0.364-0.4796-0.6371-0.6513-0.2427-0.1517-0.5157-0.2568-0.8189-0.3141-0.3034-0.06067-0.6825-0.09102-1.138-0.09102zm6.121 0 2.661 4.334v3.196h1.001v-3.302l2.649-4.228h-1.067l-2.079 3.369-2.058-3.369zm-58.19 0.7081c0.7587 0 1.357 0.2665 1.795 0.799 0.4382 0.5293 0.6569 1.282 0.6569 2.26 0 0.9877-0.2221 1.745-0.6672 2.271-0.4416 0.5225-1.037 0.7837-1.785 0.7837-0.7484 0-1.345-0.2611-1.79-0.7837-0.445-0.5259-0.6672-1.283-0.6672-2.271 0-0.9775 0.2166-1.73 0.6513-2.26 0.4383-0.5326 1.041-0.799 1.806-0.799zm8.149 0c0.7587 0 1.357 0.2665 1.795 0.799 0.4383 0.5293 0.6581 1.282 0.6581 2.26 0 0.9877-0.2232 1.745-0.6683 2.271-0.4416 0.5225-1.037 0.7837-1.785 0.7837-0.7484 0-1.345-0.2611-1.79-0.7837-0.445-0.5259-0.6672-1.283-0.6672-2.271 0-0.9775 0.2178-1.73 0.6524-2.26 0.4382-0.5326 1.039-0.799 1.805-0.799zm6.086 0.1521h0.94c0.4652 0 0.8649 0.03357 1.199 0.101 0.3338 0.06405 0.649 0.18 0.9456 0.3485 0.4079 0.2326 0.7143 0.5511 0.9201 0.9559 0.2057 0.4046 0.3086 0.9019 0.3086 1.492 0 0.5865-0.09423 1.076-0.283 1.467-0.1854 0.391-0.4649 0.7064-0.8393 0.9456-0.3001 0.1921-0.6303 0.3232-0.9911 0.394-0.3573 0.07081-0.7774 0.1066-1.26 0.1066h-0.94zm11.63 0h0.9911c0.3169 0 0.578 0.02384 0.7837 0.07103 0.209 0.04384 0.3943 0.1175 0.5561 0.222 0.1854 0.1214 0.3241 0.2785 0.4152 0.4706 0.09104 0.1922 0.1365 0.4175 0.1365 0.6768 0 0.2225-0.03357 0.4229-0.101 0.6018-0.06405 0.1787-0.1756 0.3498-0.3341 0.5117-0.1584 0.1584-0.3643 0.2744-0.6172 0.3485-0.2528 0.07082-0.5808 0.1066-0.9854 0.1066h-0.8445zm27.23 0h1.179c0.2697 0 0.5037 0.01948 0.7024 0.05995 0.1989 0.03709 0.3712 0.1054 0.5161 0.2031 0.1753 0.1146 0.2999 0.2554 0.3741 0.424 0.07751 0.1652 0.1165 0.3559 0.1165 0.5717 0 0.2832-0.03681 0.5172-0.111 0.7024-0.07082 0.182-0.1824 0.3445-0.3341 0.4862-0.1652 0.1517-0.3656 0.2557-0.6018 0.313-0.236 0.05395-0.5123 0.08104-0.8291 0.08104h-1.012zm-94.79 0.01444 1.32 3.697h-2.645zm75.07 0 1.321 3.697h-2.645zm-39.63 10.69c-0.3232 0-0.5717 0.0925-0.7428 0.2775-0.1711 0.1832-0.2564 0.4463-0.2564 0.7905v0.09655h-0.3285v0.4096h0.3285v2.486h0.4873v-2.486h0.8638v-0.4096h-0.8792v-0.09876c0-0.242 0.04655-0.409 0.1399-0.5006 0.09507-0.09333 0.2482-0.1399 0.4573-0.1399 0.06568 0 0.1411 0.00824 0.2275 0.02553 0.08643 0.01556 0.1562 0.03106 0.2098 0.04661h0.02664v-0.4462c-0.07262-0.01381-0.1538-0.02513-0.242-0.0355-0.08645-0.01038-0.1831-0.01555-0.2919-0.01555zm-62.97 0.02553v1.255c-0.1296-0.0674-0.2532-0.1165-0.3707-0.1476-0.1175-0.03284-0.253-0.04994-0.4051-0.04994-0.1676 0-0.3299 0.03518-0.4872 0.1043-0.1556 0.06916-0.292 0.1694-0.4096 0.3008-0.1193 0.1348-0.2144 0.2976-0.2853 0.4895-0.06916 0.1919-0.1032 0.4106-0.1032 0.6558 0 0.4719 0.1008 0.8405 0.303 1.106 0.204 0.2662 0.479 0.3996 0.8246 0.3996 0.1781 0 0.3429-0.03359 0.495-0.101 0.1521-0.0674 0.2984-0.1609 0.4384-0.2819v0.303h0.4872v-4.035zm22.68 0v1.255c-0.1296-0.0674-0.2532-0.1165-0.3707-0.1476-0.1175-0.03284-0.2519-0.04994-0.404-0.04994-0.1676 0-0.3299 0.03518-0.4872 0.1043-0.1556 0.06916-0.292 0.1694-0.4096 0.3008-0.1193 0.1348-0.2144 0.2976-0.2853 0.4895-0.06916 0.1919-0.1043 0.4106-0.1043 0.6558 0 0.4719 0.1019 0.8405 0.3041 1.106 0.204 0.2662 0.479 0.3996 0.8246 0.3996 0.178 0 0.3429-0.03359 0.495-0.101 0.1521-0.0674 0.2973-0.1609 0.4373-0.2819v0.303h0.4884v-4.035zm11.73 0v1.255c-0.1296-0.0674-0.2532-0.1165-0.3707-0.1476-0.1175-0.03284-0.2519-0.04994-0.404-0.04994-0.1676 0-0.3299 0.03518-0.4872 0.1043-0.1556 0.06916-0.292 0.1694-0.4096 0.3008-0.1193 0.1348-0.2144 0.2976-0.2853 0.4895-0.06916 0.1919-0.1043 0.4106-0.1043 0.6558 0 0.4719 0.1008 0.8405 0.303 1.106 0.204 0.2662 0.479 0.3996 0.8246 0.3996 0.1781 0 0.3429-0.03359 0.495-0.101 0.1521-0.0674 0.2984-0.1609 0.4384-0.2819v0.303h0.4872v-4.035zm60.35 0v4.035h0.4884v-2.162c0.1331-0.102 0.2721-0.1863 0.4174-0.252 0.1452-0.06568 0.2842-0.09876 0.4174-0.09876 0.1296 0 0.2351 0.01809 0.3163 0.05439 0.08127 0.03456 0.1433 0.08836 0.1865 0.1609 0.04149 0.06568 0.06991 0.1577 0.08548 0.2753 0.01557 0.1158 0.02328 0.2398 0.02328 0.3729v1.649h0.4873v-1.88c0-0.3543-0.08218-0.6251-0.2464-0.8138-0.1642-0.1887-0.402-0.283-0.7149-0.283-0.1711 0-0.3381 0.0357-0.5006 0.1066-0.1625 0.07086-0.3196 0.1691-0.4717 0.2952v-1.459zm3.361 0v4.035h0.4562l0.03108-0.1354c0.1193 0.06569 0.2402 0.1185 0.363 0.1565 0.1228 0.03976 0.2665 0.05883 0.4306 0.05883 0.1763 0 0.3381-0.03359 0.485-0.101 0.1469-0.06917 0.2813-0.172 0.404-0.3086 0.1158-0.1314 0.2079-0.2937 0.2753-0.4872 0.06916-0.1936 0.1032-0.4118 0.1032-0.6535 0-0.4788-0.09979-0.8496-0.2986-1.112-0.197-0.2627-0.4658-0.394-0.8081-0.394-0.1918 0-0.3656 0.03617-0.5195 0.1088-0.1538 0.07086-0.2985 0.1629-0.4351 0.2753v-1.442zm32.29 0v1.255c-0.1296-0.0674-0.2532-0.1165-0.3707-0.1476-0.1175-0.03284-0.2519-0.04994-0.404-0.04994-0.1676 0-0.33 0.03518-0.4873 0.1043-0.1555 0.06916-0.292 0.1694-0.4096 0.3008-0.1193 0.1348-0.2144 0.2976-0.2853 0.4895-0.06916 0.1919-0.1044 0.4106-0.1044 0.6558 0 0.4719 0.1019 0.8405 0.3041 1.106 0.204 0.2662 0.4779 0.3996 0.8235 0.3996 0.178 0 0.344-0.03359 0.4961-0.101 0.1521-0.0674 0.2973-0.1609 0.4373-0.2819v0.303h0.4884v-4.035zm-57.62 0.09324c-0.2662 0-0.5117 0.04554-0.7382 0.1354-0.2247 0.08991-0.4139 0.2191-0.5661 0.3885-0.159 0.1781-0.28 0.392-0.363 0.6428-0.08297 0.2489-0.1243 0.5312-0.1243 0.8456 0 0.3198 0.04139 0.6035 0.1243 0.8524 0.08467 0.2489 0.2051 0.4594 0.3608 0.6302 0.1556 0.1709 0.3437 0.3019 0.5649 0.3918 0.223 0.08989 0.4701 0.1343 0.7416 0.1343 0.2783 0 0.5254-0.04395 0.7416-0.1321 0.2178-0.08814 0.4071-0.2195 0.5661-0.394 0.1538-0.1677 0.2727-0.3765 0.3574-0.6274 0.08643-0.2524 0.1299-0.5377 0.1299-0.8559 0-0.3181-0.04298-0.603-0.1276-0.8536-0.08297-0.2506-0.2023-0.462-0.3596-0.6348-0.1538-0.1676-0.3415-0.2964-0.5627-0.3863-0.2195-0.09161-0.4682-0.1376-0.745-0.1376zm-33.74 0.01111c-0.42 0-0.7661 0.1034-1.039 0.3108-0.2731 0.2056-0.4107 0.4704-0.4107 0.7933 0 0.2818 0.08218 0.5107 0.2464 0.6871 0.1659 0.1746 0.4203 0.2981 0.7626 0.3707 0.1694 0.03456 0.3291 0.06302 0.4795 0.08546 0.1521 0.02247 0.2932 0.05091 0.4228 0.08549 0.1711 0.04493 0.2977 0.1075 0.3807 0.1887 0.08467 0.08125 0.1276 0.2074 0.1276 0.3785 0 0.1988-0.08944 0.358-0.2675 0.4773-0.1763 0.1193-0.4234 0.1787-0.7416 0.1787-0.2247 0-0.4645-0.04392-0.7206-0.1321-0.2558-0.08815-0.4818-0.2127-0.6768-0.3752h-0.03662v0.6428c0.2299 0.102 0.4558 0.179 0.6768 0.2308 0.223 0.05185 0.4742 0.07769 0.7524 0.07769 0.2592 0 0.4806-0.03102 0.6638-0.09326 0.1849-0.06223 0.3456-0.1491 0.484-0.2597 0.1262-0.102 0.2239-0.226 0.293-0.3729 0.07086-0.1469 0.1066-0.2958 0.1066-0.4462 0-0.2766-0.07234-0.4921-0.2175-0.6461-0.1452-0.1538-0.3613-0.268-0.6484-0.3441-0.1417-0.0363-0.3144-0.072-0.5184-0.1066-0.204-0.03458-0.3611-0.06349-0.4717-0.0877-0.2091-0.04839-0.3555-0.1193-0.4384-0.2109-0.08297-0.0916-0.1243-0.2177-0.1243-0.3785 0-0.1797 0.08269-0.3265 0.2486-0.4406 0.1676-0.1141 0.3889-0.171 0.6638-0.171 0.2506 0 0.4952 0.04134 0.7337 0.1243 0.2403 0.08127 0.4336 0.1841 0.5802 0.3086h0.03663v-0.6069c-0.1746-0.07604-0.3751-0.1391-0.6018-0.1909-0.2264-0.05185-0.4756-0.07768-0.7468-0.07768zm-42.41 0.04328v0.5061h0.5494v-0.5061zm4.771 0v0.5061h0.5494v-0.5061zm48.49 0v0.5061h0.5494v-0.5061zm40.08 0v0.5061h0.5494v-0.5061zm21.57 0v0.5061h0.5494v-0.5061zm-126.6 0.02665v3.86h0.5139v-1.439h0.5128c0.2766 0 0.5056-0.03198 0.6871-0.09769 0.1815-0.0674 0.3386-0.1677 0.4717-0.3008 0.1072-0.1072 0.1898-0.2333 0.2486-0.3785 0.06052-0.1469 0.09104-0.3061 0.09104-0.4772 0-0.2247-0.04085-0.4102-0.1221-0.5572-0.07949-0.1469-0.1927-0.27-0.3397-0.3685-0.1244-0.08298-0.2666-0.144-0.4273-0.182-0.1608-0.03975-0.3567-0.05881-0.5882-0.05881zm26.57 0v3.86h0.5128v-1.859h1.677v-0.4562h-1.677v-1.089h1.953v-0.4562zm71.43 0v3.86h0.4795v-3.454l1.83 3.454h0.6348v-3.86h-0.4795v3.152l-1.67-3.152zm35.4 0v3.86h0.4795v-3.454l1.83 3.454h0.6359v-3.86h-0.4806v3.152l-1.67-3.152zm-45.5 0.363c0.3889 0 0.6956 0.1364 0.9201 0.4096 0.2247 0.2714 0.3374 0.6575 0.3374 1.159 0 0.5064-0.1148 0.8945-0.343 1.164-0.2264 0.2679-0.5308 0.4018-0.9144 0.4018-0.3835 0-0.6899-0.1339-0.9178-0.4018-0.2282-0.2697-0.343-0.6581-0.343-1.164 0-0.5013 0.1122-0.8877 0.3352-1.159 0.2247-0.2731 0.5333-0.4096 0.9257-0.4096zm-87.4 0.07769h0.5072c0.1625 0 0.2964 0.01132 0.4018 0.03551 0.1072 0.02246 0.2023 0.06076 0.2853 0.1144 0.09507 0.06222 0.1664 0.1423 0.2131 0.2408 0.04668 0.09854 0.06992 0.2143 0.06992 0.3474 0 0.114-0.01762 0.217-0.05218 0.3086-0.03284 0.09161-0.08967 0.1789-0.171 0.2619-0.08125 0.08127-0.1867 0.1418-0.3163 0.1798-0.1296 0.03629-0.2976 0.05438-0.505 0.05438h-0.4329zm6.058 0.4429c-0.4097 0-0.7348 0.1381-0.9769 0.4129-0.2403 0.2731-0.3608 0.6444-0.3608 1.117 0 0.4719 0.1205 0.8445 0.3608 1.118 0.242 0.2731 0.5671 0.4096 0.9769 0.4096 0.4062 0 0.7302-0.1364 0.9723-0.4096 0.242-0.2731 0.363-0.6456 0.363-1.118 0-0.4719-0.121-0.8433-0.363-1.117-0.242-0.2748-0.5661-0.4129-0.9723-0.4129zm12.89 0c-0.1711 0-0.3381 0.03568-0.5006 0.1066-0.1625 0.07086-0.3196 0.1691-0.4717 0.2952v-0.3208h-0.4872v2.896h0.4872v-2.162c0.1331-0.102 0.2722-0.1863 0.4174-0.252s0.2843-0.09876 0.4174-0.09876c0.1296 0 0.2351 0.01809 0.3163 0.05438 0.08128 0.03456 0.1433 0.08837 0.1865 0.1609 0.04148 0.06569 0.06989 0.1577 0.08546 0.2753 0.01556 0.1158 0.02333 0.2398 0.02333 0.3729v1.649h0.4872v-1.88c0-0.3543-0.08111-0.6251-0.2453-0.8138-0.1642-0.1884-0.403-0.283-0.7161-0.283zm2.981 0c-0.159 0-0.3188 0.03518-0.4795 0.1043-0.1608 0.0674-0.2972 0.1625-0.4096 0.2853-0.121 0.1314-0.2166 0.2869-0.2875 0.4684-0.06916 0.1798-0.1043 0.3949-0.1043 0.6439 0 0.4546 0.1008 0.807 0.303 1.058 0.204 0.2489 0.479 0.3729 0.8246 0.3729 0.2074 0 0.3786-0.02844 0.5117-0.08548 0.1348-0.05877 0.2749-0.1466 0.4218-0.2642v0.2642c0 0.1175-0.01293 0.2235-0.03886 0.3185-0.02592 0.09508-0.06937 0.1768-0.1299 0.2442-0.0605 0.07088-0.1442 0.1256-0.253 0.1654-0.1089 0.03972-0.247 0.05995-0.4129 0.05995-0.1729 0-0.3455-0.02326-0.5183-0.06989-0.1729-0.04495-0.299-0.08321-0.3785-0.1144h-0.02664v0.4984c0.1417 0.03976 0.2855 0.0703 0.4306 0.09105 0.1469 0.02247 0.2979 0.03329 0.4517 0.03329 0.4632 0 0.8058-0.1153 1.029-0.3452 0.223-0.2299 0.3341-0.5905 0.3341-1.081v-2.566h-0.4562l-0.03108 0.1243c-0.1262-0.06916-0.2456-0.1203-0.3596-0.1532-0.1124-0.03456-0.253-0.05217-0.4207-0.05217zm8.149 0c-0.4097 0-0.7348 0.1381-0.9769 0.4129-0.2403 0.2731-0.3608 0.6444-0.3608 1.117 0 0.4719 0.1205 0.8445 0.3608 1.118 0.242 0.2731 0.5671 0.4096 0.9769 0.4096 0.4062 0 0.7303-0.1364 0.9724-0.4096 0.242-0.2731 0.363-0.6456 0.363-1.118 0-0.4719-0.121-0.8433-0.363-1.117-0.242-0.2748-0.5661-0.4129-0.9724-0.4129zm3.226 0c-0.4097 0-0.7348 0.1381-0.9769 0.4129-0.2403 0.2731-0.3608 0.6444-0.3608 1.117 0 0.4719 0.1205 0.8445 0.3608 1.118 0.242 0.2731 0.5671 0.4096 0.9769 0.4096 0.4062 0 0.7303-0.1364 0.9724-0.4096 0.242-0.2731 0.363-0.6456 0.363-1.118 0-0.4719-0.121-0.8433-0.363-1.117-0.242-0.2748-0.5661-0.4129-0.9724-0.4129zm11.92 0c-0.1711 0-0.3381 0.03568-0.5006 0.1066-0.1625 0.07086-0.3196 0.1691-0.4717 0.2952v-0.3208h-0.4873v2.896h0.4873v-2.162c0.1331-0.102 0.2721-0.1863 0.4174-0.252 0.1452-0.0657 0.2842-0.09876 0.4174-0.09876 0.1296 0 0.2351 0.01809 0.3163 0.05438 0.08128 0.03456 0.1433 0.08837 0.1865 0.1609 0.0415 0.06569 0.06991 0.1577 0.08549 0.2753 0.01555 0.1158 0.0233 0.2398 0.0233 0.3729v1.649h0.4872v-1.88c0-0.3543-0.08109-0.6251-0.2453-0.8138-0.1642-0.1884-0.403-0.283-0.7161-0.283zm11.91 0c-0.4218 0-0.7632 0.1391-1.022 0.4174-0.2576 0.2783-0.3863 0.6541-0.3863 1.127 0 0.4788 0.1355 0.849 0.4051 1.11 0.2697 0.2592 0.645 0.3896 1.125 0.3896 0.1884 0 0.3672-0.02435 0.5384-0.07103 0.1711-0.04667 0.3397-0.104 0.5039-0.1732v-0.5316h-0.02666c-0.08466 0.07603-0.2268 0.1536-0.4273 0.2331-0.1988 0.0778-0.3968 0.1165-0.5939 0.1165-0.1487 0-0.2851-0.02066-0.4096-0.06216-0.1228-0.04149-0.2298-0.1035-0.3196-0.1864-0.09332-0.08469-0.1662-0.1928-0.2198-0.3241-0.05359-0.1331-0.08104-0.2881-0.08104-0.4662h2.135v-0.2653c0-0.42-0.1059-0.7428-0.3186-0.9712-0.2109-0.2282-0.5118-0.343-0.9024-0.343zm12.81 0c-0.4218 0-0.7621 0.1391-1.021 0.4174-0.2576 0.2783-0.3863 0.6541-0.3863 1.127 0 0.4788 0.1344 0.849 0.404 1.11 0.2697 0.2592 0.645 0.3896 1.125 0.3896 0.1884 0 0.3683-0.02435 0.5394-0.07103 0.1711-0.04667 0.3386-0.104 0.5028-0.1732v-0.5316h-0.02552c-0.08467 0.07603-0.2279 0.1536-0.4284 0.2331-0.1988 0.0778-0.3968 0.1165-0.5939 0.1165-0.1487 0-0.2851-0.02066-0.4096-0.06216-0.1228-0.04149-0.2287-0.1035-0.3185-0.1864-0.09333-0.08469-0.1673-0.1928-0.2209-0.3241-0.05359-0.1331-0.0799-0.2881-0.0799-0.4662h2.133v-0.2653c0-0.42-0.1059-0.7428-0.3186-0.9712-0.2109-0.2282-0.5118-0.343-0.9025-0.343zm9.598 0c-0.4097 0-0.7359 0.1381-0.978 0.4129-0.2403 0.2731-0.3608 0.6444-0.3608 1.117 0 0.4719 0.1205 0.8445 0.3608 1.118 0.242 0.2731 0.5682 0.4096 0.978 0.4096 0.4062 0 0.7291-0.1364 0.9712-0.4096 0.2421-0.2731 0.364-0.6456 0.364-1.118 0-0.4719-0.1221-0.8433-0.364-1.117-0.242-0.2748-0.565-0.4129-0.9712-0.4129zm23.08 0c-0.4217 0-0.7621 0.1391-1.021 0.4174-0.2576 0.2783-0.3862 0.6541-0.3862 1.127 0 0.4788 0.1343 0.849 0.404 1.11 0.2696 0.2592 0.645 0.3896 1.125 0.3896 0.1884 0 0.3683-0.02435 0.5394-0.07103 0.1711-0.04667 0.3386-0.104 0.5028-0.1732v-0.5316h-0.02552c-0.08467 0.07603-0.2279 0.1536-0.4284 0.2331-0.1988 0.0778-0.3968 0.1165-0.5939 0.1165-0.1486 0-0.2851-0.02066-0.4096-0.06216-0.1228-0.04149-0.2287-0.1035-0.3186-0.1864-0.09331-0.08469-0.1673-0.1928-0.2209-0.3241-0.05359-0.1331-0.0799-0.2881-0.0799-0.4662h2.134v-0.2653c0-0.42-0.1071-0.7428-0.3197-0.9712-0.2109-0.2282-0.5117-0.343-0.9025-0.343zm4.504 0c-0.159 0-0.3188 0.03518-0.4795 0.1043-0.1608 0.0674-0.2972 0.1625-0.4096 0.2853-0.121 0.1314-0.2177 0.2869-0.2886 0.4684-0.06916 0.1798-0.1032 0.3949-0.1032 0.6439 0 0.4546 0.1008 0.807 0.303 1.058 0.204 0.2489 0.479 0.3729 0.8246 0.3729 0.2074 0 0.3775-0.02844 0.5106-0.08548 0.1348-0.05877 0.276-0.1466 0.4229-0.2642v0.2642c0 0.1175-0.01291 0.2235-0.03888 0.3185-0.02592 0.09508-0.0694 0.1768-0.1299 0.2442-0.06053 0.07088-0.1452 0.1256-0.2542 0.1654-0.1089 0.03972-0.2458 0.05995-0.4118 0.05995-0.1729 0-0.3455-0.02326-0.5184-0.06989-0.1729-0.04495-0.299-0.08321-0.3785-0.1144h-0.02665v0.4984c0.1417 0.03976 0.2854 0.0703 0.4306 0.09105 0.1469 0.02247 0.2968 0.03329 0.4507 0.03329 0.4632 0 0.807-0.1153 1.03-0.3452 0.223-0.2299 0.3341-0.5905 0.3341-1.081v-2.566h-0.4562l-0.03108 0.1243c-0.1262-0.06916-0.2466-0.1203-0.3608-0.1532-0.1124-0.03456-0.2519-0.05217-0.4196-0.05217zm10.03 0c-0.4096 0-0.7348 0.1381-0.9769 0.4129-0.2403 0.2731-0.3607 0.6444-0.3607 1.117 0 0.4719 0.1205 0.8445 0.3607 1.118 0.242 0.2731 0.5671 0.4096 0.9769 0.4096 0.4062 0 0.7302-0.1364 0.9724-0.4096 0.2421-0.2731 0.363-0.6456 0.363-1.118 0-0.4719-0.1209-0.8433-0.363-1.117-0.242-0.2748-0.5661-0.4129-0.9724-0.4129zm11.92 0c-0.1711 0-0.3381 0.03568-0.5006 0.1066-0.1625 0.07086-0.3196 0.1691-0.4717 0.2952v-0.3208h-0.4872v2.896h0.4872v-2.162c0.1331-0.102 0.2722-0.1863 0.4174-0.252s0.2842-0.09876 0.4174-0.09876c0.1296 0 0.2351 0.01809 0.3163 0.05438 0.08126 0.03456 0.1433 0.08837 0.1865 0.1609 0.04147 0.06569 0.06989 0.1577 0.08546 0.2753 0.01557 0.1158 0.02331 0.2398 0.02331 0.3729v1.649h0.4872v-1.88c0-0.3543-0.08108-0.6251-0.2453-0.8138-0.1642-0.1887-0.403-0.283-0.7161-0.283zm8.939 0c-0.4217 0-0.7621 0.1391-1.021 0.4174-0.2576 0.2783-0.3863 0.6541-0.3863 1.127 0 0.4788 0.1344 0.849 0.404 1.11 0.2696 0.2592 0.645 0.3896 1.125 0.3896 0.1884 0 0.3683-0.02435 0.5394-0.07103 0.1711-0.04667 0.3386-0.104 0.5028-0.1732v-0.5316h-0.02552c-0.08469 0.07603-0.228 0.1536-0.4284 0.2331-0.1988 0.0778-0.3957 0.1165-0.5927 0.1165-0.1487 0-0.2862-0.02066-0.4107-0.06216-0.1228-0.04149-0.2287-0.1035-0.3186-0.1864-0.09331-0.08469-0.1662-0.1928-0.2198-0.3241-0.05359-0.1331-0.08104-0.2881-0.08104-0.4662h2.135v-0.2653c0-0.42-0.1071-0.7428-0.3197-0.9712-0.2109-0.2282-0.5118-0.343-0.9024-0.343zm3.163 0c-0.4218 0-0.7621 0.1391-1.021 0.4174-0.2576 0.2783-0.3863 0.6541-0.3863 1.127 0 0.4788 0.1344 0.849 0.404 1.11 0.2696 0.2592 0.645 0.3896 1.125 0.3896 0.1884 0 0.3683-0.02435 0.5394-0.07103 0.1711-0.04667 0.3386-0.104 0.5028-0.1732v-0.5316h-0.02551c-0.08467 0.07603-0.228 0.1536-0.4284 0.2331-0.1988 0.0778-0.3968 0.1165-0.5939 0.1165-0.1487 0-0.2851-0.02066-0.4096-0.06216-0.1228-0.04149-0.2287-0.1035-0.3185-0.1864-0.0933-0.08469-0.1673-0.1928-0.2209-0.3241-0.05359-0.1331-0.07991-0.2881-0.07991-0.4662h2.133v-0.2653c0-0.42-0.1059-0.7428-0.3185-0.9712-0.2109-0.2282-0.5118-0.343-0.9024-0.343zm-99.62 0.01108c-0.1746 0-0.3519 0.01551-0.5316 0.04664-0.1798 0.0311-0.3167 0.05956-0.4118 0.08546v0.495h0.02552c0.1676-0.06394 0.33-0.1126 0.4872-0.1454 0.1573-0.03456 0.3005-0.05217 0.4284-0.05217 0.1054 0 0.2062 0.00726 0.303 0.02109s0.1795 0.04016 0.2486 0.0799c0.07257 0.0415 0.1285 0.09945 0.1665 0.172 0.03976 0.07258 0.05995 0.1636 0.05995 0.2742v0.07545c-0.2835 0.01384-0.5498 0.03452-0.7968 0.06219-0.2471 0.02764-0.4586 0.07983-0.6348 0.1576-0.1746 0.0778-0.309 0.1853-0.404 0.3219-0.09331 0.1348-0.1398 0.3122-0.1398 0.5316 0 0.2679 0.09047 0.4887 0.2719 0.6615 0.1815 0.1729 0.4028 0.2586 0.6638 0.2586 0.1417 0 0.2653-0.01341 0.3707-0.04107 0.1054-0.02593 0.1985-0.05905 0.2797-0.09876 0.06916-0.03112 0.1405-0.07247 0.2131-0.1243 0.07434-0.05359 0.1333-0.09492 0.1764-0.1243v0.3086h0.484v-1.966c0-0.1867-0.02842-0.3433-0.08547-0.4695-0.05704-0.1262-0.1397-0.2291-0.2486-0.3086-0.1106-0.08125-0.2419-0.1381-0.394-0.1709-0.1504-0.03458-0.3277-0.05106-0.5316-0.05106zm31.33 0c-0.1849 0-0.3525 0.02376-0.5028 0.07219-0.1487 0.04666-0.2717 0.1108-0.3685 0.192-0.1002 0.08297-0.1752 0.1765-0.2253 0.2819-0.04841 0.1054-0.07217 0.2182-0.07217 0.3374 0 0.1902 0.05217 0.3514 0.1576 0.4828 0.1072 0.1296 0.2876 0.2278 0.5416 0.2952 0.09161 0.02418 0.1935 0.04695 0.3042 0.06768 0.1124 0.02074 0.2028 0.03883 0.2719 0.05438 0.1867 0.0415 0.3128 0.09109 0.3785 0.1499 0.06571 0.05876 0.09878 0.1456 0.09878 0.2597 0 0.1486-0.06104 0.2572-0.182 0.3263-0.121 0.0691-0.2885 0.1032-0.5028 0.1032-0.1729 0-0.3533-0.03359-0.5416-0.101-0.1884-0.06917-0.3601-0.1617-0.5139-0.2775h-0.02552v0.5472c0.121 0.06052 0.2704 0.1168 0.4485 0.1687 0.1797 0.05013 0.3773 0.07546 0.5916 0.07546 0.3785 0 0.6768-0.08478 0.8945-0.2542 0.2195-0.1694 0.3285-0.386 0.3285-0.6507 0-0.2109-0.06156-0.3805-0.1842-0.5083-0.1228-0.1262-0.2964-0.2157-0.5228-0.2675-0.07433-0.01729-0.1684-0.03587-0.2808-0.05661-0.1107-0.02073-0.2109-0.04142-0.3008-0.06216-0.1625-0.03804-0.2792-0.08712-0.3518-0.1476-0.07434-0.06053-0.1121-0.1504-0.1121-0.2697 0-0.1348 0.06154-0.2367 0.1842-0.3042 0.1228-0.06916 0.2726-0.1032 0.4506-0.1032 0.1711 0 0.3459 0.03148 0.5239 0.09547 0.178 0.06222 0.3295 0.1392 0.454 0.2308h0.02551v-0.5206c-0.1175-0.06052-0.2648-0.1117-0.4429-0.1531-0.1763-0.04322-0.351-0.06439-0.5239-0.06439zm49.62 0c-0.1849 0-0.3535 0.02376-0.5039 0.07219-0.1486 0.04666-0.2706 0.1108-0.3674 0.192-0.1002 0.08297-0.1763 0.1765-0.2264 0.2819-0.04841 0.1054-0.07217 0.2182-0.07217 0.3374 0 0.1902 0.05331 0.3514 0.1587 0.4828 0.1072 0.1296 0.2876 0.2278 0.5416 0.2952 0.09161 0.02418 0.1924 0.04695 0.303 0.06768 0.1124 0.02074 0.2028 0.03883 0.2719 0.05438 0.1867 0.0415 0.3128 0.09109 0.3785 0.1499 0.06571 0.05876 0.09878 0.1456 0.09878 0.2597 0 0.1486-0.0599 0.2572-0.181 0.3263-0.121 0.0691-0.2896 0.1032-0.5039 0.1032-0.1729 0-0.3533-0.03359-0.5416-0.101-0.1884-0.06917-0.3589-0.1617-0.5128-0.2775h-0.02665v0.5472c0.121 0.06052 0.2704 0.1168 0.4484 0.1687 0.1797 0.05013 0.3773 0.07546 0.5916 0.07546 0.3786 0 0.6768-0.08478 0.8945-0.2542 0.2195-0.1694 0.3297-0.386 0.3297-0.6507 0-0.2109-0.06156-0.3805-0.1842-0.5083-0.1228-0.1262-0.2974-0.2157-0.5239-0.2675-0.07434-0.01729-0.1674-0.03587-0.2797-0.05661-0.1106-0.02073-0.2109-0.04142-0.3008-0.06216-0.1625-0.03804-0.2803-0.08712-0.353-0.1476-0.07434-0.06053-0.111-0.1504-0.111-0.2697 0-0.1348 0.06042-0.2367 0.1832-0.3042 0.1228-0.06916 0.2737-0.1032 0.4517-0.1032 0.1711 0 0.3459 0.03148 0.5239 0.09547 0.1781 0.06222 0.3284 0.1392 0.4529 0.2308h0.02666v-0.5206c-0.1175-0.06052-0.266-0.1117-0.444-0.1531-0.1763-0.04322-0.35-0.06439-0.5228-0.06439zm-55.32 0.00224c-0.427 0-0.7712 0.1344-1.032 0.404-0.2592 0.2696-0.3885 0.6416-0.3885 1.116 0 0.2541 0.03409 0.4758 0.1032 0.666 0.06917 0.1902 0.1668 0.3473 0.293 0.4717 0.1244 0.1244 0.2738 0.2175 0.4484 0.2797 0.1746 0.06052 0.3669 0.09105 0.5763 0.09105 0.1642 0 0.3187-0.02116 0.4639-0.0644 0.1469-0.04321 0.3015-0.1042 0.464-0.182v-0.5361h-0.02552c-0.03632 0.02938-0.08542 0.06506-0.1476 0.1066-0.06223 0.03975-0.1289 0.07689-0.1998 0.1132-0.08125 0.0415-0.1733 0.07509-0.2753 0.101-0.102 0.02593-0.2023 0.03886-0.3008 0.03886-0.2835 0-0.5043-0.09303-0.6615-0.2797-0.1556-0.1884-0.2331-0.4567-0.2331-0.8058 0-0.3595 0.07962-0.632 0.2386-0.8172 0.1608-0.1867 0.3794-0.2797 0.6558-0.2797 0.1504 0 0.3044 0.03101 0.4617 0.09326 0.159 0.06222 0.3131 0.1506 0.4617 0.2664h0.02551v-0.5416c-0.1331-0.0674-0.2799-0.1243-0.4406-0.1709-0.159-0.04667-0.3213-0.06991-0.4873-0.06991zm-64.5 0.06768v2.896h0.4873v-2.057c0.1296-0.1054 0.2651-0.1907 0.4051-0.2564 0.14-0.0674 0.2847-0.101 0.4351-0.101 0.09332 0 0.1735 0.00466 0.2408 0.01332 0.06916 0.00691 0.1406 0.01823 0.2131 0.03552h0.02554v-0.4995c-0.07603-0.01212-0.1329-0.01987-0.171-0.02333-0.03802-0.00516-0.09955-0.00775-0.1842-0.00775-0.1538 0-0.3042 0.03198-0.4529 0.09768-0.1469 0.06392-0.3181 0.1741-0.5117 0.3297v-0.4273zm5.133 0 1.164 2.896h0.4906l1.171-2.896h-0.5106l-0.8888 2.304-0.8968-2.304zm3.469 0v2.896h0.4872v-2.896zm4.771 0v2.896h0.4873v-2.896zm43.07 0v2.896h0.4872v-2.057c0.1296-0.1054 0.264-0.1907 0.404-0.2564 0.14-0.0674 0.2859-0.101 0.4362-0.101 0.09331 0 0.1734 0.00466 0.2408 0.01332 0.06917 0.00691 0.1394 0.01823 0.212 0.03552h0.02665v-0.4995c-0.07603-0.01212-0.1329-0.01987-0.171-0.02333-0.03801-0.00516-0.09955-0.00775-0.1842-0.00775-0.1538 0-0.3053 0.03198-0.454 0.09768-0.1469 0.06392-0.317 0.1741-0.5106 0.3297v-0.4273zm1.949 0 1.164 2.896h0.4906l1.171-2.896h-0.5106l-0.8888 2.304-0.8968-2.304zm3.469 0v2.896h0.4872v-2.896zm17.12 0v2.896h0.4872v-2.057c0.1296-0.1054 0.264-0.1907 0.404-0.2564 0.14-0.0674 0.2858-0.101 0.4362-0.101 0.09333 0 0.1734 0.00466 0.2408 0.01332 0.06916 0.00691 0.1394 0.01823 0.212 0.03552h0.02665v-0.4995c-0.07603-0.01212-0.1329-0.01987-0.171-0.02333-0.03801-0.00516-0.09955-0.00775-0.1842-0.00775-0.1538 0-0.3053 0.03198-0.454 0.09768-0.1469 0.06392-0.317 0.1741-0.5106 0.3297v-0.4273zm8.297 0v1.879c0 0.3595 0.08477 0.6325 0.2542 0.8189 0.1694 0.1849 0.4061 0.2775 0.7103 0.2775 0.1815 0 0.3469-0.03406 0.4973-0.1032 0.1504-0.06916 0.3075-0.169 0.4717-0.2986v0.3219h0.4872v-2.896h-0.4872v2.162c-0.1296 0.102-0.2692 0.1852-0.4196 0.2508-0.1486 0.0657-0.2867 0.09878-0.4129 0.09878-0.1417 0-0.2498-0.01759-0.3241-0.05217-0.07434-0.03456-0.1342-0.08933-0.181-0.1654-0.04495-0.07433-0.07496-0.1638-0.08881-0.2675-0.01381-0.1054-0.01996-0.2316-0.01996-0.3785v-1.648zm3.381 0v2.896h0.4873v-2.057c0.1296-0.1054 0.264-0.1907 0.404-0.2564 0.14-0.0674 0.2859-0.101 0.4362-0.101 0.09333 0 0.1734 0.00466 0.2408 0.01332 0.06916 0.00691 0.1394 0.01823 0.212 0.03552h0.02665v-0.4995c-0.07603-0.01212-0.1329-0.01987-0.1709-0.02333-0.03802-0.00516-0.09957-0.00775-0.1842-0.00775-0.1538 0-0.3053 0.03198-0.454 0.09768-0.1469 0.06392-0.317 0.1741-0.5106 0.3297v-0.4273zm11.28 0v2.896h0.4873v-2.896zm14.66 0v2.896h0.4872v-2.057c0.1296-0.1054 0.2651-0.1907 0.4051-0.2564 0.14-0.0674 0.2847-0.101 0.4351-0.101 0.0933 0 0.1746 0.00466 0.242 0.01332 0.06916 0.00691 0.1394 0.01823 0.212 0.03552h0.02552v-0.4995c-0.07606-0.01212-0.1329-0.01987-0.171-0.02333-0.03802-0.00516-0.09958-0.00775-0.1842-0.00775-0.1538 0-0.3042 0.03198-0.4528 0.09768-0.1469 0.06392-0.3181 0.1741-0.5117 0.3297v-0.4273zm6.91 0v2.896h0.4872v-2.896zm-69.05 0.3208c0.2592 0 0.4521 0.06981 0.5785 0.2098 0.1279 0.14 0.1925 0.338 0.1943 0.5939h-1.659c0.02075-0.2282 0.1081-0.4189 0.2619-0.5728 0.1556-0.1538 0.3639-0.2308 0.6251-0.2308zm12.81 0c0.2593 0 0.4521 0.06981 0.5785 0.2098 0.1279 0.14 0.1925 0.338 0.1942 0.5939h-1.659c0.02075-0.2282 0.1081-0.4189 0.2619-0.5728 0.1555-0.1538 0.3639-0.2308 0.6251-0.2308zm32.68 0c0.2592 0 0.4521 0.06981 0.5785 0.2098 0.1279 0.14 0.1925 0.338 0.1943 0.5939h-1.659c0.02075-0.2282 0.1081-0.4189 0.2619-0.5728 0.1556-0.1538 0.3639-0.2308 0.6251-0.2308zm35.4 0c0.2592 0 0.4521 0.06981 0.5785 0.2098 0.1279 0.14 0.1925 0.338 0.1942 0.5939h-1.659c0.02075-0.2282 0.1081-0.4189 0.2619-0.5728 0.1555-0.1538 0.3639-0.2308 0.6251-0.2308zm3.163 0c0.2592 0 0.4521 0.06981 0.5785 0.2098 0.1279 0.14 0.1925 0.338 0.1942 0.5939h-1.659c0.02075-0.2282 0.1081-0.4189 0.2619-0.5728 0.1555-0.1538 0.3639-0.2308 0.6251-0.2308zm-135.1 0.01888c0.261 0 0.4658 0.09092 0.6126 0.2741 0.1469 0.1815 0.2198 0.4596 0.2198 0.8348 0 0.3664-0.07445 0.6433-0.2231 0.8303-0.1469 0.1849-0.3501 0.2775-0.6092 0.2775-0.2627 0-0.4668-0.09302-0.6138-0.2797-0.1469-0.1884-0.2209-0.465-0.2209-0.828 0-0.3751 0.07234-0.653 0.2175-0.8348 0.1469-0.1832 0.3527-0.2742 0.6172-0.2742zm24.02 0c0.261 0 0.4658 0.09092 0.6126 0.2741 0.1469 0.1815 0.2198 0.4596 0.2198 0.8348 0 0.3664-0.07444 0.6433-0.2231 0.8303-0.1469 0.1849-0.3501 0.2775-0.6092 0.2775-0.2627 0-0.4669-0.09302-0.6138-0.2797-0.1469-0.1884-0.2209-0.465-0.2209-0.828 0-0.3751 0.07236-0.653 0.2176-0.8348 0.1469-0.1832 0.3527-0.2742 0.6172-0.2742zm3.226 0c0.261 0 0.4646 0.09092 0.6115 0.2741 0.1469 0.1815 0.2209 0.4596 0.2209 0.8348 0 0.3664-0.07445 0.6433-0.2231 0.8303-0.1469 0.1849-0.3501 0.2775-0.6092 0.2775-0.2627 0-0.4668-0.09302-0.6138-0.2797-0.1469-0.1884-0.2209-0.465-0.2209-0.828 0-0.3751 0.07234-0.653 0.2175-0.8348 0.1469-0.1832 0.3527-0.2742 0.6172-0.2742zm46.24 0c0.261 0 0.4646 0.09092 0.6115 0.2741 0.1469 0.1815 0.2198 0.4596 0.2198 0.8348 0 0.3664-0.07445 0.6433-0.2231 0.8303-0.1469 0.1849-0.349 0.2775-0.6081 0.2775-0.2627 0-0.468-0.09302-0.6149-0.2797-0.1469-0.1884-0.2209-0.465-0.2209-0.828 0-0.3751 0.07348-0.653 0.2187-0.8348 0.1469-0.1832 0.3527-0.2742 0.6172-0.2742zm37.62 0c0.261 0 0.4646 0.09092 0.6115 0.2741 0.1469 0.1815 0.2209 0.4596 0.2209 0.8348 0 0.3664-0.07445 0.6433-0.2231 0.8303-0.1469 0.1849-0.3501 0.2775-0.6092 0.2775-0.2627 0-0.4668-0.09302-0.6138-0.2797-0.1469-0.1884-0.2209-0.465-0.2209-0.828 0-0.3751 0.07234-0.653 0.2175-0.8348 0.1469-0.1832 0.3527-0.2742 0.6172-0.2742zm-95.13 0.01777c0.1106 0 0.2212 0.01291 0.3319 0.03883 0.1124 0.02421 0.2334 0.06553 0.363 0.1243v1.579c-0.1193 0.09161-0.2506 0.1645-0.394 0.2198-0.1417 0.05357-0.2834 0.08104-0.4251 0.08104-0.2645 0-0.4531-0.08428-0.5671-0.252-0.114-0.1676-0.172-0.4143-0.172-0.7393 0-0.3422 0.07707-0.603 0.2308-0.7825 0.1538-0.1796 0.3647-0.2697 0.6325-0.2697zm85.19 0c0.1106 0 0.2212 0.01291 0.3319 0.03883 0.1123 0.02421 0.2333 0.06553 0.363 0.1243v1.579c-0.1193 0.09161-0.2506 0.1645-0.394 0.2198-0.1417 0.05357-0.2834 0.08104-0.4251 0.08104-0.2645 0-0.4542-0.08428-0.5683-0.252-0.1141-0.1676-0.171-0.4143-0.171-0.7393 2e-5 -0.3422 0.07706-0.603 0.2309-0.7825 0.1539-0.1798 0.3647-0.2697 0.6325-0.2697zm-93.31 0.00775c0.1228 0 0.236 0.01083 0.3397 0.03331 0.1037 0.02247 0.2216 0.0633 0.353 0.1221v1.662c-0.1228 0.09679-0.2556 0.1764-0.3974 0.2386-0.1417 0.06053-0.2813 0.09103-0.4196 0.09103-0.2592 0-0.4474-0.08944-0.5649-0.2675-0.1175-0.1798-0.1764-0.4408-0.1764-0.7848 0-0.3492 0.07541-0.6189 0.2275-0.8093 0.1521-0.1902 0.3651-0.2853 0.6382-0.2853zm22.68 0c0.1228 0 0.2359 0.01083 0.3397 0.03331 0.1037 0.02247 0.2205 0.0633 0.3518 0.1221v1.662c-0.1228 0.09679-0.2546 0.1764-0.3963 0.2386-0.1417 0.06053-0.2813 0.09103-0.4196 0.09103-0.2593 0-0.4486-0.08944-0.5661-0.2675-0.1175-0.1798-0.1754-0.4408-0.1754-0.7848 0-0.3492 0.07541-0.6189 0.2275-0.8093 0.1521-0.1902 0.3651-0.2853 0.6382-0.2853zm11.73 0c0.1228 0 0.2359 0.01083 0.3397 0.03331 0.1037 0.02247 0.2205 0.0633 0.3518 0.1221v1.662c-0.1228 0.09679-0.2545 0.1764-0.3963 0.2386-0.1417 0.06053-0.2824 0.09103-0.4207 0.09103-0.2592 0-0.4474-0.08944-0.5649-0.2675-0.1175-0.1798-0.1764-0.4408-0.1764-0.7848 0-0.3492 0.07655-0.6189 0.2286-0.8093 0.1521-0.1902 0.3651-0.2853 0.6382-0.2853zm96.04 0c0.1228 0 0.2359 0.01083 0.3397 0.03331 0.1037 0.02247 0.2205 0.0633 0.3518 0.1221v1.662c-0.1228 0.09679-0.2545 0.1764-0.3963 0.2386-0.1417 0.06053-0.2813 0.09103-0.4196 0.09103-0.2592 0-0.4486-0.08944-0.5661-0.2675-0.1175-0.1798-0.1754-0.4408-0.1754-0.7848 0-0.3492 0.07541-0.6189 0.2276-0.8093 0.1521-0.1902 0.3651-0.2853 0.6382-0.2853zm-30.28 0.01776c0.2541 0 0.4387 0.08998 0.5527 0.2697 0.1141 0.1781 0.171 0.4402 0.171 0.786 0 0.3786-0.07706 0.6564-0.2308 0.8348-0.1521 0.1763-0.363 0.2642-0.6325 0.2642-0.1261 0-0.2394-0.01132-0.3397-0.03551-0.09854-0.02421-0.2169-0.06764-0.3552-0.1299v-1.659c0.1244-0.09678 0.2588-0.176 0.404-0.2364 0.1452-0.06223 0.2889-0.09326 0.4306-0.09326zm-71.72 0.9934v0.8058c-0.121 0.09332-0.2523 0.1746-0.394 0.242-0.1417 0.0657-0.2984 0.09768-0.4695 0.09768-0.2057 0-0.3593-0.04132-0.4595-0.1243-0.1002-0.08467-0.1498-0.2092-0.1498-0.3752 0-0.1469 0.04343-0.2622 0.1299-0.3452 0.08643-0.0847 0.1996-0.1468 0.3397-0.1865 0.1175-0.03284 0.2757-0.05821 0.4762-0.07548 0.2023-0.01729 0.3786-0.0302 0.5272-0.03885zm104.3 0.7803v0.7393h0.6194v-0.7393z" style="fill:#ffffff;filter:url(#filter1615);stroke-width:.2506;stroke:#ffffff"/>
  <path d="m-338 234.1c-0.5192 0-0.9991 0.08774-1.441 0.2631-0.4383 0.1753-0.8064 0.4277-1.103 0.7581-0.3102 0.3472-0.5452 0.7655-0.707 1.254-0.1618 0.4855-0.243 1.035-0.243 1.648 0 0.6234 0.08127 1.178 0.243 1.664 0.1652 0.4855 0.3992 0.8962 0.7024 1.23 0.3034 0.3338 0.6706 0.587 1.102 0.7626 0.4349 0.1753 0.9172 0.263 1.446 0.263 0.5428 0 1.025-0.08557 1.446-0.2575 0.4248-0.1719 0.7922-0.4276 1.102-0.7683 0.3001-0.327 0.533-0.7354 0.6984-1.224 0.1686-0.4922 0.2531-1.049 0.2531-1.67 0-0.6206-0.08235-1.174-0.2475-1.663-0.1619-0.4888-0.3969-0.9024-0.7036-1.24-0.3-0.327-0.6649-0.5785-1.097-0.7535-0.4282-0.1787-0.9127-0.2675-1.452-0.2675zm8.149 0c-0.5192 0-0.999 0.08774-1.441 0.2631-0.4383 0.1753-0.8053 0.4277-1.102 0.7581-0.3102 0.3472-0.5463 0.7655-0.7081 1.254-0.1619 0.4855-0.2431 1.035-0.2431 1.648 0 0.6234 0.08126 1.178 0.2431 1.664 0.1652 0.4855 0.3992 0.8962 0.7024 1.23 0.3034 0.3338 0.6706 0.587 1.102 0.7626 0.4349 0.1753 0.9172 0.263 1.446 0.263 0.5428 0 1.026-0.08557 1.447-0.2575 0.4248-0.1719 0.7922-0.4276 1.102-0.7683 0.3-0.327 0.5319-0.7354 0.6973-1.224 0.1686-0.4922 0.2531-1.049 0.2531-1.67 0-0.6206-0.08235-1.174-0.2476-1.663-0.1619-0.4888-0.3958-0.9024-0.7024-1.24-0.3-0.327-0.666-0.5785-1.098-0.7535-0.4282-0.1787-0.9127-0.2675-1.452-0.2675zm-73.71 0.01997c-0.8195 0-1.495 0.2026-2.028 0.607-0.5326 0.4012-0.799 0.9166-0.799 1.547 0 0.5495 0.1603 0.9956 0.4806 1.339 0.3236 0.3405 0.82 0.582 1.487 0.7234 0.3304 0.0674 0.641 0.1226 0.9348 0.1665 0.2966 0.04382 0.5717 0.1002 0.8246 0.1676 0.3338 0.08761 0.5819 0.21 0.7439 0.3685 0.1652 0.1584 0.2475 0.4043 0.2475 0.7382 0 0.3877-0.1733 0.6984-0.5206 0.9314-0.3439 0.2326-0.8257 0.3485-1.446 0.3485-0.4382 0-0.9076-0.0856-1.407-0.2575-0.499-0.1719-0.9388-0.4168-1.32-0.7336h-0.07105v1.254c0.4484 0.1989 0.8883 0.3484 1.32 0.4495 0.4349 0.1011 0.9246 0.1521 1.467 0.1521 0.5057 0 0.9371-0.06064 1.294-0.182 0.3608-0.1214 0.6757-0.2892 0.9456-0.505 0.2462-0.1989 0.4368-0.4427 0.5717-0.7291 0.1382-0.2865 0.2076-0.5757 0.2076-0.8689 0-0.5394-0.1419-0.9598-0.4251-1.26-0.2832-0.3001-0.7047-0.5243-1.264-0.6729-0.2764-0.07079-0.6132-0.139-1.011-0.2064-0.3978-0.0674-0.7041-0.1249-0.9201-0.172-0.4079-0.0944-0.6928-0.2309-0.8547-0.4096-0.1619-0.1787-0.2431-0.4246-0.2431-0.7382 0-0.3506 0.1614-0.6376 0.485-0.8604 0.327-0.2225 0.7592-0.3341 1.295-0.3341 0.4889 0 0.9655 0.08128 1.431 0.2431 0.4686 0.1584 0.8468 0.3589 1.133 0.6018h0.06991v-1.183c-0.3405-0.1483-0.7314-0.2729-1.173-0.374-0.4416-0.1012-0.9269-0.1521-1.456-0.1521zm-19.87 0.1365 1.992 7.53h1.102l1.547-6.251 1.583 6.251h1.127l1.958-7.53h-0.9814l-1.573 6.319-1.573-6.319h-1.017l-1.557 6.263-1.583-6.263zm10.78 0v7.53h4.961v-0.89h-3.959v-2.796h3.959v-0.89h-3.959v-2.063h3.959v-0.89zm12.62 0v0.8899h2.69v6.638h1.001v-6.638h2.69v-0.8899zm10.17 0 2.74 7.53h1.336l2.74-7.53h-1.021l-2.362 6.626-2.361-6.626zm9.519 0-2.74 7.53h1.017l0.7382-2.099h3.256l0.7382 2.099h1.067l-2.74-7.53zm5.219 0v7.53h4.764v-0.89h-3.763v-6.638zm5.762 0v7.53h4.764v-0.89h-3.763v-6.638zm5.762 0v7.53h4.961v-0.89h-3.959v-2.796h3.959v-0.89h-3.959v-2.063h3.959v-0.89zm5.573 0 2.66 4.334v3.196h1.001v-3.302l2.649-4.228h-1.067l-2.078 3.369-2.059-3.369zm10.99 0v7.53h1.001v-3.626h3.272v-0.8888h-3.272v-2.124h3.808v-0.89zm22.25 0v7.53h1.901c0.6911 0 1.247-0.04656 1.669-0.1409 0.4248-0.0944 0.8092-0.2482 1.153-0.4606 0.4955-0.3068 0.8922-0.7382 1.189-1.294 0.3001-0.5563 0.4495-1.177 0.4495-1.861 0-0.7314-0.143-1.363-0.4296-1.896-0.2865-0.5327-0.6865-0.9593-1.199-1.28-0.3001-0.1854-0.6672-0.3306-1.102-0.4351-0.4315-0.1079-1.014-0.1621-1.749-0.1621zm11.63 0v7.53h1.001v-2.806h1.001c0.5394 0 0.986-0.065 1.339-0.1931 0.354-0.1315 0.6604-0.3265 0.9201-0.5859 0.209-0.209 0.3716-0.4549 0.4862-0.7382 0.118-0.2865 0.1765-0.5973 0.1765-0.9314 0-0.4383-0.07911-0.8002-0.2375-1.087-0.1551-0.2865-0.3761-0.526-0.6626-0.7183-0.2427-0.1618-0.52-0.2799-0.8337-0.354-0.3135-0.07751-0.6973-0.1166-1.149-0.1166zm7.871 0-2.741 7.53h1.017l0.7382-2.099h3.257l0.7382 2.099h1.067l-2.74-7.53zm5.219 0v7.53h0.9354v-6.734l3.569 6.734h1.239v-7.53h-0.9354v6.149l-3.256-6.149zm6.734 0v0.8899h2.69v6.638h1.001v-6.638h2.69v-0.8899zm7.405 0v7.53h1.001v-2.994h1.412l2.518 2.994h1.3l-2.831-3.292c0.4787-0.1854 0.8547-0.4595 1.127-0.8235 0.2731-0.3675 0.4096-0.8234 0.4096-1.366 0-0.4012-0.07801-0.7314-0.2331-0.9911-0.1517-0.263-0.364-0.4796-0.6371-0.6513-0.2427-0.1517-0.5157-0.2568-0.8189-0.3141-0.3034-0.06067-0.6825-0.09102-1.138-0.09102zm6.121 0 2.661 4.334v3.196h1.001v-3.302l2.649-4.228h-1.067l-2.079 3.369-2.058-3.369zm-58.19 0.7081c0.7587 0 1.357 0.2665 1.795 0.799 0.4382 0.5293 0.6569 1.282 0.6569 2.26 0 0.9877-0.2221 1.745-0.6672 2.271-0.4416 0.5225-1.037 0.7837-1.785 0.7837-0.7484 0-1.345-0.2611-1.79-0.7837-0.445-0.5259-0.6672-1.283-0.6672-2.271 0-0.9775 0.2166-1.73 0.6513-2.26 0.4383-0.5326 1.041-0.799 1.806-0.799zm8.149 0c0.7587 0 1.357 0.2665 1.795 0.799 0.4383 0.5293 0.6581 1.282 0.6581 2.26 0 0.9877-0.2232 1.745-0.6683 2.271-0.4416 0.5225-1.037 0.7837-1.785 0.7837-0.7484 0-1.345-0.2611-1.79-0.7837-0.445-0.5259-0.6672-1.283-0.6672-2.271 0-0.9775 0.2178-1.73 0.6524-2.26 0.4382-0.5326 1.039-0.799 1.805-0.799zm6.086 0.1521h0.94c0.4652 0 0.8649 0.03357 1.199 0.101 0.3338 0.06405 0.649 0.18 0.9456 0.3485 0.4079 0.2326 0.7143 0.5511 0.9201 0.9559 0.2057 0.4046 0.3086 0.9019 0.3086 1.492 0 0.5865-0.09423 1.076-0.283 1.467-0.1854 0.391-0.4649 0.7064-0.8393 0.9456-0.3001 0.1921-0.6303 0.3232-0.9911 0.394-0.3573 0.07081-0.7774 0.1066-1.26 0.1066h-0.94zm11.63 0h0.9911c0.3169 0 0.578 0.02384 0.7837 0.07103 0.209 0.04384 0.3943 0.1175 0.5561 0.222 0.1854 0.1214 0.3241 0.2785 0.4152 0.4706 0.09104 0.1922 0.1365 0.4175 0.1365 0.6768 0 0.2225-0.03357 0.4229-0.101 0.6018-0.06405 0.1787-0.1756 0.3498-0.3341 0.5117-0.1584 0.1584-0.3643 0.2744-0.6172 0.3485-0.2528 0.07082-0.5808 0.1066-0.9854 0.1066h-0.8445zm27.23 0h1.179c0.2697 0 0.5037 0.01948 0.7024 0.05995 0.1989 0.03709 0.3712 0.1054 0.5161 0.2031 0.1753 0.1146 0.2999 0.2554 0.3741 0.424 0.07751 0.1652 0.1165 0.3559 0.1165 0.5717 0 0.2832-0.03681 0.5172-0.111 0.7024-0.07082 0.182-0.1824 0.3445-0.3341 0.4862-0.1652 0.1517-0.3656 0.2557-0.6018 0.313-0.236 0.05395-0.5123 0.08104-0.8291 0.08104h-1.012zm-94.79 0.01444 1.32 3.697h-2.645zm75.07 0 1.321 3.697h-2.645zm-39.63 10.69c-0.3232 0-0.5717 0.0925-0.7428 0.2775-0.1711 0.1832-0.2564 0.4463-0.2564 0.7905v0.09655h-0.3285v0.4096h0.3285v2.486h0.4873v-2.486h0.8638v-0.4096h-0.8792v-0.09876c0-0.242 0.04655-0.409 0.1399-0.5006 0.09507-0.09333 0.2482-0.1399 0.4573-0.1399 0.06568 0 0.1411 0.00824 0.2275 0.02553 0.08643 0.01556 0.1562 0.03106 0.2098 0.04661h0.02664v-0.4462c-0.07262-0.01381-0.1538-0.02513-0.242-0.0355-0.08645-0.01038-0.1831-0.01555-0.2919-0.01555zm-62.97 0.02553v1.255c-0.1296-0.0674-0.2532-0.1165-0.3707-0.1476-0.1175-0.03284-0.253-0.04994-0.4051-0.04994-0.1676 0-0.3299 0.03518-0.4872 0.1043-0.1556 0.06916-0.292 0.1694-0.4096 0.3008-0.1193 0.1348-0.2144 0.2976-0.2853 0.4895-0.06916 0.1919-0.1032 0.4106-0.1032 0.6558 0 0.4719 0.1008 0.8405 0.303 1.106 0.204 0.2662 0.479 0.3996 0.8246 0.3996 0.1781 0 0.3429-0.03359 0.495-0.101 0.1521-0.0674 0.2984-0.1609 0.4384-0.2819v0.303h0.4872v-4.035zm22.68 0v1.255c-0.1296-0.0674-0.2532-0.1165-0.3707-0.1476-0.1175-0.03284-0.2519-0.04994-0.404-0.04994-0.1676 0-0.3299 0.03518-0.4872 0.1043-0.1556 0.06916-0.292 0.1694-0.4096 0.3008-0.1193 0.1348-0.2144 0.2976-0.2853 0.4895-0.06916 0.1919-0.1043 0.4106-0.1043 0.6558 0 0.4719 0.1019 0.8405 0.3041 1.106 0.204 0.2662 0.479 0.3996 0.8246 0.3996 0.178 0 0.3429-0.03359 0.495-0.101 0.1521-0.0674 0.2973-0.1609 0.4373-0.2819v0.303h0.4884v-4.035zm11.73 0v1.255c-0.1296-0.0674-0.2532-0.1165-0.3707-0.1476-0.1175-0.03284-0.2519-0.04994-0.404-0.04994-0.1676 0-0.3299 0.03518-0.4872 0.1043-0.1556 0.06916-0.292 0.1694-0.4096 0.3008-0.1193 0.1348-0.2144 0.2976-0.2853 0.4895-0.06916 0.1919-0.1043 0.4106-0.1043 0.6558 0 0.4719 0.1008 0.8405 0.303 1.106 0.204 0.2662 0.479 0.3996 0.8246 0.3996 0.1781 0 0.3429-0.03359 0.495-0.101 0.1521-0.0674 0.2984-0.1609 0.4384-0.2819v0.303h0.4872v-4.035zm60.35 0v4.035h0.4884v-2.162c0.1331-0.102 0.2721-0.1863 0.4174-0.252 0.1452-0.06568 0.2842-0.09876 0.4174-0.09876 0.1296 0 0.2351 0.01809 0.3163 0.05439 0.08127 0.03456 0.1433 0.08836 0.1865 0.1609 0.04149 0.06568 0.06991 0.1577 0.08548 0.2753 0.01557 0.1158 0.02328 0.2398 0.02328 0.3729v1.649h0.4873v-1.88c0-0.3543-0.08218-0.6251-0.2464-0.8138-0.1642-0.1887-0.402-0.283-0.7149-0.283-0.1711 0-0.3381 0.0357-0.5006 0.1066-0.1625 0.07086-0.3196 0.1691-0.4717 0.2952v-1.459zm3.361 0v4.035h0.4562l0.03108-0.1354c0.1193 0.06569 0.2402 0.1185 0.363 0.1565 0.1228 0.03976 0.2665 0.05883 0.4306 0.05883 0.1763 0 0.3381-0.03359 0.485-0.101 0.1469-0.06917 0.2813-0.172 0.404-0.3086 0.1158-0.1314 0.2079-0.2937 0.2753-0.4872 0.06916-0.1936 0.1032-0.4118 0.1032-0.6535 0-0.4788-0.09979-0.8496-0.2986-1.112-0.197-0.2627-0.4658-0.394-0.8081-0.394-0.1918 0-0.3656 0.03617-0.5195 0.1088-0.1538 0.07086-0.2985 0.1629-0.4351 0.2753v-1.442zm32.29 0v1.255c-0.1296-0.0674-0.2532-0.1165-0.3707-0.1476-0.1175-0.03284-0.2519-0.04994-0.404-0.04994-0.1676 0-0.33 0.03518-0.4873 0.1043-0.1555 0.06916-0.292 0.1694-0.4096 0.3008-0.1193 0.1348-0.2144 0.2976-0.2853 0.4895-0.06916 0.1919-0.1044 0.4106-0.1044 0.6558 0 0.4719 0.1019 0.8405 0.3041 1.106 0.204 0.2662 0.4779 0.3996 0.8235 0.3996 0.178 0 0.344-0.03359 0.4961-0.101 0.1521-0.0674 0.2973-0.1609 0.4373-0.2819v0.303h0.4884v-4.035zm-57.62 0.09324c-0.2662 0-0.5117 0.04554-0.7382 0.1354-0.2247 0.08991-0.4139 0.2191-0.5661 0.3885-0.159 0.1781-0.28 0.392-0.363 0.6428-0.08297 0.2489-0.1243 0.5312-0.1243 0.8456 0 0.3198 0.04139 0.6035 0.1243 0.8524 0.08467 0.2489 0.2051 0.4594 0.3608 0.6302 0.1556 0.1709 0.3437 0.3019 0.5649 0.3918 0.223 0.08989 0.4701 0.1343 0.7416 0.1343 0.2783 0 0.5254-0.04395 0.7416-0.1321 0.2178-0.08814 0.4071-0.2195 0.5661-0.394 0.1538-0.1677 0.2727-0.3765 0.3574-0.6274 0.08643-0.2524 0.1299-0.5377 0.1299-0.8559 0-0.3181-0.04298-0.603-0.1276-0.8536-0.08297-0.2506-0.2023-0.462-0.3596-0.6348-0.1538-0.1676-0.3415-0.2964-0.5627-0.3863-0.2195-0.09161-0.4682-0.1376-0.745-0.1376zm-33.74 0.01111c-0.42 0-0.7661 0.1034-1.039 0.3108-0.2731 0.2056-0.4107 0.4704-0.4107 0.7933 0 0.2818 0.08218 0.5107 0.2464 0.6871 0.1659 0.1746 0.4203 0.2981 0.7626 0.3707 0.1694 0.03456 0.3291 0.06302 0.4795 0.08546 0.1521 0.02247 0.2932 0.05091 0.4228 0.08549 0.1711 0.04493 0.2977 0.1075 0.3807 0.1887 0.08467 0.08125 0.1276 0.2074 0.1276 0.3785 0 0.1988-0.08944 0.358-0.2675 0.4773-0.1763 0.1193-0.4234 0.1787-0.7416 0.1787-0.2247 0-0.4645-0.04392-0.7206-0.1321-0.2558-0.08815-0.4818-0.2127-0.6768-0.3752h-0.03662v0.6428c0.2299 0.102 0.4558 0.179 0.6768 0.2308 0.223 0.05185 0.4742 0.07769 0.7524 0.07769 0.2592 0 0.4806-0.03102 0.6638-0.09326 0.1849-0.06223 0.3456-0.1491 0.484-0.2597 0.1262-0.102 0.2239-0.226 0.293-0.3729 0.07086-0.1469 0.1066-0.2958 0.1066-0.4462 0-0.2766-0.07234-0.4921-0.2175-0.6461-0.1452-0.1538-0.3613-0.268-0.6484-0.3441-0.1417-0.0363-0.3144-0.072-0.5184-0.1066-0.204-0.03458-0.3611-0.06349-0.4717-0.0877-0.2091-0.04839-0.3555-0.1193-0.4384-0.2109-0.08297-0.0916-0.1243-0.2177-0.1243-0.3785 0-0.1797 0.08269-0.3265 0.2486-0.4406 0.1676-0.1141 0.3889-0.171 0.6638-0.171 0.2506 0 0.4952 0.04134 0.7337 0.1243 0.2403 0.08127 0.4336 0.1841 0.5802 0.3086h0.03663v-0.6069c-0.1746-0.07604-0.3751-0.1391-0.6018-0.1909-0.2264-0.05185-0.4756-0.07768-0.7468-0.07768zm-42.41 0.04328v0.5061h0.5494v-0.5061zm4.771 0v0.5061h0.5494v-0.5061zm48.49 0v0.5061h0.5494v-0.5061zm40.08 0v0.5061h0.5494v-0.5061zm21.57 0v0.5061h0.5494v-0.5061zm-126.6 0.02665v3.86h0.5139v-1.439h0.5128c0.2766 0 0.5056-0.03198 0.6871-0.09769 0.1815-0.0674 0.3386-0.1677 0.4717-0.3008 0.1072-0.1072 0.1898-0.2333 0.2486-0.3785 0.06052-0.1469 0.09104-0.3061 0.09104-0.4772 0-0.2247-0.04085-0.4102-0.1221-0.5572-0.07949-0.1469-0.1927-0.27-0.3397-0.3685-0.1244-0.08298-0.2666-0.144-0.4273-0.182-0.1608-0.03975-0.3567-0.05881-0.5882-0.05881zm26.57 0v3.86h0.5128v-1.859h1.677v-0.4562h-1.677v-1.089h1.953v-0.4562zm71.43 0v3.86h0.4795v-3.454l1.83 3.454h0.6348v-3.86h-0.4795v3.152l-1.67-3.152zm35.4 0v3.86h0.4795v-3.454l1.83 3.454h0.6359v-3.86h-0.4806v3.152l-1.67-3.152zm-45.5 0.363c0.3889 0 0.6956 0.1364 0.9201 0.4096 0.2247 0.2714 0.3374 0.6575 0.3374 1.159 0 0.5064-0.1148 0.8945-0.343 1.164-0.2264 0.2679-0.5308 0.4018-0.9144 0.4018-0.3835 0-0.6899-0.1339-0.9178-0.4018-0.2282-0.2697-0.343-0.6581-0.343-1.164 0-0.5013 0.1122-0.8877 0.3352-1.159 0.2247-0.2731 0.5333-0.4096 0.9257-0.4096zm-87.4 0.07769h0.5072c0.1625 0 0.2964 0.01132 0.4018 0.03551 0.1072 0.02246 0.2023 0.06076 0.2853 0.1144 0.09507 0.06222 0.1664 0.1423 0.2131 0.2408 0.04668 0.09854 0.06992 0.2143 0.06992 0.3474 0 0.114-0.01762 0.217-0.05218 0.3086-0.03284 0.09161-0.08967 0.1789-0.171 0.2619-0.08125 0.08127-0.1867 0.1418-0.3163 0.1798-0.1296 0.03629-0.2976 0.05438-0.505 0.05438h-0.4329zm6.058 0.4429c-0.4097 0-0.7348 0.1381-0.9769 0.4129-0.2403 0.2731-0.3608 0.6444-0.3608 1.117 0 0.4719 0.1205 0.8445 0.3608 1.118 0.242 0.2731 0.5671 0.4096 0.9769 0.4096 0.4062 0 0.7302-0.1364 0.9723-0.4096 0.242-0.2731 0.363-0.6456 0.363-1.118 0-0.4719-0.121-0.8433-0.363-1.117-0.242-0.2748-0.5661-0.4129-0.9723-0.4129zm12.89 0c-0.1711 0-0.3381 0.03568-0.5006 0.1066-0.1625 0.07086-0.3196 0.1691-0.4717 0.2952v-0.3208h-0.4872v2.896h0.4872v-2.162c0.1331-0.102 0.2722-0.1863 0.4174-0.252s0.2843-0.09876 0.4174-0.09876c0.1296 0 0.2351 0.01809 0.3163 0.05438 0.08128 0.03456 0.1433 0.08837 0.1865 0.1609 0.04148 0.06569 0.06989 0.1577 0.08546 0.2753 0.01556 0.1158 0.02333 0.2398 0.02333 0.3729v1.649h0.4872v-1.88c0-0.3543-0.08111-0.6251-0.2453-0.8138-0.1642-0.1884-0.403-0.283-0.7161-0.283zm2.981 0c-0.159 0-0.3188 0.03518-0.4795 0.1043-0.1608 0.0674-0.2972 0.1625-0.4096 0.2853-0.121 0.1314-0.2166 0.2869-0.2875 0.4684-0.06916 0.1798-0.1043 0.3949-0.1043 0.6439 0 0.4546 0.1008 0.807 0.303 1.058 0.204 0.2489 0.479 0.3729 0.8246 0.3729 0.2074 0 0.3786-0.02844 0.5117-0.08548 0.1348-0.05877 0.2749-0.1466 0.4218-0.2642v0.2642c0 0.1175-0.01293 0.2235-0.03886 0.3185-0.02592 0.09508-0.06937 0.1768-0.1299 0.2442-0.0605 0.07088-0.1442 0.1256-0.253 0.1654-0.1089 0.03972-0.247 0.05995-0.4129 0.05995-0.1729 0-0.3455-0.02326-0.5183-0.06989-0.1729-0.04495-0.299-0.08321-0.3785-0.1144h-0.02664v0.4984c0.1417 0.03976 0.2855 0.0703 0.4306 0.09105 0.1469 0.02247 0.2979 0.03329 0.4517 0.03329 0.4632 0 0.8058-0.1153 1.029-0.3452 0.223-0.2299 0.3341-0.5905 0.3341-1.081v-2.566h-0.4562l-0.03108 0.1243c-0.1262-0.06916-0.2456-0.1203-0.3596-0.1532-0.1124-0.03456-0.253-0.05217-0.4207-0.05217zm8.149 0c-0.4097 0-0.7348 0.1381-0.9769 0.4129-0.2403 0.2731-0.3608 0.6444-0.3608 1.117 0 0.4719 0.1205 0.8445 0.3608 1.118 0.242 0.2731 0.5671 0.4096 0.9769 0.4096 0.4062 0 0.7303-0.1364 0.9724-0.4096 0.242-0.2731 0.363-0.6456 0.363-1.118 0-0.4719-0.121-0.8433-0.363-1.117-0.242-0.2748-0.5661-0.4129-0.9724-0.4129zm3.226 0c-0.4097 0-0.7348 0.1381-0.9769 0.4129-0.2403 0.2731-0.3608 0.6444-0.3608 1.117 0 0.4719 0.1205 0.8445 0.3608 1.118 0.242 0.2731 0.5671 0.4096 0.9769 0.4096 0.4062 0 0.7303-0.1364 0.9724-0.4096 0.242-0.2731 0.363-0.6456 0.363-1.118 0-0.4719-0.121-0.8433-0.363-1.117-0.242-0.2748-0.5661-0.4129-0.9724-0.4129zm11.92 0c-0.1711 0-0.3381 0.03568-0.5006 0.1066-0.1625 0.07086-0.3196 0.1691-0.4717 0.2952v-0.3208h-0.4873v2.896h0.4873v-2.162c0.1331-0.102 0.2721-0.1863 0.4174-0.252 0.1452-0.0657 0.2842-0.09876 0.4174-0.09876 0.1296 0 0.2351 0.01809 0.3163 0.05438 0.08128 0.03456 0.1433 0.08837 0.1865 0.1609 0.0415 0.06569 0.06991 0.1577 0.08549 0.2753 0.01555 0.1158 0.0233 0.2398 0.0233 0.3729v1.649h0.4872v-1.88c0-0.3543-0.08109-0.6251-0.2453-0.8138-0.1642-0.1884-0.403-0.283-0.7161-0.283zm11.91 0c-0.4218 0-0.7632 0.1391-1.022 0.4174-0.2576 0.2783-0.3863 0.6541-0.3863 1.127 0 0.4788 0.1355 0.849 0.4051 1.11 0.2697 0.2592 0.645 0.3896 1.125 0.3896 0.1884 0 0.3672-0.02435 0.5384-0.07103 0.1711-0.04667 0.3397-0.104 0.5039-0.1732v-0.5316h-0.02666c-0.08466 0.07603-0.2268 0.1536-0.4273 0.2331-0.1988 0.0778-0.3968 0.1165-0.5939 0.1165-0.1487 0-0.2851-0.02066-0.4096-0.06216-0.1228-0.04149-0.2298-0.1035-0.3196-0.1864-0.09332-0.08469-0.1662-0.1928-0.2198-0.3241-0.05359-0.1331-0.08104-0.2881-0.08104-0.4662h2.135v-0.2653c0-0.42-0.1059-0.7428-0.3186-0.9712-0.2109-0.2282-0.5118-0.343-0.9024-0.343zm12.81 0c-0.4218 0-0.7621 0.1391-1.021 0.4174-0.2576 0.2783-0.3863 0.6541-0.3863 1.127 0 0.4788 0.1344 0.849 0.404 1.11 0.2697 0.2592 0.645 0.3896 1.125 0.3896 0.1884 0 0.3683-0.02435 0.5394-0.07103 0.1711-0.04667 0.3386-0.104 0.5028-0.1732v-0.5316h-0.02552c-0.08467 0.07603-0.2279 0.1536-0.4284 0.2331-0.1988 0.0778-0.3968 0.1165-0.5939 0.1165-0.1487 0-0.2851-0.02066-0.4096-0.06216-0.1228-0.04149-0.2287-0.1035-0.3185-0.1864-0.09333-0.08469-0.1673-0.1928-0.2209-0.3241-0.05359-0.1331-0.0799-0.2881-0.0799-0.4662h2.133v-0.2653c0-0.42-0.1059-0.7428-0.3186-0.9712-0.2109-0.2282-0.5118-0.343-0.9025-0.343zm9.598 0c-0.4097 0-0.7359 0.1381-0.978 0.4129-0.2403 0.2731-0.3608 0.6444-0.3608 1.117 0 0.4719 0.1205 0.8445 0.3608 1.118 0.242 0.2731 0.5682 0.4096 0.978 0.4096 0.4062 0 0.7291-0.1364 0.9712-0.4096 0.2421-0.2731 0.364-0.6456 0.364-1.118 0-0.4719-0.1221-0.8433-0.364-1.117-0.242-0.2748-0.565-0.4129-0.9712-0.4129zm23.08 0c-0.4217 0-0.7621 0.1391-1.021 0.4174-0.2576 0.2783-0.3862 0.6541-0.3862 1.127 0 0.4788 0.1343 0.849 0.404 1.11 0.2696 0.2592 0.645 0.3896 1.125 0.3896 0.1884 0 0.3683-0.02435 0.5394-0.07103 0.1711-0.04667 0.3386-0.104 0.5028-0.1732v-0.5316h-0.02552c-0.08467 0.07603-0.2279 0.1536-0.4284 0.2331-0.1988 0.0778-0.3968 0.1165-0.5939 0.1165-0.1486 0-0.2851-0.02066-0.4096-0.06216-0.1228-0.04149-0.2287-0.1035-0.3186-0.1864-0.09331-0.08469-0.1673-0.1928-0.2209-0.3241-0.05359-0.1331-0.0799-0.2881-0.0799-0.4662h2.134v-0.2653c0-0.42-0.1071-0.7428-0.3197-0.9712-0.2109-0.2282-0.5117-0.343-0.9025-0.343zm4.504 0c-0.159 0-0.3188 0.03518-0.4795 0.1043-0.1608 0.0674-0.2972 0.1625-0.4096 0.2853-0.121 0.1314-0.2177 0.2869-0.2886 0.4684-0.06916 0.1798-0.1032 0.3949-0.1032 0.6439 0 0.4546 0.1008 0.807 0.303 1.058 0.204 0.2489 0.479 0.3729 0.8246 0.3729 0.2074 0 0.3775-0.02844 0.5106-0.08548 0.1348-0.05877 0.276-0.1466 0.4229-0.2642v0.2642c0 0.1175-0.01291 0.2235-0.03888 0.3185-0.02592 0.09508-0.0694 0.1768-0.1299 0.2442-0.06053 0.07088-0.1452 0.1256-0.2542 0.1654-0.1089 0.03972-0.2458 0.05995-0.4118 0.05995-0.1729 0-0.3455-0.02326-0.5184-0.06989-0.1729-0.04495-0.299-0.08321-0.3785-0.1144h-0.02665v0.4984c0.1417 0.03976 0.2854 0.0703 0.4306 0.09105 0.1469 0.02247 0.2968 0.03329 0.4507 0.03329 0.4632 0 0.807-0.1153 1.03-0.3452 0.223-0.2299 0.3341-0.5905 0.3341-1.081v-2.566h-0.4562l-0.03108 0.1243c-0.1262-0.06916-0.2466-0.1203-0.3608-0.1532-0.1124-0.03456-0.2519-0.05217-0.4196-0.05217zm10.03 0c-0.4096 0-0.7348 0.1381-0.9769 0.4129-0.2403 0.2731-0.3607 0.6444-0.3607 1.117 0 0.4719 0.1205 0.8445 0.3607 1.118 0.242 0.2731 0.5671 0.4096 0.9769 0.4096 0.4062 0 0.7302-0.1364 0.9724-0.4096 0.2421-0.2731 0.363-0.6456 0.363-1.118 0-0.4719-0.1209-0.8433-0.363-1.117-0.242-0.2748-0.5661-0.4129-0.9724-0.4129zm11.92 0c-0.1711 0-0.3381 0.03568-0.5006 0.1066-0.1625 0.07086-0.3196 0.1691-0.4717 0.2952v-0.3208h-0.4872v2.896h0.4872v-2.162c0.1331-0.102 0.2722-0.1863 0.4174-0.252s0.2842-0.09876 0.4174-0.09876c0.1296 0 0.2351 0.01809 0.3163 0.05438 0.08126 0.03456 0.1433 0.08837 0.1865 0.1609 0.04147 0.06569 0.06989 0.1577 0.08546 0.2753 0.01557 0.1158 0.02331 0.2398 0.02331 0.3729v1.649h0.4872v-1.88c0-0.3543-0.08108-0.6251-0.2453-0.8138-0.1642-0.1887-0.403-0.283-0.7161-0.283zm8.939 0c-0.4217 0-0.7621 0.1391-1.021 0.4174-0.2576 0.2783-0.3863 0.6541-0.3863 1.127 0 0.4788 0.1344 0.849 0.404 1.11 0.2696 0.2592 0.645 0.3896 1.125 0.3896 0.1884 0 0.3683-0.02435 0.5394-0.07103 0.1711-0.04667 0.3386-0.104 0.5028-0.1732v-0.5316h-0.02552c-0.08469 0.07603-0.228 0.1536-0.4284 0.2331-0.1988 0.0778-0.3957 0.1165-0.5927 0.1165-0.1487 0-0.2862-0.02066-0.4107-0.06216-0.1228-0.04149-0.2287-0.1035-0.3186-0.1864-0.09331-0.08469-0.1662-0.1928-0.2198-0.3241-0.05359-0.1331-0.08104-0.2881-0.08104-0.4662h2.135v-0.2653c0-0.42-0.1071-0.7428-0.3197-0.9712-0.2109-0.2282-0.5118-0.343-0.9024-0.343zm3.163 0c-0.4218 0-0.7621 0.1391-1.021 0.4174-0.2576 0.2783-0.3863 0.6541-0.3863 1.127 0 0.4788 0.1344 0.849 0.404 1.11 0.2696 0.2592 0.645 0.3896 1.125 0.3896 0.1884 0 0.3683-0.02435 0.5394-0.07103 0.1711-0.04667 0.3386-0.104 0.5028-0.1732v-0.5316h-0.02551c-0.08467 0.07603-0.228 0.1536-0.4284 0.2331-0.1988 0.0778-0.3968 0.1165-0.5939 0.1165-0.1487 0-0.2851-0.02066-0.4096-0.06216-0.1228-0.04149-0.2287-0.1035-0.3185-0.1864-0.0933-0.08469-0.1673-0.1928-0.2209-0.3241-0.05359-0.1331-0.07991-0.2881-0.07991-0.4662h2.133v-0.2653c0-0.42-0.1059-0.7428-0.3185-0.9712-0.2109-0.2282-0.5118-0.343-0.9024-0.343zm-99.62 0.01108c-0.1746 0-0.3519 0.01551-0.5316 0.04664-0.1798 0.0311-0.3167 0.05956-0.4118 0.08546v0.495h0.02552c0.1676-0.06394 0.33-0.1126 0.4872-0.1454 0.1573-0.03456 0.3005-0.05217 0.4284-0.05217 0.1054 0 0.2062 0.00726 0.303 0.02109s0.1795 0.04016 0.2486 0.0799c0.07257 0.0415 0.1285 0.09945 0.1665 0.172 0.03976 0.07258 0.05995 0.1636 0.05995 0.2742v0.07545c-0.2835 0.01384-0.5498 0.03452-0.7968 0.06219-0.2471 0.02764-0.4586 0.07983-0.6348 0.1576-0.1746 0.0778-0.309 0.1853-0.404 0.3219-0.09331 0.1348-0.1398 0.3122-0.1398 0.5316 0 0.2679 0.09047 0.4887 0.2719 0.6615 0.1815 0.1729 0.4028 0.2586 0.6638 0.2586 0.1417 0 0.2653-0.01341 0.3707-0.04107 0.1054-0.02593 0.1985-0.05905 0.2797-0.09876 0.06916-0.03112 0.1405-0.07247 0.2131-0.1243 0.07434-0.05359 0.1333-0.09492 0.1764-0.1243v0.3086h0.484v-1.966c0-0.1867-0.02842-0.3433-0.08547-0.4695-0.05704-0.1262-0.1397-0.2291-0.2486-0.3086-0.1106-0.08125-0.2419-0.1381-0.394-0.1709-0.1504-0.03458-0.3277-0.05106-0.5316-0.05106zm31.33 0c-0.1849 0-0.3525 0.02376-0.5028 0.07219-0.1487 0.04666-0.2717 0.1108-0.3685 0.192-0.1002 0.08297-0.1752 0.1765-0.2253 0.2819-0.04841 0.1054-0.07217 0.2182-0.07217 0.3374 0 0.1902 0.05217 0.3514 0.1576 0.4828 0.1072 0.1296 0.2876 0.2278 0.5416 0.2952 0.09161 0.02418 0.1935 0.04695 0.3042 0.06768 0.1124 0.02074 0.2028 0.03883 0.2719 0.05438 0.1867 0.0415 0.3128 0.09109 0.3785 0.1499 0.06571 0.05876 0.09878 0.1456 0.09878 0.2597 0 0.1486-0.06104 0.2572-0.182 0.3263-0.121 0.0691-0.2885 0.1032-0.5028 0.1032-0.1729 0-0.3533-0.03359-0.5416-0.101-0.1884-0.06917-0.3601-0.1617-0.5139-0.2775h-0.02552v0.5472c0.121 0.06052 0.2704 0.1168 0.4485 0.1687 0.1797 0.05013 0.3773 0.07546 0.5916 0.07546 0.3785 0 0.6768-0.08478 0.8945-0.2542 0.2195-0.1694 0.3285-0.386 0.3285-0.6507 0-0.2109-0.06156-0.3805-0.1842-0.5083-0.1228-0.1262-0.2964-0.2157-0.5228-0.2675-0.07433-0.01729-0.1684-0.03587-0.2808-0.05661-0.1107-0.02073-0.2109-0.04142-0.3008-0.06216-0.1625-0.03804-0.2792-0.08712-0.3518-0.1476-0.07434-0.06053-0.1121-0.1504-0.1121-0.2697 0-0.1348 0.06154-0.2367 0.1842-0.3042 0.1228-0.06916 0.2726-0.1032 0.4506-0.1032 0.1711 0 0.3459 0.03148 0.5239 0.09547 0.178 0.06222 0.3295 0.1392 0.454 0.2308h0.02551v-0.5206c-0.1175-0.06052-0.2648-0.1117-0.4429-0.1531-0.1763-0.04322-0.351-0.06439-0.5239-0.06439zm49.62 0c-0.1849 0-0.3535 0.02376-0.5039 0.07219-0.1486 0.04666-0.2706 0.1108-0.3674 0.192-0.1002 0.08297-0.1763 0.1765-0.2264 0.2819-0.04841 0.1054-0.07217 0.2182-0.07217 0.3374 0 0.1902 0.05331 0.3514 0.1587 0.4828 0.1072 0.1296 0.2876 0.2278 0.5416 0.2952 0.09161 0.02418 0.1924 0.04695 0.303 0.06768 0.1124 0.02074 0.2028 0.03883 0.2719 0.05438 0.1867 0.0415 0.3128 0.09109 0.3785 0.1499 0.06571 0.05876 0.09878 0.1456 0.09878 0.2597 0 0.1486-0.0599 0.2572-0.181 0.3263-0.121 0.0691-0.2896 0.1032-0.5039 0.1032-0.1729 0-0.3533-0.03359-0.5416-0.101-0.1884-0.06917-0.3589-0.1617-0.5128-0.2775h-0.02665v0.5472c0.121 0.06052 0.2704 0.1168 0.4484 0.1687 0.1797 0.05013 0.3773 0.07546 0.5916 0.07546 0.3786 0 0.6768-0.08478 0.8945-0.2542 0.2195-0.1694 0.3297-0.386 0.3297-0.6507 0-0.2109-0.06156-0.3805-0.1842-0.5083-0.1228-0.1262-0.2974-0.2157-0.5239-0.2675-0.07434-0.01729-0.1674-0.03587-0.2797-0.05661-0.1106-0.02073-0.2109-0.04142-0.3008-0.06216-0.1625-0.03804-0.2803-0.08712-0.353-0.1476-0.07434-0.06053-0.111-0.1504-0.111-0.2697 0-0.1348 0.06042-0.2367 0.1832-0.3042 0.1228-0.06916 0.2737-0.1032 0.4517-0.1032 0.1711 0 0.3459 0.03148 0.5239 0.09547 0.1781 0.06222 0.3284 0.1392 0.4529 0.2308h0.02666v-0.5206c-0.1175-0.06052-0.266-0.1117-0.444-0.1531-0.1763-0.04322-0.35-0.06439-0.5228-0.06439zm-55.32 0.00224c-0.427 0-0.7712 0.1344-1.032 0.404-0.2592 0.2696-0.3885 0.6416-0.3885 1.116 0 0.2541 0.03409 0.4758 0.1032 0.666 0.06917 0.1902 0.1668 0.3473 0.293 0.4717 0.1244 0.1244 0.2738 0.2175 0.4484 0.2797 0.1746 0.06052 0.3669 0.09105 0.5763 0.09105 0.1642 0 0.3187-0.02116 0.4639-0.0644 0.1469-0.04321 0.3015-0.1042 0.464-0.182v-0.5361h-0.02552c-0.03632 0.02938-0.08542 0.06506-0.1476 0.1066-0.06223 0.03975-0.1289 0.07689-0.1998 0.1132-0.08125 0.0415-0.1733 0.07509-0.2753 0.101-0.102 0.02593-0.2023 0.03886-0.3008 0.03886-0.2835 0-0.5043-0.09303-0.6615-0.2797-0.1556-0.1884-0.2331-0.4567-0.2331-0.8058 0-0.3595 0.07962-0.632 0.2386-0.8172 0.1608-0.1867 0.3794-0.2797 0.6558-0.2797 0.1504 0 0.3044 0.03101 0.4617 0.09326 0.159 0.06222 0.3131 0.1506 0.4617 0.2664h0.02551v-0.5416c-0.1331-0.0674-0.2799-0.1243-0.4406-0.1709-0.159-0.04667-0.3213-0.06991-0.4873-0.06991zm-64.5 0.06768v2.896h0.4873v-2.057c0.1296-0.1054 0.2651-0.1907 0.4051-0.2564 0.14-0.0674 0.2847-0.101 0.4351-0.101 0.09332 0 0.1735 0.00466 0.2408 0.01332 0.06916 0.00691 0.1406 0.01823 0.2131 0.03552h0.02554v-0.4995c-0.07603-0.01212-0.1329-0.01987-0.171-0.02333-0.03802-0.00516-0.09955-0.00775-0.1842-0.00775-0.1538 0-0.3042 0.03198-0.4529 0.09768-0.1469 0.06392-0.3181 0.1741-0.5117 0.3297v-0.4273zm5.133 0 1.164 2.896h0.4906l1.171-2.896h-0.5106l-0.8888 2.304-0.8968-2.304zm3.469 0v2.896h0.4872v-2.896zm4.771 0v2.896h0.4873v-2.896zm43.07 0v2.896h0.4872v-2.057c0.1296-0.1054 0.264-0.1907 0.404-0.2564 0.14-0.0674 0.2859-0.101 0.4362-0.101 0.09331 0 0.1734 0.00466 0.2408 0.01332 0.06917 0.00691 0.1394 0.01823 0.212 0.03552h0.02665v-0.4995c-0.07603-0.01212-0.1329-0.01987-0.171-0.02333-0.03801-0.00516-0.09955-0.00775-0.1842-0.00775-0.1538 0-0.3053 0.03198-0.454 0.09768-0.1469 0.06392-0.317 0.1741-0.5106 0.3297v-0.4273zm1.949 0 1.164 2.896h0.4906l1.171-2.896h-0.5106l-0.8888 2.304-0.8968-2.304zm3.469 0v2.896h0.4872v-2.896zm17.12 0v2.896h0.4872v-2.057c0.1296-0.1054 0.264-0.1907 0.404-0.2564 0.14-0.0674 0.2858-0.101 0.4362-0.101 0.09333 0 0.1734 0.00466 0.2408 0.01332 0.06916 0.00691 0.1394 0.01823 0.212 0.03552h0.02665v-0.4995c-0.07603-0.01212-0.1329-0.01987-0.171-0.02333-0.03801-0.00516-0.09955-0.00775-0.1842-0.00775-0.1538 0-0.3053 0.03198-0.454 0.09768-0.1469 0.06392-0.317 0.1741-0.5106 0.3297v-0.4273zm8.297 0v1.879c0 0.3595 0.08477 0.6325 0.2542 0.8189 0.1694 0.1849 0.4061 0.2775 0.7103 0.2775 0.1815 0 0.3469-0.03406 0.4973-0.1032 0.1504-0.06916 0.3075-0.169 0.4717-0.2986v0.3219h0.4872v-2.896h-0.4872v2.162c-0.1296 0.102-0.2692 0.1852-0.4196 0.2508-0.1486 0.0657-0.2867 0.09878-0.4129 0.09878-0.1417 0-0.2498-0.01759-0.3241-0.05217-0.07434-0.03456-0.1342-0.08933-0.181-0.1654-0.04495-0.07433-0.07496-0.1638-0.08881-0.2675-0.01381-0.1054-0.01996-0.2316-0.01996-0.3785v-1.648zm3.381 0v2.896h0.4873v-2.057c0.1296-0.1054 0.264-0.1907 0.404-0.2564 0.14-0.0674 0.2859-0.101 0.4362-0.101 0.09333 0 0.1734 0.00466 0.2408 0.01332 0.06916 0.00691 0.1394 0.01823 0.212 0.03552h0.02665v-0.4995c-0.07603-0.01212-0.1329-0.01987-0.1709-0.02333-0.03802-0.00516-0.09957-0.00775-0.1842-0.00775-0.1538 0-0.3053 0.03198-0.454 0.09768-0.1469 0.06392-0.317 0.1741-0.5106 0.3297v-0.4273zm11.28 0v2.896h0.4873v-2.896zm14.66 0v2.896h0.4872v-2.057c0.1296-0.1054 0.2651-0.1907 0.4051-0.2564 0.14-0.0674 0.2847-0.101 0.4351-0.101 0.0933 0 0.1746 0.00466 0.242 0.01332 0.06916 0.00691 0.1394 0.01823 0.212 0.03552h0.02552v-0.4995c-0.07606-0.01212-0.1329-0.01987-0.171-0.02333-0.03802-0.00516-0.09958-0.00775-0.1842-0.00775-0.1538 0-0.3042 0.03198-0.4528 0.09768-0.1469 0.06392-0.3181 0.1741-0.5117 0.3297v-0.4273zm6.91 0v2.896h0.4872v-2.896zm-69.05 0.3208c0.2592 0 0.4521 0.06981 0.5785 0.2098 0.1279 0.14 0.1925 0.338 0.1943 0.5939h-1.659c0.02075-0.2282 0.1081-0.4189 0.2619-0.5728 0.1556-0.1538 0.3639-0.2308 0.6251-0.2308zm12.81 0c0.2593 0 0.4521 0.06981 0.5785 0.2098 0.1279 0.14 0.1925 0.338 0.1942 0.5939h-1.659c0.02075-0.2282 0.1081-0.4189 0.2619-0.5728 0.1555-0.1538 0.3639-0.2308 0.6251-0.2308zm32.68 0c0.2592 0 0.4521 0.06981 0.5785 0.2098 0.1279 0.14 0.1925 0.338 0.1943 0.5939h-1.659c0.02075-0.2282 0.1081-0.4189 0.2619-0.5728 0.1556-0.1538 0.3639-0.2308 0.6251-0.2308zm35.4 0c0.2592 0 0.4521 0.06981 0.5785 0.2098 0.1279 0.14 0.1925 0.338 0.1942 0.5939h-1.659c0.02075-0.2282 0.1081-0.4189 0.2619-0.5728 0.1555-0.1538 0.3639-0.2308 0.6251-0.2308zm3.163 0c0.2592 0 0.4521 0.06981 0.5785 0.2098 0.1279 0.14 0.1925 0.338 0.1942 0.5939h-1.659c0.02075-0.2282 0.1081-0.4189 0.2619-0.5728 0.1555-0.1538 0.3639-0.2308 0.6251-0.2308zm-135.1 0.01888c0.261 0 0.4658 0.09092 0.6126 0.2741 0.1469 0.1815 0.2198 0.4596 0.2198 0.8348 0 0.3664-0.07445 0.6433-0.2231 0.8303-0.1469 0.1849-0.3501 0.2775-0.6092 0.2775-0.2627 0-0.4668-0.09302-0.6138-0.2797-0.1469-0.1884-0.2209-0.465-0.2209-0.828 0-0.3751 0.07234-0.653 0.2175-0.8348 0.1469-0.1832 0.3527-0.2742 0.6172-0.2742zm24.02 0c0.261 0 0.4658 0.09092 0.6126 0.2741 0.1469 0.1815 0.2198 0.4596 0.2198 0.8348 0 0.3664-0.07444 0.6433-0.2231 0.8303-0.1469 0.1849-0.3501 0.2775-0.6092 0.2775-0.2627 0-0.4669-0.09302-0.6138-0.2797-0.1469-0.1884-0.2209-0.465-0.2209-0.828 0-0.3751 0.07236-0.653 0.2176-0.8348 0.1469-0.1832 0.3527-0.2742 0.6172-0.2742zm3.226 0c0.261 0 0.4646 0.09092 0.6115 0.2741 0.1469 0.1815 0.2209 0.4596 0.2209 0.8348 0 0.3664-0.07445 0.6433-0.2231 0.8303-0.1469 0.1849-0.3501 0.2775-0.6092 0.2775-0.2627 0-0.4668-0.09302-0.6138-0.2797-0.1469-0.1884-0.2209-0.465-0.2209-0.828 0-0.3751 0.07234-0.653 0.2175-0.8348 0.1469-0.1832 0.3527-0.2742 0.6172-0.2742zm46.24 0c0.261 0 0.4646 0.09092 0.6115 0.2741 0.1469 0.1815 0.2198 0.4596 0.2198 0.8348 0 0.3664-0.07445 0.6433-0.2231 0.8303-0.1469 0.1849-0.349 0.2775-0.6081 0.2775-0.2627 0-0.468-0.09302-0.6149-0.2797-0.1469-0.1884-0.2209-0.465-0.2209-0.828 0-0.3751 0.07348-0.653 0.2187-0.8348 0.1469-0.1832 0.3527-0.2742 0.6172-0.2742zm37.62 0c0.261 0 0.4646 0.09092 0.6115 0.2741 0.1469 0.1815 0.2209 0.4596 0.2209 0.8348 0 0.3664-0.07445 0.6433-0.2231 0.8303-0.1469 0.1849-0.3501 0.2775-0.6092 0.2775-0.2627 0-0.4668-0.09302-0.6138-0.2797-0.1469-0.1884-0.2209-0.465-0.2209-0.828 0-0.3751 0.07234-0.653 0.2175-0.8348 0.1469-0.1832 0.3527-0.2742 0.6172-0.2742zm-95.13 0.01777c0.1106 0 0.2212 0.01291 0.3319 0.03883 0.1124 0.02421 0.2334 0.06553 0.363 0.1243v1.579c-0.1193 0.09161-0.2506 0.1645-0.394 0.2198-0.1417 0.05357-0.2834 0.08104-0.4251 0.08104-0.2645 0-0.4531-0.08428-0.5671-0.252-0.114-0.1676-0.172-0.4143-0.172-0.7393 0-0.3422 0.07707-0.603 0.2308-0.7825 0.1538-0.1796 0.3647-0.2697 0.6325-0.2697zm85.19 0c0.1106 0 0.2212 0.01291 0.3319 0.03883 0.1123 0.02421 0.2333 0.06553 0.363 0.1243v1.579c-0.1193 0.09161-0.2506 0.1645-0.394 0.2198-0.1417 0.05357-0.2834 0.08104-0.4251 0.08104-0.2645 0-0.4542-0.08428-0.5683-0.252-0.1141-0.1676-0.171-0.4143-0.171-0.7393 2e-5 -0.3422 0.07706-0.603 0.2309-0.7825 0.1539-0.1798 0.3647-0.2697 0.6325-0.2697zm-93.31 0.00775c0.1228 0 0.236 0.01083 0.3397 0.03331 0.1037 0.02247 0.2216 0.0633 0.353 0.1221v1.662c-0.1228 0.09679-0.2556 0.1764-0.3974 0.2386-0.1417 0.06053-0.2813 0.09103-0.4196 0.09103-0.2592 0-0.4474-0.08944-0.5649-0.2675-0.1175-0.1798-0.1764-0.4408-0.1764-0.7848 0-0.3492 0.07541-0.6189 0.2275-0.8093 0.1521-0.1902 0.3651-0.2853 0.6382-0.2853zm22.68 0c0.1228 0 0.2359 0.01083 0.3397 0.03331 0.1037 0.02247 0.2205 0.0633 0.3518 0.1221v1.662c-0.1228 0.09679-0.2546 0.1764-0.3963 0.2386-0.1417 0.06053-0.2813 0.09103-0.4196 0.09103-0.2593 0-0.4486-0.08944-0.5661-0.2675-0.1175-0.1798-0.1754-0.4408-0.1754-0.7848 0-0.3492 0.07541-0.6189 0.2275-0.8093 0.1521-0.1902 0.3651-0.2853 0.6382-0.2853zm11.73 0c0.1228 0 0.2359 0.01083 0.3397 0.03331 0.1037 0.02247 0.2205 0.0633 0.3518 0.1221v1.662c-0.1228 0.09679-0.2545 0.1764-0.3963 0.2386-0.1417 0.06053-0.2824 0.09103-0.4207 0.09103-0.2592 0-0.4474-0.08944-0.5649-0.2675-0.1175-0.1798-0.1764-0.4408-0.1764-0.7848 0-0.3492 0.07655-0.6189 0.2286-0.8093 0.1521-0.1902 0.3651-0.2853 0.6382-0.2853zm96.04 0c0.1228 0 0.2359 0.01083 0.3397 0.03331 0.1037 0.02247 0.2205 0.0633 0.3518 0.1221v1.662c-0.1228 0.09679-0.2545 0.1764-0.3963 0.2386-0.1417 0.06053-0.2813 0.09103-0.4196 0.09103-0.2592 0-0.4486-0.08944-0.5661-0.2675-0.1175-0.1798-0.1754-0.4408-0.1754-0.7848 0-0.3492 0.07541-0.6189 0.2276-0.8093 0.1521-0.1902 0.3651-0.2853 0.6382-0.2853zm-30.28 0.01776c0.2541 0 0.4387 0.08998 0.5527 0.2697 0.1141 0.1781 0.171 0.4402 0.171 0.786 0 0.3786-0.07706 0.6564-0.2308 0.8348-0.1521 0.1763-0.363 0.2642-0.6325 0.2642-0.1261 0-0.2394-0.01132-0.3397-0.03551-0.09854-0.02421-0.2169-0.06764-0.3552-0.1299v-1.659c0.1244-0.09678 0.2588-0.176 0.404-0.2364 0.1452-0.06223 0.2889-0.09326 0.4306-0.09326zm-71.72 0.9934v0.8058c-0.121 0.09332-0.2523 0.1746-0.394 0.242-0.1417 0.0657-0.2984 0.09768-0.4695 0.09768-0.2057 0-0.3593-0.04132-0.4595-0.1243-0.1002-0.08467-0.1498-0.2092-0.1498-0.3752 0-0.1469 0.04343-0.2622 0.1299-0.3452 0.08643-0.0847 0.1996-0.1468 0.3397-0.1865 0.1175-0.03284 0.2757-0.05821 0.4762-0.07548 0.2023-0.01729 0.3786-0.0302 0.5272-0.03885zm104.3 0.7803v0.7393h0.6194v-0.7393z" style="fill:#000000;stroke-width:.1712;stroke:#000000"/>
  <path d="m-338 234.1c-0.5192 0-0.9991 0.08774-1.441 0.2631-0.4383 0.1753-0.8064 0.4277-1.103 0.7581-0.3102 0.3472-0.5452 0.7655-0.707 1.254-0.1618 0.4855-0.243 1.035-0.243 1.648 0 0.6234 0.08127 1.178 0.243 1.664 0.1652 0.4855 0.3992 0.8962 0.7024 1.23 0.3034 0.3338 0.6706 0.587 1.102 0.7626 0.4349 0.1753 0.9172 0.263 1.446 0.263 0.5428 0 1.025-0.08557 1.446-0.2575 0.4248-0.1719 0.7922-0.4276 1.102-0.7683 0.3001-0.327 0.533-0.7354 0.6984-1.224 0.1686-0.4922 0.2531-1.049 0.2531-1.67 0-0.6206-0.08235-1.174-0.2475-1.663-0.1619-0.4888-0.3969-0.9024-0.7036-1.24-0.3-0.327-0.6649-0.5785-1.097-0.7535-0.4282-0.1787-0.9127-0.2675-1.452-0.2675zm8.149 0c-0.5192 0-0.999 0.08774-1.441 0.2631-0.4383 0.1753-0.8053 0.4277-1.102 0.7581-0.3102 0.3472-0.5463 0.7655-0.7081 1.254-0.1619 0.4855-0.2431 1.035-0.2431 1.648 0 0.6234 0.08126 1.178 0.2431 1.664 0.1652 0.4855 0.3992 0.8962 0.7024 1.23 0.3034 0.3338 0.6706 0.587 1.102 0.7626 0.4349 0.1753 0.9172 0.263 1.446 0.263 0.5428 0 1.026-0.08557 1.447-0.2575 0.4248-0.1719 0.7922-0.4276 1.102-0.7683 0.3-0.327 0.5319-0.7354 0.6973-1.224 0.1686-0.4922 0.2531-1.049 0.2531-1.67 0-0.6206-0.08235-1.174-0.2476-1.663-0.1619-0.4888-0.3958-0.9024-0.7024-1.24-0.3-0.327-0.666-0.5785-1.098-0.7535-0.4282-0.1787-0.9127-0.2675-1.452-0.2675zm-73.71 0.01997c-0.8195 0-1.495 0.2026-2.028 0.607-0.5326 0.4012-0.799 0.9166-0.799 1.547 0 0.5495 0.1603 0.9956 0.4806 1.339 0.3236 0.3405 0.82 0.582 1.487 0.7234 0.3304 0.0674 0.641 0.1226 0.9348 0.1665 0.2966 0.04382 0.5717 0.1002 0.8246 0.1676 0.3338 0.08761 0.5819 0.21 0.7439 0.3685 0.1652 0.1584 0.2475 0.4043 0.2475 0.7382 0 0.3877-0.1733 0.6984-0.5206 0.9314-0.3439 0.2326-0.8257 0.3485-1.446 0.3485-0.4382 0-0.9076-0.0856-1.407-0.2575-0.499-0.1719-0.9388-0.4168-1.32-0.7336h-0.07105v1.254c0.4484 0.1989 0.8883 0.3484 1.32 0.4495 0.4349 0.1011 0.9246 0.1521 1.467 0.1521 0.5057 0 0.9371-0.06064 1.294-0.182 0.3608-0.1214 0.6757-0.2892 0.9456-0.505 0.2462-0.1989 0.4368-0.4427 0.5717-0.7291 0.1382-0.2865 0.2076-0.5757 0.2076-0.8689 0-0.5394-0.1419-0.9598-0.4251-1.26-0.2832-0.3001-0.7047-0.5243-1.264-0.6729-0.2764-0.07079-0.6132-0.139-1.011-0.2064-0.3978-0.0674-0.7041-0.1249-0.9201-0.172-0.4079-0.0944-0.6928-0.2309-0.8547-0.4096-0.1619-0.1787-0.2431-0.4246-0.2431-0.7382 0-0.3506 0.1614-0.6376 0.485-0.8604 0.327-0.2225 0.7592-0.3341 1.295-0.3341 0.4889 0 0.9655 0.08128 1.431 0.2431 0.4686 0.1584 0.8468 0.3589 1.133 0.6018h0.06991v-1.183c-0.3405-0.1483-0.7314-0.2729-1.173-0.374-0.4416-0.1012-0.9269-0.1521-1.456-0.1521zm-19.87 0.1365 1.992 7.53h1.102l1.547-6.251 1.583 6.251h1.127l1.958-7.53h-0.9814l-1.573 6.319-1.573-6.319h-1.017l-1.557 6.263-1.583-6.263zm10.78 0v7.53h4.961v-0.89h-3.959v-2.796h3.959v-0.89h-3.959v-2.063h3.959v-0.89zm12.62 0v0.8899h2.69v6.638h1.001v-6.638h2.69v-0.8899zm10.17 0 2.74 7.53h1.336l2.74-7.53h-1.021l-2.362 6.626-2.361-6.626zm9.519 0-2.74 7.53h1.017l0.7382-2.099h3.256l0.7382 2.099h1.067l-2.74-7.53zm5.219 0v7.53h4.764v-0.89h-3.763v-6.638zm5.762 0v7.53h4.764v-0.89h-3.763v-6.638zm5.762 0v7.53h4.961v-0.89h-3.959v-2.796h3.959v-0.89h-3.959v-2.063h3.959v-0.89zm5.573 0 2.66 4.334v3.196h1.001v-3.302l2.649-4.228h-1.067l-2.078 3.369-2.059-3.369zm10.99 0v7.53h1.001v-3.626h3.272v-0.8888h-3.272v-2.124h3.808v-0.89zm22.25 0v7.53h1.901c0.6911 0 1.247-0.04656 1.669-0.1409 0.4248-0.0944 0.8092-0.2482 1.153-0.4606 0.4955-0.3068 0.8922-0.7382 1.189-1.294 0.3001-0.5563 0.4495-1.177 0.4495-1.861 0-0.7314-0.143-1.363-0.4296-1.896-0.2865-0.5327-0.6865-0.9593-1.199-1.28-0.3001-0.1854-0.6672-0.3306-1.102-0.4351-0.4315-0.1079-1.014-0.1621-1.749-0.1621zm11.63 0v7.53h1.001v-2.806h1.001c0.5394 0 0.986-0.065 1.339-0.1931 0.354-0.1315 0.6604-0.3265 0.9201-0.5859 0.209-0.209 0.3716-0.4549 0.4862-0.7382 0.118-0.2865 0.1765-0.5973 0.1765-0.9314 0-0.4383-0.07911-0.8002-0.2375-1.087-0.1551-0.2865-0.3761-0.526-0.6626-0.7183-0.2427-0.1618-0.52-0.2799-0.8337-0.354-0.3135-0.07751-0.6973-0.1166-1.149-0.1166zm7.871 0-2.741 7.53h1.017l0.7382-2.099h3.257l0.7382 2.099h1.067l-2.74-7.53zm5.219 0v7.53h0.9354v-6.734l3.569 6.734h1.239v-7.53h-0.9354v6.149l-3.256-6.149zm6.734 0v0.8899h2.69v6.638h1.001v-6.638h2.69v-0.8899zm7.405 0v7.53h1.001v-2.994h1.412l2.518 2.994h1.3l-2.831-3.292c0.4787-0.1854 0.8547-0.4595 1.127-0.8235 0.2731-0.3675 0.4096-0.8234 0.4096-1.366 0-0.4012-0.07801-0.7314-0.2331-0.9911-0.1517-0.263-0.364-0.4796-0.6371-0.6513-0.2427-0.1517-0.5157-0.2568-0.8189-0.3141-0.3034-0.06067-0.6825-0.09102-1.138-0.09102zm6.121 0 2.661 4.334v3.196h1.001v-3.302l2.649-4.228h-1.067l-2.079 3.369-2.058-3.369zm-58.19 0.7081c0.7587 0 1.357 0.2665 1.795 0.799 0.4382 0.5293 0.6569 1.282 0.6569 2.26 0 0.9877-0.2221 1.745-0.6672 2.271-0.4416 0.5225-1.037 0.7837-1.785 0.7837-0.7484 0-1.345-0.2611-1.79-0.7837-0.445-0.5259-0.6672-1.283-0.6672-2.271 0-0.9775 0.2166-1.73 0.6513-2.26 0.4383-0.5326 1.041-0.799 1.806-0.799zm8.149 0c0.7587 0 1.357 0.2665 1.795 0.799 0.4383 0.5293 0.6581 1.282 0.6581 2.26 0 0.9877-0.2232 1.745-0.6683 2.271-0.4416 0.5225-1.037 0.7837-1.785 0.7837-0.7484 0-1.345-0.2611-1.79-0.7837-0.445-0.5259-0.6672-1.283-0.6672-2.271 0-0.9775 0.2178-1.73 0.6524-2.26 0.4382-0.5326 1.039-0.799 1.805-0.799zm6.086 0.1521h0.94c0.4652 0 0.8649 0.03357 1.199 0.101 0.3338 0.06405 0.649 0.18 0.9456 0.3485 0.4079 0.2326 0.7143 0.5511 0.9201 0.9559 0.2057 0.4046 0.3086 0.9019 0.3086 1.492 0 0.5865-0.09423 1.076-0.283 1.467-0.1854 0.391-0.4649 0.7064-0.8393 0.9456-0.3001 0.1921-0.6303 0.3232-0.9911 0.394-0.3573 0.07081-0.7774 0.1066-1.26 0.1066h-0.94zm11.63 0h0.9911c0.3169 0 0.578 0.02384 0.7837 0.07103 0.209 0.04384 0.3943 0.1175 0.5561 0.222 0.1854 0.1214 0.3241 0.2785 0.4152 0.4706 0.09104 0.1922 0.1365 0.4175 0.1365 0.6768 0 0.2225-0.03357 0.4229-0.101 0.6018-0.06405 0.1787-0.1756 0.3498-0.3341 0.5117-0.1584 0.1584-0.3643 0.2744-0.6172 0.3485-0.2528 0.07082-0.5808 0.1066-0.9854 0.1066h-0.8445zm27.23 0h1.179c0.2697 0 0.5037 0.01948 0.7024 0.05995 0.1989 0.03709 0.3712 0.1054 0.5161 0.2031 0.1753 0.1146 0.2999 0.2554 0.3741 0.424 0.07751 0.1652 0.1165 0.3559 0.1165 0.5717 0 0.2832-0.03681 0.5172-0.111 0.7024-0.07082 0.182-0.1824 0.3445-0.3341 0.4862-0.1652 0.1517-0.3656 0.2557-0.6018 0.313-0.236 0.05395-0.5123 0.08104-0.8291 0.08104h-1.012zm-94.79 0.01444 1.32 3.697h-2.645zm75.07 0 1.321 3.697h-2.645zm-39.63 10.69c-0.3232 0-0.5717 0.0925-0.7428 0.2775-0.1711 0.1832-0.2564 0.4463-0.2564 0.7905v0.09655h-0.3285v0.4096h0.3285v2.486h0.4873v-2.486h0.8638v-0.4096h-0.8792v-0.09876c0-0.242 0.04655-0.409 0.1399-0.5006 0.09507-0.09333 0.2482-0.1399 0.4573-0.1399 0.06568 0 0.1411 0.00824 0.2275 0.02553 0.08643 0.01556 0.1562 0.03106 0.2098 0.04661h0.02664v-0.4462c-0.07262-0.01381-0.1538-0.02513-0.242-0.0355-0.08645-0.01038-0.1831-0.01555-0.2919-0.01555zm-62.97 0.02553v1.255c-0.1296-0.0674-0.2532-0.1165-0.3707-0.1476-0.1175-0.03284-0.253-0.04994-0.4051-0.04994-0.1676 0-0.3299 0.03518-0.4872 0.1043-0.1556 0.06916-0.292 0.1694-0.4096 0.3008-0.1193 0.1348-0.2144 0.2976-0.2853 0.4895-0.06916 0.1919-0.1032 0.4106-0.1032 0.6558 0 0.4719 0.1008 0.8405 0.303 1.106 0.204 0.2662 0.479 0.3996 0.8246 0.3996 0.1781 0 0.3429-0.03359 0.495-0.101 0.1521-0.0674 0.2984-0.1609 0.4384-0.2819v0.303h0.4872v-4.035zm22.68 0v1.255c-0.1296-0.0674-0.2532-0.1165-0.3707-0.1476-0.1175-0.03284-0.2519-0.04994-0.404-0.04994-0.1676 0-0.3299 0.03518-0.4872 0.1043-0.1556 0.06916-0.292 0.1694-0.4096 0.3008-0.1193 0.1348-0.2144 0.2976-0.2853 0.4895-0.06916 0.1919-0.1043 0.4106-0.1043 0.6558 0 0.4719 0.1019 0.8405 0.3041 1.106 0.204 0.2662 0.479 0.3996 0.8246 0.3996 0.178 0 0.3429-0.03359 0.495-0.101 0.1521-0.0674 0.2973-0.1609 0.4373-0.2819v0.303h0.4884v-4.035zm11.73 0v1.255c-0.1296-0.0674-0.2532-0.1165-0.3707-0.1476-0.1175-0.03284-0.2519-0.04994-0.404-0.04994-0.1676 0-0.3299 0.03518-0.4872 0.1043-0.1556 0.06916-0.292 0.1694-0.4096 0.3008-0.1193 0.1348-0.2144 0.2976-0.2853 0.4895-0.06916 0.1919-0.1043 0.4106-0.1043 0.6558 0 0.4719 0.1008 0.8405 0.303 1.106 0.204 0.2662 0.479 0.3996 0.8246 0.3996 0.1781 0 0.3429-0.03359 0.495-0.101 0.1521-0.0674 0.2984-0.1609 0.4384-0.2819v0.303h0.4872v-4.035zm60.35 0v4.035h0.4884v-2.162c0.1331-0.102 0.2721-0.1863 0.4174-0.252 0.1452-0.06568 0.2842-0.09876 0.4174-0.09876 0.1296 0 0.2351 0.01809 0.3163 0.05439 0.08127 0.03456 0.1433 0.08836 0.1865 0.1609 0.04149 0.06568 0.06991 0.1577 0.08548 0.2753 0.01557 0.1158 0.02328 0.2398 0.02328 0.3729v1.649h0.4873v-1.88c0-0.3543-0.08218-0.6251-0.2464-0.8138-0.1642-0.1887-0.402-0.283-0.7149-0.283-0.1711 0-0.3381 0.0357-0.5006 0.1066-0.1625 0.07086-0.3196 0.1691-0.4717 0.2952v-1.459zm3.361 0v4.035h0.4562l0.03108-0.1354c0.1193 0.06569 0.2402 0.1185 0.363 0.1565 0.1228 0.03976 0.2665 0.05883 0.4306 0.05883 0.1763 0 0.3381-0.03359 0.485-0.101 0.1469-0.06917 0.2813-0.172 0.404-0.3086 0.1158-0.1314 0.2079-0.2937 0.2753-0.4872 0.06916-0.1936 0.1032-0.4118 0.1032-0.6535 0-0.4788-0.09979-0.8496-0.2986-1.112-0.197-0.2627-0.4658-0.394-0.8081-0.394-0.1918 0-0.3656 0.03617-0.5195 0.1088-0.1538 0.07086-0.2985 0.1629-0.4351 0.2753v-1.442zm32.29 0v1.255c-0.1296-0.0674-0.2532-0.1165-0.3707-0.1476-0.1175-0.03284-0.2519-0.04994-0.404-0.04994-0.1676 0-0.33 0.03518-0.4873 0.1043-0.1555 0.06916-0.292 0.1694-0.4096 0.3008-0.1193 0.1348-0.2144 0.2976-0.2853 0.4895-0.06916 0.1919-0.1044 0.4106-0.1044 0.6558 0 0.4719 0.1019 0.8405 0.3041 1.106 0.204 0.2662 0.4779 0.3996 0.8235 0.3996 0.178 0 0.344-0.03359 0.4961-0.101 0.1521-0.0674 0.2973-0.1609 0.4373-0.2819v0.303h0.4884v-4.035zm-57.62 0.09324c-0.2662 0-0.5117 0.04554-0.7382 0.1354-0.2247 0.08991-0.4139 0.2191-0.5661 0.3885-0.159 0.1781-0.28 0.392-0.363 0.6428-0.08297 0.2489-0.1243 0.5312-0.1243 0.8456 0 0.3198 0.04139 0.6035 0.1243 0.8524 0.08467 0.2489 0.2051 0.4594 0.3608 0.6302 0.1556 0.1709 0.3437 0.3019 0.5649 0.3918 0.223 0.08989 0.4701 0.1343 0.7416 0.1343 0.2783 0 0.5254-0.04395 0.7416-0.1321 0.2178-0.08814 0.4071-0.2195 0.5661-0.394 0.1538-0.1677 0.2727-0.3765 0.3574-0.6274 0.08643-0.2524 0.1299-0.5377 0.1299-0.8559 0-0.3181-0.04298-0.603-0.1276-0.8536-0.08297-0.2506-0.2023-0.462-0.3596-0.6348-0.1538-0.1676-0.3415-0.2964-0.5627-0.3863-0.2195-0.09161-0.4682-0.1376-0.745-0.1376zm-33.74 0.01111c-0.42 0-0.7661 0.1034-1.039 0.3108-0.2731 0.2056-0.4107 0.4704-0.4107 0.7933 0 0.2818 0.08218 0.5107 0.2464 0.6871 0.1659 0.1746 0.4203 0.2981 0.7626 0.3707 0.1694 0.03456 0.3291 0.06302 0.4795 0.08546 0.1521 0.02247 0.2932 0.05091 0.4228 0.08549 0.1711 0.04493 0.2977 0.1075 0.3807 0.1887 0.08467 0.08125 0.1276 0.2074 0.1276 0.3785 0 0.1988-0.08944 0.358-0.2675 0.4773-0.1763 0.1193-0.4234 0.1787-0.7416 0.1787-0.2247 0-0.4645-0.04392-0.7206-0.1321-0.2558-0.08815-0.4818-0.2127-0.6768-0.3752h-0.03662v0.6428c0.2299 0.102 0.4558 0.179 0.6768 0.2308 0.223 0.05185 0.4742 0.07769 0.7524 0.07769 0.2592 0 0.4806-0.03102 0.6638-0.09326 0.1849-0.06223 0.3456-0.1491 0.484-0.2597 0.1262-0.102 0.2239-0.226 0.293-0.3729 0.07086-0.1469 0.1066-0.2958 0.1066-0.4462 0-0.2766-0.07234-0.4921-0.2175-0.6461-0.1452-0.1538-0.3613-0.268-0.6484-0.3441-0.1417-0.0363-0.3144-0.072-0.5184-0.1066-0.204-0.03458-0.3611-0.06349-0.4717-0.0877-0.2091-0.04839-0.3555-0.1193-0.4384-0.2109-0.08297-0.0916-0.1243-0.2177-0.1243-0.3785 0-0.1797 0.08269-0.3265 0.2486-0.4406 0.1676-0.1141 0.3889-0.171 0.6638-0.171 0.2506 0 0.4952 0.04134 0.7337 0.1243 0.2403 0.08127 0.4336 0.1841 0.5802 0.3086h0.03663v-0.6069c-0.1746-0.07604-0.3751-0.1391-0.6018-0.1909-0.2264-0.05185-0.4756-0.07768-0.7468-0.07768zm-42.41 0.04328v0.5061h0.5494v-0.5061zm4.771 0v0.5061h0.5494v-0.5061zm48.49 0v0.5061h0.5494v-0.5061zm40.08 0v0.5061h0.5494v-0.5061zm21.57 0v0.5061h0.5494v-0.5061zm-126.6 0.02665v3.86h0.5139v-1.439h0.5128c0.2766 0 0.5056-0.03198 0.6871-0.09769 0.1815-0.0674 0.3386-0.1677 0.4717-0.3008 0.1072-0.1072 0.1898-0.2333 0.2486-0.3785 0.06052-0.1469 0.09104-0.3061 0.09104-0.4772 0-0.2247-0.04085-0.4102-0.1221-0.5572-0.07949-0.1469-0.1927-0.27-0.3397-0.3685-0.1244-0.08298-0.2666-0.144-0.4273-0.182-0.1608-0.03975-0.3567-0.05881-0.5882-0.05881zm26.57 0v3.86h0.5128v-1.859h1.677v-0.4562h-1.677v-1.089h1.953v-0.4562zm71.43 0v3.86h0.4795v-3.454l1.83 3.454h0.6348v-3.86h-0.4795v3.152l-1.67-3.152zm35.4 0v3.86h0.4795v-3.454l1.83 3.454h0.6359v-3.86h-0.4806v3.152l-1.67-3.152zm-45.5 0.363c0.3889 0 0.6956 0.1364 0.9201 0.4096 0.2247 0.2714 0.3374 0.6575 0.3374 1.159 0 0.5064-0.1148 0.8945-0.343 1.164-0.2264 0.2679-0.5308 0.4018-0.9144 0.4018-0.3835 0-0.6899-0.1339-0.9178-0.4018-0.2282-0.2697-0.343-0.6581-0.343-1.164 0-0.5013 0.1122-0.8877 0.3352-1.159 0.2247-0.2731 0.5333-0.4096 0.9257-0.4096zm-87.4 0.07769h0.5072c0.1625 0 0.2964 0.01132 0.4018 0.03551 0.1072 0.02246 0.2023 0.06076 0.2853 0.1144 0.09507 0.06222 0.1664 0.1423 0.2131 0.2408 0.04668 0.09854 0.06992 0.2143 0.06992 0.3474 0 0.114-0.01762 0.217-0.05218 0.3086-0.03284 0.09161-0.08967 0.1789-0.171 0.2619-0.08125 0.08127-0.1867 0.1418-0.3163 0.1798-0.1296 0.03629-0.2976 0.05438-0.505 0.05438h-0.4329zm6.058 0.4429c-0.4097 0-0.7348 0.1381-0.9769 0.4129-0.2403 0.2731-0.3608 0.6444-0.3608 1.117 0 0.4719 0.1205 0.8445 0.3608 1.118 0.242 0.2731 0.5671 0.4096 0.9769 0.4096 0.4062 0 0.7302-0.1364 0.9723-0.4096 0.242-0.2731 0.363-0.6456 0.363-1.118 0-0.4719-0.121-0.8433-0.363-1.117-0.242-0.2748-0.5661-0.4129-0.9723-0.4129zm12.89 0c-0.1711 0-0.3381 0.03568-0.5006 0.1066-0.1625 0.07086-0.3196 0.1691-0.4717 0.2952v-0.3208h-0.4872v2.896h0.4872v-2.162c0.1331-0.102 0.2722-0.1863 0.4174-0.252s0.2843-0.09876 0.4174-0.09876c0.1296 0 0.2351 0.01809 0.3163 0.05438 0.08128 0.03456 0.1433 0.08837 0.1865 0.1609 0.04148 0.06569 0.06989 0.1577 0.08546 0.2753 0.01556 0.1158 0.02333 0.2398 0.02333 0.3729v1.649h0.4872v-1.88c0-0.3543-0.08111-0.6251-0.2453-0.8138-0.1642-0.1884-0.403-0.283-0.7161-0.283zm2.981 0c-0.159 0-0.3188 0.03518-0.4795 0.1043-0.1608 0.0674-0.2972 0.1625-0.4096 0.2853-0.121 0.1314-0.2166 0.2869-0.2875 0.4684-0.06916 0.1798-0.1043 0.3949-0.1043 0.6439 0 0.4546 0.1008 0.807 0.303 1.058 0.204 0.2489 0.479 0.3729 0.8246 0.3729 0.2074 0 0.3786-0.02844 0.5117-0.08548 0.1348-0.05877 0.2749-0.1466 0.4218-0.2642v0.2642c0 0.1175-0.01293 0.2235-0.03886 0.3185-0.02592 0.09508-0.06937 0.1768-0.1299 0.2442-0.0605 0.07088-0.1442 0.1256-0.253 0.1654-0.1089 0.03972-0.247 0.05995-0.4129 0.05995-0.1729 0-0.3455-0.02326-0.5183-0.06989-0.1729-0.04495-0.299-0.08321-0.3785-0.1144h-0.02664v0.4984c0.1417 0.03976 0.2855 0.0703 0.4306 0.09105 0.1469 0.02247 0.2979 0.03329 0.4517 0.03329 0.4632 0 0.8058-0.1153 1.029-0.3452 0.223-0.2299 0.3341-0.5905 0.3341-1.081v-2.566h-0.4562l-0.03108 0.1243c-0.1262-0.06916-0.2456-0.1203-0.3596-0.1532-0.1124-0.03456-0.253-0.05217-0.4207-0.05217zm8.149 0c-0.4097 0-0.7348 0.1381-0.9769 0.4129-0.2403 0.2731-0.3608 0.6444-0.3608 1.117 0 0.4719 0.1205 0.8445 0.3608 1.118 0.242 0.2731 0.5671 0.4096 0.9769 0.4096 0.4062 0 0.7303-0.1364 0.9724-0.4096 0.242-0.2731 0.363-0.6456 0.363-1.118 0-0.4719-0.121-0.8433-0.363-1.117-0.242-0.2748-0.5661-0.4129-0.9724-0.4129zm3.226 0c-0.4097 0-0.7348 0.1381-0.9769 0.4129-0.2403 0.2731-0.3608 0.6444-0.3608 1.117 0 0.4719 0.1205 0.8445 0.3608 1.118 0.242 0.2731 0.5671 0.4096 0.9769 0.4096 0.4062 0 0.7303-0.1364 0.9724-0.4096 0.242-0.2731 0.363-0.6456 0.363-1.118 0-0.4719-0.121-0.8433-0.363-1.117-0.242-0.2748-0.5661-0.4129-0.9724-0.4129zm11.92 0c-0.1711 0-0.3381 0.03568-0.5006 0.1066-0.1625 0.07086-0.3196 0.1691-0.4717 0.2952v-0.3208h-0.4873v2.896h0.4873v-2.162c0.1331-0.102 0.2721-0.1863 0.4174-0.252 0.1452-0.0657 0.2842-0.09876 0.4174-0.09876 0.1296 0 0.2351 0.01809 0.3163 0.05438 0.08128 0.03456 0.1433 0.08837 0.1865 0.1609 0.0415 0.06569 0.06991 0.1577 0.08549 0.2753 0.01555 0.1158 0.0233 0.2398 0.0233 0.3729v1.649h0.4872v-1.88c0-0.3543-0.08109-0.6251-0.2453-0.8138-0.1642-0.1884-0.403-0.283-0.7161-0.283zm11.91 0c-0.4218 0-0.7632 0.1391-1.022 0.4174-0.2576 0.2783-0.3863 0.6541-0.3863 1.127 0 0.4788 0.1355 0.849 0.4051 1.11 0.2697 0.2592 0.645 0.3896 1.125 0.3896 0.1884 0 0.3672-0.02435 0.5384-0.07103 0.1711-0.04667 0.3397-0.104 0.5039-0.1732v-0.5316h-0.02666c-0.08466 0.07603-0.2268 0.1536-0.4273 0.2331-0.1988 0.0778-0.3968 0.1165-0.5939 0.1165-0.1487 0-0.2851-0.02066-0.4096-0.06216-0.1228-0.04149-0.2298-0.1035-0.3196-0.1864-0.09332-0.08469-0.1662-0.1928-0.2198-0.3241-0.05359-0.1331-0.08104-0.2881-0.08104-0.4662h2.135v-0.2653c0-0.42-0.1059-0.7428-0.3186-0.9712-0.2109-0.2282-0.5118-0.343-0.9024-0.343zm12.81 0c-0.4218 0-0.7621 0.1391-1.021 0.4174-0.2576 0.2783-0.3863 0.6541-0.3863 1.127 0 0.4788 0.1344 0.849 0.404 1.11 0.2697 0.2592 0.645 0.3896 1.125 0.3896 0.1884 0 0.3683-0.02435 0.5394-0.07103 0.1711-0.04667 0.3386-0.104 0.5028-0.1732v-0.5316h-0.02552c-0.08467 0.07603-0.2279 0.1536-0.4284 0.2331-0.1988 0.0778-0.3968 0.1165-0.5939 0.1165-0.1487 0-0.2851-0.02066-0.4096-0.06216-0.1228-0.04149-0.2287-0.1035-0.3185-0.1864-0.09333-0.08469-0.1673-0.1928-0.2209-0.3241-0.05359-0.1331-0.0799-0.2881-0.0799-0.4662h2.133v-0.2653c0-0.42-0.1059-0.7428-0.3186-0.9712-0.2109-0.2282-0.5118-0.343-0.9025-0.343zm9.598 0c-0.4097 0-0.7359 0.1381-0.978 0.4129-0.2403 0.2731-0.3608 0.6444-0.3608 1.117 0 0.4719 0.1205 0.8445 0.3608 1.118 0.242 0.2731 0.5682 0.4096 0.978 0.4096 0.4062 0 0.7291-0.1364 0.9712-0.4096 0.2421-0.2731 0.364-0.6456 0.364-1.118 0-0.4719-0.1221-0.8433-0.364-1.117-0.242-0.2748-0.565-0.4129-0.9712-0.4129zm23.08 0c-0.4217 0-0.7621 0.1391-1.021 0.4174-0.2576 0.2783-0.3862 0.6541-0.3862 1.127 0 0.4788 0.1343 0.849 0.404 1.11 0.2696 0.2592 0.645 0.3896 1.125 0.3896 0.1884 0 0.3683-0.02435 0.5394-0.07103 0.1711-0.04667 0.3386-0.104 0.5028-0.1732v-0.5316h-0.02552c-0.08467 0.07603-0.2279 0.1536-0.4284 0.2331-0.1988 0.0778-0.3968 0.1165-0.5939 0.1165-0.1486 0-0.2851-0.02066-0.4096-0.06216-0.1228-0.04149-0.2287-0.1035-0.3186-0.1864-0.09331-0.08469-0.1673-0.1928-0.2209-0.3241-0.05359-0.1331-0.0799-0.2881-0.0799-0.4662h2.134v-0.2653c0-0.42-0.1071-0.7428-0.3197-0.9712-0.2109-0.2282-0.5117-0.343-0.9025-0.343zm4.504 0c-0.159 0-0.3188 0.03518-0.4795 0.1043-0.1608 0.0674-0.2972 0.1625-0.4096 0.2853-0.121 0.1314-0.2177 0.2869-0.2886 0.4684-0.06916 0.1798-0.1032 0.3949-0.1032 0.6439 0 0.4546 0.1008 0.807 0.303 1.058 0.204 0.2489 0.479 0.3729 0.8246 0.3729 0.2074 0 0.3775-0.02844 0.5106-0.08548 0.1348-0.05877 0.276-0.1466 0.4229-0.2642v0.2642c0 0.1175-0.01291 0.2235-0.03888 0.3185-0.02592 0.09508-0.0694 0.1768-0.1299 0.2442-0.06053 0.07088-0.1452 0.1256-0.2542 0.1654-0.1089 0.03972-0.2458 0.05995-0.4118 0.05995-0.1729 0-0.3455-0.02326-0.5184-0.06989-0.1729-0.04495-0.299-0.08321-0.3785-0.1144h-0.02665v0.4984c0.1417 0.03976 0.2854 0.0703 0.4306 0.09105 0.1469 0.02247 0.2968 0.03329 0.4507 0.03329 0.4632 0 0.807-0.1153 1.03-0.3452 0.223-0.2299 0.3341-0.5905 0.3341-1.081v-2.566h-0.4562l-0.03108 0.1243c-0.1262-0.06916-0.2466-0.1203-0.3608-0.1532-0.1124-0.03456-0.2519-0.05217-0.4196-0.05217zm10.03 0c-0.4096 0-0.7348 0.1381-0.9769 0.4129-0.2403 0.2731-0.3607 0.6444-0.3607 1.117 0 0.4719 0.1205 0.8445 0.3607 1.118 0.242 0.2731 0.5671 0.4096 0.9769 0.4096 0.4062 0 0.7302-0.1364 0.9724-0.4096 0.2421-0.2731 0.363-0.6456 0.363-1.118 0-0.4719-0.1209-0.8433-0.363-1.117-0.242-0.2748-0.5661-0.4129-0.9724-0.4129zm11.92 0c-0.1711 0-0.3381 0.03568-0.5006 0.1066-0.1625 0.07086-0.3196 0.1691-0.4717 0.2952v-0.3208h-0.4872v2.896h0.4872v-2.162c0.1331-0.102 0.2722-0.1863 0.4174-0.252s0.2842-0.09876 0.4174-0.09876c0.1296 0 0.2351 0.01809 0.3163 0.05438 0.08126 0.03456 0.1433 0.08837 0.1865 0.1609 0.04147 0.06569 0.06989 0.1577 0.08546 0.2753 0.01557 0.1158 0.02331 0.2398 0.02331 0.3729v1.649h0.4872v-1.88c0-0.3543-0.08108-0.6251-0.2453-0.8138-0.1642-0.1887-0.403-0.283-0.7161-0.283zm8.939 0c-0.4217 0-0.7621 0.1391-1.021 0.4174-0.2576 0.2783-0.3863 0.6541-0.3863 1.127 0 0.4788 0.1344 0.849 0.404 1.11 0.2696 0.2592 0.645 0.3896 1.125 0.3896 0.1884 0 0.3683-0.02435 0.5394-0.07103 0.1711-0.04667 0.3386-0.104 0.5028-0.1732v-0.5316h-0.02552c-0.08469 0.07603-0.228 0.1536-0.4284 0.2331-0.1988 0.0778-0.3957 0.1165-0.5927 0.1165-0.1487 0-0.2862-0.02066-0.4107-0.06216-0.1228-0.04149-0.2287-0.1035-0.3186-0.1864-0.09331-0.08469-0.1662-0.1928-0.2198-0.3241-0.05359-0.1331-0.08104-0.2881-0.08104-0.4662h2.135v-0.2653c0-0.42-0.1071-0.7428-0.3197-0.9712-0.2109-0.2282-0.5118-0.343-0.9024-0.343zm3.163 0c-0.4218 0-0.7621 0.1391-1.021 0.4174-0.2576 0.2783-0.3863 0.6541-0.3863 1.127 0 0.4788 0.1344 0.849 0.404 1.11 0.2696 0.2592 0.645 0.3896 1.125 0.3896 0.1884 0 0.3683-0.02435 0.5394-0.07103 0.1711-0.04667 0.3386-0.104 0.5028-0.1732v-0.5316h-0.02551c-0.08467 0.07603-0.228 0.1536-0.4284 0.2331-0.1988 0.0778-0.3968 0.1165-0.5939 0.1165-0.1487 0-0.2851-0.02066-0.4096-0.06216-0.1228-0.04149-0.2287-0.1035-0.3185-0.1864-0.0933-0.08469-0.1673-0.1928-0.2209-0.3241-0.05359-0.1331-0.07991-0.2881-0.07991-0.4662h2.133v-0.2653c0-0.42-0.1059-0.7428-0.3185-0.9712-0.2109-0.2282-0.5118-0.343-0.9024-0.343zm-99.62 0.01108c-0.1746 0-0.3519 0.01551-0.5316 0.04664-0.1798 0.0311-0.3167 0.05956-0.4118 0.08546v0.495h0.02552c0.1676-0.06394 0.33-0.1126 0.4872-0.1454 0.1573-0.03456 0.3005-0.05217 0.4284-0.05217 0.1054 0 0.2062 0.00726 0.303 0.02109s0.1795 0.04016 0.2486 0.0799c0.07257 0.0415 0.1285 0.09945 0.1665 0.172 0.03976 0.07258 0.05995 0.1636 0.05995 0.2742v0.07545c-0.2835 0.01384-0.5498 0.03452-0.7968 0.06219-0.2471 0.02764-0.4586 0.07983-0.6348 0.1576-0.1746 0.0778-0.309 0.1853-0.404 0.3219-0.09331 0.1348-0.1398 0.3122-0.1398 0.5316 0 0.2679 0.09047 0.4887 0.2719 0.6615 0.1815 0.1729 0.4028 0.2586 0.6638 0.2586 0.1417 0 0.2653-0.01341 0.3707-0.04107 0.1054-0.02593 0.1985-0.05905 0.2797-0.09876 0.06916-0.03112 0.1405-0.07247 0.2131-0.1243 0.07434-0.05359 0.1333-0.09492 0.1764-0.1243v0.3086h0.484v-1.966c0-0.1867-0.02842-0.3433-0.08547-0.4695-0.05704-0.1262-0.1397-0.2291-0.2486-0.3086-0.1106-0.08125-0.2419-0.1381-0.394-0.1709-0.1504-0.03458-0.3277-0.05106-0.5316-0.05106zm31.33 0c-0.1849 0-0.3525 0.02376-0.5028 0.07219-0.1487 0.04666-0.2717 0.1108-0.3685 0.192-0.1002 0.08297-0.1752 0.1765-0.2253 0.2819-0.04841 0.1054-0.07217 0.2182-0.07217 0.3374 0 0.1902 0.05217 0.3514 0.1576 0.4828 0.1072 0.1296 0.2876 0.2278 0.5416 0.2952 0.09161 0.02418 0.1935 0.04695 0.3042 0.06768 0.1124 0.02074 0.2028 0.03883 0.2719 0.05438 0.1867 0.0415 0.3128 0.09109 0.3785 0.1499 0.06571 0.05876 0.09878 0.1456 0.09878 0.2597 0 0.1486-0.06104 0.2572-0.182 0.3263-0.121 0.0691-0.2885 0.1032-0.5028 0.1032-0.1729 0-0.3533-0.03359-0.5416-0.101-0.1884-0.06917-0.3601-0.1617-0.5139-0.2775h-0.02552v0.5472c0.121 0.06052 0.2704 0.1168 0.4485 0.1687 0.1797 0.05013 0.3773 0.07546 0.5916 0.07546 0.3785 0 0.6768-0.08478 0.8945-0.2542 0.2195-0.1694 0.3285-0.386 0.3285-0.6507 0-0.2109-0.06156-0.3805-0.1842-0.5083-0.1228-0.1262-0.2964-0.2157-0.5228-0.2675-0.07433-0.01729-0.1684-0.03587-0.2808-0.05661-0.1107-0.02073-0.2109-0.04142-0.3008-0.06216-0.1625-0.03804-0.2792-0.08712-0.3518-0.1476-0.07434-0.06053-0.1121-0.1504-0.1121-0.2697 0-0.1348 0.06154-0.2367 0.1842-0.3042 0.1228-0.06916 0.2726-0.1032 0.4506-0.1032 0.1711 0 0.3459 0.03148 0.5239 0.09547 0.178 0.06222 0.3295 0.1392 0.454 0.2308h0.02551v-0.5206c-0.1175-0.06052-0.2648-0.1117-0.4429-0.1531-0.1763-0.04322-0.351-0.06439-0.5239-0.06439zm49.62 0c-0.1849 0-0.3535 0.02376-0.5039 0.07219-0.1486 0.04666-0.2706 0.1108-0.3674 0.192-0.1002 0.08297-0.1763 0.1765-0.2264 0.2819-0.04841 0.1054-0.07217 0.2182-0.07217 0.3374 0 0.1902 0.05331 0.3514 0.1587 0.4828 0.1072 0.1296 0.2876 0.2278 0.5416 0.2952 0.09161 0.02418 0.1924 0.04695 0.303 0.06768 0.1124 0.02074 0.2028 0.03883 0.2719 0.05438 0.1867 0.0415 0.3128 0.09109 0.3785 0.1499 0.06571 0.05876 0.09878 0.1456 0.09878 0.2597 0 0.1486-0.0599 0.2572-0.181 0.3263-0.121 0.0691-0.2896 0.1032-0.5039 0.1032-0.1729 0-0.3533-0.03359-0.5416-0.101-0.1884-0.06917-0.3589-0.1617-0.5128-0.2775h-0.02665v0.5472c0.121 0.06052 0.2704 0.1168 0.4484 0.1687 0.1797 0.05013 0.3773 0.07546 0.5916 0.07546 0.3786 0 0.6768-0.08478 0.8945-0.2542 0.2195-0.1694 0.3297-0.386 0.3297-0.6507 0-0.2109-0.06156-0.3805-0.1842-0.5083-0.1228-0.1262-0.2974-0.2157-0.5239-0.2675-0.07434-0.01729-0.1674-0.03587-0.2797-0.05661-0.1106-0.02073-0.2109-0.04142-0.3008-0.06216-0.1625-0.03804-0.2803-0.08712-0.353-0.1476-0.07434-0.06053-0.111-0.1504-0.111-0.2697 0-0.1348 0.06042-0.2367 0.1832-0.3042 0.1228-0.06916 0.2737-0.1032 0.4517-0.1032 0.1711 0 0.3459 0.03148 0.5239 0.09547 0.1781 0.06222 0.3284 0.1392 0.4529 0.2308h0.02666v-0.5206c-0.1175-0.06052-0.266-0.1117-0.444-0.1531-0.1763-0.04322-0.35-0.06439-0.5228-0.06439zm-55.32 0.00224c-0.427 0-0.7712 0.1344-1.032 0.404-0.2592 0.2696-0.3885 0.6416-0.3885 1.116 0 0.2541 0.03409 0.4758 0.1032 0.666 0.06917 0.1902 0.1668 0.3473 0.293 0.4717 0.1244 0.1244 0.2738 0.2175 0.4484 0.2797 0.1746 0.06052 0.3669 0.09105 0.5763 0.09105 0.1642 0 0.3187-0.02116 0.4639-0.0644 0.1469-0.04321 0.3015-0.1042 0.464-0.182v-0.5361h-0.02552c-0.03632 0.02938-0.08542 0.06506-0.1476 0.1066-0.06223 0.03975-0.1289 0.07689-0.1998 0.1132-0.08125 0.0415-0.1733 0.07509-0.2753 0.101-0.102 0.02593-0.2023 0.03886-0.3008 0.03886-0.2835 0-0.5043-0.09303-0.6615-0.2797-0.1556-0.1884-0.2331-0.4567-0.2331-0.8058 0-0.3595 0.07962-0.632 0.2386-0.8172 0.1608-0.1867 0.3794-0.2797 0.6558-0.2797 0.1504 0 0.3044 0.03101 0.4617 0.09326 0.159 0.06222 0.3131 0.1506 0.4617 0.2664h0.02551v-0.5416c-0.1331-0.0674-0.2799-0.1243-0.4406-0.1709-0.159-0.04667-0.3213-0.06991-0.4873-0.06991zm-64.5 0.06768v2.896h0.4873v-2.057c0.1296-0.1054 0.2651-0.1907 0.4051-0.2564 0.14-0.0674 0.2847-0.101 0.4351-0.101 0.09332 0 0.1735 0.00466 0.2408 0.01332 0.06916 0.00691 0.1406 0.01823 0.2131 0.03552h0.02554v-0.4995c-0.07603-0.01212-0.1329-0.01987-0.171-0.02333-0.03802-0.00516-0.09955-0.00775-0.1842-0.00775-0.1538 0-0.3042 0.03198-0.4529 0.09768-0.1469 0.06392-0.3181 0.1741-0.5117 0.3297v-0.4273zm5.133 0 1.164 2.896h0.4906l1.171-2.896h-0.5106l-0.8888 2.304-0.8968-2.304zm3.469 0v2.896h0.4872v-2.896zm4.771 0v2.896h0.4873v-2.896zm43.07 0v2.896h0.4872v-2.057c0.1296-0.1054 0.264-0.1907 0.404-0.2564 0.14-0.0674 0.2859-0.101 0.4362-0.101 0.09331 0 0.1734 0.00466 0.2408 0.01332 0.06917 0.00691 0.1394 0.01823 0.212 0.03552h0.02665v-0.4995c-0.07603-0.01212-0.1329-0.01987-0.171-0.02333-0.03801-0.00516-0.09955-0.00775-0.1842-0.00775-0.1538 0-0.3053 0.03198-0.454 0.09768-0.1469 0.06392-0.317 0.1741-0.5106 0.3297v-0.4273zm1.949 0 1.164 2.896h0.4906l1.171-2.896h-0.5106l-0.8888 2.304-0.8968-2.304zm3.469 0v2.896h0.4872v-2.896zm17.12 0v2.896h0.4872v-2.057c0.1296-0.1054 0.264-0.1907 0.404-0.2564 0.14-0.0674 0.2858-0.101 0.4362-0.101 0.09333 0 0.1734 0.00466 0.2408 0.01332 0.06916 0.00691 0.1394 0.01823 0.212 0.03552h0.02665v-0.4995c-0.07603-0.01212-0.1329-0.01987-0.171-0.02333-0.03801-0.00516-0.09955-0.00775-0.1842-0.00775-0.1538 0-0.3053 0.03198-0.454 0.09768-0.1469 0.06392-0.317 0.1741-0.5106 0.3297v-0.4273zm8.297 0v1.879c0 0.3595 0.08477 0.6325 0.2542 0.8189 0.1694 0.1849 0.4061 0.2775 0.7103 0.2775 0.1815 0 0.3469-0.03406 0.4973-0.1032 0.1504-0.06916 0.3075-0.169 0.4717-0.2986v0.3219h0.4872v-2.896h-0.4872v2.162c-0.1296 0.102-0.2692 0.1852-0.4196 0.2508-0.1486 0.0657-0.2867 0.09878-0.4129 0.09878-0.1417 0-0.2498-0.01759-0.3241-0.05217-0.07434-0.03456-0.1342-0.08933-0.181-0.1654-0.04495-0.07433-0.07496-0.1638-0.08881-0.2675-0.01381-0.1054-0.01996-0.2316-0.01996-0.3785v-1.648zm3.381 0v2.896h0.4873v-2.057c0.1296-0.1054 0.264-0.1907 0.404-0.2564 0.14-0.0674 0.2859-0.101 0.4362-0.101 0.09333 0 0.1734 0.00466 0.2408 0.01332 0.06916 0.00691 0.1394 0.01823 0.212 0.03552h0.02665v-0.4995c-0.07603-0.01212-0.1329-0.01987-0.1709-0.02333-0.03802-0.00516-0.09957-0.00775-0.1842-0.00775-0.1538 0-0.3053 0.03198-0.454 0.09768-0.1469 0.06392-0.317 0.1741-0.5106 0.3297v-0.4273zm11.28 0v2.896h0.4873v-2.896zm14.66 0v2.896h0.4872v-2.057c0.1296-0.1054 0.2651-0.1907 0.4051-0.2564 0.14-0.0674 0.2847-0.101 0.4351-0.101 0.0933 0 0.1746 0.00466 0.242 0.01332 0.06916 0.00691 0.1394 0.01823 0.212 0.03552h0.02552v-0.4995c-0.07606-0.01212-0.1329-0.01987-0.171-0.02333-0.03802-0.00516-0.09958-0.00775-0.1842-0.00775-0.1538 0-0.3042 0.03198-0.4528 0.09768-0.1469 0.06392-0.3181 0.1741-0.5117 0.3297v-0.4273zm6.91 0v2.896h0.4872v-2.896zm-69.05 0.3208c0.2592 0 0.4521 0.06981 0.5785 0.2098 0.1279 0.14 0.1925 0.338 0.1943 0.5939h-1.659c0.02075-0.2282 0.1081-0.4189 0.2619-0.5728 0.1556-0.1538 0.3639-0.2308 0.6251-0.2308zm12.81 0c0.2593 0 0.4521 0.06981 0.5785 0.2098 0.1279 0.14 0.1925 0.338 0.1942 0.5939h-1.659c0.02075-0.2282 0.1081-0.4189 0.2619-0.5728 0.1555-0.1538 0.3639-0.2308 0.6251-0.2308zm32.68 0c0.2592 0 0.4521 0.06981 0.5785 0.2098 0.1279 0.14 0.1925 0.338 0.1943 0.5939h-1.659c0.02075-0.2282 0.1081-0.4189 0.2619-0.5728 0.1556-0.1538 0.3639-0.2308 0.6251-0.2308zm35.4 0c0.2592 0 0.4521 0.06981 0.5785 0.2098 0.1279 0.14 0.1925 0.338 0.1942 0.5939h-1.659c0.02075-0.2282 0.1081-0.4189 0.2619-0.5728 0.1555-0.1538 0.3639-0.2308 0.6251-0.2308zm3.163 0c0.2592 0 0.4521 0.06981 0.5785 0.2098 0.1279 0.14 0.1925 0.338 0.1942 0.5939h-1.659c0.02075-0.2282 0.1081-0.4189 0.2619-0.5728 0.1555-0.1538 0.3639-0.2308 0.6251-0.2308zm-135.1 0.01888c0.261 0 0.4658 0.09092 0.6126 0.2741 0.1469 0.1815 0.2198 0.4596 0.2198 0.8348 0 0.3664-0.07445 0.6433-0.2231 0.8303-0.1469 0.1849-0.3501 0.2775-0.6092 0.2775-0.2627 0-0.4668-0.09302-0.6138-0.2797-0.1469-0.1884-0.2209-0.465-0.2209-0.828 0-0.3751 0.07234-0.653 0.2175-0.8348 0.1469-0.1832 0.3527-0.2742 0.6172-0.2742zm24.02 0c0.261 0 0.4658 0.09092 0.6126 0.2741 0.1469 0.1815 0.2198 0.4596 0.2198 0.8348 0 0.3664-0.07444 0.6433-0.2231 0.8303-0.1469 0.1849-0.3501 0.2775-0.6092 0.2775-0.2627 0-0.4669-0.09302-0.6138-0.2797-0.1469-0.1884-0.2209-0.465-0.2209-0.828 0-0.3751 0.07236-0.653 0.2176-0.8348 0.1469-0.1832 0.3527-0.2742 0.6172-0.2742zm3.226 0c0.261 0 0.4646 0.09092 0.6115 0.2741 0.1469 0.1815 0.2209 0.4596 0.2209 0.8348 0 0.3664-0.07445 0.6433-0.2231 0.8303-0.1469 0.1849-0.3501 0.2775-0.6092 0.2775-0.2627 0-0.4668-0.09302-0.6138-0.2797-0.1469-0.1884-0.2209-0.465-0.2209-0.828 0-0.3751 0.07234-0.653 0.2175-0.8348 0.1469-0.1832 0.3527-0.2742 0.6172-0.2742zm46.24 0c0.261 0 0.4646 0.09092 0.6115 0.2741 0.1469 0.1815 0.2198 0.4596 0.2198 0.8348 0 0.3664-0.07445 0.6433-0.2231 0.8303-0.1469 0.1849-0.349 0.2775-0.6081 0.2775-0.2627 0-0.468-0.09302-0.6149-0.2797-0.1469-0.1884-0.2209-0.465-0.2209-0.828 0-0.3751 0.07348-0.653 0.2187-0.8348 0.1469-0.1832 0.3527-0.2742 0.6172-0.2742zm37.62 0c0.261 0 0.4646 0.09092 0.6115 0.2741 0.1469 0.1815 0.2209 0.4596 0.2209 0.8348 0 0.3664-0.07445 0.6433-0.2231 0.8303-0.1469 0.1849-0.3501 0.2775-0.6092 0.2775-0.2627 0-0.4668-0.09302-0.6138-0.2797-0.1469-0.1884-0.2209-0.465-0.2209-0.828 0-0.3751 0.07234-0.653 0.2175-0.8348 0.1469-0.1832 0.3527-0.2742 0.6172-0.2742zm-95.13 0.01777c0.1106 0 0.2212 0.01291 0.3319 0.03883 0.1124 0.02421 0.2334 0.06553 0.363 0.1243v1.579c-0.1193 0.09161-0.2506 0.1645-0.394 0.2198-0.1417 0.05357-0.2834 0.08104-0.4251 0.08104-0.2645 0-0.4531-0.08428-0.5671-0.252-0.114-0.1676-0.172-0.4143-0.172-0.7393 0-0.3422 0.07707-0.603 0.2308-0.7825 0.1538-0.1796 0.3647-0.2697 0.6325-0.2697zm85.19 0c0.1106 0 0.2212 0.01291 0.3319 0.03883 0.1123 0.02421 0.2333 0.06553 0.363 0.1243v1.579c-0.1193 0.09161-0.2506 0.1645-0.394 0.2198-0.1417 0.05357-0.2834 0.08104-0.4251 0.08104-0.2645 0-0.4542-0.08428-0.5683-0.252-0.1141-0.1676-0.171-0.4143-0.171-0.7393 2e-5 -0.3422 0.07706-0.603 0.2309-0.7825 0.1539-0.1798 0.3647-0.2697 0.6325-0.2697zm-93.31 0.00775c0.1228 0 0.236 0.01083 0.3397 0.03331 0.1037 0.02247 0.2216 0.0633 0.353 0.1221v1.662c-0.1228 0.09679-0.2556 0.1764-0.3974 0.2386-0.1417 0.06053-0.2813 0.09103-0.4196 0.09103-0.2592 0-0.4474-0.08944-0.5649-0.2675-0.1175-0.1798-0.1764-0.4408-0.1764-0.7848 0-0.3492 0.07541-0.6189 0.2275-0.8093 0.1521-0.1902 0.3651-0.2853 0.6382-0.2853zm22.68 0c0.1228 0 0.2359 0.01083 0.3397 0.03331 0.1037 0.02247 0.2205 0.0633 0.3518 0.1221v1.662c-0.1228 0.09679-0.2546 0.1764-0.3963 0.2386-0.1417 0.06053-0.2813 0.09103-0.4196 0.09103-0.2593 0-0.4486-0.08944-0.5661-0.2675-0.1175-0.1798-0.1754-0.4408-0.1754-0.7848 0-0.3492 0.07541-0.6189 0.2275-0.8093 0.1521-0.1902 0.3651-0.2853 0.6382-0.2853zm11.73 0c0.1228 0 0.2359 0.01083 0.3397 0.03331 0.1037 0.02247 0.2205 0.0633 0.3518 0.1221v1.662c-0.1228 0.09679-0.2545 0.1764-0.3963 0.2386-0.1417 0.06053-0.2824 0.09103-0.4207 0.09103-0.2592 0-0.4474-0.08944-0.5649-0.2675-0.1175-0.1798-0.1764-0.4408-0.1764-0.7848 0-0.3492 0.07655-0.6189 0.2286-0.8093 0.1521-0.1902 0.3651-0.2853 0.6382-0.2853zm96.04 0c0.1228 0 0.2359 0.01083 0.3397 0.03331 0.1037 0.02247 0.2205 0.0633 0.3518 0.1221v1.662c-0.1228 0.09679-0.2545 0.1764-0.3963 0.2386-0.1417 0.06053-0.2813 0.09103-0.4196 0.09103-0.2592 0-0.4486-0.08944-0.5661-0.2675-0.1175-0.1798-0.1754-0.4408-0.1754-0.7848 0-0.3492 0.07541-0.6189 0.2276-0.8093 0.1521-0.1902 0.3651-0.2853 0.6382-0.2853zm-30.28 0.01776c0.2541 0 0.4387 0.08998 0.5527 0.2697 0.1141 0.1781 0.171 0.4402 0.171 0.786 0 0.3786-0.07706 0.6564-0.2308 0.8348-0.1521 0.1763-0.363 0.2642-0.6325 0.2642-0.1261 0-0.2394-0.01132-0.3397-0.03551-0.09854-0.02421-0.2169-0.06764-0.3552-0.1299v-1.659c0.1244-0.09678 0.2588-0.176 0.404-0.2364 0.1452-0.06223 0.2889-0.09326 0.4306-0.09326zm-71.72 0.9934v0.8058c-0.121 0.09332-0.2523 0.1746-0.394 0.242-0.1417 0.0657-0.2984 0.09768-0.4695 0.09768-0.2057 0-0.3593-0.04132-0.4595-0.1243-0.1002-0.08467-0.1498-0.2092-0.1498-0.3752 0-0.1469 0.04343-0.2622 0.1299-0.3452 0.08643-0.0847 0.1996-0.1468 0.3397-0.1865 0.1175-0.03284 0.2757-0.05821 0.4762-0.07548 0.2023-0.01729 0.3786-0.0302 0.5272-0.03885zm104.3 0.7803v0.7393h0.6194v-0.7393z" style="fill:#00b7a4;stroke-width:.5683"/>
 </g>
</svg>
