<svg version="1.1" viewBox="0 0 300 175" xmlns="http://www.w3.org/2000/svg">
 <path d="m209.8 0.01067c-0.7279-0.015-1.46-0.014-2.197 5e-3 -2.719 0.072-5.491 0.377-8.289 0.925-14.02 2.746-24.02 12.61-27.07 26.69-0.6295 2.909-0.566 10.3 0.1172 13.52 1.265 5.978 3.618 10.92 6.523 13.71 1.387 1.331 2.166 1.785 3.61 2.114 0.8002 0.183 1.195 0.164 1.789-0.088 1.414-0.601 1.458-2.507 0.1321-5.646-0.6626-1.569-1.28-4.096-1.713-7.01-0.541-3.641-0.5447-11.53-0.00558-14.24 1.168-5.888 3.328-10.21 6.922-13.84 5.195-5.253 10.81-6.058 14.89-2.137 1.433 1.378 2.43 3.197 3.064 5.587 0.6119 2.311 0.6632 7.31 0.106 10.47-0.8124 4.612-3.395 10.98-6.696 16.51-1.503 2.517-3.978 6.205-8.558 12.76-8.315 11.9-12.31 19.95-14.55 29.3-5.256 21.95 0.2765 45.26 14.79 62.3 11.7 13.73 27.79 22.13 45.68 23.83h0.00186c1.102 0.104 3.653 0.205 5.672 0.219 15.6 0.127 29.98-4.941 42.27-14.9 2.931-2.374 8.897-8.298 8.897-8.832 0-0.41-6.526-6.765-6.948-6.765-0.1272 0-1.303 1.054-2.615 2.343-12.42 12.19-26.28 18.28-41.6 18.26-6.219-6e-3 -11.1-0.716-16.63-2.422-22.36-6.889-38.49-26.91-41-50.9-0.4044-3.865-0.168-13.28 0.4167-16.58 0.9794-5.532 2.87-10.86 5.779-16.28 2.936-5.473 5.554-9.482 13.95-21.36 5.529-7.824 8.918-14.72 10.69-21.74 2.447-9.706 1.745-17.46-2.115-23.4-0.5984-0.92-1.011-1.754-0.917-1.853 0.2192-0.231 2.635 0.157 5.467 0.878 4.77 1.214 10.06 3.778 14.79 7.17 3.387 2.427 4.328 2.761 5.889 2.099 0.906-0.385 1.453-1.359 1.453-2.587 0-1.206-1.635-3.683-4.304-6.522-6.886-7.322-16.78-11.37-27.7-11.59zm-134.5 14.88c-2.024 0.024-4.215 0.322-5.513 0.825-2.139 0.827-4.312 2.996-4.97 4.961-0.5197 1.551-0.6023 4.566-0.1693 6.151 0.753 2.756 3.288 4.635 8.501 6.301 4.544 1.451 5.929 2.657 5.257 4.577-0.9411 2.686-5.113 2.611-9.647-0.172-1.026-0.629-1.984-1.144-2.128-1.144-0.3151 0-3.389 3.816-3.389 4.207 0 0.488 2.603 2.624 4.193 3.442 1.573 0.809 3.906 1.575 5.417 1.779 4.088 0.551 8.221-0.513 10.65-2.74 3.525-3.237 3.626-10.35 0.186-13.1-1.498-1.197-2.313-1.589-6.029-2.891-1.776-0.623-3.608-1.331-4.07-1.574-2.692-1.415-2.038-4.322 1.04-4.623 1.832-0.179 4.567 0.542 6.302 1.66 0.7001 0.452 1.367 0.821 1.481 0.821 0.3285 0 3.116-3.909 3.116-4.37 0-0.925-4.116-3.188-6.987-3.84-0.866-0.197-2.02-0.281-3.235-0.267zm25.07 0.271c-10.06-4e-3 -11.52 0.05-11.91 0.44-0.5772 0.587-0.6355 5.548-0.07069 6.025 0.2156 0.181 1.966 0.341 4.247 0.387l3.88 0.08 0.07254 11.3c0.05002 7.76 0.1707 11.41 0.3832 11.68 0.4124 0.507 6.378 0.54 6.869 0.04 0.249-0.253 0.3348-3.25 0.3348-11.74v-11.4l8.214-0.157 0.07997-3.092c0.05859-2.282-0.01453-3.149-0.279-3.32-0.1969-0.127-5.517-0.234-11.82-0.236zm-81.63 2e-3c-1.332 0.02-2.657 0.141-2.932 0.348-0.346 0.26-0.9392 2.738-2.241 9.35-1.647 8.362-1.937 9.554-2.243 9.24-0.06346-0.065-0.9699-4.184-2.015-9.153-1.045-4.969-2.071-9.209-2.281-9.422-0.2887-0.294-1.169-0.368-3.625-0.308-3.017 0.073-3.249 0.12-3.324 0.654-0.08271 0.587 6.396 27.78 6.895 28.94 0.2639 0.612 0.412 0.635 3.867 0.635 2.538 0 3.674-0.103 3.873-0.353 0.1547-0.195 1.05-3.967 1.988-8.384 0.9383-4.417 1.783-8.16 1.879-8.318 0.3143-0.517 0.5616 0.374 2.338 8.422 0.9624 4.359 1.87 8.085 2.016 8.28 0.1878 0.249 1.279 0.353 3.681 0.353 2.392 0 3.498-0.105 3.698-0.353 0.1572-0.195 1.881-6.898 3.828-14.9 2.876-11.81 3.468-14.59 3.158-14.79-0.4742-0.303-6.381-0.324-6.849-0.022-0.1881 0.121-1.182 4.39-2.208 9.486-1.158 5.752-1.977 9.228-2.163 9.165-0.1646-0.056-1.125-4.21-2.134-9.233-1.179-5.869-1.975-9.223-2.228-9.386-0.3064-0.197-1.647-0.276-2.98-0.255zm31.84 2e-3c-4.823-0.017-9.679 0.034-10.01 0.164-0.3938 0.154-0.4408 1.735-0.4408 14.96 0 8.132 0.08403 14.87 0.186 14.97 0.1021 0.104 4.652 0.189 10.11 0.189 7.347 0 10.01-0.089 10.26-0.34 0.3763-0.383 0.4665-5.237 0.1079-5.811-0.1597-0.255-1.923-0.369-6.611-0.425l-6.391-0.076v-5.379l5.696-0.078c4.131-0.056 5.758-0.171 5.915-0.423 0.1197-0.192 0.2191-1.391 0.2214-2.664 0.006153-3.34 0.2747-3.205-6.421-3.205h-5.551v-5.085l6.475-0.077 6.475-0.076 0.07999-3.092c0.05858-2.282-0.01454-3.151-0.279-3.322-0.2051-0.132-4.995-0.214-9.818-0.23zm200.7 16.04c-0.8356 0-1.865 0.958-2.314 2.152-0.4397 1.171-0.3725 1.985 0.4836 5.83 1.004 4.508 1.43 8.137 1.57 13.39 0.2359 8.86-0.7559 14.27-3.711 20.24-2.606 5.265-6.317 9.321-14.79 16.17-5.995 4.844-9.504 7.896-11.48 9.987-5.501 5.818-8.967 12.25-10.37 19.24-0.6153 3.071-0.5455 10.43 0.1302 13.63 1.248 5.913 3.49 10.58 7.158 14.9 2.387 2.812 6.097 5.547 8.929 6.583h0.00188c1.643 0.601 2.277 0.569 2.831-0.147 0.9901-1.28 0.5344-2.369-2.07-4.962-4.991-4.968-7.131-10.36-7.692-19.4-0.4002-6.443 0.4293-10.6 3.032-15.18 2.828-4.982 6.61-8.916 13.86-14.42 4.844-3.675 7.246-5.763 10.24-8.904 7.673-8.043 11.92-16.76 13.25-27.22 0.5-3.904 0.5065-10.3 0.01488-13.23-1.604-9.555-6.034-18.66-9.079-18.66zm16.25 8.647c-1.149-0.031-1.76 0.423-1.76 1.324 0 0.544 0.3396 1.05 1.622 2.426 0.8915 0.956 2.191 2.46 2.889 3.343l1.269 1.605 3.506 1.169c3.967 1.323 7.691 3.054 9.109 4.235 1.335 1.112 2.725 3.178 4.087 6.07 0.6387 1.356 1.702 3.27 2.362 4.256 0.8041 1.2 1.159 1.932 1.071 2.212-0.468 1.499-5.225 4.428-8.248 5.079-3.864 0.832-9.159 0.031-13.68-2.072-0.9713-0.452-1.829-0.756-1.907-0.677-0.2273 0.231-0.7247 3.109-0.7273 4.218-0.01155 3.578 3.94 6.221 10.44 6.983 2.401 0.281 2.993 0.282 5.227 4e-3 5.463-0.681 10.36-3.129 13.99-6.991 2.364-2.515 3.138-4.164 3.138-6.691 0-1.696-0.06396-1.953-0.8389-3.392-0.4611-0.857-1.598-3.134-2.528-5.062-0.9299-1.928-2.115-4.174-2.634-4.99-2.219-3.493-5.229-5.97-9.838-8.1-5.535-2.559-11.08-4.255-16.02-4.905-0.1859-0.025-0.3604-0.039-0.5246-0.044zm-208.6 13.51c-1.598 0-3.197 0.116-3.426 0.35-0.4818 0.49-0.4818 29.12 0 29.61 0.2465 0.251 2.753 0.341 9.552 0.341 6.799 0 9.307-0.09 9.554-0.341 0.2135-0.217 0.3348-1.321 0.3348-3.057s-0.1214-2.84-0.3348-3.057c-0.2385-0.243-1.993-0.341-6.127-0.341h-5.792v-11.41c0-8.496-0.08579-11.5-0.3348-11.75-0.2298-0.234-1.827-0.35-3.424-0.35zm-20.08 8e-3c-1.66-0.031-3.352 0.036-3.644 0.225-0.3801 0.246-10.39 28.69-10.39 29.52 0 0.519 0.2173 0.55 3.586 0.55 2.531 0 3.671-0.104 3.873-0.354 0.1571-0.194 0.5653-1.309 0.9077-2.477 0.3424-1.168 0.7459-2.284 0.8966-2.479 0.1971-0.254 1.431-0.351 4.395-0.351 2.266 0 4.314 0.075 4.552 0.168 0.2492 0.097 0.7442 1.202 1.168 2.617 0.4039 1.348 0.8756 2.544 1.051 2.658 0.1753 0.114 1.859 0.212 3.741 0.214 2.615 4e-3 3.452-0.085 3.562-0.376 0.1486-0.394-9.747-28.93-10.25-29.56-0.1575-0.197-1.783-0.326-3.443-0.357zm-35.44 2e-3c-1.717 0.027-3.38 0.145-3.441 0.331-0.1589 0.484 8.686 29.5 9.068 29.74 0.5842 0.377 7.883 0.258 8.201-0.135 0.457-0.564 9.297-29.35 9.109-29.66-0.1994-0.328-6.517-0.377-7.016-0.054-0.1842 0.119-1.574 4.663-3.086 10.1-1.512 5.436-2.875 9.925-3.028 9.978-0.1536 0.052-1.505-4.399-3.004-9.891-1.499-5.493-2.869-10.08-3.043-10.2-0.2743-0.18-2.043-0.244-3.759-0.217zm138.7 2e-3 -0.6529 1.062c-0.3597 0.584-1.632 3.009-2.827 5.389-1.195 2.38-2.304 4.283-2.465 4.228-0.1607-0.054-1.491-2.446-2.956-5.317l-2.664-5.221-3.696-0.079c-2.91-0.062-3.725 4e-3 -3.839 0.306-0.07976 0.212 1.99 4.385 4.6 9.277l4.745 8.894v5.537c0 3.928 0.09765 5.635 0.3348 5.876 0.2198 0.224 1.393 0.339 3.426 0.339 2.033 0 3.205-0.115 3.424-0.339 0.2372-0.241 0.3348-1.944 0.3348-5.861v-5.523l5.017-9.022c2.76-4.961 4.947-9.139 4.859-9.284-0.08805-0.144-1.844-0.262-3.901-0.262zm-27.54 0.051c-1.268-3e-3 -2.771 3e-3 -4.531 0.017l-9.853 0.073-0.07255 14.72c-0.03984 8.096-0.01384 14.88 0.05953 15.08 0.1889 0.501 19.93 0.514 20.43 0.013 0.5313-0.54 0.448-5.449-0.1023-6.009-0.3718-0.378-1.378-0.446-6.695-0.446h-6.257l0.07998-2.619 0.07999-2.617 5.696-0.077c4.131-0.056 5.758-0.174 5.915-0.426 0.3568-0.571 0.2675-5.147-0.1079-5.528-0.238-0.242-1.962-0.339-5.988-0.339h-5.655v-5.096h6.211c4.459 0 6.304-0.096 6.544-0.34 0.4935-0.502 0.454-5.719-0.04651-6.141-0.2042-0.172-1.898-0.255-5.703-0.263zm-36.66 0.09-0.07254 14.72c-0.0398 8.096-0.01261 14.88 0.06138 15.08 0.1057 0.281 2.195 0.342 9.682 0.284l9.546-0.076 0.07812-3.184c0.04326-1.752 0.04326-3.209 0-3.241-0.04332-0.031-2.774-0.126-6.068-0.212l-5.988-0.157-0.1377-11.61-0.1395-11.61h-3.482zm-39.23 9.566c0.3215-0.109 2.698 8.018 2.463 8.42-0.09109 0.15-1.224 0.274-2.517 0.274-2.053 0-2.35-0.064-2.349-0.497 8.5e-4 -0.866 2.122-8.102 2.403-8.197zm257.2 22.67c-0.2315 0.021-0.4916 0.163-0.8352 0.412-3.066 2.219-7.583 3.325-14.48 3.547l-4.141 0.132-0.6064 1.269c-1.696 3.538-4.625 7.099-6.7 8.15-1.257 0.636-3.091 0.858-4.111 0.497-0.3881-0.138-0.8372-0.175-0.997-0.083-0.4968 0.284-6.548 6.934-6.551 7.2-0.00558 0.376 3.323 1.849 5.285 2.339v4e-3c2.384 0.593 5.891 0.599 8.145 0.013 4.272-1.11 7.135-3.292 10.86-8.272l1.025-1.369 2.746-0.263c6.143-0.589 11.76-2.821 12.96-5.151 0.9774-1.894 0.4435-4.684-1.425-7.444-0.483-0.714-0.7898-1.016-1.176-0.981zm-255.8 5.462c-4.592-0.023-7.616 1.144-10.47 4.041-2.92 2.968-4.149 6.332-4.148 11.35 0.001343 5.025 1.195 8.563 3.841 11.39 2.309 2.468 4.701 3.676 8.266 4.177 5.071 0.713 10.34-0.946 13.24-4.165 2.592-2.883 3.744-6.35 3.744-11.26 0-5.119-1.245-8.678-4.023-11.5-2.679-2.724-5.998-4.003-10.45-4.026zm31.75 8e-3c-4.468 9e-3 -7.727 1.276-10.44 4.061-2.754 2.824-4.01 6.41-4.01 11.46 0 5.106 1.235 8.629 4.025 11.5 2.149 2.213 4.501 3.372 7.935 3.906 0.9118 0.143 2.472 0.202 3.467 0.131 8.878-0.635 13.65-6.111 13.65-15.67 0-4.989-1.149-8.245-3.964-11.24-2.706-2.876-6.015-4.165-10.66-4.156zm-62.16 0.425c-3.698 9e-3 -5.35 0.091-5.554 0.263-0.3134 0.264-0.3813 2.88-0.3813 14.71 0 12.7 0.05075 14.44 0.4371 14.83 0.5547 0.564 6.209 0.651 6.747 0.104 0.2362-0.24 0.3348-1.899 0.3348-5.661v-5.323h5.132c6.222 0 6.011 0.114 6.004-3.205-0.002295-1.273-0.1019-2.471-0.2214-2.662-0.1561-0.25-1.7-0.37-5.497-0.425l-5.279-0.078-0.07999-2.901-0.07812-2.902 5.928-4e-3c3.26-3e-3 6.088-0.107 6.285-0.234 0.2656-0.171 0.3379-1.04 0.279-3.322l-0.07998-3.092-9.576-0.076c-1.709-0.013-3.169-0.017-4.401-0.015zm80.82 0.091-0.07068 14.85c-0.05668 11.68 0.001992 14.88 0.2772 15.07 0.5089 0.329 9.702 0.285 12.47-0.058 6.939-0.861 10.74-4.032 12.13-10.11 0.5714-2.495 0.5666-7.603-0.00743-9.772-1.288-4.863-4.281-7.934-9.208-9.444-1.416-0.434-2.734-0.518-8.635-0.522zm-18.49 6.378c2.392-8e-3 3.95 0.787 5.192 2.653 1.176 1.768 1.55 3.205 1.557 5.973 0.008943 3.962-1.295 6.82-3.67 8.043-1.29 0.665-3.464 0.91-4.957 0.558-1.587-0.373-3.485-2.137-4.295-3.991-0.5563-1.274-0.6541-1.96-0.6566-4.61-0.00243-2.638 0.09454-3.33 0.6306-4.529 1.275-2.852 3.145-4.088 6.2-4.097zm-31.8 0.017c1.828 5e-3 2.992 0.454 4.204 1.567 1.447 1.329 2.263 3.406 2.433 6.187 0.313 5.118-1.674 8.69-5.268 9.473-1.553 0.339-1.643 0.339-3.095-9e-3 -2.413-0.578-3.685-1.786-4.658-4.429-0.5071-1.377-0.5873-2.1-0.5097-4.626 0.08217-2.671 0.1835-3.175 0.9319-4.661 1.193-2.37 2.616-3.333 5.134-3.478 0.2903-0.016 0.5666-0.025 0.8278-0.024zm57.53 0.399h3.108c3.001 0 3.152 0.029 4.317 0.849 0.8366 0.588 1.463 1.371 2.042 2.549 0.779 1.583 0.8345 1.909 0.8278 4.812-0.00742 2.62-0.1086 3.337-0.6399 4.525-0.7967 1.781-1.563 2.63-2.972 3.292-1.371 0.643-6.469 0.776-6.696 0.175-0.0739-0.196-0.1024-3.922-0.06138-8.28zm154.4 16.86c-2.46 0.03-4.118 0.439-3.824 1.216 0.07117 0.189 1.391 1.19 2.933 2.224 3.752 2.515 6.337 4.864 7.736 7.035 0.1954 0.304 1.492 1.096 3.06 1.87 3.191 1.578 5.695 3.424 7.904 5.828 1.753 1.908 4.081 5.327 5.061 7.429 0.3479 0.746 0.7112 1.484 0.8073 1.64 0.09612 0.155 0.2644 0.281 0.372 0.281 0.4182 0 6.228-6.096 6.228-6.534 0-0.779-1.52-3.88-3.056-6.235-1.812-2.776-5.532-6.606-8.517-8.769-3.123-2.262-6.899-4.107-10.07-4.918-2.912-0.745-6.173-1.096-8.633-1.067zm-241.5 14.39c-3.374-0.024-6.51 0.095-6.78 0.369-0.251 0.255-0.333 3.907-0.333 14.7 0 12.68 0.05266 14.42 0.439 14.81 0.3438 0.349 1.075 0.444 3.411 0.44 1.636-2e-3 3.125-0.104 3.313-0.225 0.2398-0.155 0.3624-1.557 0.4167-4.736l0.07998-4.518 3.62-0.179c6.464-0.319 9.509-2.221 10.84-6.766 0.5592-1.914 0.5676-5.403 0.01674-7.289-0.8902-3.047-3.448-5.352-6.799-6.126-1.233-0.285-4.847-0.452-8.222-0.477zm66.55 0.017c-1.598 0-3.195 0.118-3.424 0.352-0.2441 0.248-0.3348 2.498-0.3348 8.352 0 4.406-0.0935 8.01-0.2083 8.01-0.1149-1e-3 -2.527-3.59-5.361-7.974-2.834-4.385-5.323-8.147-5.53-8.36-0.2829-0.289-1.119-0.368-3.343-0.308l-2.963 0.082-0.07254 14.84c-0.05665 11.69 0.003039 14.89 0.279 15.07 0.5762 0.372 6.18 0.284 6.561-0.104 0.2441-0.247 0.3348-2.466 0.3348-8.21 0-4.361 0.1094-7.869 0.2455-7.869 0.1352 0 2.66 3.62 5.612 8.045 3.461 5.19 5.574 8.104 5.951 8.207 0.3213 0.087 1.61 0.16 2.863 0.162 1.703 3e-3 2.387-0.108 2.714-0.44 0.3863-0.393 0.439-2.127 0.439-14.81 0-10.79-0.08387-14.45-0.3348-14.7-0.2298-0.234-1.828-0.352-3.426-0.352zm-38.08 0.016c-3.087-5e-3 -3.287 0.029-3.659 0.631-0.4093 0.662-10.2 28.54-10.2 29.04 0 0.158 0.1564 0.349 0.3478 0.428 0.1915 0.079 1.805 0.151 3.586 0.164 2.484 0.017 3.315-0.072 3.568-0.382 0.1812-0.222 0.6687-1.464 1.081-2.76l0.7478-2.354 4.487-0.08c3.373-0.058 4.557 0.014 4.775 0.286 0.159 0.198 0.562 1.315 0.8966 2.482 0.3345 1.168 0.8098 2.281 1.057 2.475 0.3012 0.238 1.533 0.356 3.746 0.356 2.75 0 3.326-0.073 3.467-0.446 0.1934-0.513-9.83-29.31-10.31-29.63-0.174-0.114-1.788-0.209-3.584-0.211zm98.85 5e-3c-1.804 0.012-3.574 0.1-3.668 0.255-0.08854 0.146 2.034 4.387 4.717 9.424l4.879 9.16v5.557c0 4.175 0.08681 5.586 0.3478 5.697 0.5027 0.209 5.93 0.22 6.453 0.017 0.3813-0.149 0.4408-0.929 0.4408-5.809v-5.638l5.046-9.076c3.186-5.731 4.948-9.175 4.781-9.345-0.1489-0.153-1.898-0.235-4.001-0.189l-3.737 0.08-2.703 5.231c-1.486 2.879-2.818 5.274-2.959 5.321-0.1416 0.048-1.419-2.244-2.84-5.092-1.421-2.848-2.721-5.272-2.889-5.387-0.2248-0.153-2.063-0.217-3.867-0.206zm-18.43 0.038c-0.8463-5e-3 -1.743-1e-3 -2.66 0.011l-6.267 0.082-0.07255 14.84c-0.05668 11.69 0.00305 14.89 0.279 15.07 0.4513 0.29 6.091 0.297 6.54 6e-3 0.2421-0.156 0.3643-1.616 0.4185-5.022l0.07627-4.799 4.278-0.166 2.254 4.755c1.24 2.615 2.465 4.911 2.72 5.105 0.5386 0.413 6.669 0.497 7.284 0.101 0.3715-0.239-0.8121-2.847-4.468-9.836l-0.9115-1.738 1.68-1.825c2.156-2.342 2.742-4.035 2.567-7.423-0.2592-5.02-3.056-8.027-8.302-8.927-0.7949-0.136-2.878-0.225-5.417-0.24zm-18.69 6e-3c-1.519-3e-3 -3.324 2e-3 -5.445 0.015l-11.8 0.074-0.07998 3.091c-0.05858 2.283 0.01453 3.152 0.279 3.322 0.1969 0.127 2.081 0.233 4.187 0.235l3.83 4e-3v11.3c0 9.899 0.05391 11.36 0.4371 11.75 0.3438 0.349 1.075 0.444 3.411 0.44 1.636-3e-3 3.13-0.104 3.32-0.227 0.2628-0.17 0.3611-2.945 0.4167-11.67l0.07254-11.45 3.981-0.14c3.125-0.111 4.036-0.233 4.243-0.567 0.4281-0.69 0.3381-5.535-0.1097-5.912-0.205-0.172-2.183-0.255-6.739-0.263zm20.38 6.5c1.01 0.017 1.987 0.108 2.424 0.239 1.331 0.398 2.143 1.664 2.145 3.343 0.00144 1.714-0.6545 2.831-2.037 3.469-1.43 0.66-5.689 0.789-5.919 0.18-0.07706-0.204-0.1028-1.892-0.05953-3.751l0.07813-3.381 2.366-0.089c0.3255-0.012 0.6659-0.015 1.003-0.01zm-106.6 4e-3c2.082 0.029 2.956 0.474 3.713 1.736 0.6245 1.041 0.7182 3.092 0.1897 4.154-0.1914 0.385-0.7727 0.989-1.291 1.345-0.8052 0.551-1.301 0.646-3.415 0.646-1.778 0-2.513-0.107-2.613-0.372-0.07751-0.204-0.1046-1.954-0.06138-3.892l0.07812-3.522 2.431-0.082c0.35-0.011 0.6717-0.017 0.9691-0.013zm24.6 3.061c0.05419 5e-3 0.108 0.031 0.1525 0.076 0.3455 0.351 2.381 7.899 2.238 8.295v2e-3c-0.2245 0.576-4.575 0.592-4.792 0.017-0.1349-0.357 1.937-8.016 2.256-8.34 0.03766-0.038 0.0909-0.054 0.1451-0.05z" style="fill:#08c1ab;stroke-width:.2243"/>
</svg>
