<svg  version="1.1" viewBox="0 0 267.5 11.01" xmlns="http://www.w3.org/2000/svg">
 <path d="m28.64 0v2.691c-0.3358-0.2039-0.6963-0.3809-1.205-0.3809-0.7844 0-1.475 0.3472-2.031 1.008-0.5571 0.6577-0.8379 1.462-0.8379 2.385 0 0.9141 0.2416 1.671 0.7344 2.238 0.4916 0.5663 1.155 0.8594 1.938 0.8594 0.593 0 1.018-0.2224 1.402-0.4902v0.3789h1.418v-8.689zm23.68 0c-0.6536 0-1.209 0.2429-1.613 0.7109-0.3664 0.4245-0.5083 1.027-0.543 1.709h-0.918v1.254h0.8594v5.021h1.418v-5.021h1.203v-1.254h-1.219c-0.00325-0.04076-0.01172-0.08409-0.01172-0.123 0-0.3361 0.0908-0.5921 0.2656-0.7988 3.9e-4 -4.55e-4 -3.8e-4 -0.001499 0-0.001953 0.1785-0.2056 0.3805-0.2969 0.6524-0.2969 0.159 0 0.3375 0.03147 0.5352 0.09961l0.1699 0.05859 0.0625-0.168 0.3633-0.9551-0.1875-0.05859c-0.3639-0.1149-0.7098-0.1758-1.037-0.1758zm17.35 0v2.691c-0.3356-0.2033-0.6951-0.3809-1.203-0.3809-0.7839 0-1.475 0.348-2.031 1.008-0.5571 0.6577-0.8379 1.462-0.8379 2.385 0 0.9141 0.2416 1.671 0.7344 2.238 0.4916 0.5663 1.153 0.8594 1.936 0.8594 0.593 0 1.018-0.2224 1.402-0.4902v0.3789h1.418v-8.689zm21.79 0v2.691c-0.3356-0.2033-0.6951-0.3809-1.203-0.3809-0.7844 0-1.477 0.3472-2.033 1.008-0.5571 0.6577-0.8379 1.462-0.8379 2.385 0 0.9141 0.2416 1.671 0.7344 2.238 0.4916 0.5663 1.155 0.8594 1.938 0.8594 0.593 0 1.018-0.2224 1.402-0.4902v0.3789h1.418v-8.689zm52.19 0c-0.6536 0-1.207 0.2429-1.611 0.7109-0.3664 0.4245-0.5083 1.027-0.543 1.709h-0.918v1.254h0.8594v5.021h1.418v-5.021h1.201v-1.254h-1.217c-0.00325-0.04076-0.01172-0.08409-0.01172-0.123 0-0.3361 0.08885-0.5921 0.2637-0.7988 0.179-0.2072 0.3795-0.2988 0.6523-0.2988 0.159 0 0.3376 0.03147 0.5352 0.09961l0.1699 0.05859 0.06446-0.168 0.3613-0.9551-0.1875-0.05859c-0.3639-0.1149-0.7098-0.1758-1.037-0.1758zm56.56 0v8.695h1.42v-4.498c0.1167-0.1588 0.2704-0.3062 0.4902-0.4336h0.00195c0.2343-0.1372 0.4551-0.2012 0.6719-0.2012 0.3533 0 0.5926 0.1049 0.7734 0.3164 0.1823 0.2132 0.2812 0.5113 0.2812 0.9219v3.895h1.418v-3.895c0-0.7438-0.1889-1.357-0.5801-1.809-0.3879-0.4517-0.9407-0.6816-1.605-0.6816-0.3582 0-0.7098 0.08055-1.045 0.2383-0.1796 0.08353-0.2739 0.2181-0.4062 0.3301v-2.879zm6.174 0v8.805h0.8066l0.3281-0.4727c0.1438 0.1114 0.2828 0.225 0.4883 0.3066h0.00195c0.2916 0.1103 0.5905 0.166 0.8926 0.166 0.9003 0 1.645-0.303 2.184-0.9043 0.539-0.6058 0.8027-1.433 0.8027-2.449 0-0.8884-0.2687-1.647-0.8027-2.24-0.5329-0.5956-1.25-0.9004-2.102-0.9004-0.2912 0-0.5859 0.06362-0.8809 0.1855-0.137 0.05738-0.1982 0.1401-0.3008 0.207v-2.703zm59.7 0v2.691c-0.3356-0.2033-0.6951-0.3809-1.203-0.3809-0.7844 0-1.477 0.3472-2.033 1.008-0.5571 0.6577-0.8379 1.462-0.8379 2.385 0 0.9141 0.2416 1.671 0.7344 2.238 0.4916 0.5663 1.155 0.8594 1.938 0.8594 0.593 0 1.018-0.2224 1.402-0.4902v0.3789h1.418v-8.689zm-243.1 0.1875c-0.223 0-0.4314 0.08574-0.5879 0.2422-0.1564 0.1564-0.2422 0.3669-0.2422 0.5898s0.08515 0.4322 0.2402 0.5918l0.00196 0.001953 0.00195 0.001953c0.159 0.1545 0.3658 0.2402 0.5859 0.2402 0.223 0 0.4334-0.08574 0.5898-0.2422 0.1592-0.1592 0.2461-0.3695 0.2461-0.5938 0-0.2206-0.08739-0.4288-0.2461-0.584-0.1558-0.1593-0.3665-0.248-0.5898-0.248zm9.504 0c-0.223 0-0.4334 0.08574-0.5898 0.2422-0.1564 0.1564-0.2402 0.3669-0.2402 0.5898s0.08516 0.4322 0.2402 0.5918v0.001953l0.00195 0.001953c0.159 0.1545 0.3677 0.2402 0.5879 0.2402 0.223 0 0.4314-0.08574 0.5879-0.2422 0.1592-0.1592 0.248-0.3695 0.248-0.5938 0-0.2206-0.08935-0.4288-0.248-0.584-0.1558-0.1593-0.3646-0.248-0.5879-0.248zm86.85 0c-0.223 0-0.4334 0.08574-0.5898 0.2422-0.1564 0.1564-0.2402 0.3669-0.2402 0.5898s0.0832 0.4322 0.2383 0.5918l0.0039 0.003906c0.159 0.1545 0.3677 0.2402 0.5879 0.2402 0.223 0 0.4314-0.08574 0.5879-0.2422 0.1592-0.1592 0.248-0.3695 0.248-0.5938 0-0.2206-0.08935-0.4288-0.248-0.584-0.1558-0.1593-0.3646-0.248-0.5879-0.248zm73.29 0c-0.223 0-0.4314 0.08574-0.5879 0.2422-0.1564 0.1564-0.2422 0.3669-0.2422 0.5898s0.08515 0.4322 0.2402 0.5918l0.00195 0.001953 0.00196 0.001953c0.159 0.1545 0.3658 0.2402 0.5859 0.2402 0.223 0 0.4314-0.08574 0.5879-0.2422 0.1592-0.1592 0.248-0.3695 0.248-0.5938 0-0.2206-0.08935-0.4288-0.248-0.584-0.1558-0.1593-0.3646-0.248-0.5879-0.248zm39.75 0c-0.223 0-0.4314 0.08574-0.5879 0.2422-0.1564 0.1564-0.2422 0.3669-0.2422 0.5898s0.08515 0.4322 0.2402 0.5918l0.0039 0.003906c0.159 0.1545 0.3658 0.2402 0.5859 0.2402 0.223 0 0.4314-0.08574 0.5879-0.2422 0.1592-0.1592 0.248-0.3695 0.248-0.5938 0-0.2206-0.08935-0.4288-0.248-0.584-0.1558-0.1593-0.3646-0.248-0.5879-0.248zm-230.6 0.005859c-0.1859 0-0.6848 0.01987-1.52 0.05664l-0.1777 0.007813v8.438h1.475v-3.096c0.2642 0.02134 0.5224 0.04102 0.6309 0.04102 1.063 0 1.889-0.2323 2.453-0.7266 0.5642-0.4942 0.8398-1.239 0.8398-2.182 0-0.8308-0.3273-1.494-0.9609-1.918-0.6336-0.4241-1.547-0.6211-2.74-0.6211zm27.32 0.1777h0.6758v7.947h-0.6758v-0.6973l-0.3164 0.3164c-0.3221 0.3221-0.7949 0.4922-1.457 0.4922-0.6943 0-1.229-0.2385-1.656-0.7305-0.4259-0.4906-0.6445-1.146-0.6445-1.996 0-0.8487 0.2488-1.553 0.75-2.145 0.502-0.5962 1.07-0.877 1.748-0.877 0.581 0 0.9936 0.1341 1.266 0.3809l0.3106 0.2812zm23.31 0c0.2219 0 0.4729 0.06038 0.7266 0.125l-0.1562 0.418c-0.162-0.04217-0.3252-0.08594-0.4766-0.08594-0.3666 0-0.6936 0.1499-0.9336 0.4277h-0.00195v0.001954c-0.236 0.2781-0.3535 0.6336-0.3535 1.039 0 0.1107 0.01124 0.2238 0.03125 0.3398l0.02539 0.1543h1.174v0.5117h-1.203v5.021h-0.6758v-5.021h-0.8594v-0.5117h0.8594v-0.1855c0-0.7229 0.1756-1.263 0.5117-1.652 0.3383-0.3919 0.7656-0.582 1.332-0.582zm17.72 0h0.6777v7.947h-0.6777v-0.6973l-0.3164 0.3164c-0.3221 0.3221-0.7949 0.4922-1.457 0.4922-0.6943 0-1.229-0.2385-1.656-0.7305-0.4259-0.4906-0.6426-1.146-0.6426-1.996 0-0.8487 0.2488-1.553 0.75-2.145 0.502-0.5962 1.07-0.877 1.748-0.877 0.581 0 0.9916 0.1341 1.264 0.3809l0.3106 0.2812zm21.79 0h0.6758v7.947h-0.6758v-0.6973l-0.3164 0.3164c-0.3221 0.3221-0.7949 0.4922-1.457 0.4922-0.6943 0-1.229-0.2385-1.656-0.7305-0.4259-0.4906-0.6445-1.146-0.6445-1.996 0-0.8487 0.2488-1.553 0.75-2.145 0.5021-0.5962 1.072-0.877 1.75-0.877 0.581 0 0.9916 0.1341 1.264 0.3809l0.3105 0.2812zm51.82 0c0.2224 0 0.4741 0.06003 0.7285 0.125l-0.1582 0.418c-0.162-0.04217-0.3252-0.08594-0.4766-0.08594-0.3666 0-0.6936 0.1499-0.9336 0.4277v0.001954c-0.236 0.2781-0.3535 0.6336-0.3535 1.039 0 0.1107 0.00928 0.2238 0.02929 0.3398l0.02735 0.1543h1.172v0.5117h-1.201v5.021h-0.6758v-5.021h-0.8613v-0.5117h0.8613v-0.1855c0-0.7229 0.1756-1.263 0.5117-1.652 0.3383-0.3919 0.7636-0.582 1.33-0.582zm56.93 0h0.6777v3.516l0.3398-0.5293c0.116-0.1801 0.3097-0.3399 0.5957-0.4727 0.2895-0.1363 0.5835-0.2031 0.8867-0.2031 0.584 0 1.007 0.1822 1.324 0.5527h0.00195c0.3218 0.3715 0.4883 0.8844 0.4883 1.566v3.523h-0.6758v-3.523c0-0.4714-0.1178-0.8701-0.3691-1.164-0.2528-0.2957-0.6236-0.4434-1.057-0.4434-0.2903 0-0.5792 0.0859-0.8594 0.25-0.2724 0.1579-0.4902 0.349-0.6445 0.5742l-0.03125 0.04688v4.26h-0.6777zm6.174 0h0.6758v3.24l0.3359-0.4609c0.06619-0.09072 0.2234-0.2056 0.4785-0.3125 0.2562-0.1059 0.5003-0.1562 0.7383-0.1562 0.7657 0 1.358 0.2539 1.824 0.7754h0.00195c0.472 0.5237 0.707 1.178 0.707 1.994 0 0.9532-0.2411 1.675-0.709 2.201-0.4684 0.5231-1.087 0.7812-1.906 0.7812-0.2552 0-0.5068-0.04612-0.7578-0.1406-0.2513-0.09984-0.4327-0.2157-0.5469-0.3359l-0.1562-0.166-0.1309 0.1895-0.3125 0.4531h-0.2422zm59.7 0h0.6758v7.947h-0.6758v-0.6973l-0.3164 0.3164c-0.3221 0.3221-0.7949 0.4922-1.457 0.4922-0.6943 0-1.229-0.2385-1.656-0.7305-0.4259-0.4906-0.6445-1.146-0.6445-1.996 0-0.8487 0.2488-1.553 0.75-2.145 0.5021-0.5962 1.072-0.877 1.75-0.877 0.581 0 0.9916 0.1341 1.264 0.3809l0.3105 0.2812zm-243.5 0.1875c0.1359 0 0.2303 0.04004 0.3242 0.1367l0.0039 0.003906c0.09733 0.09455 0.1367 0.189 0.1367 0.3203 0 0.1359-0.04066 0.2321-0.1387 0.3301-0.09344 0.09344-0.189 0.1348-0.3262 0.1348-0.131 0-0.2272-0.03992-0.3242-0.1328-0.0948-0.09759-0.1348-0.1949-0.1348-0.332s0.03937-0.2347 0.1328-0.3281c0.09345-0.09344 0.189-0.1328 0.3262-0.1328zm9.504 0c0.1359 0 0.2303 0.04004 0.3242 0.1367l0.00196 0.001953 0.00195 0.001953c0.09733 0.09455 0.1367 0.189 0.1367 0.3203 0 0.1359-0.04066 0.2321-0.1387 0.3301-0.09345 0.09344-0.189 0.1348-0.3262 0.1348-0.131 0-0.2272-0.03992-0.3242-0.1328-0.0948-0.09759-0.1348-0.1949-0.1348-0.332s0.03937-0.2347 0.1328-0.3281c0.09344-0.09344 0.189-0.1328 0.3262-0.1328zm86.85 0c0.1359 0 0.2303 0.04004 0.3242 0.1367l0.00195 0.001953 0.00196 0.001953c0.09732 0.09455 0.1367 0.189 0.1367 0.3203 0 0.1359-0.04066 0.2321-0.1387 0.3301-0.09344 0.09344-0.189 0.1348-0.3262 0.1348-0.131 0-0.2272-0.03992-0.3242-0.1328-0.0948-0.09759-0.1348-0.1949-0.1348-0.332s0.03937-0.2347 0.1328-0.3281c0.09344-0.09344 0.189-0.1328 0.3262-0.1328zm73.29 0c0.1359 0 0.2303 0.04004 0.3242 0.1367l0.00196 0.001953 0.00195 0.001953c0.09733 0.09455 0.1367 0.189 0.1367 0.3203 0 0.1359-0.04066 0.2321-0.1387 0.3301-0.09344 0.09344-0.189 0.1348-0.3262 0.1348-0.131 0-0.2272-0.03992-0.3242-0.1328-0.0948-0.09759-0.1348-0.1949-0.1348-0.332s0.03937-0.2347 0.1328-0.3281c0.09344-0.09344 0.189-0.1328 0.3262-0.1328zm39.75 0c0.1359 0 0.2303 0.04004 0.3242 0.1367l0.00195 0.001953 0.00196 0.001953c0.09732 0.09455 0.1367 0.189 0.1367 0.3203 0 0.1359-0.04065 0.2321-0.1387 0.3301-0.09344 0.09344-0.189 0.1348-0.3262 0.1348-0.131 0-0.2272-0.03992-0.3242-0.1328-0.0948-0.09759-0.1348-0.1949-0.1348-0.332s0.03937-0.2347 0.1328-0.3281c0.09344-0.09344 0.189-0.1328 0.3262-0.1328zm-230.6 0.005859c1.152 0 1.995 0.1961 2.533 0.5566 0.5386 0.3605 0.7969 0.873 0.7969 1.611 0 0.8724-0.2408 1.489-0.7129 1.902s-1.2 0.6348-2.209 0.6348c-0.1068 0-0.3834-0.01613-0.8008-0.05273l-0.2012-0.01758v3.125h-0.7324v-7.711c0.6687-0.0286 1.185-0.04883 1.326-0.04883zm0.1914 0.6211c-0.1624 0-0.3684 0.01916-0.627 0.05664l-0.1582 0.02344v3.314l0.1699 0.01367c0.2335 0.01838 0.4135 0.03179 0.5371 0.04102 0.06179 0.004611 0.1098 0.007415 0.1445 0.009765 0.03478 0.00235 0.04376 0.003906 0.07227 0.003906 0.7078 0 1.263-0.137 1.652-0.4434s0.584-0.7779 0.584-1.355c0-0.5382-0.2167-0.9834-0.6289-1.262-0.4122-0.2783-0.9958-0.4023-1.746-0.4023zm0 0.3711c0.7086 0 1.222 0.1238 1.539 0.3379 0.3172 0.2141 0.4648 0.5085 0.4648 0.9551 0 0.4991-0.1469 0.8325-0.4414 1.064-0.2945 0.232-0.7647 0.3633-1.424 0.3633 0.01565 0-0.01562 2.9e-4 -0.04883-0.001953-0.03321-0.002244-0.07931-0.00519-0.1406-0.009766-0.08324-0.006212-0.229-0.01688-0.3633-0.02734v-2.645c0.1568-0.01848 0.3192-0.03711 0.4141-0.03711zm42.68 0.3984-0.582 0.7012c-0.3506-0.2046-0.7567-0.3457-1.287-0.3457-0.6723 0-1.258 0.225-1.721 0.668-0.4634 0.4436-0.7012 1.017-0.7012 1.678 0 0.89 0.4184 1.542 1.102 1.98-0.1821 0.07144-0.3758 0.1297-0.5195 0.2441v0.001954h-0.00195c-0.2237 0.1815-0.3613 0.4172-0.3613 0.6738 0 0.357 0.1318 0.6656 0.3887 0.8594 0.2569 0.1938 0.6124 0.2734 1.055 0.2734 0.1938 0 0.4409-0.03181 0.7559-0.0918 0.3044-0.05799 0.5188-0.08398 0.6055-0.08398 0.324 0 0.5467 0.05995 0.6719 0.1465 0.1251 0.08653 0.1797 0.1906 0.1797 0.3848 0 0.1723-0.08157 0.3041-0.3223 0.4453l-0.00196 0.001953c-0.231 0.1405-0.571 0.2207-1.023 0.2207-0.4654 0-0.994-0.1856-1.584-0.5801l-0.1523-0.1035-0.7695 1.137 0.1387 0.1074c0.2796 0.2117 0.6394 0.3829 1.076 0.5234 0.4381 0.141 0.8595 0.2129 1.264 0.2129 0.7737 0 1.43-0.1736 1.951-0.5332 0.5274-0.3609 0.8145-0.8713 0.8145-1.471 0-0.5325-0.1873-0.9823-0.5547-1.293-4.4e-4 -3.8e-4 -0.00151 3.78e-4 -0.00195 0-0.3648-0.3144-0.867-0.4629-1.477-0.4629-0.1842 0-0.436 0.03016-0.7754 0.08984-0.3284 0.05406-0.571 0.08008-0.707 0.08008-0.1671 0-0.2846-0.02034-0.334-0.04102s-0.02149 0.001445-0.02149 0c0-0.006692-0.00443-0.001083 0.01172-0.01758 0.01615-0.01649 0.05862-0.04535 0.1289-0.07226l0.00195-0.001954h0.00195c0.1632-0.06597 0.2886-0.1014 0.3613-0.1094l0.8652-0.08789c0.6399-0.06243 1.178-0.3161 1.58-0.7539 0.4018-0.4376 0.6055-0.9911 0.6055-1.625 0-0.5159-0.1597-0.9263-0.3848-1.289l0.7109-0.5352zm154 0-0.584 0.7012c-0.3503-0.204-0.7555-0.3457-1.285-0.3457-0.6723 0-1.26 0.225-1.723 0.668-0.4634 0.4436-0.7012 1.017-0.7012 1.678 0 0.89 0.4184 1.542 1.102 1.98-0.1821 0.07144-0.3758 0.1297-0.5195 0.2441v0.001954c-0.2237 0.1815-0.3613 0.4172-0.3613 0.6738 0 0.357 0.1298 0.6656 0.3867 0.8594 0.2569 0.1938 0.6124 0.2734 1.055 0.2734 0.1938 0 0.4429-0.03181 0.7578-0.0918 0.3044-0.05799 0.5168-0.08398 0.6035-0.08398 0.3241 0 0.5467 0.05995 0.6719 0.1465s0.1797 0.1906 0.1797 0.3848c0 0.1723-0.08157 0.3041-0.3223 0.4453v0.001953h-0.00195c-0.2311 0.1405-0.571 0.2207-1.023 0.2207-0.4654 0-0.994-0.1856-1.584-0.5801l-0.1523-0.1035-0.7695 1.137 0.1406 0.1074c0.2796 0.2117 0.6375 0.3829 1.074 0.5234 0.4381 0.141 0.8595 0.2129 1.264 0.2129 0.773 0 1.43-0.1743 1.951-0.5332 0.5274-0.3609 0.8144-0.8713 0.8144-1.471 0-0.5325-0.1873-0.9823-0.5547-1.293-4.4e-4 -3.8e-4 -0.00151 3.79e-4 -0.00195 0-0.3648-0.3144-0.865-0.4629-1.475-0.4629-0.1842 0-0.4379 0.03016-0.7773 0.08984-0.3284 0.05406-0.571 0.08008-0.707 0.08008-0.1671 0-0.2826-0.02034-0.332-0.04102-0.04941-0.02068-0.02148 0.001445-0.02148 0 0-0.006692-0.00443-0.001083 0.01172-0.01758 0.01615-0.01649 0.05666-0.04535 0.127-0.07226l0.00196-0.001954h0.00195c0.164-0.0663 0.2907-0.1016 0.3633-0.1094l0.8633-0.08789c0.6399-0.06243 1.178-0.3161 1.58-0.7539 0.4018-0.4376 0.6055-0.9911 0.6055-1.625 0-0.5152-0.1603-0.9247-0.3848-1.287l0.7129-0.5371zm-189.8 0.3555c-0.6305 0-1.121 0.3102-1.518 0.7695v-0.6602h-1.418v6.275h1.418v-3.57c0-0.446 0.1242-0.8086 0.373-1.117 0.2538-0.3106 0.5178-0.4453 0.832-0.4453 0.1893 0 0.3784 0.06383 0.582 0.2051l0.1875 0.1289 0.08984-0.209 0.5254-1.232-0.2266-0.04297c-0.3586-0.06724-0.6365-0.1016-0.8457-0.1016zm3.842 0c-0.8445 0-1.553 0.3065-2.078 0.9062-0.5217 0.5962-0.7793 1.384-0.7793 2.328 0 0.9717 0.2442 1.769 0.748 2.363 0.5056 0.5965 1.227 0.8965 2.109 0.8965 0.8643 0 1.579-0.2975 2.092-0.8848 0.5123-0.5911 0.7617-1.392 0.7617-2.375 0-0.9849-0.2424-1.782-0.7441-2.359-0.5029-0.5821-1.225-0.875-2.109-0.875zm24.77 0c-0.7047 0-1.24 0.2854-1.627 0.7461l-0.2754-0.6367h-1.023v6.275h1.418v-4.498c0.1198-0.168 0.2782-0.3174 0.5039-0.4414 0.24-0.1318 0.4604-0.1934 0.6621-0.1934 0.4094 0 0.6531 0.1095 0.7988 0.3066l0.00195 0.001953c0.1455 0.1903 0.248 0.5955 0.248 1.205v3.619h1.418v-3.84c0-0.8118-0.1654-1.447-0.5273-1.887-0.3619-0.4401-0.9133-0.6582-1.598-0.6582zm18.95 0c-0.8445 0-1.555 0.3065-2.08 0.9062-0.5217 0.5962-0.7773 1.384-0.7773 2.328 0 0.9717 0.2442 1.769 0.748 2.363 0.5056 0.5965 1.227 0.8965 2.109 0.8965 0.8643 0 1.579-0.2975 2.092-0.8848 0.5123-0.5911 0.7617-1.392 0.7617-2.375 0-0.9849-0.2424-1.782-0.7441-2.359-0.5029-0.5821-1.225-0.875-2.109-0.875zm6.064 0c-0.8445 0-1.555 0.3065-2.08 0.9062-0.5217 0.5962-0.7793 1.384-0.7793 2.328 0 0.9717 0.2462 1.769 0.75 2.363 0.5056 0.5965 1.227 0.8965 2.109 0.8965 0.8643 0 1.577-0.2975 2.09-0.8848h0.00196c0.5123-0.5911 0.7617-1.392 0.7617-2.375 0-0.9849-0.2444-1.782-0.7461-2.359-0.5029-0.5821-1.223-0.875-2.107-0.875zm15.29 0c-0.3424 0-0.6996 0.06264-1.068 0.1855-0.363 0.1186-0.6561 0.2638-0.8789 0.4453l-0.1152 0.09375 0.623 1.24 0.1816-0.1816c0.3122-0.3122 0.7582-0.4746 1.379-0.4746 0.3916 0 0.6481 0.1019 0.8203 0.2949 0.1298 0.1455 0.1691 0.429 0.2051 0.7168-0.1686-0.03855-0.3444-0.09375-0.4961-0.09375-0.843 0-1.559 0.2188-2.121 0.6621-0.5562 0.4387-0.8535 1.009-0.8535 1.662 0 0.5416 0.1902 1.018 0.5605 1.389h0.00196c0.3717 0.3637 0.8283 0.5547 1.336 0.5547 0.8093 0 1.436-0.2641 1.893-0.7266 0.1052 0.1999 0.2059 0.4087 0.3906 0.5156h0.00195c0.2593 0.1476 0.6069 0.207 1.051 0.207h0.1856v-0.8184l-0.0957-0.05274c-0.2397-0.1341-0.3672-0.3937-0.3672-0.875v-2.117c0-0.8772-0.2015-1.551-0.6387-1.988-0.4341-0.4383-1.11-0.6387-1.994-0.6387zm6.834 0c-0.704 0-1.238 0.2843-1.625 0.7441l-0.2754-0.6348h-1.023v6.275h1.418v-4.498c0.1198-0.168 0.2782-0.3174 0.5039-0.4414 0.24-0.1318 0.4584-0.1934 0.6602-0.1934 0.4094 0 0.6531 0.1095 0.7988 0.3066h0.00196v0.001953c0.1455 0.1903 0.248 0.5955 0.248 1.205v3.619h1.42v-3.84c0-0.8118-0.1654-1.447-0.5273-1.887s-0.9153-0.6582-1.6-0.6582zm14.68 0c-0.5991 0-1.107 0.1459-1.498 0.4473-0.395 0.3045-0.6016 0.7512-0.6016 1.281 0 0.2068 0.0334 0.4056 0.09961 0.5918l0.00195 0.001954v0.001953c0.0702 0.1817 0.1721 0.3549 0.3047 0.5156l0.00195 0.001953 0.00196 0.001953c0.1356 0.1555 0.2934 0.2939 0.4707 0.416h0.00195c0.1907 0.1285 0.517 0.2955 1.002 0.5176 0.2977 0.1331 0.5129 0.277 0.6445 0.418 0.1316 0.141 0.1836 0.2708 0.1836 0.416 0 0.2352-0.06071 0.3739-0.1758 0.4707s-0.312 0.1602-0.6094 0.1602c-0.2902 0-0.7388-0.1702-1.309-0.543l-0.1953-0.127-0.5059 1.357 0.1387 0.07812c0.5737 0.3234 1.192 0.4863 1.844 0.4863 0.6858 0 1.247-0.1552 1.66-0.4863 0.4124-0.3348 0.625-0.8181 0.625-1.391 0-0.4363-0.1162-0.8192-0.3535-1.123-0.2355-0.3016-0.5954-0.554-1.072-0.7715l-0.75-0.3418c-0.3888-0.1761-0.5352-0.3831-0.5352-0.6914 0-0.122 0.04122-0.2007 0.1738-0.293 0.1381-0.09355 0.3073-0.1445 0.5273-0.1445 0.3701 0 0.7452 0.1452 1.137 0.457l0.2129 0.1699 0.4258-1.393-0.1543-0.06445c-0.6674-0.2775-1.228-0.4219-1.697-0.4219zm5.379 0c-0.7688 0-1.451 0.2865-2.01 0.8418-0.628 0.6241-0.9414 1.463-0.9414 2.475 0 0.9751 0.3073 1.78 0.9219 2.371 0.5497 0.5334 1.236 0.8066 2.02 0.8066 0.5323 0 1.019-0.07976 1.461-0.2422 0.3507-0.1233 0.6234-0.2699 0.8144-0.4609l0.09961-0.1016-0.625-1.072-0.1699 0.1465c-0.366 0.319-0.814 0.4785-1.377 0.4785-0.4874 0-0.8606-0.144-1.16-0.4336-0.2939-0.2888-0.4088-0.7408-0.4473-1.273h4.145l0.03907-0.1348c0.06036-0.2133 0.08984-0.4452 0.08984-0.6914 0-0.7906-0.2514-1.452-0.75-1.943-0.5164-0.5124-1.233-0.7656-2.109-0.7656zm6.604 0c-0.6304 0-1.121 0.3102-1.518 0.7695v-0.6602h-1.418v6.275h1.418v-3.57c0-0.446 0.1242-0.8086 0.373-1.117 0.2534-0.3094 0.5164-0.4453 0.8301-0.4453 0.1893 0 0.3803 0.06383 0.584 0.2051l0.1875 0.1289 0.08985-0.209 0.2969-0.6973 2.439 5.814h0.5215l0.04883-0.1113 2.701-6.289h-1.506l-1.463 3.797-1.434-3.797h-1.371c-0.3198-0.05758-0.588-0.09375-0.7812-0.09375zm12.98 0c-0.9852 0-1.794 0.304-2.379 0.9121-0.5791 0.6065-0.8672 1.416-0.8672 2.393 0 0.9576 0.2795 1.746 0.8418 2.324 0.5585 0.5741 1.281 0.8652 2.127 0.8652 0.8576 0 1.594-0.1878 2.191-0.5742l0.1348-0.08789-0.5801-1.236-0.1816 0.1387c-0.4544 0.346-0.888 0.5078-1.311 0.5078-0.5696 0-0.9831-0.162-1.287-0.4824-0.3016-0.3211-0.4609-0.7948-0.4609-1.455 0-0.6648 0.157-1.161 0.457-1.518 0.3012-0.3608 0.6887-0.5352 1.215-0.5352 0.2383 0 0.4801 0.04364 0.7305 0.1328h0.00195c0.2587 0.09091 0.4277 0.1894 0.498 0.2598l0.1562 0.1562 0.7441-1.061-0.1348-0.1094c-0.1964-0.158-0.4745-0.2952-0.8418-0.4277-0.3723-0.1343-0.7236-0.2031-1.055-0.2031zm5.307 0c-0.7688 0-1.451 0.2865-2.01 0.8418-0.628 0.6241-0.9414 1.463-0.9414 2.475 0 0.9751 0.3073 1.78 0.9219 2.371 0.5499 0.5343 1.235 0.8066 2.02 0.8066 0.5323 0 1.019-0.07976 1.461-0.2422 0.3507-0.1233 0.6235-0.2699 0.8145-0.4609l0.1016-0.1016-0.627-1.072-0.1699 0.1465c-0.366 0.319-0.814 0.4785-1.377 0.4785-0.4874 0-0.8606-0.144-1.16-0.4336-0.2939-0.2888-0.4088-0.7408-0.4473-1.273h4.146l0.0371-0.1348c0.06037-0.2133 0.08985-0.4452 0.08985-0.6914 0-0.7906-0.2514-1.452-0.75-1.943-0.5164-0.5124-1.233-0.7656-2.109-0.7656zm5.336 0c-0.5991 0-1.105 0.1459-1.496 0.4473-0.395 0.3045-0.6016 0.7512-0.6016 1.281 0 0.2068 0.03341 0.4056 0.09961 0.5918v0.001954l0.00196 0.001953c0.0702 0.1817 0.1721 0.3549 0.3047 0.5156l0.00196 0.001953 0.00195 0.001953c0.1356 0.1555 0.2914 0.2939 0.4688 0.416h0.00195c0.1907 0.1285 0.517 0.2955 1.002 0.5176h0.00195c0.2977 0.1331 0.5109 0.277 0.6426 0.418 0.1316 0.141 0.1856 0.2708 0.1855 0.416 0 0.2352-0.06266 0.3739-0.1777 0.4707s-0.31 0.1602-0.6074 0.1602c-0.2902 0-0.7407-0.1702-1.311-0.543l-0.1934-0.127-0.5059 1.357 0.1387 0.07812c0.5737 0.3234 1.192 0.4863 1.844 0.4863 0.6858 0 1.245-0.1552 1.658-0.4863h0.00195c0.4124-0.3348 0.625-0.8181 0.625-1.391 0-0.4363-0.1162-0.8192-0.3535-1.123-0.2355-0.3016-0.5954-0.554-1.072-0.7715l-0.75-0.3418c-0.3888-0.1761-0.5371-0.3831-0.5371-0.6914 0-0.122 0.04122-0.2007 0.1738-0.293 0.1383-0.09417 0.3085-0.1445 0.5293-0.1445 0.3701 0 0.7433 0.1452 1.135 0.457l0.2129 0.1699 0.4277-1.393-0.1562-0.06445c-0.6674-0.2775-1.228-0.4219-1.697-0.4219zm12.85 0c-0.8445 0-1.555 0.3065-2.08 0.9062-0.5217 0.5962-0.7793 1.384-0.7793 2.328 0 0.9717 0.2462 1.769 0.75 2.363 0.5056 0.5965 1.227 0.8965 2.109 0.8965 0.8643 0 1.579-0.2975 2.092-0.8848 0.5123-0.5911 0.7617-1.392 0.7617-2.375 0-0.9849-0.2444-1.782-0.7461-2.359-0.5029-0.5821-1.223-0.875-2.107-0.875zm6.609 0c-0.6295 0-1.121 0.3096-1.518 0.7676v-0.6582h-1.418v6.275h1.418v-3.57c0-0.446 0.1222-0.8086 0.3711-1.117 0.2538-0.3106 0.5178-0.4453 0.832-0.4453 0.1893 0 0.3803 0.06383 0.584 0.2051l0.1855 0.1289 0.08985-0.209 0.5254-1.232-0.2266-0.04297c-0.3586-0.06724-0.6345-0.1016-0.8437-0.1016zm7.236 0c-0.8445 0-1.555 0.3065-2.08 0.9062-0.5217 0.5962-0.7773 1.384-0.7773 2.328 0 0.9717 0.2442 1.769 0.748 2.363 0.5056 0.5965 1.227 0.8965 2.109 0.8965 0.8643 0 1.579-0.2975 2.092-0.8848 0.5123-0.5911 0.7617-1.392 0.7617-2.375 0-0.9849-0.2424-1.782-0.7441-2.359-0.5029-0.5821-1.225-0.875-2.109-0.875zm12.78 0c-0.6305 0-1.121 0.3102-1.518 0.7695v-0.6602h-1.418v6.275h1.418v-3.57c0-0.446 0.1242-0.8086 0.373-1.117 0.2534-0.3094 0.5164-0.4453 0.8301-0.4453 0.1893 0 0.3803 0.06383 0.584 0.2051l0.1875 0.1289 0.08789-0.209 0.5273-1.232-0.2285-0.04297c-0.3586-0.06724-0.6345-0.1016-0.8438-0.1016zm7.689 0c-0.704 0-1.238 0.2843-1.625 0.7441l-0.2754-0.6348h-1.025v6.275h1.42v-4.498c0.1198-0.168 0.2782-0.3174 0.5039-0.4414 0.24-0.1318 0.4584-0.1934 0.6602-0.1934 0.4094 0 0.6531 0.1095 0.7988 0.3066h0.00195v0.001953c0.1455 0.1903 0.248 0.5955 0.248 1.205v3.619h1.418v-3.84c0-0.8118-0.1654-1.447-0.5273-1.887-0.3619-0.4401-0.9133-0.6582-1.598-0.6582zm5.816 0c-0.7688 0-1.453 0.2865-2.012 0.8418-0.628 0.6241-0.9414 1.463-0.9414 2.475 0 0.9751 0.3073 1.78 0.9219 2.371 0.5499 0.5343 1.235 0.8066 2.02 0.8066 0.5316 0 1.02-0.08018 1.461-0.2422 0.3507-0.1233 0.6235-0.2699 0.8145-0.4609l0.1016-0.1016-0.627-1.072-0.168 0.1465c-0.366 0.319-0.816 0.4785-1.379 0.4785-0.4874 0-0.8606-0.144-1.16-0.4336-0.2939-0.2888-0.4088-0.7408-0.4473-1.273h4.146l0.03711-0.1348c0.06037-0.2133 0.08985-0.4452 0.08985-0.6914 0-0.7904-0.2498-1.452-0.748-1.943-0.5164-0.5124-1.233-0.7656-2.109-0.7656zm27.4 0c-0.8445 0-1.555 0.3065-2.08 0.9062-0.5217 0.5962-0.7793 1.384-0.7793 2.328 0 0.9717 0.2462 1.769 0.75 2.363 0.5056 0.5965 1.227 0.8965 2.109 0.8965 0.8643 0 1.577-0.2975 2.09-0.8848h0.00195c0.5123-0.5911 0.7617-1.392 0.7617-2.375 0-0.9849-0.2444-1.782-0.7461-2.359-0.5029-0.5821-1.223-0.875-2.107-0.875zm6.609 0c-0.6295 0-1.121 0.3096-1.518 0.7676v-0.6582h-1.42v6.275h1.42v-3.57c0-0.446 0.1222-0.8086 0.3711-1.117 0.2538-0.3106 0.5178-0.4453 0.832-0.4453 0.1893 0 0.3784 0.06383 0.582 0.2051l0.1875 0.1289 0.08984-0.209 0.5254-1.232-0.2266-0.04297c-0.3586-0.06724-0.6345-0.1016-0.8438-0.1016zm3.119 0c-0.5991 0-1.105 0.1459-1.496 0.4473-0.395 0.3045-0.6016 0.7512-0.6016 1.281 0 0.2068 0.03145 0.4056 0.09765 0.5918l0.00195 0.001954v0.001953c0.07021 0.1817 0.1741 0.3549 0.3066 0.5156l0.00195 0.001953v0.001953c0.1356 0.1555 0.2934 0.2939 0.4707 0.416h0.00196c0.1907 0.1285 0.517 0.2955 1.002 0.5176h0.00195c0.2977 0.1331 0.5109 0.277 0.6426 0.418 0.1317 0.141 0.1836 0.2708 0.1836 0.416 0 0.2352-0.0607 0.3739-0.1758 0.4707-0.1151 0.09677-0.31 0.1602-0.6074 0.1602-0.2902 0-0.7407-0.1702-1.311-0.543l-0.1953-0.127-0.5039 1.357 0.1367 0.07812c0.5737 0.3234 1.192 0.4863 1.844 0.4863 0.6858 0 1.247-0.1552 1.66-0.4863 0.4124-0.3348 0.627-0.8181 0.627-1.391 0-0.4363-0.1162-0.8192-0.3535-1.123-0.2355-0.3016-0.5954-0.554-1.072-0.7715l-0.75-0.3418c-0.3888-0.1761-0.5371-0.3831-0.5371-0.6914 0-0.122 0.04122-0.2007 0.1738-0.293 0.1381-0.09355 0.3093-0.1445 0.5293-0.1445 0.3701 0 0.7433 0.1452 1.135 0.457l0.2129 0.1699 0.4277-1.393-0.1562-0.06445c-0.6674-0.2775-1.228-0.4219-1.697-0.4219zm12.35 0c-0.7046 0-1.238 0.2856-1.625 0.7461l-0.2774-0.6367h-1.023v6.275h1.418v-4.498c0.1198-0.1681 0.2801-0.3174 0.5058-0.4414 0.24-0.1318 0.4584-0.1934 0.6602-0.1934 0.4094 0 0.6531 0.1095 0.7988 0.3066l0.00195 0.001953c0.1455 0.1903 0.248 0.5955 0.248 1.205v3.619h1.418v-3.84c0-0.8118-0.1654-1.447-0.5274-1.887-0.3619-0.4401-0.9133-0.6582-1.598-0.6582zm9.568 0c-0.7046 0-1.238 0.2856-1.625 0.7461l-0.2774-0.6367h-1.023v6.275h1.42v-4.498c0.1198-0.168 0.2782-0.3174 0.5039-0.4414 0.24-0.1318 0.4584-0.1934 0.6602-0.1934 0.4094 0 0.6531 0.1095 0.7988 0.3066h0.00195v0.001953c0.1455 0.1903 0.248 0.5955 0.248 1.205v3.619h1.418v-3.84c0-0.8118-0.1654-1.447-0.5274-1.887s-0.9133-0.6582-1.598-0.6582zm5.814 0c-0.7688 0-1.451 0.2865-2.01 0.8418-0.628 0.6241-0.9414 1.463-0.9414 2.475 0 0.9751 0.3073 1.78 0.9219 2.371 0.5499 0.5343 1.235 0.8066 2.02 0.8066 0.5323 0 1.019-0.07976 1.461-0.2422 0.3507-0.1233 0.6235-0.2699 0.8144-0.4609l0.1016-0.1016-0.627-1.072-0.1699 0.1465c-0.366 0.319-0.814 0.4785-1.377 0.4785-0.4874 0-0.8606-0.144-1.16-0.4336-0.2939-0.2888-0.4088-0.7408-0.4473-1.273h4.146l0.03711-0.1348c0.06037-0.2133 0.08985-0.4452 0.08985-0.6914 0-0.7906-0.2514-1.452-0.75-1.943-0.5164-0.5124-1.233-0.7656-2.109-0.7656zm6.152 0c-0.7688 0-1.451 0.2865-2.01 0.8418-0.628 0.6241-0.9434 1.463-0.9434 2.475 0 0.9751 0.3093 1.78 0.9238 2.371 0.5497 0.5334 1.234 0.8066 2.018 0.8066 0.5323 0 1.021-0.07976 1.463-0.2422 0.3507-0.1233 0.6215-0.2699 0.8125-0.4609l0.1016-0.1016-0.625-1.072-0.1699 0.1465c-0.366 0.319-0.814 0.4785-1.377 0.4785-0.4865 0-0.861-0.1432-1.16-0.4316l-0.00196-0.001953c-0.2936-0.2888-0.4068-0.741-0.4453-1.273h4.145l0.03907-0.1348c0.06036-0.2133 0.08984-0.4452 0.08984-0.6914 0-0.7906-0.2514-1.452-0.75-1.943-0.5164-0.5124-1.233-0.7656-2.109-0.7656zm-243.4 0.09375 2.686 6.4h0.5215l0.04687-0.1113 2.703-6.289h-1.506l-1.465 3.799-1.434-3.799zm6.002 0.01562v1.254h0.8105v5.021h1.418v-6.275zm9.504 0v1.254h0.8086v5.021h1.42v-6.275zm86.85 0v1.254h0.8106v5.021h1.418v-6.275zm47.26 0v4.061c0 0.7144 0.1823 1.296 0.5625 1.709 0.3848 0.4134 0.9428 0.6152 1.625 0.6152 0.373 0 0.7504-0.1057 1.125-0.3086 0.2083-0.1138 0.2963-0.2646 0.4356-0.3984v0.5977h1.42v-6.275h-1.42v4.283c-0.07864 0.2119-0.2294 0.4061-0.4863 0.584-0.258 0.1786-0.5338 0.2656-0.8438 0.2656-0.3594 0-0.5906-0.09575-0.748-0.2773-0.1574-0.1816-0.25-0.4754-0.25-0.9043v-3.951h-0.1856zm26.04 0v1.254h0.8105v5.021h1.418v-6.275zm39.75 0v1.254h0.8086v5.021h1.42v-6.275zm-186.2 0.07617 0.3789 0.3594-0.6016 0.4531 0.1133 0.1484c0.2389 0.311 0.3652 0.7212 0.3652 1.254 0 0.5568-0.1673 1.004-0.5078 1.375-0.3404 0.3707-0.7764 0.5796-1.342 0.6348h-0.00195l-0.8652 0.08789c-0.1332 0.01427-0.2814 0.06142-0.4629 0.1348-0.1013 0.03904-0.1882 0.08714-0.2578 0.1582-0.07021 0.0717-0.1172 0.1738-0.1172 0.2773 0 0.1492 0.1174 0.2871 0.248 0.3418 0.1306 0.05466 0.2836 0.07031 0.4766 0.07031 0.1796 0 0.4305-0.03005 0.7695-0.08594h0.00196c0.3294-0.05791 0.5717-0.08398 0.7109-0.08398 0.5509 0 0.9526 0.1297 1.234 0.373h0.00195v0.001953c0.2854 0.2405 0.4258 0.5584 0.4258 1.01 0 0.4883-0.2023 0.8561-0.6523 1.164h-0.00195c-0.4485 0.3092-1.022 0.4688-1.74 0.4688-0.3602 0-0.7433-0.06434-1.15-0.1953-0.3406-0.1096-0.5849-0.246-0.8047-0.3887l0.3711-0.5488c0.5613 0.3435 1.104 0.5781 1.611 0.5781 0.4956 0 0.902-0.08517 1.215-0.2754 0.3089-0.1822 0.5039-0.4518 0.5039-0.7637 0-0.2836-0.1196-0.5391-0.3398-0.6914-0.2203-0.1523-0.516-0.2109-0.8828-0.2109-0.1485 0-0.3609 0.03219-0.6738 0.0918-0.3024 0.05761-0.5358 0.08398-0.6875 0.08398-0.3956 0-0.67-0.077-0.832-0.1992-0.162-0.1222-0.2402-0.2874-0.2402-0.5625 0-0.1329 0.05879-0.2502 0.2246-0.3848 0.1742-0.1383 0.3921-0.2422 0.6602-0.3066l0.5137-0.123-0.4785-0.2246c-0.7773-0.3646-1.139-0.9519-1.139-1.861 0-0.5743 0.1894-1.029 0.5859-1.408 0.3972-0.3802 0.873-0.5664 1.465-0.5664 0.5552 0 0.9671 0.1142 1.252 0.3223l0.1406 0.1035zm154 0 0.3809 0.3594-0.6035 0.4531 0.1152 0.1484c0.239 0.311 0.3633 0.7212 0.3633 1.254 0 0.5568-0.1673 1.004-0.5078 1.375-0.3404 0.3707-0.7764 0.5796-1.342 0.6348l-0.8672 0.08789c-0.1332 0.01427-0.2815 0.06142-0.4629 0.1348-0.1013 0.03904-0.1882 0.08714-0.2578 0.1582-0.0702 0.0717-0.1172 0.1738-0.1172 0.2773 0 0.1492 0.1174 0.2871 0.248 0.3418 0.1306 0.05466 0.2836 0.07031 0.4766 0.07031 0.1796 0 0.4305-0.03005 0.7695-0.08594h0.00195c0.3294-0.05791 0.5737-0.08398 0.7129-0.08398 0.5509 0 0.9526 0.1297 1.234 0.373l0.00195 0.001953c0.2854 0.2405 0.4238 0.5584 0.4238 1.01 0 0.4883-0.2023 0.8561-0.6524 1.164-0.4485 0.3092-1.024 0.4688-1.742 0.4688-0.3602 0-0.7433-0.06434-1.15-0.1953-0.3406-0.1096-0.5849-0.246-0.8047-0.3887l0.3711-0.5488c0.5613 0.3435 1.104 0.5781 1.611 0.5781 0.4939 0 0.9005-0.08457 1.213-0.2734 5.5e-4 -3.24e-4 -5.5e-4 -0.001629 0-0.001953 0.3096-0.1822 0.5059-0.4514 0.5059-0.7637 0-0.2836-0.1196-0.5391-0.3398-0.6914-0.2203-0.1523-0.516-0.2109-0.8828-0.2109-0.1485 0-0.3609 0.03219-0.6738 0.0918-0.3024 0.05761-0.5358 0.08398-0.6875 0.08398-0.3956 0-0.6681-0.077-0.8301-0.1992-0.162-0.1222-0.2402-0.2874-0.2402-0.5625 0-0.1329 0.05685-0.2502 0.2227-0.3848 0.1742-0.1383 0.3921-0.2422 0.6602-0.3066l0.5137-0.123-0.4785-0.2246c-0.7773-0.3646-1.139-0.9519-1.139-1.861 0-0.5743 0.1914-1.029 0.5879-1.408 0.3972-0.3802 0.873-0.5664 1.465-0.5664 0.5552 0 0.9671 0.1142 1.252 0.3223l0.1406 0.1035zm-189.8 0.1855c0.1156 0 0.3367 0.03513 0.543 0.06641l-0.2734 0.6426c-0.1909-0.09638-0.3812-0.1973-0.582-0.1973-0.4281 0-0.8163 0.2072-1.121 0.5801-0.3023 0.3749-0.4551 0.8348-0.4551 1.352v3.199h-0.6758v-5.533h0.6758v0.7578l0.3496 0.08789c0.3577-0.6569 0.8433-0.9551 1.539-0.9551zm3.842 0c0.8057 0 1.398 0.2478 1.828 0.7461 0.4309 0.4954 0.6543 1.192 0.6543 2.117 0 0.92-0.2275 1.62-0.6699 2.131-0.443 0.5078-1.03 0.7578-1.812 0.7578-0.8008 0-1.391-0.2524-1.826-0.7656-0.4369-0.5155-0.6602-1.213-0.6602-2.123 0-0.8782 0.2317-1.563 0.6875-2.084 0.4594-0.5238 1.042-0.7793 1.799-0.7793zm24.77 0c0.6092 0 1.026 0.1751 1.311 0.5215 0.2848 0.3463 0.4434 0.8914 0.4434 1.652v3.469h-0.6758v-3.248c0-0.6463-0.0902-1.118-0.3262-1.428-0.2292-0.309-0.6146-0.4551-1.094-0.4551-0.276 0-0.558 0.08151-0.8398 0.2363-0.2821 0.155-0.5076 0.3523-0.666 0.5898l-0.03125 0.04688v4.258h-0.6758v-5.533h0.4102l0.4258 0.9824 0.1856-0.3125c0.314-0.5277 0.7963-0.7793 1.533-0.7793zm18.95 0c0.8057 0 1.398 0.2478 1.828 0.7461 0.4309 0.4954 0.6543 1.192 0.6543 2.117 0 0.92-0.2275 1.62-0.6699 2.131-0.443 0.5078-1.03 0.7578-1.812 0.7578-0.8008 0-1.391-0.2524-1.826-0.7656-0.4369-0.5155-0.6602-1.213-0.6602-2.123 0-0.8782 0.2297-1.563 0.6856-2.084 0.4596-0.5247 1.043-0.7793 1.801-0.7793zm6.064 0c0.8057 0 1.396 0.2478 1.826 0.7461h0.00196c0.4309 0.4954 0.6543 1.192 0.6543 2.117 0 0.92-0.2295 1.62-0.6719 2.131-0.443 0.5078-1.029 0.7578-1.811 0.7578-0.8008 0-1.391-0.2524-1.826-0.7656-0.4369-0.5155-0.6621-1.213-0.6621-2.123 0-0.8782 0.2317-1.563 0.6875-2.084 0.4596-0.5247 1.043-0.7793 1.801-0.7793zm15.29 0c0.8281 0 1.393 0.1885 1.73 0.5293 0.3419 0.3419 0.5312 0.9061 0.5312 1.727v2.117c0 0.555 0.179 0.986 0.5566 1.197l-0.09375-0.1621v0.3066c-0.2817-0.01997-0.5504-0.05033-0.6816-0.125-0.1662-0.09622-0.2879-0.2509-0.3692-0.498l-0.1055-0.3262-0.2148 0.2695c-0.3802 0.4769-0.9533 0.7168-1.779 0.7168-0.4184 0-0.7644-0.1421-1.076-0.4473-0.3058-0.3058-0.4512-0.6671-0.4512-1.125 0-0.5451 0.2235-0.9847 0.7109-1.369 0.489-0.3864 1.112-0.584 1.893-0.584 0.1937 0 0.4243 0.04211 0.6894 0.1328l0.2441 0.08398v-0.2598c0-0.5053-0.1112-0.9126-0.3652-1.197-0.254-0.2847-0.6367-0.4199-1.098-0.4199-0.591 0-1.034 0.2107-1.412 0.5l-0.293-0.582c0.1668-0.1142 0.355-0.2277 0.6328-0.3184 0.3368-0.1123 0.6542-0.166 0.9512-0.166zm6.834 0c0.6092 0 1.028 0.1751 1.312 0.5215s0.4434 0.8914 0.4434 1.652v3.469h-0.6777v-3.248c0-0.6463-0.08826-1.118-0.3242-1.428-0.2292-0.309-0.6165-0.4551-1.096-0.4551-0.276 0-0.556 0.08151-0.8379 0.2363-0.2821 0.155-0.5076 0.3523-0.666 0.5898l-0.03125 0.04688v4.258h-0.6777v-5.533h0.4102l0.4277 0.9824 0.1836-0.3125c0.314-0.5277 0.7963-0.7793 1.533-0.7793zm14.68 0c0.3501 0 0.8407 0.1388 1.393 0.3516l-0.1856 0.6035c-0.3689-0.2422-0.7439-0.4434-1.131-0.4434-0.279 0-0.5312 0.06602-0.7383 0.207v0.001953h-0.00195c-0.2055 0.1429-0.332 0.3596-0.332 0.5977 0 0.4487 0.2828 0.8159 0.7539 1.029l0.75 0.3418c0.4418 0.2015 0.7502 0.4272 0.9336 0.6621 0.1816 0.2326 0.2734 0.5223 0.2734 0.8945 0 0.4858-0.1564 0.8337-0.4863 1.102-0.3294 0.2642-0.7979 0.4043-1.428 0.4043-0.5361 0-1.031-0.1543-1.51-0.3965l0.2363-0.6328c0.4901 0.2933 0.937 0.5195 1.301 0.5195 0.3494 0 0.6394-0.07288 0.8477-0.248 0.2083-0.1752 0.3086-0.4452 0.3086-0.7539 0-0.2443-0.1044-0.4765-0.2852-0.6699-0.1804-0.1931-0.4336-0.356-0.7598-0.502h-0.00195c-0.4758-0.218-0.7979-0.3871-0.9453-0.4863h-0.00196c-0.1513-0.1044-0.2833-0.2205-0.3965-0.3496v-0.001954c-0.1084-0.1316-0.1896-0.2664-0.2441-0.4062-0.05139-0.1445-0.07813-0.2988-0.07813-0.4668 0-0.4401 0.1465-0.7489 0.457-0.9883 0.3146-0.2425 0.7314-0.3691 1.271-0.3691zm5.379 0c0.8067 0 1.411 0.2206 1.85 0.6562v0.001953c0.4266 0.4198 0.6387 0.9644 0.6387 1.68 0 0.1673-0.02868 0.3121-0.0586 0.4551h-4.279v0.1855c0 0.7247 0.2035 1.313 0.623 1.725v0.001953h0.00196c0.3693 0.3571 0.8544 0.5371 1.418 0.5371 0.5524 0 1.006-0.2091 1.41-0.4961l0.2773 0.4766c-0.1357 0.1078-0.2916 0.2168-0.5527 0.3086l-0.00195 0.001953c-0.3958 0.1458-0.84 0.2188-1.336 0.2188-0.7004 0-1.275-0.2286-1.762-0.7012v-0.001953h-0.00195c-0.5393-0.5187-0.8086-1.205-0.8086-2.104 0-0.9363 0.2787-1.659 0.834-2.211 0.4992-0.4957 1.069-0.7344 1.748-0.7344zm6.604 0c0.1156 0 0.3367 0.03513 0.543 0.06641l-0.2734 0.6426c-0.1911-0.09652-0.383-0.1973-0.584-0.1973-0.4281 0-0.8144 0.2072-1.119 0.5801-0.3023 0.3749-0.4551 0.8348-0.4551 1.352v3.199h-0.6758v-5.533h0.6758v0.7578l0.3496 0.08789c0.3577-0.6569 0.8433-0.9551 1.539-0.9551zm12.98 0c0.2789 0 0.5872 0.05876 0.9277 0.1816 0.2715 0.09797 0.4314 0.1954 0.5781 0.2891l-0.3047 0.4355c-0.1284-0.08567-0.2461-0.1722-0.4453-0.2422-0.2862-0.1019-0.5719-0.1523-0.8555-0.1523-0.6131 0-1.13 0.2257-1.498 0.666-0.3688 0.4376-0.5449 1.032-0.5449 1.756 0 0.7214 0.1806 1.302 0.5625 1.709v0.001953c0.3795 0.3999 0.9136 0.5977 1.557 0.5977 0.447 0 0.8888-0.2177 1.324-0.5039l0.2539 0.5391c-0.5045 0.2897-1.092 0.4746-1.832 0.4746-0.7633 0-1.369-0.2476-1.861-0.7539-0.4887-0.5024-0.7363-1.177-0.7363-2.064 0-0.905 0.257-1.604 0.7656-2.137 0.5104-0.5302 1.199-0.7969 2.109-0.7969zm5.307 0c0.8067 0 1.411 0.2206 1.85 0.6562v0.001953c0.4266 0.4198 0.6387 0.9644 0.6387 1.68 0 0.1673-0.02867 0.3121-0.05859 0.4551h-4.279v0.1855c0 0.7247 0.2035 1.313 0.623 1.725l0.00195 0.001953c0.3693 0.3571 0.8544 0.5371 1.418 0.5371 0.5524 0 1.006-0.2091 1.41-0.4961l0.2793 0.4766c-0.1357 0.1081-0.2928 0.2165-0.5547 0.3086l-0.00196 0.001953c-0.3958 0.1458-0.84 0.2188-1.336 0.2188-0.7004 0-1.275-0.2286-1.762-0.7012v-0.001953c-0.5393-0.5187-0.8086-1.205-0.8086-2.104 0-0.9363 0.2767-1.659 0.832-2.211 0.4992-0.4957 1.069-0.7344 1.748-0.7344zm5.336 0c0.3501 0 0.8407 0.1388 1.393 0.3516l-0.1836 0.6035c-0.3689-0.2422-0.7439-0.4434-1.131-0.4434-0.279 0-0.5312 0.06602-0.7383 0.207l-0.00195 0.001953c-0.2055 0.1429-0.334 0.3596-0.334 0.5977 0 0.4487 0.2828 0.8159 0.7539 1.029l0.75 0.3418c0.4418 0.2015 0.7502 0.4272 0.9336 0.6621 0.1816 0.2326 0.2754 0.5223 0.2754 0.8945 0 0.4858-0.1584 0.8337-0.4883 1.102-0.3294 0.2636-0.7968 0.4043-1.426 0.4043-0.5369 0-1.033-0.1555-1.512-0.3984l0.2363-0.6309c0.4902 0.2934 0.9389 0.5195 1.303 0.5195 0.3494 0 0.6374-0.07288 0.8457-0.248 0.2083-0.1752 0.3086-0.4452 0.3086-0.7539 0-0.2443-0.1025-0.4765-0.2832-0.6699s-0.4347-0.3558-0.7617-0.502c-0.4771-0.2185-0.7996-0.387-0.9473-0.4863h-0.00196c-0.1513-0.1044-0.2813-0.2205-0.3945-0.3496-0.109-0.1321-0.1894-0.2679-0.2441-0.4082-0.05138-0.1445-0.07812-0.2988-0.07812-0.4668 0-0.4401 0.1465-0.7489 0.457-0.9883 0.3146-0.2425 0.7295-0.3691 1.27-0.3691zm12.85 0c0.8057 0 1.398 0.2478 1.828 0.7461 0.4309 0.4954 0.6543 1.192 0.6543 2.117 0 0.92-0.2295 1.62-0.6719 2.131-0.443 0.5078-1.029 0.7578-1.811 0.7578-0.8008 0-1.391-0.2524-1.826-0.7656-0.4369-0.5155-0.6621-1.213-0.6621-2.123 0-0.8782 0.2317-1.563 0.6875-2.084 0.4596-0.5247 1.043-0.7793 1.801-0.7793zm6.609 0c0.1155 0 0.3351 0.03519 0.541 0.06641l-0.2734 0.6426c-0.1905-0.09596-0.3816-0.1973-0.582-0.1973-0.4281 0-0.8144 0.2072-1.119 0.5801h-0.00195c-0.3023 0.3749-0.4531 0.8348-0.4531 1.352v3.199h-0.6777v-5.533h0.6777v0.7578l0.3477 0.08789c0.3577-0.6569 0.8453-0.9551 1.541-0.9551zm7.236 0c0.8057 0 1.398 0.2478 1.828 0.7461 0.4309 0.4954 0.6543 1.192 0.6543 2.117 0 0.92-0.2275 1.62-0.6699 2.131-0.443 0.5078-1.03 0.7578-1.812 0.7578-0.8008 0-1.391-0.2524-1.826-0.7656-0.4369-0.5155-0.6602-1.213-0.6602-2.123 0-0.8782 0.2297-1.563 0.6855-2.084 0.4596-0.5247 1.043-0.7793 1.801-0.7793zm12.78 0c0.1159 0 0.336 0.03497 0.543 0.06641l-0.2734 0.6426c-0.1911-0.09652-0.383-0.1973-0.584-0.1973-0.4281 0-0.8144 0.2072-1.119 0.5801-0.3023 0.3749-0.4551 0.8348-0.4551 1.352v3.199h-0.6758v-5.533h0.6758v0.7578l0.3477 0.08789c0.3577-0.6569 0.8453-0.9551 1.541-0.9551zm7.689 0c0.6092 0 1.028 0.1751 1.312 0.5215s0.4434 0.8914 0.4434 1.652v3.469h-0.6777v-3.248c0-0.6463-0.08825-1.118-0.3242-1.428-0.2292-0.309-0.6165-0.4551-1.096-0.4551-0.276 0-0.556 0.08151-0.8379 0.2363-0.2821 0.155-0.5076 0.3523-0.666 0.5898l-0.03125 0.04688v4.258h-0.6777v-5.533h0.4102l0.4258 0.9824 0.1856-0.3125c0.314-0.5277 0.7963-0.7793 1.533-0.7793zm5.816 0c0.8067 0 1.409 0.2206 1.848 0.6562v0.001953c0.4266 0.4198 0.6387 0.9644 0.6387 1.68 0 0.1672-0.02672 0.3122-0.05664 0.4551h-4.281v0.1855c0 0.7247 0.2035 1.313 0.623 1.725l0.00195 0.001953c0.3693 0.3571 0.8544 0.5371 1.418 0.5371 0.5524 0 1.006-0.2091 1.41-0.4961l0.2793 0.4766c-0.1357 0.1078-0.2934 0.2167-0.5547 0.3086v0.001953h-0.00196c-0.3958 0.1458-0.84 0.2188-1.336 0.2188-0.7004 0-1.275-0.2286-1.762-0.7012v-0.001953c-0.5393-0.5187-0.8086-1.205-0.8086-2.104 0-0.9363 0.2767-1.659 0.832-2.211 0.4992-0.4957 1.071-0.7344 1.75-0.7344zm27.4 0c0.8057 0 1.396 0.2478 1.826 0.7461h0.00195c0.4309 0.4954 0.6543 1.192 0.6543 2.117 0 0.92-0.2295 1.62-0.6719 2.131-0.443 0.5078-1.029 0.7578-1.811 0.7578-0.8008 0-1.391-0.2524-1.826-0.7656-0.4369-0.5155-0.6621-1.213-0.6621-2.123 0-0.8782 0.2317-1.563 0.6875-2.084 0.4596-0.5247 1.043-0.7793 1.801-0.7793zm6.609 0c0.1155 0 0.3351 0.03519 0.541 0.06641l-0.2734 0.6426c-0.1905-0.09596-0.3816-0.1973-0.582-0.1973-0.4281 0-0.8144 0.2072-1.119 0.5801h-0.00196c-0.3023 0.3749-0.4531 0.8348-0.4531 1.352v3.199h-0.6777v-5.533h0.6777v0.7578l0.3477 0.08789c0.3577-0.6569 0.8453-0.9551 1.541-0.9551zm3.119 0c0.3501 0 0.8407 0.1388 1.393 0.3516l-0.1856 0.6035c-0.3688-0.242-0.742-0.4434-1.129-0.4434-0.279 0-0.5312 0.06602-0.7383 0.207l-0.00196 0.001953c-0.2055 0.1429-0.334 0.3596-0.334 0.5977 0 0.4487 0.2828 0.8159 0.7539 1.029l0.75 0.3418c0.4418 0.2015 0.7502 0.4272 0.9336 0.6621 0.1816 0.2326 0.2754 0.5223 0.2754 0.8945 0 0.4858-0.1584 0.8337-0.4883 1.102-0.3294 0.2642-0.7979 0.4043-1.428 0.4043-0.5369 0-1.031-0.1556-1.51-0.3984l0.2363-0.6309c0.4902 0.2934 0.9389 0.5195 1.303 0.5195 0.3494 0 0.6374-0.07288 0.8457-0.248 0.2083-0.1752 0.3086-0.4452 0.3086-0.7539 0-0.2443-0.1025-0.4765-0.2832-0.6699-0.1804-0.1931-0.4355-0.356-0.7617-0.502h-0.00195c-0.4758-0.218-0.7978-0.3871-0.9453-0.4863h-0.00195c-0.1529-0.1055-0.2844-0.2228-0.3984-0.3535-0.1075-0.1309-0.188-0.2653-0.2422-0.4043-0.05139-0.1445-0.07617-0.2988-0.07617-0.4668 0-0.4401 0.1465-0.7489 0.457-0.9883 0.3146-0.2425 0.7295-0.3691 1.27-0.3691zm12.35 0c0.6092 0 1.026 0.1751 1.311 0.5215 0.2848 0.3463 0.4434 0.8914 0.4434 1.652v3.469h-0.6758v-3.248c0-0.6463-0.0902-1.118-0.3262-1.428-0.2292-0.309-0.6146-0.4551-1.094-0.4551-0.276 0-0.558 0.08151-0.8398 0.2363-0.2821 0.155-0.5076 0.3523-0.666 0.5898l-0.03125 0.04688v4.258h-0.6758v-5.533h0.4102l0.4258 0.9824 0.1855-0.3125c0.314-0.5277 0.7963-0.7793 1.533-0.7793zm9.568 0c0.6092 0 1.028 0.1751 1.312 0.5215 0.2848 0.3463 0.4414 0.8914 0.4414 1.652v3.469h-0.6758v-3.248c0-0.6463-0.08825-1.118-0.3242-1.428-0.2292-0.309-0.6165-0.4551-1.096-0.4551-0.276 0-0.558 0.08151-0.8398 0.2363-0.2821 0.155-0.5057 0.3523-0.6641 0.5898l-0.03125 0.04688v4.258h-0.6777v-5.533h0.4102l0.4258 0.9824 0.1855-0.3125c0.314-0.5277 0.7963-0.7793 1.533-0.7793zm5.814 0c0.8067 0 1.411 0.2206 1.85 0.6562v0.001953c0.4266 0.4198 0.6387 0.9644 0.6387 1.68 0 0.1673-0.02867 0.3121-0.05859 0.4551h-4.279v0.1855c0 0.7247 0.2035 1.313 0.623 1.725l0.00195 0.001953c0.3693 0.3571 0.8544 0.5371 1.418 0.5371 0.5524 0 1.006-0.2091 1.41-0.4961l0.2793 0.4766c-0.1357 0.1081-0.2928 0.2165-0.5547 0.3086l-0.00195 0.001953c-0.3958 0.1458-0.84 0.2188-1.336 0.2188-0.7004 0-1.275-0.2286-1.762-0.7012v-0.001953c-0.5394-0.5187-0.8086-1.205-0.8086-2.104 0-0.9363 0.2767-1.659 0.832-2.211 0.4992-0.4957 1.069-0.7344 1.748-0.7344zm6.152 0c0.8067 0 1.409 0.2206 1.848 0.6562v0.001953h0.00195c0.4266 0.4198 0.6387 0.9644 0.6387 1.68 0 0.1673-0.02867 0.3121-0.05859 0.4551h-4.279v0.1855c0 0.7247 0.2035 1.313 0.623 1.725v0.001953c0.3693 0.3571 0.8564 0.5371 1.42 0.5371 0.5517 0 1.004-0.2098 1.408-0.4961l0.2793 0.4785c-0.1357 0.1076-0.292 0.2149-0.5527 0.3066l-0.00195 0.001953h-0.00196c-0.3958 0.1458-0.84 0.2188-1.336 0.2188-0.7004 0-1.273-0.2286-1.76-0.7012l-0.00195-0.001953c-0.5394-0.5187-0.8086-1.205-0.8086-2.104 0-0.9363 0.2787-1.659 0.834-2.211 0.4992-0.4957 1.069-0.7344 1.748-0.7344zm-242.8 0.09375h0.7402l1.686 4.469 1.723-4.469h0.6875l-2.43 5.658h-0.03126zm96.35 0h0.7383l1.688 4.469 1.723-4.469h0.6875l-2.432 5.658h-0.0293zm-90.54 0.01562h1.486v5.533h-0.6758v-5.021h-0.8106zm9.502 0h1.488v5.533h-0.6777v-5.021h-0.8106zm86.85 0h1.488v5.533h-0.6777v-5.021h-0.8106zm47.26 0h0.6777v3.58c0 0.4825 0.1022 0.8724 0.3398 1.146s0.5986 0.4062 1.029 0.4062c0.3809 0 0.7394-0.1118 1.055-0.3301 0.3103-0.2148 0.5297-0.4772 0.6367-0.7812l0.00977-0.0293v-3.992h0.6777v5.533h-0.6777v-0.6309l-0.3496-0.08398c-0.09283 0.1828-0.2979 0.3765-0.6348 0.5605-0.331 0.1793-0.6441 0.2637-0.9473 0.2637-0.6105 0-1.046-0.168-1.352-0.4961-0.3033-0.3294-0.4648-0.8044-0.4648-1.457zm26.04 0h1.486v5.533h-0.6758v-5.021h-0.8106zm39.75 0h1.486v5.533h-0.6777v-5.021h-0.8086zm-188.4 0.3633c-0.4075 0-0.7674 0.1541-1.031 0.4473-0.2569 0.29-0.3887 0.6547-0.3887 1.061 0 0.4447 0.1218 0.8351 0.3711 1.143h0.00196v0.001954c0.2571 0.3077 0.6246 0.4688 1.047 0.4688 0.4146 0 0.7727-0.1583 1.016-0.4609 0.2396-0.3026 0.3555-0.6957 0.3555-1.152 0-0.4051-0.1326-0.7688-0.3887-1.059-0.2545-0.2921-0.5973-0.4492-0.9824-0.4492zm154 0c-0.4075 0-0.7655 0.1541-1.029 0.4473h-0.00195c-0.2569 0.29-0.3887 0.6547-0.3887 1.061 0 0.4447 0.1237 0.8351 0.373 1.143l0.00195 0.001954c0.2571 0.3077 0.6226 0.4688 1.045 0.4688 0.4146 0 0.7727-0.1583 1.016-0.4609h0.00195c0.2396-0.3026 0.3535-0.6957 0.3535-1.152 0-0.4049-0.1309-0.7689-0.3867-1.059-0.2545-0.2921-0.5992-0.4492-0.9844-0.4492zm-184.2 0.009766c-0.5281 0-0.9791 0.231-1.295 0.6602v0.001953c-0.3133 0.4313-0.4609 1.01-0.4609 1.719 0 0.7623 0.1322 1.354 0.4277 1.771 0.2955 0.4178 0.7608 0.6348 1.328 0.6348 0.539 0 0.9939-0.2367 1.299-0.6758 0.3076-0.4379 0.4531-1.019 0.4531-1.73 0-0.7533-0.1309-1.341-0.4258-1.754-0.2949-0.4132-0.761-0.627-1.326-0.627zm43.72 0c-0.5281 0-0.9791 0.231-1.295 0.6602l-0.00196 0.001953c-0.3133 0.4313-0.459 1.01-0.459 1.719 0 0.7623 0.1322 1.354 0.4277 1.771 0.2955 0.4178 0.7608 0.6348 1.328 0.6348 0.539 0 0.9939-0.2367 1.299-0.6758 0.3076-0.4379 0.4531-1.019 0.4531-1.73 0-0.7533-0.1309-1.341-0.4258-1.754-0.2949-0.4132-0.761-0.627-1.326-0.627zm6.064 0c-0.5281 0-0.9811 0.231-1.297 0.6602v0.001953c-0.3133 0.4313-0.4609 1.01-0.4609 1.719 0 0.7623 0.1322 1.354 0.4277 1.771 0.2955 0.4178 0.7627 0.6348 1.33 0.6348 0.538 0 0.992-0.2363 1.297-0.6738v-0.001953c0.3076-0.4379 0.4531-1.019 0.4531-1.73 0-0.7533-0.1309-1.341-0.4258-1.754-0.2949-0.4132-0.7591-0.627-1.324-0.627zm85.26 0c-0.5281 0-0.9811 0.231-1.297 0.6602v0.001953c-0.3133 0.4313-0.459 1.01-0.459 1.719 0 0.7623 0.1303 1.354 0.4258 1.771 0.2955 0.4178 0.7627 0.6348 1.33 0.6348 0.539 0 0.9939-0.2367 1.299-0.6758 0.3076-0.4379 0.4512-1.019 0.4512-1.73 0-0.7533-0.1309-1.341-0.4258-1.754-0.2949-0.4132-0.7591-0.627-1.324-0.627zm13.85 0c-0.5281 0-0.9791 0.231-1.295 0.6602l-0.00195 0.001953c-0.3133 0.4313-0.459 1.01-0.459 1.719 0 0.7623 0.1322 1.354 0.4277 1.771 0.2955 0.4178 0.7608 0.6348 1.328 0.6348 0.539 0 0.9939-0.2367 1.299-0.6758 0.3076-0.4379 0.4531-1.019 0.4531-1.73 0-0.7533-0.1309-1.341-0.4258-1.754-0.2949-0.4132-0.761-0.627-1.326-0.627zm53.69 0c-0.5281 0-0.9811 0.231-1.297 0.6602v0.001953c-0.3133 0.4313-0.4609 1.01-0.4609 1.719 0 0.7623 0.1322 1.354 0.4277 1.771 0.2955 0.4178 0.7627 0.6348 1.33 0.6348 0.538 0 0.992-0.2363 1.297-0.6738v-0.001953c0.3076-0.4379 0.4531-1.019 0.4531-1.73 0-0.7533-0.1309-1.341-0.4258-1.754-0.2949-0.4132-0.7591-0.627-1.324-0.627zm-187.4 0.0293c-0.6083 0-1.129 0.2368-1.51 0.6934v0.001953c-0.3752 0.4551-0.5606 1.037-0.5606 1.717 0 0.7392 0.1684 1.324 0.5332 1.725 0.3648 0.4011 0.911 0.5938 1.592 0.5938 0.2038 0 0.4234-0.06037 0.6699-0.1699l0.00195-0.001953c0.2496-0.1149 0.4331-0.2372 0.5254-0.4219l0.01954-0.03906v-3.373l-0.03125-0.04688c-0.2921-0.4381-0.7275-0.6777-1.24-0.6777zm41.03 0c-0.6083 0-1.129 0.2368-1.51 0.6934v0.001953c-0.3752 0.4551-0.5606 1.037-0.5606 1.717 0 0.7392 0.1684 1.324 0.5332 1.725 0.3648 0.4011 0.913 0.5938 1.594 0.5938 0.2038 0 0.4234-0.06037 0.6699-0.1699v-0.001953h0.00196c0.2496-0.1149 0.4311-0.2372 0.5234-0.4219l0.01953-0.03906v-3.373l-0.03125-0.04688c-0.2921-0.4381-0.7275-0.6777-1.24-0.6777zm21.79 0c-0.6083 0-1.129 0.2368-1.51 0.6934v0.001953c-0.3752 0.4551-0.5605 1.037-0.5605 1.717 0 0.7392 0.1684 1.324 0.5332 1.725s0.911 0.5938 1.592 0.5938c0.2038 0 0.4234-0.06037 0.6699-0.1699l0.00195-0.001953c0.2496-0.1149 0.4331-0.2372 0.5254-0.4219l0.01953-0.03906v-3.373l-0.03125-0.04688c-0.2921-0.4381-0.7275-0.6777-1.24-0.6777zm14.02 0c-0.5066 0-0.9537 0.1692-1.303 0.502-0.3316 0.3154-0.5242 0.72-0.5684 1.186l-0.01953 0.2031h3.658v-0.1855c0-0.4613-0.1512-0.867-0.4473-1.184v-0.001953c-0.3267-0.3474-0.7824-0.5195-1.32-0.5195zm24.89 0c-0.5066 0-0.9537 0.1692-1.303 0.502-0.3316 0.3154-0.5242 0.72-0.5684 1.186l-0.01953 0.2031h3.658v-0.1855c0-0.4613-0.1512-0.867-0.4473-1.184v-0.001953c-0.3267-0.3474-0.7824-0.5195-1.32-0.5195zm58.32 0c-0.5066 0-0.9537 0.1692-1.303 0.502-0.3316 0.3154-0.5242 0.72-0.5684 1.186l-0.01953 0.2031h3.658v-0.1855c0-0.4613-0.1512-0.867-0.4473-1.184v-0.001953c-0.3267-0.3474-0.7824-0.5195-1.32-0.5195zm20.81 0c-0.1816 0-0.3776 0.06567-0.6211 0.1816v0.001953c-0.2386 0.1155-0.4043 0.2139-0.5117 0.3496l-0.04101 0.04883v3.473c0 0.08328 0.03737 0.1328 0.06836 0.1699s0.06568 0.06601 0.1055 0.0957c0.07956 0.05939 0.183 0.1189 0.3184 0.1895v0.001953h0.00195c0.2725 0.1382 0.4836 0.2188 0.6797 0.2188 0.7425 0 1.314-0.1798 1.67-0.5742 0.3572-0.3955 0.5098-1.015 0.5098-1.844 0-0.7021-0.1935-1.279-0.5918-1.693-0.3964-0.4126-0.9399-0.6191-1.588-0.6191zm44.05 0c-0.5066 0-0.9537 0.1692-1.303 0.502-0.3316 0.3154-0.5242 0.72-0.5684 1.186l-0.01953 0.2031h3.658v-0.1855c0-0.4613-0.1512-0.867-0.4473-1.184v-0.001953c-0.3267-0.3474-0.7824-0.5195-1.32-0.5195zm6.15 0c-0.5066 0-0.9518 0.1692-1.301 0.502-0.3316 0.3154-0.5262 0.72-0.5703 1.186l-0.01953 0.2031h3.658v-0.1855c0-0.4613-0.1493-0.867-0.4453-1.184h-0.00196v-0.001953c-0.3267-0.3474-0.7824-0.5195-1.32-0.5195zm6.379 0c-0.6083 0-1.129 0.2368-1.51 0.6934v0.001953c-0.3752 0.4551-0.5605 1.037-0.5605 1.717 0 0.7392 0.1684 1.324 0.5332 1.725s0.911 0.5938 1.592 0.5938c0.2038 0 0.4234-0.06037 0.6699-0.1699l0.00195-0.001953c0.2496-0.1149 0.4331-0.2372 0.5254-0.4219l0.01953-0.03906v-3.373l-0.03125-0.04688c-0.2921-0.4381-0.7275-0.6777-1.24-0.6777zm-222.4 0.332c0.291 0 0.5093 0.09985 0.7031 0.3223h0.00195c0.1988 0.2244 0.2949 0.4853 0.2949 0.8145 0 0.3951-0.09474 0.6935-0.2734 0.9199-0.176 0.2192-0.3989 0.3223-0.7266 0.3223-0.3336 0-0.5688-0.1066-0.7598-0.334v-0.001954c-0.1909-0.2361-0.2891-0.5285-0.2891-0.9062 0-0.3291 0.09616-0.59 0.2949-0.8145 0.1988-0.2199 0.4348-0.3223 0.7539-0.3223zm154 0c0.291 0 0.5113 0.09985 0.7051 0.3223 0.1988 0.2244 0.2949 0.4853 0.2949 0.8145 0 0.3951-0.09475 0.6935-0.2734 0.9199-0.176 0.2192-0.3989 0.3223-0.7266 0.3223-0.3336 0-0.5689-0.1066-0.7598-0.334v-0.001954c-0.1909-0.2361-0.2891-0.5285-0.2891-0.9062 0-0.3284 0.097-0.5884 0.2949-0.8125 0.1992-0.2213 0.4338-0.3242 0.7539-0.3242zm-184.2 0.009765c0.4785 0 0.7965 0.1527 1.023 0.4707 0.227 0.318 0.3574 0.8298 0.3574 1.539 0 0.6621-0.1345 1.164-0.3848 1.52h-0.00196c-0.2463 0.3547-0.5556 0.5156-0.9941 0.5156-0.4799 0-0.7972-0.1539-1.025-0.4766-0.2282-0.3226-0.3594-0.84-0.3594-1.559 0-0.6571 0.1366-1.152 0.3887-1.5 0.2575-0.3499 0.5688-0.5098 0.9961-0.5098zm43.72 0c0.4785 0 0.7965 0.1527 1.023 0.4707 0.227 0.318 0.3574 0.8298 0.3574 1.539 0 0.6621-0.1345 1.164-0.3848 1.52h-0.00195c-0.2463 0.3547-0.5556 0.5156-0.9941 0.5156-0.48 0-0.7972-0.1539-1.025-0.4766-0.2282-0.3226-0.3594-0.84-0.3594-1.559 0-0.6571 0.1366-1.152 0.3887-1.5 0.2575-0.3499 0.5688-0.5098 0.9961-0.5098zm6.064 0c0.4785 0 0.7965 0.1527 1.023 0.4707 0.227 0.318 0.3555 0.8298 0.3555 1.539 0 0.6621-0.1345 1.164-0.3848 1.52-0.2463 0.3547-0.5556 0.5156-0.9941 0.5156-0.4799 0-0.7992-0.1539-1.027-0.4766-0.2282-0.3226-0.3594-0.84-0.3594-1.559 0-0.6571 0.1386-1.152 0.3906-1.5 3e-4 -4.24e-4 -3.1e-4 -0.00153 0-0.001953 0.2571-0.3482 0.5698-0.5078 0.9961-0.5078zm85.26 0c0.4785 0 0.7965 0.1527 1.023 0.4707 0.227 0.318 0.3555 0.8298 0.3555 1.539 0 0.6621-0.1345 1.164-0.3848 1.52-0.2463 0.3547-0.5556 0.5156-0.9941 0.5156-0.4799 0-0.7992-0.1539-1.027-0.4766-0.2282-0.3226-0.3574-0.84-0.3574-1.559 0-0.6571 0.1366-1.152 0.3887-1.5 3e-4 -4.24e-4 -3.1e-4 -0.001529 0-0.001953 0.2571-0.3482 0.5698-0.5078 0.9961-0.5078zm13.85 0c0.4785 0 0.7965 0.1527 1.023 0.4707 0.227 0.318 0.3574 0.8298 0.3574 1.539 0 0.6621-0.1345 1.164-0.3848 1.52h-0.00196c-0.2463 0.3547-0.5556 0.5156-0.9941 0.5156-0.4799 0-0.7972-0.1539-1.025-0.4766-0.2282-0.3226-0.3594-0.84-0.3594-1.559 0-0.6571 0.1366-1.152 0.3887-1.5 0.2575-0.3499 0.5688-0.5098 0.9961-0.5098zm53.69 0c0.4785 0 0.7965 0.1527 1.023 0.4707 0.227 0.318 0.3555 0.8298 0.3555 1.539 0 0.6621-0.1345 1.164-0.3848 1.52-0.2463 0.3547-0.5556 0.5156-0.9941 0.5156-0.48 0-0.7992-0.1539-1.027-0.4766-0.2282-0.3226-0.3594-0.84-0.3594-1.559 0-0.6571 0.1386-1.152 0.3906-1.5 3.1e-4 -4.24e-4 -3.1e-4 -0.00153 0-0.001953 0.2571-0.3482 0.5698-0.5078 0.9961-0.5078zm-187.4 0.02734c0.3922 0 0.6679 0.1653 0.9004 0.4961v3.119c-0.03243 0.05261-0.1272 0.1441-0.3262 0.2363-0.2165 0.09624-0.3926 0.1387-0.5195 0.1387-0.6128 0-1.036-0.1627-1.318-0.4727s-0.4375-0.7917-0.4375-1.475c0-0.6137 0.1609-1.098 0.4766-1.48 0.3178-0.3813 0.7084-0.5625 1.225-0.5625zm41.03 0c0.3922 0 0.6679 0.1653 0.9004 0.4961v3.119c-0.03246 0.05262-0.1253 0.1442-0.3242 0.2363-0.2165 0.09624-0.3926 0.1387-0.5195 0.1387-0.6128 0-1.036-0.1627-1.318-0.4727-0.282-0.31-0.4375-0.7917-0.4375-1.475 0-0.6137 0.1609-1.098 0.4766-1.48 0.3175-0.3803 0.7072-0.5625 1.223-0.5625zm21.79 0c0.3922 0 0.6678 0.1653 0.9004 0.4961v3.119c-0.03244 0.05261-0.1272 0.1441-0.3262 0.2363-0.2165 0.09624-0.3926 0.1387-0.5195 0.1387-0.6128 0-1.036-0.1627-1.318-0.4727-0.282-0.31-0.4375-0.7917-0.4375-1.475 0-0.6137 0.1609-1.098 0.4766-1.48 0.3178-0.3813 0.7084-0.5625 1.225-0.5625zm14.02 0c0.4616 0 0.7949 0.1363 1.049 0.4062 0.186 0.1994 0.243 0.4633 0.2793 0.7441h-2.732c0.0667-0.2787 0.1443-0.5453 0.3574-0.748 0.283-0.2699 0.6201-0.4023 1.047-0.4023zm24.89 0c0.4616 0 0.7949 0.1363 1.049 0.4062 0.186 0.1994 0.243 0.4633 0.2793 0.7441h-2.732c0.0667-0.2787 0.1443-0.5453 0.3574-0.748 0.283-0.2699 0.6201-0.4023 1.047-0.4023zm58.32 0c0.4616 0 0.7969 0.1363 1.051 0.4062 0.1857 0.1993 0.241 0.4635 0.2773 0.7441h-2.732c0.0667-0.2787 0.1443-0.5453 0.3574-0.748 0.283-0.2699 0.6201-0.4023 1.047-0.4023zm20.81 0c0.572 0 0.9964 0.1688 1.32 0.5059 0.3219 0.3351 0.4883 0.802 0.4883 1.438 0 0.7811-0.1539 1.308-0.4141 1.596-0.2611 0.289-0.7113 0.4512-1.395 0.4512-0.07556 0-0.2617-0.05226-0.5098-0.1777h-0.00195c-0.1246-0.06499-0.217-0.1204-0.2676-0.1582-0.01463-0.01092-0.01629-0.01489-0.02344-0.02148v-3.266c0.04729-0.04696 0.1471-0.1245 0.3418-0.2188 0.2195-0.1045 0.3853-0.1484 0.4609-0.1484zm44.05 0c0.4616 0 0.7949 0.1363 1.049 0.4062 0.186 0.1994 0.243 0.4633 0.2793 0.7441h-2.732c0.06671-0.2787 0.1443-0.5453 0.3574-0.748 0.283-0.2699 0.6201-0.4023 1.047-0.4023zm6.15 0c0.4616 0 0.7969 0.1363 1.051 0.4062 0.186 0.1994 0.241 0.4634 0.2774 0.7441h-2.732c0.06668-0.2788 0.1462-0.5453 0.3594-0.748 0.283-0.2699 0.6181-0.4023 1.045-0.4023zm6.379 0c0.3922 0 0.6678 0.1653 0.9004 0.4961v3.119c-0.03244 0.05261-0.1272 0.1441-0.3262 0.2363-0.2165 0.09624-0.3926 0.1387-0.5195 0.1387-0.6128 0-1.036-0.1627-1.318-0.4727-0.282-0.31-0.4375-0.7917-0.4375-1.475 0-0.6137 0.1609-1.098 0.4766-1.48 0.3178-0.3813 0.7084-0.5625 1.225-0.5625zm-186.8 1.752c-0.5609 0-1.041 0.1471-1.412 0.4492-0.3664 0.298-0.5703 0.6825-0.5703 1.109 0 0.3433 0.1084 0.6392 0.3359 0.832 0.2275 0.1929 0.5474 0.2734 0.9356 0.2734 0.588 0 1.116-0.2903 1.549-0.8242l0.04101-0.05078v-1.643l-0.1445-0.03125c-0.3358-0.07463-0.5677-0.1152-0.7344-0.1152zm0 0.3711c0.07602 0 0.2895 0.03917 0.5078 0.08203v1.178c-0.3718 0.4398-0.7644 0.6621-1.219 0.6621-0.3358 0-0.5609-0.07156-0.6953-0.1855-0.1344-0.114-0.2051-0.2784-0.2051-0.5488 0-0.3154 0.1312-0.5744 0.4336-0.8203 0.2972-0.2417 0.6803-0.3672 1.178-0.3672z" style="color-rendering:auto;color:#000000;fill:#ffffff;isolation:auto;mix-blend-mode:normal;shape-rendering:auto;solid-color:#000000"/>
 <path d="m28.83 0.1863v2.739c-0.316-0.2866-0.779-0.4299-1.389-0.4299-0.7313 0-1.362 0.3142-1.891 0.9426-0.5292 0.6247-0.7938 1.38-0.7938 2.265 0 0.8819 0.23 1.588 0.6894 2.117 0.4594 0.5292 1.058 0.7938 1.797 0.7938 0.6945 0 1.224-0.1819 1.588-0.5457v0.4356h1.047v-8.318zm23.5 0c-0.61 0-1.101 0.215-1.472 0.6449-0.3711 0.4299-0.5566 1.022-0.5566 1.775h-0.8599v0.8816h0.8599v5.022h1.047v-5.022h1.202v-0.8816h-1.202c-0.01837-0.1066-0.02739-0.2098-0.02739-0.309 0-0.3712 0.1027-0.6778 0.3085-0.9204 0.2095-0.2425 0.474-0.3638 0.7938-0.3638 0.1837 0 0.3822 0.03658 0.5953 0.1101l0.2925-0.7715c-0.3491-0.1102-0.6763-0.1654-0.9813-0.1654zm17.53 0v2.739c-0.316-0.2866-0.779-0.4299-1.389-0.4299-0.7313 0-1.362 0.3142-1.891 0.9426-0.5292 0.6247-0.7938 1.38-0.7938 2.265 0 0.8819 0.2295 1.588 0.6888 2.117 0.4594 0.5292 1.059 0.7938 1.797 0.7938 0.6945 0 1.224-0.1819 1.588-0.5457v0.4356h1.047v-8.318zm21.78 0v2.739c-0.316-0.2866-0.779-0.4299-1.389-0.4299-0.7313 0-1.361 0.3142-1.89 0.9426-0.5292 0.6247-0.7938 1.38-0.7938 2.265 0 0.8819 0.2295 1.588 0.6888 2.117 0.4594 0.5292 1.058 0.7938 1.797 0.7938 0.6945 0 1.224-0.1819 1.588-0.5457v0.4356h1.047v-8.318zm52.01 0c-0.61 0-1.101 0.215-1.472 0.6449s-0.5566 1.022-0.5566 1.775h-0.8599v0.8816h0.8599v5.022h1.047v-5.022h1.201v-0.8816h-1.201c-0.01838-0.1066-0.02791-0.2098-0.02791-0.309 0-0.3712 0.1032-0.6778 0.309-0.9204 0.2095-0.2425 0.474-0.3638 0.7938-0.3638 0.1837 0 0.3822 0.03658 0.5953 0.1101l0.292-0.7715c-0.3491-0.1102-0.6763-0.1654-0.9813-0.1654zm56.74 0v8.324h1.047v-4.388c0.136-0.1984 0.3304-0.3713 0.5839-0.5183 0.2572-0.1507 0.5128-0.2258 0.7664-0.2258 0.3932 0 0.6984 0.1268 0.9152 0.3803 0.2168 0.2536 0.325 0.6008 0.325 1.042v3.71h1.047v-3.71c0-0.7129-0.1784-1.275-0.5348-1.687-0.3528-0.4116-0.8414-0.6175-1.466-0.6175-0.3307 0-0.6524 0.07367-0.9648 0.2207-0.3087 0.1433-0.5327 0.3232-0.6723 0.54v-3.07zm6.174 0v8.434h0.5235l0.3695-0.5349c0.1396 0.147 0.3436 0.2738 0.6118 0.3803 0.2719 0.1029 0.5475 0.1545 0.8268 0.1545 0.8599 0 1.541-0.2811 2.045-0.8434 0.5034-0.5659 0.755-1.341 0.755-2.326 0-0.8525-0.2516-1.558-0.755-2.117-0.4998-0.5586-1.154-0.8382-1.962-0.8382-0.2646 0-0.5347 0.05713-0.8103 0.171-0.2719 0.1139-0.4578 0.2387-0.5571 0.3747v-2.855zm59.7 0v2.739c-0.316-0.2866-0.7791-0.4299-1.389-0.4299-0.7313 0-1.361 0.3142-1.89 0.9426-0.5292 0.6247-0.7938 1.38-0.7938 2.265 0 0.8819 0.2295 1.588 0.6888 2.117 0.4593 0.5292 1.058 0.7938 1.797 0.7938 0.6945 0 1.224-0.1819 1.588-0.5457v0.4356h1.047v-8.318zm-243.3 0.1876c-0.1801 0-0.3329 0.06213-0.4578 0.1871-0.125 0.1249-0.1871 0.2778-0.1871 0.4579s0.06212 0.3344 0.1871 0.463c0.1286 0.1249 0.2815 0.1871 0.4578 0.1871 0.1801 0 0.3324-0.06213 0.4573-0.1871 0.1286-0.1286 0.1928-0.283 0.1928-0.463 0-0.1764-0.06413-0.3272-0.1928-0.4522-0.1249-0.1286-0.2773-0.1928-0.4573-0.1928zm9.503 0c-0.1801 0-0.3324 0.06213-0.4573 0.1871-0.125 0.1249-0.1876 0.2778-0.1876 0.4579s0.06264 0.3344 0.1876 0.463c0.1286 0.1249 0.281 0.1871 0.4573 0.1871 0.1801 0 0.3324-0.06213 0.4573-0.1871 0.1286-0.1286 0.1933-0.283 0.1933-0.463 0-0.1764-0.06465-0.3272-0.1933-0.4522-0.1249-0.1286-0.2773-0.1928-0.4573-0.1928zm86.85 0c-0.1801 0-0.3324 0.06213-0.4573 0.1871-0.125 0.1249-0.1876 0.2778-0.1876 0.4579s0.06264 0.3344 0.1876 0.463c0.1286 0.1249 0.281 0.1871 0.4573 0.1871 0.1801 0 0.3324-0.06213 0.4573-0.1871 0.1286-0.1286 0.1933-0.283 0.1933-0.463 0-0.1764-0.06465-0.3272-0.1933-0.4522-0.1249-0.1286-0.2773-0.1928-0.4573-0.1928zm73.29 0c-0.1801 0-0.3324 0.06213-0.4573 0.1871s-0.1876 0.2778-0.1876 0.4579 0.06264 0.3344 0.1876 0.463c0.1286 0.1249 0.281 0.1871 0.4573 0.1871 0.1801 0 0.3324-0.06213 0.4573-0.1871 0.1286-0.1286 0.1933-0.283 0.1933-0.463 0-0.1764-0.06465-0.3272-0.1933-0.4522-0.1249-0.1286-0.2773-0.1928-0.4573-0.1928zm39.75 0c-0.1801 0-0.3324 0.06213-0.4573 0.1871-0.1249 0.1249-0.1876 0.2778-0.1876 0.4579s0.06264 0.3344 0.1876 0.463c0.1286 0.1249 0.281 0.1871 0.4573 0.1871 0.1801 0 0.3324-0.06213 0.4573-0.1871 0.1286-0.1286 0.1933-0.283 0.1933-0.463 0-0.1764-0.06465-0.3272-0.1933-0.4522-0.1249-0.1286-0.2773-0.1928-0.4573-0.1928zm-230.6 0.005168c-0.1727 0-0.6763 0.01855-1.511 0.05529v8.075h1.102v-3.109c0.4189 0.03675 0.691 0.05478 0.816 0.05478 2.073 0 3.109-0.9075 3.109-2.723 0-1.569-1.172-2.354-3.517-2.354zm0.1928 0.9922c1.459 0 2.188 0.4926 2.188 1.477 0 1.077-0.6835 1.615-2.051 1.615-0.02572 0-0.2723-0.01803-0.739-0.05478v-2.982c0.2536-0.03675 0.454-0.05529 0.601-0.05529zm42.69 0.8547-0.5235 0.6284c-0.327-0.2389-0.7811-0.3586-1.362-0.3586-0.6321 0-1.163 0.206-1.593 0.6175s-0.6449 0.9262-0.6449 1.544c0 0.9628 0.4149 1.639 1.245 2.028-0.2903 0.06982-0.5343 0.1836-0.7328 0.3416-0.1948 0.158-0.2925 0.3344-0.2925 0.5292 0 0.6321 0.4189 0.9483 1.257 0.9483 0.1727 0 0.4138-0.02957 0.7224-0.08837 0.3087-0.0588 0.5216-0.08785 0.6392-0.08785 0.6909 0 1.036 0.2385 1.036 0.7162 0 0.2425-0.1378 0.445-0.4134 0.6067-0.2719 0.1654-0.6448 0.248-1.119 0.248-0.5145 0-1.077-0.204-1.687-0.6118l-0.5679 0.8377c0.2572 0.1948 0.5975 0.3601 1.02 0.4961 0.4226 0.136 0.825 0.2041 1.207 0.2041 0.746 0 1.361-0.1674 1.846-0.5018 0.4887-0.3344 0.7333-0.7734 0.7333-1.317 0-0.4924-0.1639-0.8768-0.4909-1.152-0.3234-0.2793-0.7754-0.4186-1.356-0.4186-0.1617 0-0.4097 0.02905-0.7441 0.08785-0.3344 0.05512-0.5804 0.08268-0.7385 0.08268-0.3601 0-0.54-0.07516-0.54-0.2258 0-0.1102 0.08619-0.1984 0.2589-0.2646 0.1727-0.06982 0.3105-0.1104 0.4134-0.1214l0.8656-0.08785c0.6027-0.0588 1.089-0.2903 1.46-0.6945 0.3712-0.4042 0.5571-0.9043 0.5571-1.5 0-0.5622-0.1343-1.018-0.4026-1.367l0.6284-0.4739zm154 0-0.524 0.6284c-0.327-0.2389-0.7805-0.3586-1.361-0.3586-0.6321 0-1.163 0.206-1.593 0.6175s-0.6449 0.9262-0.6449 1.544c0 0.9628 0.4154 1.639 1.246 2.028-0.2903 0.06982-0.5349 0.1836-0.7333 0.3416-0.1948 0.158-0.292 0.3344-0.292 0.5292 0 0.6321 0.4189 0.9483 1.257 0.9483 0.1727 0 0.4132-0.02957 0.7219-0.08837 0.3087-0.0588 0.5216-0.08785 0.6392-0.08785 0.6909 0 1.037 0.2385 1.037 0.7162 0 0.2425-0.1378 0.445-0.4134 0.6067-0.2719 0.1654-0.6453 0.248-1.119 0.248-0.5145 0-1.077-0.204-1.687-0.6118l-0.5674 0.8377c0.2572 0.1948 0.597 0.3601 1.02 0.4961 0.4226 0.136 0.825 0.2041 1.207 0.2041 0.746 0 1.361-0.1674 1.846-0.5018 0.4888-0.3344 0.7333-0.7734 0.7333-1.317 0-0.4924-0.1634-0.8768-0.4904-1.152-0.3234-0.2793-0.7754-0.4186-1.356-0.4186-0.1617 0-0.4097 0.02905-0.7441 0.08785-0.3344 0.05512-0.581 0.08268-0.739 0.08268-0.3601 0-0.54-0.07516-0.54-0.2258 0-0.1102 0.08618-0.1984 0.2589-0.2646 0.1727-0.06982 0.3105-0.1104 0.4134-0.1214l0.8656-0.08785c0.6027-0.0588 1.09-0.2903 1.461-0.6945 0.3712-0.4042 0.5566-0.9043 0.5566-1.5 0-0.5622-0.1343-1.018-0.4026-1.367l0.6284-0.4739zm-189.8 0.2698c-0.7533 0-1.321 0.3513-1.703 1.053v-0.9426h-1.047v5.904h1.047v-3.385c0-0.4814 0.1378-0.8928 0.4134-1.235 0.2793-0.3418 0.6045-0.5126 0.9756-0.5126 0.2315 0 0.4615 0.07918 0.6894 0.2372l0.4351-1.02c-0.3528-0.06615-0.6229-0.09922-0.8103-0.09922zm3.842 0c-0.8011 0-1.448 0.2811-1.94 0.8434-0.4887 0.5586-0.7328 1.294-0.7328 2.205 0 0.9407 0.235 1.688 0.7054 2.243 0.4704 0.5549 1.126 0.8325 1.968 0.8325 0.8232 0 1.474-0.2736 1.951-0.8211 0.4777-0.5512 0.7168-1.303 0.7168-2.255 0-0.9554-0.2335-1.702-0.7002-2.238-0.4667-0.5402-1.123-0.8103-1.968-0.8103zm24.77 0c-0.7827 0-1.347 0.2906-1.692 0.8713l-0.3307-0.7607h-0.7162v5.904h1.047v-4.388c0.1396-0.2095 0.3401-0.3859 0.601-0.5292 0.2609-0.1433 0.511-0.215 0.7498-0.215 0.4446 0 0.7603 0.1268 0.9477 0.3803 0.1911 0.2499 0.2868 0.6888 0.2868 1.317v3.434h1.047v-3.655c0-1.573-0.6469-2.36-1.94-2.36zm18.95 0c-0.8011 0-1.448 0.2811-1.94 0.8434-0.4887 0.5586-0.7328 1.294-0.7328 2.205 0 0.9407 0.235 1.688 0.7054 2.243 0.4704 0.5549 1.126 0.8325 1.968 0.8325 0.8232 0 1.474-0.2736 1.951-0.8211 0.4777-0.5512 0.7168-1.303 0.7168-2.255 0-0.9554-0.2335-1.702-0.7002-2.238-0.4667-0.5402-1.123-0.8103-1.968-0.8103zm6.063 0c-0.8011 0-1.448 0.2811-1.94 0.8434-0.4887 0.5586-0.7333 1.294-0.7333 2.205 0 0.9407 0.235 1.688 0.7054 2.243 0.4704 0.5549 1.126 0.8325 1.968 0.8325 0.8231 0 1.474-0.2736 1.951-0.8211 0.4777-0.5512 0.7168-1.303 0.7168-2.255 0-0.9554-0.2335-1.702-0.7002-2.238-0.4667-0.5402-1.123-0.8103-1.968-0.8103zm15.29 0c-0.3197 0-0.6559 0.05914-1.009 0.1767-0.3491 0.1139-0.6232 0.2517-0.8217 0.4134l0.4413 0.8764c0.3528-0.3528 0.8559-0.5292 1.51-0.5292 0.8525 0 1.279 0.4775 1.279 1.433-0.2793-0.09554-0.5293-0.1431-0.7498-0.1431-0.8121 0-1.481 0.2075-2.006 0.6227-0.5218 0.4116-0.7829 0.9167-0.7829 1.516 0 0.4998 0.1689 0.9187 0.5069 1.257 0.3418 0.3344 0.7441 0.5018 1.207 0.5018 0.8636 0 1.505-0.2626 1.924-0.7881 0.09187 0.2793 0.2427 0.4792 0.4522 0.6005 0.2131 0.1213 0.5328 0.1819 0.9591 0.1819v-0.5235c-0.3087-0.1727-0.463-0.518-0.463-1.036v-2.117c0-0.8489-0.1949-1.468-0.5845-1.858-0.3858-0.3895-1.007-0.5845-1.863-0.5845zm6.835 0c-0.7827 0-1.346 0.2906-1.692 0.8713l-0.3307-0.7607h-0.7168v5.904h1.047v-4.388c0.1396-0.2095 0.3396-0.3859 0.6005-0.5292 0.2609-0.1433 0.511-0.215 0.7498-0.215 0.4446 0 0.7608 0.1268 0.9483 0.3803 0.1911 0.2499 0.2863 0.6888 0.2863 1.317v3.434h1.047v-3.655c0-1.573-0.6469-2.36-1.94-2.36zm14.68 0c-0.5696 0-1.031 0.1363-1.384 0.4082-0.3528 0.2719-0.5292 0.6503-0.5292 1.135 0 0.1874 0.02957 0.3638 0.08837 0.5292 0.06247 0.1617 0.1542 0.316 0.2754 0.463 0.1249 0.1433 0.2703 0.2721 0.4356 0.386 0.169 0.1139 0.4942 0.2808 0.9756 0.5013 0.6247 0.2793 0.9369 0.614 0.9369 1.004 0 0.5439-0.3232 0.8155-0.97 0.8155-0.3565 0-0.827-0.1909-1.411-0.5731l-0.369 0.9922c0.5475 0.3087 1.132 0.463 1.753 0.463 0.6578 0 1.172-0.1488 1.543-0.4465 0.3712-0.3013 0.5571-0.7168 0.5571-1.246 0-0.4042-0.1047-0.7405-0.3142-1.009s-0.5442-0.5068-1.004-0.7162l-0.7493-0.3421c-0.43-0.1948-0.6449-0.4814-0.6449-0.8599 0-0.1801 0.08417-0.3289 0.2532-0.4465 0.1727-0.1176 0.3842-0.1762 0.6341-0.1762 0.4189 0 0.8358 0.1654 1.251 0.4961l0.2977-0.97c-0.6541-0.2719-1.196-0.4082-1.626-0.4082zm5.38 0c-0.7239 0-1.35 0.2631-1.879 0.7886-0.5916 0.588-0.8873 1.369-0.8873 2.342 0 0.9371 0.2881 1.683 0.8651 2.238 0.5181 0.5034 1.149 0.755 1.891 0.755 0.5145 0 0.981-0.07717 1.4-0.2315 0.3344-0.1176 0.5824-0.2574 0.7441-0.4191l-0.4408-0.755c-0.4006 0.3491-0.9002 0.5235-1.499 0.5235-0.5255 0-0.9554-0.1613-1.29-0.4847-0.3785-0.3712-0.5679-0.9023-0.5679-1.593h4.256c0.05513-0.1948 0.08268-0.4077 0.08268-0.6392 0-0.7533-0.2315-1.358-0.6945-1.814-0.4777-0.474-1.138-0.7111-1.979-0.7111zm6.604 0c-0.7533 0-1.321 0.3513-1.703 1.053v-0.9426h-1.047v5.904h1.047v-3.385c0-0.4814 0.1378-0.8928 0.4134-1.235 0.2793-0.3418 0.6045-0.5126 0.9756-0.5126 0.2315 0 0.461 0.07918 0.6888 0.2372l0.4356-1.02c-0.3528-0.06615-0.6229-0.09922-0.8103-0.09922zm12.98 0c-0.9481 0-1.696 0.2851-2.243 0.8547-0.5439 0.5696-0.816 1.325-0.816 2.265 0 0.9224 0.2626 1.653 0.7881 2.194 0.5255 0.5402 1.191 0.8103 1.996 0.8103 0.8305 0 1.527-0.1819 2.089-0.5457l-0.4134-0.8821c-0.4777 0.3638-0.9518 0.5457-1.422 0.5457-0.6063 0-1.08-0.1799-1.422-0.54-0.3418-0.3638-0.5126-0.891-0.5126-1.582 0-0.6945 0.1674-1.24 0.5018-1.637 0.3344-0.4006 0.7864-0.601 1.356-0.601 0.2609 0 0.5255 0.0476 0.7938 0.1431 0.2719 0.09554 0.4614 0.1968 0.5679 0.3033l0.5178-0.7385c-0.169-0.136-0.4316-0.2683-0.7881-0.3969-0.3564-0.1286-0.6872-0.1933-0.9922-0.1933zm5.308 0c-0.7239 0-1.35 0.2631-1.879 0.7886-0.5916 0.588-0.8878 1.369-0.8878 2.342 0 0.9371 0.2886 1.683 0.8656 2.238 0.5181 0.5034 1.149 0.755 1.891 0.755 0.5145 0 0.981-0.07717 1.4-0.2315 0.3344-0.1176 0.5824-0.2574 0.7441-0.4191l-0.4408-0.755c-0.4006 0.3491-0.9007 0.5235-1.5 0.5235-0.5255 0-0.9554-0.1613-1.29-0.4847-0.3785-0.3712-0.5674-0.9023-0.5674-1.593h4.255c0.05512-0.1948 0.08268-0.4077 0.08268-0.6392 0-0.7533-0.2315-1.358-0.6945-1.814-0.4777-0.474-1.137-0.7111-1.979-0.7111zm5.336 0c-0.5696 0-1.031 0.1363-1.383 0.4082-0.3528 0.2719-0.5292 0.6503-0.5292 1.135 0 0.1874 0.02957 0.3638 0.08836 0.5292 0.06248 0.1617 0.1542 0.316 0.2754 0.463 0.1249 0.1433 0.2703 0.2721 0.4356 0.386 0.169 0.1139 0.4943 0.2808 0.9756 0.5013 0.6247 0.2793 0.9369 0.614 0.9369 1.004 0 0.5439-0.3232 0.8155-0.97 0.8155-0.3565 0-0.827-0.1909-1.411-0.5731l-0.3695 0.9922c0.5475 0.3087 1.132 0.463 1.753 0.463 0.6578 0 1.172-0.1488 1.544-0.4465 0.3711-0.3013 0.5566-0.7168 0.5566-1.246 0-0.4042-0.1047-0.7405-0.3142-1.009s-0.5437-0.5068-1.003-0.7162l-0.7498-0.3421c-0.4299-0.1948-0.6449-0.4814-0.6449-0.8599 0-0.1801 0.0847-0.3289 0.2537-0.4465 0.1727-0.1176 0.3842-0.1762 0.6341-0.1762 0.4189 0 0.8358 0.1654 1.251 0.4961l0.2977-0.97c-0.6541-0.2719-1.196-0.4082-1.626-0.4082zm12.85 0c-0.8011 0-1.448 0.2811-1.94 0.8434-0.4888 0.5586-0.7333 1.294-0.7333 2.205 0 0.9407 0.235 1.688 0.7054 2.243s1.126 0.8325 1.968 0.8325c0.8232 0 1.474-0.2736 1.951-0.8211 0.4777-0.5512 0.7168-1.303 0.7168-2.255 0-0.9554-0.2335-1.702-0.7002-2.238-0.4667-0.5402-1.123-0.8103-1.968-0.8103zm6.609 0c-0.7533 0-1.321 0.3513-1.703 1.053v-0.9426h-1.047v5.904h1.047v-3.385c0-0.4814 0.1378-0.8928 0.4134-1.235 0.2793-0.3418 0.6045-0.5126 0.9756-0.5126 0.2315 0 0.461 0.07918 0.6888 0.2372l0.4356-1.02c-0.3528-0.06615-0.6229-0.09922-0.8103-0.09922zm7.237 0c-0.8011 0-1.448 0.2811-1.94 0.8434-0.4887 0.5586-0.7328 1.294-0.7328 2.205 0 0.9407 0.235 1.688 0.7054 2.243s1.126 0.8325 1.968 0.8325c0.8232 0 1.474-0.2736 1.951-0.8211 0.4777-0.5512 0.7168-1.303 0.7168-2.255 0-0.9554-0.2335-1.702-0.7002-2.238-0.4667-0.5402-1.123-0.8103-1.968-0.8103zm12.78 0c-0.7533 0-1.321 0.3513-1.703 1.053v-0.9426h-1.047v5.904h1.047v-3.385c0-0.4814 0.1378-0.8928 0.4134-1.235 0.2793-0.3418 0.6045-0.5126 0.9756-0.5126 0.2315 0 0.461 0.07918 0.6888 0.2372l0.4356-1.02c-0.3528-0.06615-0.6229-0.09922-0.8103-0.09922zm7.689 0c-0.7827 0-1.347 0.2906-1.692 0.8713l-0.3307-0.7607h-0.7162v5.904h1.047v-4.388c0.1396-0.2095 0.3401-0.3859 0.601-0.5292 0.2609-0.1433 0.511-0.215 0.7498-0.215 0.4446 0 0.7603 0.1268 0.9478 0.3803 0.1911 0.2499 0.2868 0.6888 0.2868 1.317v3.434h1.047v-3.655c0-1.573-0.6469-2.36-1.94-2.36zm5.815 0c-0.7239 0-1.35 0.2631-1.879 0.7886-0.5916 0.588-0.8873 1.369-0.8873 2.342 0 0.9371 0.2881 1.683 0.8651 2.238 0.5181 0.5034 1.149 0.755 1.891 0.755 0.5145 0 0.981-0.07717 1.4-0.2315 0.3344-0.1176 0.5824-0.2574 0.7441-0.4191l-0.4408-0.755c-0.4006 0.3491-0.9002 0.5235-1.499 0.5235-0.5255 0-0.9554-0.1613-1.29-0.4847-0.3785-0.3712-0.5679-0.9023-0.5679-1.593h4.256c0.05512-0.1948 0.08268-0.4077 0.08268-0.6392 0-0.7533-0.2315-1.358-0.6945-1.814-0.4777-0.474-1.138-0.7111-1.979-0.7111zm27.4 0c-0.8011 0-1.448 0.2811-1.94 0.8434-0.4887 0.5586-0.7333 1.294-0.7333 2.205 0 0.9407 0.235 1.688 0.7054 2.243s1.126 0.8325 1.968 0.8325c0.8231 0 1.474-0.2736 1.951-0.8211 0.4777-0.5512 0.7168-1.303 0.7168-2.255 0-0.9554-0.2335-1.702-0.7002-2.238-0.4667-0.5402-1.123-0.8103-1.968-0.8103zm6.609 0c-0.7533 0-1.321 0.3513-1.703 1.053v-0.9426h-1.047v5.904h1.047v-3.385c0-0.4814 0.1378-0.8928 0.4134-1.235 0.2793-0.3418 0.6045-0.5126 0.9756-0.5126 0.2315 0 0.461 0.07918 0.6888 0.2372l0.4356-1.02c-0.3528-0.06615-0.6229-0.09922-0.8103-0.09922zm3.12 0c-0.5696 0-1.031 0.1363-1.383 0.4082-0.3528 0.2719-0.5292 0.6503-0.5292 1.135 0 0.1874 0.02906 0.3638 0.08785 0.5292 0.06248 0.1617 0.1547 0.316 0.276 0.463 0.1249 0.1433 0.2697 0.2721 0.4351 0.386 0.169 0.1139 0.4943 0.2808 0.9756 0.5013 0.6247 0.2793 0.9374 0.614 0.9374 1.004 0 0.5439-0.3237 0.8155-0.9705 0.8155-0.3564 0-0.8265-0.1909-1.411-0.5731l-0.3695 0.9922c0.5475 0.3087 1.132 0.463 1.753 0.463 0.6578 0 1.172-0.1488 1.544-0.4465 0.3712-0.3013 0.5566-0.7168 0.5566-1.246 0-0.4042-0.1047-0.7405-0.3142-1.009s-0.5437-0.5068-1.003-0.7162l-0.7498-0.3421c-0.4299-0.1948-0.6449-0.4814-0.6449-0.8599 0-0.1801 0.08469-0.3289 0.2537-0.4465 0.1727-0.1176 0.3837-0.1762 0.6336-0.1762 0.4189 0 0.8364 0.1654 1.252 0.4961l0.2977-0.97c-0.6541-0.2719-1.196-0.4082-1.626-0.4082zm12.35 0c-0.7827 0-1.347 0.2906-1.692 0.8713l-0.3307-0.7607h-0.7162v5.904h1.047v-4.388c0.1396-0.2095 0.3401-0.3859 0.601-0.5292 0.2609-0.1433 0.511-0.215 0.7498-0.215 0.4446 0 0.7603 0.1268 0.9478 0.3803 0.1911 0.2499 0.2868 0.6888 0.2868 1.317v3.434h1.047v-3.655c0-1.573-0.6469-2.36-1.94-2.36zm9.569 0c-0.7827 0-1.346 0.2906-1.692 0.8713l-0.3307-0.7607h-0.7168v5.904h1.047v-4.388c0.1396-0.2095 0.3396-0.3859 0.6005-0.5292 0.2609-0.1433 0.511-0.215 0.7498-0.215 0.4446 0 0.7608 0.1268 0.9483 0.3803 0.1911 0.2499 0.2863 0.6888 0.2863 1.317v3.434h1.047v-3.655c0-1.573-0.6469-2.36-1.94-2.36zm5.816 0c-0.7239 0-1.351 0.2631-1.88 0.7886-0.5916 0.588-0.8873 1.369-0.8873 2.342 0 0.9371 0.2886 1.683 0.8656 2.238 0.5181 0.5034 1.148 0.755 1.89 0.755 0.5145 0 0.9815-0.07717 1.4-0.2315 0.3344-0.1176 0.5824-0.2574 0.7441-0.4191l-0.4413-0.755c-0.4006 0.3491-0.9002 0.5235-1.499 0.5235-0.5255 0-0.9554-0.1613-1.29-0.4847-0.3785-0.3712-0.5679-0.9023-0.5679-1.593h4.256c0.05512-0.1948 0.08269-0.4077 0.08269-0.6392 0-0.7533-0.2315-1.358-0.6945-1.814-0.4777-0.474-1.137-0.7111-1.979-0.7111zm6.152 0c-0.7239 0-1.351 0.2631-1.88 0.7886-0.5916 0.588-0.8873 1.369-0.8873 2.342 0 0.9371 0.2886 1.683 0.8656 2.238 0.5181 0.5034 1.148 0.755 1.89 0.755 0.5145 0 0.9815-0.07717 1.4-0.2315 0.3344-0.1176 0.5824-0.2574 0.7441-0.4191l-0.4413-0.755c-0.4006 0.3491-0.9001 0.5235-1.499 0.5235-0.5255 0-0.9554-0.1613-1.29-0.4847-0.3785-0.3712-0.5679-0.9023-0.5679-1.593h4.256c0.05512-0.1948 0.08268-0.4077 0.08268-0.6392 0-0.7533-0.2315-1.358-0.6945-1.814-0.4777-0.474-1.137-0.7111-1.979-0.7111zm-243.1 0.09405 2.53 6.03h0.2754l2.591-6.03h-1.097l-1.593 4.134-1.56-4.134zm96.35 0 2.53 6.03h0.2754l2.591-6.03h-1.097l-1.593 4.134-1.56-4.134zm-90.44 0.01654v0.8816h0.8103v5.022h1.047v-5.904zm9.503 0v0.8816h0.8103v5.022h1.047v-5.904zm86.85 0v0.8816h0.8103v5.022h1.047v-5.904zm47.26 0v3.875c0 0.6835 0.1709 1.211 0.5126 1.582 0.3454 0.3712 0.8415 0.5566 1.488 0.5566 0.3381 0 0.6833-0.09572 1.036-0.2868 0.3564-0.1948 0.5935-0.4077 0.7111-0.6392v0.816h1.047v-5.904h-1.047v4.145c-0.09186 0.2609-0.2808 0.4904-0.5674 0.6888-0.2866 0.1984-0.6028 0.2977-0.9483 0.2977-0.7901 0-1.185-0.4555-1.185-1.367v-3.765zm26.03 0v0.8816h0.8103v5.022h1.047v-5.904zm39.75 0v0.8816h0.8103v5.022h1.047v-5.904zm-188.2 0.7328c0.3381 0 0.6192 0.1288 0.8434 0.386 0.2278 0.2572 0.3416 0.5694 0.3416 0.9369 0 0.4263-0.1047 0.772-0.3142 1.037-0.2095 0.2609-0.4996 0.3912-0.8707 0.3912-0.3785 0-0.6797-0.1343-0.9038-0.4026-0.2205-0.2719-0.3307-0.6137-0.3307-1.025 0-0.3675 0.1138-0.6797 0.3416-0.9369 0.2315-0.2572 0.5292-0.386 0.893-0.386zm154 0c0.3381 0 0.6192 0.1288 0.8434 0.386 0.2278 0.2572 0.3421 0.5694 0.3421 0.9369 0 0.4263-0.1047 0.772-0.3142 1.037-0.2095 0.2609-0.5001 0.3912-0.8713 0.3912-0.3785 0-0.6797-0.1343-0.9038-0.4026-0.2205-0.2719-0.3307-0.6137-0.3307-1.025 0-0.3675 0.1138-0.6797 0.3416-0.9369 0.2315-0.2572 0.5292-0.386 0.893-0.386zm-184.2 0.01137c1.044 0 1.565 0.7311 1.565 2.194 0 0.6872-0.1393 1.229-0.4186 1.626-0.2756 0.3969-0.658 0.5953-1.147 0.5953-1.047 0-1.571-0.7406-1.571-2.222 0-0.6835 0.1413-1.22 0.4243-1.61 0.2866-0.3895 0.669-0.5839 1.147-0.5839zm43.72 0c1.044 0 1.565 0.7311 1.565 2.194 0 0.6872-0.1393 1.229-0.4186 1.626-0.2756 0.3969-0.658 0.5953-1.147 0.5953-1.047 0-1.571-0.7406-1.571-2.222 0-0.6835 0.1413-1.22 0.4243-1.61 0.2866-0.3895 0.669-0.5839 1.147-0.5839zm6.063 0c1.044 0 1.566 0.7311 1.566 2.194 0 0.6872-0.1398 1.229-0.4191 1.626-0.2756 0.3969-0.658 0.5953-1.147 0.5953-1.047 0-1.571-0.7406-1.571-2.222 0-0.6835 0.1418-1.22 0.4248-1.61 0.2866-0.3895 0.6685-0.5839 1.146-0.5839zm85.26 0c1.044 0 1.566 0.7311 1.566 2.194 0 0.6872-0.1398 1.229-0.4191 1.626-0.2756 0.3969-0.658 0.5953-1.147 0.5953-1.047 0-1.571-0.7406-1.571-2.222 0-0.6835 0.1418-1.22 0.4248-1.61 0.2866-0.3895 0.6685-0.5839 1.146-0.5839zm13.85 0c1.044 0 1.565 0.7311 1.565 2.194 0 0.6872-0.1393 1.229-0.4186 1.626-0.2756 0.3969-0.658 0.5953-1.147 0.5953-1.047 0-1.571-0.7406-1.571-2.222 0-0.6835 0.1413-1.22 0.4243-1.61 0.2866-0.3895 0.669-0.5839 1.147-0.5839zm53.69 0c1.044 0 1.566 0.7311 1.566 2.194 0 0.6872-0.1398 1.229-0.4191 1.626-0.2756 0.3969-0.658 0.5953-1.147 0.5953-1.047 0-1.571-0.7406-1.571-2.222 0-0.6835 0.1418-1.22 0.4248-1.61 0.2866-0.3895 0.6685-0.5839 1.146-0.5839zm-187.4 0.02739c0.4593 0 0.8211 0.1984 1.086 0.5953v3.274c-0.0588 0.1176-0.2041 0.2298-0.4356 0.3364-0.2315 0.1029-0.43 0.154-0.5953 0.154-1.294 0-1.94-0.7111-1.94-2.133 0-0.6468 0.1724-1.179 0.5178-1.598 0.3491-0.4189 0.8051-0.6284 1.367-0.6284zm41.03 0c0.4593 0 0.8216 0.1984 1.086 0.5953v3.274c-0.0588 0.1176-0.2041 0.2298-0.4356 0.3364-0.2315 0.1029-0.43 0.154-0.5953 0.154-1.294 0-1.94-0.7111-1.94-2.133 0-0.6468 0.1729-1.179 0.5183-1.598 0.3491-0.4189 0.8046-0.6284 1.367-0.6284zm21.78 0c0.4594 0 0.8211 0.1984 1.086 0.5953v3.274c-0.05879 0.1176-0.2036 0.2298-0.4351 0.3364-0.2315 0.1029-0.43 0.154-0.5953 0.154-1.294 0-1.94-0.7111-1.94-2.133 0-0.6468 0.1729-1.179 0.5183-1.598 0.3491-0.4189 0.8046-0.6284 1.367-0.6284zm14.02 0c0.4998 0 0.8952 0.1543 1.185 0.463 0.2646 0.283 0.3969 0.6357 0.3969 1.058h-3.269c0.04043-0.4263 0.2113-0.7826 0.5126-1.069 0.316-0.3013 0.7074-0.4522 1.174-0.4522zm24.89 0c0.4998 0 0.8946 0.1543 1.185 0.463 0.2646 0.283 0.3969 0.6357 0.3969 1.058h-3.269c0.04042-0.4263 0.2113-0.7826 0.5126-1.069 0.316-0.3013 0.7074-0.4522 1.174-0.4522zm58.32 0c0.4998 0 0.8952 0.1543 1.185 0.463 0.2646 0.283 0.3969 0.6357 0.3969 1.058h-3.269c0.04042-0.4263 0.2113-0.7826 0.5126-1.069 0.316-0.3013 0.7074-0.4522 1.174-0.4522zm20.81 0c0.61 0 1.095 0.1874 1.455 0.5622 0.3601 0.3748 0.54 0.8965 0.54 1.565 0 0.8048-0.1544 1.378-0.463 1.72-0.3087 0.3418-0.8193 0.5126-1.532 0.5126-0.136 0-0.3344-0.06614-0.5953-0.1984-0.2609-0.136-0.3917-0.2332-0.3917-0.292v-3.407c0.06982-0.08819 0.2186-0.1874 0.4465-0.2977 0.2315-0.1102 0.4119-0.1654 0.5405-0.1654zm44.05 0c0.4998 0 0.8946 0.1543 1.185 0.463 0.2646 0.283 0.3969 0.6357 0.3969 1.058h-3.269c0.04042-0.4263 0.2113-0.7826 0.5126-1.069 0.316-0.3013 0.7074-0.4522 1.174-0.4522zm6.152 0c0.4998 0 0.8946 0.1543 1.185 0.463 0.2646 0.283 0.3969 0.6357 0.3969 1.058h-3.269c0.04042-0.4263 0.2113-0.7826 0.5126-1.069 0.316-0.3013 0.7074-0.4522 1.174-0.4522zm6.377 0c0.4594 0 0.8211 0.1984 1.086 0.5953v3.274c-0.05879 0.1176-0.2036 0.2298-0.4351 0.3364-0.2315 0.1029-0.4299 0.154-0.5953 0.154-1.294 0-1.94-0.7111-1.94-2.133 0-0.6468 0.1729-1.179 0.5183-1.598 0.3491-0.4189 0.8046-0.6284 1.367-0.6284zm-186.8 2.122c0.1323 0 0.3638 0.03658 0.6945 0.1101v1.428c-0.4079 0.5034-0.8764 0.755-1.406 0.755-0.7239 0-1.086-0.3067-1.086-0.9204 0-0.3712 0.1668-0.6929 0.5013-0.9648 0.3344-0.2719 0.7664-0.4077 1.296-0.4077z" style="fill:#000000"/>
</svg>
