<?xml version="1.0" encoding="UTF-8" standalone="no"?>
<svg
   xmlns:dc="http://purl.org/dc/elements/1.1/"
   xmlns:cc="http://creativecommons.org/ns#"
   xmlns:rdf="http://www.w3.org/1999/02/22-rdf-syntax-ns#"
   xmlns:svg="http://www.w3.org/2000/svg"
   xmlns="http://www.w3.org/2000/svg"
   xmlns:xlink="http://www.w3.org/1999/xlink"
   xmlns:sodipodi="http://sodipodi.sourceforge.net/DTD/sodipodi-0.dtd"
   xmlns:inkscape="http://www.inkscape.org/namespaces/inkscape"
   version="1.1"
   viewBox="0 0 276 17.44"
   id="svg16"
   sodipodi:docname="mission3.svg"
   inkscape:version="0.92.2 (5c3e80d, 2017-08-06)">
  <metadata
     id="metadata20">
    <rdf:RDF>
      <cc:Work
         rdf:about="">
        <dc:format>image/svg+xml</dc:format>
        <dc:type
           rdf:resource="http://purl.org/dc/dcmitype/StillImage" />
        <dc:title></dc:title>
      </cc:Work>
    </rdf:RDF>
  </metadata>
  <sodipodi:namedview
     pagecolor="#ffffff"
     bordercolor="#666666"
     borderopacity="1"
     objecttolerance="10"
     gridtolerance="10"
     guidetolerance="10"
     inkscape:pageopacity="0"
     inkscape:pageshadow="2"
     inkscape:window-width="1756"
     inkscape:window-height="975"
     id="namedview18"
     showgrid="false"
     inkscape:zoom="2.057971"
     inkscape:cx="130.64087"
     inkscape:cy="49.978594"
     inkscape:window-x="0"
     inkscape:window-y="0"
     inkscape:window-maximized="0"
     inkscape:current-layer="svg16" />
  <defs
     id="defs8">
    <linearGradient
       inkscape:collect="always"
       id="linearGradient831">
      <stop
         style="stop-color:#33b7d2;stop-opacity:1"
         offset="0"
         id="stop827" />
      <stop
         style="stop-color:#99dbe8;stop-opacity:0.85611511"
         offset="1"
         id="stop829" />
    </linearGradient>
    <filter
       id="filter2838"
       x="-.006308"
       y="-.1228"
       width="1.013"
       height="1.246"
       style="color-interpolation-filters:sRGB">
      <feGaussianBlur
         stdDeviation="0.71634907"
         id="feGaussianBlur2" />
    </filter>
    <filter
       id="filter828"
       x="-.001872"
       y="-.04698"
       width="1.004"
       height="1.094"
       style="color-interpolation-filters:sRGB">
      <feGaussianBlur
         stdDeviation="0.20827909"
         id="feGaussianBlur5" />
    </filter>
    <radialGradient
       inkscape:collect="always"
       xlink:href="#linearGradient831"
       id="radialGradient833"
       cx="138.02132"
       cy="8.7268028"
       fx="138.02132"
       fy="8.7268028"
       r="138.02125"
       gradientTransform="matrix(1,0,0,0.05266397,0,8.2672143)"
       gradientUnits="userSpaceOnUse" />
  </defs>
  <rect
     x="1.719"
     y="1.719"
     width="272.5"
     height="14.01"
     rx="1.427"
     ry="5.25"
     style="fill:url(#radialGradient833);opacity:0.478;stroke-width:1.071;fill-opacity:1"
     id="rect10" />
  <path
     d="M 33.04,3.403 V 6.142 C 32.724,5.8554 32.261,5.7121 31.651,5.7121 c -0.7313,0 -1.362,0.3142 -1.891,0.9426 -0.5292,0.6247 -0.7938,1.38 -0.7938,2.265 0,0.8819 0.23,1.588 0.6894,2.117 0.4594,0.5292 1.058,0.7938 1.797,0.7938 0.6945,0 1.224,-0.1819 1.588,-0.5457 v 0.4356 h 1.047 v -8.318 z m 23.5,0 c -0.61,0 -1.101,0.215 -1.472,0.6449 -0.3711,0.4299 -0.5566,1.022 -0.5566,1.775 h -0.8599 v 0.8816 h 0.8599 v 5.022 h 1.047 v -5.022 h 1.202 V 5.8229 h -1.202 c -0.01837,-0.1066 -0.02739,-0.2098 -0.02739,-0.309 0,-0.3712 0.1027,-0.6778 0.3085,-0.9204 0.2095,-0.2425 0.474,-0.3638 0.7938,-0.3638 0.1837,0 0.3822,0.03658 0.5953,0.1101 l 0.2925,-0.7715 c -0.3491,-0.1102 -0.6763,-0.1654 -0.9813,-0.1654 z m 17.53,0 V 6.142 C 73.754,5.8554 73.291,5.7121 72.681,5.7121 c -0.7313,0 -1.362,0.3142 -1.891,0.9426 -0.5292,0.6247 -0.7938,1.38 -0.7938,2.265 0,0.8819 0.2295,1.588 0.6888,2.117 0.4594,0.5292 1.059,0.7938 1.797,0.7938 0.6945,0 1.224,-0.1819 1.588,-0.5457 v 0.4356 h 1.047 v -8.318 z m 21.78,0 V 6.142 C 95.534,5.8554 95.071,5.7121 94.461,5.7121 c -0.7313,0 -1.361,0.3142 -1.89,0.9426 -0.5292,0.6247 -0.7938,1.38 -0.7938,2.265 0,0.8819 0.2295,1.588 0.6888,2.117 0.4594,0.5292 1.058,0.7938 1.797,0.7938 0.6945,0 1.224,-0.1819 1.588,-0.5457 v 0.4356 h 1.047 v -8.318 z m 52.01,0 c -0.61,0 -1.101,0.215 -1.472,0.6449 -0.371,0.4299 -0.5566,1.022 -0.5566,1.775 h -0.8599 v 0.8816 h 0.8599 v 5.022 h 1.047 v -5.022 h 1.201 V 5.8229 h -1.201 c -0.0184,-0.1066 -0.0279,-0.2098 -0.0279,-0.309 0,-0.3712 0.1032,-0.6778 0.309,-0.9204 0.2095,-0.2425 0.474,-0.3638 0.7938,-0.3638 0.1837,0 0.3822,0.03658 0.5953,0.1101 l 0.292,-0.7715 c -0.3491,-0.1102 -0.6763,-0.1654 -0.9813,-0.1654 z m 56.74,0 v 8.324 h 1.047 V 7.339 c 0.136,-0.1984 0.3304,-0.3713 0.5839,-0.5183 0.2572,-0.1507 0.5128,-0.2258 0.7664,-0.2258 0.3932,0 0.6984,0.1268 0.9152,0.3803 0.2168,0.2536 0.325,0.6008 0.325,1.042 v 3.71 h 1.047 v -3.71 c 0,-0.7129 -0.1784,-1.275 -0.5348,-1.687 -0.3528,-0.4116 -0.8414,-0.6175 -1.466,-0.6175 -0.3307,0 -0.6524,0.07367 -0.9648,0.2207 -0.3087,0.1433 -0.5327,0.3232 -0.6723,0.54 v -3.07 z m 6.174,0 v 8.434 h 0.5235 l 0.3695,-0.5349 c 0.1396,0.147 0.3436,0.2738 0.6118,0.3803 0.2719,0.1029 0.5475,0.1545 0.8268,0.1545 0.8599,0 1.541,-0.2811 2.045,-0.8434 0.5034,-0.5659 0.755,-1.341 0.755,-2.326 0,-0.8525 -0.2516,-1.558 -0.755,-2.117 -0.4998,-0.5586 -1.154,-0.8382 -1.962,-0.8382 -0.2646,0 -0.5347,0.05713 -0.8103,0.171 -0.2719,0.1139 -0.4578,0.2387 -0.5571,0.3747 V 3.403 Z m 59.7,0 v 2.739 c -0.316,-0.2866 -0.7791,-0.4299 -1.389,-0.4299 -0.7313,0 -1.361,0.3142 -1.89,0.9426 -0.5292,0.6247 -0.7938,1.38 -0.7938,2.265 0,0.8819 0.2295,1.588 0.6888,2.117 0.4593,0.5292 1.058,0.7938 1.797,0.7938 0.6945,0 1.224,-0.1819 1.588,-0.5457 v 0.4356 h 1.047 v -8.318 z m -243.3,0.1876 c -0.1801,0 -0.3329,0.06213 -0.4578,0.1871 -0.125,0.1249 -0.1871,0.2778 -0.1871,0.4579 0,0.1801 0.06212,0.3344 0.1871,0.463 0.1286,0.1249 0.2815,0.1871 0.4578,0.1871 0.1801,0 0.3324,-0.06213 0.4573,-0.1871 0.1286,-0.1286 0.1928,-0.283 0.1928,-0.463 0,-0.1764 -0.06413,-0.3272 -0.1928,-0.4522 C 27.5064,3.6548 27.354,3.5906 27.174,3.5906 Z m 9.503,0 c -0.1801,0 -0.3324,0.06213 -0.4573,0.1871 -0.125,0.1249 -0.1876,0.2778 -0.1876,0.4579 0,0.1801 0.06264,0.3344 0.1876,0.463 0.1286,0.1249 0.281,0.1871 0.4573,0.1871 0.1801,0 0.3324,-0.06213 0.4573,-0.1871 0.1286,-0.1286 0.1933,-0.283 0.1933,-0.463 0,-0.1764 -0.06465,-0.3272 -0.1933,-0.4522 C 37.0094,3.6548 36.857,3.5906 36.677,3.5906 Z m 86.85,0 c -0.1801,0 -0.3324,0.06213 -0.4573,0.1871 -0.125,0.1249 -0.1876,0.2778 -0.1876,0.4579 0,0.1801 0.0626,0.3344 0.1876,0.463 0.1286,0.1249 0.281,0.1871 0.4573,0.1871 0.1801,0 0.3324,-0.06213 0.4573,-0.1871 0.1286,-0.1286 0.1933,-0.283 0.1933,-0.463 0,-0.1764 -0.0647,-0.3272 -0.1933,-0.4522 -0.1249,-0.1286 -0.2773,-0.1928 -0.4573,-0.1928 z m 73.29,0 c -0.1801,0 -0.3324,0.06213 -0.4573,0.1871 -0.1249,0.12497 -0.1876,0.2778 -0.1876,0.4579 0,0.1801 0.0626,0.3344 0.1876,0.463 0.1286,0.1249 0.281,0.1871 0.4573,0.1871 0.1801,0 0.3324,-0.06213 0.4573,-0.1871 0.1286,-0.1286 0.1933,-0.283 0.1933,-0.463 0,-0.1764 -0.0647,-0.3272 -0.1933,-0.4522 -0.1249,-0.1286 -0.2773,-0.1928 -0.4573,-0.1928 z m 39.75,0 c -0.1801,0 -0.3324,0.06213 -0.4573,0.1871 -0.1249,0.1249 -0.1876,0.2778 -0.1876,0.4579 0,0.1801 0.0626,0.3344 0.1876,0.463 0.1286,0.1249 0.281,0.1871 0.4573,0.1871 0.1801,0 0.3324,-0.06213 0.4573,-0.1871 0.1286,-0.1286 0.1933,-0.283 0.1933,-0.463 0,-0.1764 -0.0647,-0.3272 -0.1933,-0.4522 C 236.8994,3.6548 236.747,3.5906 236.567,3.5906 Z M 5.967,3.59577 c -0.1727,0 -0.6763,0.01855 -1.511,0.05529 v 8.075 h 1.102 v -3.109 c 0.4189,0.03675 0.691,0.05478 0.816,0.05478 2.073,0 3.109,-0.9075 3.109,-2.723 0,-1.569 -1.172,-2.354 -3.517,-2.354 z m 0.1928,0.9922 c 1.459,0 2.188,0.4926 2.188,1.477 0,1.077 -0.6835,1.615 -2.051,1.615 -0.02572,0 -0.2723,-0.01803 -0.739,-0.05478 v -2.982 C 5.8114,4.60644 6.0118,4.5879 6.1588,4.5879 Z m 42.69,0.8547 -0.5235,0.6284 c -0.327,-0.2389 -0.7811,-0.3586 -1.362,-0.3586 -0.6321,0 -1.163,0.206 -1.593,0.6175 -0.43,0.4115 -0.6449,0.9262 -0.6449,1.544 0,0.9628 0.4149,1.639 1.245,2.028 -0.2903,0.06982 -0.5343,0.1836 -0.7328,0.3416 -0.1948,0.158 -0.2925,0.3344 -0.2925,0.5292 0,0.6321 0.4189,0.9483 1.257,0.9483 0.1727,0 0.4138,-0.02957 0.7224,-0.08837 0.3087,-0.0588 0.5216,-0.08785 0.6392,-0.08785 0.6909,0 1.036,0.2385 1.036,0.7162 0,0.2425 -0.1378,0.445 -0.4134,0.6067 -0.2719,0.1654 -0.6448,0.248 -1.119,0.248 -0.5145,0 -1.077,-0.204 -1.687,-0.6118 l -0.5679,0.8377 c 0.2572,0.1948 0.5975,0.3601 1.02,0.4961 0.4226,0.136 0.825,0.2041 1.207,0.2041 0.746,0 1.361,-0.1674 1.846,-0.5018 0.4887,-0.3344 0.7333,-0.7734 0.7333,-1.317 0,-0.4924 -0.1639,-0.8768 -0.4909,-1.152 -0.3234,-0.2793 -0.7754,-0.4186 -1.356,-0.4186 -0.1617,0 -0.4097,0.02905 -0.7441,0.08785 -0.3344,0.05512 -0.5804,0.08268 -0.7385,0.08268 -0.3601,0 -0.54,-0.07516 -0.54,-0.2258 0,-0.1102 0.08619,-0.1984 0.2589,-0.2646 0.1727,-0.06982 0.3105,-0.1104 0.4134,-0.1214 l 0.8656,-0.08785 c 0.6027,-0.0588 1.089,-0.2903 1.46,-0.6945 0.3712,-0.4042 0.5571,-0.9043 0.5571,-1.5 0,-0.5622 -0.1343,-1.018 -0.4026,-1.367 l 0.6284,-0.4739 z m 154,0 -0.524,0.6284 c -0.327,-0.2389 -0.7805,-0.3586 -1.361,-0.3586 -0.6321,0 -1.163,0.206 -1.593,0.6175 -0.43,0.4115 -0.6449,0.9262 -0.6449,1.544 0,0.9628 0.4154,1.639 1.246,2.028 -0.2903,0.06982 -0.5349,0.1836 -0.7333,0.3416 -0.1948,0.158 -0.292,0.3344 -0.292,0.5292 0,0.6321 0.4189,0.9483 1.257,0.9483 0.1727,0 0.4132,-0.02957 0.7219,-0.08837 0.3087,-0.0588 0.5216,-0.08785 0.6392,-0.08785 0.6909,0 1.037,0.2385 1.037,0.7162 0,0.2425 -0.1378,0.445 -0.4134,0.6067 -0.2719,0.1654 -0.6453,0.248 -1.119,0.248 -0.5145,0 -1.077,-0.204 -1.687,-0.6118 l -0.5674,0.8377 c 0.2572,0.1948 0.597,0.3601 1.02,0.4961 0.4226,0.136 0.825,0.2041 1.207,0.2041 0.746,0 1.361,-0.1674 1.846,-0.5018 0.4888,-0.3344 0.7333,-0.7734 0.7333,-1.317 0,-0.4924 -0.1634,-0.8768 -0.4904,-1.152 -0.3234,-0.2793 -0.7754,-0.4186 -1.356,-0.4186 -0.1617,0 -0.4097,0.02905 -0.7441,0.08785 -0.3344,0.05512 -0.581,0.08268 -0.739,0.08268 -0.3601,0 -0.54,-0.07516 -0.54,-0.2258 0,-0.1102 0.0862,-0.1984 0.2589,-0.2646 0.1727,-0.06982 0.3105,-0.1104 0.4134,-0.1214 l 0.8656,-0.08785 c 0.6027,-0.0588 1.09,-0.2903 1.461,-0.6945 0.3712,-0.4042 0.5566,-0.9043 0.5566,-1.5 0,-0.5622 -0.1343,-1.018 -0.4026,-1.367 l 0.6284,-0.4739 z m -189.8,0.2698 c -0.7533,0 -1.321,0.3513 -1.703,1.053 v -0.9426 h -1.047 v 5.904 h 1.047 v -3.385 c 0,-0.4814 0.1378,-0.8928 0.4134,-1.235 0.2793,-0.3418 0.6045,-0.5126 0.9756,-0.5126 0.2315,0 0.4615,0.07918 0.6894,0.2372 l 0.4351,-1.02 C 13.5075,5.745318 13.2374,5.712248 13.05,5.712248 Z m 3.842,0 c -0.8011,0 -1.448,0.2811 -1.94,0.8434 -0.4887,0.5586 -0.7328,1.294 -0.7328,2.205 0,0.9407 0.235,1.688 0.7054,2.243 0.4704,0.5549 1.126,0.8325 1.968,0.8325 0.8232,0 1.474,-0.2736 1.951,-0.8211 0.4777,-0.5512 0.7168,-1.303 0.7168,-2.255 0,-0.9554 -0.2335,-1.702 -0.7002,-2.238 -0.4667,-0.5402 -1.123,-0.8103 -1.968,-0.8103 z m 24.77,0 c -0.7827,0 -1.347,0.2906 -1.692,0.8713 l -0.3307,-0.7607 h -0.7162 v 5.904 h 1.047 v -4.388 c 0.1396,-0.2095 0.3401,-0.3859 0.601,-0.5292 0.2609,-0.1433 0.511,-0.215 0.7498,-0.215 0.4446,0 0.7603,0.1268 0.9477,0.3803 0.1911,0.2499 0.2868,0.6888 0.2868,1.317 v 3.434 h 1.047 v -3.655 c 0,-1.573 -0.6469,-2.36 -1.94,-2.36 z m 18.95,0 c -0.8011,0 -1.448,0.2811 -1.94,0.8434 -0.4887,0.5586 -0.7328,1.294 -0.7328,2.205 0,0.9407 0.235,1.688 0.7054,2.243 0.4704,0.5549 1.126,0.8325 1.968,0.8325 0.8232,0 1.474,-0.2736 1.951,-0.8211 0.4777,-0.5512 0.7168,-1.303 0.7168,-2.255 0,-0.9554 -0.2335,-1.702 -0.7002,-2.238 -0.4667,-0.5402 -1.123,-0.8103 -1.968,-0.8103 z m 6.063,0 c -0.8011,0 -1.448,0.2811 -1.94,0.8434 -0.4887,0.5586 -0.7333,1.294 -0.7333,2.205 0,0.9407 0.235,1.688 0.7054,2.243 0.4704,0.5549 1.126,0.8325 1.968,0.8325 0.8231,0 1.474,-0.2736 1.951,-0.8211 0.4777,-0.5512 0.7168,-1.303 0.7168,-2.255 0,-0.9554 -0.2335,-1.702 -0.7002,-2.238 -0.4667,-0.5402 -1.123,-0.8103 -1.968,-0.8103 z m 15.29,0 c -0.3197,0 -0.6559,0.05914 -1.009,0.1767 -0.3491,0.1139 -0.6232,0.2517 -0.8217,0.4134 l 0.4413,0.8764 c 0.3528,-0.3528 0.8559,-0.5292 1.51,-0.5292 0.8525,0 1.279,0.4775 1.279,1.433 -0.2793,-0.09554 -0.5293,-0.1431 -0.7498,-0.1431 -0.8121,0 -1.481,0.2075 -2.006,0.6227 -0.5218,0.4116 -0.7829,0.9167 -0.7829,1.516 0,0.4998 0.1689,0.9187 0.5069,1.257 0.3418,0.3344 0.7441,0.5018 1.207,0.5018 0.8636,0 1.505,-0.2626 1.924,-0.7881 0.09187,0.2793 0.2427,0.4792 0.4522,0.6005 0.2131,0.1213 0.5328,0.1819 0.9591,0.1819 v -0.5235 c -0.3087,-0.1727 -0.463,-0.518 -0.463,-1.036 v -2.117 c 0,-0.8489 -0.1949,-1.468 -0.5845,-1.858 -0.3858,-0.3895 -1.007,-0.5845 -1.863,-0.5845 z m 6.835,0 c -0.7827,0 -1.346,0.2906 -1.692,0.8713 l -0.3307,-0.7607 h -0.7168 v 5.904 h 1.047 v -4.388 c 0.1396,-0.2095 0.3396,-0.3859 0.6005,-0.5292 0.2609,-0.1433 0.511,-0.215 0.7498,-0.215 0.4446,0 0.7608,0.1268 0.9483,0.3803 0.1911,0.2499 0.2863,0.6888 0.2863,1.317 v 3.434 h 1.047 v -3.655 c 0,-1.573 -0.6469,-2.36 -1.94,-2.36 z m 14.68,0 c -0.5696,0 -1.031,0.1363 -1.384,0.4082 -0.3528,0.2719 -0.5292,0.6503 -0.5292,1.135 0,0.1874 0.0296,0.3638 0.0884,0.5292 0.0625,0.1617 0.1542,0.316 0.2754,0.463 0.1249,0.1433 0.2703,0.2721 0.4356,0.386 0.169,0.1139 0.4942,0.2808 0.9757,0.5013 0.6247,0.2793 0.9369,0.614 0.9369,1.004 0,0.5439 -0.3232,0.8155 -0.97,0.8155 -0.3565,0 -0.827,-0.1909 -1.411,-0.5731 l -0.369,0.9922 c 0.5475,0.3087 1.132,0.463 1.753,0.463 0.6578,0 1.172,-0.1488 1.543,-0.4465 0.3712,-0.3013 0.5571,-0.7168 0.5571,-1.246 0,-0.4042 -0.1047,-0.7405 -0.3142,-1.009 -0.2095,-0.2685 -0.5442,-0.5068 -1.004,-0.7162 l -0.7493,-0.3421 c -0.43,-0.1948 -0.6449,-0.4814 -0.6449,-0.8599 0,-0.1801 0.0842,-0.3289 0.2532,-0.4465 0.1727,-0.1176 0.3842,-0.1762 0.6341,-0.1762 0.4189,0 0.8358,0.1654 1.251,0.4961 l 0.2977,-0.97 c -0.6541,-0.2719 -1.196,-0.4082 -1.626,-0.4082 z m 5.38,0 c -0.7239,0 -1.35,0.2631 -1.879,0.7886 -0.5916,0.588 -0.8873,1.369 -0.8873,2.342 0,0.9371 0.2881,1.683 0.8651,2.238 0.5181,0.5034 1.149,0.755 1.891,0.755 0.5145,0 0.981,-0.07717 1.4,-0.2315 0.3344,-0.1176 0.5824,-0.2574 0.7441,-0.4191 l -0.4408,-0.755 c -0.4006,0.3491 -0.9002,0.5235 -1.499,0.5235 -0.5255,0 -0.9554,-0.1613 -1.29,-0.4847 -0.3785,-0.3712 -0.5679,-0.9023 -0.5679,-1.593 h 4.256 c 0.0551,-0.1948 0.0827,-0.4077 0.0827,-0.6392 0,-0.7533 -0.2315,-1.358 -0.6945,-1.814 -0.4777,-0.474 -1.138,-0.7111 -1.979,-0.7111 z m 6.604,0 c -0.7533,0 -1.321,0.3513 -1.703,1.053 v -0.9426 h -1.047 v 5.904 h 1.047 v -3.385 c 0,-0.4814 0.1378,-0.8928 0.4134,-1.235 0.2793,-0.3418 0.6045,-0.5126 0.9756,-0.5126 0.2315,0 0.461,0.07918 0.6888,0.2372 l 0.4356,-1.02 c -0.3528,-0.06615 -0.6229,-0.09922 -0.8103,-0.09922 z m 12.98,0 c -0.9481,0 -1.696,0.2851 -2.243,0.8547 -0.5439,0.5696 -0.816,1.325 -0.816,2.265 0,0.9224 0.2626,1.653 0.7881,2.194 0.5255,0.5402 1.191,0.8103 1.996,0.8103 0.8305,0 1.527,-0.1819 2.089,-0.5457 l -0.4134,-0.8821 c -0.4777,0.3638 -0.9518,0.5457 -1.422,0.5457 -0.6063,0 -1.08,-0.1799 -1.422,-0.54 -0.3418,-0.3638 -0.5126,-0.891 -0.5126,-1.582 0,-0.6945 0.1674,-1.24 0.5018,-1.637 0.3344,-0.4006 0.7864,-0.601 1.356,-0.601 0.2609,0 0.5255,0.0476 0.7938,0.1431 0.2719,0.09554 0.4614,0.1968 0.5679,0.3033 l 0.5178,-0.7385 c -0.169,-0.136 -0.4316,-0.2683 -0.7881,-0.3969 -0.3564,-0.1286 -0.6872,-0.1933 -0.9922,-0.1933 z m 5.308,0 c -0.7239,0 -1.35,0.2631 -1.879,0.7886 -0.5916,0.588 -0.8878,1.369 -0.8878,2.342 0,0.9371 0.2886,1.683 0.8656,2.238 0.5181,0.5034 1.149,0.755 1.891,0.755 0.5145,0 0.981,-0.07717 1.4,-0.2315 0.3344,-0.1176 0.5824,-0.2574 0.7441,-0.4191 l -0.4408,-0.755 c -0.4006,0.3491 -0.9007,0.5235 -1.5,0.5235 -0.5255,0 -0.9554,-0.1613 -1.29,-0.4847 -0.3785,-0.3712 -0.5674,-0.9023 -0.5674,-1.593 h 4.255 c 0.0551,-0.1948 0.0827,-0.4077 0.0827,-0.6392 0,-0.7533 -0.2315,-1.358 -0.6945,-1.814 -0.4777,-0.474 -1.137,-0.7111 -1.979,-0.7111 z m 5.336,0 c -0.5696,0 -1.031,0.1363 -1.383,0.4082 -0.3528,0.2719 -0.5292,0.6503 -0.5292,1.135 0,0.1874 0.0296,0.3638 0.0884,0.5292 0.0625,0.1617 0.1542,0.316 0.2754,0.463 0.1249,0.1433 0.2703,0.2721 0.4356,0.386 0.169,0.1139 0.4943,0.2808 0.9756,0.5013 0.6247,0.2793 0.9369,0.614 0.9369,1.004 0,0.5439 -0.3232,0.8155 -0.97,0.8155 -0.3565,0 -0.827,-0.1909 -1.411,-0.5731 l -0.3695,0.9922 c 0.5475,0.3087 1.132,0.463 1.753,0.463 0.6578,0 1.172,-0.1488 1.544,-0.4465 0.3711,-0.3013 0.5566,-0.7168 0.5566,-1.246 0,-0.4042 -0.1047,-0.7405 -0.3142,-1.009 -0.2095,-0.2685 -0.5437,-0.5068 -1.003,-0.7162 l -0.7498,-0.3421 c -0.4299,-0.1948 -0.6449,-0.4814 -0.6449,-0.8599 0,-0.1801 0.0847,-0.3289 0.2537,-0.4465 0.1727,-0.1176 0.3842,-0.1762 0.6341,-0.1762 0.4189,0 0.8358,0.1654 1.251,0.4961 l 0.2977,-0.97 c -0.6541,-0.2719 -1.196,-0.4082 -1.626,-0.4082 z m 12.85,0 c -0.8011,0 -1.448,0.2811 -1.94,0.8434 -0.4888,0.5586 -0.7333,1.294 -0.7333,2.205 0,0.9407 0.235,1.688 0.7054,2.243 0.4704,0.555 1.126,0.8325 1.968,0.8325 0.8232,0 1.474,-0.2736 1.951,-0.8211 0.4777,-0.5512 0.7168,-1.303 0.7168,-2.255 0,-0.9554 -0.2335,-1.702 -0.7002,-2.238 -0.4667,-0.5402 -1.123,-0.8103 -1.968,-0.8103 z m 6.609,0 c -0.7533,0 -1.321,0.3513 -1.703,1.053 v -0.9426 h -1.047 v 5.904 h 1.047 v -3.385 c 0,-0.4814 0.1378,-0.8928 0.4134,-1.235 0.2793,-0.3418 0.6045,-0.5126 0.9756,-0.5126 0.2315,0 0.461,0.07918 0.6888,0.2372 l 0.4356,-1.02 c -0.3528,-0.06615 -0.6229,-0.09922 -0.8103,-0.09922 z m 7.237,0 c -0.8011,0 -1.448,0.2811 -1.94,0.8434 -0.4887,0.5586 -0.7328,1.294 -0.7328,2.205 0,0.9407 0.235,1.688 0.7054,2.243 0.4704,0.555 1.126,0.8325 1.968,0.8325 0.8232,0 1.474,-0.2736 1.951,-0.8211 0.4777,-0.5512 0.7168,-1.303 0.7168,-2.255 0,-0.9554 -0.2335,-1.702 -0.7002,-2.238 -0.4667,-0.5402 -1.123,-0.8103 -1.968,-0.8103 z m 12.78,0 c -0.7533,0 -1.321,0.3513 -1.703,1.053 v -0.9426 h -1.047 v 5.904 h 1.047 v -3.385 c 0,-0.4814 0.1378,-0.8928 0.4134,-1.235 0.2793,-0.3418 0.6045,-0.5126 0.9756,-0.5126 0.2315,0 0.461,0.07918 0.6888,0.2372 l 0.4356,-1.02 c -0.3528,-0.06615 -0.6229,-0.09922 -0.8103,-0.09922 z m 7.689,0 c -0.7827,0 -1.347,0.2906 -1.692,0.8713 l -0.3307,-0.7607 h -0.7162 v 5.904 h 1.047 v -4.388 c 0.1396,-0.2095 0.3401,-0.3859 0.601,-0.5292 0.2609,-0.1433 0.511,-0.215 0.7498,-0.215 0.4446,0 0.7603,0.1268 0.9478,0.3803 0.1911,0.2499 0.2868,0.6888 0.2868,1.317 v 3.434 h 1.047 v -3.655 c 0,-1.573 -0.6469,-2.36 -1.94,-2.36 z m 5.815,0 c -0.7239,0 -1.35,0.2631 -1.879,0.7886 -0.5916,0.588 -0.8873,1.369 -0.8873,2.342 0,0.9371 0.2881,1.683 0.8651,2.238 0.5181,0.5034 1.149,0.755 1.891,0.755 0.5145,0 0.981,-0.07717 1.4,-0.2315 0.3344,-0.1176 0.5824,-0.2574 0.7441,-0.4191 l -0.4408,-0.755 c -0.4006,0.3491 -0.9002,0.5235 -1.499,0.5235 -0.5255,0 -0.9554,-0.1613 -1.29,-0.4847 -0.3785,-0.3712 -0.5679,-0.9023 -0.5679,-1.593 h 4.256 c 0.0551,-0.1948 0.0827,-0.4077 0.0827,-0.6392 0,-0.7533 -0.2315,-1.358 -0.6945,-1.814 -0.4777,-0.474 -1.138,-0.7111 -1.979,-0.7111 z m 27.4,0 c -0.8011,0 -1.448,0.2811 -1.94,0.8434 -0.4887,0.5586 -0.7333,1.294 -0.7333,2.205 0,0.9407 0.235,1.688 0.7054,2.243 0.4704,0.555 1.126,0.8325 1.968,0.8325 0.8231,0 1.474,-0.2736 1.951,-0.8211 0.4777,-0.5512 0.7168,-1.303 0.7168,-2.255 0,-0.9554 -0.2335,-1.702 -0.7002,-2.238 -0.4667,-0.5402 -1.123,-0.8103 -1.968,-0.8103 z m 6.609,0 c -0.7533,0 -1.321,0.3513 -1.703,1.053 v -0.9426 h -1.047 v 5.904 h 1.047 v -3.385 c 0,-0.4814 0.1378,-0.8928 0.4134,-1.235 0.2793,-0.3418 0.6045,-0.5126 0.9756,-0.5126 0.2315,0 0.461,0.07918 0.6888,0.2372 l 0.4356,-1.02 c -0.3528,-0.06615 -0.6229,-0.09922 -0.8103,-0.09922 z m 3.12,0 c -0.5696,0 -1.031,0.1363 -1.383,0.4082 -0.3528,0.2719 -0.5292,0.6503 -0.5292,1.135 0,0.1874 0.0291,0.3638 0.0878,0.5292 0.0625,0.1617 0.1547,0.316 0.276,0.463 0.1249,0.1433 0.2697,0.2721 0.4351,0.386 0.169,0.1139 0.4943,0.2808 0.9756,0.5013 0.6247,0.2793 0.9374,0.614 0.9374,1.004 0,0.5439 -0.3237,0.8155 -0.9705,0.8155 -0.3564,0 -0.8265,-0.1909 -1.411,-0.5731 l -0.3695,0.9922 c 0.5475,0.3087 1.132,0.463 1.753,0.463 0.6578,0 1.172,-0.1488 1.544,-0.4465 0.3712,-0.3013 0.5566,-0.7168 0.5566,-1.246 0,-0.4042 -0.1047,-0.7405 -0.3142,-1.009 -0.2095,-0.2685 -0.5437,-0.5068 -1.003,-0.7162 l -0.7498,-0.3421 c -0.4299,-0.1948 -0.6449,-0.4814 -0.6449,-0.8599 0,-0.1801 0.0847,-0.3289 0.2537,-0.4465 0.1727,-0.1176 0.3837,-0.1762 0.6336,-0.1762 0.4189,0 0.8364,0.1654 1.252,0.4961 l 0.2977,-0.97 c -0.6541,-0.2719 -1.196,-0.4082 -1.626,-0.4082 z m 12.35,0 c -0.7827,0 -1.347,0.2906 -1.692,0.8713 l -0.3307,-0.7607 h -0.7162 v 5.904 h 1.047 v -4.388 c 0.1396,-0.2095 0.3401,-0.3859 0.601,-0.5292 0.2609,-0.1433 0.511,-0.215 0.7498,-0.215 0.4446,0 0.7603,0.1268 0.9478,0.3803 0.1911,0.2499 0.2868,0.6888 0.2868,1.317 v 3.434 h 1.047 v -3.655 c 0,-1.573 -0.6469,-2.36 -1.94,-2.36 z m 9.569,0 c -0.7827,0 -1.346,0.2906 -1.692,0.8713 l -0.3307,-0.7607 h -0.7168 v 5.904 h 1.047 v -4.388 c 0.1396,-0.2095 0.3396,-0.3859 0.6005,-0.5292 0.2609,-0.1433 0.511,-0.215 0.7498,-0.215 0.4446,0 0.7608,0.1268 0.9483,0.3803 0.1911,0.2499 0.2863,0.6888 0.2863,1.317 v 3.434 h 1.047 v -3.655 c 0,-1.573 -0.6469,-2.36 -1.94,-2.36 z m 5.816,0 c -0.7239,0 -1.351,0.2631 -1.88,0.7886 -0.5916,0.588 -0.8873,1.369 -0.8873,2.342 0,0.9371 0.2886,1.683 0.8656,2.238 0.5181,0.5034 1.148,0.755 1.89,0.755 0.5145,0 0.9815,-0.07717 1.4,-0.2315 0.3344,-0.1176 0.5824,-0.2574 0.7441,-0.4191 l -0.4413,-0.755 c -0.4006,0.3491 -0.9002,0.5235 -1.499,0.5235 -0.5255,0 -0.9554,-0.1613 -1.29,-0.4847 -0.3785,-0.3712 -0.5679,-0.9023 -0.5679,-1.593 h 4.256 c 0.0551,-0.1948 0.0827,-0.4077 0.0827,-0.6392 0,-0.7533 -0.2315,-1.358 -0.6945,-1.814 -0.4777,-0.474 -1.137,-0.7111 -1.979,-0.7111 z m 6.152,0 c -0.7239,0 -1.351,0.2631 -1.88,0.7886 -0.5916,0.588 -0.8873,1.369 -0.8873,2.342 0,0.9371 0.2886,1.683 0.8656,2.238 0.5181,0.5034 1.148,0.755 1.89,0.755 0.5145,0 0.9815,-0.07717 1.4,-0.2315 0.3344,-0.1176 0.5824,-0.2574 0.7441,-0.4191 l -0.4413,-0.755 c -0.4006,0.3491 -0.9001,0.5235 -1.499,0.5235 -0.5255,0 -0.9554,-0.1613 -1.29,-0.4847 -0.3785,-0.3712 -0.5679,-0.9023 -0.5679,-1.593 h 4.256 c 0.0551,-0.1948 0.0827,-0.4077 0.0827,-0.6392 0,-0.7533 -0.2315,-1.358 -0.6945,-1.814 -0.4777,-0.474 -1.137,-0.7111 -1.979,-0.7111 z m -243.1,0.09405 2.53,6.03 h 0.2754 l 2.591,-6.03 h -1.097 l -1.593,4.134 -1.56,-4.134 z m 96.35,0 2.53,6.03 h 0.2754 l 2.591,-6.03 h -1.097 l -1.593,4.134 -1.56,-4.134 z m -90.44,0.01654 v 0.8816 h 0.8103 v 5.022 h 1.047 v -5.904 z m 9.503,0 v 0.8816 h 0.8103 v 5.022 h 1.047 v -5.904 z m 86.85,0 v 0.8816 h 0.8103 v 5.022 h 1.047 v -5.904 z m 47.26,0 v 3.875 c 0,0.6835 0.1709,1.211 0.5126,1.582 0.3454,0.3712 0.8415,0.5566 1.488,0.5566 0.3381,0 0.6833,-0.09572 1.036,-0.2868 0.3564,-0.1948 0.5935,-0.4077 0.7111,-0.6392 v 0.816 h 1.047 v -5.904 h -1.047 v 4.145 c -0.0919,0.2609 -0.2808,0.4904 -0.5674,0.6888 -0.2866,0.1984 -0.6028,0.2977 -0.9483,0.2977 -0.7901,0 -1.185,-0.4555 -1.185,-1.367 v -3.765 z m 26.03,0 v 0.8816 h 0.8103 v 5.022 h 1.047 v -5.904 z m 39.75,0 v 0.8816 h 0.8103 v 5.022 h 1.047 v -5.904 z m -188.2,0.7328 c 0.3381,0 0.6192,0.1288 0.8434,0.386 0.2278,0.2572 0.3416,0.5694 0.3416,0.9369 0,0.4263 -0.1047,0.772 -0.3142,1.037 -0.2095,0.2609 -0.4996,0.3912 -0.8707,0.3912 -0.3785,0 -0.6797,-0.1343 -0.9038,-0.4026 -0.2205,-0.2719 -0.3307,-0.6137 -0.3307,-1.025 0,-0.3675 0.1138,-0.6797 0.3416,-0.9369 0.2315,-0.2572 0.5292,-0.386 0.893,-0.386 z m 154,0 c 0.3381,0 0.6192,0.1288 0.8434,0.386 0.2278,0.2572 0.3421,0.5694 0.3421,0.9369 0,0.4263 -0.1047,0.772 -0.3142,1.037 -0.2095,0.2609 -0.5001,0.3912 -0.8713,0.3912 -0.3785,0 -0.6797,-0.1343 -0.9038,-0.4026 -0.2205,-0.2719 -0.3307,-0.6137 -0.3307,-1.025 0,-0.3675 0.1138,-0.6797 0.3416,-0.9369 0.2315,-0.2572 0.5292,-0.386 0.893,-0.386 z m -184.2,0.01137 c 1.044,0 1.565,0.7311 1.565,2.194 0,0.6872 -0.1393,1.229 -0.4186,1.626 -0.2756,0.3969 -0.658,0.5953 -1.147,0.5953 -1.047,0 -1.571,-0.7406 -1.571,-2.222 0,-0.6835 0.1413,-1.22 0.4243,-1.61 0.2866,-0.3895 0.669,-0.5839 1.147,-0.5839 z m 43.72,0 c 1.044,0 1.565,0.7311 1.565,2.194 0,0.6872 -0.1393,1.229 -0.4186,1.626 -0.2756,0.3969 -0.658,0.5953 -1.147,0.5953 -1.047,0 -1.571,-0.7406 -1.571,-2.222 0,-0.6835 0.1413,-1.22 0.4243,-1.61 0.2866,-0.3895 0.669,-0.5839 1.147,-0.5839 z m 6.063,0 c 1.044,0 1.566,0.7311 1.566,2.194 0,0.6872 -0.1398,1.229 -0.4191,1.626 -0.2756,0.3969 -0.658,0.5953 -1.147,0.5953 -1.047,0 -1.571,-0.7406 -1.571,-2.222 0,-0.6835 0.1418,-1.22 0.4248,-1.61 0.2866,-0.3895 0.6685,-0.5839 1.146,-0.5839 z m 85.26,0 c 1.044,0 1.566,0.7311 1.566,2.194 0,0.6872 -0.1398,1.229 -0.4191,1.626 -0.2756,0.3969 -0.658,0.5953 -1.147,0.5953 -1.047,0 -1.571,-0.7406 -1.571,-2.222 0,-0.6835 0.1418,-1.22 0.4248,-1.61 0.2866,-0.3895 0.6685,-0.5839 1.146,-0.5839 z m 13.85,0 c 1.044,0 1.565,0.7311 1.565,2.194 0,0.6872 -0.1393,1.229 -0.4186,1.626 -0.2756,0.3969 -0.658,0.5953 -1.147,0.5953 -1.047,0 -1.571,-0.7406 -1.571,-2.222 0,-0.6835 0.1413,-1.22 0.4243,-1.61 0.2866,-0.3895 0.669,-0.5839 1.147,-0.5839 z m 53.69,0 c 1.044,0 1.566,0.7311 1.566,2.194 0,0.6872 -0.1398,1.229 -0.4191,1.626 -0.2756,0.3969 -0.658,0.5953 -1.147,0.5953 -1.047,0 -1.571,-0.7406 -1.571,-2.222 0,-0.6835 0.1418,-1.22 0.4248,-1.61 0.2866,-0.3895 0.6685,-0.5839 1.146,-0.5839 z m -187.4,0.02739 c 0.4593,0 0.8211,0.1984 1.086,0.5953 v 3.274 c -0.0588,0.1176 -0.2041,0.2298 -0.4356,0.3364 -0.2315,0.1029 -0.43,0.154 -0.5953,0.154 -1.294,0 -1.94,-0.7111 -1.94,-2.133 0,-0.6468 0.1724,-1.179 0.5178,-1.598 0.3491,-0.4189 0.8051,-0.6284 1.367,-0.6284 z m 41.03,0 c 0.4593,0 0.8216,0.1984 1.086,0.5953 v 3.274 c -0.0588,0.1176 -0.2041,0.2298 -0.4356,0.3364 -0.2315,0.1029 -0.43,0.154 -0.5953,0.154 -1.294,0 -1.94,-0.7111 -1.94,-2.133 0,-0.6468 0.1729,-1.179 0.5183,-1.598 0.3491,-0.4189 0.8046,-0.6284 1.367,-0.6284 z m 21.78,0 c 0.4594,0 0.8211,0.1984 1.086,0.5953 v 3.274 c -0.05879,0.1176 -0.2036,0.2298 -0.4351,0.3364 -0.2315,0.1029 -0.43,0.154 -0.5953,0.154 -1.294,0 -1.94,-0.7111 -1.94,-2.133 0,-0.6468 0.1729,-1.179 0.5183,-1.598 0.3491,-0.4189 0.8046,-0.6284 1.367,-0.6284 z m 14.02,0 c 0.4998,0 0.8952,0.1543 1.185,0.463 0.2646,0.283 0.3969,0.6357 0.3969,1.058 h -3.269 c 0.0404,-0.4263 0.2113,-0.7826 0.5126,-1.069 0.316,-0.3013 0.7074,-0.4522 1.174,-0.4522 z m 24.89,0 c 0.4998,0 0.8946,0.1543 1.185,0.463 0.2646,0.283 0.3969,0.6357 0.3969,1.058 h -3.269 c 0.0404,-0.4263 0.2113,-0.7826 0.5126,-1.069 0.316,-0.3013 0.7074,-0.4522 1.174,-0.4522 z m 58.32,0 c 0.4998,0 0.8952,0.1543 1.185,0.463 0.2646,0.283 0.3969,0.6357 0.3969,1.058 h -3.269 c 0.0404,-0.4263 0.2113,-0.7826 0.5126,-1.069 0.316,-0.3013 0.7074,-0.4522 1.174,-0.4522 z m 20.81,0 c 0.61,0 1.095,0.1874 1.455,0.5622 0.3601,0.3748 0.54,0.8965 0.54,1.565 0,0.8048 -0.1544,1.378 -0.463,1.72 -0.3087,0.3418 -0.8193,0.5126 -1.532,0.5126 -0.136,0 -0.3344,-0.06614 -0.5953,-0.1984 -0.2609,-0.136 -0.3917,-0.2332 -0.3917,-0.292 v -3.407 c 0.0698,-0.08819 0.2186,-0.1874 0.4465,-0.2977 0.2315,-0.1102 0.4119,-0.1654 0.5405,-0.1654 z m 44.05,0 c 0.4998,0 0.8946,0.1543 1.185,0.463 0.2646,0.283 0.3969,0.6357 0.3969,1.058 h -3.269 c 0.0404,-0.4263 0.2113,-0.7826 0.5126,-1.069 0.316,-0.3013 0.7074,-0.4522 1.174,-0.4522 z m 6.152,0 c 0.4998,0 0.8946,0.1543 1.185,0.463 0.2646,0.283 0.3969,0.6357 0.3969,1.058 h -3.269 c 0.0404,-0.4263 0.2113,-0.7826 0.5126,-1.069 0.316,-0.3013 0.7074,-0.4522 1.174,-0.4522 z m 6.377,0 c 0.4594,0 0.8211,0.1984 1.086,0.5953 v 3.274 c -0.0588,0.1176 -0.2036,0.2298 -0.4351,0.3364 -0.2315,0.1029 -0.4299,0.154 -0.5953,0.154 -1.294,0 -1.94,-0.7111 -1.94,-2.133 0,-0.6468 0.1729,-1.179 0.5183,-1.598 0.3491,-0.4189 0.8046,-0.6284 1.367,-0.6284 z m -186.8,2.122 c 0.1323,0 0.3638,0.03658 0.6945,0.1101 v 1.428 c -0.4079,0.5034 -0.8764,0.755 -1.406,0.755 -0.7239,0 -1.086,-0.3067 -1.086,-0.9204 0,-0.3712 0.1668,-0.6929 0.5013,-0.9648 0.3344,-0.2719 0.7664,-0.4077 1.296,-0.4077 z"
     style="display:none;fill:#ffffff;stroke:#ffffff;stroke-width:0.5;filter:url(#filter828)"
     id="path12"
     inkscape:connector-curvature="0" />
  <path
     d="m33.04 3.403v2.739c-0.316-0.2866-0.779-0.4299-1.389-0.4299-0.7313 0-1.362 0.3142-1.891 0.9426-0.5292 0.6247-0.7938 1.38-0.7938 2.265 0 0.8819 0.23 1.588 0.6894 2.117 0.4594 0.5292 1.058 0.7938 1.797 0.7938 0.6945 0 1.224-0.1819 1.588-0.5457v0.4356h1.047v-8.318zm23.5 0c-0.61 0-1.101 0.215-1.472 0.6449-0.3711 0.4299-0.5566 1.022-0.5566 1.775h-0.8599v0.8816h0.8599v5.022h1.047v-5.022h1.202v-0.8816h-1.202c-0.01837-0.1066-0.02739-0.2098-0.02739-0.309 0-0.3712 0.1027-0.6778 0.3085-0.9204 0.2095-0.2425 0.474-0.3638 0.7938-0.3638 0.1837 0 0.3822 0.03658 0.5953 0.1101l0.2925-0.7715c-0.3491-0.1102-0.6763-0.1654-0.9813-0.1654zm17.53 0v2.739c-0.316-0.2866-0.779-0.4299-1.389-0.4299-0.7313 0-1.362 0.3142-1.891 0.9426-0.5292 0.6247-0.7938 1.38-0.7938 2.265 0 0.8819 0.2295 1.588 0.6888 2.117 0.4594 0.5292 1.059 0.7938 1.797 0.7938 0.6945 0 1.224-0.1819 1.588-0.5457v0.4356h1.047v-8.318zm21.78 0v2.739c-0.316-0.2866-0.779-0.4299-1.389-0.4299-0.7313 0-1.361 0.3142-1.89 0.9426-0.5292 0.6247-0.7938 1.38-0.7938 2.265 0 0.8819 0.2295 1.588 0.6888 2.117 0.4594 0.5292 1.058 0.7938 1.797 0.7938 0.6945 0 1.224-0.1819 1.588-0.5457v0.4356h1.047v-8.318zm52.01 0c-0.61 0-1.101 0.215-1.472 0.6449s-0.5566 1.022-0.5566 1.775h-0.8599v0.8816h0.8599v5.022h1.047v-5.022h1.201v-0.8816h-1.201c-0.01838-0.1066-0.02791-0.2098-0.02791-0.309 0-0.3712 0.1032-0.6778 0.309-0.9204 0.2095-0.2425 0.474-0.3638 0.7938-0.3638 0.1837 0 0.3822 0.03658 0.5953 0.1101l0.292-0.7715c-0.3491-0.1102-0.6763-0.1654-0.9813-0.1654zm56.74 0v8.324h1.047v-4.388c0.136-0.1984 0.3304-0.3713 0.5839-0.5183 0.2572-0.1507 0.5128-0.2258 0.7664-0.2258 0.3932 0 0.6984 0.1268 0.9152 0.3803 0.2168 0.2536 0.325 0.6008 0.325 1.042v3.71h1.047v-3.71c0-0.7129-0.1784-1.275-0.5348-1.687-0.3528-0.4116-0.8414-0.6175-1.466-0.6175-0.3307 0-0.6524 0.07367-0.9648 0.2207-0.3087 0.1433-0.5327 0.3232-0.6723 0.54v-3.07zm6.174 0v8.434h0.5235l0.3695-0.5349c0.1396 0.147 0.3436 0.2738 0.6118 0.3803 0.2719 0.1029 0.5475 0.1545 0.8268 0.1545 0.8599 0 1.541-0.2811 2.045-0.8434 0.5034-0.5659 0.755-1.341 0.755-2.326 0-0.8525-0.2516-1.558-0.755-2.117-0.4998-0.5586-1.154-0.8382-1.962-0.8382-0.2646 0-0.5347 0.05713-0.8103 0.171-0.2719 0.1139-0.4578 0.2387-0.5571 0.3747v-2.855zm59.7 0v2.739c-0.316-0.2866-0.7791-0.4299-1.389-0.4299-0.7313 0-1.361 0.3142-1.89 0.9426-0.5292 0.6247-0.7938 1.38-0.7938 2.265 0 0.8819 0.2295 1.588 0.6888 2.117 0.4593 0.5292 1.058 0.7938 1.797 0.7938 0.6945 0 1.224-0.1819 1.588-0.5457v0.4356h1.047v-8.318zm-243.3 0.1876c-0.1801 0-0.3329 0.06213-0.4578 0.1871-0.125 0.1249-0.1871 0.2778-0.1871 0.4579s0.06212 0.3344 0.1871 0.463c0.1286 0.1249 0.2815 0.1871 0.4578 0.1871 0.1801 0 0.3324-0.06213 0.4573-0.1871 0.1286-0.1286 0.1928-0.283 0.1928-0.463 0-0.1764-0.06413-0.3272-0.1928-0.4522-0.1249-0.1286-0.2773-0.1928-0.4573-0.1928zm9.503 0c-0.1801 0-0.3324 0.06213-0.4573 0.1871-0.125 0.1249-0.1876 0.2778-0.1876 0.4579s0.06264 0.3344 0.1876 0.463c0.1286 0.1249 0.281 0.1871 0.4573 0.1871 0.1801 0 0.3324-0.06213 0.4573-0.1871 0.1286-0.1286 0.1933-0.283 0.1933-0.463 0-0.1764-0.06465-0.3272-0.1933-0.4522-0.1249-0.1286-0.2773-0.1928-0.4573-0.1928zm86.85 0c-0.1801 0-0.3324 0.06213-0.4573 0.1871-0.125 0.1249-0.1876 0.2778-0.1876 0.4579s0.06264 0.3344 0.1876 0.463c0.1286 0.1249 0.281 0.1871 0.4573 0.1871 0.1801 0 0.3324-0.06213 0.4573-0.1871 0.1286-0.1286 0.1933-0.283 0.1933-0.463 0-0.1764-0.06465-0.3272-0.1933-0.4522-0.1249-0.1286-0.2773-0.1928-0.4573-0.1928zm73.29 0c-0.1801 0-0.3324 0.06213-0.4573 0.1871s-0.1876 0.2778-0.1876 0.4579 0.06264 0.3344 0.1876 0.463c0.1286 0.1249 0.281 0.1871 0.4573 0.1871 0.1801 0 0.3324-0.06213 0.4573-0.1871 0.1286-0.1286 0.1933-0.283 0.1933-0.463 0-0.1764-0.06465-0.3272-0.1933-0.4522-0.1249-0.1286-0.2773-0.1928-0.4573-0.1928zm39.75 0c-0.1801 0-0.3324 0.06213-0.4573 0.1871-0.1249 0.1249-0.1876 0.2778-0.1876 0.4579s0.06264 0.3344 0.1876 0.463c0.1286 0.1249 0.281 0.1871 0.4573 0.1871 0.1801 0 0.3324-0.06213 0.4573-0.1871 0.1286-0.1286 0.1933-0.283 0.1933-0.463 0-0.1764-0.06465-0.3272-0.1933-0.4522-0.1249-0.1286-0.2773-0.1928-0.4573-0.1928zm-230.6 0.005168c-0.1727 0-0.6763 0.01855-1.511 0.05529v8.075h1.102v-3.109c0.4189 0.03675 0.691 0.05478 0.816 0.05478 2.073 0 3.109-0.9075 3.109-2.723 0-1.569-1.172-2.354-3.517-2.354zm0.1928 0.9922c1.459 0 2.188 0.4926 2.188 1.477 0 1.077-0.6835 1.615-2.051 1.615-0.02572 0-0.2723-0.01803-0.739-0.05478v-2.982c0.2536-0.03675 0.454-0.05529 0.601-0.05529zm42.69 0.8547-0.5235 0.6284c-0.327-0.2389-0.7811-0.3586-1.362-0.3586-0.6321 0-1.163 0.206-1.593 0.6175s-0.6449 0.9262-0.6449 1.544c0 0.9628 0.4149 1.639 1.245 2.028-0.2903 0.06982-0.5343 0.1836-0.7328 0.3416-0.1948 0.158-0.2925 0.3344-0.2925 0.5292 0 0.6321 0.4189 0.9483 1.257 0.9483 0.1727 0 0.4138-0.02957 0.7224-0.08837 0.3087-0.0588 0.5216-0.08785 0.6392-0.08785 0.6909 0 1.036 0.2385 1.036 0.7162 0 0.2425-0.1378 0.445-0.4134 0.6067-0.2719 0.1654-0.6448 0.248-1.119 0.248-0.5145 0-1.077-0.204-1.687-0.6118l-0.5679 0.8377c0.2572 0.1948 0.5975 0.3601 1.02 0.4961 0.4226 0.136 0.825 0.2041 1.207 0.2041 0.746 0 1.361-0.1674 1.846-0.5018 0.4887-0.3344 0.7333-0.7734 0.7333-1.317 0-0.4924-0.1639-0.8768-0.4909-1.152-0.3234-0.2793-0.7754-0.4186-1.356-0.4186-0.1617 0-0.4097 0.02905-0.7441 0.08785-0.3344 0.05512-0.5804 0.08268-0.7385 0.08268-0.3601 0-0.54-0.07516-0.54-0.2258 0-0.1102 0.08619-0.1984 0.2589-0.2646 0.1727-0.06982 0.3105-0.1104 0.4134-0.1214l0.8656-0.08785c0.6027-0.0588 1.089-0.2903 1.46-0.6945 0.3712-0.4042 0.5571-0.9043 0.5571-1.5 0-0.5622-0.1343-1.018-0.4026-1.367l0.6284-0.4739zm154 0-0.524 0.6284c-0.327-0.2389-0.7805-0.3586-1.361-0.3586-0.6321 0-1.163 0.206-1.593 0.6175s-0.6449 0.9262-0.6449 1.544c0 0.9628 0.4154 1.639 1.246 2.028-0.2903 0.06982-0.5349 0.1836-0.7333 0.3416-0.1948 0.158-0.292 0.3344-0.292 0.5292 0 0.6321 0.4189 0.9483 1.257 0.9483 0.1727 0 0.4132-0.02957 0.7219-0.08837s0.5216-0.08785 0.6392-0.08785c0.6909 0 1.037 0.2385 1.037 0.7162 0 0.2425-0.1378 0.445-0.4134 0.6067-0.2719 0.1654-0.6453 0.248-1.119 0.248-0.5145 0-1.077-0.204-1.687-0.6118l-0.5674 0.8377c0.2572 0.1948 0.597 0.3601 1.02 0.4961 0.4226 0.136 0.825 0.2041 1.207 0.2041 0.746 0 1.361-0.1674 1.846-0.5018 0.4888-0.3344 0.7333-0.7734 0.7333-1.317 0-0.4924-0.1634-0.8768-0.4904-1.152-0.3234-0.2793-0.7754-0.4186-1.356-0.4186-0.1617 0-0.4097 0.02905-0.7441 0.08785-0.3344 0.05512-0.581 0.08268-0.739 0.08268-0.3601 0-0.54-0.07516-0.54-0.2258 0-0.1102 0.08618-0.1984 0.2589-0.2646 0.1727-0.06982 0.3105-0.1104 0.4134-0.1214l0.8656-0.08785c0.6027-0.0588 1.09-0.2903 1.461-0.6945 0.3712-0.4042 0.5566-0.9043 0.5566-1.5 0-0.5622-0.1343-1.018-0.4026-1.367l0.6284-0.4739zm-189.8 0.2698c-0.7533 0-1.321 0.3513-1.703 1.053v-0.9426h-1.047v5.904h1.047v-3.385c0-0.4814 0.1378-0.8928 0.4134-1.235 0.2793-0.3418 0.6045-0.5126 0.9756-0.5126 0.2315 0 0.4615 0.07918 0.6894 0.2372l0.4351-1.02c-0.3528-0.06615-0.6229-0.09922-0.8103-0.09922zm3.842 0c-0.8011 0-1.448 0.2811-1.94 0.8434-0.4887 0.5586-0.7328 1.294-0.7328 2.205 0 0.9407 0.235 1.688 0.7054 2.243 0.4704 0.5549 1.126 0.8325 1.968 0.8325 0.8232 0 1.474-0.2736 1.951-0.8211 0.4777-0.5512 0.7168-1.303 0.7168-2.255 0-0.9554-0.2335-1.702-0.7002-2.238-0.4667-0.5402-1.123-0.8103-1.968-0.8103zm24.77 0c-0.7827 0-1.347 0.2906-1.692 0.8713l-0.3307-0.7607h-0.7162v5.904h1.047v-4.388c0.1396-0.2095 0.3401-0.3859 0.601-0.5292s0.511-0.215 0.7498-0.215c0.4446 0 0.7603 0.1268 0.9477 0.3803 0.1911 0.2499 0.2868 0.6888 0.2868 1.317v3.434h1.047v-3.655c0-1.573-0.6469-2.36-1.94-2.36zm18.95 0c-0.8011 0-1.448 0.2811-1.94 0.8434-0.4887 0.5586-0.7328 1.294-0.7328 2.205 0 0.9407 0.235 1.688 0.7054 2.243 0.4704 0.5549 1.126 0.8325 1.968 0.8325 0.8232 0 1.474-0.2736 1.951-0.8211 0.4777-0.5512 0.7168-1.303 0.7168-2.255 0-0.9554-0.2335-1.702-0.7002-2.238-0.4667-0.5402-1.123-0.8103-1.968-0.8103zm6.063 0c-0.8011 0-1.448 0.2811-1.94 0.8434-0.4887 0.5586-0.7333 1.294-0.7333 2.205 0 0.9407 0.235 1.688 0.7054 2.243 0.4704 0.5549 1.126 0.8325 1.968 0.8325 0.8231 0 1.474-0.2736 1.951-0.8211 0.4777-0.5512 0.7168-1.303 0.7168-2.255 0-0.9554-0.2335-1.702-0.7002-2.238-0.4667-0.5402-1.123-0.8103-1.968-0.8103zm15.29 0c-0.3197 0-0.6559 0.05914-1.009 0.1767-0.3491 0.1139-0.6232 0.2517-0.8217 0.4134l0.4413 0.8764c0.3528-0.3528 0.8559-0.5292 1.51-0.5292 0.8525 0 1.279 0.4775 1.279 1.433-0.2793-0.09554-0.5293-0.1431-0.7498-0.1431-0.8121 0-1.481 0.2075-2.006 0.6227-0.5218 0.4116-0.7829 0.9167-0.7829 1.516 0 0.4998 0.1689 0.9187 0.5069 1.257 0.3418 0.3344 0.7441 0.5018 1.207 0.5018 0.8636 0 1.505-0.2626 1.924-0.7881 0.09187 0.2793 0.2427 0.4792 0.4522 0.6005 0.2131 0.1213 0.5328 0.1819 0.9591 0.1819v-0.5235c-0.3087-0.1727-0.463-0.518-0.463-1.036v-2.117c0-0.8489-0.1949-1.468-0.5845-1.858-0.3858-0.3895-1.007-0.5845-1.863-0.5845zm6.835 0c-0.7827 0-1.346 0.2906-1.692 0.8713l-0.3307-0.7607h-0.7168v5.904h1.047v-4.388c0.1396-0.2095 0.3396-0.3859 0.6005-0.5292s0.511-0.215 0.7498-0.215c0.4446 0 0.7608 0.1268 0.9483 0.3803 0.1911 0.2499 0.2863 0.6888 0.2863 1.317v3.434h1.047v-3.655c0-1.573-0.6469-2.36-1.94-2.36zm14.68 0c-0.5696 0-1.031 0.1363-1.384 0.4082-0.3528 0.2719-0.5292 0.6503-0.5292 1.135 0 0.1874 0.02957 0.3638 0.08837 0.5292 0.06247 0.1617 0.1542 0.316 0.2754 0.463 0.1249 0.1433 0.2703 0.2721 0.4356 0.386 0.169 0.1139 0.4942 0.2808 0.9757 0.5013 0.6247 0.2793 0.9369 0.614 0.9369 1.004 0 0.5439-0.3232 0.8155-0.97 0.8155-0.3565 0-0.827-0.1909-1.411-0.5731l-0.369 0.9922c0.5475 0.3087 1.132 0.463 1.753 0.463 0.6578 0 1.172-0.1488 1.543-0.4465 0.3712-0.3013 0.5571-0.7168 0.5571-1.246 0-0.4042-0.1047-0.7405-0.3142-1.009s-0.5442-0.5068-1.004-0.7162l-0.7493-0.3421c-0.43-0.1948-0.6449-0.4814-0.6449-0.8599 0-0.1801 0.08417-0.3289 0.2532-0.4465 0.1727-0.1176 0.3842-0.1762 0.6341-0.1762 0.4189 0 0.8358 0.1654 1.251 0.4961l0.2977-0.97c-0.6541-0.2719-1.196-0.4082-1.626-0.4082zm5.38 0c-0.7239 0-1.35 0.2631-1.879 0.7886-0.5916 0.588-0.8873 1.369-0.8873 2.342 0 0.9371 0.2881 1.683 0.8651 2.238 0.5181 0.5034 1.149 0.755 1.891 0.755 0.5145 0 0.981-0.07717 1.4-0.2315 0.3344-0.1176 0.5824-0.2574 0.7441-0.4191l-0.4408-0.755c-0.4006 0.3491-0.9002 0.5235-1.499 0.5235-0.5255 0-0.9554-0.1613-1.29-0.4847-0.3785-0.3712-0.5679-0.9023-0.5679-1.593h4.256c0.05513-0.1948 0.08268-0.4077 0.08268-0.6392 0-0.7533-0.2315-1.358-0.6945-1.814-0.4777-0.474-1.138-0.7111-1.979-0.7111zm6.604 0c-0.7533 0-1.321 0.3513-1.703 1.053v-0.9426h-1.047v5.904h1.047v-3.385c0-0.4814 0.1378-0.8928 0.4134-1.235 0.2793-0.3418 0.6045-0.5126 0.9756-0.5126 0.2315 0 0.461 0.07918 0.6888 0.2372l0.4356-1.02c-0.3528-0.06615-0.6229-0.09922-0.8103-0.09922zm12.98 0c-0.9481 0-1.696 0.2851-2.243 0.8547-0.5439 0.5696-0.816 1.325-0.816 2.265 0 0.9224 0.2626 1.653 0.7881 2.194 0.5255 0.5402 1.191 0.8103 1.996 0.8103 0.8305 0 1.527-0.1819 2.089-0.5457l-0.4134-0.8821c-0.4777 0.3638-0.9518 0.5457-1.422 0.5457-0.6063 0-1.08-0.1799-1.422-0.54-0.3418-0.3638-0.5126-0.891-0.5126-1.582 0-0.6945 0.1674-1.24 0.5018-1.637 0.3344-0.4006 0.7864-0.601 1.356-0.601 0.2609 0 0.5255 0.0476 0.7938 0.1431 0.2719 0.09554 0.4614 0.1968 0.5679 0.3033l0.5178-0.7385c-0.169-0.136-0.4316-0.2683-0.7881-0.3969-0.3564-0.1286-0.6872-0.1933-0.9922-0.1933zm5.308 0c-0.7239 0-1.35 0.2631-1.879 0.7886-0.5916 0.588-0.8878 1.369-0.8878 2.342 0 0.9371 0.2886 1.683 0.8656 2.238 0.5181 0.5034 1.149 0.755 1.891 0.755 0.5145 0 0.981-0.07717 1.4-0.2315 0.3344-0.1176 0.5824-0.2574 0.7441-0.4191l-0.4408-0.755c-0.4006 0.3491-0.9007 0.5235-1.5 0.5235-0.5255 0-0.9554-0.1613-1.29-0.4847-0.3785-0.3712-0.5674-0.9023-0.5674-1.593h4.255c0.05512-0.1948 0.08268-0.4077 0.08268-0.6392 0-0.7533-0.2315-1.358-0.6945-1.814-0.4777-0.474-1.137-0.7111-1.979-0.7111zm5.336 0c-0.5696 0-1.031 0.1363-1.383 0.4082-0.3528 0.2719-0.5292 0.6503-0.5292 1.135 0 0.1874 0.02957 0.3638 0.08836 0.5292 0.06248 0.1617 0.1542 0.316 0.2754 0.463 0.1249 0.1433 0.2703 0.2721 0.4356 0.386 0.169 0.1139 0.4943 0.2808 0.9756 0.5013 0.6247 0.2793 0.9369 0.614 0.9369 1.004 0 0.5439-0.3232 0.8155-0.97 0.8155-0.3565 0-0.827-0.1909-1.411-0.5731l-0.3695 0.9922c0.5475 0.3087 1.132 0.463 1.753 0.463 0.6578 0 1.172-0.1488 1.544-0.4465 0.3711-0.3013 0.5566-0.7168 0.5566-1.246 0-0.4042-0.1047-0.7405-0.3142-1.009s-0.5437-0.5068-1.003-0.7162l-0.7498-0.3421c-0.4299-0.1948-0.6449-0.4814-0.6449-0.8599 0-0.1801 0.0847-0.3289 0.2537-0.4465 0.1727-0.1176 0.3842-0.1762 0.6341-0.1762 0.4189 0 0.8358 0.1654 1.251 0.4961l0.2977-0.97c-0.6541-0.2719-1.196-0.4082-1.626-0.4082zm12.85 0c-0.8011 0-1.448 0.2811-1.94 0.8434-0.4888 0.5586-0.7333 1.294-0.7333 2.205 0 0.9407 0.235 1.688 0.7054 2.243s1.126 0.8325 1.968 0.8325c0.8232 0 1.474-0.2736 1.951-0.8211 0.4777-0.5512 0.7168-1.303 0.7168-2.255 0-0.9554-0.2335-1.702-0.7002-2.238-0.4667-0.5402-1.123-0.8103-1.968-0.8103zm6.609 0c-0.7533 0-1.321 0.3513-1.703 1.053v-0.9426h-1.047v5.904h1.047v-3.385c0-0.4814 0.1378-0.8928 0.4134-1.235 0.2793-0.3418 0.6045-0.5126 0.9756-0.5126 0.2315 0 0.461 0.07918 0.6888 0.2372l0.4356-1.02c-0.3528-0.06615-0.6229-0.09922-0.8103-0.09922zm7.237 0c-0.8011 0-1.448 0.2811-1.94 0.8434-0.4887 0.5586-0.7328 1.294-0.7328 2.205 0 0.9407 0.235 1.688 0.7054 2.243s1.126 0.8325 1.968 0.8325c0.8232 0 1.474-0.2736 1.951-0.8211 0.4777-0.5512 0.7168-1.303 0.7168-2.255 0-0.9554-0.2335-1.702-0.7002-2.238-0.4667-0.5402-1.123-0.8103-1.968-0.8103zm12.78 0c-0.7533 0-1.321 0.3513-1.703 1.053v-0.9426h-1.047v5.904h1.047v-3.385c0-0.4814 0.1378-0.8928 0.4134-1.235 0.2793-0.3418 0.6045-0.5126 0.9756-0.5126 0.2315 0 0.461 0.07918 0.6888 0.2372l0.4356-1.02c-0.3528-0.06615-0.6229-0.09922-0.8103-0.09922zm7.689 0c-0.7827 0-1.347 0.2906-1.692 0.8713l-0.3307-0.7607h-0.7162v5.904h1.047v-4.388c0.1396-0.2095 0.3401-0.3859 0.601-0.5292s0.511-0.215 0.7498-0.215c0.4446 0 0.7603 0.1268 0.9478 0.3803 0.1911 0.2499 0.2868 0.6888 0.2868 1.317v3.434h1.047v-3.655c0-1.573-0.6469-2.36-1.94-2.36zm5.815 0c-0.7239 0-1.35 0.2631-1.879 0.7886-0.5916 0.588-0.8873 1.369-0.8873 2.342 0 0.9371 0.2881 1.683 0.8651 2.238 0.5181 0.5034 1.149 0.755 1.891 0.755 0.5145 0 0.981-0.07717 1.4-0.2315 0.3344-0.1176 0.5824-0.2574 0.7441-0.4191l-0.4408-0.755c-0.4006 0.3491-0.9002 0.5235-1.499 0.5235-0.5255 0-0.9554-0.1613-1.29-0.4847-0.3785-0.3712-0.5679-0.9023-0.5679-1.593h4.256c0.05512-0.1948 0.08268-0.4077 0.08268-0.6392 0-0.7533-0.2315-1.358-0.6945-1.814-0.4777-0.474-1.138-0.7111-1.979-0.7111zm27.4 0c-0.8011 0-1.448 0.2811-1.94 0.8434-0.4887 0.5586-0.7333 1.294-0.7333 2.205 0 0.9407 0.235 1.688 0.7054 2.243s1.126 0.8325 1.968 0.8325c0.8231 0 1.474-0.2736 1.951-0.8211 0.4777-0.5512 0.7168-1.303 0.7168-2.255 0-0.9554-0.2335-1.702-0.7002-2.238-0.4667-0.5402-1.123-0.8103-1.968-0.8103zm6.609 0c-0.7533 0-1.321 0.3513-1.703 1.053v-0.9426h-1.047v5.904h1.047v-3.385c0-0.4814 0.1378-0.8928 0.4134-1.235 0.2793-0.3418 0.6045-0.5126 0.9756-0.5126 0.2315 0 0.461 0.07918 0.6888 0.2372l0.4356-1.02c-0.3528-0.06615-0.6229-0.09922-0.8103-0.09922zm3.12 0c-0.5696 0-1.031 0.1363-1.383 0.4082-0.3528 0.2719-0.5292 0.6503-0.5292 1.135 0 0.1874 0.02906 0.3638 0.08785 0.5292 0.06248 0.1617 0.1547 0.316 0.276 0.463 0.1249 0.1433 0.2697 0.2721 0.4351 0.386 0.169 0.1139 0.4943 0.2808 0.9756 0.5013 0.6247 0.2793 0.9374 0.614 0.9374 1.004 0 0.5439-0.3237 0.8155-0.9705 0.8155-0.3564 0-0.8265-0.1909-1.411-0.5731l-0.3695 0.9922c0.5475 0.3087 1.132 0.463 1.753 0.463 0.6578 0 1.172-0.1488 1.544-0.4465 0.3712-0.3013 0.5566-0.7168 0.5566-1.246 0-0.4042-0.1047-0.7405-0.3142-1.009s-0.5437-0.5068-1.003-0.7162l-0.7498-0.3421c-0.4299-0.1948-0.6449-0.4814-0.6449-0.8599 0-0.1801 0.08469-0.3289 0.2537-0.4465 0.1727-0.1176 0.3837-0.1762 0.6336-0.1762 0.4189 0 0.8364 0.1654 1.252 0.4961l0.2977-0.97c-0.6541-0.2719-1.196-0.4082-1.626-0.4082zm12.35 0c-0.7827 0-1.347 0.2906-1.692 0.8713l-0.3307-0.7607h-0.7162v5.904h1.047v-4.388c0.1396-0.2095 0.3401-0.3859 0.601-0.5292s0.511-0.215 0.7498-0.215c0.4446 0 0.7603 0.1268 0.9478 0.3803 0.1911 0.2499 0.2868 0.6888 0.2868 1.317v3.434h1.047v-3.655c0-1.573-0.6469-2.36-1.94-2.36zm9.569 0c-0.7827 0-1.346 0.2906-1.692 0.8713l-0.3307-0.7607h-0.7168v5.904h1.047v-4.388c0.1396-0.2095 0.3396-0.3859 0.6005-0.5292s0.511-0.215 0.7498-0.215c0.4446 0 0.7608 0.1268 0.9483 0.3803 0.1911 0.2499 0.2863 0.6888 0.2863 1.317v3.434h1.047v-3.655c0-1.573-0.6469-2.36-1.94-2.36zm5.816 0c-0.7239 0-1.351 0.2631-1.88 0.7886-0.5916 0.588-0.8873 1.369-0.8873 2.342 0 0.9371 0.2886 1.683 0.8656 2.238 0.5181 0.5034 1.148 0.755 1.89 0.755 0.5145 0 0.9815-0.07717 1.4-0.2315 0.3344-0.1176 0.5824-0.2574 0.7441-0.4191l-0.4413-0.755c-0.4006 0.3491-0.9002 0.5235-1.499 0.5235-0.5255 0-0.9554-0.1613-1.29-0.4847-0.3785-0.3712-0.5679-0.9023-0.5679-1.593h4.256c0.05512-0.1948 0.08269-0.4077 0.08269-0.6392 0-0.7533-0.2315-1.358-0.6945-1.814-0.4777-0.474-1.137-0.7111-1.979-0.7111zm6.152 0c-0.7239 0-1.351 0.2631-1.88 0.7886-0.5916 0.588-0.8873 1.369-0.8873 2.342 0 0.9371 0.2886 1.683 0.8656 2.238 0.5181 0.5034 1.148 0.755 1.89 0.755 0.5145 0 0.9815-0.07717 1.4-0.2315 0.3344-0.1176 0.5824-0.2574 0.7441-0.4191l-0.4413-0.755c-0.4006 0.3491-0.9001 0.5235-1.499 0.5235-0.5255 0-0.9554-0.1613-1.29-0.4847-0.3785-0.3712-0.5679-0.9023-0.5679-1.593h4.256c0.05512-0.1948 0.08268-0.4077 0.08268-0.6392 0-0.7533-0.2315-1.358-0.6945-1.814-0.4777-0.474-1.137-0.7111-1.979-0.7111zm-243.1 0.09405 2.53 6.03h0.2754l2.591-6.03h-1.097l-1.593 4.134-1.56-4.134zm96.35 0 2.53 6.03h0.2754l2.591-6.03h-1.097l-1.593 4.134-1.56-4.134zm-90.44 0.01654v0.8816h0.8103v5.022h1.047v-5.904zm9.503 0v0.8816h0.8103v5.022h1.047v-5.904zm86.85 0v0.8816h0.8103v5.022h1.047v-5.904zm47.26 0v3.875c0 0.6835 0.1709 1.211 0.5126 1.582 0.3454 0.3712 0.8415 0.5566 1.488 0.5566 0.3381 0 0.6833-0.09572 1.036-0.2868 0.3564-0.1948 0.5935-0.4077 0.7111-0.6392v0.816h1.047v-5.904h-1.047v4.145c-0.09186 0.2609-0.2808 0.4904-0.5674 0.6888s-0.6028 0.2977-0.9483 0.2977c-0.7901 0-1.185-0.4555-1.185-1.367v-3.765zm26.03 0v0.8816h0.8103v5.022h1.047v-5.904zm39.75 0v0.8816h0.8103v5.022h1.047v-5.904zm-188.2 0.7328c0.3381 0 0.6192 0.1288 0.8434 0.386 0.2278 0.2572 0.3416 0.5694 0.3416 0.9369 0 0.4263-0.1047 0.772-0.3142 1.037-0.2095 0.2609-0.4996 0.3912-0.8707 0.3912-0.3785 0-0.6797-0.1343-0.9038-0.4026-0.2205-0.2719-0.3307-0.6137-0.3307-1.025 0-0.3675 0.1138-0.6797 0.3416-0.9369 0.2315-0.2572 0.5292-0.386 0.893-0.386zm154 0c0.3381 0 0.6192 0.1288 0.8434 0.386 0.2278 0.2572 0.3421 0.5694 0.3421 0.9369 0 0.4263-0.1047 0.772-0.3142 1.037-0.2095 0.2609-0.5001 0.3912-0.8713 0.3912-0.3785 0-0.6797-0.1343-0.9038-0.4026-0.2205-0.2719-0.3307-0.6137-0.3307-1.025 0-0.3675 0.1138-0.6797 0.3416-0.9369 0.2315-0.2572 0.5292-0.386 0.893-0.386zm-184.2 0.01137c1.044 0 1.565 0.7311 1.565 2.194 0 0.6872-0.1393 1.229-0.4186 1.626-0.2756 0.3969-0.658 0.5953-1.147 0.5953-1.047 0-1.571-0.7406-1.571-2.222 0-0.6835 0.1413-1.22 0.4243-1.61 0.2866-0.3895 0.669-0.5839 1.147-0.5839zm43.72 0c1.044 0 1.565 0.7311 1.565 2.194 0 0.6872-0.1393 1.229-0.4186 1.626-0.2756 0.3969-0.658 0.5953-1.147 0.5953-1.047 0-1.571-0.7406-1.571-2.222 0-0.6835 0.1413-1.22 0.4243-1.61 0.2866-0.3895 0.669-0.5839 1.147-0.5839zm6.063 0c1.044 0 1.566 0.7311 1.566 2.194 0 0.6872-0.1398 1.229-0.4191 1.626-0.2756 0.3969-0.658 0.5953-1.147 0.5953-1.047 0-1.571-0.7406-1.571-2.222 0-0.6835 0.1418-1.22 0.4248-1.61 0.2866-0.3895 0.6685-0.5839 1.146-0.5839zm85.26 0c1.044 0 1.566 0.7311 1.566 2.194 0 0.6872-0.1398 1.229-0.4191 1.626-0.2756 0.3969-0.658 0.5953-1.147 0.5953-1.047 0-1.571-0.7406-1.571-2.222 0-0.6835 0.1418-1.22 0.4248-1.61 0.2866-0.3895 0.6685-0.5839 1.146-0.5839zm13.85 0c1.044 0 1.565 0.7311 1.565 2.194 0 0.6872-0.1393 1.229-0.4186 1.626-0.2756 0.3969-0.658 0.5953-1.147 0.5953-1.047 0-1.571-0.7406-1.571-2.222 0-0.6835 0.1413-1.22 0.4243-1.61 0.2866-0.3895 0.669-0.5839 1.147-0.5839zm53.69 0c1.044 0 1.566 0.7311 1.566 2.194 0 0.6872-0.1398 1.229-0.4191 1.626-0.2756 0.3969-0.658 0.5953-1.147 0.5953-1.047 0-1.571-0.7406-1.571-2.222 0-0.6835 0.1418-1.22 0.4248-1.61 0.2866-0.3895 0.6685-0.5839 1.146-0.5839zm-187.4 0.02739c0.4593 0 0.8211 0.1984 1.086 0.5953v3.274c-0.0588 0.1176-0.2041 0.2298-0.4356 0.3364-0.2315 0.1029-0.43 0.154-0.5953 0.154-1.294 0-1.94-0.7111-1.94-2.133 0-0.6468 0.1724-1.179 0.5178-1.598 0.3491-0.4189 0.8051-0.6284 1.367-0.6284zm41.03 0c0.4593 0 0.8216 0.1984 1.086 0.5953v3.274c-0.0588 0.1176-0.2041 0.2298-0.4356 0.3364-0.2315 0.1029-0.43 0.154-0.5953 0.154-1.294 0-1.94-0.7111-1.94-2.133 0-0.6468 0.1729-1.179 0.5183-1.598 0.3491-0.4189 0.8046-0.6284 1.367-0.6284zm21.78 0c0.4594 0 0.8211 0.1984 1.086 0.5953v3.274c-0.05879 0.1176-0.2036 0.2298-0.4351 0.3364-0.2315 0.1029-0.43 0.154-0.5953 0.154-1.294 0-1.94-0.7111-1.94-2.133 0-0.6468 0.1729-1.179 0.5183-1.598 0.3491-0.4189 0.8046-0.6284 1.367-0.6284zm14.02 0c0.4998 0 0.8952 0.1543 1.185 0.463 0.2646 0.283 0.3969 0.6357 0.3969 1.058h-3.269c0.04043-0.4263 0.2113-0.7826 0.5126-1.069 0.316-0.3013 0.7074-0.4522 1.174-0.4522zm24.89 0c0.4998 0 0.8946 0.1543 1.185 0.463 0.2646 0.283 0.3969 0.6357 0.3969 1.058h-3.269c0.04042-0.4263 0.2113-0.7826 0.5126-1.069 0.316-0.3013 0.7074-0.4522 1.174-0.4522zm58.32 0c0.4998 0 0.8952 0.1543 1.185 0.463 0.2646 0.283 0.3969 0.6357 0.3969 1.058h-3.269c0.04042-0.4263 0.2113-0.7826 0.5126-1.069 0.316-0.3013 0.7074-0.4522 1.174-0.4522zm20.81 0c0.61 0 1.095 0.1874 1.455 0.5622 0.3601 0.3748 0.54 0.8965 0.54 1.565 0 0.8048-0.1544 1.378-0.463 1.72-0.3087 0.3418-0.8193 0.5126-1.532 0.5126-0.136 0-0.3344-0.06614-0.5953-0.1984-0.2609-0.136-0.3917-0.2332-0.3917-0.292v-3.407c0.06982-0.08819 0.2186-0.1874 0.4465-0.2977 0.2315-0.1102 0.4119-0.1654 0.5405-0.1654zm44.05 0c0.4998 0 0.8946 0.1543 1.185 0.463 0.2646 0.283 0.3969 0.6357 0.3969 1.058h-3.269c0.04042-0.4263 0.2113-0.7826 0.5126-1.069 0.316-0.3013 0.7074-0.4522 1.174-0.4522zm6.152 0c0.4998 0 0.8946 0.1543 1.185 0.463 0.2646 0.283 0.3969 0.6357 0.3969 1.058h-3.269c0.04042-0.4263 0.2113-0.7826 0.5126-1.069 0.316-0.3013 0.7074-0.4522 1.174-0.4522zm6.377 0c0.4594 0 0.8211 0.1984 1.086 0.5953v3.274c-0.05879 0.1176-0.2036 0.2298-0.4351 0.3364-0.2315 0.1029-0.4299 0.154-0.5953 0.154-1.294 0-1.94-0.7111-1.94-2.133 0-0.6468 0.1729-1.179 0.5183-1.598 0.3491-0.4189 0.8046-0.6284 1.367-0.6284zm-186.8 2.122c0.1323 0 0.3638 0.03658 0.6945 0.1101v1.428c-0.4079 0.5034-0.8764 0.755-1.406 0.755-0.7239 0-1.086-0.3067-1.086-0.9204 0-0.3712 0.1668-0.6929 0.5013-0.9648 0.3344-0.2719 0.7664-0.4077 1.296-0.4077z"
     style="fill:#ffffff"
     id="path14" />
</svg>
