<svg version="1.1" viewBox="0 0 113.3 113.3" xmlns="http://www.w3.org/2000/svg">
 <path d="m112.9 56.8a56.1 56.1 0 0 1-56.1 56.1 56.1 56.1 0 0 1-56.1-56.1 56.1 56.1 0 0 1 56.1-56.1 56.1 56.1 0 0 1 56.1 56.1z" style="fill:#55acee"/>
 <path d="m91.16 41.02c-2.404 1.066-4.99 1.787-7.702 2.109 2.769-1.659 4.894-4.284 5.897-7.417-2.591 1.537-5.462 2.652-8.515 3.253-2.446-2.605-5.931-4.233-9.79-4.233-7.404 0-13.41 6.005-13.41 13.41 0 1.051 0.119 2.074 0.349 3.056-11.14-0.559-21.02-5.897-27.64-14.01-1.154 1.98-1.816 4.285-1.816 6.742 0 4.651 2.369 8.757 5.965 11.16-2.197-0.069-4.266-0.672-6.073-1.679-1e-3 0.057-1e-3 0.114-1e-3 0.17 0 6.497 4.624 11.92 10.76 13.15-1.124 0.308-2.311 0.471-3.532 0.471-0.866 0-1.705-0.083-2.523-0.239 1.706 5.326 6.657 9.203 12.53 9.312-4.59 3.597-10.37 5.74-16.66 5.74-1.08 0-2.15-0.063-3.197-0.188 5.931 3.806 12.98 6.025 20.55 6.025 24.66 0 38.15-20.43 38.15-38.15 0-0.581-0.013-1.16-0.039-1.734 2.622-1.89 4.895-4.251 6.692-6.94z" style="fill:#f1f2f2"/>
</svg>
